<?xml version="1.0"?>
<svg xmlns:rdf="http://www.w3.org/1999/02/22-rdf-syntax-ns#" xmlns="http://www.w3.org/2000/svg" xmlns:cc="http://creativecommons.org/ns#" xmlns:dc="http://purl.org/dc/elements/1.1/" xmlns:svg="http://www.w3.org/2000/svg" id="svg2" viewBox="0 0 1463 1595" version="1.0">
  <path id="selection_to_path" stroke="#000" stroke-width="1.1781" d="m598.89-7.8228l-1.17 8.2972c5.85 3.556 5.85 4.7414 12.88 5.9267 1.17 9.4829 4.68 10.668 4.68 15.409 0 9.483-16.39 15.41-24.58 17.78-1.18-3.556-1.18-10.668-2.35-14.224-5.85-10.668-21.07-18.965-31.61-20.15-5.85-0.0002-23.42 1.1851-26.93 7.112-1.17 1.185-1.17 2.37-1.17 4.741 12.88 2.371 31.61 13.039 29.27 28.448-1.17 9.482-7.02 15.409-9.36 22.521-8.2-3.556-9.37-9.483-23.42-13.039-16.39-4.741-44.49 8.298-46.84 24.892 5.86-1.185 14.05-4.741 18.74-3.556 14.05 1.186 22.24 14.224 22.24 28.445l-1.17 8.3c-10.53 0-7.02-2.37-21.07-2.37-18.74 0-39.81 17.78-42.15 37.93 14.05-4.74 14.05-10.67 24.59-8.3 5.85-3.55 10.53 1.19 15.22 4.74 2.34 2.37 3.51 4.75 4.68 8.3 3.51 5.93 10.54 22.52 9.37 29.63-1.17 4.75-4.69 4.75-8.2 5.93-5.85 1.19-11.71 4.74-16.39 7.11-5.86 4.74-12.88 15.41-14.05 22.52l-1.17 14.23c7.02-3.56 12.88-14.23 21.07-15.41 8.2-2.37 19.91 5.93 24.59 11.85 2.34 2.37 4.68 5.93 7.03 9.48 3.51 4.75 5.85 5.93 5.85 11.86 5.85 4.74-7.03 8.3-12.88 13.04s-14.05 21.33-15.22 29.63c-1.17 4.74 0 9.48 2.34 13.04 7.03-5.93 7.03-13.04 12.88-17.78 2.34-1.19 4.68-1.19 7.03-2.37 9.36-3.56 11.7 0 19.9 4.74 3.51 1.18 10.54 7.11 10.54 11.85 1.17 4.74-7.03 9.48-10.54 15.41-7.03 11.85-5.85 14.23-5.85 27.26 0 3.56 0 11.86 4.68 13.04 2.34 1.19 3.51-1.18 4.68-3.55v-5.93c1.17-5.93 5.86-10.67 10.54-14.22 8.2-3.56 17.56-2.37 24.59 2.37l4.68 3.55 7.03 2.37 5.85 4.74c8.2 3.56 7.03 1.19 12.88 9.49 3.51 0 5.85 2.37 3.51 5.92 0 1.19-10.54 14.23-12.88 21.34l-1.17 7.11c-1.17 15.41 2.34 13.04 2.34 22.52l4.69 5.93c14.05-3.56 3.51-5.93 7.02-17.78 4.69-10.67 15.22-15.41 25.76-14.22 7.03 0 12.88 3.55 18.73 7.11 0 0 21.08 7.11 21.08 7.11l5.85 3.56c2.35 1.18 14.05 4.74 16.4 4.74 3.51 0 5.85-1.19 10.53 0l14.05 9.48 28.1 15.41 8.2 7.11s17.56 9.48 17.56 9.48c8.2 5.93 12.88 11.86 24.59 11.86 1.17 4.74 7.03 8.29 11.71 10.66 8.19 4.75 24.59 16.6 32.78 17.78 2.34 7.12 19.91 16.6 26.93 17.78 2.34 4.75 7.03 7.12 11.71 9.49l9.37 8.29 8.19 3.56 9.37 5.93 7.02 5.92 12.88 8.3 38.64 23.71c8.2 4.74 18.74 17.78 28.14 18.96 2.3 8.3 18.7 24.89 25.7 33.19 7 11.85 12.9 23.71 15.2 36.75v8.29s2.4 8.3 2.4 8.3c1.2 3.56-1.2 9.48-2.4 14.22l-2.3 11.86-9.4 17.78c-4.6 7.11-8.2 11.85-15.2 17.78-15.2 13.04-38.63 22.52-58.53 22.52-5.85 0-16.39-1.19-22.25-2.37l-8.19-2.37c-19.91-3.56-33.96-8.3-52.69-16.6l-39.81-17.78c-5.85-3.55-12.88-7.11-18.73-8.29 1.17-3.56 3.51-7.12 2.34-10.67-1.17-3.56-9.37-8.3-12.88-10.67-11.71-9.48-25.76-16.59-36.3-27.26-10.53-10.67-11.7-18.97 0-28.45 2.35-3.56 4.69-4.74 9.37-7.11 7.03-3.56 4.68-4.74 14.05-7.11-12.88-7.12-40.98 2.37-51.52 11.85l-12.88 14.22c-3.51 1.19-7.02-1.18-9.36-3.55-5.86-4.74-15.22-14.23-11.71-22.52 3.51-8.3 14.05-13.04 16.39-15.41 1.17-2.37 1.17-3.56 1.17-4.74l11.71-3.56c-5.85-2.37-15.22-1.19-21.07 1.18-18.74 4.75-40.98 20.16-43.33 41.49 0 4.74 2.35 8.3 0 9.48-3.51 1.19-14.05-3.55-17.56-4.74l-45.66-16.59c-9.37-2.37-9.37-1.19-16.39-2.37l-10.54-3.56s-29.27-3.55-29.27-3.55-22.25-5.93-22.25-5.93c-15.22-2.37-65.57-8.3-79.62-8.3h-21.07l-30.44 2.37c-8.2 1.19-4.69 2.37-16.4 2.37 0-2.37 1.18-4.74 0-5.92-2.34-3.56-14.05-3.56-17.56-3.56l-16.39 1.19-23.42 1.18c-5.85 0-16.39 0-21.07-4.74-12.88-11.85 1.17-32 3.51-41.49-11.71 3.56-23.42 18.97-28.1 30.82l-1.17 7.11-3.51 7.12s-1.17 16.59-1.17 16.59 3.51 7.11 3.51 7.11c-11.71 4.74-19.91 13.04-32.78 11.86-16.4-1.19-16.4-28.45-14.06-40.31-5.85 3.56-7.02 7.12-9.36 13.04-7.03 13.04-3.51 9.49-5.86 21.34 0 4.74-1.17 7.11-1.17 11.85l3.52 13.04c0 4.74 8.19 14.22 7.02 18.97-2.34 4.74-14.05 10.66-19.9 9.48-3.52 0-7.03-1.19-9.37-3.56-7.03-5.92-12.88-22.52-11.71-33.19-7.02 7.11-7.02 16.6-9.37 24.89 2.35 3.56 2.35 13.04 2.35 17.78 2.34 8.3 5.85 15.41 10.53 22.53 4.69 4.74 7.03 7.11 12.88 9.48 3.52 1.18 8.2 1.18 9.37 4.74s-3.51 13.04-4.68 16.59l-8.2 35.56v13.04s2.34 33.19 2.34 33.19l7.03 20.15s14.05 23.71 14.05 23.71l17.56 17.78 23.42 23.71 8.19 3.55 5.86 4.74 24.58 13.04 11.71 8.3 9.37 3.55 21.08 15.41 7.02 2.37 5.85 3.56 8.2 2.37 8.2 5.93 11.7 5.92s22.25 5.93 22.25 5.93c2.34 5.93 10.54 5.93 15.22 8.3l10.54 3.58 8.2 3.5 21.07 7.1 7.03 3.6 9.36 2.4 9.37 3.5 12.88 3.6 7.02 1.2c4.69 2.3 4.69 4.7 15.22 8.3l14.05 3.5 10.54 4.8 18.74 7.1 8.19 3.5 12.88 4.8 5.86 3.5 22.24 8.3 14.05 5.9 5.86 3.6s12.88 5.9 12.88 5.9h4.68c3.51 4.8 5.85 3.6 10.54 6l8.19 4.7 8.2 3.6 9.36 4.7s19.91 5.9 19.91 5.9 16.39 8.3 16.39 8.3c10.54 4.8 19.91 13.1 31.61 14.2v3.6c4.69 1.2 16.4 7.1 18.74 11.9 4.68 0 3.51 2.3 10.54 7.1 7.02 3.5 12.87 10.6 18.73 16.6l11.71 10.6c3.51 2.4 2.34 3.6 8.19 8.3l11.71 10.7 8.2 8.3c3.51 3.5 4.68 2.4 9.36 8.3l12.88 16.6s12.88 15.4 12.88 15.4l11.71 20.1s4.68 6 4.68 6l4.69 10.6 5.85 8.3 4.69 14.3s4.68 5.9 4.68 5.9l1.17 8.3s3.51 8.3 3.51 8.3l3.51 20.1s1.18 9.5 1.18 9.5c1.17 5.9 2.34 13.1 2.34 19l-2.34 8.3c-1.18 5.9-2.35 11.8-4.69 16.6-11.71 23.7-37.46 45-64.39 45-15.23 0-26.93 1.2-42.15-4.7-18.74-6-33.96-17.8-48.01-32-8.2-7.1-15.22-14.3-22.25-22.6l-10.53-14.2-10.54-13-11.71-17.8-4.68-10.7-5.86-7.1-17.56-27.2-43.32-45.1s-46.83-47.4-46.83-47.4l-49.18-32-14.05-9.5c-11.71-5.9-33.95-10.6-48-11.8 0 0-22.25-6-22.25-6-17.56-2.3-36.3-1.1-55.03-1.1-3.51 0-7.03 0-10.54 2.3-8.19 3.6-15.22 15.4-11.71 24.9 5.86 19 29.27 11.9 31.62 11.9l5.85 1.2 9.37 2.3c4.68 0 5.85-1.2 12.88 0l18.73 6c3.51 1.1 4.68 3.5 9.37 4.7 5.85 2.4 11.71 2.4 17.56 5.9l8.2 7.1 9.36 4.8 17.56 14.2c4.69 3.6 9.37 10.7 16.4 11.9v4.7l14.05 10.7 5.85 10.6 15.22 20.2 9.37 15.4 3.51 5.9 3.51 7.1 9.37 16.6c-17.56 3.6-24.59 27.3-23.42 43.9 0 0 2.35 9.5 2.35 9.5h3.51c3.51-10.7 2.34-16.6 15.22-19l-3.51 13-4.69 13.1v14.2s4.69 4.7 4.69 4.7c7.02-4.7 1.17-8.3 8.19-16.6 3.51-3.5 10.54-3.5 10.54 2.4 0 3.6-2.34 8.3-3.51 11.9-1.17 4.7-2.34 22.5-1.17 27.2 0 2.4 2.34 3.6 3.51 4.8l3.51-13.1c2.34-4.7 9.37-8.3 15.22-5.9 2.34 1.2 4.69 4.7 7.03 5.9 10.54 9.5 5.85 7.1 12.88 17.8l8.19 10.7 8.2 14.2c2.34 3.6 9.37 10.7 11.71 11.9 2.34 0 4.68-1.2 7.02-1.2 1.17 7.1 7.03 14.2 9.37 20.1 0 0 3.51 8.3 3.51 8.3 4.68 10.7 14.05 33.2 24.59 39.1v3.6c-10.54 4.7-17.56 16.6-21.08 27.3l-2.34 14.2 2.34 15.4 8.2 19 9.37-1.2c-3.52-14.3-2.34-35.6 16.39-38 3.51-1.1 15.22 2.4 18.73 3.6 14.05 4.7 16.39 15.4 26.93 20.1l17.56 9.5 10.54 2.4c5.86 2.4 11.71 5.9 17.56 7.1l15.23 1.2c10.53 2.4 11.7 4.7 23.41 2.4 9.37-1.2 17.57-4.8 26.93-7.1 12.88-4.8 22.25-8.3 32.79-17.8 4.68-4.8 5.85-2.4 7.02-9.5 4.68-1.2 5.86-2.4 7.03-7.1 7.02-1.2 7.02-3.6 11.7-9.5 4.69-4.7 9.37-4.7 10.54-13 5.86-2.4 8.2-7.2 10.54-11.9 0 0 14.05-27.3 14.05-27.3l10.54-18.9c2.34-7.1 2.34-9.5 3.51-13.1 0 0 3.55-5.9 3.55-5.9 2.3-8.3 8.2-30.8 8.2-39.1l2.3-16.6 1.2-16.6v-17.8c18.7 0 35.1-9.5 43.3-27.2 0 0 2.3-7.1 2.3-7.1 1.2-7.2 3.5-10.7 1.2-17.8-5.8 5.9-7 10.6-14 15.4-15.3 11.8-27 3.5-37.5-10.7-2.4-3.5-5.9-14.2-7-19l-1.2-8.3-7.03-28.4-2.35-8.3c-4.68-14.2-16.39-29.6-17.56-43.9 15.22-3.5 29.24-30.8 28.14-45 0-4.7-3.55-13-5.89-17.8-5.86 10.7-5.86 26.1-18.74 30.8-5.85 2.4-12.87 0-18.73-2.3-16.39-7.1-21.07-16.6-31.61-29.7-3.51-3.5-12.88-14.2-12.88-18.9-1.17-4.8 5.85-10.7 9.37-14.2 7.02-10.7 10.53-24.9 7.02-36.8-1.17-4.7-2.34-5.9-5.85-8.3-1.17 4.8-3.52 10.7-4.69 15.4-3.51 11.9-16.39 17.8-28.1 13.1-16.39-6-14.05-8.3-25.76-19l-14.05-10.7c-5.85-5.9-11.7-13-2.34-18.9 2.34-11.9 8.2-29.7-2.34-39.2-1.17 10.7-10.54 30.9-23.42 29.7-4.68-1.2-11.7-6-15.22-8.3l-22.24-17.8-14.05-8.3-15.22-10.7-11.71-4.7-14.05-5.9c-10.54-4.8-10.54-7.1-17.57-10.7l-23.41-10.7-14.05-8.27s-16.39-5.92-16.39-5.92l-9.37-3.56-10.54-4.74-10.54-4.74-8.19-5.93-32.79-14.22-26.93-16.6-24.58-14.22-14.05-7.11-8.2-7.12-26.93-18.96-12.88-8.3c-4.68-4.74-12.88-13.04-17.56-17.78-17.56-18.96-25.76-32-29.27-58.08-1.17-4.74-2.34-8.3-2.34-13.04 1.17-11.85 1.17-16.59 5.85-28.45 0 0 3.51-9.48 3.51-9.48 1.17-2.37 3.52-3.55 5.86-5.92 11.71-13.04 29.27-21.34 46.83-22.53h25.76s11.71 2.38 11.71 2.38l19.9 3.55c7.03 2.37 10.54 4.74 14.05 5.93l16.39 4.74s36.3 9.48 36.3 9.48 22.25 9.48 22.25 9.48c2.34 1.19 3.51 3.56 7.02 4.75l8.2 2.37 14.05 7.11 22.24 9.48 5.86 3.56c7.02 3.55 16.39 7.11 21.07 13.04 7.03 0 21.08 9.48 26.93 13.03l7.03 3.56 22.24 14.22 9.37 4.74c5.86 2.38 9.37 4.75 14.05 9.49 9.37 5.92 15.22 5.92 24.59 10.67l11.71 5.92 5.85 4.74 23.42 11.86 16.39 9.48 19.9 9.48 8.2 5.93 15.22 7.11 8.2 2.37 7.02 3.56 14.05 5.92 15.22 9.49c5.86 2.37 9.37 1.18 14.05 7.11 7.03 0 18.74 5.92 24.6 9.48 7 3.56 21.1 7.11 29.3 8.3v4.74h-12.9s-30.46-9.48-30.46-9.48l-9.37-4.74-21.07-7.12-9.37-4.74-10.53-3.55-21.08-9.49-12.88-4.74-26.93-13.04c-5.85-3.55-18.73-11.85-23.42-16.59 0 0-8.19-8.3-8.19-8.3-2.34-1.18-8.2-8.3-11.71-3.55-3.51 3.55 1.17 9.48 3.51 11.85l12.88 13.04c3.51 3.55 9.37 7.11 11.71 10.67 8.2 2.37 9.37 7.11 15.22 11.85l23.42 15.41c9.36 7.11 14.05 15.41 28.1 15.41 2.34 4.74 5.85 5.92 10.54 5.92 1.17 4.75 3.51 3.56 7.02 5.93 7.03 4.74 9.37 7.11 18.73 7.11 1.18 4.74 3.52 4.74 8.2 5.93l25.76 10.67 45.62 11.85 15.3 1.2 12.8 3.5 23.5 6c5.8 2.3 9.3 7.1 19.9 8.3v3.5c4.6 1.2 4.6 1.2 7 4.8 4.7 1.1 12.9 11.8 14 16.6 4.7 11.8 5.9 22.5 1.2 34.3-2.3 7.1-2.3 8.3-8.2 13.1-15.2 13-23.4 14.2-42.1 11.8l-10.6-1.2s-23.4-5.9-23.4-5.9v9.5c7 1.2 7 2.4 12.9 5.9l16.4 4.8c4.7 1.1 7 4.7 11.7 4.7 2.3 1.2 4.7 1.2 7 0 16.4 1.2 25.8-4.7 37.5-15.4l7-4.7 3.5-6c5.9-8.3 7-5.9 9.4-17.8h7v8.3c-2.3 7.2-10.5 17.8-15.2 22.6-3.5 2.3-14.1 8.3-14.1 13 0 5.9 14.1 5.9 17.6 5.9 9.4 0 19.9-1.2 29.3-5.9 12.9-5.9 28.1-22.5 33.9-36.7l4.7-23.7c0-11.9-7-29.7-12.9-39.2-8.2-11.8-19.9-16.6-31.6-22.5-22.2-11.84-16.4-8.28-38.6-16.58l-11.7-4.74s-27-8.3-27-8.3c-7-1.18-11.7 0-15.2-7.11 0 0 43.3-5.93 43.3-5.93 4.7-3.55 14.1-4.74 21.1-7.11 15.2-7.11 34-20.15 44.5-33.19 5.9-5.92 10.5-7.11 11.7-16.59 5.9-2.37 7-7.11 9.4-13.04 4.7-7.11 12.9-26.08 15.2-34.38l2.3-7.11 4.7-15.41 1.2-7.11c2.3-16.59 2.3-22.52 2.3-39.11 0-10.67-1.1-8.3-2.3-17.78-4.7-35.56-17.6-54.53-36.3-82.98-7-9.48-12.9-17.78-19.9-26.07 0 0-26.9-32.01-26.9-32.01s-25.8-26.07-25.8-26.07l-39.8-39.12-24.6-20.15-8.2-7.11-16.4-13.04-23.4-17.78-21.06-14.23-7.03-3.55s-7.02-7.11-7.02-7.11l-18.74-11.86s-8.19-8.29-8.19-8.29l-33.96-23.71-36.29-30.82-29.27-22.52-12.88-10.67-25.76-18.96-8.2-3.56s-7.02-7.11-7.02-7.11l-8.2-5.93-10.54-10.67-35.12-30.81-44.49-46.23s-12.88-20.15-12.88-20.15c-9.37-13.04-21.08-26.08-22.25-42.67l-1.17-16.6c1.17-2.37 2.34-4.74 2.34-7.11l2.34-8.3c3.52-8.29 16.39-21.33 23.42-26.07l18.73-8.3h8.2l5.85-1.19c5.86 0 5.86 1.19 12.88 0 2.34 3.56 10.54 4.74 15.22 7.11l7.03 4.75c14.05 7.11 11.71 2.37 29.27 14.22l7.03 3.56 18.73 18.96 5.85 8.3 8.2 8.3c3.51 3.55 7.02 10.66 11.71 13.03l10.53 24.9-4.68 23.7v9.49l4.68 32 7.03 14.22 7.03 13.04 4.68 3.56s7.02 7.11 7.02 7.11l11.71 8.3 23.42 15.41h5.85c2.34 5.92 5.86 2.37 9.37 7.11l4.68 15.41s1.17 16.59 1.17 16.59c1.18 5.93 5.86 28.45 8.2 34.38 0 0 4.68 8.29 4.68 8.29 5.86 11.86 8.2 18.97 22.25 21.34 2.34-4.74 5.85-10.67 3.51-16.6 0-2.37-3.51-5.92-5.85-11.85l-3.51-18.96c-1.18-7.12-5.86-16.6 2.34-21.34 0 13.04 7.02 20.15 4.68 34.37l9.37 16.6 10.53 14.22h4.69c0 2.37 1.17 3.56 2.34 5.93 1.17 3.56 15.25 16.59 17.55 18.96 7 3.56 14.1 2.38 16.4-7.11 1.2-9.48-9.4-22.52-14-30.82-11.8-17.78-11.8-20.15-16.4-40.3-1.2-3.55-4.72-15.41-4.72-18.96 1.17-2.37 1.17-5.93 3.52-5.93 3.5-1.18 14 7.11 16.4 9.48 9.4 9.49 9.4 13.04 16.4 21.34l8.2 8.3c3.5 4.74 5.8 9.48 11.7 10.67l14 18.96 5.9 2.37c1.2 3.56 14 15.41 17.5 17.78 2.4 1.19 3.6 1.19 5.9 1.19 1.2 4.74 5.9 7.11 9.4 10.66l14 15.41c4.7 3.56 10.6 7.12 11.7 13.04l12.9 10.67 24.6 15.41 15.2 10.67s17.6 3.55 17.6 3.55l10.5-2.37c3.5-3.55 4.7-2.37 8.2-4.74l10.5-10.67c8.2-7.11 16.4-11.85 23.5-20.15 4.6-4.74 9.3-15.41 8.2-22.52-1.2-4.74-7.1-9.48-10.6-10.67l-8.2-2.37c-15.2-4.74-28.1-11.85-42.1-18.96l-45.7-24.89-31.6-26.08c-5.9-4.74-7-4.74-12.9-10.67l-14-17.78s-5.9-5.93-5.9-5.93c-3.5-4.74-7-10.66-9.3-15.4 2.3 0 3.5 0 5.8 1.18l17.6 10.67c8.2 5.93 8.2 9.48 18.7 10.67 2.3 7.11 4.7 5.92 9.4 9.48 0 0 5.8 5.93 5.8 5.93 4.7 3.55 5.9 3.55 9.4 5.92 0 0 5.8 5.93 5.8 5.93l8.2 5.93 9.4 8.29 9.4 7.11c7 3.56 8.2 9.49 16.4 9.49 2.3 4.74 3.5 4.74 8.2 7.11 5.8 3.56 15.2 10.67 22.2 10.67 2.3 5.92 4.7 3.55 9.4 8.29 5.8 4.75 25.7 15.41 33.9 17.78h12.9c10.5-1.18 7-5.92 16.4-8.29 2.3-8.3 11.7-10.67 17.6-16.6 5.8-7.11 4.6-10.67 8.2-17.78l12.8-20.15c1.2-4.74 1.2-7.11 1.2-11.85 0-3.56 0-7.11-1.2-10.67-4.6-11.85-15.2-9.48-24.6-14.22-5.8-2.37-4.6-3.56-12.8-5.93 0 0-16.4-3.56-16.4-3.56l-24.6-10.66-18.7-7.12-24.6-15.4-18.8-8.3-39.8-24.89-8.2-5.93s-12.8-9.48-12.8-9.48l-20-17.78s-5.8-7.11-5.8-7.11l-18.7-15.41c-4.7-4.75-9.4-15.41-17.6-22.53-5.9-4.74-16.4-8.29-23.4-3.55-3.5 2.37-4.7 7.11-9.4 7.11-5.8 1.19-17.5-15.41-17.5-20.15 0-1.19 1.1-2.37 2.3-3.56 3.5-3.55 9.4 2.37 11.7 5.93 10.5-1.18 17.6-5.93 17.6-17.78 0-4.74 0-8.3-2.4-13.04l-15.2-18.96c-1.2-3.56-1.2-16.6-7-26.08-7-9.48-15.2-16.59-27-20.15-6.98-2.37-17.52-1.19-22.2-7.11-7.03-9.485-8.2-18.968-11.71-29.635l-8.19-21.336-9.37-16.595-5.86-13.038-10.53-18.966c0 0.0004-5.86-13.038-5.86-13.038 0-0.0001-9.36-14.224-9.36-14.224l-7.03-10.668s-4.68-7.112-4.68-7.112c-3.52-5.927-3.52-8.297-10.54-11.853-16.39-9.483-29.27 4.741-29.27 21.336 0 8.297 11.71 27.262 17.56 35.559 2.34 5.927 5.86 13.039 8.2 20.151l1.17 9.483 8.19 14.223c4.69 11.854 2.35 13.039 5.86 22.522 0 2.37 2.34 5.926 1.17 9.482-2.34 3.556-8.2 0-11.71-2.37l-8.2-3.556-18.73-9.483-11.71-3.556s-14.05-8.297-14.05-8.297c-4.68-2.371-4.68 0-14.05-4.742-9.36-5.926-10.54-2.37-18.73-4.741 0 0-18.73-4.741-18.73-4.741-32.79-8.297-59.72-14.224-94.84-15.409-10.54-1.186-22.25 0-32.79 1.185 0 0-19.9 2.371-19.9 2.371-5.86-1.186-7.03-10.668-15.22-18.966-9.37-8.2969-23.42-14.224-36.3-15.409zm273.98 67.564c2.34 0 8.2-1.186 10.54-3.556 1.17-2.371 0-5.927-1.17-8.298-3.52-5.926-8.2-14.223-12.88-18.965 0 0-18.74-22.521-18.74-22.521 0 0.0001-5.85-8.2972-5.85-8.2972-5.86-5.9266-7.03-5.9266-12.88-10.668-10.54-8.297-5.85-7.112-19.9-14.224l-8.2-3.556c-9.37-3.556-18.73-5.927-24.59 4.741-1.17 2.371-3.51 4.742-3.51 7.112 0 2.371 4.68 14.224 5.85 17.78 4.69 10.668 7.03 9.4827 14.05 15.409 3.52 3.556 3.52 7.112 5.86 9.483 5.85 3.556 11.71 5.927 17.56 8.297l5.85 3.556 11.71 4.741 36.3 18.966zm361.83 798.91l2.3 7.11c2.3-1.18 7-2.37 9.4-3.55 4.7-3.56 14-17.78 17.5-22.53l7.1-8.29s4.6-8.3 4.6-8.3 28.1-45.04 28.1-45.04l8.2-14.23s7.1-7.11 7.1-7.11 3.5-7.11 3.5-7.11c7-10.67 14-18.97 23.4-27.26l4.7-4.74c3.5-2.37 10.5-5.93 14-8.3 2.4-1.19 4.7-2.37 8.2-3.56 9.4-2.37 22.3 1.19 30.5 5.93 4.6 3.56 7 7.11 12.8 8.3 1.2 9.48 8.2 8.29 8.2 18.96 3.6 4.74 5.9 16.6 7.1 22.52 2.3-1.18 3.5-2.37 4.6-4.74 1.2-2.37 3.6-22.52 4.7-27.26 0-4.74 1.2-10.67 1.2-15.41-1.2-24.89-16.4-50.97-37.5-62.82-9.3-4.74-19.9-5.93-29.2-8.3 11.7-11.85 36.3-7.11 48 2.37 5.8 3.56 9.3 4.74 10.5 11.85h4.7c0 3.56 1.2 8.3 3.5 11.86 3.5 3.55 5.9-1.19 5.9-4.74v-8.3c1.1-10.67 0-20.15-3.6-30.82-8.2-22.52-30.4-41.49-55-41.49-8.2 0-14 0-22.2 2.37-12.9 4.75-22.3 10.67-31.6 20.16-4.7 4.74-14.1 17.78-17.6 23.7 0 0-11.7 48.6-11.7 48.6l-2.4 9.48-2.3 7.11-2.3 10.67s-3.6 8.3-3.6 8.3l-1.1 9.48s-3.5 8.3-3.5 8.3l-4.7 13.04-2.4 11.85-14 37.93-8.2 16.6-7 15.41-12.9 21.33c-3.5 4.74-2.4 5.93-7 10.67zm-1197.8 155.25h10.538c-2.342-7.1-3.513-8.3-5.854-13-1.171-7.12 0-14.24 0-21.35v-8.29c3.512-10.67 14.05-24.9 23.417-30.82l10.537-4.74 7.025-3.56c7.025-2.37 18.732-3.56 25.762-3.56-2.34 4.74-12.882 13.04-17.566 18.97-10.537 10.67-9.367 13.04-15.221 26.08-1.171 2.37-3.512 4.74-3.512 7.11l-1.171 17.78v9.48c0 8.3 2.341 13 4.683 20.2 0 0 3.513 9.4 3.513 9.4 7.025 11.9 16.392 22.6 26.934 32 2.34 3.6 17.56 15.4 21.07 16.6 2.34 1.2 3.51 1.2 5.85 1.2 2.35 7.1 4.69 3.6 11.71 2.4l-8.19-11.9c-12.88-21.3-17.57-46.2-2.34-67.5 4.68-6 14.05-15.44 21.07-15.44 5.85-4.74 7.03-3.55 14.05-4.74 9.37-2.37 4.68-2.37 17.56-2.37h22.25l14.05 2.37c7.02 0 8.2 1.19 14.05 2.37 4.68 1.19 5.85 0 9.37 0 0 0 21.07 5.93 21.07 5.93l7.03 3.58 12.88 2.3 9.36 3.6c4.69 1.2 5.86 0 10.54 3.6 0 0 15.22 4.7 15.22 4.7s30.44 8.3 30.44 8.3l23.42 5.9s28.1 8.3 28.1 8.3l10.54 2.4 22.24 5.9h22.25c7.03-8.3 8.2-13-3.51-17.8 0 0-23.42-4.7-23.42-4.7l-33.95-11.9-16.4-9.4-10.53-2.4-16.39-7.12-19.91-10.67s-11.71-5.93-11.71-5.93l-30.44-17.78-26.93-14.22-26.93-17.78-29.27-17.78-46.83-32.01c-18.74-9.48-46.84-14.22-67.912-14.22-30.442 0-58.543 13.04-77.276 36.75-3.513 3.55-8.1962 10.66-10.538 15.41 0.0001 0-2.3416 8.29-2.3416 8.29-1.1708 4.74-3.5125 9.48-4.6834 14.23 0.00003 0 0.00003 13.03 0.00003 13.03 1.1709 7.12 8.1959 28.45 12.879 34.38 0 0 23.417 28.42 23.417 28.42z"/>
  <metadata>
    <rdf:RDF>
      <cc:Work>
        <dc:format>image/svg+xml</dc:format>
        <dc:type rdf:resource="http://purl.org/dc/dcmitype/StillImage"/>
        <cc:license rdf:resource="http://creativecommons.org/licenses/publicdomain/"/>
        <dc:publisher>
          <cc:Agent rdf:about="http://openclipart.org/">
            <dc:title>Openclipart</dc:title>
          </cc:Agent>
        </dc:publisher>
        <dc:title>dragon</dc:title>
        <dc:date>2008-01-03T19:50:25</dc:date>
        <dc:description>chinese zodiacal sign</dc:description>
        <dc:source>http://openclipart.org/detail/10549/dragon-by-yves_guillou-10549</dc:source>
        <dc:creator>
          <cc:Agent>
            <dc:title>yves_guillou</dc:title>
          </cc:Agent>
        </dc:creator>
        <dc:subject>
          <rdf:Bag>
            <rdf:li>animal</rdf:li>
            <rdf:li>clip art</rdf:li>
            <rdf:li>clipart</rdf:li>
            <rdf:li>dragon</rdf:li>
            <rdf:li>image</rdf:li>
            <rdf:li>media</rdf:li>
            <rdf:li>png</rdf:li>
            <rdf:li>public domain</rdf:li>
            <rdf:li>sign</rdf:li>
            <rdf:li>silhouette</rdf:li>
            <rdf:li>svg</rdf:li>
          </rdf:Bag>
        </dc:subject>
      </cc:Work>
      <cc:License rdf:about="http://creativecommons.org/licenses/publicdomain/">
        <cc:permits rdf:resource="http://creativecommons.org/ns#Reproduction"/>
        <cc:permits rdf:resource="http://creativecommons.org/ns#Distribution"/>
        <cc:permits rdf:resource="http://creativecommons.org/ns#DerivativeWorks"/>
      </cc:License>
    </rdf:RDF>
  </metadata>
</svg>
