<?xml version="1.0"?>
<svg xmlns:rdf="http://www.w3.org/1999/02/22-rdf-syntax-ns#" xmlns="http://www.w3.org/2000/svg" xmlns:cc="http://creativecommons.org/ns#" xmlns:dc="http://purl.org/dc/elements/1.1/" xmlns:svg="http://www.w3.org/2000/svg" id="svg3940" viewBox="0 0 382.78 217.82" version="1.1">
  <g id="layer1" transform="translate(-40.339 -13.15)">
    <path id="path3959" d="m335.64 230.87c-0.48301-0.0766-2.3009-0.31421-4.0397-0.52812s-5.1374-0.77362-7.5524-1.2438c-2.7496-0.5353-4.8859-0.77223-5.7151-0.63382-0.72825 0.12158-2.1378 0.10914-3.1323-0.0276-1.4463-0.19892-1.6839-0.31826-1.1872-0.59625 0.99245-0.5554 9.6046-3.0832 10.504-3.0832 1.9762 0 4.7852-0.8074 4.9836-1.4325 0.11111-0.35007 0.9845-1.118 1.9409-1.7064 0.95637-0.58845 1.7388-1.2044 1.7388-1.3688 0-0.82642-7.2908-1.9969-10.664-1.7119-1.1868 0.10026-4.7336-0.0581-7.8818-0.35188-6.0959-0.56888-9.3412-0.36887-11.714 0.72195-3.7583 1.7275-11.759 1.7148-17.409-0.0276-1.3212-0.4074-1.8564-0.75857-1.932-1.2675-0.17742-1.1947 1.4705-2.5292 4.1786-3.3839 1.3831-0.43652 3.0058-1.0923 3.606-1.4573 0.8995-0.54702 1.0296-0.77872 0.7407-1.3186-0.91953-1.7182-6.2212-2.8586-10.219-2.1984-4.2224 0.69732-7.1032 0.41413-16.853-1.6566-3.0783-0.65384-4.0318-0.68772-12.295-0.43694-8.3749 0.25419-9.1805 0.33694-12.384 1.2721-3.1674 0.92453-3.5586 0.96635-5.1718 0.55293-0.95982-0.246-2.2039-0.34651-2.7646-0.22336-0.56069 0.12315-2.8966 0.0662-5.1909-0.12656-3.7836-0.31789-6.8244-0.13605-7.4032 0.44271-0.3811 0.3811 0.58185 2.9607 1.5226 4.0786 1.1778 1.3998 1.9741 1.8034 4.1432 2.0999l1.7813 0.24349-1.8729 1.8076c-1.2309 1.188-2.3146 1.9015-3.1615 2.0816-1.9224 0.40877-12.647 0.28611-14.436-0.16511-2.1216-0.53528-12.251 0.10034-13.051 0.81892-0.30502 0.27411-0.7883 0.49837-1.074 0.49837-0.28566 0-2.8814 0.81427-5.7684 1.8095-4.9037 1.6904-5.4801 1.8112-8.7618 1.8358-3.1667 0.0237-4.0146-0.12353-8.6063-1.4948-7.2576-2.1674-8.0794-2.6919-8.0794-5.1566 0-1.2444 0.12516-1.5078 0.79037-1.6633 1.4637-0.34203 4.4718-1.4761 4.4753-1.6872 0.002-0.11511-0.98452-0.14208-2.192-0.0599-9.6586 0.65702-15.192 0.76235-15.894 0.30252-0.62398-0.40885-0.87925-0.40445-1.7073 0.0294-1.3128 0.68783-2.5398 0.36492-5.2148-1.3723-1.2169-0.79032-3.1777-1.8772-4.3574-2.4153-3.1261-1.426-3.8158-3.4112-2.1753-6.2617 0.61913-1.0758 1.4313-1.6906 3.9554-2.9945 3.4382-1.7761 6.6443-2.4696 10.376-2.2445 1.0626 0.0641 4.066 0.0927 6.6743 0.0635 5.4709-0.0613 8.8602-0.78149 12.822-2.7246 1.3524-0.6634 2.8511-1.3191 3.3303-1.457 1.771-0.50986 3.8708-2.6639 3.8708-3.9708 0-0.43247-1.9708-0.89902-3.2888-0.77856-0.55304 0.0505-2.0188 0.4733-3.2573 0.93946-1.2385 0.46617-2.6215 0.84757-3.0734 0.84757-0.45187 0-1.8314 0.45672-3.0656 1.0149-6.276 2.8384-9.3264 3.1674-19.808 2.1359-4.2504-0.41827-8.5746-0.8397-9.6093-0.93651-1.0347-0.0968-3.7143 0.0892-5.9547 0.41348-3.0976 0.44828-5.1388 0.53058-8.5205 0.34355l-4.4471-0.24595-2.9467 1.2326c-1.6207 0.67792-3.2069 1.318-3.5248 1.4224-0.85499 0.28074-5.4717-0.95511-6.5358-1.7496-1.5559-1.1616-1.3348-1.4705 0.67855-0.94827 2.8572 0.74114 3.2333 0.642 5.4899-1.4473 1.8788-1.7394 2.4002-2.0139 5.377-2.831 2.516-0.69063 4.6408-0.97379 8.9748-1.196 3.123-0.16016 5.8472-0.39559 6.0536-0.52319 0.20644-0.12759 1.8402-0.392 3.6306-0.58758 1.7904-0.19557 4.1565-0.58542 5.2581-0.86633 2.5176-0.64199 5.3699-1.8508 5.0714-2.1493-0.12443-0.12442-2.3994-0.17441-5.0554-0.11109-2.656 0.0633-6.0938 0.1048-7.6394 0.0922s-4.549-0.0312-6.6743-0.0412c-2.5113-0.0118-4.5404-0.21978-5.7961-0.594-2.3626-0.70413-11.518-1.2021-14.844-0.80736-1.3057 0.15495-4.5462 0.9297-7.2012 1.7217-3.3293 0.99314-5.6991 1.4844-7.6374 1.5832-2.7438 0.13989-2.6398-0.1059 0.30491-0.72079 1.8386-0.38392 0.75921-0.50048-1.5475-0.16711-3.5798 0.51737-5.7754 0.42729-6.6419-0.27252-0.73781-0.59584-0.67424-0.61121 2.0687-0.50016 1.8569 0.0752 2.83-0.0154 2.83-0.26346 0-0.20791-0.31615-0.37803-0.70256-0.37803-1.4642 0-0.62372-0.64697 1.1416-0.87877 1.0143-0.13318 3.0298-0.76896 4.4788-1.4128 1.449-0.64387 3.8992-1.4901 5.4448-1.8805 5.4481-1.3762 8.5479-1.5796 24.414-1.6022 15.014-0.0214 15.314-0.0356 17.213-0.81194 1.0626-0.43461 2.7224-0.80253 3.6884-0.8176 0.96601-0.0151 2.5468-0.31904 3.5128-0.6755l1.7564-0.6481-2.6346-0.0917c-1.449-0.0504-7.2187-0.1022-12.822-0.11505-7.055-0.0162-10.709-0.16083-11.885-0.4705-2.2868-0.60225-12.38-0.82833-17.798-0.39868-2.415 0.1915-6.7621 0.82119-9.6601 1.3993-9.503 1.8958-13.52 2.0255-15.467 0.49955-0.63335-0.49635-0.44724-0.52276 2.2063-0.31311 1.8578 0.14679 2.898 0.10237 2.898-0.12375 0-0.42336-1.6707-0.79182-3.5904-0.79182-0.76723 0-2.2828-0.2581-3.3679-0.57355-2.757-0.80149-7.7645-0.47381-13.717 0.8976-2.5806 0.59458-5.0759 1.0811-5.545 1.0811-0.73407 0-0.80228-0.0946-0.48963-0.67877 0.1998-0.37332 0.67958-0.77916 1.0662-0.90186 1.1363-0.36065 0.83846-0.99437-0.3509-0.74658-0.57961 0.12075-1.528 0.31834-2.1077 0.43909-0.82865 0.17264-1.0538 0.0976-1.0538-0.35127 0-0.40438 0.3181-0.57083 1.0909-0.57083 0.60002 0 1.9832-0.22775 3.0737-0.5061 2.7357-0.69831 11.893-1.4163 12.444-0.97568 0.6553 0.52423 12.329-0.10726 14.552-0.78716 1.006-0.30774 1.9059-0.68381 1.9998-0.83571 0.16565-0.26804-18.583-4.9998-24.858-6.2737l-3.1135-0.63207-2.1826-2.3137c-2.2884-2.4258-4.227-5.2282-8.8356-12.772-1.5276-2.5007-3.6151-5.4108-4.6388-6.4668-3.3759-3.4826-3.2259-3.5825 14.683-9.7772 7.9892-2.7635 7.7229-2.7222 14.576-2.2581 10.213 0.69164 17.035 0.83563 20.376 0.43008 4.6753-0.56748 5.4225-0.75474 6.2868-1.5755 0.4323-0.41052 1.5367-1.3558 2.4542-2.1006 0.91754-0.74484 1.9192-1.8805 2.2259-2.5237 0.45768-0.95976 1.4453-1.6534 5.5093-3.8694 2.7234-1.485 6.3499-3.4643 8.0589-4.3984 2.6916-1.4711 3.514-1.7439 6.1473-2.0391 3.2231-0.36127 5.653-1.0862 4.533-1.3524-0.86074-0.20458-0.76548-0.88435 0.25876-1.8466l0.8735-0.82061-2.904-3.0168c-3.9869-4.1418-6.3581-7.5114-6.0762-8.6347 0.11879-0.4733 0.52174-1.0242 0.89544-1.2242 0.57307-0.3067 0.95089-0.0922 2.4128 1.3697 0.95332 0.95333 2.6293 3.0047 3.7243 4.5586 1.0951 1.5539 2.1232 2.907 2.2847 3.0068 0.16153 0.0998 0.47767-0.5491 0.70252-1.4421 0.67196-2.6686 1.7271-4.3643 4.5581-7.3252 1.7063-1.7846 3.8627-4.6691 5.9086-7.9037 1.7719-2.8014 4.0199-6.0823 4.9956-7.2908 0.97566-1.2085 1.7739-2.419 1.7739-2.6902 0-0.2711 1.067-1.0782 2.3711-1.7936 1.3041-0.71541 3.3201-1.9234 4.4799-2.6843 2.0867-1.3691 2.1076-1.3993 1.99-2.8778-0.10252-1.289 0.0541-1.7012 1.1405-3.0016 0.69265-0.82904 1.2594-1.8836 1.2594-2.3435 0-0.73977 0.30976-0.92615 2.6874-1.617 2.3762-0.69044 2.7931-0.94109 3.6006-2.1649 0.50226-0.76122 1.3649-1.797 1.9169-2.3016 0.55204-0.50469 2.028-2.1822 3.2798-3.7278 2.689-3.3199 3.7964-4.2593 6.0124-5.0997 0.90613-0.34366 1.9521-1.0323 2.3244-1.5302 0.63498-0.84928 0.64042-0.94573 0.0878-1.5563-0.728-0.80444-0.81572-4.5424-0.12865-5.482 0.27809-0.38031 1.089-0.70055 2.0475-0.80859 2.335-0.26318 2.5642-0.8902 1.3318-3.6422-1.5166-3.3866-1.4214-5.34 0.40089-8.2254 0.78672-1.2457 2.2422-2.9948 3.2344-3.8868 1.3217-1.1883 2.2306-2.4814 3.3996-4.8365 1.8163-3.6589 3.092-4.802 5.3591-4.802 1.5744 0 2.4997 0.40481 3.8896 1.7016 0.73725 0.68786 1.2786 0.88735 2.1939 0.8085 0.8194-0.0706 1.5171 0.13282 2.1423 0.62463 0.50996 0.40113 1.143 0.72933 1.4067 0.72933 0.26375 0 0.47954 0.22422 0.47954 0.49827 0 0.27404 0.53758 0.8305 1.1946 1.2366 0.65704 0.40608 1.2949 0.99967 1.4175 1.3191 0.40756 1.0621-0.20483 3.7634-1.0614 4.6819l-0.82619 0.88594 0.75081 2.0382c0.62847 1.7061 0.80622 1.9338 1.0908 1.3974 0.187-0.35245 0.67378-1.0089 1.0817-1.4588 0.85578-0.94372 1.6287-4.8764 1.191-6.0597-0.23037-0.62274 0.013-1.0825 1.303-2.4616 1.4603-1.5612 2.0795-3.131 1.235-3.131-0.74084 0-0.30133-1.4593 0.81962-2.7214 0.64399-0.72507 1.2713-1.5949 1.3941-1.933 0.15184-0.41823 0.59827-0.61474 1.3965-0.61474 0.64535 0 1.4736-0.21953 1.8405-0.48784 0.36693-0.26831 0.87259-0.409 1.1237-0.31265 0.25109 0.0964 0.83023-0.0697 1.287-0.36896 0.82289-0.53917 1.7722-0.65026 6.1896-0.7243 2.8019-0.047 4.8773 0.70102 7.6898 2.7714 1.4318 1.054 2.1782 1.4086 2.4317 1.1551 0.25348-0.25349 0.4829 0.0693 0.74741 1.0516 0.2099 0.77954 0.99204 2.156 1.7381 3.0588 0.96379 1.1663 1.42 2.105 1.5759 3.243 0.38868 2.8357 0.23612 4.9192-0.48305 6.5969-0.3864 0.90145-0.70255 2.1121-0.70255 2.6904 0 0.99912-2.1955 4.3256-3.6536 5.5358-0.75226 0.62431-0.71577 0.84566 0.34773 2.1096 1.1499 1.3666 1.8711 1.38 9.4075 0.17436 3.1164-0.49854 6.3153-0.83666 7.1087-0.75139 1.856 0.19948 4.6285 1.4784 8.6915 4.0092 3.2213 2.0065 3.258 2.0455 5.3029 5.621 2.2421 3.9204 4.7607 6.9917 6.7329 8.2106 0.79816 0.49329 1.4972 1.3365 1.9138 2.3084 0.61704 1.4395 0.73982 1.5313 2.0485 1.5313 1.6499 0 2.3485 0.72635 3.5529 3.6938 0.77327 1.9052 0.77796 1.9912 0.18062 3.3159-0.33729 0.74797-0.4971 1.5479-0.35514 1.7776 0.34316 0.55524 2.4046 1.3998 3.4168 1.3998 0.44445 0 1.5438 0.60798 2.4431 1.3511 0.89924 0.74309 2.4175 1.8532 3.374 2.467 1.0213 0.65537 3.2668 2.9083 5.4408 5.4589 3.9501 4.6342 6.8363 7.0048 10.094 8.291 2.5387 1.0022 3.4608 0.81201 7.624-1.5726 4.0994-2.3481 4.8239-2.5771 5.6855-1.7973 0.6967 0.6305 0.67954 0.64793 15.365-15.607 4.6973-5.1993 13.132-13.579 14.707-14.61 0.47987-0.31442 0.87249-0.83915 0.87249-1.1661 0-0.32693 1.0116-1.3372 2.248-2.245 1.2364-0.90782 3.8535-3.1515 5.8157-4.9859s4.4678-3.9468 5.5679-4.6943c1.1001-0.74746 3.5019-2.5863 5.3373-4.0864 1.8354-1.5 4.5227-3.5275 5.9717-4.5054 1.449-0.97792 5.4799-3.9082 8.9576-6.5118 7.9441-5.9475 11.153-8.0456 15.9-10.395 6.4646-3.1992 12.278-4.8088 15.843-4.3865 2.0015 0.23709 2.3968 0.42278 3.7716 1.7721 2.1324 2.0927 2.3929 3.0881 1.9276 7.3649-0.54044 4.968-1.7081 8.14-6.4569 17.541-4.6856 9.2756-7.9585 14.856-11.51 19.625-1.3285 1.7837-2.8961 4.1442-3.4835 5.2455-0.58747 1.1014-1.6971 2.833-2.4659 3.848s-1.8926 2.8329-2.4973 4.0397c-0.60472 1.2068-2.8756 5.4347-5.0463 9.3953-8.4408 15.401-9.3387 17.164-9.3863 18.429-0.0258 0.68519 0.0406 1.3332 0.14737 1.44 0.25744 0.25744 6.6172-2.1351 8.2742-3.1128 0.71642-0.4227 2.2517-1.0311 3.4118-1.3519 3.2356-0.89492 10.587-3.5754 13.526-4.9317 1.449-0.66878 4.3095-1.8836 6.3566-2.6996 2.0471-0.81598 4.5257-2.0129 5.508-2.6598 2.177-1.4337 5.0872-2.4445 6.2197-2.1602 2.1204 0.53219 1.4728 5.4132-1.4958 11.274-0.68506 1.3524-1.3706 3.0122-1.5234 3.6884-0.46984 2.079-2.0554 6.4286-2.6852 7.3662-0.32834 0.48886-1.8795 3.4971-3.4471 6.6849-1.5675 3.1878-4.8293 9.3527-7.2483 13.7-2.419 4.347-4.808 8.7144-5.3089 9.7051-1.4158 2.8006-2.3244 3.5751-7.4408 6.3423-1.0051 0.54361-3.3652 1.114-7.2012 1.7404-6.9822 1.1402-7.2407 1.2089-6.5232 1.7335 1.1872 0.86812 3.7245 0.95434 9.565 0.32507 6.1358-0.6611 9.1535-0.55839 11.999 0.40841 1.3698 0.4654 2.0041 0.49273 3.793 0.16343 2.5933-0.47739 5.74-0.50563 6.4479-0.0579 0.74759 0.47279 0.23076 0.80999-1.6635 1.0853-4.2753 0.62144-11.801 2.3535-18.525 4.2633-14.433 4.0998-20.102 5.1979-26.873 5.2055-4.1538 0.005-4.5807 0.0734-7.9037 1.2724-5.687 2.0519-6.4473 2.155-9.2455 1.2537-2.945-0.94851-2.8228-0.9509-3.2082 0.0627-0.24469 0.64357-0.6739 0.88799-1.8759 1.0682-0.85724 0.12855-1.8385 0.43836-2.1805 0.68846-0.57807 0.42269-0.55048 0.50513 0.39166 1.17 1.9436 1.3716 4.5807 2.5066 7.8791 3.3911 4.534 1.2159 10.994 2.3025 13.333 2.2428 4.8528-0.124 18.078 1.868 19.084 2.8745 0.39814 0.39815-1.0373 1.1561-3.8085 2.0109-1.7918 0.55272-3.3247 0.64873-10.358 0.64873-4.5402 0-10.913-0.20011-14.162-0.4447-5.0557-0.38063-6.1547-0.57041-7.6286-1.3173-0.94709-0.47992-2.2014-0.87259-2.7875-0.87259-1.9109 0-1.1748 0.96085 1.8838 2.4589 1.7409 0.8527 2.6147 2.1077 1.4674 2.1077-0.69516 0-0.69172 0.16377 0.0265 1.2599 0.33544 0.51195 0.4463 1.0049 0.26346 1.1716-0.17362 0.15823-1.6593 0.87378-3.3015 1.5901-2.9352 1.2804-3.0772 1.305-8.3772 1.4531-3.8916 0.10873-6.3834-0.007-8.9576-0.4155-4.5849-0.72787-4.8737-0.74406-5.0351-0.28227-0.216 0.61782 1.0279 1.8461 2.136 2.1093 0.78057 0.18537 0.95329 0.13649 0.73959-0.20928-0.21652-0.35033 0.005-0.39794 0.99011-0.21308 4.5061 0.84535 10.394 0.85289 19.217 0.0246 2.2129-0.20774 2.722-0.15545 3.1167 0.32006 0.25943 0.3126 0.808 0.57173 1.219 0.57585 0.72976 0.007 2.0981 1.602 3.2045 3.7346 0.42905 0.82698 0.42299 1.0708-0.0464 1.8654-0.65858 1.1149-2.2781 1.7212-5.7478 2.152-1.449 0.17989-6.4284 0.87072-11.065 1.5352-12.167 1.7436-17.832 2.135-23.225 1.6048-4.6358-0.45581-5.4043-0.30663-5.4043 1.0491 0 0.87288 2.9522 4.058 4.7232 5.0959 3.4408 2.0165 5.1008 2.3308 12.138 2.2985 3.5742-0.0164 7.0328 0.12468 7.6856 0.31355 0.93679 0.27102 1.6401 0.19013 3.3371-0.38381 1.7107-0.57857 2.7605-0.69701 5.136-0.57944 3.0646 0.15168 4.6662 0.69996 6.2352 2.1346 1.0393 0.95032 0.99831 1.1734-0.26203 1.4254-0.57882 0.11577-2.7523 0.87008-4.83 1.6763-2.5097 0.97379-4.7209 1.5715-6.5879 1.7807-3.6892 0.4134-3.6541 0.41366-7.7281-0.0572-1.932-0.22329-4.6456-0.49482-6.0301-0.60339-2.7464-0.21538-6.0044 0.12887-5.5166 0.58291 0.39396 0.3667 6.0506 1.6386 8.5718 1.9273 1.0687 0.12239 5.8109 0.35762 10.538 0.52272 7.5121 0.26235 8.7958 0.39095 10.187 1.0205 0.87531 0.39617 2.8464 0.92963 4.3802 1.1855 2.6831 0.44755 2.8008 0.50734 3.1081 1.5787 0.17564 0.61243 0.2214 1.3688 0.10167 1.6808-0.29525 0.76942-3.9668 2.3662-7.6007 3.3055-4.1465 1.0719-4.0558 1.0333-3.5715 1.5176 0.58571 0.58572 0.50991 0.864-0.29253 1.0738-0.93643 0.24488-0.88591 0.68023 0.23328 2.0103 0.84278 1.0016 1.0786 1.0928 2.3711 0.91677 0.7894-0.10748 3.0951-0.35523 5.1237-0.55056s4.3207-0.51885 5.0935-0.71894c0.77281-0.20009 3.302-0.4548 5.6204-0.56603 5.9622-0.28605 8.9051 0.51121 5.6204 1.5226-0.77281 0.23795-3.6182 1.1864-6.323 2.1077l-4.9179 1.675-7.2012 0.0523c-3.9606 0.0288-7.5964-0.0103-8.0794-0.0869zm-212.17-46.51c0.38726-0.25027 0.14286-0.34195-0.9221-0.3459-0.79696-0.003-1.9825-0.0859-2.6346-0.18439l-1.1856-0.17901 1.0538 0.51444c1.2199 0.59551 2.9288 0.68578 3.6884 0.19486zm215.84-11.204c0.26675-0.43162-0.72287-0.76819-1.4445-0.49127-0.52707 0.20226-0.51783 0.25394 0.0878 0.4912 0.92909 0.36397 1.1318 0.36398 1.3567 0.00007zm-106.63-47.65c6.1148-0.61321 13.092-1.5127 13.293-1.7136 0.0784-0.0784-0.0281-0.75066-0.23662-1.494-0.20852-0.74331-0.6101-2.9691-0.89241-4.9462-0.55885-3.9138-1.5055-6.2344-2.7802-6.8151-0.64565-0.29418-1.1194-0.21401-2.3027 0.38968l-1.4898 0.76006-1.2835-0.86962c-3.6494-2.4725-11.598-11.517-13.986-15.915-2.4274-4.4695-3.6244-5.7536-3.637-3.9016-0.008 1.2385-0.51559 1.7496-1.9707 1.9862l-1.3467 0.21889-0.39763 2.2785c-0.37317 2.1384-2.0804 6.2052-4.8972 11.666-0.67003 1.2989-1.215 2.6425-1.2111 2.9859 0.004 0.34334-0.4947 2.2378-1.108 4.2099l-1.1151 3.5856 3.0528 3.208c1.679 1.7644 3.4027 3.6886 3.8304 4.276l0.77759 1.0681 6.2663-0.22947c3.4465-0.1262 8.592-0.46269 11.435-0.74776zm-34.782-10.794c0.19879-0.6279 0.53281-2.1222 0.74227-3.3207s0.67269-2.8582 1.0294-3.6884c0.46545-1.0832 0.70299-2.757 0.84134-5.9284 0.18557-4.2536 0.48674-5.6517 2.0013-9.2898 0.39777-0.9555 0.33111-1.3166-0.65988-3.5745-0.91501-2.0848-1.0409-2.6732-0.74088-3.4623 0.1988-0.52289 0.27949-1.209 0.17931-1.5246-0.11624-0.36623 0.10095-0.699 0.60023-0.91961 0.5656-0.24992 0.96383-0.97835 1.4372-2.629 1.0701-3.731 1.0818-4.8283 0.0884-8.2549-0.49927-1.7222-0.90777-3.5728-0.90777-4.1124 0-0.53966-0.13964-0.98119-0.31031-0.98119-0.53576 0-0.73368 1.4536-0.74138 5.4448-0.008 4.2905-0.47883 7.8531-1.2288 9.3034-0.38429 0.74313-0.40037 1.052-0.0726 1.394 0.33065 0.34493 0.1993 0.60136-0.61155 1.1939-0.56796 0.41504-1.9116 1.5478-2.9859 2.5172-3.0597 2.761-4.2556 3.5704-6.5198 4.4125-1.6396 0.60979-2.6571 1.3373-4.582 3.2761-2.7492 2.7691-4.2243 5.4331-6.1901 11.179l-1.1523 3.368 0.70132 1.6922c1.487 3.5881 4.9462 4.5993 17.08 4.9929 1.5608 0.0506 1.659-0.003 2.0028-1.0884zm-58.892-10.776c0.61332-1.2699 1.6369-2.9021 2.2747-3.6272 1.742-1.9805 1.48-2.5659-0.65447-1.4621-1.7479 0.90386-4.0916 3.2723-4.5187 4.5662-0.35101 1.0636-0.21977 2.9552 0.26153 3.7697 0.31972 0.54105 1.5233-0.94081 2.637-3.2466zm211.99-3.9249c2.2321-0.40014 2.7553-0.38334 4.4218 0.14199 2.8195 0.88878 3.6664 0.76227 6.6709-0.99648 3.2192-1.8845 4.8805-2.2552 8.9711-2.0023 2.2784 0.14091 3.358 0.38078 4.2771 0.95025 0.67621 0.41897 1.4022 0.86313 1.6132 0.98703 0.23652 0.13884 0.96444-1.1511 1.8971-3.3618 3.6826-8.7291 7.5702-15.704 18.447-33.094 10.886-17.405 15.01-24.91 18.564-33.786 1.6466-4.1116 2.0826-6.4542 1.6442-8.8336-0.66166-3.5912-4.5058-5.2777-8.921-3.914-2.9196 0.90178-8.6376 3.5907-10.698 5.0306-0.90556 0.63291-4.887 3.1775-8.8476 5.6547-7.6027 4.755-11.728 7.6049-15.248 10.533-1.1772 0.97927-3.035 2.3826-4.1284 3.1186-1.0934 0.73596-3.6226 2.773-5.6204 4.5267s-4.5809 3.8931-5.7401 4.7543c-1.1592 0.86112-2.2657 1.849-2.4589 2.1953-0.1932 0.34631-2.4853 2.3463-5.0935 4.4444-5.7328 4.6116-10.833 9.6282-13.167 12.951-0.94985 1.3524-3.2367 4.0409-5.0819 5.9744s-5.4393 6.024-7.9869 9.09l-4.632 5.5746 0.76792 1.0399c0.75797 1.0264 0.87355 2.4733 0.51232 6.4129-0.12077 1.317 0.74339 1.7819 4.3563 2.3436 2.496 0.38804 2.7386 0.36172 5.5774-0.60534 4.2104-1.4343 6.8048-1.3572 11.223 0.33328 3.5731 1.3672 3.9312 1.3894 8.679 0.53826zm-132-13.168c-0.27499-0.83321-0.53591-1.1464-0.76459-0.91772s-0.13256 0.79936 0.28165 1.6722c0.74573 1.5715 1.0788 1.0511 0.48294-0.75453zm-61.707 0.5424c5.2761-0.76247 7.3288-1.4283 8.937-2.8987 0.65927-0.60281 0.79038-1.0892 0.79038-2.932v-2.2093l-1.8488 0.0998c-2.9061 0.15687-6.0221 1.9822-7.9869 4.6786-0.86941 1.1931-1.9364 2.3659-2.3711 2.6061-0.82587 0.45641-1.0573 1.0206-0.41856 1.0206 0.20449 0 1.5086-0.16429 2.898-0.36508zm44.587-29.965c0.48834-0.45258 1.3134-1.4659 1.8335-2.2518 0.85143-1.2866 1.1899-1.4888 3.3984-2.03 1.628-0.39896 3.0291-0.52461 4.1669-0.37368 1.5743 0.20884 1.816 0.13799 2.9619-0.86812 1.6692-1.4656 2.288-3.4617 1.4632-4.7204-0.56535-0.86285-0.76114-0.91275-3.6514-0.93071-1.6797-0.0104-3.6968-0.0387-4.4825-0.0628-1.1127-0.0341-1.9079 0.2651-3.5975 1.3539-1.193 0.76875-2.1705 1.6467-2.1722 1.9509-0.002 0.30426-0.39826 1.7151-0.88127 3.1352-0.97711 2.8728-1.1739 5.6204-0.40257 5.6204 0.26159 0 0.87517-0.37029 1.3635-0.82288z"/>
  </g>
  <metadata>
    <rdf:RDF>
      <cc:Work>
        <dc:format>image/svg+xml</dc:format>
        <dc:type rdf:resource="http://purl.org/dc/dcmitype/StillImage"/>
        <cc:license rdf:resource="http://creativecommons.org/licenses/publicdomain/"/>
        <dc:publisher>
          <cc:Agent rdf:about="http://openclipart.org/">
            <dc:title>Openclipart</dc:title>
          </cc:Agent>
        </dc:publisher>
        <dc:title>Kiss on a boat</dc:title>
        <dc:date>2013-08-05T18:59:18</dc:date>
        <dc:description>Silhouette of a couple kissing in a boat traced from http://vintagefeedsacks.blogspot.se/2011/08/free-vintage-clip-art-vintage.html </dc:description>
        <dc:source>http://openclipart.org/detail/181553/kiss-on-a-boat-by-liftarn-181553</dc:source>
        <dc:creator>
          <cc:Agent>
            <dc:title>liftarn</dc:title>
          </cc:Agent>
        </dc:creator>
        <dc:subject>
          <rdf:Bag>
            <rdf:li>boat</rdf:li>
            <rdf:li>couple</rdf:li>
            <rdf:li>fishing</rdf:li>
            <rdf:li>kiss</rdf:li>
            <rdf:li>romance</rdf:li>
            <rdf:li>silhouette</rdf:li>
            <rdf:li>vintage</rdf:li>
          </rdf:Bag>
        </dc:subject>
      </cc:Work>
      <cc:License rdf:about="http://creativecommons.org/licenses/publicdomain/">
        <cc:permits rdf:resource="http://creativecommons.org/ns#Reproduction"/>
        <cc:permits rdf:resource="http://creativecommons.org/ns#Distribution"/>
        <cc:permits rdf:resource="http://creativecommons.org/ns#DerivativeWorks"/>
      </cc:License>
    </rdf:RDF>
  </metadata>
</svg>
