<?xml version="1.0" encoding="UTF-8" ?>
<!DOCTYPE svg PUBLIC "-//W3C//DTD SVG 1.1//EN" "http://www.w3.org/Graphics/SVG/1.1/DTD/svg11.dtd">
<svg width="647pt" height="738pt" viewBox="0 0 647 738" version="1.1" xmlns="http://www.w3.org/2000/svg">
<path fill="#000000" opacity="1.00" d=" M 255.17 0.00 L 257.84 0.00 C 271.67 3.41 287.21 13.73 300.73 4.72 C 308.28 0.10 311.62 13.51 317.85 14.54 C 324.21 11.02 327.19 3.43 333.72 0.00 L 354.25 0.00 C 372.65 6.29 391.02 12.68 408.30 21.64 C 425.54 19.45 445.32 7.71 459.20 23.84 C 480.13 33.75 506.38 41.11 516.02 64.88 C 520.77 77.06 533.81 58.77 541.19 67.67 C 556.21 75.46 561.04 92.75 570.27 105.68 C 577.80 117.23 586.43 132.98 575.98 145.05 C 583.77 159.92 598.94 175.31 592.50 193.45 C 590.82 200.87 592.26 211.28 583.16 214.27 C 579.59 217.40 570.99 218.67 571.36 224.55 C 589.56 248.16 610.43 269.84 628.67 293.39 C 634.69 314.94 644.15 335.49 647.00 357.82 L 647.00 404.82 C 641.33 424.40 632.04 442.74 627.69 462.69 C 619.06 484.25 641.40 506.15 630.85 527.75 C 624.10 535.58 610.89 530.38 603.39 537.05 C 600.86 550.72 611.39 576.55 589.23 576.36 C 585.93 581.27 594.91 590.73 587.40 594.64 C 569.36 596.99 561.52 616.54 544.53 621.49 C 532.72 630.64 519.10 620.50 506.95 617.04 C 488.43 611.58 476.37 591.39 455.63 592.43 C 435.17 601.51 429.72 624.53 419.17 642.10 C 402.23 666.22 418.38 692.81 436.53 710.32 C 434.49 721.47 425.49 729.94 418.20 738.00 L 178.27 738.00 C 192.25 706.27 212.81 678.71 232.36 650.37 C 242.04 629.45 247.83 606.78 260.38 587.23 C 247.86 575.32 231.46 585.01 220.63 594.05 C 199.04 601.07 184.02 577.01 162.69 577.30 C 146.55 578.33 148.17 552.96 132.22 553.75 C 125.51 551.80 114.30 552.88 112.75 544.06 C 108.55 522.17 87.95 510.43 74.21 494.81 C 55.07 480.85 50.21 454.30 29.97 441.69 C 17.57 445.14 14.20 428.51 20.79 420.77 C 20.57 405.41 18.67 387.83 8.26 375.47 C 2.96 355.50 14.33 331.70 0.00 314.22 L 0.00 304.56 C 4.53 289.57 4.51 273.68 6.83 258.32 C 13.00 249.86 22.81 244.29 27.88 235.07 C 28.12 221.77 27.81 208.37 30.15 195.23 C 33.10 173.55 56.98 160.83 57.24 138.44 C 57.47 126.51 75.52 129.60 77.90 118.81 C 82.51 102.71 89.43 82.89 108.45 80.53 C 122.02 79.31 123.01 60.96 134.72 58.07 C 141.74 64.05 151.83 61.49 159.93 59.27 C 170.78 50.00 175.74 35.83 185.58 25.88 C 211.55 26.30 235.68 17.28 255.17 0.00 M 571.29 234.32 C 514.06 270.58 457.76 308.98 406.81 353.81 C 389.75 371.52 367.16 388.41 363.31 414.31 C 360.88 428.83 356.00 443.62 344.98 453.97 C 356.12 451.34 367.69 451.44 378.83 449.00 C 456.08 392.74 532.19 334.73 609.79 278.93 C 597.69 263.71 584.66 247.42 571.29 234.32 M 346.85 524.42 C 337.63 525.53 329.77 534.57 333.65 544.11 C 338.82 561.21 353.23 573.30 365.12 585.85 C 378.51 574.65 391.61 561.07 397.66 544.33 C 403.18 526.04 377.45 517.99 365.88 528.72 C 359.82 525.89 353.96 521.83 346.85 524.42 Z" />
<path fill="#000000" opacity="1.00" d=" M 377.30 530.33 C 383.64 529.98 392.41 533.66 389.83 541.71 C 385.66 554.86 375.99 565.89 366.02 575.08 C 355.62 566.27 346.16 555.39 341.64 542.34 C 337.65 530.60 355.10 527.51 361.60 534.41 C 366.64 540.35 371.64 530.73 377.30 530.33 Z" />
</svg>
