<?xml version="1.0" encoding="UTF-8" standalone="no"?>
<!-- Created with Inkscape (http://www.inkscape.org/) -->

<svg
   xmlns:dc="http://purl.org/dc/elements/1.1/"
   xmlns:cc="http://creativecommons.org/ns#"
   xmlns:rdf="http://www.w3.org/1999/02/22-rdf-syntax-ns#"
   xmlns:svg="http://www.w3.org/2000/svg"
   xmlns="http://www.w3.org/2000/svg"
   xmlns:sodipodi="http://sodipodi.sourceforge.net/DTD/sodipodi-0.dtd"
   xmlns:inkscape="http://www.inkscape.org/namespaces/inkscape"
   width="617.14288"
   height="775.71429"
   id="svg2"
   sodipodi:version="0.32"
   inkscape:version="0.48.4 r9939"
   version="1.0"
   sodipodi:docname="Che_por_Jim_Fitzpatrick_red.svg"
   inkscape:output_extension="org.inkscape.output.svg.inkscape">
  <defs
     id="defs4" />
  <sodipodi:namedview
     id="base"
     pagecolor="#ffffff"
     bordercolor="#666666"
     borderopacity="1.0"
     inkscape:pageopacity="0.0"
     inkscape:pageshadow="2"
     inkscape:zoom="0.49497474"
     inkscape:cx="964.52414"
     inkscape:cy="548.9043"
     inkscape:document-units="px"
     inkscape:current-layer="layer1"
     inkscape:window-width="1304"
     inkscape:window-height="745"
     inkscape:window-x="54"
     inkscape:window-y="-8"
     showgrid="false"
     inkscape:window-maximized="1"
     fit-margin-top="0"
     fit-margin-left="0"
     fit-margin-right="0"
     fit-margin-bottom="0" />
  <metadata
     id="metadata7">
    <rdf:RDF>
      <cc:Work
         rdf:about="">
        <dc:format>image/svg+xml</dc:format>
        <dc:type
           rdf:resource="http://purl.org/dc/dcmitype/StillImage" />
        <dc:title></dc:title>
        <dc:date>2008-01-23</dc:date>
        <dc:creator>
          <cc:Agent>
            <dc:title>Julio Garay</dc:title>
          </cc:Agent>
        </dc:creator>
        <dc:source>Foto de Alberto Korda</dc:source>
        <dc:description>Dibujo en alto contraste, copia del diseño de Jim Fitzpatrick, basado en la famosa foto de Alberto Korda. Sujeta a las mismas condiciones impuestas por él.</dc:description>
        <cc:license
           rdf:resource="http://en.wikipedia.org/wiki/Che_Guevara_%28photo%29" />
      </cc:Work>
    </rdf:RDF>
  </metadata>
  <g
     inkscape:label="Capa 1"
     inkscape:groupmode="layer"
     id="layer1"
     transform="translate(-69.529181,-144.76494)">
    <g
       id="g3002"
       transform="translate(10.636347,1.7616003)">
      <path
         inkscape:connector-curvature="0"
         id="path2170"
         d="m 349.41964,165.16517 c -40.22498,0 -47.20058,0.77113 -70.46875,8 -43.13914,13.4023 -77.32864,42.46934 -94.1875,80.0625 -4.01618,8.95561 -4.40625,10.99997 -4.40625,22.34375 0,11.10358 -0.35954,12.9724 -3.1875,16.9375 -11.78243,16.52027 -12.20374,34.40488 -1.46875,60.4375 l 3.90625,9.53125 -3.78125,6.8125 c -2.08209,3.74701 -4.74205,11.26561 -5.9375,16.6875 -1.19547,5.42188 -2.5882,11.58221 -3.09375,13.6875 -0.69302,2.88615 -3.68205,5.71703 -12.09375,11.5 -21.55304,14.81746 -43.58134,24.44091 -58.781248,25.71875 -8.94802,0.75224 -12.27677,2.94183 -9.53125,6.25 1.1186,1.34783 4.09714,1.96875 9.4375,1.96875 4.296518,0 9.076628,0.70259 10.624998,1.53125 1.54838,0.82866 4.60311,1.43693 6.78125,1.375 5.90844,-0.168 7.64293,1.91241 6.625,7.9375 -0.65822,3.89597 -0.3402,5.69519 1.40625,7.625 1.26097,1.39335 2.56506,5.44909 2.90625,9 0.53927,5.61221 0.27538,6.65065 -2.1875,7.96875 -4.37136,2.33947 -7.20984,0.67798 -13.1875,-7.84375 -4.82538,-6.87906 -7.96875,-9.6553 -7.96875,-7.03125 0,0.75867 6.58385,15.18909 9.34375,20.5 0.65233,1.2553 1.1875,3.53049 1.1875,5.0625 0,1.53201 1.47374,4.57064 3.28125,6.71875 5.24357,6.23163 5.54307,9.7975 1.1875,14.34375 l -3.75,3.90625 2.9375,11.4375 c 1.61056,6.29723 2.90861,13.95473 2.90625,17 -0.0109,14.05443 -10.71205,29.28127 -20.562498,29.28125 -5.91437,0 -12.13282,-3.72313 -18.15625,-10.90625 -4.33059,-5.16436 -4.59669,-5.3018 -4.59375,-2.21875 0.004,4.32372 4.13094,13.16746 7.5625,16.21875 7.63919,6.79262 20.145478,7.6391 39.781248,2.6875 l 13.59375,-3.4375 6.375,7.0625 c 21.48696,23.80667 21.58738,25.02438 2.875,34.375 l -9.28125,4.625 -6.875,-2.3125 c -12.40601,-4.19987 -17.65934,-11.51673 -17.15625,-23.84375 0.17443,-4.27394 0.007,-8.0871 -0.375,-8.46875 -0.99104,-0.99104 -7.23832,13.41171 -8.75,20.15625 -1.32681,5.9197 -0.27682,12.09085 2.65625,15.625 0.9049,1.09033 4.9882,4.27451 9.09375,7.0625 4.97004,3.3751 7.96509,6.46054 8.9375,9.25 2.09508,6.00991 1.90877,6.43749 -2.71875,6.4375 -2.29256,0 -5.2533,0.9744 -6.59375,2.1875 -2.3073,2.08806 -2.71923,1.95174 -7.40625,-2.625 -8.589858,-8.38778 -11.208948,-5.55714 -3.53125,3.8125 3.15734,3.85313 4.6187,6.96321 4.65625,9.96875 0.0384,3.07546 1.40513,5.92021 4.59375,9.53125 4.10996,4.65442 5.21735,5.1611 11.46875,5.375 5.42713,0.18568 16.90484,3.28266 20.59375,5.5625 0.30081,0.18591 -2.01219,5.69983 -5.125,12.25 -4.22262,8.88553 -5.26954,12.29297 -4.15625,13.40625 2.25836,2.25837 13.62153,-10.09385 15.71875,-17.09375 1.83354,-6.11982 2.09765,-6.27692 6.65625,-3.75 l 3.125,1.71875 -4.125,1.4375 c -3.52364,1.22834 -4.09375,2.08488 -4.09375,5.90625 0,4.80593 -1.96247,7.15476 -8.875,10.65625 -4.20408,2.12954 -5.52648,5.13797 -2.96875,6.71875 0.71684,0.44303 3.91628,-1.01109 7.125,-3.21875 4.15557,-2.8591 7.38512,-4.03127 11.1875,-4.03125 3.91473,0 5.76483,-0.69722 6.96875,-2.625 0.90294,-1.44584 2.00864,-2.62497 2.4375,-2.625 0.42886,0 2.90381,3.11091 5.5,6.90625 5.96712,8.72326 7.35868,15.45787 4.21875,20.25 -1.85247,2.82723 -2.13345,5.19184 -1.46875,12.34375 1.83878,19.78451 9.25702,34.30938 20.5625,40.34375 4.98515,2.66088 7.38536,3.09272 15.25,2.71875 7.8276,-0.37219 11.11236,-1.33126 20.375,-5.96875 6.07305,-3.04058 15.46832,-9.31895 20.90625,-13.9375 8.49136,-7.21193 10.13891,-8.12436 11.65625,-6.5 1.49614,1.60161 1.15619,2.54623 -2.3125,6.125 -3.2577,3.36109 -4.09374,5.34984 -4.09375,9.71875 0,4.4386 0.63414,5.91207 3.34375,7.6875 4.05685,2.65815 5.21679,1.721 7.6875,-6.15625 l 1.84375,-5.84375 0.125,5.53125 c 0.12322,5.25061 0.55273,5.83774 8.0625,10.9375 4.35583,2.958 7.52379,5.97242 7.0625,6.71875 -0.49013,0.79306 -2.72842,-0.46804 -5.375,-3.03125 -4.39192,-4.25361 -4.83897,-4.37411 -15.28125,-4.34375 -13.54562,0.0394 -18.79843,2.44949 -20.0625,9.1875 -1.04706,5.58128 1.58267,10.18805 7.9375,13.9375 4.42005,2.60789 7.81247,8.81989 11.3125,20.65625 1.40726,4.759 2.60979,6.13322 7.3125,8.34375 3.09369,1.45421 5.99365,3.78905 6.4375,5.1875 0.44385,1.39844 2.32407,3.51829 4.15625,4.71875 2.962,1.94077 3.21886,2.79569 2.53125,7.8125 -0.67975,4.95933 -0.33933,6.07528 2.8125,9.0625 5.72158,5.42272 9.38322,6.7654 22.65625,8.40625 15.93234,1.96957 44.22887,6.65052 75.03127,12.40625 22.9955,4.29692 45.0183,7.95924 55.0937,9.1875 8.9935,1.09635 41.5699,-0.34414 52.6875,-2.34375 13.4346,-2.4163 42.0794,-10.49373 48.4375,-13.65625 7.7101,-3.83495 7.7629,-5.10923 1.0625,-20.1875 -5.8589,-13.18477 -10.1874,-26.94247 -10.1875,-32.40625 0,-4.92681 3.267,-3.82298 6.7813,2.3125 1.9197,3.35155 4.4957,6.92247 5.7187,7.9375 2.058,1.70796 2.1439,1.32088 1.3125,-5.3125 l -0.875,-7.15625 9.5313,0.4375 c 9.3274,0.4353 9.5243,0.4003 7.6875,-2.15625 -17.6983,-24.63239 -19.2534,-28.88406 -19.8438,-54.34375 l -0.4375,-19.25 5.5625,-0.625 c 3.062,-0.34455 7.0905,-1.64431 8.9688,-2.875 4.4008,-2.8835 8.4007,-11.71312 8.4375,-18.65625 0.029,-5.43615 0.051,-5.44848 5.625,-6.03125 3.0724,-0.32121 5.7066,-0.48743 5.875,-0.375 0.1683,0.11243 -0.2652,2.2031 -0.9688,4.65625 -2.0743,7.23297 0.6217,7.64478 5.4375,0.8125 2.4041,-3.41066 5.3246,-6.09374 6.6563,-6.09375 2.7443,0 2.7939,0.36174 1.0625,6.59375 -0.8091,2.91242 -2.7159,5.49596 -5.1563,6.9375 -4.7761,2.82135 -6.3623,7.04391 -3.6562,9.75 1.6281,1.62817 2.7883,1.70371 6.625,0.4375 13.7507,-4.53813 24.0167,-19.89809 24.9375,-37.28125 0.3486,-6.58048 0.8663,-7.87495 3.625,-9.25 5.1835,-2.5837 6.794,-7.91547 7.4062,-24.40625 0.5292,-14.25222 0.9012,-15.91127 5.6563,-26.40625 6.7929,-14.99271 11.324,-28.84142 14.4687,-44.125 2.1779,-10.58469 2.5938,-17.90007 2.5938,-44.71875 0,-19.00756 0.5214,-32.06252 1.25,-32.0625 0.6758,0 2.769,0.59492 4.6562,1.3125 3.8069,1.44738 3.8951,1.72984 -2.4375,-7.5625 -5.2474,-7.70003 -4.1754,-9.54075 5,-8.59375 4.0172,0.4146 7.3125,0.36304 7.3125,-0.125 0,-0.48804 -0.9574,-2.34313 -2.125,-4.125 -2.0696,-3.15864 -2.0385,-3.24999 1.3125,-3.25 4.0705,0 4.5715,-3.22076 1.4375,-9.28125 -1.503,-2.90661 -2.9342,-3.875 -5.7187,-3.875 -6.4296,0 -12.1493,-5.06725 -15.5,-13.71875 -1.6635,-4.29508 -3.647,-8.4282 -4.4063,-9.1875 -1.9889,-1.98896 -3.644,1.2395 -2.875,5.59375 0.6083,3.44399 0.4762,3.37943 -4.8437,-1.71875 -5.5307,-5.30016 -11.9688,-16.36683 -11.9688,-20.59375 0,-2.00717 0.8402,-1.80482 6.25,1.46875 3.4339,2.07788 7.5609,4.15379 9.1875,4.625 5.1111,1.48063 3.5854,-4.03961 -2.9375,-10.5625 -3.2531,-3.25313 -5.9375,-6.73711 -5.9375,-7.75 0,-1.74718 3.4384,-4.93437 8.6875,-8.0625 2.196,-1.30864 2.0578,-1.70819 -1.9062,-5.25 l -4.3125,-3.84375 2.1875,-15.78125 c 2.7058,-19.35414 2.0302,-50.85889 -1.375,-63.09375 -4.7252,-16.97729 -13.0475,-29.67863 -26.7813,-40.96875 -6.8901,-5.66417 -7.8022,-6.99768 -8.5625,-12.46875 -2.1751,-15.65285 -20.0876,-39.23771 -40.5,-53.3125 -18.4412,-12.71569 -42.1583,-22.7396 -64.875,-27.4375 -15.8412,-3.27604 -26.4606,-8.74655 -50.5,-25.96875 l -11.1875,-8 -14.4375,-0.125 c -10.4766,-0.0944 -15.8027,-0.74794 -19.3437,-2.34375 -4.1961,-1.89104 -10.0868,-2.18749 -41.62502,-2.1875 z m 2.34372,36.84375 5.5313,13.6875 14.75,1.21875 -11.3438,9.53125 3.4063,14.375 -12.5313,-7.8125 -12.65622,7.65625 3.59375,-14.34375 -11.21875,-9.65625 14.75,-1.03125 5.71872,-13.625 z m -17.49997,88.15625 c 18.56707,0.0867 36.74077,1.84579 61.65627,5.78125 51.2402,8.09355 107.0197,31.94199 117.2187,50.125 3.5443,6.31875 8.9927,31.73556 7.8125,36.4375 -1.1484,4.57554 -2.8582,4.38897 -4.5625,-0.5 -1.3079,-3.75185 -1.6991,-3.92267 -6.6875,-3.125 -4.8297,0.7723 -6.2345,0.20694 -16.7812,-6.625 -8.1485,-5.27845 -12.3137,-7.23126 -14.1875,-6.65625 -4.7892,1.46956 -31.197,3.11023 -51.125,3.1875 -17.0188,0.066 -20.5521,0.49012 -27.25,3.0625 -4.2353,1.62656 -8.024,3.89798 -8.4063,5.0625 -0.3822,1.16451 -3.0313,4.27754 -5.9062,6.9375 -2.8749,2.65994 -5.25,5.35811 -5.25,5.96875 0,0.61063 1.5681,2.12965 3.4687,3.375 3.26,2.13603 3.407,2.69128 2.5938,9.6875 -1.7906,15.40574 -2.5181,17.99136 -6.1563,22.15625 -2.0351,2.32971 -4.2878,6.32703 -5,8.90625 -1.4009,5.07386 -0.5547,13.8125 1.3438,13.8125 0.6438,0 1.864,1.47397 2.6875,3.28125 2.1531,4.72552 8.2012,4.52716 10.8437,-0.34375 1.3281,-2.4481 1.9644,-2.88035 2,-1.375 0.1164,4.91597 6.625,4.11759 6.625,-0.8125 0,-1.59469 1.7688,-4.60971 3.9375,-6.6875 4.6611,-4.46562 5.0167,-8.52856 1.1563,-13.75 -3.6081,-4.88026 -2.4983,-8.48813 2.3437,-7.5625 1.906,0.36434 7.594,-0.72631 12.625,-2.4375 10.4089,-3.54027 11.9866,-3.19514 17.5938,4.15625 3.378,4.42885 3.8978,4.66705 9.5625,4.03125 3.3016,-0.37058 8.0272,-1.08498 10.4687,-1.59375 3.4684,-0.72271 4.2808,-0.5444 3.8125,0.875 -0.3918,1.1876 -3.0606,1.96477 -7.7187,2.1875 -11.3015,0.54039 -13.3306,1.23012 -11.7813,4.125 1.331,2.48701 4.3184,3.22365 20.4375,4.90625 7.1906,0.75058 9.7886,2.01056 9.8438,4.78125 0.011,0.55596 -1.3966,0.65257 -3.125,0.21875 -4.0267,-1.01064 -5.2307,0.98109 -4.125,6.875 l 0.875,4.6875 6.1562,-1.0625 c 8.8456,-1.54555 31.3086,-0.95135 39,1.03125 6.39,1.64712 6.5882,1.82335 7.3125,7.25 0.7293,5.46391 0.6084,5.70094 -5.8437,10.53125 -5.0863,3.80781 -7.2218,6.57715 -9.4063,12.15625 -1.5567,3.97605 -3.8545,9.60833 -5.0937,12.5 l -2.25,5.25 -2.6563,-3.625 c -1.4591,-1.98802 -3.4282,-3.59376 -4.375,-3.59375 -3.9078,0 -3.774,7.47692 0.2188,12.03125 1.7491,1.99513 0.9361,2.50301 -9.5625,5.90625 -10.5942,3.43422 -11.8082,4.19983 -15.1563,9.46875 -7.5223,11.83817 -5.9164,28.00282 2.5625,25.8125 9.8246,-2.53797 21.2841,-3.01099 21.25,-0.875 -0.01,0.48919 -4.542,3.23332 -10.0625,6.125 -5.8492,3.06392 -11.669,7.27728 -13.9375,10.09375 -4.5314,5.62605 -5.2171,5.5493 -15.4375,-2.21875 -9.5692,-7.27319 -13.3894,-9.13589 -24,-11.53125 -7.3398,-1.65699 -10.5186,-3.29906 -18,-9.34375 -9.3991,-7.59417 -11.3329,-10.65752 -10.0312,-15.84375 0.9069,-3.61361 6.2144,-5.37193 10.0625,-3.3125 4.143,2.21729 14.9077,-4.79939 15.3437,-10 0.6979,-8.32302 -6.7796,-11.19564 -8.375,-3.21875 -1.0823,5.41161 -2.6329,3.94127 -3.75,-3.5625 -0.5125,-3.44276 -1.5604,-7.04867 -2.3437,-8 -2.6168,-3.17784 -8.7163,-5.50547 -16.4375,-6.3125 -6.5947,-0.68927 -8.5764,-0.31381 -14.4375,2.65625 -8.4312,4.27239 -19.6771,4.68627 -26.62502,1 -2.5195,-1.33674 -7.96206,-2.77179 -12.09375,-3.1875 -7.46906,-0.75153 -7.51874,-0.72722 -10.34375,3.84375 -3.94311,6.3801 -2.14675,10.01327 6.375,12.84375 6.14639,2.0415 6.71405,2.01747 12.25,-0.5 l 5.8125,-2.625 3.75002,4.5625 c 3.0699,3.75541 4.6243,4.59374 8.6875,4.59375 2.8325,0 6.301,-1.06873 8.0937,-2.46875 1.7241,-1.34638 4.3886,-2.82751 5.9375,-3.3125 2.6919,-0.84283 2.8404,-0.40663 3.4375,10 0.4889,8.51983 0.051,12.77907 -2.0312,19.59375 l -2.6563,8.71875 2.8438,3.96875 c 1.5597,2.19037 5.6292,5.64229 9.0625,7.6875 l 6.25,3.71875 -11.1875,0.96875 c -6.1448,0.53142 -15.6939,1.65048 -21.2188,2.46875 -5.5248,0.81831 -11.20353,1.10742 -12.62497,0.65625 -1.57518,-0.49993 -6.79483,0.99607 -13.375,3.8125 -5.9381,2.54161 -13.85105,5.50231 -17.59375,6.59375 -8.18565,2.38702 -15.34376,6.56538 -15.34375,8.9375 0,3.09362 3.03753,4.875 8.3125,4.875 6.82876,0 15.347,-2.47972 18.71875,-5.46875 2.44141,-2.16428 5.39423,-2.40628 29.59372,-2.40625 23.1081,0 27.3642,0.30798 30.1563,2.21875 6.1953,4.23971 6.9749,8.81115 2.25,13.25 -5.9718,5.61015 -11.9022,6.91485 -34.9063,7.75 -24.68911,0.89632 -27.84371,1.5977 -27.84372,6.0625 0,3.63038 1.85505,6.13892 7.21875,9.75 4.07299,2.74213 10.31738,3.64501 37.46877,5.40625 11.7933,0.76502 14.9484,1.48345 21.6875,4.9375 6.1156,3.13451 9.1096,3.9299 13.3437,3.5 8.3721,-0.84996 10.9688,2.44421 10.9688,13.96875 l 0,9.03125 -6.625,0.875 c -7.5529,1.00193 -11.7813,4.40013 -11.7813,9.4375 0,3.14109 -0.4104,3.36149 -5.5937,3.15625 -8.3992,-0.33254 -8.8438,-0.18635 -8.8438,2.65625 0,2.04462 -0.9018,2.62502 -3.9687,2.625 -3.0669,0 -3.9375,-0.58037 -3.9375,-2.625 0,-3.34024 -4.9937,-3.62191 -6.1563,-0.34375 -0.4486,1.2651 -1.6947,3.3599 -2.7812,4.625 -2.3207,2.70207 -6.5329,2.737 -19.31252,0.21875 -5.06042,-0.99715 -14.09805,-2.32621 -20.09375,-2.96875 -15.22916,-1.63212 -24.21098,-6.37135 -31.09375,-16.375 -3.08603,-4.48533 -6.13963,-7.5 -7.5625,-7.5 -1.50872,0 -2.37499,-0.96205 -2.375,-2.625 0,-1.44584 -1.14013,-3.76516 -2.53125,-5.15625 -1.3911,-1.3911 -3.19692,-3.78066 -4,-5.28125 -2.30919,-4.31477 -6.2591,-3.45385 -7.25,1.5625 -1.8988,9.6126 -3.2905,11.49035 -8.40625,11.46875 -7.24881,-0.0306 -8.48842,-1.41242 -8.21875,-9.03125 0.1298,-3.66697 0.7899,-8.19474 1.5,-10.0625 2.22046,-5.84023 1.64239,-11.25852 -1.3125,-12.03125 -1.86204,-0.48693 -2.62501,-1.81555 -2.625,-4.5 0,-3.80578 -0.784,-4.28648 -6.25,-3.84375 -2.21803,0.17968 -2.96875,-0.45843 -2.96875,-2.5625 0,-1.88475 0.7672,-2.71968 2.3125,-2.5625 4.75437,0.48362 6.90624,-0.13281 6.90625,-1.96875 0,-2.31653 -1.8717,-3.52002 -6.96875,-4.5625 -2.98233,-0.60996 -4.24054,-1.87724 -5.375,-5.375 -1.7005,-5.24287 -5.38517,-6.63686 -8.09375,-3.0625 -1.63427,2.15668 -1.83767,1.62618 -1.875,-5.03125 -0.0336,-5.99899 -0.70023,-8.23337 -3.34375,-11.375 -4.43066,-5.26555 -4.22565,-8.50105 0.65625,-10.34375 4.80353,-1.81313 5.05505,-3.98386 0.65625,-5.65625 -2.59661,-0.98723 -3.28125,-2.16812 -3.28125,-5.625 0,-2.40605 -2.06044,-10.54003 -4.59375,-18.0625 -6.83515,-20.29643 -9.98512,-38.29141 -10.8125,-61.875 -0.75112,-21.40966 0.74198,-37.38237 4.4375,-47.59375 2.67751,-7.39846 8.6033,-68.98119 6.9375,-72.09375 -0.68493,-1.27981 -2.16482,-2.84396 -3.28125,-3.46875 -1.78016,-0.99623 -1.79853,-1.75839 -0.21875,-6.34375 2.26092,-6.56236 8.09127,-15.09864 17.03125,-24.90625 5.64368,-6.19138 9.4049,-8.77669 20.09375,-13.8125 20.11478,-9.47664 36.30238,-13.1261 62.03125,-14 4.41564,-0.14998 8.7153,-0.23875 13,-0.21875 z m -68.6875,77.9375 c -0.39933,-10e-4 -0.73423,0.19498 -1,0.625 -0.44291,0.71665 -3.72457,1.23728 -7.28125,1.15625 -6.57995,-0.14988 -10.56249,1.77349 -10.5625,5.09375 0,1.01136 -1.63699,2.56408 -3.625,3.4375 -4.67878,2.05562 -5.66175,3.59322 -4.15625,6.40625 0.67247,1.25653 1.20769,5.14361 1.21875,8.625 0.0111,3.48138 0.61816,7.19686 1.34375,8.28125 1.15335,1.72367 1.55251,1.69846 3.09375,-0.3125 0.96961,-1.26511 3.01564,-2.31249 4.5625,-2.3125 2.07016,0 2.8125,-0.80509 2.8125,-3.0625 0,-3.94029 1.12091,-5.00829 3.78125,-3.59375 1.21471,0.64587 5.38734,0.56213 9.71875,-0.1875 9.15502,-1.58444 14.12501,-0.5985 14.125,2.78125 0,3.33517 -2.04984,4.70771 -10.59375,7.15625 -16.38356,4.69528 -31.36668,20.73284 -25.46875,27.25 1.89663,2.09575 4.07037,2.53124 12.65625,2.53125 l 10.40625,0 3.09375,-7.0625 c 3.03355,-6.8594 6.36813,-9.90233 7.96875,-7.3125 1.37964,2.23231 10.89997,6.46874 14.5,6.46875 4.23227,0 12.40624,-7.69728 12.40625,-11.6875 0,-4.12425 4.80899,-3.49971 9.1875,1.1875 3.16126,3.38414 4.62333,3.9375 10.375,3.9375 5.08092,0 6.71876,-0.47401 6.71875,-1.96875 0,-1.33958 1.37884,-1.97179 4.28125,-2 2.60166,-0.0253 5.6736,-1.28116 7.875,-3.21875 3.27794,-2.8851 3.59819,-4.02198 3.59375,-12.125 -0.006,-11.22484 -2.76077,-16.20505 -11.4375,-20.5625 -5.44238,-2.73317 -8.41687,-3.19072 -22.0625,-3.46875 -21.60887,-0.44029 -27.62499,-0.77976 -29.09375,-1.6875 -0.69115,-0.42716 -4.4609,-1.14623 -8.375,-1.59375 -3.9141,-0.44751 -7.81913,-1.40432 -8.6875,-2.125 -0.52106,-0.43244 -0.97567,-0.65502 -1.375,-0.65625 z m 25.15625,38.90625 c 1.17584,0 1.6171,0.76778 1.15625,1.96875 -0.97911,2.55152 -3.09374,2.55153 -3.09375,0 0,-1.08438 0.87581,-1.96875 1.9375,-1.96875 z m 109.09372,65.96875 c -0.1769,-0.01 -0.3576,0.004 -0.5,0.0312 -2.6785,0.51583 -3.547,4.98181 -1.25,6.4375 2.3579,1.49423 5.2741,1.42952 7.6875,-0.1875 1.68,-1.12559 1.5147,-1.73572 -1.1875,-4 -1.5261,-1.27882 -3.5114,-2.21373 -4.75,-2.28125 z m -72.06247,38.1875 c -1.61105,0.0208 -2.89336,0.96658 -3.21875,2.65625 -0.49329,2.56147 3.04559,3.0821 6.3125,0.9375 1.75253,-1.15047 1.75254,-1.42684 0,-2.59375 -1.03765,-0.6909 -2.12712,-1.0125 -3.09375,-1 z m 14.53125,16.25 c -0.7776,-0.0106 -1.36095,1.08742 -2.25,3.78125 -0.85577,2.59299 -1.2064,5.64199 -0.78125,6.75 0.42518,1.10799 1.82645,1.80268 3.09375,1.5625 3.02728,-0.57371 3.92184,-9.16823 1.1875,-11.4375 -0.49772,-0.41307 -0.89655,-0.65144 -1.25,-0.65625 z m -29.625,29.4375 c -1.32981,0 -3.09855,1.50245 -3.9375,3.34375 -1.65159,3.62484 -2.07681,12.73563 -0.65625,14.15625 3.55814,3.55814 6.99999,-2.19274 7,-11.6875 0,-4.7834 -0.42222,-5.81248 -2.40625,-5.8125 z m -72.5,2.59375 c -0.97023,0.0844 -2.15538,1.68811 -3.5,4.90625 -2.21269,5.2957 -1.762,13.62868 0.90625,16.84375 3.58,4.31364 5.21876,1.21036 5.21875,-9.90625 0,-7.90884 -1.00795,-11.98438 -2.625,-11.84375 z m 54.59375,4.25 c -5.10485,0.009 -8.87666,3.83323 -13.84375,13.5 -4.06934,7.91959 -4.62597,10.10025 -4.625,18.9375 6e-4,5.49476 0.44984,11.01613 0.96875,12.28125 1.21987,2.97412 6.58437,2.98 9.28125,0 1.80972,-1.99971 4.87501,-22.08251 4.875,-31.90625 0,-1.74763 1.14987,-2.51335 4.21875,-2.8125 3.58198,-0.34917 4.36419,-1.0581 5.09375,-4.65625 0.81682,-4.02849 0.62809,-4.3154 -3.6875,-5.125 -0.79006,-0.14822 -1.55199,-0.21997 -2.28125,-0.21875 z m 132.46877,26.125 c 1.3708,-0.0439 2.9545,0.76472 5,2.46875 l 3.125,2.59375 -5.375,0.0312 c -6.1372,0.05 -7.7208,-0.91227 -5.625,-3.4375 0.8862,-1.06778 1.8088,-1.62212 2.875,-1.65625 z m -10.8125,3.1875 c 0.7707,-0.0391 1.1875,0.42779 1.1875,1.34375 0,2.23408 -0.072,2.26113 -2.4063,0.78125 -1.4115,-0.8948 -1.3636,-1.29427 0.3125,-1.9375 0.3293,-0.12635 0.6494,-0.17447 0.9063,-0.1875 z M 95.794642,680.97767 c -1.16335,0.0731 -2.3273,0.93023 -4.40625,2.90625 -3.60232,3.42396 -7.625,9.59332 -7.625,11.6875 0,1.53049 6.63701,-0.71645 11.9375,-4.0625 5.765758,-3.63976 6.700018,-7.56031 2.375,-9.875 -0.87752,-0.46964 -1.58324,-0.70011 -2.28125,-0.65625 z m 53.843748,56.03125 c -3.42944,0.23466 -5.81308,4.68998 -6.90625,13.0625 -0.51914,3.97605 -1.37485,8.85575 -1.875,10.84375 -1.54293,6.13275 3.73884,4.5582 12.1875,-3.625 5.94943,-5.76248 7.14626,-7.57247 5.84375,-8.875 -1.30252,-1.30252 -2.48827,-1.1532 -5.75,0.71875 -6.46389,3.70977 -7.85592,0.65685 -2.3125,-5.0625 3.74599,-3.86489 4.18501,-4.84918 2.5625,-5.875 -1.36782,-0.86481 -2.60685,-1.26572 -3.75,-1.1875 z m -19.15625,4.75 c -2.85279,-0.0545 -24.79571,8.30843 -33.249998,12.71875 -2.34948,1.22565 -4.28125,3.12675 -4.28125,4.25 0,2.51079 5.95594,1.52112 13.406248,-2.25 5.89465,-2.98368 7.625,-3.09889 7.625,-0.5 0,1.08438 -0.86453,1.96877 -1.90625,1.96875 -2.322,0 -3.7877,2.15731 -2.6875,3.9375 2.21219,3.5794 16.81421,-2.67925 17.5,-7.5 0.22653,-1.59239 1.53747,-3.24311 2.9375,-3.6875 2.94631,-0.93512 3.5997,-7.84868 0.84375,-8.90625 -0.0512,-0.0197 -0.0955,-0.0295 -0.1875,-0.0312 z m 171.53125,34.1875 c 2.62289,0.025 6.5689,0.60551 11.84375,1.71875 9.0061,1.9007 11.60545,3.03423 14.5625,6.34375 1.97874,2.21458 5.84083,5.55761 8.59375,7.40625 2.75289,1.84867 10.01932,6.89973 16.12497,11.25 13.0344,9.28686 13.5857,9.06263 13.7188,-6.09375 0.046,-5.21696 0.5229,-9.23977 1.0625,-8.90625 1.3489,0.83371 6.3125,17.20144 6.3125,20.8125 0,1.75767 2.0981,4.82676 5.25,7.65625 2.8917,2.59591 5.3193,5.77576 5.375,7.09375 0.056,1.31799 0.1873,4.39407 0.3125,6.8125 0.1252,2.41842 -0.076,4.55502 -0.4375,4.75 -1.2742,0.68701 -4.6534,-1.08125 -11.1563,-5.8125 -3.6146,-2.62983 -17.2062,-11.21744 -30.21872,-19.09375 -13.01252,-7.8763 -28.56719,-17.79853 -34.53125,-22.03125 -10.8441,-7.69605 -13.49869,-11.54463 -7.84375,-11.875 0.3213,-0.0188 0.65655,-0.0348 1.03125,-0.0312 z m -145.1875,17.875 c -0.0452,-0.007 -0.0789,0.0167 -0.125,0.0312 -0.72291,0.22789 -2.95126,3.40342 -4.9375,7.0625 l -3.59375,6.65625 -8.875,-3.28125 c -5.85839,-2.15663 -12.86827,-3.50152 -20.59375,-3.96875 l -11.6875,-0.71875 0.875,4.46875 c 2.36542,11.84526 15.8269,32.89393 25.375,39.6875 2.75721,1.96179 5.69733,3.56249 6.5625,3.5625 3.84909,0 8.47074,-2.85069 9.65625,-5.96875 l 1.3125,-3.40625 3.8125,2.71875 c 7.76801,5.53132 11.3436,1.34836 6.96875,-8.15625 -2.41184,-5.23987 -2.92086,-9.96764 -3.4375,-32.84375 -0.0742,-3.28364 -0.63444,-5.74133 -1.3125,-5.84375 z m 82.03125,13.03125 c -0.80301,0.1104 -1.3125,2.34587 -1.3125,6.84375 l 0,7.34375 -7.1875,0 c -5.88208,0 -7.45114,0.49414 -8.625,2.6875 -1.91187,3.57237 -0.75936,6.85613 5.96875,17.03125 3.1071,4.69897 6.66074,11.77396 7.90625,15.75 2.56309,8.18231 3.96357,10.34961 7.78125,11.9375 2.91485,1.21234 8.36793,0.41441 10.75,-1.5625 2.37298,-1.96939 3.47811,-16.98076 1.75,-23.84375 -0.87409,-3.4713 -3.60613,-8.45654 -6.34375,-11.625 -3.66895,-4.24633 -5.24056,-7.69584 -6.75,-14.75 -1.40681,-6.57456 -2.90505,-9.95444 -3.9375,-9.8125 z m 326.96872,23.5 c -0.1709,0.002 -0.3305,0.0805 -0.4687,0.21875 -1.581,1.58098 -1.1157,8.53958 0.7187,10.75 0.932,1.12289 2.7743,2.06247 4.0938,2.0625 2.1532,0 2.2254,-0.44713 0.8125,-4.28125 -2.0266,-5.49936 -3.9596,-8.76307 -5.1563,-8.75 z m 31.0625,16.75 c -0.1418,0.027 -0.2146,0.0911 -0.25,0.1875 -0.2131,0.58185 1.9057,6.03618 4.7188,12.125 3.3713,7.29729 6.6125,12.24698 9.5312,14.53125 5.0904,3.98383 6.8546,3.25539 9.1563,-3.71875 1.8113,-5.48847 1.0061,-8.27691 -3.6563,-12.71875 -3.9521,-3.76522 -17.3732,-10.81103 -19.5,-10.40625 z m -11.4687,16.125 c -0.1127,0.0187 -0.1921,0.0671 -0.25,0.125 -0.4324,0.43234 0.098,2.89163 1.1875,5.5 1.6499,3.9488 2.6317,4.75 5.9062,4.75 4.4637,0 6.2994,-1.93043 4.2188,-4.4375 -1.906,-2.29658 -9.3719,-6.21881 -11.0625,-5.9375 z"
         style="fill:#000000" />
      <text
         transform="scale(0.88258839,1.133031)"
         sodipodi:linespacing="125%"
         id="text2996"
         y="766.91553"
         x="668.54211"
         style="font-size:1.43158352px;font-style:normal;font-variant:normal;font-weight:normal;font-stretch:normal;text-align:start;line-height:125%;letter-spacing:0px;word-spacing:0px;writing-mode:lr-tb;text-anchor:start;fill:#ffffff;fill-opacity:1;stroke:none;font-family:Sans;-inkscape-font-specification:Sans"
         xml:space="preserve"><tspan
           y="766.91553"
           x="668.54211"
           id="tspan2998"
           sodipodi:role="line">R-59</tspan><tspan
           id="tspan3000"
           y="768.70502"
           x="668.54211"
           sodipodi:role="line">2016</tspan></text>
    </g>
  </g>
</svg>
