<?xml version="1.0" encoding="UTF-8" standalone="no"?>
<!-- Created with Inkscape (http://www.inkscape.org/) -->

<svg
   xmlns:dc="http://purl.org/dc/elements/1.1/"
   xmlns:cc="http://creativecommons.org/ns#"
   xmlns:rdf="http://www.w3.org/1999/02/22-rdf-syntax-ns#"
   xmlns:svg="http://www.w3.org/2000/svg"
   xmlns="http://www.w3.org/2000/svg"
   xmlns:sodipodi="http://sodipodi.sourceforge.net/DTD/sodipodi-0.dtd"
   xmlns:inkscape="http://www.inkscape.org/namespaces/inkscape"
   width="88.296104mm"
   height="100.05961mm"
   viewBox="0 0 312.86021 354.54192"
   id="svg11056"
   version="1.1"
   inkscape:version="0.91 r13725"
   sodipodi:docname="retro couple silhouette.svg">
  <defs
     id="defs11058" />
  <sodipodi:namedview
     id="base"
     pagecolor="#ffffff"
     bordercolor="#666666"
     borderopacity="1.0"
     inkscape:pageopacity="0.0"
     inkscape:pageshadow="2"
     inkscape:zoom="0.70062155"
     inkscape:cx="277.06945"
     inkscape:cy="164.17891"
     inkscape:document-units="px"
     inkscape:current-layer="layer1"
     showgrid="false"
     fit-margin-top="0"
     fit-margin-left="0"
     fit-margin-right="0"
     fit-margin-bottom="0"
     inkscape:window-width="1366"
     inkscape:window-height="705"
     inkscape:window-x="-8"
     inkscape:window-y="-8"
     inkscape:window-maximized="1" />
  <metadata
     id="metadata11061">
    <rdf:RDF>
      <cc:Work
         rdf:about="">
        <dc:format>image/svg+xml</dc:format>
        <dc:type
           rdf:resource="http://purl.org/dc/dcmitype/StillImage" />
        <dc:title></dc:title>
      </cc:Work>
    </rdf:RDF>
  </metadata>
  <g
     inkscape:label="Layer 1"
     inkscape:groupmode="layer"
     id="layer1"
     transform="translate(-460.09307,-494.59879)">
    <path
       style="fill:#000000"
       d="m 580.86133,494.59961 c -7.91088,-0.0596 -17.1316,3.1297 -27.94336,9.65234 -8.31836,6.81641 -7.00515,5.66787 -8.31836,6.81641 -10.77968,9.42578 -17.73729,30.14144 -15.26953,45.46484 0.84653,5.2564 0.69929,6.52847 -1.26953,10.88477 -1.44198,3.1907 -2.78135,4.84755 -3.78907,4.68945 -2.35604,-0.3695 -6.96024,3.09343 -8.75195,6.58203 -1.50974,2.9396 -8.76922,12.78103 -12.55469,17.01953 -3.37996,3.7845 -1.95299,4.50272 7.96875,4.00782 19.0947,-0.9525 32.18355,7.62902 44.3418,29.07422 4.48285,7.907 14.83367,32.71866 14.91797,35.75976 0.0116,0.4183 -2.3127,-1.8317 -5.16602,-5 -18.03666,-20.0278 -29.99796,-30.57875 -40.8125,-36.00195 -4.81063,-2.4125 -6.6543,-2.75781 -14.70117,-2.75781 -6.02667,0 -9.63038,0.4312 -10.44922,1.25 -0.6875,0.6875 -2.06078,1.25 -3.05078,1.25 -2.93071,0 -2.35619,6.03952 0.96094,10.11132 10.07195,12.3634 29.56147,28.07128 47.86328,38.57618 6.88837,3.9538 13.07162,7.64431 13.74023,8.19921 0.66868,0.5549 6.33976,3.93352 12.60352,7.50782 7.78527,4.4426 11.72816,7.30397 12.46094,9.04687 1.66978,3.9715 13.69681,17.5586 15.54297,17.5586 2.5558,0 9.29001,3.5552 11.66406,6.1582 1.17429,1.2877 2.44269,3.4668 2.81836,4.8418 0.56557,2.0701 0.0544,1.7692 -2.96875,-1.75 -2.00807,-2.3375 -4.40147,-4.23675 -5.31836,-4.21875 -1.49926,0.0286 -1.50891,0.1545 -0.10352,1.25 3.48643,2.7179 6.9375,9.2161 6.9375,13.0625 0,3.0515 -0.83376,4.86847 -3.90625,8.51757 -6.93885,8.2413 -22.41178,14.09424 -33.34765,12.61524 -13.71324,-1.8546 -32.72559,-11.96305 -53.2461,-28.31055 -10.15386,-8.0889 -27.93985,-25.6939 -32.80468,-32.4707 -2.30759,-3.2145 -5.32032,-7.33806 -6.69532,-9.16406 -1.375,-1.8261 -3.00981,-4.15529 -3.63281,-5.17579 -1.76094,-2.8846 -2.53903,-1.12709 -3.47461,7.84961 -2.18344,20.9498 4.41931,70.70076 13.53711,102.00196 1.79444,6.1603 2.27909,9.3784 1.65625,11 -0.88006,2.2913 -0.87986,2.29251 -1.98242,-0.52149 -0.60664,-1.5483 -1.10352,-3.28111 -1.10352,-3.84961 0,-0.5686 -0.63336,-2.45244 -1.4082,-4.18554 -0.77485,-1.7332 -1.63348,-4.27539 -1.9082,-5.65039 -0.88212,-4.4151 -6.54087,-25.1347 -10.24024,-37.5 -10.17393,-34.0067 -12.46971,-50.4001 -10.01758,-71.5 1.45151,-12.4897 7.95968,-33.56227 14.69336,-47.57227 3.74823,-7.7985 14.42968,-23.61603 17.67774,-26.17773 1.44012,-1.1361 1.44042,-1.25 0.006,-1.25 -0.86821,0 -2.642,1.39365 -3.94141,3.09765 -1.29941,1.704 -3.31385,4.2915 -4.47851,5.75 -4.29221,5.3752 -11.03215,16.82215 -13.33789,22.65235 -1.30509,3.3 -3.42426,8.33334 -4.70899,11.18554 -1.28473,2.8523 -2.33594,5.87329 -2.33594,6.71289 0,0.8396 -0.91056,3.9591 -2.02343,6.9336 -3.59821,9.617 -5.06976,20.2672 -5.09766,36.9082 -0.0333,19.8932 0.93728,28.36067 5.70508,49.75977 0.79652,3.575 3.18864,14.375 5.31445,24 2.12582,9.625 4.99617,20.875 6.37891,25 6.01015,17.9296 6.88851,21.93189 6.21679,28.34179 -0.92074,8.7862 -0.98586,21.7745 -0.12109,24.3711 l 0.71289,2.13671 133.26563,0 c -1.77695,-0.78412 -2.117,-2.51457 -2.76953,-6.3496 -1.05512,-6.2007 -3.47036,-13.3447 -7.09961,-21 -4.58939,-9.6805 -4.69809,-10.93578 -0.98243,-11.2754 1.65,-0.15079 6.20879,-0.95641 10.13086,-1.79101 l 7.13086,-1.51758 4.54883,-6.70703 c 2.50172,-3.6896 8.18043,-12.03828 12.61914,-18.55078 4.43871,-6.5124 8.07031,-12.20576 8.07031,-12.65234 0,-0.4466 3.0193,-1.97952 6.71094,-3.40626 3.23446,-1.24999 4.96994,-1.85236 6.00391,-1.91796 0.14771,-0.009 0.28093,-0.008 0.40234,0.004 0.58276,0.0588 0.88984,0.36249 1.17774,0.87696 0.47919,0.8563 2.28582,3.16857 4.01562,5.13867 2.85672,3.2533 3.1205,4.11229 2.86133,9.34179 -0.21577,4.3538 0.49106,8.10512 2.9043,15.38282 l 3.19336,9.625 -5.38477,5.86132 c -2.96155,3.22402 -5.75197,5.91261 -6.20117,5.97461 -0.4492,0.0621 -2.29299,-1.01171 -4.09571,-2.38671 -3.97102,-3.0288 -4.58789,-3.09265 -4.58789,-0.46875 0,2.9098 2.69811,8.96875 3.99414,8.96875 0.60306,0 2.22071,-1.125 3.59571,-2.5 1.375,-1.375 2.69109,-2.5 2.92383,-2.5 0.8471,0 -0.90711,3.56465 -3.01563,6.12695 -2.07607,2.5229 -4.16617,7.76105 -8.02734,20.12305 -1.2106,3.87585 -1.87776,5.21255 -3.09961,5.5996 l 7.35351,0 c -1.07715,-0.51536 -0.51299,-2.84415 2.22461,-13.32617 2.47663,-9.4827 3.50492,-11.77442 7.54883,-16.82812 2.57464,-3.2175 4.85016,-5.67914 5.05859,-5.47071 0.20843,0.2084 -1.62638,4.37662 -4.07812,9.26172 -2.45174,4.8852 -4.72057,10.48587 -5.04102,12.44727 -0.32046,1.9613 -1.07191,5.92891 -1.66992,8.81641 -0.68258,3.29584 -1.26438,4.69142 -2.22265,5.0996 l 12.94531,0 0.35351,-8.0996 c 0.20649,-4.7542 0.90058,-8.8856 1.63868,-9.75 0.70444,-0.825 1.58967,-2.5125 1.96679,-3.75 0.45341,-1.48782 1.12935,-2.2537 1.82422,-2.2129 0.41693,0.0245 0.84129,0.3395 1.22656,0.9629 0.33992,0.55 1.82856,1 3.3086,1 2.43442,0 2.69508,0.3576 2.73828,3.75 0.0263,2.0625 0.38939,7.125 0.80664,11.25 0.94404,9.3329 -0.40334,7.73263 -3.45703,-4.10547 -1.19097,-4.617 -2.55508,-8.82321 -3.03125,-9.34571 -1.59485,-1.75 -0.85338,5.84207 1.1582,11.85547 1.08647,3.2478 1.97656,6.5103 1.97656,7.25 0,0.62615 -0.66906,1.00541 -2.16992,1.19531 l 10.28125,0 c -0.72156,-0.79376 -1.18471,-2.53974 -1.5332,-5.65234 -0.35085,-3.1337 -0.88153,-7.34091 -1.17969,-9.34961 l -0.54101,-3.65234 6.32031,-1.53516 c 8.6303,-2.0943 18.15904,-4.75277 19.08789,-5.32617 0.42147,-0.2602 0.53968,-0.84122 0.26172,-1.29102 -0.27795,-0.4497 -2.19906,-0.23388 -4.26758,0.47852 -5.89944,2.0315 -11.96551,2.93942 -10.71484,1.60352 0.57547,-0.6147 3.72547,-1.60663 7,-2.20313 3.27454,-0.5965 6.38179,-1.49841 6.90429,-2.00391 0.5225,-0.5055 1.90555,-0.91796 3.07422,-0.91796 2.71181,0 15.3743,4.29072 20.2461,6.86132 2.05155,1.0826 6.74578,3.384 10.43164,5.11328 3.71928,1.74511 6.96245,3.96529 7.2871,4.98829 0.69791,2.19872 0.82559,10.13425 0.34766,12.88671 l 12.6875,0 c -0.42051,-2.29531 -1.10829,-6.87605 -2.10742,-14.08007 -1.49906,-10.8086 -1.49992,-12.3012 -0.0117,-19 0.88828,-3.9985 1.87637,-11.92484 2.19531,-17.61524 l 0.58008,-10.3457 -3.17773,-3.95508 c -3.12846,-3.8929 -3.1545,-4.01441 -1.66992,-7.72461 0.90579,-2.2639 1.16886,-4.31823 0.6582,-5.14453 -0.48996,-0.7927 -0.4049,-2.21156 0.20312,-3.34766 0.62122,-1.1607 0.80241,-4.39859 0.43946,-7.87109 -0.48996,-4.6877 -0.21976,-6.7207 1.32031,-9.9082 1.46067,-3.0233 1.70543,-4.62215 0.99219,-6.49805 -1.92354,-5.0593 -1.1072,-13.51693 1.92382,-19.92383 l 2.86914,-6.06445 -1.21679,-9.43555 c -2.18864,-16.9589 -8.938,-29.20784 -22.82813,-41.43554 -7.67997,-6.7608 -13.04116,-13.82503 -19.24609,-25.35743 -1.66188,-3.0887 -3.89159,-5.74127 -5.26563,-6.26367 -4.54578,-1.7283 -8.41213,-8.8789 -4.80078,-8.8789 3.50998,0 11.5504,-11.4446 11.5918,-16.5 0.0317,-3.8745 -2.06415,-9.5 -3.53906,-9.5 -1.07287,0 -1.30149,-0.68208 -0.8418,-2.51368 0.34689,-1.3821 0.13014,-3.11541 -0.48242,-3.85351 -0.61256,-0.7381 -2.27712,-3.53048 -3.69922,-6.20508 -2.50073,-4.7033 -8.4471,-12.30969 -8.375,-10.71289 0.0195,0.4317 0.67882,1.91016 1.46484,3.28516 0.78602,1.375 1.44615,4.075 1.46875,6 0.0226,1.925 0.53717,5.28414 1.14258,7.46484 0.99397,3.5802 1.22712,3.792 2.40039,2.1875 1.12205,-1.5346 1.26764,-1.09602 1.07422,3.20898 -0.21027,4.68 -3.78551,12.11186 -5.83594,12.13086 -1.24215,0.0113 -0.81501,-1.35218 1.25,-3.99218 3.16305,-4.0437 2.28064,-5.90436 -0.95117,-2.00586 -1.59289,1.9215 -3.26461,3.12412 -3.71484,2.67382 -0.45024,-0.4502 -0.0341,-1.25686 0.92383,-1.79296 0.95792,-0.5361 1.74218,-1.42928 1.74218,-1.98438 0,-0.5551 -0.45,-0.73052 -1,-0.39062 -0.55,0.3399 -1,-0.28282 -1,-1.38282 0,-1.0999 -0.34061,-2.21009 -0.75586,-2.46679 -1.13386,-0.7007 -4.89328,2.66675 -5.65429,5.06445 -0.64455,2.0308 -3.58985,5.2104 -3.58985,3.875 0,-0.3606 1.125,-2.87634 2.5,-5.58984 1.375,-2.7134 2.5,-5.3985 2.5,-5.9668 0,-1.8778 -3.85386,-1.07175 -4.49218,0.93945 -0.3442,1.0845 -3.30877,4.797 -6.58789,8.25 -3.4189,3.6002 -6.43856,7.84899 -7.08008,9.96289 -0.61529,2.0274 -3.19452,5.9075 -5.73047,8.6211 -7.06323,7.5581 -11.117,12.91372 -12.26367,16.20312 -0.57313,1.6441 -1.67216,2.99024 -2.44336,2.99024 -0.77119,0 -1.40235,0.45 -1.40235,1 0,2.1639 -3.00101,0.84771 -3.61132,-1.58399 -1.10111,-4.3872 0.20759,-21.6365 1.95312,-25.75 l 1.62695,-3.83594 2.67188,2.10352 c 2.90623,2.286 4.13884,2.15917 11.16015,-1.14063 4.68201,-2.2004 4.8125,-2.5555 1.13868,-3.1289 -1.83763,-0.2867 -2.36265,-0.90779 -2.12696,-2.52149 0.2058,-1.409 -0.22192,-2.14257 -1.25,-2.14257 -3.2381,0 -1.3987,-1.76973 2.48438,-2.39063 4.79837,-0.7673 4.5186,-1.77315 -0.99805,-3.59375 -6.02959,-1.99 -11.12877,0.009 -18.3789,7.20117 -5.40739,5.3641 -7.71038,6.88071 -7.64258,5.03321 0.0151,-0.4125 1.57265,-1.875 3.46093,-3.25 3.92937,-2.8612 7.97708,-7.86677 7.08399,-8.75977 -0.33167,-0.3317 -2.16375,0.90997 -4.07227,2.75977 -3.83824,3.7202 -3.83183,3.7207 -5.17578,-0.4375 -1.56633,-4.8463 -2.96254,-3.99106 -4.33008,2.65234 -1.39954,6.7989 -2.45164,8.78516 -4.65429,8.78516 -1.06489,0 -1.29636,-0.9904 -0.9336,-4 0.49925,-4.1419 -0.75566,-5.25011 -3.18945,-2.81641 -0.65084,0.6508 -1.44747,0.91976 -1.76953,0.59766 -0.32207,-0.322 1.35702,-1.75023 3.73242,-3.17383 4.02188,-2.4103 4.13483,-2.58766 1.62891,-2.59766 -1.48004,-0.005 -2.96051,0.42533 -3.28906,0.95703 -0.32859,0.5317 -2.82973,2.08839 -5.5586,3.45899 -3.70027,1.8586 -4.96094,2.13811 -4.96094,1.10351 0,-0.763 0.70243,-2.09107 1.5625,-2.95117 0.86006,-0.86 1.30713,-1.98063 0.99219,-2.49023 -0.31495,-0.5096 -2.39241,0.72624 -4.61719,2.74414 -4.11879,3.7357 -16.9375,11.6127 -16.9375,10.4082 0,-0.3641 3.16719,-3.73142 7.03907,-7.48242 3.87189,-3.751 6.77482,-7.24779 6.45117,-7.77149 -1.43925,-2.3288 15.56402,-22.60531 24.50976,-29.22851 5.11908,-3.7901 13.52804,-6.6861 21.5,-7.4043 l 7,-0.63086 -3,3.11133 c -1.65,1.7111 -4.0325,3.12367 -5.29492,3.13867 -2.07856,0.0252 -2.23327,0.35785 -1.63867,3.52735 0.58443,3.1153 0.42084,3.5 -1.48633,3.5 -2.58122,0 -3.92984,2.82597 -1.97656,4.14257 1.16766,0.7906 1.15138,0.91525 -0.10352,0.78125 -3.74143,-0.3995 -4.54526,0.10483 -2.55859,1.60743 1.91612,1.4493 1.91473,1.4874 0.0117,2.8789 -1.84418,1.3485 -1.85044,1.49417 -0.16602,3.35547 0.96845,1.0701 1.48658,2.6583 1.15235,3.5293 -0.47047,1.226 0.25863,1.7125 3.22656,2.1582 4.14947,0.6232 14.45342,2.94663 18.08398,4.07813 1.75052,0.5455 2.25,0.30798 2.25,-1.07032 0,-1.653 0.12186,-1.65943 1.82813,-0.11523 2.83595,2.5665 4.27369,2.07267 3.68555,-1.26563 -0.45568,-2.5865 -0.17888,-2.99586 2.42773,-3.56836 1.68116,-0.3692 2.74974,-1.15387 2.49023,-1.83007 -0.24987,-0.6512 0.88838,-1.77866 2.53125,-2.50586 1.64287,-0.7273 2.88583,-1.85075 2.76172,-2.49805 -0.12411,-0.6473 0.33789,-1.06523 1.02539,-0.92773 2.76125,0.5523 0.99283,-4.72251 -3.55273,-10.59571 -8.5296,-11.0209 -15.08259,-15.10867 -24.26367,-15.13867 -5.25593,-0.0173 -15.95859,1.79688 -17.4336,2.95508 -0.55,0.4319 -2.125,1.1213 -3.5,1.5332 -5.2272,1.566 -15.78826,10.733 -24.76562,21.4961 -1.60561,1.925 -4.78957,7.42525 -7.07422,12.22265 -3.06212,6.4299 -4.92943,9.12275 -7.10547,10.24805 -3.51652,1.8184 -7.53832,6.95445 -8.44336,10.78125 -0.89021,3.7641 2.41747,9.98448 6.72461,12.64648 4.41446,2.7283 9.62929,2.7036 13.14844,-0.0644 l 2.7539,-2.16797 1.89649,2.41797 c 1.04245,1.3292 2.59552,3.83857 3.45117,5.57617 0.86792,1.7626 2.61378,3.42457 3.94922,3.75977 1.65879,0.4163 2.20913,1.08423 1.79102,2.17383 -0.48695,1.2688 0.0324,1.50658 2.6914,1.23828 3.25486,-0.3285 3.3071,-0.26543 4.41406,5.16797 1.56838,7.6983 2.0646,8.26169 6.59571,7.49609 3.22157,-0.5443 3.99551,-0.31951 4.93164,1.42969 0.61082,1.1413 1.93981,2.07422 2.95312,2.07422 1.0133,0 2.4032,0.675 3.08789,1.5 0.68469,0.825 2.08845,1.5 3.1211,1.5 1.03266,0 1.8789,0.59707 1.8789,1.32617 0,2.1446 4.42584,5.67667 7.06446,5.63867 1.33955,-0.0195 3.56054,-0.67884 4.93554,-1.46484 3.78774,-2.1652 4.61071,-1.78023 2.04102,0.95507 -1.90188,2.0244 -2.28325,3.46639 -2.17383,8.21289 0.073,3.1665 0.39401,6.57929 0.71289,7.58399 0.38565,1.215 -0.45848,2.88799 -2.51953,4.99609 -1.70424,1.7432 -4.94007,5.99763 -7.19141,9.45313 -3.49794,5.3688 -4.69631,6.43619 -8.23242,7.33789 -2.27591,0.5804 -5.26172,1.45938 -6.63672,1.95508 -6.26833,2.2598 -17.70795,3.23621 -24.60937,2.09961 -6.38823,-1.0521 -7.40229,-0.95552 -13.875,1.33398 -3.84072,1.3586 -7.14704,2.96255 -7.34766,3.56445 -0.39791,1.1937 2.56381,0.66537 9.20703,-1.64453 6.01992,-2.0931 9.04318,-1.69196 12.65039,1.67774 3.17643,2.9672 3.22976,3.1583 2.74024,10 -0.57434,8.0272 1.01593,9.48921 3.50781,3.22461 1.86565,-4.6902 1.71903,-7.40524 -0.52344,-9.64454 -2.7151,-2.7113 -2.11071,-3.54712 2.5,-3.45312 4.70415,0.0959 11.87675,-1.7116 22.18555,-5.5918 3.74154,-1.4083 7.1154,-2.56054 7.49805,-2.56054 1.27531,0 4.0664,7.02457 4.0664,10.23437 0,2.4563 -0.26954,2.8985 -1.19726,1.9707 -0.92772,-0.9277 -2.02919,-0.30117 -4.91992,2.79883 -2.04931,2.1977 -4.43187,3.9961 -5.29297,3.9961 -0.86111,0 -2.73374,1.85058 -4.16211,4.11328 l -2.59766,4.11523 -1.39844,-2.69726 c -1.20746,-2.3273 -1.19642,-3.08836 0.084,-5.56446 1.71227,-3.3111 1.9285,-5.96679 0.48437,-5.96679 -0.55,0 -1,0.60685 -1,1.34765 0,1.2678 -1.60518,3.50085 -5.85937,8.15235 -1.00605,1.1 -2.39903,3.07296 -3.09375,4.38476 -0.96742,1.8268 -1.45693,2.07142 -2.09375,1.04102 -0.6771,-1.0956 -1.18174,-1.02942 -2.7207,0.36328 -1.03939,0.9406 -2.40348,1.71094 -3.03125,1.71094 -0.62777,0 -2.16796,1.7999 -3.42188,4 -1.27125,2.2304 -2.8323,3.79265 -3.5293,3.53125 -0.6875,-0.2577 -1.25,0.0229 -1.25,0.62304 0,0.7645 -0.41113,0.74944 -1.37304,-0.0488 -1.08573,-0.9011 -1.61218,-0.56009 -2.52539,1.62891 -3.32161,7.9623 -24.33865,25.09062 -28.00586,22.82422 -0.60244,-0.3724 -1.09571,-0.19969 -1.09571,0.38281 0,0.5825 -0.675,1.0586 -1.5,1.0586 -0.825,0 -1.5,0.37473 -1.5,0.83203 0,1.0979 -7.70011,3.0631 -16.90625,4.3164 -6.64658,0.9048 -7.66633,0.81484 -9.9375,-0.88086 -3.52749,-2.6336 -4.12415,-4.74164 -1.02539,-3.62304 1.30257,0.4702 6.0326,0.75727 10.51172,0.63867 12.45437,-0.3299 22.77276,-5.74791 28.45703,-14.94531 2.1305,-3.4472 5.90039,-15.91969 5.90039,-19.52149 0,-0.9997 0.49858,-1.8164 1.10743,-1.8164 0.60883,0 0.85283,0.65939 0.54296,1.46679 -0.30982,0.8074 -0.13247,1.73485 0.39454,2.06055 1.15944,0.7166 2.95507,-3.67366 2.95507,-7.22656 0,-4.1938 -2.17565,-10.19725 -4.66992,-12.88868 -1.2819,-1.38319 -2.33008,-3.09187 -2.33008,-3.79687 0,-0.705 -0.58707,-1.28125 -1.30273,-1.28125 -0.71567,0 -3.91107,-1.23679 -7.10156,-2.74609 -5.47017,-2.5878 -5.77516,-2.91896 -5.34961,-5.81836 0.42363,-2.8864 -0.59342,-17.38453 -1.61524,-23.01953 -0.25397,-1.4006 -0.78369,-5.12745 -1.17773,-8.28125 -0.39403,-3.1538 -1.49362,-8.3007 -2.44336,-11.4375 -1.73338,-5.7249 -9.01176,-17.83654 -11.61719,-19.33204 -0.76627,-0.4398 -1.39258,-1.69586 -1.39258,-2.79296 0,-1.0972 -0.7198,-4.86069 -1.59961,-8.36329 -1.30836,-5.2086 -2.28234,-6.91745 -5.34765,-9.38086 -3.5522,-2.8546 -6.95163,-8.59717 -5.78125,-9.76757 0.29788,-0.2979 2.45147,0.84075 4.78515,2.53125 5.22787,3.787 7.83156,3.86024 12.11524,0.33984 4.22844,-3.4749 4.7937,-4.2855 4.8125,-6.9082 0.0103,-1.4402 0.82898,-2.34427 2.5,-2.76367 2.98046,-0.748 4.04695,-4.06631 2.5625,-7.97071 l -1.06445,-2.79687 4.25781,0.33593 c 4.07034,0.32201 4.3026,0.18965 5.24219,-3.00585 0.91638,-3.1165 1.21388,-3.30457 4.39062,-2.78907 6.31662,1.0251 7.12695,-0.21723 7.12695,-10.92773 l 0,-9.49024 3,-0.59961 c 1.93799,-0.38759 3,-1.20921 3,-2.32031 0,-0.946 0.9,-2.53379 2,-3.52929 1.22983,-1.113 2,-3.07943 2,-5.10743 0,-5.9971 1.71539,-8.07322 8.7168,-10.54492 7.3769,-2.6043 11.82071,-6.86708 12.84375,-12.32031 0.95653,-5.0987 -0.12259,-7.8185 -3.80859,-9.59766 -14.21759,-6.86256 -28.66878,-15.91716 -28.73438,-18.0039 l -5.99804,-4.3125 c -5.68494,-4.78647 -17.48587,-10.22035 -24.0625,-11.08008 -1.07751,-0.14086 -2.18043,-0.2161 -3.31055,-0.22461 z m 0.42578,2.20898 c 1.62475,0.024 3.21106,0.17225 4.73047,0.45313 8.83475,1.63319 23.21672,11.28784 23.20312,15.57617 -0.008,2.50243 6.88946,9.45313 9.38086,9.45313 0.99191,0 2.99909,0.83677 4.45899,1.85937 3.04255,2.1312 10.71627,4.70364 16.86133,5.65234 5.47248,0.84486 6.64601,3.67802 2.94335,7.11133 -3.10801,2.88191 -3.65039,2.94664 -3.65039,0.43555 0,-3.94126 -2.7376,-3.38943 -4.67187,0.94141 -1.05473,2.36154 -1.15563,2.38923 -1.80469,0.5 -1.91113,-5.56274 -2.63299,-6.62592 -4.28516,-6.3086 -1.06829,0.20518 -1.77573,1.30556 -1.83593,2.85352 -0.0539,1.38589 -0.41331,4.1937 -0.79688,6.23828 -0.38356,2.04454 -1.01282,3.70543 -1.40039,3.6914 -1.5123,-0.0534 -9.12506,-5.53714 -9.16406,-6.60156 -0.0714,-1.94689 -2.99237,-3.67899 -6.05859,-3.59179 -1.62139,0.0461 -3.20845,-0.33666 -3.52539,-0.84961 -0.31705,-0.51294 -2.01059,-0.99346 -3.76563,-1.06836 -2.44962,-0.10454 -2.65627,-0.23765 -0.88477,-0.57618 3.263,-0.62345 2.1543,-2.7254 -1.63476,-3.0996 -1.74515,-0.17235 -3.17188,-0.73485 -3.17188,-1.25 0,-0.51515 -0.7875,-0.96912 -1.75,-1.00782 -1.48296,-0.0596 -1.44481,-0.19148 0.25,-0.86132 1.60711,-0.63518 1.116,-0.94382 -2.5,-1.57618 -2.475,-0.43282 -3.9375,-0.98305 -3.25,-1.22265 1.69068,-0.58922 1.59098,-2.26953 -0.13476,-2.26953 -0.76174,0 -2.05054,-1.0125 -2.86328,-2.25 -2.19693,-3.34515 -9.0941,-5.03733 -16.07032,-3.94336 -3.15996,0.49559 -5.98327,0.51633 -6.27343,0.0469 -0.29014,-0.46945 -0.0493,-0.85351 0.5332,-0.85351 0.58246,0 1.05859,-0.50012 1.05859,-1.11133 0,-0.72845 -1.20576,-0.88548 -3.5,-0.45508 -2.71739,0.50979 -3.5,0.32715 -3.5,-0.82031 0,-0.81286 -0.9244,-1.77213 -2.05468,-2.13086 -3.00841,-0.95484 -2.00964,-2.52522 4.3164,-6.77735 6.02099,-4.04709 13.76996,-6.2914 20.81055,-6.1875 z m -7.81836,8.48243 c -6.38287,0 -7.32237,0.21326 -6.31445,1.42773 0.67439,0.81259 4.06271,1.72567 7.87109,2.12109 3.67846,0.38193 7.13945,1.02925 7.68945,1.43946 0.55,0.4102 3.90319,1.73808 7.45313,2.94922 3.54994,1.21115 6.99098,2.96648 7.64648,3.90234 0.6555,0.93586 3.26482,2.73738 5.79688,4.00195 2.53206,1.26457 4.60351,2.95829 4.60351,3.76367 0,0.80538 3.13381,4.59866 6.96485,8.42969 6.19998,6.19998 9.03515,8.19774 9.03515,6.36914 0,-0.72522 -3.94272,-6.39923 -5.71679,-8.22656 -0.7056,-0.72678 -1.28321,-1.81492 -1.28321,-2.41992 0,-1.98146 -9.39423,-10.1913 -14.25,-12.45313 -2.6125,-1.21691 -4.75,-2.89171 -4.75,-3.7207 0,-1.55145 -8.31065,-4.58398 -12.56054,-4.58398 -1.20783,0 -2.75477,-0.675 -3.43946,-1.5 -0.90407,-1.08934 -3.29937,-1.5 -8.74609,-1.5 z m 17.66211,21.12304 c 0.3474,0.0143 0.64635,0.1073 0.8125,0.27344 0.33229,0.33229 -0.25834,0.56879 -1.3125,0.52539 -1.16495,-0.048 -1.40125,-0.28625 -0.60352,-0.60547 0.36094,-0.14445 0.75612,-0.20766 1.10352,-0.19336 z m -19.81445,10.88282 c 1.7621,0.01 1.56715,1.05575 -1.11329,2.32812 -1.93079,0.91655 -4.63618,2.67874 -6.01171,3.91602 -1.37553,1.2374 -3.29298,2.87532 -4.26172,3.64062 -1.56896,1.2394 -1.69007,1.1848 -1.10938,-0.5 0.87269,-2.5321 7.34605,-8.31178 10.10157,-9.01953 1.00234,-0.25746 1.80716,-0.36842 2.39453,-0.36523 z m 135.90625,36.06054 c -0.4953,0.10659 -0.17096,1.13997 1.40234,3.00977 1.42389,1.6921 2.58984,4.07788 2.58984,5.30078 0,1.2228 0.53277,2.75535 1.1836,3.40625 3.31697,3.3169 1.7177,-5.51941 -1.65821,-9.16211 -1.7063,-1.84115 -3.02228,-2.66128 -3.51757,-2.55469 z m -21.7461,22.51758 c 0.22061,0.0152 0.46744,0.0561 0.73828,0.12695 1.1,0.2876 2,0.92035 2,1.40625 0,0.9533 -0.77982,1.01571 -2.75,0.22071 -1.7913,-0.72275 -1.5325,-1.86035 0.0117,-1.75391 z m 38.43946,0.7168 c 0.17842,0.0346 0.2872,0.16812 0.2832,0.39062 -0.008,0.445 -0.45122,1.4836 -0.98438,2.3086 -0.8354,1.2927 -0.97117,1.26589 -0.98437,-0.19141 -0.008,-0.93 0.43437,-1.96869 0.98437,-2.30859 0.275,-0.16995 0.52275,-0.23384 0.70118,-0.19922 z m -50.98829,9.74218 c 0.37884,-0.0268 0.70996,0.0459 0.91602,0.25196 0.29839,0.2984 -0.39587,1.0443 -1.54297,1.6582 -1.44619,0.7744 -2.08594,0.79036 -2.08594,0.0508 0,-0.90922 1.57639,-1.88053 2.71289,-1.96094 z M 481.73047,642.4668 c -0.39267,0.0763 -0.51563,0.66553 -0.51563,1.70117 0,5.7476 8.21098,16.77698 14.27539,19.17578 1.77369,0.7016 3.89961,1.80914 4.72461,2.46094 1.50336,1.1877 17.94701,7.70295 25.48438,10.09765 2.20882,0.7018 9.19062,3.09064 15.51562,5.30664 6.325,2.216 11.81137,4.03969 12.19141,4.05469 1.77921,0.0686 1.53091,-1.87914 -0.47266,-3.71484 -3.52618,-3.2308 -15.67512,-11.07033 -20.66015,-13.33203 -2.50752,-1.1377 -5.44482,-2.55238 -6.52735,-3.14258 -1.08253,-0.5902 -5.13253,-2.11126 -9,-3.38086 -18.41433,-6.0448 -24.68321,-9.16867 -30.12304,-15.00977 -2.83499,-3.04412 -4.23813,-4.34401 -4.89258,-4.21679 z m 230.23047,7.38281 c 0.62946,-0.002 0.43949,1.05379 -0.81836,3.25586 -2.02568,3.5463 -5.22123,9.84135 -7.20117,14.18555 -3.85796,8.4648 -7.90951,16.50176 -8.56055,16.98046 -1.34459,0.9886 -3.0068,5.77708 -3.69336,10.63868 -0.95313,6.7491 -2.57456,8.86948 -7.92383,10.36718 -2.531,0.7087 -4.84147,1.67579 -5.13476,2.15039 -0.65336,1.0571 -1.53632,1.07358 -3.13672,0.0566 -1.93923,-1.2321 9.31963,-15.76985 11.95117,-15.43165 1.78501,0.2293 1.96349,-0.1419 1.44922,-3 -0.32279,-1.794 -1.04382,-5.91585 -1.60352,-9.16015 l -1.01758,-5.89844 4.72071,-4.0957 c 5.79769,-5.0272 8.24247,-7.46628 15.01367,-14.98438 2.9832,-3.31222 5.14577,-5.0622 5.95508,-5.06445 z m 12.39844,12.53906 c 0.70262,0.067 0.80846,0.95442 0.38281,2.65039 -0.37933,1.5113 -0.76658,2.76797 -0.85938,2.79297 -0.0928,0.0247 -3.00433,2.45309 -6.4707,5.39649 -5.15266,4.3752 -6.2473,5.82683 -6,7.95703 0.40148,3.4583 2.76628,3.09379 13.79883,-2.12891 6.91393,-3.273 9.92291,-4.11802 16.0957,-4.51562 4.80241,-0.3093 8.39707,-0.06 9.7793,0.67968 2.97691,1.5932 1.76068,3.07032 -2.52735,3.07032 -4.22515,0 -13.83547,2.66241 -15.59375,4.32031 -3.59129,3.3862 -8.85842,6.67969 -10.68359,6.67969 -1.1367,0 -2.06641,0.51006 -2.06641,1.13476 0,1.891 8.81401,0.14042 15.83789,-3.14648 7.45064,-3.4865 14.6989,-3.96644 19.25782,-1.27344 1.59736,0.9436 2.90429,2.06142 2.90429,2.48242 0,0.8854 -3.79901,1.87555 -6,1.56445 -3.22475,-0.4556 -10.6481,1.56293 -13.5,3.66993 -1.65,1.219 -3.7875,2.50652 -4.75,2.86132 -1.51631,0.5588 -2.66864,5.70704 -1.27734,5.70704 0.5561,0 8.9113,-3.70075 12.55469,-5.56055 3.37413,-1.7222 14.97265,-3.02643 14.97265,-1.68359 0,1.57988 -3.68337,3.60784 -14.23632,7.83984 -9.82529,3.9403 -12.40465,6.4043 -6.70508,6.4043 1.7847,0 2.80198,-0.4166 2.4414,-1 -0.33992,-0.55 0.0877,-1 0.95118,-1 0.86345,0 3.5877,-0.94978 6.05468,-2.10938 2.46699,-1.1596 5.24432,-1.81694 6.17188,-1.46094 1.32498,0.5084 0.52221,1.48474 -3.7461,4.55274 -9.59364,6.8958 -16.92413,9.71702 -16.11718,6.20312 0.24265,-1.0567 -0.44923,-1.20941 -3,-0.66211 -5.078,1.0896 -5.66401,1.90645 -1.81446,2.52735 l 3.5,0.56445 -4,1.94336 c -2.2,1.068 -4.45,2.48388 -5,3.14648 -1.03352,1.245 -9.92683,5.29493 -11.62695,5.29493 -0.52851,0 -0.82958,-0.7875 -0.66797,-1.75 0.37983,-2.2621 -2.99,-1.88295 -9.20508,1.03515 -2.475,1.1621 -4.78406,2.26753 -5.13086,2.45703 -0.3468,0.1895 -0.92797,-1.36272 -1.29101,-3.44922 -1.17802,-6.7702 -4.00063,-13.66717 -6.98828,-17.07617 l -2,-2.28125 2.59961,-2.41211 c 2.01498,-1.8683 2.75785,-3.77405 3.30273,-8.46875 0.60765,-5.2355 1.27985,-6.70254 4.95117,-10.80664 2.3364,-2.6118 5.42388,-6.6197 6.85938,-8.9082 1.78518,-2.846 3.5502,-4.36931 5.58594,-4.81641 1.63699,-0.3595 4.98833,-2.42349 7.44726,-4.58789 3.01482,-2.65376 4.90517,-3.92406 5.8086,-3.83789 z m -230.22266,3.09571 c -0.59806,0.19938 0.91695,3.08556 3.36719,6.41406 15.4309,20.9614 43.14957,38.40335 69.71093,43.86718 11.04907,2.27292 21,1.37261 21,-1.90039 0,-0.6767 -3.9375,-2.69783 -8.75,-4.49023 -16.58877,-6.1786 -29.75825,-11.22388 -32.75,-12.54688 -1.65,-0.7296 -5.25,-2.30675 -8,-3.50585 -8.58281,-3.7425 -24.81798,-12.18413 -29,-15.07813 -2.2,-1.5225 -6.36114,-5.09761 -9.24609,-7.94531 -2.88495,-2.8478 -5.73397,-5.0138 -6.33203,-4.81445 z m -15.5586,4.84179 c -0.33323,0.0871 -0.3208,0.64978 0.0781,1.71485 1.10772,2.9572 6.60348,11.69773 9.4043,14.95703 1.46009,1.6991 3.32929,4.08122 4.15429,5.29492 2.71358,3.9921 8.33574,10.4178 13.45899,15.37891 7.75388,7.5085 28.95684,23.47931 31.29101,23.57031 0.6875,0.0268 1.25,0.49883 1.25,1.04883 0,0.55 0.43701,1 0.97071,1 0.53371,0 3.34621,1.08219 6.25,2.40429 6.81364,3.1024 12.38737,4.63516 22.27929,6.12696 11.64296,1.7558 13.43517,1.69579 20.55469,-0.69141 14.71658,-4.9343 19.94476,-11.43657 12.72656,-15.82617 -3.50186,-2.1296 -5.1544,-2.40015 -23.78125,-3.90235 -11.94975,-0.9636 -24.2402,-3.53269 -31.24023,-6.52929 -1.79367,-0.7679 -6.18477,-2.62962 -9.75977,-4.13672 -13.0018,-5.4813 -19.56543,-8.67396 -22.68359,-11.03516 -1.7508,-1.3257 -3.62604,-2.41015 -4.16602,-2.41015 -0.53997,0 -2.03218,-0.88395 -3.3164,-1.96485 -1.28422,-1.0809 -5.25899,-4.41957 -8.83399,-7.41797 -3.575,-2.9984 -8.91328,-8.18945 -11.86132,-11.53515 -3.63805,-4.12878 -6.04228,-6.2384 -6.7754,-6.04688 z m 47.30079,8.17774 c -0.13241,-0.006 -0.22032,0.009 -0.25977,0.0488 -0.9805,0.9805 5.28375,4.64866 20.17969,11.81446 8.20315,3.9462 19.86601,9.59037 25.91601,12.54297 12.03293,5.8727 14.5,6.45033 14.5,3.39453 0,-2.6896 -5.35497,-6.05218 -17.5,-10.98828 -5.5,-2.2353 -10.78128,-4.50543 -11.73632,-5.04493 -0.95504,-0.5396 -2.6648,-0.98046 -3.79883,-0.98046 -1.13403,0 -3.92443,-0.9 -6.20117,-2 -2.27673,-1.1 -4.69334,-2 -5.36914,-2 -0.67586,0 -1.37916,-0.34749 -1.5625,-0.77149 -0.44052,-1.01859 -12.18192,-5.92622 -14.16797,-6.01562 z m 188.8164,8.78711 c -1.10355,0 -6.48047,3.37906 -6.48047,4.07226 0,0.3524 -1.59667,2.7291 -3.54687,5.2832 -3.40845,4.4639 -3.60425,5.92239 -0.45313,3.36329 2.30379,-1.871 11.2423,-12.71875 10.48047,-12.71875 z m 8.5586,7.5664 c -0.0482,-0.001 -0.10611,0.006 -0.17188,0.0195 -1.97308,0.41253 -11.74362,7.46866 -11.82031,8.66407 -0.0265,0.4125 0.54135,0.75 1.26172,0.75 1.81661,0 11.90643,-8.7488 10.8457,-9.4043 -0.0285,-0.0177 -0.067,-0.0279 -0.11523,-0.0293 z m -12.41993,2.41211 c -0.74327,-0.14365 -2.51762,0.954 -4.80859,3.04688 -1.82145,1.6639 -4.77305,3.55467 -6.56055,4.20117 -1.7875,0.6466 -3.25,1.53511 -3.25,1.97461 0,1.3074 1.83422,0.92288 6.17383,-1.29102 3.81987,-1.9488 8.82617,-6.12613 8.82617,-7.36523 0,-0.33263 -0.1331,-0.51852 -0.38086,-0.56641 z m 10.56836,7.29492 c -2.00218,-0.0924 -8.90794,1.14537 -15.3457,2.80664 -6.1383,1.584 -10.95673,3.92415 -10.29297,4.99805 0.38221,0.6185 1.08398,0.66529 1.78906,0.11719 1.27038,-0.9877 13.61659,-4.19531 16.14844,-4.19531 2.25722,0 8.93054,-2.91517 8.24414,-3.60157 -0.0702,-0.0702 -0.25694,-0.11179 -0.54297,-0.125 z m 9.40039,0.54102 c -1.92972,0.0719 -5.53813,1.69245 -8.4082,4.08398 -2.57368,2.1445 -6.47969,4.89087 -8.67969,6.10157 -3.7382,2.0571 -3.80365,2.16461 -1,1.6621 3.19182,-0.57218 19.36968,-9.6478 19.45118,-10.9121 0.0439,-0.68079 -0.48614,-0.96823 -1.36329,-0.93555 z m -45.32226,2.28906 c 1.21053,-0.0727 1.77238,0.46092 2.86523,1.81055 1.02802,1.2696 1.86914,2.86337 1.86914,3.54297 0,0.6795 0.76153,2.76306 1.69336,4.63086 1.25151,2.5087 1.7088,6.11397 1.75,13.79687 l 0.0566,10.40039 -4.5,2.06445 c -2.475,1.1351 -4.8375,2.23226 -5.25,2.43946 -0.98168,0.4931 -0.95773,0.83004 -1.11523,-14.78906 -0.12227,-12.1257 -0.36381,-13.86947 -2.38477,-17.11914 -1.2375,-1.98992 -2.25,-3.88349 -2.25,-4.20899 0,-0.3255 1.85888,-1.14938 4.13086,-1.83008 1.44916,-0.43417 2.40845,-0.69468 3.13477,-0.73828 z M 619.78906,719.375 c -1.09855,-0.0445 -0.8804,1.25844 1.20703,3.42969 3.17694,3.3045 4.65018,6.20793 4.3086,8.48633 -0.27468,1.8322 -4.85021,10.9317 -6.53711,13 -0.67288,0.825 -1.82589,3.075 -2.5625,5 -0.73661,1.925 -2.149,4.67618 -3.13672,6.11328 -0.98772,1.4371 -1.50862,2.8996 -1.1582,3.25 1.05028,1.0503 1.29703,0.87722 8.01367,-5.61328 7.81752,-7.5543 10.29101,-12.0151 10.29101,-18.5625 0,-5.3542 -2.46382,-9.99508 -7.14648,-13.4629 -1.48629,-1.10068 -2.62016,-1.61392 -3.2793,-1.64062 z m 91.96094,0.44922 c -1.27339,-0.0126 -2.96954,0.11844 -4.34375,0.40234 -0.16996,0.0351 -0.0198,0.53307 0.33398,1.10547 0.64789,1.0483 4.25395,0.39978 5.81446,-1.04492 0.31787,-0.2945 -0.5313,-0.45029 -1.80469,-0.46289 z m 17.44727,4.43555 7.97265,4.94335 c 7.77802,4.82412 20.38795,14.36885 22.69922,17.18165 1.64581,2.003 2.04526,5.1282 0.71484,5.5957 -0.62186,0.2185 -1.41562,-0.73635 -1.76367,-2.12305 -1.18278,-4.7126 -15.33754,-13.42887 -17.12109,-10.54297 -0.35018,0.5666 -1.16452,0.94234 -1.81055,0.83594 -2.00438,-0.3304 -9.01497,1.18169 -12.42383,2.67969 -6.17528,2.7137 -3.93611,3.70616 7.5,3.32226 10.35452,-0.3476 10.78552,-0.27852 11.73633,1.88868 0.54292,1.2375 1.33042,2.25 1.75,2.25 0.41958,0 0.76367,0.45 0.76367,1 0,1.6012 -1.85776,1.16521 -5.02929,-1.17969 -1.62097,-1.1984 -3.24627,-1.87872 -3.61328,-1.51172 -1.10316,1.1031 4.55262,13.23426 7.44726,15.97266 1.48188,1.402 4.94531,3.19848 7.69531,3.99218 l 5,1.44336 -3.5,2.13867 c -1.925,1.1759 -4.00874,2.14063 -4.6289,2.14063 -0.62015,0.002 -1.65764,0.64368 -2.30664,1.42578 -0.97452,1.1742 -5.98556,2.65309 -10.56446,3.11719 -5.92595,0.6007 -11.5,1.81601 -11.5,2.50781 0,1.3214 6.91877,2.93727 12.58985,2.94727 2.80009,0.003 7.27887,-0.65209 9.95312,-1.45704 2.67425,-0.8048 4.9981,-1.328 5.16407,-1.1621 0.16591,0.1659 -1.88352,1.49151 -4.55469,2.94531 -2.67117,1.4538 -5.12807,2.37001 -5.46094,2.03711 -0.33287,-0.333 -1.35105,-0.3181 -2.26172,0.0312 -1.34321,0.5155 -1.42186,0.91574 -0.41992,2.12304 1.51744,1.8284 9.06305,1.99349 10.89258,0.23829 1.06534,-1.0221 1.18411,-0.51944 0.65234,2.75976 -0.52793,3.2556 -0.25808,4.4321 1.43555,6.25 1.14751,1.2318 2.63275,2.24781 3.29883,2.25781 0.66607,0.009 -0.25157,0.95286 -2.03907,2.09766 -1.7875,1.1447 -3.25,2.4801 -3.25,2.9668 0,0.7121 -9.0859,6.02288 -11,6.42968 -0.275,0.0585 -2.38558,0.4523 -4.68945,0.875 -7.06459,1.296 -3.19574,5.20819 4.68945,4.74219 6.39685,-0.3781 10.60528,-2.07187 14.82422,-5.9668 2.29678,-2.1204 4.17578,-3.24831 4.17578,-2.50781 0,0.7405 -0.39891,1.34571 -0.88476,1.34571 -0.48585,0 -1.17061,0.7875 -1.52344,1.75 -1.05428,2.876 -3.75314,7.6292 -5.41406,9.5371 -1.84475,2.11902 -2.27892,5.5294 -1.01563,7.9629 1.23209,2.3734 0.0766,2.12237 -4.66211,-1.01563 -2.2,-1.4569 -6.59689,-3.891 -9.76953,-5.4082 -3.17264,-1.5172 -6.01725,-3.56197 -6.32226,-4.54297 -0.30501,-0.9811 -1.05695,-2.6832 -1.66993,-3.7832 -1.50774,-2.7057 -2.31855,-19.5 -0.9414,-19.5 0.57357,0 1.33471,1.32892 1.6914,2.95312 1.32903,6.0509 7.82103,10.97858 12.74219,9.67188 2.43926,-0.6478 9.36977,-6.35877 8.62305,-7.10547 -0.24806,-0.2481 -2.06129,-0.65073 -4.02734,-0.89453 -1.96604,-0.2439 -4.86911,-1.08941 -6.45118,-1.87891 -1.58208,-0.7895 -5.052,-2.02404 -7.71093,-2.74414 -3.87931,-1.0506 -5.32394,-2.0867 -7.31836,-5.24609 -2.2234,-3.52211 -2.4155,-4.60173 -1.8125,-10.23243 0.6405,-5.981 0.50522,-6.5605 -2.72852,-11.6582 -4.03806,-6.3657 -6.16095,-11.29649 -5.5957,-12.99219 0.2251,-0.6753 1.36282,0.31432 2.52929,2.19922 3.19877,5.1686 7.30302,8.67837 12.1504,10.38867 5.40729,1.9078 10.14258,1.96816 12.61523,0.16016 1.73984,-1.2722 1.56459,-1.43333 -2.25195,-2.07813 -2.27558,-0.3845 -4.6674,-1.33909 -5.31641,-2.12109 -0.649,-0.7821 -1.72913,-1.42187 -2.39844,-1.42187 -0.66931,0 -2.79707,-1.6875 -4.72851,-3.75 -8.76901,-9.364 -19.02719,-18.38076 -20.33985,-17.87696 -0.7727,0.2965 -1.67102,0.10989 -1.99609,-0.41601 -0.89773,-1.4526 -2.47266,-1.14302 -2.47266,0.48633 0,2.13598 -4.04587,4.58323 -6.54101,3.95703 -1.35487,-0.34 -2.8576,0.14084 -3.99414,1.27734 -1.00228,1.0023 -2.01367,1.64513 -2.24805,1.42773 -1.01072,-0.9375 -4.2168,2.53276 -4.2168,4.56446 0,3.0177 -4.18156,7.32592 -7.11523,7.33594 -1.31193,0.003 -3.67985,0.68085 -5.26172,1.50585 -3.4036,1.7751 -9.62305,2.71443 -9.62305,1.45313 0,-0.4865 1.9125,-1.39152 4.25,-2.01172 2.3375,-0.6202 6.18911,-1.99544 8.56055,-3.05664 3.82822,-1.7132 4.27674,-2.26004 4,-4.86914 -0.17144,-1.6162 0.13945,-3.04879 0.68945,-3.18359 0.55,-0.1347 3.475,-1.63288 6.5,-3.33008 5.15442,-2.8919 5.51869,-3.34756 5.80469,-7.25196 0.44137,-6.0255 4.79892,-8.54302 16.19531,-9.35742 5.77648,-0.4127 9.85767,-1.30068 12.74024,-2.77148 z m -42.48633,10.39648 c -0.0682,-0.01 -0.13586,-0.009 -0.20313,0.004 -0.0769,0.0145 -0.15291,0.0443 -0.22656,0.0898 -1.17609,0.7269 -1.45499,4.8204 -0.40039,5.875 0.36666,0.3666 1.94166,0.66602 3.5,0.66602 2.19745,0 2.83398,-0.46496 2.83398,-2.06836 0,-1.5669 -0.45519,-1.92201 -1.87695,-1.47071 -1.35449,0.4299 -2.02973,0.004 -2.43164,-1.5332 -0.23526,-0.89968 -0.71792,-1.49568 -1.19531,-1.5625 z m -9.78711,73.98633 c 0.26384,0.0359 0.51371,0.2004 0.71094,0.51953 0.30695,0.4967 -0.1127,1.45897 -0.93165,2.13867 -1.21067,1.0047 -1.48828,0.94308 -1.48828,-0.32812 0,-1.40033 0.91745,-2.43782 1.70899,-2.33008 z m 2.42578,3.64844 c 1.83985,0 1.56434,3.61582 -0.59375,7.79492 -1.33628,2.5876 -2.72407,5.92416 -3.08398,7.41406 -0.59529,2.4638 -3.45704,6.03069 -3.45704,4.30859 0,-1.6408 6.53487,-19.51757 7.13477,-19.51757 z m -25.70117,0.47851 c -0.1356,-0.0373 -0.26546,0.002 -0.38282,0.12695 -1.50887,1.6114 -7.05078,12.64326 -7.05078,14.03516 0,0.7476 -0.38761,1.35938 -0.86132,1.35938 -0.4737,0 -3.22233,4.8375 -6.10743,10.75 l -4.92773,10.0996 6.48828,0 c -0.44018,-0.14328 -0.81084,-0.39469 -1.04492,-0.77343 -0.31413,-0.5083 2.35975,-6.86536 5.9414,-14.12696 3.58169,-7.2615 6.51172,-13.82097 6.51172,-14.57617 0,-0.94408 0.32702,-1.36962 0.7461,-1.35156 0.53881,0.0232 1.22931,0.77909 1.57617,2.10547 0.30596,1.17 -0.0625,3.0825 -0.81836,4.25 -0.7559,1.1675 -2.77396,6.35208 -4.48437,11.52148 -1.71042,5.1695 -3.55477,10.232 -4.09961,11.25 -0.469,0.87632 -1.41497,1.45562 -2.39844,1.70117 l 7.27539,0 c -1.60217,-0.56877 -0.41483,-3.26319 5.46875,-15.8496 l 3.97265,-8.5 -1.97265,-3.5 c -1.0856,-1.925 -2.29015,-4.80254 -2.67578,-6.39454 -0.29467,-1.21657 -0.74946,-2.01512 -1.15625,-2.12695 z m 29.70508,4.07813 c 0.48262,-0.0536 1.24327,0.38676 2.49218,1.36914 1.45067,1.1411 3.32747,2.07422 4.16992,2.07422 2.04625,0 0.99196,0.96143 -1.60156,1.46093 -1.13872,0.2193 -2.96883,0.88035 -4.06836,1.46875 -3.37025,1.8037 -4.18635,1.35842 -3.07617,-1.67968 0.55271,-1.5125 1.21547,-3.34562 1.47266,-4.07422 0.13285,-0.37635 0.32175,-0.58698 0.61133,-0.61914 z m 35.3164,4.85742 c -0.14145,0.009 -0.24025,0.0371 -0.29101,0.0879 -0.73406,0.7341 -0.34865,0.95441 7.83593,4.50781 4.125,1.791 8.34019,3.83783 9.36719,4.54883 1.6611,1.1499 1.46786,1.26116 -1.75,1.00586 -3.0073,-0.2386 -3.61719,0.0402 -3.61719,1.64648 0,1.7805 -0.12734,1.8043 -1.61914,0.3125 -1.46257,-1.4621 -1.7833,-1.46832 -3.32812,-0.0703 -0.94043,0.8511 -2.28948,1.54688 -2.9961,1.54688 -0.85865,0 -1.13804,0.9949 -0.84375,3 0.30046,2.0472 0.0187,3 -0.88671,3 -2.07372,0 -1.60107,0.92753 2.17382,4.26953 1.72363,1.52601 3.15641,3.02785 3.43946,3.58007 l 24.40039,0 c -0.32728,-0.23997 -0.84283,-0.75073 -1.33985,-1.3496 -1.01957,-1.2285 -0.95184,-1.5 0.37696,-1.5 0.89234,0 1.62304,0.675 1.62304,1.5 0,0.59875 -0.0918,1.10957 -0.2207,1.3496 l 3.1875,0 c -0.54554,-1.20439 -0.94275,-3.21069 -0.95117,-5.49414 -0.0202,-5.4676 -3.3144,-8.97055 -13.05664,-13.88086 -7.52774,-3.79424 -19.3822,-8.19446 -21.50391,-8.06054 z m -22.33789,3.58594 c 1.1,0 1.72273,0.45 1.38281,1 -0.33992,0.55 -1.51914,1 -2.61914,1 -1.1,0 -1.72078,-0.45 -1.38086,-1 0.33992,-0.55 1.51719,-1 2.61719,-1 z m 24.88281,1 c -0.55,0 -1,0.43605 -1,0.96875 0,0.5328 -0.675,0.70907 -1.5,0.39257 -1.47668,-0.5667 -2.0798,0.72491 -0.89257,1.91211 0.71019,0.7102 4.39257,-1.39687 4.39257,-2.51367 0,-0.4177 -0.45,-0.75976 -1,-0.75976 z m 0,5 c -0.55,0 -1,0.45 -1,1 0,0.55 0.45,1 1,1 0.55,0 1,-0.45 1,-1 0,-0.55 -0.45,-1 -1,-1 z m -49.10351,3.11132 c 0.11003,0.0643 -0.0586,0.67443 -0.40625,1.88868 -0.87376,3.0516 -2.50409,5.00681 -2.45899,2.94921 0.0175,-0.7975 0.73913,-2.34921 1.60352,-3.44921 0.76335,-0.9714 1.15169,-1.45296 1.26172,-1.38868 z m 33.59961,3.20704 c -0.15253,0.013 -0.29913,0.0595 -0.4336,0.14257 -0.87926,0.5434 -0.87554,1.05796 0.0117,2.12696 1.25453,1.5117 2.93536,1.89461 2.91016,0.66211 -0.0308,-1.50973 -1.42061,-3.02257 -2.48828,-2.93164 z m 4.44531,2.68164 c -0.58246,0 -0.78133,0.45 -0.44141,1 0.33992,0.55 0.81606,1 1.0586,1 0.24254,0 0.4414,-0.45 0.4414,-1 0,-0.55 -0.47613,-1 -1.05859,-1 z m -3.33008,2.34375 c -0.35859,-0.0603 -0.61133,0.16078 -0.61133,0.59765 0,0.5825 0.45,1.0586 1,1.0586 0.55,0 1,-0.19881 1,-0.44141 0,-0.2425 -0.45,-0.71869 -1,-1.05859 -0.1375,-0.085 -0.26914,-0.13616 -0.38867,-0.15625 z m 4.44727,1.65625 c -0.58246,0 -1.0586,0.45 -1.0586,1 0,0.55 0.19887,1 0.44141,1 0.24254,0 0.71867,-0.45 1.05859,-1 0.33992,-0.55 0.14106,-1 -0.4414,-1 z m -43.0586,1 c 0.55,0 1,0.6489 1,1.4414 0,0.7925 -0.45,1.7187 -1,2.0586 -0.55,0.3399 -1,-0.30891 -1,-1.44141 0,-1.1324 0.45,-2.05859 1,-2.05859 z m 33.65039,1.39843 c -0.10615,-0.0145 -0.21505,-0.0145 -0.32226,0.002 -0.14295,0.0219 -0.28382,0.0718 -0.41406,0.15234 -0.52097,0.322 -0.68331,1.0123 -0.36133,1.5332 0.32197,0.521 1.01028,0.68333 1.53125,0.36133 0.52097,-0.3219 0.68526,-1.0122 0.36328,-1.5332 -0.18111,-0.29306 -0.47841,-0.47197 -0.79688,-0.51563 z m -3.61914,0.60157 c -0.53273,0 -0.70915,0.675 -0.39257,1.5 0.05,0.13023 0.0703,0.23857 0.0957,0.3496 l 1.32226,0 c -0.0349,-0.0982 -0.0566,-0.20156 -0.0566,-0.3164 0,-0.8433 -0.43601,-1.5332 -0.96875,-1.5332 z"
       id="path11615"
       inkscape:connector-curvature="0"
       sodipodi:nodetypes="cccsccsssscscscssscssscssccscsssccssssscsssscsssscscsssssccccsccccsscccscsccccsssssssccsscscscccssccscsssssccsccccccsssscccccssccccccscccccssssssssscssscscsscsssscsscssssssssscccscssscscscsssssscscccsccsssssccccsscscsccccscscccscscccsscsscccccccsscsssscsssccscssccccssssssscssccccssscsssccscccsssscscsssccscssssssscssccsccccccscsccssssssccsscscssssssssssccscscsscsssssccsssssscsscssssssssssssssscccscccccscscccssccscccsscscsccsssssscscscsssccssccccccssccsccssccsscsssscsscscscssscsscscsccccsscsscccssscsccsssssscccccsssssscscsscccsssscccscsscsssccssssssccscscccsssccsccsscsscccscssccccssssscsssssscsscsscccsccccsscsscsscscccccccscccsccccscccsccssssssscscssccccsssssscssccssccsccsscssscscsscccccccsscccsccscsccssccsscsccsscscsscccccccsssccsssccscssccssssccsssccsscsssssssccssssssscccsccscccscssscsssccsssssscssscccccscscccscccccsccscccsss" />
  </g>
</svg>
