<?xml version="1.0" encoding="UTF-8" standalone="no"?>
<svg
   xmlns:dc="http://purl.org/dc/elements/1.1/"
   xmlns:cc="http://creativecommons.org/ns#"
   xmlns:rdf="http://www.w3.org/1999/02/22-rdf-syntax-ns#"
   xmlns:svg="http://www.w3.org/2000/svg"
   xmlns="http://www.w3.org/2000/svg"
   xmlns:sodipodi="http://sodipodi.sourceforge.net/DTD/sodipodi-0.dtd"
   xmlns:inkscape="http://www.inkscape.org/namespaces/inkscape"
   viewBox="0 0 165 220"
   version="1.1"
   id="svg889"
   sodipodi:docname="goal-progress.svg"
   width="165"
   height="220"
   inkscape:version="0.92.4 (5da689c313, 2019-01-14)">
  <defs
     id="defs893" />
  <sodipodi:namedview
     pagecolor="#ffffff"
     bordercolor="#666666"
     borderopacity="1"
     objecttolerance="10"
     gridtolerance="10"
     guidetolerance="10"
     inkscape:pageopacity="0"
     inkscape:pageshadow="2"
     inkscape:window-width="1920"
     inkscape:window-height="1133"
     id="namedview891"
     showgrid="false"
     inkscape:zoom="2.1958525"
     inkscape:cx="163"
     inkscape:cy="206.09993"
     inkscape:window-x="0"
     inkscape:window-y="0"
     inkscape:window-maximized="1"
     inkscape:current-layer="svg889" />
  <title
     id="title874" />
  <g
     id="imagebot_2"
     transform="translate(0,-214)">
    <title
       id="title876">imagebot_2</title>
    <g
       id="imagebot_11"
       transform="matrix(0.50342,0,0,0.50342,-1.2415,216.74)">
      <path
         id="imagebot_9"
         d="m 456.73,463.77 c 1.06,-11.75 0.87,-44.67 -0.3,-52.25 -0.6,-3.85 -1.09,-13.08 -1.1,-20.5 -0.02,-23.57 2.86,-41.77 8.19,-51.73 1.7,-3.17 5.48,-11.53 8.41,-18.57 2.92,-7.05 6.23,-14.09 7.35,-15.66 2.63,-3.7 2.56,-4.84 -0.43,-6.2 -2.83,-1.29 -4.31,-0.54 -11.97,6.09 -2.58,2.24 -5.33,4.07 -6.11,4.07 -3.29,0 -6.19,-7.47 -10.98,-28.26 -3.86,-16.77 -5.83,-21.74 -8.6,-21.74 -1.74,0 -1.88,0.91 -1.88,12 0,12.22 -1.08,15.27 -2.9,8.25 -0.54,-2.06 -1.64,-6.33 -2.44,-9.49 -1.57,-6.13 -4.46,-11.86 -6.31,-12.48 -0.62,-0.2 -1.91,0.42 -2.87,1.38 -1.46,1.46 -1.65,2.89 -1.14,8.79 0.33,3.88 0.9,8.57 1.28,10.43 1.04,5.19 -1,3.54 -4.82,-3.88 -2.72,-5.28 -3.86,-6.56 -6.04,-6.81 -4.65,-0.54 -4.48,3.01 0.86,18.67 2.64,7.72 4.46,14.39 4.04,14.81 -0.42,0.42 -3.27,-1.81 -6.34,-4.96 -5.44,-5.57 -7.58,-6.72 -8.81,-4.74 -0.74,1.2 0.88,4.36 9.71,19.03 3.81,6.32 8.8,15.29 11.1,19.92 3.67,7.41 4.22,9.39 4.51,16.5 0.4,9.64 -1.96,28.12 -9.4,73.58 -3.02,18.42 -5.78,36.83 -6.12,40.9 -0.89,10.36 -1.48,10.1 22.76,10.1 h 19.69 z m 62.58,5.25 c 1.88,-3.02 4.03,-14.22 9.01,-47 3.66,-24.1 9.93,-46.71 17.14,-61.82 3.59,-7.52 4.61,-8.77 10.61,-13 3.65,-2.58 9.3,-7.16 12.54,-10.18 l 5.91,-5.5 4.72,5.14 c 12.24,13.3 11.3,18.76 -9.81,56.68 -16.4,29.48 -22.44,42.7 -27.07,59.28 -3.52,12.6 -3.64,14.09 -1.4,16.57 1.48,1.64 3.46,1.83 18.78,1.83 13.57,0 17.56,-0.31 19.25,-1.5 3.56,-2.49 13.17,-29.83 23.88,-67.94 8.98,-31.97 14.09,-46.75 17.55,-50.75 l 2.87,-3.31 2,2.35 c 6.06,7.12 7.72,27.88 5.93,74.15 -0.74,18.97 -1.36,37.2 -1.38,40.5 l -0.03,6 48.5,0.26 c 26.67,0.14 49.03,0.06 49.67,-0.19 0.8,-0.31 -0.26,-3.73 -3.21,-10.43 -2.41,-5.48 -5.57,-14.17 -7.01,-19.3 -1.44,-5.14 -5.12,-15.19 -8.18,-22.34 -6.5,-15.22 -15.66,-40.05 -17.79,-48.21 -2.03,-7.8 -1.86,-19.82 0.54,-39.35 2.44,-19.82 4.39,-27.31 10.51,-40.44 2.57,-5.5 6,-13.6 7.62,-18 1.63,-4.4 4.3,-10.38 5.94,-13.29 1.63,-2.91 2.7,-5.73 2.38,-6.25 -0.33,-0.53 -2.14,-0.96 -4.03,-0.96 -4.37,0 -4.43,-1.34 -0.48,-10.91 4.93,-11.97 5.64,-20.16 1.92,-22.15 -2.93,-1.57 -6.7,3.01 -11.91,14.5 -2.38,5.26 -4.72,9.56 -5.18,9.56 -0.47,0 -0.55,-7.2 -0.17,-16 l 0.68,-16 h -3.08 c -5.69,0 -7.38,4.05 -10.27,24.59 -2.14,15.19 -3.72,14.15 -6.01,-3.95 -1.75,-13.85 -3.33,-18.9 -6.08,-19.43 -2.6,-0.5 -3.19,2.4 -3.79,18.55 -0.32,8.39 -0.98,15.36 -1.47,15.5 -0.49,0.13 -2.59,-3.98 -4.66,-9.15 -4.27,-10.63 -5.61,-12.1 -8.21,-8.97 -2.02,2.42 -1.79,5.92 1.38,21.72 1.17,5.79 1.89,13.61 1.89,20.5 0,6.13 0.48,15.19 1.04,20.14 1.78,15.48 1.46,22.13 -1.55,32.77 -1.52,5.34 -3.34,10.5 -4.03,11.45 -1.11,1.52 -1.34,1.18 -1.83,-2.74 -0.3,-2.46 -0.82,-12.36 -1.16,-21.98 -1,-29.05 -4.21,-47.72 -8.61,-50.07 -3.92,-2.1 -6.05,-0.77 -8.13,5.07 -1.6,4.5 -1.98,8.42 -2.09,21.59 -0.18,19.74 -1.32,21.95 -8.52,16.51 l -2.37,-1.79 2.06,-8.74 c 2.34,-9.93 2.07,-11.81 -1.65,-11.37 -2.08,0.24 -2.91,1.23 -4.29,5.08 -2.26,6.36 -7.36,16.05 -8.66,16.48 -1.39,0.46 -1.89,-1.38 -3.7,-13.76 -1.81,-12.36 -3.08,-16 -5.57,-16 -2.46,0 -3.06,2.43 -3.87,15.63 -0.38,6.23 -1.06,11.67 -1.5,12.09 -0.44,0.43 -1.77,-0.54 -2.94,-2.15 -11.3,-15.52 -14.3,-19.07 -16.13,-19.07 -3.41,0 -2.22,5.24 4.33,19.13 7.81,16.59 8.04,17.58 4.81,20.82 -3.26,3.26 -3.99,3.21 -6.82,-0.5 -1.28,-1.67 -3.5,-4.46 -4.94,-6.19 l -2.62,-3.15 -2.5,2.69 c -1.37,1.49 -2.76,2.7 -3.08,2.7 -0.32,0 -0.32,-3.72 0,-8.27 0.49,-6.91 0.31,-8.49 -1.05,-9.62 -2.53,-2.1 -4.09,-0.1 -8.19,10.47 -3.76,9.71 -6.21,12.44 -5.08,5.67 2.55,-15.36 2.99,-20.3 1.89,-21.4 -2.26,-2.26 -5.82,1.63 -9.23,10.09 -3.17,7.88 -4.52,9.9 -5.76,8.65 -0.34,-0.33 0.13,-4.03 1.04,-8.21 1.17,-5.38 1.35,-8.15 0.64,-9.49 -2.37,-4.42 -6.46,-0.93 -10.56,8.98 -5,12.13 -6.6,11.98 -8.27,-0.77 -1.26,-9.54 -2.56,-12.08 -4.95,-9.69 -1.23,1.23 -1.65,6.38 -2.25,27.8 -0.67,23.67 -1,27.19 -3.26,35.29 -2.86,10.28 -12.28,36.69 -22.46,63 -7.16,18.51 -11.96,33.1 -14.63,44.5 -2.21,9.44 -2.8,9.22 23.73,8.82 18.03,-0.26 21.94,-0.58 22.72,-1.82 z"
         transform="translate(-405.58,-39.057)"
         inkscape:connector-curvature="0"
         style="fill:#000000" />
      <g
         id="imagebot_3"
         transform="translate(-242.67998,222.18968)">
        <g
           id="imagebot_4"
           transform="rotate(180,405.55,-156.58)"
           style="fill:#000000">
          <path
             id="imagebot_8"
             d="m 335.17,-129.28 -12.57,-4.72 -6.46,11.76 0.6,-13.4 -13.19,-2.52 12.95,-3.57 -1.69,-13.32 7.4,11.21 12.14,-5.72 -8.37,10.5 z"
             inkscape:connector-curvature="0" />
          <path
             id="imagebot_7"
             d="m 409.39,-90.975 -6.88,-21.335 -22.1,3.76 18.16,-13.13 -10.4,-19.86 18.1,13.22 15.67,-16.03 -6.97,21.3 20.08,9.95 -22.41,-0.05 z"
             inkscape:connector-curvature="0" />
          <path
             id="imagebot_6"
             d="m 430.93,-225.04 -9.48,0.3 -1.07,9.43 -3.21,-8.93 -9.3,1.9 7.5,-5.82 -4.69,-8.25 7.86,5.34 6.4,-7.01 -2.65,9.11 z"
             inkscape:connector-curvature="0" />
          <path
             id="imagebot_5"
             d="m 507.54,-237.01 -14.38,-4.3 -6.3,13.62 -0.36,-15.01 -14.9,-1.79 14.16,-4.97 -2.9,-14.73 9.1,11.93 13.11,-7.31 -8.53,12.35 z"
             inkscape:connector-curvature="0" />
        </g>
      </g>
    </g>
  </g>
  <metadata
     id="metadata887">
    <rdf:RDF>
      <cc:Work>
        <dc:format>image/svg+xml</dc:format>
        <dc:type
           rdf:resource="http://purl.org/dc/dcmitype/StillImage" />
        <cc:license
           rdf:resource="http://creativecommons.org/publicdomain/zero/1.0/" />
        <dc:publisher>
          <cc:Agent
             rdf:about="http://openclipart.org/">
            <dc:title>Openclipart</dc:title>
          </cc:Agent>
        </dc:publisher>
        <dc:title>Small Reach for Stars</dc:title>
        <dc:date>2012-08-06T09:47:49</dc:date>
        <dc:description />
        <dc:source>https://openclipart.org/detail/171509/small-reach-for-stars-by-sunshineinpa-171509</dc:source>
        <dc:creator>
          <cc:Agent>
            <dc:title>sunshineinpa</dc:title>
          </cc:Agent>
        </dc:creator>
        <dc:subject>
          <rdf:Bag>
            <rdf:li>goal</rdf:li>
            <rdf:li>goal achievement</rdf:li>
            <rdf:li>hands</rdf:li>
            <rdf:li>stars</rdf:li>
          </rdf:Bag>
        </dc:subject>
      </cc:Work>
      <cc:License
         rdf:about="http://creativecommons.org/publicdomain/zero/1.0/">
        <cc:permits
           rdf:resource="http://creativecommons.org/ns#Reproduction" />
        <cc:permits
           rdf:resource="http://creativecommons.org/ns#Distribution" />
        <cc:permits
           rdf:resource="http://creativecommons.org/ns#DerivativeWorks" />
      </cc:License>
    </rdf:RDF>
  </metadata>
</svg>
