<?xml version="1.0" encoding="utf-8"?>

<!DOCTYPE svg PUBLIC "-//W3C//DTD SVG 1.1//EN" "http://www.w3.org/Graphics/SVG/1.1/DTD/svg11.dtd">
<svg version="1.1" id="Layer_1" xmlns="http://www.w3.org/2000/svg" xmlns:xlink="http://www.w3.org/1999/xlink" x="0px" y="0px"
	 viewBox="104.5815 124.5173 1616.4186 1768.4636" enable-background="new 104.5815 124.5173 1616.4186 1768.4636"
	 xml:space="preserve">
<g>
	<path d="M1585.9399,231.96c13.4901-20.79,26-42.19,39.88-62.73c10.87,12.69,18.3501,28.01,23.02,43.99
		c5.55,18.44,7.5801,37.68,9.3201,56.78c6.0699-5.98,11.48-12.58,17.46-18.64c0.6801,13.98,5.4401,27.61,4.35,41.71
		c-1.0399,17.61-4.76,34.94-9.0499,52.01c-4.9801,19.28-10.9301,38.29-17.4,57.12c7.54-4.81,14.13-11.1,18.84-18.74
		c2.39,20.58,0.46,41.55-4.21,61.69c-4.3,17.63-11.62,34.61-22.38,49.27c11.47-3.14,21.77-11.25,26.5599-22.25
		c-5.2,45.98-21.22,91.63-50.9299,127.61c13.85-7.22,24.98-18.5,35.4399-29.89c0.14,13.68-0.0599,27.45-2.49,40.96
		c-6.7999,40.64-25.74,78.14-48.49,112.08c12.14-6.44,21.87-16.47,30.98-26.58c-2.23,20.66-9.59,40.39-18.5599,58.9901
		c-16.5901,33.85-39.3,64.24-63.4601,93.0099c17.5801-6.53,32.1801-19.36,43.17-34.34c-9.42,39.34-27.36,77.13-55.01,106.95
		c-11.45,12.56-24.34,23.75-38.03,33.83c11.42-0.5099,22.8201-1.44,34.2301-2.1c-20.0801,32.79-48.03,60.39-80.2101,81.31
		c-10.27,6.6801-20.8099,12.99-31.78,18.45c12.9501-0.8199,25.8601-2.24,38.8101-3.1499c-14.47,19.6-35.9301,32.21-56.54,44.37
		c-18.1599,33.9099-37.7,67.2-60.49,98.24c-24.2899,33.2-52.02,64.09-83.87,90.21c-3.24,2.79-6.9299,5.1-9.91,8.15
		c-1.61,9.8099-2.62,19.75-4.36,29.5699c-1.63,9.8301-4.1799,19.4701-6.76,29.0901c7.5901,3.6599,13.91,10.13,16.5601,18.22
		c3.52,10.8099,3.87,22.47,2.66,33.7c-3.23,19.11-12.7101,36.4301-22.88,52.6801c-19.75,31.4-45.66,58.1799-68.23,87.47
		c-24.0701,31.21-45.77,64.3199-63.77,99.41c-19.3401,37.51-34.03,77.48-42.91,118.76c-5.64,26.0199-8.9,52.5399-10.14,79.13
		c-17.3099,6.72-35.89,9.58-54.39,9.87c-21.12,0.76-42.25-2.9301-62.15-9.92c2.17-19.52,6.26-39.9301,18.61-55.77
		c8.2-10.7999,20.6-17.6799,33.63-20.85c12.43-41.83,20.61-84.79,33.44-126.51c11.34-37.45,24.9301-74.46,44-108.73
		c6.33-11.04,13.1-21.87,20.95-31.9c1.64-2.2,3.8-4.22,4.3101-7.03c4.04-19.22,0.84-40.2799-10.65-56.45
		c-7.85,0.96-14.17,6.1799-18.9399,12.16c-9.8501-14.4601-19.64-29.8401-22.64-47.38c-2.2001-11.5801,2.34-22.89,6.08-33.63
		c-10.33,0.51-17.91,8.4299-24.49,15.5299c-2.85-9.7599-5.58-19.99-3.86-30.22c2.06-12.61,5.26-25.01,8.29-37.4099
		c-7.8201,1.9199-16.9,4.84-19.9301,13.2c-0.09-8.98,0.03-18.04,2.04-26.84c1.9301-9.3301,4.78-18.4301,7.94-27.41
		c-10.5-0.1-17.91,8.99-22.06,17.66c-0.61-5.6001-2.55-11.04-2.31-16.7201c0.23-21.34,7.15-42.0599,16.87-60.87
		c2.6801-5.5699,6.11-10.75,8.82-16.2799c7.59-22.9501,13.59-46.63,15.17-70.8201c0.9301-15.91-1.0699-32.73-9.83-46.41
		c-5.76-9.24-15.07-16.85-26.14-18.1899c-17.77-1.71-35.59,4.4-49.99,14.61c-16.93,11.99-30,28.58-40.96,46.01
		c-20.9,33.89-34.83,71.5-46.62,109.36c-23.49,78.74-36.04,160.27-45.09,241.79c-1.47,10.5399-1.15,21.22-1.68,31.83
		c-3.04,105.11-8.95,210.12-16.94,314.96c-0.39,7.67-1.21,15.3301-1.15,23.02c0.55-0.14,1.66-0.4299,2.21-0.58
		c-0.08,1.16-0.15,2.33-0.23,3.53c-0.78-0.91-1.51-1.86-2.21-2.77c-23.36,8.47-48.68,10.67-73.31,8.12
		c-13.54-1.37-26.94-4.27-39.71-9c-0.4-18.04,2.06-36.75,11.25-52.59c8.81-15.41,23.15-26.91,38.71-35.04
		c2.09-54.3199,5.99-108.6901,3.69-163.0699c-1.34-24.1001-2.23-48.3501-6.77-72.1101c-7.98-41.8199-22.86-81.96-39.62-120.98
		c-8.89-20.9199-19.39-41.12-28.26-62.0499c-7.75-16.8-15.19-33.75-21.89-50.99c-23.28-59.1001-39.49-120.8201-50.3-183.3601
		c-18.35,11.26-38.89,19.26-60.29,22.14c-26.56,3.4301-53.89-1.0699-78.43-11.59c-24.1-10.26-45.56-25.9-64.46-43.89
		c-44.48-0.01-89.02,2.37-133.06,8.8301c31.96-16.77,65.47-31.4501,101-38.64c-33.89-6.4601-68.6-7.61-103.01-6.2201
		c-20.13,0.8101-40.13,3.3601-60.08,5.9801c34.78-16.42,71.75-27.3301,108.4-38.6801c-29.89-5.34-60.14-8.54-90.45-10.19
		c-21.12-1.13-42.28-0.88-63.42-1.06c44.82-13.99,91.44-23.24,138.54-23.22c-4.7-19.53-7.65-39.48-8.49-59.55
		c-1.09-23.85,0.82-48.17,8.77-70.82c8.47-24.33,24.36-45.41,43.14-62.77c-6.73-17.25-12.91-34.72-18.4-52.4
		c-4.78-15.87-8.31-32.3-8.27-48.94c0.98-34.25,12.56-67.14,26.44-98.11c30.93,10.89,59.05,31.01,77.66,58.23
		c11.83,17.15,19.71,36.75,24.63,56.93c20.23-10.49,42.24-17.5,64.76-20.93c25.36-3.71,51.16-4.38,76.69-2.26
		c27.31,2.31,55.13,9.57,77.14,26.57c27.9-25.97,60.92-46.62,96.96-59.21c18.55-6.65,37.82-11.09,57.29-14.05
		c-0.86,37.71-8.89,75.77-27.23,108.98c-10.33,19.18-23.53,36.67-38.03,52.88c10.32-3.09,18.89-10.12,26.65-17.34
		c18.05-17.44,32.31-38.27,46.01-59.17c13.2599-19.84,27.02-39.41,42.53-57.57c-3.59,14.76-4.73,30.01-4.39,45.17
		c11.84-21.56,24.67-42.77,40.94-61.33c15.39-17.94,34.7-32.83,56.8-41.4901c10.98-4.46,22.5699-7.24,34.28-8.97
		c-2.85,2.99-5.61,6.14-7.5,9.84c-2.89,5.47-3.5,11.8-3.63,17.89c29.19-26.99,64.92-47.76,104.15-55.65
		c8.85-1.76,17.85-2.83,26.88-3.1c-10.4,6.31-19.5,15.26-24.47,26.5c23.23-7.77,47.35-13.06,71.8199-14.63
		c12.3101-0.94,24.6801-0.94,37.02-0.8c-6.78,6.64-13.35,13.71-17.87,22.14c14.77-2.3,29.78-2.52,44.6899-1.9
		c16.3201,0.86,31.99,6.41,46.3101,14.06c-6.99,0.39-14.51,0.83-20.37,5.09c-3.75,2.65-6.23,6.6-8.48,10.51
		c18.0699,0.85,35.6599,8.05,49.2699,19.93c8.6001,7.21,15.39,16.23,21.8101,25.35c-5.99-2.78-13.26-2.61-19.03,0.64
		c-0.96,0.57-2.4399,0.84-2.35,2.23c13.38,6.53,26.24,15.04,35.3199,27.05c7.3501,9.67,12.5701,21.25,13.6001,33.43
		c-6.0901-2.46-12.8101-5.53-19.4601-3.57c-2.22,0.57-4.4299,1.14-6.6499,1.58c12.74,4.78,23.7599,14.22,29.6499,26.58
		c4.86,9.9,6.62,21.03,6.6901,31.98c-5.37-2.77-12.72-3.2401-17.63,0.73c2.78,3.2,6.64,5.34,9.2,8.8
		c12.26,14.8,17.15,33.91,22.25,52.04c2.13,8.38,4.36,16.75,5.99,25.25c-8.0399-3.27-16.63-5.24-25.35-4.5099
		c10.8,17.86,14.5601,38.69,18.86,58.81c12.6901-11.86,21.9501-27.34,26.04-44.2401c3.66-14.18,5.04-28.84,5.8-43.42
		c0.9199-10.39-1.3401-20.65-2.53-30.91c-1.9-14.01-4.9601-27.81-8.12-41.57c-0.65-1.68-0.15-4.14-2.12-4.96
		c0.59-0.05,1.24-0.09,1.59,0.56c5.26,6.44,10.62,12.81,15.96,19.19c3.17-7.68,2.26-16.29,1.51-24.35
		c-1.84-15.11-6.5599-29.7-8.4199-44.81c-1.3101-8.97-0.9301-18.05-0.5701-27.07c0.21-5.78,1.1901-11.52,3.03-17
		c5.45,10.33,14.4299,18.51,24.42,24.39c0.73-29.33-4.9701-58.27-6.4801-87.47c-0.2999-11.54-0.63-23.27,2.01-34.59
		c2.17,9.46,6.01,20.15,15.52,24.46c-0.34-23.45,0.92-47.01,5.61-70.03c4.5901-23.03,11.63-45.57,20.98-67.12
		c0.3301-0.69,0.76-1.33,1.28-1.92c2.5701,9.83,10.72,17.5,19.9301,21.29c2.51-21.45,5.5599-42.84,9.5599-64.07
		c3.63-18.77,8.4501-37.3,13.64-55.69c1.1901,8.34,4.16,16.45,9.04,23.35c1.9399,2.78,4.35,5.19,6.27,8.01
		c5.36-19.32,10.62-38.72,17.37-57.62c8.0699-23.19,17.4299-45.94,28.37-67.93c-0.24,9.39-0.13,19.19,4.53,27.64
		C1566.6,262.24,1576.05,246.88,1585.9399,231.96 M387.57,807.5c-10.63,7.13-17.56,18.63-21.35,30.66
		c-7.24,22.2401-6.75,45.9301-6.71,69.05c6.66,0.71,13.32,1.43,19.97,2.22c2.11-12.82,3.79-25.99,9.18-37.94
		c2.64-6.02,8.53-10.07,14.9-11.22c5.59-1.01,11.84-1.57,16.97,1.37c4.73,2.66,7.53,7.71,8.85,12.83
		c3.05,11.3701,2.07,23.26,2.27,34.9c10.7-0.03,21.4,0,32.1-0.01c0.35-12.82,3.01-25.54,2.15-38.39
		c-0.57-17.62-2.14-35.95-10.31-51.89c-5.31-10.57-15.68-18.51-27.51-20.05C414.21,797.39,399.34,799.59,387.57,807.5 M618.1,800.35
		c-10.63,3.47-18.81,11.9301-24.53,21.26c-7.08,11.77-11.52,24.97-14.32,38.37c-3.99,18.78-4.6,38.08-4.46,57.23
		c6.9901,0.0099,13.97-0.01,20.96,0.0099c0.61-15.3,1.31-31.48,9.27-45.05c4.03-7.19,11.55-12.69,20.01-12.66
		c4.35-0.48,7.93,2.71,10.29,6.01c5.05,7.14,7.4,15.88,8.03,24.52c0.61,9.46,0.36,19.06-1.91,28.3
		c10.71,0.23,21.41,0.75,32.12,1.0699c-0.03-28.2,1.19-57.11-7.43-84.35c-3.85-11.8-9.29-24.05-19.66-31.52
		C638.37,797.54,627.39,797.35,618.1,800.35 M491.76,885.83c-0.4,3.37-0.05,6.77-0.27,10.16c-0.76,12.17-1.32,24.35-2.17,36.51
		c-2.64,8.27-5.93,16.35-8.76,24.57c23.91-8.64,48.6-15.79,74.05-17.73c-17.33-2.19-34.66-4.35-51.96-6.7
		c0.79-13.21,1.44-26.43,2.18-39.64c0.06-3.42,0.18-7.1-1.54-10.17C500.19,878.65,492.39,880.64,491.76,885.83 M666.09,998.42
		c-17.65,7.56-33.75,18.51-47.7,31.67c31-12.89,63.28-23.36,96.7-27.54c24.8199-3.3,49.94-1.99,74.8799-1.28
		c27.46,0.9,54.85,3.14,82.2,5.66c-39.94-19.55-85.18-24.75-129.17-24.21C716.72,983.23,690.29,987.95,666.09,998.42
		 M470.54,1005.56c-11.68,9.97-16.46,25.52-17.85,40.33c21.65-5.16,43.84-9.52,66.2-8.55c17.92,1.98,34.69,9.16,51.5,15.24
		c-0.55-12.5-4-25.14-11.63-35.21c-9.52-12.97-24.77-21.06-40.64-22.89C501.75,992.36,483.47,994.41,470.54,1005.56 M691.57,1039.17
		c45.99,2.5399,92.34,5.0499,137.34,15.5699c-18.43-14.52-41.68-21.64-64.83-23.47C739.73,1029.0699,714.66,1030.62,691.57,1039.17
		 M625.87,1060.46c31.42,12.27,62.69,25.01,93.26,39.3c15.33,7.5599,30.86,15.22,44.24,26c-15.05-24.3-37.65-44.15-64.5-54.3101
		C675.73,1062.35,650.57,1059.72,625.87,1060.46z"/>
	<path fill="#FFFFFF" d="M387.57,807.5c11.77-7.91,26.64-10.11,40.51-8.47c11.83,1.54,22.2,9.48,27.51,20.05
		c8.17,15.94,9.74,34.27,10.31,51.89c0.86,12.85-1.8,25.57-2.15,38.39c-10.7,0.01-21.4-0.02-32.1,0.01
		c-0.2-11.64,0.78-23.53-2.27-34.9c-1.32-5.12-4.12-10.17-8.85-12.83c-5.13-2.94-11.38-2.38-16.97-1.37
		c-6.37,1.15-12.26,5.2-14.9,11.22c-5.39,11.95-7.07,25.12-9.18,37.94c-6.65-0.79-13.31-1.51-19.97-2.22
		c-0.04-23.12-0.53-46.81,6.71-69.05C370.01,826.13,376.94,814.63,387.57,807.5z"/>
	<path fill="#FFFFFF" d="M618.1,800.35c9.29-3,20.27-2.81,28.37,3.19c10.3701,7.47,15.8101,19.72,19.66,31.52
		c8.62,27.24,7.4,56.15,7.43,84.35c-10.71-0.3199-21.41-0.84-32.12-1.0699c2.27-9.2401,2.52-18.84,1.91-28.3
		c-0.63-8.64-2.98-17.38-8.03-24.52c-2.36-3.3-5.94-6.49-10.29-6.01c-8.46-0.03-15.98,5.47-20.01,12.66
		c-7.96,13.57-8.66,29.75-9.27,45.05c-6.99-0.02-13.97,0-20.96-0.0099c-0.14-19.15,0.47-38.45,4.46-57.23
		c2.8-13.4,7.24-26.6,14.32-38.37C599.29,812.28,607.47,803.82,618.1,800.35z"/>
	<path fill="#FFFFFF" d="M491.76,885.83c0.63-5.19,8.43-7.18,11.53-3c1.72,3.07,1.6,6.75,1.54,10.17
		c-0.74,13.21-1.39,26.43-2.18,39.64c17.3,2.35,34.63,4.51,51.96,6.7c-25.45,1.94-50.14,9.09-74.05,17.73
		c2.83-8.22,6.12-16.3,8.76-24.57c0.85-12.16,1.41-24.34,2.17-36.51C491.71,892.6,491.36,889.2,491.76,885.83z"/>
	<path fill="#FFFFFF" d="M666.09,998.42c24.2-10.47,50.6299-15.19,76.91-15.7c43.99-0.54,89.23,4.66,129.17,24.21
		c-27.35-2.52-54.74-4.76-82.2-5.66c-24.9399-0.71-50.06-2.02-74.8799,1.28c-33.42,4.18-65.7,14.65-96.7,27.54
		C632.34,1016.93,648.44,1005.98,666.09,998.42z"/>
	<path fill="#FFFFFF" d="M470.54,1005.56c12.93-11.15,31.21-13.2,47.58-11.08c15.87,1.83,31.12,9.92,40.64,22.89
		c7.63,10.0699,11.08,22.71,11.63,35.21c-16.81-6.08-33.58-13.26-51.5-15.24c-22.36-0.97-44.55,3.39-66.2,8.55
		C454.08,1031.08,458.86,1015.53,470.54,1005.56z"/>
	<path fill="#FFFFFF" d="M691.57,1039.17c23.09-8.55,48.16-10.1001,72.51-7.9c23.15,1.83,46.4,8.95,64.83,23.47
		C783.91,1044.22,737.56,1041.71,691.57,1039.17z"/>
	<path fill="#FFFFFF" d="M625.87,1060.46c24.7-0.74,49.86,1.89,73,10.99c26.85,10.16,49.45,30.01,64.5,54.3101
		c-13.38-10.78-28.91-18.4401-44.24-26C688.56,1085.47,657.29,1072.73,625.87,1060.46z"/>
</g>
</svg>
