<?xml version="1.0" encoding="UTF-8" standalone="no"?>
<!-- Created with Inkscape (http://www.inkscape.org/) -->

<svg
   xmlns:dc="http://purl.org/dc/elements/1.1/"
   xmlns:cc="http://creativecommons.org/ns#"
   xmlns:rdf="http://www.w3.org/1999/02/22-rdf-syntax-ns#"
   xmlns:svg="http://www.w3.org/2000/svg"
   xmlns="http://www.w3.org/2000/svg"
   xmlns:sodipodi="http://sodipodi.sourceforge.net/DTD/sodipodi-0.dtd"
   xmlns:inkscape="http://www.inkscape.org/namespaces/inkscape"
   id="svg4156"
   version="1.1"
   inkscape:version="0.91 r13725"
   width="365.625"
   height="595.3125"
   viewBox="0 0 365.625 595.3125"
   sodipodi:docname="LadyReadingSilhouette.svg">
  <metadata
     id="metadata4162">
    <rdf:RDF>
      <cc:Work
         rdf:about="">
        <dc:format>image/svg+xml</dc:format>
        <dc:type
           rdf:resource="http://purl.org/dc/dcmitype/StillImage" />
        <dc:title></dc:title>
      </cc:Work>
    </rdf:RDF>
  </metadata>
  <defs
     id="defs4160" />
  <sodipodi:namedview
     pagecolor="#ffffff"
     bordercolor="#666666"
     borderopacity="1"
     objecttolerance="10"
     gridtolerance="10"
     guidetolerance="10"
     inkscape:pageopacity="0"
     inkscape:pageshadow="2"
     inkscape:window-width="1600"
     inkscape:window-height="837"
     id="namedview4158"
     showgrid="false"
     inkscape:zoom="1.1254593"
     inkscape:cx="182.8125"
     inkscape:cy="297.65625"
     inkscape:window-x="-8"
     inkscape:window-y="-8"
     inkscape:window-maximized="1"
     inkscape:current-layer="svg4156" />
  <path
     style="fill:#000000"
     d="m 172.57962,591.52203 c -11.70624,-1.59081 -25.09019,-8.12451 -28.72339,-14.02203 -1.42944,-2.32031 -4.10135,-5.80987 -5.93759,-7.75457 l -3.3386,-3.53582 -0.64617,-11.93293 c -0.3554,-6.56311 -0.68597,-19.52668 -0.73461,-28.80793 -0.0487,-9.28125 -0.46365,-19.40625 -0.92226,-22.5 -0.4586,-3.09375 -1.53443,-12.16406 -2.39073,-20.15625 -0.85629,-7.99219 -1.98445,-17.27344 -2.50702,-20.625 -0.52258,-3.35156 -1.31439,-9.91855 -1.75959,-14.59332 -0.85224,-8.94877 -3.16109,-16.34418 -5.10265,-16.34418 -0.63492,0 -1.73835,-1.79297 -2.45206,-3.98438 -1.29637,-3.98045 -3.22255,-7.34191 -8.1211,-14.17246 C 106.78619,408.69009 94.332169,400.40007 75.9375,390.45682 68.460937,386.41535 60.324049,381.997 57.855526,380.63826 40.664452,371.17583 22.5,344.79369 22.5,329.28772 c 0,-1.72196 -0.675386,-4.43688 -1.500859,-6.03317 -1.722709,-3.33135 -1.172344,-12.36246 1.176451,-19.30475 0.747855,-2.21042 1.510836,-5.21286 1.695511,-6.67208 0.184675,-1.45923 3.776569,-9.70618 7.981985,-18.32655 C 44.509344,253.00802 43.809781,226.82297 30.04855,211.40625 29.128038,210.375 25.691592,204.32149 22.412002,197.954 19.132414,191.58652 15.491896,185.3439 14.321964,184.08152 10.590929,180.05567 7.5,174.94276 7.5,172.79687 c 0,-2.34783 -2.0730697,-10.58429 -3.7321513,-14.82812 -5.6813176,-14.53247 4.6294606,-29.15294 25.1256773,-35.6277 8.605817,-2.71857 14.047057,-6.35175 17.061322,-11.39203 1.18584,-1.9829 3.177447,-4.71835 4.425792,-6.07879 5.554533,-6.053277 2.636505,-12.99523 -5.46251,-12.99523 -9.874038,0 -16.431204,-18.471252 -11.157914,-31.431357 4.938513,-12.137326 5.669599,-13.124774 11.037311,-14.907642 3.985472,-1.323762 4.81211,-2.068391 6.601409,-5.946502 1.124988,-2.438287 2.56097,-5.158685 3.191072,-6.045328 1.180917,-1.661721 -3.824004,-8.231671 -6.270803,-8.231671 -0.550266,0 -3.233322,-1.503682 -5.962348,-3.341514 -13.739613,-9.252796 -3.129164,-14.8677705 13.925496,-7.369273 7.42752,3.265689 10.270647,3.57816 10.289305,1.130835 0.12299,-16.1325787 13.872295,-14.4857653 57.831742,6.926758 17.84039,8.69 19.9377,11.261723 16.69035,20.465694 -0.77344,2.192155 -1.40625,4.130017 -1.40625,4.306358 0,0.17634 2.42578,1.941053 5.39062,3.921582 13.76048,9.192065 15.90909,11.449608 15.07425,15.838531 -0.40689,2.139092 -8.73039,2.878592 -14.18726,1.260465 -3.33499,-0.988927 -3.77189,-0.876814 -6.74052,1.729675 -1.74591,1.53293 -3.72709,3.138706 -4.40261,3.568392 -5.08341,3.233432 -8.21943,9.937452 -9.57493,20.468747 l -1.086,8.4375 -3.72115,0.30014 c -3.62261,0.29219 -7.93358,3.14274 -7.94567,5.2539 -0.003,0.55465 -0.57085,2.09126 -1.26149,3.41469 -0.69062,1.32344 -1.5468,3.56608 -1.90259,4.98366 -1.24577,4.96359 -11.39005,6.95666 -17.243434,3.38785 -4.209717,-2.56666 -6.230873,-2.37225 -7.346144,0.70664 -1.41827,3.91534 4.500994,11.34869 12.980847,16.30119 30.295021,17.69324 39.903971,44.42519 26.407231,73.46443 -5.65123,12.15904 -4.50069,17.64129 1.77721,8.46824 1.13459,-1.65784 5.22695,-5.80395 9.09414,-9.21358 3.86719,-3.40964 9.35156,-8.93423 12.1875,-12.27686 3.69749,-4.35813 6.00879,-6.25472 8.16972,-6.70386 3.86937,-0.80422 4.31447,-1.41056 7.05414,-9.60959 2.73619,-8.18865 3.95883,-7.29159 -12.50312,-9.17349 -14.02826,-1.60369 -15.21359,-2.1039 -14.25192,-6.01432 1.17863,-4.79268 15.67198,-42.22176 18.11569,-46.78381 0.44347,-0.82788 2.1652,-4.37481 3.82608,-7.88209 4.40648,-9.30511 2.34779,-9.18926 34.77015,-1.95671 l 7.21199,1.60881 10.30239,-2.497 c 18.37231,-4.45291 18.61111,-4.19306 10.93777,11.90209 -2.34184,4.91212 -4.25789,9.32547 -4.25789,9.80747 0,0.48201 -0.59142,1.3672 -1.31427,1.96711 -0.72284,0.59992 -1.59947,2.2336 -1.94805,3.63042 -1.88807,7.56583 -12.57041,29.91162 -15.08762,31.56097 -1.10841,0.72626 -2.27139,2.60099 -2.58441,4.16607 -0.38573,1.92864 -1.71148,3.57636 -4.11426,5.1134 -4.96827,3.17816 -15.26389,12.7107 -15.26389,14.13259 0,0.65026 -0.77792,1.88629 -1.7287,2.74675 -0.95079,0.86044 -2.24977,3.89281 -2.88663,6.73859 -0.64517,2.88291 -2.08834,6.09458 -3.25903,7.25272 -1.1556,1.14322 -2.87528,3.3442 -3.8215,4.89108 -0.94621,1.54687 -2.90067,4.07812 -4.34323,5.625 C 154.22069,224.39212 150,229.48107 150,230.2802 c 0,0.46847 -2.3169,3.37442 -5.14867,6.45766 -7.00755,7.62988 -6.85661,9.46189 0.89564,10.87 7.14741,1.29824 12.64363,3.7726 14.0655,6.33222 3.92946,7.07364 4.60586,9.31391 4.66103,15.43761 0.0489,5.43092 -0.24432,6.65384 -1.92171,8.01382 -2.27183,1.84194 -2.74859,0.94196 6.45584,12.18672 7.28833,8.90392 12.32122,15.57135 17.25644,22.86084 2.43177,3.5918 5.64242,7.43034 7.1348,8.53011 1.49238,1.09977 4.25561,4.10894 6.14054,6.68707 4.33103,5.92381 14.42722,17.49221 23.72759,27.1875 3.95697,4.125 8.15591,8.76562 9.33096,10.3125 1.17505,1.54687 3.73233,4.58437 5.68284,6.75 4.30292,4.77745 11.63028,16.06433 13.9654,21.51193 1.54318,3.6001 8.65498,19.24981 13.17283,28.98718 0.97265,2.09639 1.76847,4.26794 1.76847,4.82567 0,1.68999 5.41842,12.05544 6.97878,13.35042 0.80229,0.66585 1.45872,1.60098 1.45872,2.07808 0,0.47709 2.7803,5.80434 6.17844,11.83833 3.39815,6.03399 6.76903,12.02558 7.49084,13.31464 0.7218,1.28906 2.05479,3.86747 2.96218,5.7298 3.89196,7.9879 8.69955,16.67098 9.50634,17.1696 0.47959,0.29641 2.91588,3.95101 5.41397,8.12134 2.49809,4.17033 5.17479,8.56274 5.94823,9.76091 2.08699,3.23308 7.914,13.00001 8.31977,13.94518 0.19376,0.45133 2.6288,4.03726 5.41122,7.96875 2.78242,3.93149 6.0701,9.20269 7.30596,11.71377 2.328,4.73012 8.07172,9.39112 17.17526,13.93765 26.8778,13.42342 10.43647,23.51587 -22.64348,13.89961 -5.78952,-1.68299 -9.84075,-1.77998 -7.36397,-0.1763 2.68472,1.73833 8.67024,9.90168 8.67024,11.82492 0,9.18599 -17.15904,7.98742 -33.43671,-2.33557 -4.1131,-2.60844 -4.98373,-2.80646 -10.14072,-2.3064 -23.10079,2.24002 -24.18402,2.48196 -35.1971,7.86142 -4.39066,2.14467 -18.145,4.23953 -21.80476,3.32099 -1.15453,-0.28978 -8.63323,0.40561 -16.61931,1.54531 -16.21497,2.31404 -31.18058,2.95719 -40.22178,1.72855 z m 54.2677,-75.89703 c 0.62736,-4.89844 2.34688,-16.92187 3.82116,-26.71875 4.00307,-26.60121 6.76175,-63.89898 4.56362,-61.70085 -0.58714,0.58714 -1.38368,8.12556 -1.87732,17.76661 -0.90403,17.6564 -2.1097,28.29381 -6.41411,56.59049 -1.45105,9.53906 -2.62617,20.50781 -2.61137,24.375 0.0304,7.92654 0.34952,6.61935 2.51802,-10.3125 z m -37.65338,-7.99356 c -0.28865,-0.28864 -0.81286,0.23167 -1.16492,1.15625 -0.50876,1.33613 -0.40108,1.44381 0.52481,0.52481 0.64071,-0.63594 0.92876,-1.39241 0.64011,-1.68106 z m 4.76757,-8.64707 c 1.70792,-3.99609 3.62348,-7.89843 4.25678,-8.67187 0.6333,-0.77344 1.88898,-3.4058 2.79042,-5.84968 0.90142,-2.44389 2.02761,-4.68363 2.50263,-4.97721 0.47501,-0.29357 0.86366,-1.32925 0.86366,-2.3015 0,-0.97226 1.47656,-5.00784 3.28125,-8.96796 1.80469,-3.96013 3.28747,-7.88585 3.29507,-8.72381 0.007,-0.83798 0.6223,-2.57828 1.36599,-3.86734 3.30557,-5.72961 3.34201,-5.88935 4.70486,-20.625 0.4666,-5.04517 0.4475,-5.09567 -0.88662,-2.34375 -0.74991,1.54688 -1.38251,3.68856 -1.40577,4.75928 -0.14853,6.83826 -7.7983,28.46798 -17.54757,49.61572 -8.73889,18.95607 -8.84172,19.21875 -7.52319,19.21875 0.65845,0 2.59456,-3.26953 4.30249,-7.26562 z m 63.39105,-38.20312 c -0.83488,-7.21875 -1.91669,-15.4102 -2.40401,-18.20323 -0.48733,-2.79303 -0.88605,-7.11725 -0.88605,-9.60938 0,-2.49212 -0.42188,-4.53114 -0.9375,-4.53114 -0.51563,0 -0.9375,-0.70313 -0.9375,-1.5625 0,-0.85937 -0.19937,-1.36313 -0.44304,-1.11945 -0.49822,0.49821 1.70801,22.51688 3.18549,31.79192 0.52973,3.32545 1.16369,8.99941 1.40879,12.60878 0.24509,3.60937 0.78243,10.99219 1.19407,16.40625 l 0.74844,9.84375 0.29465,-11.25 c 0.16778,-6.40636 -0.35893,-16.90091 -1.22334,-24.375 z M 185.8529,469.166 c 0.75108,-1.25482 11.66017,-14.35402 15.22138,-18.27722 C 203.30902,448.42686 210,436.24785 210,434.64205 c 0,-0.49536 0.59596,-1.56669 1.32434,-2.38073 1.98243,-2.21553 6.16474,-12.15742 5.33108,-12.67264 -0.39882,-0.24649 -2.54391,3.13889 -4.76689,7.52305 -2.22297,4.38417 -4.76511,8.35833 -5.64918,8.83147 -0.88408,0.47315 -1.84229,2.30765 -2.12936,4.07668 -0.66609,4.10457 -3.80241,9.04698 -11.20334,17.65487 -11.58153,13.47026 -13.79718,16.4999 -10.56273,14.4433 1.54678,-0.98351 3.12582,-2.31194 3.50898,-2.95205 z m 10.35961,-41.50569 c 5.88593,-1.04116 4.00252,-2.4618 -4.23354,-3.19331 -24.53718,-2.17933 -28.13321,-3.00677 -49.47897,-11.38493 -7.47656,-2.93453 -15.82979,-6.21354 -18.56272,-7.28669 -2.73294,-1.07315 -5.14943,-1.77074 -5.36998,-1.55018 -0.72997,0.72997 8.41816,7.15244 11.17262,7.84376 1.48717,0.37326 5.61868,2.47571 9.18115,4.67212 16.76532,10.3365 37.82422,14.34279 57.29144,10.89923 z m -16.68126,-22.72235 c -2.0625,-0.43117 -8.60156,-1.44782 -14.53125,-2.25926 -12.21613,-1.67167 -31.03909,-5.39753 -40.76241,-8.0686 -3.59901,-0.98868 -7.83886,-1.7976 -9.42187,-1.7976 -1.58303,0 -3.36899,-0.49077 -3.96882,-1.0906 -1.36899,-1.36899 -13.847872,-5.48169 -16.516494,-5.44339 -3.150183,0.0452 -0.659787,1.15443 15.476874,6.89341 21.09464,7.50228 28.58674,9.29439 49.09897,11.74453 9.06931,1.0833 25.78763,1.10073 20.625,0.0215 z m 22.5,-64.82964 c -1.03125,-0.59656 -2.65053,-2.06872 -3.59841,-3.27147 -0.94786,-1.20275 -3.05724,-2.86899 -4.6875,-3.70278 -1.63024,-0.83378 -4.50192,-2.72424 -6.38149,-4.20101 -1.87958,-1.47677 -5.74243,-4.05568 -8.58414,-5.73092 -2.84169,-1.67524 -7.63199,-4.54717 -10.64509,-6.38207 -6.60875,-4.02455 -8.53998,-4.8089 -9.20221,-3.7374 -0.27645,0.44731 2.55769,2.57543 6.2981,4.72915 3.74041,2.15371 9.75387,5.99876 13.36324,8.54454 14.40744,10.16192 21.65061,14.73021 23.4375,14.78214 1.875,0.0545 1.875,0.0545 0,-1.03018 z M 114.375,317.15877 c 11.47463,0.51202 17.36792,-0.10335 15.81943,-1.65184 -0.53778,-0.53777 -14.92543,-0.68795 -36.91318,-0.38528 -14.641751,0.20154 -30.876549,-0.73631 -45.357838,-2.62024 -5.227362,-0.68004 -4.49293,1.06619 1.079497,2.56669 6.906789,1.8598 19.348783,2.5374 41.465841,2.25825 11.85937,-0.14969 22.61719,-0.22509 23.90625,-0.16758 z m 14.0151,-30.96335 c -2.05925,-6.39375 -5.07976,-11.38077 -6.20906,-10.25146 -0.32152,0.32152 0.53278,2.19692 1.89844,4.16758 1.36566,1.97064 2.48302,4.2737 2.48302,5.11789 0,0.8442 0.42188,1.79565 0.9375,2.11432 0.51563,0.31867 0.9375,1.53889 0.9375,2.71158 0,1.17269 0.28125,2.41342 0.625,2.75717 1.48172,1.48172 1.27232,-0.5789 -0.6724,-6.61708 z m 1.9224,-20.74697 c 0,-0.44086 -3.90234,-1.30277 -8.67187,-1.91536 -4.76954,-0.61259 -10.78125,-1.52559 -13.35938,-2.02888 -2.57812,-0.50329 -7.99492,-1.56472 -12.037341,-2.35872 -4.042406,-0.794 -8.683031,-2.02266 -10.312496,-2.73035 -1.629465,-0.7077 -6.269261,-2.44033 -10.310658,-3.8503 -5.397023,-1.88292 -7.559687,-3.12037 -8.145297,-4.66064 -0.438516,-1.15338 -1.254558,-2.37966 -1.813426,-2.72507 -0.558867,-0.34539 -2.690978,-2.89516 -4.738024,-5.66614 -2.047047,-2.77099 -4.674407,-6.06085 -5.83858,-7.3108 -3.726818,-4.00141 -6.275891,-7.26349 -9.66079,-12.36306 -3.463309,-5.2177 -6.049638,-7.91893 -6.049638,-6.31841 0,3.54697 5.953045,11.76418 18.493454,25.52719 1.16724,1.28104 3.706376,4.56734 5.642525,7.30289 4.415415,6.23847 13.921782,11.20068 28.405039,14.82711 12.915652,3.23392 38.396482,6.06795 38.396482,4.27054 z m 8.4375,-15.37194 c 0,-0.64541 -2.00391,-2.20039 -4.45313,-3.45549 -2.44921,-1.25511 -7.25205,-4.10204 -10.67294,-6.32651 -3.42091,-2.22448 -6.63879,-4.04451 -7.15084,-4.04451 -0.51206,0 -1.51001,-0.70398 -2.21768,-1.5644 -2.69884,-3.28141 -22.38041,-9.87586 -22.38041,-7.49872 0,0.84645 7.420744,5.1819 13.125,7.66805 3.35156,1.46076 7.48753,3.67663 9.19103,4.92416 1.70352,1.24753 5.57167,3.27366 8.59591,4.50252 3.02425,1.22886 7.06825,3.29946 8.98667,4.60134 3.74728,2.54298 6.97639,3.09543 6.97639,1.19356 z M 76.875,234.375 c 0,-1.12347 -3.479287,-1.12347 -6.09375,0 -1.452151,0.62401 -0.976447,0.82057 2.109375,0.8716 2.191406,0.0362 3.984375,-0.35598 3.984375,-0.8716 z m 7.410904,-25.31108 c -2.595948,-5.35852 -5.641787,-10.64954 -6.76853,-11.75781 -8.535593,-8.3957 -13.635731,-16.8065 -18.55747,-30.6037 -4.043705,-11.33579 -5.208951,-13.88991 -6.336899,-13.88991 -1.004688,0 5.543522,18.88485 7.093546,20.45759 0.671521,0.68136 1.220949,1.91288 1.220949,2.73669 0,1.68456 5.307031,11.4517 7.00828,12.89816 2.762606,2.34885 7.445967,9.4701 11.804547,17.94932 4.129648,8.03384 7.945605,13.26231 8.947886,12.26003 0.169178,-0.16918 -1.816361,-4.69185 -4.412309,-10.05037 z M 132.00656,50.550945 C 131.54102,49.154304 129.64533,48.145063 108.28125,37.919863 97.96875,32.984132 86.155589,27.284562 82.029781,25.254153 75.0115,21.800288 68.505652,20.334913 69.850481,22.510891 70.412959,23.420999 80.250597,30 81.049012,30 c 0.213182,0 6.005772,2.775726 12.872419,6.168278 6.866649,3.392554 15.016069,7.16964 18.109819,8.393525 3.09375,1.223885 8.15625,3.289708 11.25,4.590719 5.99776,2.52223 9.275,3.047479 8.72531,1.398423 z"
     id="path4172"
     inkscape:connector-curvature="0" />
</svg>
