<?xml version="1.0" encoding="UTF-8" standalone="no"?>
<!-- Created with Inkscape (http://www.inkscape.org/) -->

<svg
   xmlns:dc="http://purl.org/dc/elements/1.1/"
   xmlns:cc="http://creativecommons.org/ns#"
   xmlns:rdf="http://www.w3.org/1999/02/22-rdf-syntax-ns#"
   xmlns:svg="http://www.w3.org/2000/svg"
   xmlns="http://www.w3.org/2000/svg"
   xmlns:sodipodi="http://sodipodi.sourceforge.net/DTD/sodipodi-0.dtd"
   xmlns:inkscape="http://www.inkscape.org/namespaces/inkscape"
   width="920"
   height="405"
   id="svg3551"
   version="1.1"
   inkscape:version="0.92.4 (5da689c313, 2019-01-14)"
   sodipodi:docname="014.svg">
  <defs
     id="defs3553" />
  <sodipodi:namedview
     id="base"
     pagecolor="#ffffff"
     bordercolor="#666666"
     borderopacity="1.0"
     inkscape:pageopacity="0.0"
     inkscape:pageshadow="2"
     inkscape:zoom="0.98994949"
     inkscape:cx="362.5217"
     inkscape:cy="356.04597"
     inkscape:document-units="px"
     inkscape:current-layer="layer1"
     showgrid="false"
     inkscape:window-width="1920"
     inkscape:window-height="1133"
     inkscape:window-x="0"
     inkscape:window-y="0"
     inkscape:window-maximized="1" />
  <metadata
     id="metadata3556">
    <rdf:RDF>
      <cc:Work
         rdf:about="">
        <dc:format>image/svg+xml</dc:format>
        <dc:type
           rdf:resource="http://purl.org/dc/dcmitype/StillImage" />
        <dc:title></dc:title>
      </cc:Work>
    </rdf:RDF>
  </metadata>
  <g
     inkscape:label="Capa 1"
     inkscape:groupmode="layer"
     id="layer1"
     transform="translate(0,-647.36218)">
    <path
       style="fill:#000000;stroke-width:0.80010635"
       d="m 171.84913,730.67065 c 0.82558,0.49294 1.793,0.94547 2.88867,1.32617 -0.93514,-0.43851 -1.89693,-0.88106 -2.88867,-1.32617 z m 7.4668,30.875 c -4.50361,3.82776 -8.87146,8.09808 -11.32422,11.20898 -6.36539,8.07337 -7.51518,8.7604 -16.26758,9.73633 -22.05221,2.45887 -25.15492,3.86469 -30.77734,13.9375 l -5.1543,9.23438 -10.43555,1.11914 c -5.739259,0.61489 -11.138289,1.56348 -11.999999,2.10937 -2.09929,1.32987 -1.99985,7.32515 0.14453,8.6836 3.089,1.95688 1.79358,9.74364 -2.27734,13.6875 -2.19457,2.12605 -11.90273,14.13343 -21.57422,26.68359 -9.67149,12.55016 -18.54112,23.60882 -19.70898,24.57422 -1.16785,0.9654 -3.4665,4.91575 -5.10938,8.77734 -1.64289,3.86159 -3.70865,8.20425 -4.58984,9.65235 -4.03441,6.62991 -6.25966,13.22165 -4.78125,14.1582 0.87655,0.5553 -1.07363,6.92697 -4.33399,14.16016 -3.26037,7.23321 -7.22665,18.23653 -8.8125,24.45117 -1.58584,6.21462 -4.22108,14.45873 -5.855464,18.32031 -1.634409,3.86159 -3.512165,10.06771 -4.173828,13.79102 -0.661648,3.7233 -2.04771,8.85643 -3.0800787,11.4082 -1.032385,2.55177 -1.751709,5.23299 -1.599609,5.95699 0.152076,0.7241 -0.301439,1.3159 -1.007812,1.3164 -0.706374,6e-4 -1.267224,3.2232 -1.244141,7.1602 0.12244,20.8948 33.7984527,29.7958 92.4296827,24.4316 21.924289,-2.0058 27.700629,-3.4768 35.039069,-8.9257 l 6.91015,-5.1329 -0.98633,-10.9277 c -0.54212,-6.0106 -1.09419,-11.33908 -1.22656,-11.83983 -0.73501,-2.78051 4.53926,-49.97489 6.61524,-59.19531 1.34885,-5.99078 2.45312,-12.39807 2.45312,-14.23828 0,-11.58796 19.38494,-40.06344 30.82227,-45.27539 13.41432,-6.11288 24.76108,-7.55949 29.44531,-3.75391 6.26427,5.08922 17.42752,24.08682 27.5918,46.95508 3.21818,7.24048 7.30582,14.52349 9.08398,16.18555 1.77816,1.66206 5.75075,5.40111 8.82813,8.30859 10.96812,10.36263 14.55164,11.39393 39.7832,11.44336 21.78913,0.0427 23.60963,-0.22437 31.67969,-4.62695 15.25199,-8.32066 22.2607,-15.94167 28.27734,-30.75586 4.67097,-11.50091 5.36818,-15.07237 4.71289,-24.14063 -0.85512,-11.83349 1.97575,-22.86171 7.40039,-28.83008 0.62342,-0.68589 1.26484,-1.2551 1.96485,-1.73047 l -5.72852,-0.55468 c -0.42047,1.06934 -1.51728,3.08139 -2.80664,5.09765 -1.98309,3.10114 -3.38458,10.0563 -4.14649,20.5625 -1.40395,19.35961 -3.16024,25.60788 -10.38085,36.93946 -6.02744,9.45907 -23.50047,22.85137 -31.68946,24.28906 -2.59987,0.45643 -11.27762,0.65 -19.2832,0.42969 -11.81169,-0.32506 -16.19031,-1.2622 -23.22656,-4.96485 -4.76892,-2.50952 -11.43978,-7.70306 -14.82422,-11.54297 -5.59791,-6.35123 -18.45899,-31.00014 -18.45899,-35.37695 0,-2.29634 -6.99137,-17.20869 -11.83398,-25.24023 -2.02866,-3.36457 -3.08672,-6.44318 -2.34961,-6.8418 0.73709,-0.39861 8.05249,-0.92295 16.25586,-1.16406 14.69605,-0.43195 14.93149,-0.37222 16.00781,4.02343 0.75485,3.08285 -0.0175,6.05918 -2.5,9.63282 -2.77031,3.98788 -3.5918,7.80486 -3.5918,16.68164 0,22.43477 9.36681,37.62018 29.11133,47.19336 12.99902,6.30262 37.05565,4.70518 45.73828,-3.03711 1.68581,-1.50322 6.08254,-5.28727 9.77149,-8.40821 13.13736,-11.11447 17.27853,-32.09426 9.76758,-49.49218 -4.76803,-11.04439 -7.84784,-14.49848 -14.20508,-15.92969 -2.79519,-0.62928 -4.76349,-1.47089 -4.37305,-1.87109 0.76511,-0.78426 16.08798,-1.71646 26.83399,-1.96875 l -47.56836,-4.61524 c -20.9109,0.84496 -33.55352,1.87456 -29.39063,2.43555 l 7.70508,1.03906 -6.84961,0.91211 c -11.95044,1.59264 -14.55469,1.54782 -14.55469,-0.25195 0,-1.09869 -11.69037,-1.83069 -31.25195,-1.95703 -17.18845,-0.11102 -28.55423,-0.74343 -25.25781,-1.40625 3.29641,-0.66282 22.09737,-1.38948 41.78125,-1.61329 18.02144,-0.20489 33.55938,-0.72642 36.68359,-1.20703 l -80.51953,-7.81054 c -5.3837,-0.52223 -10.22316,-1.91726 -14.53906,-3.96289 -1.70726,7.1061 -4.36668,10.93554 -7.69141,10.93554 -1.60152,0 -3.38861,0.79047 -3.9707,1.75586 -1.59353,2.64289 -12.34649,2.10745 -18.01367,-0.89648 -2.7508,-1.45808 -5.79586,-4.17001 -6.76563,-6.02735 -2.869,-5.49493 -2.01754,-6.16848 1.68945,-1.33789 7.85507,10.23596 21.17214,9.84591 29.97461,-0.87695 1.37857,-1.67932 2.39173,-3.13331 3.06641,-4.41797 -4.43371,-2.35481 -8.27795,-5.41082 -11.55469,-8.91015 -4.44688,0.88689 -7.26885,3.98965 -4.38867,7.54687 1.71866,2.12267 1.67601,2.63889 -0.21875,2.6582 -1.2926,0.0132 -4.01946,0.4823 -6.05859,1.04297 -5.23899,1.44048 -10.21508,-6.25259 -7.45899,-11.53125 2.36866,-4.53659 5.17383,-3.09024 5.17383,2.66797 0,5.89282 2.07118,5.30585 5.13672,-1.45703 1.41788,-3.12795 2.3746,-4.55331 4.28711,-5.13672 -1.98959,-2.65855 -3.69326,-5.48748 -5.14258,-8.39062 -4.86633,0.18312 -6.86949,1.39864 -10.95312,6.16601 -2.92305,3.41246 -5.31641,8.00884 -5.31641,10.21484 0,3.66449 -0.68593,3.35721 -7.94336,-3.57031 -4.36901,-4.17041 -9.18373,-7.59458 -10.70117,-7.60937 -3.56542,-0.0347 -8.1077,-2.97547 -6.74805,-4.36914 0.57755,-0.592 6.2191,1.32532 12.53711,4.26172 8.0116,3.72352 11.19735,4.56312 10.52734,2.77343 -1.30506,-3.48601 8.93196,-11.27094 16.49805,-12.5664 -0.40477,-1.0269 -0.77332,-2.05561 -1.11523,-3.08594 -4.48282,1.00103 -9.13307,3.15597 -13.30469,6.27148 -2.34597,1.75207 -3.72943,1.17586 -8.21875,-3.42578 l -5.39649,-5.53125 6.05469,-9.70508 c 3.33063,-5.33687 6.43226,-9.70312 6.89063,-9.70312 0.63505,0 5.6387,-1.24271 12.09375,-2.92969 0.30508,-1.13561 0.68756,-2.17817 1.13086,-3.13476 -9.31281,2.01467 -12.787,2.09304 -15.35743,0.89257 -2.33138,-1.08883 -3.81445,-2.41477 -3.29687,-2.94531 0.5176,-0.53054 6.97341,-1.71783 14.34766,-2.63867 2.66431,-0.3327 5.2663,-0.70078 7.80859,-1.0957 z m -41.87305,28.98047 c 1.49006,0.12541 3.05818,0.90633 4.86914,2.26367 3.07791,2.30693 3.09068,2.63371 0.28711,7.01953 -2.96281,4.63496 -4.78203,5.55815 -6.82617,3.46289 -0.61075,-0.62604 0.51773,-2.58435 2.50781,-4.35351 3.22875,-2.87033 3.31114,-3.33902 0.76172,-4.3418 -3.55247,-1.39733 -8.83375,3.30375 -12.42383,11.05859 -2.25911,4.8798 -5.71875,7.87595 -5.71875,4.95313 0,-0.46395 2.72153,-5.20281 6.04688,-10.53125 4.31288,-6.91083 7.21797,-9.80715 10.49609,-9.53125 z m -1.81836,17.72851 c 0.48984,-0.11877 0.6875,0.42144 0.6875,1.65625 0,3.48922 -2.30327,5.84935 -3.1543,3.23243 -0.36102,-1.1102 0.2022,-2.89672 1.25,-3.97071 0.52444,-0.53755 0.9229,-0.8467 1.2168,-0.91797 z m -24.68555,2.68946 c 6.80282,0.12552 14.07706,3.10855 22.82422,9.27734 11.78493,8.3111 9.14241,9.21735 -5.00195,1.71484 -6.97807,-3.70135 -16.41718,-7.33585 -20.97656,-8.07617 l -8.289069,-1.3457 6.796879,-1.20508 c 1.53211,-0.27152 3.0766,-0.3942 4.64648,-0.36523 z m -3.3457,17.04687 c 0.74305,0.0366 1.30012,0.27216 1.71484,0.69727 1.32714,1.36034 -1.01278,5.04625 -8.26171,13.01758 -16.772809,18.44435 -31.943529,43.99111 -45.597659,76.78711 -14.66249,35.21798 -25.00209,69.40134 -27.93164,92.33788 -0.94653,7.4108 -0.49185,9.5117 3.28125,15.1836 2.97299,4.4691 3.63692,6.582 2.07031,6.582 -1.26904,0 -3.334,-1.2692 -4.58984,-2.8203 -1.25586,-1.551 -3.1033,-4.5128 -4.10547,-6.582 -1.00218,-2.0692 -3.72954,-4.0265 -6.06055,-4.3496 -7.479622,-1.0368 -7.951461,-3.8008 -0.64843,-3.8008 h 6.8457 l 2.0039,-10.9707 c 3.95075,-21.6157 11.92584,-48.33081 24.42774,-81.83008 4.46037,-11.95169 5.047,-14.97356 3.14453,-16.20899 -3.16187,-2.05325 -4.9082,-1.9508 -4.9082,0.28711 0,1.02238 0.77106,1.37009 1.71289,0.77344 0.94183,-0.59666 1.71289,-0.21313 1.71289,0.85156 0,1.0647 -1.18064,1.70358 -2.62305,1.41992 -2.86792,-0.56403 -9.30641,12.98567 -20.45117,43.03906 -3.51348,9.47459 -6.73297,16.87327 -7.1543,16.44141 -0.42134,-0.43187 0.74941,-5.02397 2.60157,-10.20508 1.85218,-5.18113 5.65119,-15.85831 8.4414,-23.72656 9.93974,-28.02972 22.06081,-50.03876 45.17774,-82.03125 10.45589,-14.47036 14.77916,-19.00733 21.10546,-22.14648 3.920449,-1.94533 6.457089,-2.82665 8.091799,-2.7461 z m 7.3418,3.1582 c 0.0602,0.004 0.10814,0.0233 0.14258,0.0586 0.50385,0.51646 -2.48483,4.37342 -6.64063,8.57226 -4.1558,4.19885 -9.267689,10.2023 -11.361329,13.33985 -2.09366,3.13753 -4.5777,5.70508 -5.51953,5.70508 -0.94183,0 0.06386,-2.55719 2.23438,-5.68164 5.36352,-7.72083 19.278329,-22.12794 21.144529,-21.99415 z m 5.10937,4.85743 c 1.41275,0 2.56836,0.7885 2.56836,1.7539 0,0.9654 -1.15561,1.75586 -2.56836,1.75586 -1.41275,0 -2.56836,-0.79046 -2.56836,-1.75586 0,-0.9654 1.15561,-1.7539 2.56836,-1.7539 z m 11.98633,17.55273 c 1.41274,0 2.56836,0.78851 2.56836,1.75391 0,0.9654 -1.15562,1.75586 -2.56836,1.75586 -1.41276,0 -2.56836,-0.79046 -2.56836,-1.75586 0,-0.9654 1.1556,-1.75391 2.56836,-1.75391 z m -13.80078,5.26563 c 1.46833,0 2.66992,0.7885 2.66992,1.7539 0,0.9654 -0.72509,1.75586 -1.61133,1.75586 -0.88625,0 -2.08783,-0.79046 -2.66992,-1.75586 -0.58209,-0.9654 0.143,-1.7539 1.61133,-1.7539 z m -28.705079,2.11328 c 0.353,-0.0459 0.55274,0.20398 0.55274,0.7539 0,2.34291 -2.02511,4.41755 -3.16797,3.2461 -0.48661,-0.49878 0.02609,-1.84198 1.14062,-2.98438 0.61439,-0.62975 1.12162,-0.96976 1.47461,-1.01562 z m 21.873049,0.48633 c 0.72086,0.003 1.41275,0.27293 1.7793,0.88086 0.59158,0.98114 -0.12542,1.78515 -1.59375,1.78515 -1.46834,0 -2.66993,-0.34772 -2.66993,-0.77344 0,-1.1579 1.28295,-1.8975 2.48438,-1.89257 z m 18.16601,0.91015 c 0.88624,0 1.61133,0.79046 1.61133,1.75586 0,0.96539 -1.20159,1.75586 -2.66992,1.75586 -1.46834,0 -2.19341,-0.79047 -1.61133,-1.75586 0.58209,-0.9654 1.78366,-1.75586 2.66992,-1.75586 z m -24.55078,0.83203 c 0.23644,-0.015 0.46897,0.0418 0.6836,0.17774 1.79562,1.13751 0.35253,4.25586 -1.96875,4.25586 -0.85669,0 -1.11426,-1.1805 -0.57422,-2.62305 0.40504,-1.08191 1.15005,-1.76557 1.85937,-1.81055 z m 16.74414,2.41602 c 0.89474,0 1.90276,0.84892 2.24024,1.88672 0.33751,1.0378 -0.67051,1.88672 -2.24024,1.88672 -1.56972,0 -2.57773,-0.84892 -2.24023,-1.88672 0.33748,-1.0378 1.34549,-1.88672 2.24023,-1.88672 z m 177.23438,0.45508 c 2.6382,0 5.2779,0.0926 7.2793,0.27734 4.00278,0.36957 0.72627,0.67188 -7.2793,0.67188 -8.00559,0 -11.28014,-0.30231 -7.27734,-0.67188 2.00139,-0.18476 4.63914,-0.27734 7.27734,-0.27734 z m -166.00391,1.5625 c 0.88624,0 1.61133,0.79046 1.61133,1.75586 0,0.9654 -1.20159,1.75586 -2.66992,1.75586 -1.46834,0 -2.19342,-0.79046 -1.61133,-1.75586 0.58208,-0.9654 1.78366,-1.75586 2.66992,-1.75586 z m -19.16992,0.21875 c 1.65048,-0.16886 3.62484,1.92761 2.63672,3.5664 -0.72285,1.19885 -1.68033,1.16878 -2.91016,-0.0918 -1.00821,-1.03342 -1.35828,-2.36548 -0.77734,-2.96094 0.30597,-0.31363 0.6699,-0.47471 1.05078,-0.51367 z m 185.83984,2.20703 c 12.053,0.11452 13.30885,1.69728 6.42579,5.3457 -7.86587,4.16938 -15.97526,15.89775 -16.91797,24.4707 -1.03519,9.41406 4.72558,23.92458 11.98242,30.1836 7.4406,6.41749 7.89647,3.75717 0.74609,-4.35547 -6.6765,-7.57498 -10.59632,-18.87692 -9.95508,-28.70899 0.11159,-1.71101 3.38421,-6.64798 7.27149,-10.9707 5.93894,-6.60421 8.08683,-7.85937 13.44336,-7.85937 6.72613,0 18.94493,7.528 21.99219,13.54883 3.03624,5.99893 4.01297,20.05766 1.99414,28.68359 -2.49947,10.67962 -15.13889,23.36772 -26.17383,26.27344 -3.95599,1.0417 -7.96248,2.18458 -8.9043,2.53906 -4.46106,1.67901 -13.5494,0.59738 -21.76953,-2.58985 -18.63973,-7.2273 -28.74805,-22.82629 -28.74805,-44.36718 0,-7.81303 4.07526,-18.82227 6.9668,-18.82227 0.59949,0 3.68258,1.79401 6.85352,3.98438 4.90462,3.38793 6.47081,6.33534 10.48046,19.74609 4.07276,13.62185 5.75519,16.74488 12.37891,22.98633 7.88561,7.43047 18.31414,11.53741 24.05664,9.47265 4.17448,-1.50095 0.97896,-3.75462 -6.0293,-4.25195 -6.63288,-0.47069 -13.08558,-6.92526 -18.11914,-18.125 -3.12665,-6.95683 -7.47656,-23.03628 -7.47656,-27.63867 0,-0.20323 -1.34789,-1.94611 -2.99609,-3.87305 -4.01837,-4.69799 -9.5757,-7.5664 -14.66211,-7.5664 -4.97626,0 -9.8283,-4.76778 -6.08008,-5.97461 1.28336,-0.41321 13.65427,-1.21293 27.49023,-1.77735 6.5156,-0.26579 11.73234,-0.39169 15.75,-0.35351 z m -191.39257,0.0137 c 0.20802,-0.007 0.43648,0.0593 0.67578,0.21094 0.95719,0.60638 1.29774,1.83764 0.75586,2.73633 -1.46794,2.43463 -2.4961,1.98161 -2.4961,-1.10157 0,-1.1288 0.44038,-1.82416 1.06446,-1.8457 z m 16.06054,1.07227 c 0.94184,0 1.71289,0.78849 1.71289,1.7539 0,0.9654 -0.77105,1.75586 -1.71289,1.75586 -0.94182,0 -1.71289,-0.79046 -1.71289,-1.75586 0,-0.96541 0.77107,-1.7539 1.71289,-1.7539 z m 227.28125,1.62304 c -0.68283,0.0724 -3.59938,0.13086 -6.48047,0.13086 -3.05616,0 -4.79715,0.7318 -4.17968,1.75586 1.44649,2.39903 13.29806,2.27515 12.51562,-0.13086 -0.33749,-1.0378 -1.17265,-1.82827 -1.85547,-1.75586 z m -250.5,0.13086 c 0.41534,0 1.23042,0.79047 1.8125,1.75586 0.5821,0.9654 0.24352,1.75586 -0.7539,1.75586 -0.99742,0 -1.81446,-0.79046 -1.81446,-1.75586 0,-0.96539 0.34054,-1.75586 0.75586,-1.75586 z m 195.8711,0.043 c -3.84994,-0.062 -10.17985,0.33032 -16.55664,1.11523 l -9.15235,1.12696 5.69922,2.45508 c 3.13445,1.35091 7.44527,2.00624 9.58008,1.45703 4.7847,-1.23093 5.20047,1.91385 0.45703,3.45703 -3.5809,1.16497 -4.28798,5.90427 -1.83398,12.28711 1.19203,3.10045 1.48831,2.87327 2.53125,-1.94336 0.64949,-2.99955 3.84063,-8.43012 7.09179,-12.06836 3.25115,-3.63824 5.91016,-6.91013 5.91016,-7.27149 0,-0.37662 -1.4166,-0.57802 -3.72656,-0.61523 z m -179.50196,1.71289 c 0.94183,0 1.71289,0.79046 1.71289,1.75586 0,0.9654 -0.77106,1.75391 -1.71289,1.75391 -0.94184,0 -1.71289,-0.78851 -1.71289,-1.75391 0,-0.9654 0.77105,-1.75586 1.71289,-1.75586 z m 18.08203,0 c 1.46835,0 2.19342,0.79046 1.61133,1.75586 -0.58208,0.9654 -1.78367,1.75391 -2.66992,1.75391 -0.88625,0 -1.61133,-0.78851 -1.61133,-1.75391 0,-0.9654 1.20159,-1.75586 2.66992,-1.75586 z m 106.82422,0 c -8.4878,0 -11.83134,2.77677 -4.60937,3.82813 3.66169,0.53305 3.827,1.21355 3.31055,13.72461 -0.29889,7.24048 0.22472,15.13923 1.16406,17.55273 1.46435,3.76241 1.69425,3.12099 1.61133,-4.5 -0.11307,-10.3933 1.2527,-15.62824 5.80664,-22.25586 4.44005,-6.46185 2.79387,-8.34961 -7.28321,-8.34961 z m -114.45898,1.65625 c 1.07136,0.11382 1.61217,2.06916 0.54102,3.8457 -1.07888,1.78936 -1.48247,1.7896 -2.0625,0.006 -0.3966,-1.21954 -0.25457,-2.69406 0.31445,-3.27734 0.43518,-0.44606 0.84991,-0.61216 1.20703,-0.57422 z m -30.996089,0.0996 c 0.94182,0 1.71093,0.78851 1.71093,1.75391 0,0.9654 -0.76911,1.75586 -1.71093,1.75586 -0.94184,0 -1.71289,-0.79046 -1.71289,-1.75586 0,-0.9654 0.77105,-1.75391 1.71289,-1.75391 z m 250.044919,1.75391 c -1.85295,0 -0.4731,14.39022 1.93554,20.18554 0.98337,2.36605 1.20873,0.93688 0.68946,-4.38671 -0.42375,-4.3443 -0.80956,-9.67747 -0.85742,-11.84961 -0.0478,-2.17214 -0.84377,-3.94922 -1.76758,-3.94922 z m -241.58399,1.75586 c 0.99742,0 1.8125,0.79046 1.8125,1.75586 0,0.96539 -0.33857,1.7539 -0.7539,1.7539 -0.41533,0 -1.23238,-0.78851 -1.81446,-1.7539 -0.58209,-0.9654 -0.24155,-1.75586 0.75586,-1.75586 z m 129.30274,1.01953 c -1.81729,-0.0896 -3.01512,1.94381 -1.62696,4.24609 1.30412,2.16288 5.99415,2.33098 5.99414,0.21485 0,-0.84718 -1.08712,-2.46523 -2.41601,-3.59571 -0.67088,-0.57071 -1.34541,-0.83536 -1.95117,-0.86523 z m -114.54492,0.73633 c 1.46833,0 2.19341,0.7885 1.61132,1.7539 -0.58208,0.9654 -1.78367,1.75586 -2.66992,1.75586 -0.88625,0 -1.61133,-0.79046 -1.61133,-1.75586 0,-0.9654 1.2016,-1.7539 2.66993,-1.7539 z m -20.734379,0.8457 c 0.720859,0.003 1.412749,0.27293 1.779299,0.88086 0.59157,0.98114 -0.12541,1.7832 -1.593749,1.7832 -1.46833,0 -2.66992,-0.34771 -2.66992,-0.77344 0,-1.1579 1.28294,-1.89555 2.48437,-1.89062 z m 14.740239,0.9082 c 0.99742,0 1.33794,0.79047 0.75585,1.75586 -0.58208,0.9654 -1.39912,1.75586 -1.81445,1.75586 -0.41533,0 -0.75586,-0.79046 -0.75586,-1.75586 0,-0.96539 0.81705,-1.75586 1.81446,-1.75586 z m 15.31054,0 c 0.94183,0 1.71289,0.79047 1.71289,1.75586 0,0.9654 -0.77106,1.75586 -1.71289,1.75586 -0.94184,0 -1.71289,-0.79046 -1.71289,-1.75586 0,-0.96539 0.77105,-1.75586 1.71289,-1.75586 z m -36.917969,1.75586 c 0.41533,0 1.23237,0.79046 1.81446,1.75586 0.58208,0.96539 0.24156,1.75586 -0.75586,1.75586 -0.99741,0 -1.81446,-0.79047 -1.81446,-1.75586 0,-0.9654 0.34052,-1.75586 0.75586,-1.75586 z m 3.625,5.85742 c 0.4557,0.0462 0.75782,0.42156 0.75782,1.06055 0,1.02237 -0.77105,1.85938 -1.71289,1.85938 -0.94184,0 -1.7129,-0.34968 -1.7129,-0.7754 0,-0.42572 0.77107,-1.26077 1.7129,-1.85742 0.35319,-0.22374 0.68165,-0.31485 0.95507,-0.28711 z m 29.011719,1.16407 c 1.52392,0 2.29498,0.79045 1.71289,1.75586 -0.58208,0.9654 -1.35314,1.7539 -1.71289,1.7539 -0.35975,0 -1.1308,-0.7885 -1.71289,-1.7539 -0.58208,-0.96541 0.18897,-1.75586 1.71289,-1.75586 z m -20.44726,1.75586 c 1.46833,0 2.19341,0.7885 1.61132,1.7539 -0.58209,0.9654 -1.78367,1.75586 -2.66992,1.75586 -0.88625,0 -1.61133,-0.79046 -1.61133,-1.75586 0,-0.9654 1.20159,-1.7539 2.66993,-1.7539 z m -47.294929,1.7539 c -0.88625,0 -1.61132,0.79046 -1.61132,1.75586 0,0.96539 1.20158,1.75586 2.66992,1.75586 1.46833,0 2.19341,-0.79047 1.61133,-1.75586 -0.58209,-0.9654 -1.78369,-1.75586 -2.66993,-1.75586 z m 41.19922,0 c 0.94183,0 1.712889,0.79046 1.712889,1.75586 0,0.96539 -0.771059,1.75586 -1.712889,1.75586 -0.94183,0 -1.71093,-0.79047 -1.71093,-1.75586 0,-0.9654 0.7691,-1.75586 1.71093,-1.75586 z m 20.650389,0 c 0.99741,0 1.33794,0.79046 0.75586,1.75586 -0.58209,0.96539 -1.39912,1.75586 -1.81445,1.75586 -0.41533,0 -0.75391,-0.79047 -0.75391,-1.75586 0,-0.9654 0.81508,-1.75586 1.8125,-1.75586 z m -5.23828,1.75586 c 0.94183,0 1.71289,0.79046 1.71289,1.75586 0,0.9654 -0.77106,1.75391 -1.71289,1.75391 -0.94184,0 -1.71289,-0.78851 -1.71289,-1.75391 0,-0.9654 0.77105,-1.75586 1.71289,-1.75586 z m 15.25391,0 c 0.39413,0 0.23154,0.87754 -0.0937,2.63281 -0.35783,1.93079 -1.5391,3.51172 -2.625,3.51172 -1.08592,0 -2.55339,0.59236 -3.25977,1.31641 -1.31588,1.34879 -2.82369,0.66007 -2.56836,-1.17188 0.0785,-0.56314 0.4483,-0.82532 0.82032,-0.58398 0.37204,0.24135 2.38649,-1.14148 4.47851,-3.07227 1.90183,-1.75527 2.85391,-2.63281 3.24805,-2.63281 z m -22.10352,1.75586 c 0.94183,0 1.71289,1.18471 1.71289,2.63281 0,1.44809 -0.77106,2.63281 -1.71289,2.63281 -0.94184,0 -1.71289,-1.18472 -1.71289,-2.63281 0,-1.4481 0.77105,-2.63281 1.71289,-2.63281 z m -15.269529,0.2168 c 0.59489,-0.0251 1.2745,0.0863 1.89258,0.33984 1.36606,0.56031 0.95973,0.97633 -1.03516,1.06055 -1.80517,0.0762 -2.81705,-0.34055 -2.24804,-0.92383 0.28451,-0.29163 0.79573,-0.45145 1.39062,-0.47656 z M 54.972181,900.95 c -1.41275,0 -2.56836,0.312 -2.56836,0.6914 0,0.37942 1.15561,1.14351 2.56836,1.69922 1.41275,0.55568 2.56836,0.24563 2.56836,-0.68945 0,-0.93511 -1.15561,-1.70117 -2.56836,-1.70117 z m 31.74023,0.20117 c 1.26338,-0.0365 1.96829,1.3673 0.84961,3.22265 -0.6303,1.04536 -1.9318,1.40234 -2.89062,0.79493 -1.16958,-0.74093 -1.14001,-1.72184 0.08984,-2.98243 0.68684,-0.70402 1.37691,-1.01855 1.95117,-1.03515 z m -19.57031,0.35937 c 0.06902,0.0183 0.13201,0.0564 0.18945,0.11524 0.9852,1.00982 -9.28826,27.36308 -11.67773,29.95508 -0.84545,0.91713 -1.53711,3.1121 -1.53711,4.8789 0,1.76682 -1.98329,8.04069 -4.40625,13.94141 -5.65264,13.76611 -14.40578,47.82574 -14.41992,56.10943 -0.0148,8.6382 4.43141,13.8065 12.84961,14.9355 9.36092,1.2555 15.35637,-1.5307 20.9414,-9.7363 6.52281,-9.5834 15.47769,-13.66211 24.15235,-10.998 4.24069,1.3022 7.258119,3.5963 8.548819,6.5 3.15641,7.1008 2.30612,9.2567 -1.27539,3.2363 -6.257239,-10.51826 -19.120759,-8.5353 -29.191399,4.498 -7.87597,10.1931 -17.35703,12.0354 -31.58008,6.1368 -2.81531,-1.1676 -3.13183,-0.7141 -2.36524,3.3964 1.0833,5.8088 -2.03067,5.3221 -5.02539,-0.7851 -1.14234,-2.3297 -1.7437,-6.6098 -1.33789,-9.5137 0.40581,-2.9039 1.16467,-8.4392 1.68555,-12.3008 3.13818,-23.26426 30.10096,-101.52338 34.44922,-100.36916 z m 33.107419,1.19532 c 0.99742,0 1.81445,0.79045 1.81445,1.75585 0,0.96539 -0.34052,1.75586 -0.75586,1.75586 -0.41533,0 -1.2304,-0.79046 -1.812499,-1.75586 -0.58207,-0.9654 -0.24351,-1.75585 0.753909,-1.75585 z m -5.992189,1.75585 c 0.41533,0 1.23041,0.79047 1.8125,1.75586 0.58209,0.9654 0.24352,1.75391 -0.7539,1.75391 -0.99742,0 -1.81446,-0.78851 -1.81446,-1.75391 0,-0.96539 0.34053,-1.75586 0.75586,-1.75586 z m 21.505859,0 c 0.94184,0 1.71289,0.79047 1.71289,1.75586 0,0.9654 -0.77105,1.75391 -1.71289,1.75391 -0.94183,0 -1.71289,-0.78851 -1.71289,-1.75391 0,-0.96539 0.77106,-1.75586 1.71289,-1.75586 z m -27.398429,3.50977 c 0.94184,0 1.71289,0.79046 1.71289,1.75586 0,0.96539 -0.77105,1.75586 -1.71289,1.75586 -0.94183,0 -1.71289,-0.79047 -1.71289,-1.75586 0,-0.9654 0.77106,-1.75586 1.71289,-1.75586 z m 22.261709,0 c 0.94183,0 1.71094,0.79046 1.71094,1.75586 0,0.96539 -0.76911,1.75586 -1.71094,1.75586 -0.94183,0 -1.71289,-0.79047 -1.71289,-1.75586 0,-0.9654 0.77106,-1.75586 1.71289,-1.75586 z m -29.111319,3.51172 c 0.94184,0 1.71289,0.78852 1.71289,1.75391 0,0.9654 -0.77105,1.75586 -1.71289,1.75586 -0.94183,0 -1.71289,-0.79046 -1.71289,-1.75586 0,-0.96539 0.77106,-1.75391 1.71289,-1.75391 z m 16.47461,1.65625 c 0.76719,-0.0174 1.69155,0.66859 2.105459,1.94141 0.37673,1.15847 -0.240879,1.79045 -1.371089,1.40429 -1.13019,-0.38616 -1.99642,-1.27469 -1.92578,-1.97461 0.09267,-0.91821 0.5947,-1.35757 1.19141,-1.37109 z m 14.347649,0.0977 c 0.94184,0 1.71289,0.79045 1.71289,1.75586 0,0.96538 -0.77105,1.75585 -1.71289,1.75585 -0.94183,0 -1.71094,-0.79046 -1.71094,-1.75585 0,-0.96542 0.76911,-1.75586 1.71094,-1.75586 z m -20.548829,1.75586 c 0.94184,0 1.71289,0.79045 1.71289,1.75585 0,0.9654 -0.77105,1.75391 -1.71289,1.75391 -0.94183,0 -1.71093,-0.78851 -1.71093,-1.75391 0,-0.9654 0.7691,-1.75586 1.71093,-1.75585 z m -6.84961,3.50976 c 0.94183,0 1.71289,0.79046 1.7129,1.75586 0,0.96539 -0.77107,1.75586 -1.7129,1.75586 -0.94183,0 -1.71093,-0.79047 -1.71093,-1.75586 0,-0.9654 0.7691,-1.75586 1.71093,-1.75586 z m 35.960939,0 c 0.94183,0 1.71289,0.79046 1.71289,1.75586 0,0.96539 -0.77106,1.75586 -1.71289,1.75586 -0.94183,0 -1.71094,-0.79047 -1.71094,-1.75586 0,-0.9654 0.76911,-1.75586 1.71094,-1.75586 z m -19.38867,0.35938 c 0.35299,-0.0459 0.55273,0.20398 0.55273,0.7539 0,2.3429 -2.0251,4.41755 -3.167959,3.2461 -0.48662,-0.49877 0.0261,-1.84198 1.140619,-2.98438 0.61439,-0.62975 1.12162,-0.96976 1.47461,-1.01562 z m 12.30664,1.61523 c 1.65048,-0.16886 3.62484,1.92761 2.63672,3.56641 -0.72285,1.19885 -1.68033,1.16877 -2.91016,-0.0918 -1.00821,-1.03343 -1.35828,-2.36743 -0.77734,-2.96289 0.30597,-0.31363 0.6699,-0.47275 1.05078,-0.51172 z m -36.583979,1.53711 c 1.41275,0 2.56836,0.79047 2.56836,1.75586 0,0.9654 -1.15561,1.75391 -2.56836,1.7539 -1.41275,0 -2.56836,-0.7885 -2.56836,-1.7539 0,-0.96539 1.15561,-1.75586 2.56836,-1.75586 z m 17.22265,0.58984 c 0.4557,0.0462 0.75781,0.42157 0.75782,1.06055 0,1.02238 -0.77107,1.85937 -1.7129,1.85937 -0.94184,0 -1.71289,-0.34771 -1.71289,-0.77343 0,-0.42572 0.77105,-1.26273 1.71289,-1.85938 0.35319,-0.22374 0.68166,-0.31485 0.95508,-0.28711 z m 14.457029,1.16602 c 0.94183,0 1.71289,0.78851 1.71289,1.7539 0,0.96541 -0.77106,1.75586 -1.71289,1.75586 -0.94183,0 -1.71289,-0.79046 -1.71289,-1.75586 0,-0.96538 0.77106,-1.7539 1.71289,-1.7539 z m -21.558589,0.71289 c 0.42371,-0.0307 0.86141,0.0698 1.27539,0.33203 1.77103,1.12195 0.24413,4.2207 -2.08008,4.2207 -0.88624,0 -1.61133,-0.6584 -1.61133,-1.46289 0,-1.71413 1.14489,-2.99777 2.41602,-3.08984 z m 14.607419,1.04101 c 2.15934,0 3.706,2.7422 2.33789,4.14454 -1.92851,1.97674 -3.94922,1.20265 -3.94922,-1.51172 0,-1.44809 0.72509,-2.63282 1.61133,-2.63282 z m 15.6875,1.65626 c 1.07137,0.11381 1.61022,2.06917 0.53906,3.8457 -1.07887,1.78936 -1.48051,1.79156 -2.06054,0.008 -0.3966,-1.21954 -0.25652,-2.69603 0.3125,-3.2793 0.43518,-0.44606 0.85186,-0.61215 1.20898,-0.57421 z m -37.847649,1.85546 c 0.94183,0 1.71289,0.78852 1.71289,1.75391 0,0.9654 -0.77106,1.75586 -1.71289,1.75586 -0.94184,0 -1.7129,-0.79046 -1.71289,-1.75586 0,-0.96539 0.77105,-1.75391 1.71289,-1.75391 z m 15.41211,0 c 0.94184,0 1.71289,0.78852 1.71289,1.75391 0,0.9654 -0.77106,1.75586 -1.71289,1.75586 -0.94184,0 -1.7129,-0.79046 -1.7129,-1.75586 0,-0.96539 0.77106,-1.75391 1.7129,-1.75391 z m -6.09571,1.75391 c 0.41533,0 1.23237,0.79046 1.81445,1.75586 0.58209,0.96539 0.24157,1.75586 -0.75585,1.75586 -0.99741,0 -1.8125,-0.79047 -1.8125,-1.75586 0,-0.9654 0.33857,-1.75586 0.7539,-1.75586 z m 21.406249,0 c 0.99742,0 1.8125,0.79046 1.8125,1.75586 0,0.96539 -0.33857,1.75586 -0.7539,1.75586 -0.41533,0 -1.23237,-0.79047 -1.81446,-1.75586 -0.58209,-0.9654 -0.24156,-1.75586 0.75586,-1.75586 z m -38.328119,1.75586 c 1.46834,0 2.19341,0.79046 1.61132,1.75586 -0.58208,0.9654 -1.78368,1.7539 -2.66992,1.75391 -0.88626,0 -1.61132,-0.78851 -1.61132,-1.75391 0,-0.9654 1.20159,-1.75586 2.66992,-1.75586 z m 33.392579,0 c 0.88623,0 1.61132,0.79046 1.61132,1.75586 0,0.9654 -1.20158,1.7539 -2.66992,1.75391 -1.46833,0 -2.19341,-0.78851 -1.61133,-1.75391 0.5821,-0.9654 1.78367,-1.75586 2.66993,-1.75586 z m -24.175789,1.75586 c 2.15933,0 3.706,2.74025 2.33789,4.14258 -1.92851,1.97675 -3.94921,1.20459 -3.94921,-1.50977 0,-1.4481 0.72506,-2.63281 1.61132,-2.63281 z m 17.22461,1.75391 c 0.94183,0 1.712889,0.79044 1.712889,1.75585 0,0.96539 -0.771059,1.75586 -1.712889,1.75586 -0.94183,0 -1.71093,-0.79047 -1.71093,-1.75586 0,-0.96541 0.7691,-1.75586 1.71093,-1.75585 z m 38.632819,0.55078 c 0.0872,-0.0118 0.16794,0.0196 0.24218,0.0957 1.33031,1.36359 -3.04175,25.68359 -4.61718,25.68359 -0.76713,0 -1.01543,-3.35799 -0.55079,-7.46093 0.95592,-8.44076 3.61811,-18.14195 4.92579,-18.31836 z m -62.605469,1.20507 c 0.94183,0 1.71289,1.18472 1.71289,2.63282 0,1.44809 -0.77106,2.63281 -1.71289,2.63281 -0.94183,0 -1.71289,-1.18472 -1.71289,-2.63281 0,-1.4481 0.77106,-2.63282 1.71289,-2.63282 z m 17.12304,0 c 0.94184,0 1.71289,0.79046 1.71289,1.75586 0,0.9654 -0.77105,1.75391 -1.71289,1.75391 -0.94183,0 -1.71093,-0.78851 -1.71093,-1.75391 0,-0.9654 0.7691,-1.75586 1.71093,-1.75586 z m 15.412109,1.75586 c 0.94183,0 1.71289,0.78851 1.71289,1.75391 0,0.9654 -0.77106,1.75586 -1.71289,1.75586 -0.94184,0 -1.71289,-0.79046 -1.71289,-1.75586 0,-0.9654 0.77105,-1.75391 1.71289,-1.75391 z m -22.261719,1.75391 c 0.94183,0 1.7129,0.79046 1.7129,1.75586 0,0.96539 -0.77107,1.75586 -1.7129,1.75586 -0.94183,0 -1.71093,-0.79047 -1.71093,-1.75586 0,-0.9654 0.7691,-1.75586 1.71093,-1.75586 z m 15.310549,0 c 2.15934,0 3.706,2.7422 2.33789,4.14453 -1.92851,1.97675 -3.949219,1.20461 -3.949219,-1.50976 0,-1.4481 0.72509,-2.63477 1.611329,-2.63477 z m -32.433589,1.75586 c 0.94184,0 1.71093,0.79046 1.71094,1.75586 0,0.9654 -0.7691,1.75586 -1.71094,1.75586 -0.94183,0 -1.71289,-0.79046 -1.71289,-1.75586 0,-0.9654 0.77106,-1.75586 1.71289,-1.75586 z m 10.375,1.75586 c 0.88625,0 1.61133,0.79046 1.61133,1.75586 0,0.9654 -1.20159,1.7539 -2.66993,1.7539 -1.46833,0 -2.19341,-0.7885 -1.61132,-1.7539 0.58209,-0.9654 1.78368,-1.75586 2.66992,-1.75586 z m 15.31054,0 c 0.94183,0 1.7129,0.79046 1.7129,1.75586 0,0.9654 -0.77107,1.7539 -1.7129,1.7539 -0.94184,0 -1.71289,-0.7885 -1.71289,-1.7539 0,-0.9654 0.77105,-1.75586 1.71289,-1.75586 z m 17.124999,1.75586 c 0.94183,0 1.71094,0.78851 1.71094,1.7539 0,0.9654 -0.76911,1.75586 -1.71094,1.75586 -0.94183,0 -1.71289,-0.79046 -1.71289,-1.75586 0,-0.96539 0.77106,-1.7539 1.71289,-1.7539 z m -23.974599,1.7539 c 0.94183,0 1.71289,0.79046 1.71289,1.75586 0,0.96539 -0.77106,1.75586 -1.71289,1.75586 -0.94184,0 -1.7129,-0.79047 -1.7129,-1.75586 0,-0.9654 0.77106,-1.75586 1.7129,-1.75586 z m 17.388669,0.22071 c 0.34263,0.0154 0.64695,0.12949 0.87695,0.36523 1.22662,1.25734 -0.93466,4.67969 -2.95508,4.67969 -0.88624,0 -1.61133,-0.74197 -1.61133,-1.65039 0,-1.68266 2.20471,-3.46133 3.68946,-3.39453 z m -33.554689,1.53515 c 1.46833,0 2.19341,0.79046 1.61133,1.75586 -0.5821,0.9654 -1.78368,1.75391 -2.66992,1.75391 -0.88625,0 -1.61133,-0.78851 -1.61133,-1.75391 0,-0.9654 1.20158,-1.75586 2.66992,-1.75586 z m 9.31641,1.75586 c 0.94183,0 1.71289,0.78852 1.71289,1.75391 0,0.9654 -0.77106,1.75586 -1.71289,1.75586 -0.94184,0 -1.7129,-0.79046 -1.71289,-1.75586 0,-0.96539 0.77105,-1.75391 1.71289,-1.75391 z m 16.47656,0.68164 c 0.20802,-0.007 0.43648,0.0613 0.67578,0.21289 0.9572,0.60638 1.29774,1.83763 0.75586,2.73633 -1.46794,2.43463 -2.49609,1.98162 -2.49609,-1.10156 0,-1.1288 0.44037,-1.82612 1.06445,-1.84766 z m -23.32617,2.82813 c 0.94182,0 1.71289,1.18472 1.71289,2.63281 0,1.44809 -0.77107,2.63281 -1.71289,2.63281 -0.94184,0 -1.71289,-1.18472 -1.71289,-2.63281 0,-1.44809 0.77105,-2.63281 1.71289,-2.63281 z m 16.16601,0 c 1.46833,0 2.66992,0.79046 2.66992,1.75586 0,0.9654 -0.72506,1.7539 -1.61132,1.7539 -0.88624,0 -2.08784,-0.7885 -2.66993,-1.7539 -0.58208,-0.9654 0.14299,-1.75586 1.61133,-1.75586 z m 17.226559,1.75586 c 1.41275,0 2.56836,0.78851 2.56836,1.7539 0,0.9654 -1.15561,1.75586 -2.56836,1.75586 -1.41275,0 -2.56836,-0.79046 -2.56835,-1.75586 0,-0.96539 1.1556,-1.7539 2.56835,-1.7539 z m -23.117179,1.7539 c 0.94183,0 1.71093,0.79046 1.71093,1.75586 0,0.96539 -0.7691,1.75586 -1.71093,1.75586 -0.94184,0 -1.71289,-0.79047 -1.71289,-1.75586 0,-0.9654 0.77105,-1.75586 1.71289,-1.75586 z m 16.19336,0.6836 c 0.36736,-0.0157 0.741619,0.0752 1.076169,0.28711 0.89212,0.56514 1.1705,1.77696 0.61914,2.6914 -0.55136,0.91444 -1.730929,1.19993 -2.623049,0.63477 -0.89212,-0.56514 -1.17245,-1.77697 -0.62109,-2.69141 0.34459,-0.57152 0.93656,-0.89576 1.54883,-0.92187 z m -34.17383,0.80859 c 0.89474,0 1.90275,0.84892 2.24023,1.88672 0.3375,1.0378 -0.6705,1.88867 -2.24023,1.88867 -1.56973,0 -2.57969,-0.85087 -2.24219,-1.88867 0.33749,-1.0378 1.34745,-1.88672 2.24219,-1.88672 z m 11.13086,2.01953 c 0.94183,0 1.71094,0.79046 1.71094,1.75586 0,0.9654 -0.76911,1.75391 -1.71094,1.75391 -0.94183,0 -1.71289,-0.78851 -1.71289,-1.75391 0,-0.9654 0.77106,-1.75586 1.71289,-1.75586 z m 16.26758,0 c 1.41276,0 2.56835,0.79046 2.56836,1.75586 0,0.9654 -1.1556,1.75391 -2.56836,1.75391 -1.41275,0 -2.56836,-0.78851 -2.56836,-1.75391 0,-0.9654 1.15561,-1.75586 2.56836,-1.75586 z m -23.11914,3.50977 c 0.94183,0 1.71289,0.79046 1.71289,1.75586 0,0.9654 -0.77106,1.75586 -1.71289,1.75586 -0.94185,0 -1.71094,-0.79046 -1.71094,-1.75586 0,-0.9654 0.7691,-1.75586 1.71094,-1.75586 z m 17.125,0 c 0.94183,0 1.71289,0.79046 1.71289,1.75586 0,0.9654 -0.77106,1.75586 -1.71289,1.75586 -0.94184,0 -1.7129,-0.79046 -1.7129,-1.75586 0,-0.9654 0.77106,-1.75586 1.7129,-1.75586 z m 15.324209,0.32031 c 0.13206,0.008 0.2684,0.0343 0.40821,0.082 3.17521,1.08487 3.70175,4.86328 0.67773,4.86328 -1.49123,0 -2.71094,-1.25075 -2.71094,-2.77929 0,-1.33749 0.7006,-2.22159 1.625,-2.16602 z m -22.173819,3.19141 c 0.94183,0 1.71289,0.78851 1.71289,1.7539 0,0.96541 -0.77106,1.75586 -1.71289,1.75586 -0.94184,0 -1.71289,-0.79045 -1.71289,-1.75586 0,-0.96539 0.77105,-1.7539 1.71289,-1.7539 z m 15.31054,0 c 0.88625,0 2.08783,0.78851 2.66992,1.7539 0.58208,0.96541 -0.14298,1.75586 -1.61132,1.75586 -1.46833,0 -2.66993,-0.79045 -2.66993,-1.75586 0,-0.96539 0.72508,-1.7539 1.61133,-1.7539 z m -33.1914,2.3457 c 0.45569,0.0462 0.75586,0.42156 0.75586,1.06055 0,1.02238 -0.76911,1.85937 -1.71094,1.85937 -0.94183,0 -1.71289,-0.34966 -1.71289,-0.77539 0,-0.42572 0.77106,-1.26077 1.71289,-1.85742 0.35318,-0.22374 0.68166,-0.31485 0.95508,-0.28711 z m 27.19726,1.16406 c 1.46833,0 2.66992,0.79046 2.66992,1.75586 0,0.9654 -0.72506,1.75391 -1.61132,1.75391 -0.88624,0 -2.08784,-0.78851 -2.66993,-1.75391 -0.58208,-0.9654 0.14299,-1.75586 1.61133,-1.75586 z m -6.55664,2.42774 c 0.20469,-0.009 0.43056,0.0559 0.66602,0.20508 0.94183,0.59665 1.71093,1.8279 1.71093,2.73632 0,0.90843 -0.7691,1.65235 -1.71093,1.65235 -0.94184,0 -1.71289,-1.23126 -1.71289,-2.73633 0,-1.1288 0.4328,-1.82955 1.04687,-1.85742 z m 16.07617,1.08203 c 0.94183,0 1.712889,0.79046 1.712889,1.75586 0,0.96539 -0.771059,1.75586 -1.712889,1.75586 -0.94183,0 -1.71093,-0.79047 -1.71093,-1.75586 0,-0.9654 0.7691,-1.75586 1.71093,-1.75586 z m -5.03515,3.51172 c 0.99742,0 1.33794,0.79047 0.75586,1.75586 -0.58209,0.9654 -1.39913,1.7539 -1.81446,1.7539 -0.41534,0 -0.75586,-0.7885 -0.75586,-1.7539 0,-0.96539 0.81705,-1.75586 1.81446,-1.75586 z m -34.58399,1.97461 c 1.65048,-0.16886 3.62484,1.92566 2.63672,3.56445 -0.72284,1.19885 -1.68032,1.16877 -2.91016,-0.0918 -1.0082,-1.03342 -1.35828,-2.36547 -0.77734,-2.96093 0.30597,-0.31363 0.6699,-0.47276 1.05078,-0.51172 z m 20.88477,5.04687 c 0.99741,0 1.33599,0.78852 0.7539,1.75391 -0.58209,0.9654 -1.39717,1.75586 -1.8125,1.75586 -0.41533,0 -0.75585,-0.79046 -0.75585,-1.75586 0,-0.96539 0.81703,-1.75391 1.81445,-1.75391 z m 50.595699,8.77539 c 0.84256,8e-5 1.53125,6.08621 1.53125,13.52341 0,12.9035 -0.19607,13.5815 -4.28125,14.834 -7.34191,2.2511 -18.90972,0.4326 -22.83398,-3.5898 -2.94799,-3.0218 -3.10795,-3.7051 -0.87305,-3.7051 1.50673,0 3.69861,1.1867 4.87109,2.6348 2.44712,3.0223 13.97834,3.542 18.88282,0.8515 2.85388,-1.5655 3.12093,-3.1538 2.20898,-13.164 -0.57551,-6.3174 -0.35598,-11.38489 0.49414,-11.38481 z m -74.671869,7.02151 c 0.94184,0 1.71289,0.7904 1.71289,1.7558 0,0.9654 -0.77105,1.7539 -1.71289,1.7539 -0.94183,0 -1.71094,-0.7885 -1.71094,-1.7539 0,-0.9654 0.76911,-1.7558 1.71094,-1.7558 z m -42.810551,3.5097 c 0.94183,0 1.712891,0.7905 1.712891,1.7559 0,0.9654 -0.771061,1.7559 -1.712891,1.7559 -0.941837,0 -1.710937,-0.7905 -1.710937,-1.7559 0,-0.9654 0.7691,-1.7559 1.710937,-1.7559 z m 70.769531,10.7754 c 0.22386,0.01 0.46511,0.041 0.72461,0.092 4.38537,0.8657 3.65761,5.3617 -1.2832,7.9239 -5.19474,2.6938 -8.01395,2.8494 -9.41993,0.5175 -0.60024,-0.9955 0.83888,-1.7558 3.32422,-1.7558 3.29218,0 4.38282,-0.9046 4.38282,-3.6387 0,-2.206 0.70448,-3.1995 2.27148,-3.1387 z"
       id="path2950"
       inkscape:connector-curvature="0" />
    <path
       d="m 472.17312,909.20445 c -0.90988,-2.58857 -2.22765,-4.70649 -2.94935,-4.70649 -3.81227,0 -6.22819,-5.42815 -6.22819,-13.96258 0,-9.88363 -0.95708,-12.03293 -4.17311,-9.36592 -1.31778,1.09818 -2.10228,5.13007 -2.10228,10.74649 0,8.11085 -0.53335,9.58555 -5.38104,14.71562 -6.55775,6.94992 -12.59767,7.71864 -14.08819,1.78847 -0.62744,-2.51013 -2.08643,-3.92208 -4.06318,-3.92208 -3.45142,0 -4.45547,-2.93371 -5.08299,-14.90388 -0.29812,-5.74192 -1.03542,-7.84415 -2.76117,-7.84415 -1.75703,0 -2.55714,2.47875 -3.1377,9.67968 -0.65888,8.20498 -1.44323,10.19739 -5.09859,13.05266 -2.36896,1.86691 -4.31434,4.39273 -4.31434,5.61641 0,3.71813 -10.54252,2.94941 -11.7506,-0.84716 -0.54903,-1.71003 -2.88654,-4.01621 -5.20845,-5.11439 -4.12607,-1.97672 -4.23584,-2.43169 -5.19285,-20.04964 -0.53343,-9.91501 -1.06678,-18.9201 -1.17664,-20.01827 -0.15682,-1.58452 -11.10723,-1.97673 -51.84977,-1.88261 l -51.64598,0.10982 -1.61581,4.62806 c -0.8786,2.5415 -2.29047,4.62804 -3.1377,4.62804 -3.875,0 -6.47926,-2.21205 -6.47926,-5.50659 0,-3.46712 -0.64321,-3.65537 -15.29604,-4.51823 -55.62603,-3.32592 -63.33529,-5.20852 -76.15259,-18.57495 -9.83659,-10.26015 -14.8631,-20.48892 -16.81008,-34.21304 -2.5901,-18.26589 0.8802,-33.79574 10.39202,-46.5064 2.05516,-2.74702 3.7369,-5.22891 3.7369,-5.51601 0,-0.28709 -8.79797,-0.65263 -19.55076,-0.81265 -10.75271,-0.16003 -22.49067,-1.08249 -26.08498,-2.05046 -4.65158,-1.25193 -7.02054,-1.2739 -8.2175,-0.0769 -2.21037,2.21047 -9.75969,2.15243 -13.37113,-0.10198 -2.31087,-1.44333 -4.21384,-0.9915 -9.92124,2.35324 -3.884439,2.27637 -9.471099,4.16054 -12.415729,4.18878 -2.94471,0.0267 -6.72402,1.08563 -8.39848,2.35325 -1.67486,1.26604 -4.94001,2.30304 -7.25576,2.30304 -4.66054,0 -5.07956,-1.0825 -6.99653,-18.06195 -0.63881,-5.65876 -0.34893,-12.09253 0.72473,-16.08049 1.49828,-5.56466 2.42817,-6.64714 5.70684,-6.64714 2.15421,0 5.48033,1.00405 7.39139,2.23087 1.91089,1.22683 6.80874,2.71565 10.88296,3.30866 4.60925,0.67147 9.003519,2.55877 11.632909,4.99516 3.92364,3.63655 4.64525,3.77774 10.10174,1.97673 3.23171,-1.06681 7.65582,-1.49353 9.83019,-0.94757 2.17284,0.54595 5.91134,0.2463 8.30542,-0.66362 2.85686,-1.08563 38.09754,-1.74925 102.48226,-1.9281 53.95205,-0.14903 110.64958,-0.49575 125.96138,-0.77029 26.41911,-0.47222 27.84666,-0.65421 27.84666,-3.56595 0,-2.20264 1.06686,-3.06706 3.81226,-3.06706 2.44745,0 4.17312,-1.1327 4.81632,-3.13766 0.54912,-1.72572 1.63166,-3.13767 2.40032,-3.13767 1.97674,0 0.98837,-12.50357 -1.08254,-13.82295 -2.79245,-1.76964 -4.1888,-11.11988 -2.05508,-13.69589 2.5257,-3.03568 16.17455,-3.07491 18.68473,-0.055 2.43168,2.92744 0.51767,13.45428 -2.43169,13.45428 -1.53748,0 -2.18069,2.08183 -2.18069,7.05974 0,4.96534 0.64321,7.05973 2.16501,7.05973 1.19232,0 2.54154,1.41194 2.99648,3.13767 0.50199,1.9171 2.13356,3.13766 4.20448,3.13766 2.68268,0 3.18474,0.66047 2.40024,3.13765 -0.54904,1.72571 -0.32949,3.13767 0.50206,3.13767 0.81587,0 1.85121,-1.41196 2.30615,-3.13767 0.45502,-1.72571 2.11796,-3.14237 3.71818,-3.15021 6.41645,-0.0266 8.95799,-15.77145 4.15735,-25.82451 -2.52578,-5.31519 -2.5101,-5.64622 0.39229,-7.84728 4.6751,-3.52674 16.75503,-3.10629 19.1083,0.66675 1.20792,1.92966 1.34922,3.41691 0.37645,4.01463 -0.84707,0.52242 -1.53741,2.32031 -1.53741,3.99424 0,1.67551 -1.06678,3.0451 -2.35319,3.0451 -1.78848,0 -2.35327,1.9281 -2.35327,7.93671 0,5.22578 0.56479,7.58372 1.67862,6.90128 0.90988,-0.56947 2.05524,0.44712 2.52586,2.26069 0.50198,1.87789 2.13356,3.29611 3.82795,3.29611 2.1022,0 2.94935,1.12642 2.94935,3.92208 0,2.15714 0.70601,3.92208 1.56885,3.92208 0.86283,0 1.56885,-1.36489 1.56885,-3.03256 0,-1.77591 1.45899,-3.47966 3.52982,-4.1166 6.13418,-1.8826 9.0208,-6.30513 9.0208,-13.7963 0,-4.43822 -0.78434,-7.25583 -2.14924,-7.78139 -2.71412,-1.04171 -4.07902,-7.83475 -2.22782,-11.12929 1.58461,-2.84272 17.60226,-3.64124 19.2652,-0.96012 1.63158,2.64034 -0.97261,12.57731 -3.29452,12.57731 -1.56884,0 -2.18069,2.19009 -2.18069,7.79552 0,6.06196 0.48639,7.60569 2.21214,6.94521 1.33346,-0.50987 2.61987,0.45182 3.24739,2.42071 2.10228,6.62359 8.28342,8.0073 32.52192,7.26682 61.16869,-1.86848 168.42958,-7.55706 209.25053,-11.09634 14.59018,-1.26605 31.47074,-2.70937 37.51074,-3.20826 36.16145,-2.99019 67.42824,-11.19674 90.08221,-23.64854 16.62957,-9.14157 27.87803,-18.6628 31.37657,-26.55245 3.98477,-9.02093 7.35778,-10.37671 12.07993,-4.872 6.84011,7.95444 9.60135,26.09592 10.71518,70.57539 1.08254,42.36468 -2.46305,74.71395 -9.31884,85.16236 -3.68681,5.6321 -6.88723,4.5653 -10.46411,-3.5079 -4.09462,-9.27649 -10.79359,-15.22549 -27.7212,-24.64947 -27.23498,-15.1674 -51.88122,-20.7289 -99.63644,-22.48913 l -27.98796,-1.03072 1.11399,14.05201 c 0.97261,12.56476 -0.10994,23.93878 -3.40446,35.47753 -1.42755,5.03437 3.24756,2.79094 8.31479,-3.97072 4.43979,-5.93174 7.0911,-10.94259 10.95041,-20.73836 0.97269,-2.44424 1.36491,-1.69277 1.77288,3.4075 0.39213,4.7614 -1.19232,11.123 -5.80477,23.33948 -6.46358,17.163 -11.34255,23.65796 -22.30865,29.71365 -2.29062,1.25507 -5.75772,4.84769 -7.68734,7.98535 -3.81226,6.1655 -11.4524,11.62503 -16.26872,11.64071 -1.66294,0 -4.23592,-1.11387 -5.74196,-2.46306 -2.44737,-2.21205 -13.0683,-2.35325 -104.06047,-1.33351 l -101.33067,1.14524 v 20.31636 c 0,19.67312 -0.12561,20.41047 -3.82794,23.3285 -2.10228,1.66296 -4.26729,4.40841 -4.8164,6.11843 -0.69026,2.16499 -2.38456,3.0906 -5.6634,3.0906 -3.79666,0 -4.9889,-0.89423 -6.32252,-4.70649 z m 9.35029,-1.97672 c 0.39221,-2.02379 -0.51775,-2.72977 -3.51423,-2.72977 -4.39266,0 -4.48684,0.12551 -3.04345,3.87501 1.23937,3.24748 5.86734,2.44738 6.55768,-1.14524 z m -71.30332,-0.37652 c 0.65889,-1.69434 -0.17258,-2.35325 -2.96503,-2.35325 -2.4004,0 -3.87508,0.89424 -3.87508,2.35325 0,1.30213 1.33354,2.35324 2.9652,2.35324 1.63149,0 3.37292,-1.05111 3.87491,-2.35324 z m 36.08312,0 c 0.67457,-1.75709 -0.251,-2.35325 -3.7025,-2.35325 -3.45141,0 -4.37698,0.59616 -3.70233,2.35325 0.48631,1.30213 2.16493,2.35324 3.70233,2.35324 1.53749,0 3.20043,-1.05111 3.7025,-2.35324 z m -27.2349,-9.31885 c 0,-2.90234 -2.61995,-4.54961 -3.90644,-2.47875 -1.38051,2.24342 -6.65185,1.99241 -7.60877,-0.36083 -0.59616,-1.47471 -1.20792,-1.38058 -2.46305,0.3922 -1.12959,1.60021 -1.66294,1.72572 -1.6787,0.39221 -0.016,-1.12956 -2.02379,-1.96104 -4.73791,-1.96104 -3.65537,0 -4.70639,0.70598 -4.70639,3.13766 0,2.87096 1.05102,3.13766 12.55055,3.13766 9.88371,0 12.55071,-0.48633 12.55071,-2.25911 z m 34.51426,-0.87855 c 0,-1.72571 -0.70593,-3.13766 -1.56885,-3.13766 -0.86283,0 -1.56884,0.70598 -1.56884,1.56883 0,2.27481 -5.86734,1.92966 -6.80875,-0.3922 -0.59608,-1.47471 -1.208,-1.38058 -2.46305,0.3922 -1.12951,1.60021 -1.66294,1.72572 -1.67862,0.39221 -0.0464,-2.69839 -7.34209,-2.47875 -8.37759,0.23532 -1.34922,3.4985 0.34516,4.07896 11.7506,4.07896 9.664,0 10.7151,-0.29807 10.7151,-3.13766 z m 36.08304,0 c 0,-1.7414 -1.05102,-3.13766 -2.35327,-3.13766 -1.3021,0 -2.35312,0.70598 -2.35312,1.56883 0,0.86286 -1.41203,1.56883 -3.13777,1.56883 -1.72567,0 -3.13762,-0.70597 -3.13762,-1.56883 0,-0.86285 -0.70594,-1.56883 -1.56877,-1.56883 -0.86291,0 -1.56893,1.11387 -1.56893,2.46307 0,2.24342 -0.21955,2.24342 -2.46305,0 -3.01216,-3.01216 -6.94988,-3.21611 -6.94988,-0.37652 0,3.60831 1.78848,4.18877 12.81738,4.18877 9.66401,0 10.71503,-0.29807 10.71503,-3.13766 z m -70.97383,-16.86492 c -0.1569,-6.68322 0.26675,-13.74295 0.94124,-15.6883 0.76882,-2.21205 0.59624,-3.52987 -0.45494,-3.52987 -0.92556,0 -1.67862,1.36489 -1.67862,3.04353 0,1.67865 -0.70594,3.48281 -1.56877,4.0162 -0.86291,0.53341 -1.56893,5.52229 -1.56893,11.07595 0,9.05215 -0.3294,10.10326 -3.13762,10.10326 -2.87094,0 -3.13761,-1.05111 -3.13761,-12.03292 0,-6.60478 -0.42358,-11.59366 -0.94133,-11.07594 -0.86283,0.86285 -1.27081,4.64373 -1.94538,18.01017 -0.14121,2.8082 -0.957,5.09869 -1.81984,5.09869 -0.8942,0 -1.56877,-4.75355 -1.56877,-11.15438 0,-9.5228 -0.36084,-10.99749 -2.47873,-10.1974 -1.3649,0.53341 -3.13777,0.95699 -3.92212,0.95699 -0.8001,0 -1.44331,5.30265 -1.44331,11.76623 v 11.76622 h 12.50358 12.5035 z m 34.85935,6.27532 c 0,-3.23179 -0.70593,-6.93423 -1.53741,-8.23636 -1.1139,-1.72571 -1.52172,-0.56478 -1.53748,4.31429 -0.032,5.61641 -0.53335,6.66752 -3.16898,6.66752 -2.8867,0 -3.1377,-1.05111 -3.1377,-13.24092 0,-18.60632 -3.04352,-19.10835 -3.4671,-0.58047 l -0.31372,14.60581 -0.51775,-13.72726 c -0.40789,-10.36997 -1.06686,-13.72727 -2.69836,-13.72727 -1.19232,0 -3.27883,-0.42358 -4.64373,-0.95699 -3.04361,-1.16093 -3.42014,5.02026 -0.65897,11.07595 1.30217,2.87096 1.34922,5.03594 0.1569,7.6402 -0.90996,2.0081 -1.28641,5.53797 -0.84715,7.84415 0.78434,4.07896 1.12951,4.20446 11.6093,4.20446 h 10.79359 l -0.032,-5.88311 z m 36.14592,-12.94285 c 0.8942,-19.34367 0.42358,-25.57193 -1.77279,-24.20704 -0.76867,0.47065 -1.39627,9.28747 -1.39627,19.59468 0,10.3229 -0.6432,18.73183 -1.44331,18.73183 -0.78443,0 -2.5885,0.43927 -4.00053,0.98837 -2.30615,0.87854 -2.44737,-0.76873 -1.47468,-17.06887 1.08247,-18.18274 0.31372,-26.2779 -2.52585,-26.2779 -0.92557,0 -1.53749,8.73838 -1.53749,22.23032 0,12.22118 -0.39213,21.82242 -0.87844,21.33608 -0.48646,-0.47065 -1.01973,-24.06585 -1.17663,-52.41461 l -0.29804,-51.55019 -4.45555,-0.50987 c -3.95349,-0.45181 -4.33002,-0.12079 -3.37293,2.91175 0.59608,1.8826 1.05102,26.32183 1.01965,54.30976 l -0.0784,50.89285 11.29558,-0.47065 11.2799,-0.45496 z m -60.85496,3.92208 c 1.92961,-2.60426 1.41202,-3.12197 -3.49847,-3.46712 -3.59264,-0.25101 -4.70654,0.32946 -4.70654,2.47876 0,3.05921 6.14993,3.81225 8.20501,0.98836 z m 35.34581,-1.96104 c 0.95693,-2.93371 -6.94996,-2.44737 -8.07955,0.50203 -0.7217,1.91397 -0.016,2.33755 3.24755,1.96103 2.30615,-0.28239 4.47115,-1.38057 4.832,-2.46306 z m -10.41706,-13.19386 c -0.70602,-9.88363 -3.04361,-6.43221 -3.21619,4.75356 -0.0784,5.31833 0.32956,6.49495 1.85137,5.23989 1.27073,-1.05112 1.75703,-4.5653 1.36482,-9.99345 z m -25.58764,3.78088 c 0.40789,-4.22015 0.0624,-4.73786 -2.74541,-4.00051 -2.03947,0.53339 -3.23187,2.11792 -3.23187,4.31428 0,7.40487 5.23998,7.13817 5.97728,-0.31377 z m 35.17323,-0.20395 c -0.51775,-3.52986 -1.31793,-4.34566 -3.65536,-3.73381 -1.88265,0.48634 -2.98088,2.16498 -2.98088,4.51823 0,2.87096 0.84715,3.73381 3.65537,3.73381 3.12201,0 3.54559,-0.64322 2.98087,-4.51823 z m -182.34519,1.47471 c 0,-2.13361 -2.76109,-3.52987 -3.76514,-1.89829 -0.94124,1.50608 0.40782,3.37298 2.46305,3.37298 0.70601,0 1.30209,-0.65891 1.30209,-1.47469 z m 133.35052,-3.40437 c 0,-0.76873 -1.0667,-1.39626 -2.35319,-1.39626 -1.30217,0 -2.35319,1.03543 -2.35319,2.30618 0,1.39626 0.92556,1.94535 2.35319,1.39626 1.28649,-0.48633 2.35319,-1.52177 2.35319,-2.30618 z m 291.14349,-11.15438 c 3.37301,-1.53745 5.25566,-4.36135 2.90238,-4.36135 -4.72222,0 -10.90344,8.33049 -8.72275,11.76623 0.53343,0.86286 1.22376,-0.0628 1.50612,-2.05517 0.28243,-1.97673 2.21205,-4.39272 4.31425,-5.34971 z m 4.78503,3.95345 c -1.30225,-1.30213 -5.69491,0.76873 -5.69491,2.66701 0,1.16094 1.00405,1.14525 3.27883,-0.0628 1.78848,-0.97267 2.88671,-2.14929 2.41608,-2.60425 z m -415.15956,1.28644 c 0,-0.76872 -1.41195,-1.75709 -3.13762,-2.21205 -3.09057,-0.8001 -4.14175,0.48634 -2.08652,2.54151 1.52165,1.52176 5.22414,1.28644 5.22414,-0.32946 z m 7.84416,-6.46358 c 0,-6.79303 -0.42358,-7.84414 -3.13762,-7.84414 -2.71412,0 -3.13769,1.05111 -3.13769,7.84414 0,6.79304 0.42357,7.84415 3.13769,7.84415 2.71404,0 3.13762,-1.05111 3.13762,-7.84415 z m 76.87269,6.4322 c 0,-2.05516 -11.43671,-2.57288 -45.30786,-2.02379 -17.3199,0.28239 -29.99598,1.11388 -29.99598,1.96104 0,0.87855 15.21762,1.4747 37.65188,1.4747 21.36748,0 37.65196,-0.61184 37.65196,-1.41195 z m 18.9358,-0.20394 c 3.43566,-1.85122 4.12599,-9.20903 1.14519,-12.18981 -1.03541,-1.03542 -5.27126,-1.88259 -9.41293,-1.88259 -6.47926,0 -7.53044,0.43927 -7.53044,3.13765 0,2.71408 1.05118,3.13766 7.84416,3.13766 7.62454,0 9.88364,1.63159 5.88311,4.22016 -1.08247,0.70597 -3.02777,1.34919 -4.31426,1.42763 -1.30217,0.0941 -3.9378,0.26671 -5.8831,0.39221 -1.94538,0.1255 -3.52991,0.9413 -3.52991,1.80415 0,2.07086 11.90742,2.02379 15.79818,-0.047 z m 11.31126,-0.4079 c 0.4235,-1.11387 -0.10993,-3.24748 -1.20808,-4.73786 -1.83552,-2.51014 -2.05507,-2.44738 -2.93367,0.84717 -0.53343,1.96104 -0.97261,4.09464 -0.98837,4.73786 -0.032,2.0081 4.31434,1.28644 5.13012,-0.84717 z m 5.83606,0.36084 c 0,-0.90993 -0.70601,-1.22369 -1.56893,-0.69029 -0.86283,0.5334 -1.56877,1.28644 -1.56877,1.66296 0,0.37652 0.70594,0.69028 1.56877,0.69028 0.86292,0 1.56893,-0.75303 1.56893,-1.66295 z m 10.98178,-0.0628 c 0,-0.59615 -1.58453,-1.50607 -3.52991,-2.03948 -6.55775,-1.78847 -10.44835,-6.51065 -11.29558,-13.69589 -0.53335,-4.51823 -0.39221,-5.52228 0.40789,-2.9494 1.11391,3.57694 9.93076,10.9975 13.08406,10.9975 2.18069,0 1.5218,-4.73787 -1.01973,-7.27936 -1.3021,-1.30215 -2.35328,-3.31025 -2.35328,-4.48687 0,-1.17662 1.05118,-3.18472 2.35328,-4.48685 2.79253,-2.77682 3.32596,-18.26118 0.62752,-18.26118 -0.94125,0 -4.06318,1.11387 -6.9342,2.47875 -7.40491,3.51418 -10.79352,11.37402 -9.64832,22.41858 0.78442,7.64021 1.61589,9.30317 6.85571,13.72727 5.33415,4.50254 11.45256,6.40083 11.45256,3.57693 z m 21.46157,-2.98078 c 0.17258,-2.25911 -0.0464,-2.76114 -0.50199,-1.17662 -0.59624,2.08655 -2.47873,2.74545 -7.73438,2.74545 -3.82795,0 -6.94989,0.61185 -6.94989,1.3492 0,0.75304 3.35733,1.28644 7.45195,1.17662 6.7773,-0.15688 7.48332,-0.5334 7.73431,-4.09465 z m -183.58447,-0.76871 c -1.74144,-3.73382 -2.44745,-3.92207 -15.93932,-3.96914 -17.61794,-0.0785 -33.55254,-2.1493 -44.5328,-5.78898 -6.89812,-2.2905 -9.69073,-4.39274 -15.21922,-11.43678 -15.01368,-19.12403 -15.25691,-44.74146 -0.61024,-64.37223 3.41997,-4.58413 5.94263,-8.6113 5.60386,-8.94861 -0.33732,-0.33887 -3.09537,-0.14904 -6.12625,0.41888 -4.9685,0.93189 -6.10433,2.2042 -11.5341,12.89892 -5.1442,10.13622 -6.10273,13.64255 -6.57655,24.06272 -0.56791,12.51612 2.08964,24.28391 7.4049,32.80266 14.01595,22.44996 26.99167,27.40746 73.41024,28.035 l 15.92364,0.20394 z m 14.91958,-1.00405 c -7.95394,-2.94941 -9.61696,-15.89226 -3.01216,-23.40696 1.9453,-2.19636 3.10625,-3.24747 2.5729,-2.35324 -2.10228,3.63968 -2.68268,9.2561 -1.33354,12.80165 1.69439,4.4398 11.02883,9.35024 14.93527,7.85985 2.51017,-0.97267 2.46304,-1.34919 -0.64321,-4.64374 -4.17311,-4.43979 -4.26729,-6.73028 -0.3294,-8.83252 2.55714,-1.36488 2.94935,-2.94939 2.46305,-9.85224 -0.50207,-6.94992 -1.0355,-8.14224 -3.43574,-7.68727 -1.56885,0.29807 -3.2946,1.25505 -3.84363,2.13361 -0.53343,0.86285 -2.29047,1.17662 -3.92212,0.69027 -5.8831,-1.78846 -14.69988,9.1306 -14.69988,18.19844 0,10.49548 9.19323,23.14024 12.88004,17.72778 0.61176,-0.89423 -0.12554,-2.08654 -1.63158,-2.63563 z m 151.90986,-1.27076 c 0,-3.40436 -0.70601,-6.62046 -1.56892,-7.15386 -0.95693,-0.59616 -1.56885,1.81984 -1.56885,6.18119 0,3.93776 0.70601,7.15386 1.56885,7.15386 0.86291,0 1.56892,-2.77682 1.56892,-6.18119 z m 31.37657,-0.87854 c 0,-6.00862 -0.47062,-7.05973 -3.13769,-7.05973 -2.667,0 -3.1377,1.05111 -3.1377,7.05973 0,6.00862 0.4707,7.05973 3.1377,7.05973 2.66707,0 3.13769,-1.05111 3.13769,-7.05973 z m 40.50715,4.4241 c -0.50207,-2.60425 -8.11084,-5.71054 -9.82091,-4.00052 -0.4863,0.48634 -0.87844,2.18068 -0.87844,3.76519 0,2.24343 1.20793,2.87096 5.60067,2.87096 4.40834,0 5.50657,-0.56478 5.09868,-2.63563 z m 13.288,-0.50203 c -0.61184,-2.35324 -2.13364,-3.13766 -6.13417,-3.13766 -3.37301,0 -5.30263,0.76873 -5.30263,2.08655 0,3.23179 1.64726,4.18877 7.1696,4.18877 4.31425,0 4.95745,-0.47064 4.2672,-3.13766 z m 49.74757,0 c -3.45142,-2.69839 -6.49494,-3.0749 -25.49346,-3.10628 -20.53601,-0.0313 -21.57143,0.1255 -21.57143,3.10628 0,3.01215 1.03542,3.13766 25.49355,3.10629 l 25.49338,-0.0313 -3.92204,-3.07491 z m 102.30344,-0.59615 c 0.61184,-0.95699 0.50206,-2.33756 -0.23539,-3.05922 -0.7373,-0.73735 -17.83757,-1.09818 -38.01266,-0.8001 -35.69098,0.51771 -36.80481,0.62753 -41.35445,4.20447 l -4.65942,3.67105 41.574,-1.12956 c 27.43885,-0.76872 41.95054,-1.7414 42.68792,-2.88664 z m 23.20292,0.62753 c 0,-1.78847 -3.43566,-4.1574 -7.45187,-5.14576 -2.90239,-0.70597 -3.52991,-0.20395 -3.52991,2.8082 0,2.57288 1.03542,3.82795 3.52991,4.23585 4.12599,0.6589 7.45187,-0.18827 7.45187,-1.89829 z m -110.21024,-1.50608 c 1.94529,-1.61589 3.5299,-3.3573 3.5299,-3.87501 0,-1.7414 -3.35732,-0.92561 -5.64779,1.36488 -2.30622,2.30619 -6.90291,1.71003 -6.90291,-0.89423 0,-0.76872 -1.58445,-1.36488 -3.52991,-1.34919 -3.43566,0.047 -3.40429,0.15688 0.87859,3.92207 5.22422,4.61236 6.99701,4.73787 11.67212,0.83148 z m 96.09084,0.17257 c 0,-3.70244 -1.31785,-4.97319 -4.07894,-3.90638 -3.4671,1.3335 -2.71412,6.77734 0.94125,6.77734 1.99242,0 3.13769,-1.05111 3.13769,-2.87096 z m -334.94514,-4.06326 c 0.86275,-0.21964 -0.69034,-1.56883 -3.4515,-3.01216 -3.65537,-1.89828 -9.09921,-2.60425 -20.00266,-2.60425 -14.71556,0 -14.98223,0.0628 -14.98223,3.71813 v 3.71812 l 18.43373,-0.70597 c 10.13462,-0.39221 19.13974,-0.87855 20.00266,-1.11387 z m 38.43622,-2.47875 c 0,-2.87097 -1.05102,-3.13766 -12.37804,-3.13766 -10.00909,0 -13.08398,0.59615 -16.08054,3.09059 l -3.70241,3.07491 16.08054,0.0628 c 15.04512,0.047 16.08045,-0.15688 16.08045,-3.09059 z m 67.16173,0.3922 c -0.39229,-2.07085 -2.35327,-2.85527 -7.9541,-3.2161 -6.60472,-0.42358 -7.43619,-0.12551 -7.43619,2.74545 0,2.8239 0.97269,3.2161 7.95394,3.2161 6.73033,0 7.89129,-0.42358 7.43635,-2.74545 z m -43.12717,-8.48737 -0.89428,-8.76976 -4.12599,2.1493 c -2.2591,1.17662 -4.92609,2.14929 -5.93015,2.14929 -3.27891,0.0313 -1.12967,5.4909 2.36896,6.00862 1.8668,0.28239 4.62789,2.1493 6.13409,4.15741 1.50596,2.02379 2.87086,3.52986 3.04345,3.37298 0.17258,-0.15689 -0.0943,-4.23584 -0.59608,-9.06784 z m 46.42169,-33.35176 c -1.34922,-1.26919 -1.6003,1.15466 -1.0355,9.67812 0.40789,6.24393 0.26667,14.00964 -0.31372,17.25712 -0.59624,3.23179 -0.31373,8.36187 0.59616,11.37403 1.41194,4.62804 1.74143,2.18067 2.11788,-15.5628 0.29812,-14.33911 -0.14122,-21.59181 -1.36482,-22.74647 z m 264.61452,38.56027 c -3.35733,-0.64321 -4.72215,0.53341 -3.27884,2.85527 0.76866,1.25507 1.77272,1.17663 3.52983,-0.28238 2.22774,-1.83553 2.19629,-2.08654 -0.25099,-2.57289 z M 347.6865,844.8824 c 0.54911,-0.89424 -0.80002,-1.56883 -3.13762,-1.56883 -2.33759,0 -3.68681,0.67459 -3.13769,1.56883 0.53343,0.86285 1.94538,1.56883 3.13769,1.56883 1.19232,0 2.60419,-0.70598 3.13762,-1.56883 z m -87.07005,-1.41195 c -1.30209,-0.72166 -11.89174,-1.77279 -23.53249,-2.32187 -11.65626,-0.56478 -23.29701,-1.45902 -25.8856,-1.99242 -2.58858,-0.5334 -4.16527,-0.39221 -3.50158,0.31377 0.66193,0.70597 5.25086,2.14929 10.19727,3.2161 10.15351,2.18067 46.40921,2.85527 42.7224,0.78442 z m 240.03102,-0.0628 c 0,-0.90992 -2.36888,-1.66296 -5.25558,-1.66296 -5.25566,0 -14.84117,-2.60425 -17.14732,-4.65943 -0.67457,-0.59615 -0.80011,-2.21204 -0.28236,-3.57693 0.81579,-2.10224 1.64726,-2.19636 5.44385,-0.61184 2.46304,1.05111 7.35777,1.61589 10.872,1.28644 5.50649,-0.53341 6.36941,-1.11387 6.36941,-4.36135 0,-3.98483 -0.10986,-4.03189 -10.74647,-4.47117 -11.29558,-0.45496 -18.13569,7.89122 -12.39381,15.12353 2.46313,3.12198 3.95349,3.54556 14.54305,4.12603 5.28695,0.28239 8.59723,-0.17258 8.59723,-1.19232 z m 14.11939,-0.0941 c 0,-0.86286 -2.82381,-1.56884 -6.27523,-1.56884 -3.45142,0 -6.27531,0.70598 -6.27531,1.56884 0,0.86285 2.82389,1.56883 6.27531,1.56883 3.45142,0 6.27523,-0.70598 6.27523,-1.56883 z m 101.97403,-0.78442 c -0.48638,-0.97268 -12.45653,-1.53746 -31.37657,-1.47471 -54.34426,0.17257 -67.45968,0.61185 -67.45968,2.2905 0,1.03543 16.91193,1.44333 49.8103,1.17662 32.5532,-0.28239 49.54362,-0.97267 49.02595,-1.99241 z m 87.71334,-2.71408 c 1.77272,-2.8239 1.69422,-3.10629 -0.61192,-2.21205 -1.459,0.54909 -5.05163,1.00405 -8.00107,1.00405 -3.57687,0 -5.36535,0.73735 -5.36535,2.22773 0,4.76926 10.85624,3.98484 13.97834,-1.01973 z m -31.23551,1.92966 c 0,-0.97267 -9.14626,-1.56883 -24.31683,-1.56883 -15.17058,0 -24.31683,0.59616 -24.31683,1.56883 0,0.97267 9.14625,1.56884 24.31683,1.56884 15.17057,0 24.31683,-0.59617 24.31683,-1.56884 z m 14.11956,0 c 0,-0.86285 -2.47881,-1.56883 -5.49089,-1.56883 -3.02793,0 -5.49105,0.70598 -5.49105,1.56883 0,0.86286 2.46312,1.56884 5.49105,1.56884 3.01208,0 5.49089,-0.70598 5.49089,-1.56884 z m 21.96355,0 c 0,-0.86285 -1.06678,-1.56883 -2.35319,-1.56883 -1.30217,0 -2.35327,0.70598 -2.35327,1.56883 0,0.86286 1.0511,1.56884 2.35327,1.56884 1.28641,0 2.35319,-0.70598 2.35319,-1.56884 z m -386.71658,-1.36488 c 13.19391,-0.15689 16.47274,-0.65891 16.47274,-2.46307 0,-2.85527 -8.59722,-3.90638 -27.45452,-3.38867 -17.99455,0.51772 -18.04152,0.51772 -18.04152,3.16903 0,2.68271 1.64726,3.32593 7.84416,3.07492 2.58851,-0.10983 12.11137,-0.29808 21.17914,-0.39221 z m 410.24907,-3.59262 c 0,-1.09819 -0.84723,-1.00406 -2.38464,0.28239 -3.76522,3.12197 -4.25152,0.86285 -0.76874,-3.56125 3.57688,-4.54961 4.14175,-9.02077 1.14527,-9.02077 -2.27478,0 -7.40482,5.4909 -7.40482,7.9069 0,0.87855 -1.01982,1.99241 -2.25918,2.47876 -3.40445,1.30212 -1.06686,5.56934 2.44736,4.45547 1.66295,-0.51772 2.94944,-0.18825 2.94944,0.8001 0,1.23938 0.87851,1.25507 3.13761,0.047 1.72567,-0.92561 3.1377,-2.44737 3.1377,-3.38867 z M 264.1778,835.07718 c 1.3021,-2.80821 2.8395,-6.68322 3.43566,-8.62856 0.58048,-1.94536 3.4671,-5.36541 6.40077,-7.60883 4.62806,-3.52987 5.05171,-4.37704 3.10625,-6.32239 -1.23928,-1.22839 -1.85112,-3.27728 -1.36474,-4.54646 0.95693,-2.49601 8.3932,-3.24905 8.3932,-0.85031 0,0.80011 1.11391,2.57602 2.49441,3.94404 2.14925,2.15871 6.73033,2.39403 34.12205,1.81357 17.3984,-0.36084 39.98956,-0.72794 50.2026,-0.80324 l 18.57486,-0.13649 -0.32932,-18.43375 c -0.17258,-10.13778 -0.69033,-23.29086 -1.14535,-29.22887 l -0.81579,-10.79512 -80.18282,1.08876 c -91.25268,1.23938 -91.5052,1.27076 -104.7948,13.22053 -8.92975,8.02927 -11.76925,12.91462 -13.83552,23.81484 -1.51228,7.96652 -0.14274,19.26523 3.4703,28.64683 1.91714,4.9732 11.76941,12.28394 20.32582,15.06078 3.15962,1.03542 15.16898,2.44737 26.66843,3.13766 11.51529,0.70597 21.38324,1.36488 21.93235,1.49038 0.54903,0.1412 2.05507,-2.05516 3.34164,-4.86337 z m 82.72436,3.52987 c 0,-0.86286 -1.06686,-1.56883 -2.35328,-1.56883 -1.30209,0 -2.35327,0.70597 -2.35327,1.56883 0,0.86286 1.05118,1.56883 2.35327,1.56883 1.28642,0 2.35328,-0.70597 2.35328,-1.56883 z m 43.92719,-1.56883 c 0,-2.91803 -1.03541,-3.13766 -14.51168,-3.12197 -18.11993,0.0313 -26.2779,1.30212 -26.2779,4.11033 0,1.71003 4.17312,2.1493 20.39479,2.1493 19.34369,0 20.39479,-0.15688 20.39479,-3.13766 z m 72.16623,-13.44487 c 0,-14.95565 -0.26675,-16.54018 -2.74548,-16.06639 -2.36888,0.45339 -2.80821,2.74859 -3.20035,16.5841 -0.42365,15.26471 -0.28251,16.06482 2.74541,16.06482 3.01216,0 3.20042,-0.95699 3.20042,-16.58253 z m 253.36599,15.0137 c -0.53343,-0.86286 -1.63158,-1.56883 -2.44736,-1.56883 -0.81587,0 -1.47468,0.70597 -1.47468,1.56883 0,0.86286 1.09815,1.56883 2.44737,1.56883 1.34922,0 2.0081,-0.70597 1.47467,-1.56883 z m -98.34987,-9.16197 0.50191,-5.03594 -50.17115,0.12551 c -42.28002,0.0941 -50.29668,0.47064 -51.03406,2.38461 -1.22368,3.18473 0.39229,6.66754 3.4671,7.5147 1.44339,0.3922 23.79916,0.56478 49.68484,0.37652 l 47.0649,-0.32945 z m 30.78033,2.76114 c -3.89059,-4.2829 -12.28395,-7.71864 -18.90435,-7.71864 -4.76919,0 -5.30262,0.43927 -5.30262,4.43979 0,2.44737 0.47062,4.92613 1.0511,5.4909 0.56471,0.58047 6.68328,1.05112 13.57036,1.05112 h 12.53502 z m 23.79917,1.27076 c 0.20394,-0.20395 0.86291,-2.30618 1.45899,-4.67512 1.0355,-4.1574 0.84715,-4.31428 -5.06723,-4.31428 -4.70655,0 -7.15391,1.05111 -10.37002,4.40841 -2.32191,2.416 -4.22008,4.91044 -4.22008,5.55366 0,0.98837 17.16292,0.0785 18.19834,-0.97267 z M 349.19262,831.6885 c -2.08652,-1.52175 -3.89068,-1.7414 -5.80469,-0.72166 -4.12599,2.21206 -3.38869,2.93372 3.02784,2.93372 5.36544,0 5.5693,-0.15688 2.77685,-2.21206 z m 165.57424,-1.71002 c 0,-3.52986 -0.62744,-3.92207 -6.27523,-3.92207 -3.45142,0 -6.27531,0.64321 -6.27531,1.44332 0,4.39273 2.27478,6.40083 7.23224,6.40083 4.62813,0 5.3183,-0.50203 5.3183,-3.92208 z m 172.93218,0.12551 c 0.54912,-2.88665 -0.0784,-4.01621 -2.55714,-4.6908 -7.02837,-1.8826 -8.78556,-1.12956 -8.78556,3.78088 0,4.29859 0.45502,4.70649 5.30278,4.70649 4.37698,0 5.44376,-0.6746 6.03992,-3.79657 z m 15.68833,-1.09818 c 17.77484,-8.97371 24.34827,-20.28027 25.87,-44.54066 0.59615,-9.47416 0.1725,-14.07239 -1.75712,-18.67378 -1.39626,-3.35886 -2.30614,-6.35846 -1.99242,-6.66596 1.30217,-1.29428 5.82037,11.98743 7.248,21.25138 2.11796,13.75079 3.85931,14.36891 2.7298,0.96953 -2.51017,-29.81247 -15.02943,-46.84369 -37.02436,-50.36101 -6.62056,-1.06052 -6.66752,-1.03856 -6.14993,3.44986 0.43933,3.83109 1.3649,4.65315 6.14993,5.42187 8.44024,1.36018 18.38661,9.17452 20.84965,16.388 0.83155,2.43954 0.28252,2.20107 -2.51009,-1.0668 -1.96106,-2.31088 -6.0556,-5.66191 -9.06776,-7.44566 -5.69492,-3.36044 -15.68841,-4.43352 -15.68841,-1.68493 0,0.86286 1.72575,1.56883 3.84371,1.56883 9.89924,0 15.1549,6.06196 20.30062,23.42577 7.12247,24.05016 -3.57696,51.26466 -21.61847,54.92003 -3.45142,0.70597 -5.02027,2.0081 -5.38112,4.47117 -0.69017,4.80061 2.52586,4.47116 14.19797,-1.42764 z m 13.75863,3.37298 c 0,-0.83148 -1.06679,-1.11387 -2.35328,-0.61184 -1.30209,0.50202 -2.35319,1.17662 -2.35319,1.52177 0,0.32945 1.0511,0.61184 2.35319,0.61184 1.28649,0 2.35328,-0.6746 2.35328,-1.52177 z m -414.87713,-8.28343 c 0.31388,-5.31833 -0.15682,-7.45194 -1.61582,-7.45194 -2.61995,0 -3.95348,3.51418 -3.95348,10.44841 0,4.23584 0.58047,5.34971 2.57282,4.9575 1.86697,-0.36084 2.68275,-2.52582 2.99648,-7.95397 z m 32.23956,7.40488 c 5.93015,-1.8826 1.58445,-2.76114 -12.04864,-2.43169 -10.02485,0.25102 -13.2252,-0.14119 -12.37813,-1.52176 0.62761,-1.00405 0.17259,-2.46306 -1.01965,-3.2161 -1.27081,-0.80011 13.20951,-1.36488 35.00057,-1.38057 36.17713,-0.0314 37.1499,-0.10983 36.91451,-3.16903 -0.21963,-3.04354 -1.34914,-3.13767 -38.32654,-3.13767 h -38.10682 v 6.79304 c 0,3.7495 0.29804,7.10679 0.65889,7.45194 1.16095,1.16093 25.97977,1.66295 29.30581,0.61184 z m 37.68325,-0.73735 c 5.09868,0 9.22466,-0.70598 9.22466,-1.56883 0,-0.9413 -6.33796,-1.56883 -15.87651,-1.56883 -14.32342,0 -15.68832,0.25101 -13.82135,2.49443 1.42755,1.71003 3.49846,2.19637 6.66752,1.56883 2.52578,-0.5177 8.73828,-0.9256 13.80568,-0.9256 z m 57.74855,-14.73132 c -1.42755,-1.3335 -1.64726,-0.28238 -0.8942,4.53392 0.53343,3.45143 1.09823,7.68727 1.27073,9.41298 0.1569,1.72572 0.56488,-0.31377 0.89428,-4.53391 0.36085,-4.64375 -0.14114,-8.36186 -1.27081,-9.41299 z M 398.78337,829.147 c 3.67105,-1.97673 3.96909,-8.20498 0.5648,-11.60935 -2.79261,-2.77683 -3.12202,-2.83958 -9.8994,-1.4747 -3.38869,0.6746 -4.89465,1.8826 -4.89465,3.92208 0,2.27479 1.16079,2.93371 5.17701,2.93371 2.83958,0 6.02432,-0.84717 7.05982,-1.8826 1.45899,-1.45901 1.88249,-1.30213 1.88249,0.73736 0,3.16903 -4.62798,5.85173 -10.0875,5.85173 -2.22774,0 -4.03182,0.70597 -4.03182,1.56883 0,2.07085 10.33849,2.02379 14.22925,-0.047 z m 47.80219,-0.0628 c 0.5648,-0.90992 0.69025,-2.02379 0.25108,-2.44738 -1.25505,-1.25506 -12.08001,1.19232 -12.08001,2.72977 0,1.99241 10.58957,1.7414 11.82893,-0.28239 z m 209.14075,-2.27481 c 3.875,-4.06326 2.32191,-5.11437 -3.20042,-2.16498 -2.38464,1.27075 -4.32994,1.25507 -7.35786,-0.0628 -3.96909,-1.7414 -3.93772,-1.66295 0.59624,2.13361 2.5885,2.16499 5.05155,3.95346 5.49081,3.96914 0.42366,0.0157 2.44745,-1.72571 4.47123,-3.87501 z m 87.76039,-2.52581 c 0.56471,-2.98077 -2.99648,-4.75355 -5.93015,-2.9494 -2.83974,1.7571 -0.64329,6.63615 2.71396,5.99293 1.49044,-0.28239 2.94943,-1.66296 3.21619,-3.04353 z M 407.00406,804.4175 c -0.70601,-13.87945 -1.5062,-19.14915 -2.94951,-19.14915 -1.08238,0 -2.33751,0.88326 -2.77677,1.96104 -0.62752,1.56883 -0.81579,1.56883 -0.90996,0 -0.0624,-1.07778 -1.99242,-1.96104 -4.26721,-1.96104 -4.01621,0 -4.09462,0.20866 -3.13761,7.27938 0.54911,4.00209 1.00405,9.92128 1.00405,13.1515 0,4.74258 0.67457,6.04784 3.4671,6.78677 1.91402,0.50202 3.89068,0.251 4.37706,-0.56009 0.50199,-0.8048 1.85121,1.72102 2.99648,5.61172 1.16088,3.90638 2.33751,6.85577 2.61987,6.5577 0.29812,-0.29808 0.10985,-9.14628 -0.4235,-19.67783 z m -4.80071,-1.1076 c -0.016,-3.45142 0.29804,-5.04849 0.69033,-3.54869 0.39221,1.49981 0.40789,4.32369 0.032,6.27531 -0.37653,1.95163 -0.70601,0.72481 -0.72169,-2.72662 z m 76.48048,-0.0925 c 0,-11.96547 -0.61184,-19.51781 -1.56877,-19.51781 -0.97269,0 -1.56893,7.87553 -1.56893,20.48735 0,13.25661 0.54911,20.14378 1.56893,19.51624 0.90988,-0.56478 1.56877,-9.16197 1.56877,-20.48578 z m 214.92976,19.87394 c 0,-0.76873 -1.71007,-1.83554 -3.81227,-2.35324 -8.25213,-2.07086 -8.73844,-3.84364 -8.73844,-31.76253 0,-15.53926 0.67457,-27.14234 1.69439,-29.04533 0.92564,-1.74139 4.50251,-4.42566 7.93825,-5.96312 4.81632,-2.15871 5.58506,-2.96979 3.34157,-3.55496 -4.51821,-1.18447 -9.1149,1.20329 -13.11535,6.81029 -3.31028,4.64844 -3.63968,6.73811 -3.51422,21.69377 0.32948,36.72317 0.10985,35.01315 5.13004,40.51975 4.26728,4.65943 11.07603,6.91853 11.07603,3.65537 z m -246.30633,-2.1336 c 0,-3.57695 -3.51423,-5.88312 -8.94231,-5.88312 -4.36138,0 -5.17717,0.56477 -5.17717,3.62399 0,3.20042 0.83147,3.67108 7.05966,4.00053 5.05171,0.2667 7.05982,-0.23533 7.05982,-1.7414 z m 54.90906,-1.96105 c 0,-3.13765 -0.78443,-3.92207 -3.92213,-3.92207 -3.13769,0 -3.92204,0.78442 -3.92204,3.92207 0,3.13767 0.78435,3.92209 3.92204,3.92209 3.1377,0 3.92213,-0.78442 3.92213,-3.92209 z m 14.11947,0 c 0,-3.52986 -0.62752,-3.92207 -6.27531,-3.92207 -5.03595,0 -6.2754,0.56477 -6.2754,2.87096 0,4.06327 1.34922,4.9732 7.32642,4.9732 4.53396,0 5.22429,-0.51772 5.22429,-3.92209 z m 99.22847,2.36893 c 23.70507,-0.0157 27.84674,-0.36082 27.84674,-2.36893 0,-1.28643 -1.3649,-2.35324 -3.04353,-2.35324 -1.6787,0 -3.49854,-0.73735 -4.04765,-1.63158 -1.06671,-1.72572 -86.45821,-2.02379 -106.25684,-0.36083 -10.00917,0.83148 -10.58957,1.09818 -10.58957,4.80062 v 3.92207 l 34.12205,-0.98836 c 18.76322,-0.54909 46.657,-1.00406 61.9688,-1.01975 z m -125.88297,-15.3102 c 0.016,-8.41207 0.45494,-16.88375 0.97269,-18.82596 0.69033,-2.55406 0.26675,-3.52987 -1.49036,-3.52987 -2.05515,0 -2.52577,3.03412 -2.93367,18.8291 -0.37661,14.27165 -0.016,18.82125 1.47468,18.82125 1.42755,0 1.96098,-4.11034 1.97666,-15.29452 z m 163.14264,12.94127 c 0,-1.30212 -1.39627,-2.35324 -3.13762,-2.35324 -1.74143,0 -3.13762,1.05112 -3.13762,2.35324 0,1.30213 1.39619,2.35325 3.13762,2.35325 1.74135,0 3.13762,-1.05112 3.13762,-2.35325 z m 17.25717,-1.56882 c 0,-3.10629 -0.78442,-3.92207 -3.82795,-3.92207 -2.1022,0 -4.2672,0.70596 -4.80063,1.56882 -0.53344,0.86285 -2.3376,1.56883 -4.01622,1.56883 -3.04344,0 -3.96917,1.69433 -1.99242,3.65537 0.56479,0.58047 4.0947,1.05112 7.84416,1.05112 6.1969,0 6.79306,-0.34514 6.79306,-3.92207 z m 7.84416,2.65131 c 0,-0.69027 -1.03549,-2.63563 -2.30622,-4.31428 -2.19637,-2.91802 -2.30615,-2.85527 -2.35319,1.27076 -0.032,2.80821 0.76874,4.31428 2.30614,4.31428 1.28649,0 2.35327,-0.56478 2.35327,-1.27076 z m 53.34021,-5.30264 c 0,-1.64727 -1.78848,-1.58452 -4.54956,0.17258 -1.3649,0.86285 -1.7572,2.46306 -1.05118,4.28289 1.08246,2.79253 1.19232,2.79253 3.35732,-0.14118 1.23937,-1.67865 2.24342,-3.624 2.24342,-4.31429 z m 4.48684,4.48685 c 1.31777,-1.58451 1.17663,-2.10223 -0.51775,-2.10223 -1.25505,0 -2.61995,0.9413 -3.07489,2.10223 -0.43918,1.14524 -0.20395,2.08655 0.53343,2.08655 0.72162,0 2.1022,-0.94131 3.05921,-2.08655 z m -43.70765,-2.66701 c 0,-1.88259 -4.42403,-3.89069 -5.71044,-2.60425 -1.38058,1.38056 0.95693,4.22016 3.45142,4.22016 1.23928,0 2.25902,-0.72168 2.25902,-1.61591 z m 10.68382,-0.58046 c 5.03595,-2.60426 10.16599,-11.3897 12.6604,-21.72359 1.44331,-5.96155 1.33354,-9.69851 -0.54911,-18.72242 -1.30209,-6.20159 -2.88654,-11.76936 -3.54543,-12.37179 -0.67473,-0.60243 -7.02838,-1.57824 -14.151,-2.17126 l -12.94284,-1.07465 -0.18827,4.42097 c -0.75298,18.15135 -0.92556,38.04882 -0.345,41.50339 0.51759,3.06079 1.88249,4.37076 5.23981,5.04222 2.49441,0.49889 5.30263,2.35168 6.24403,4.10876 2.03939,3.78089 2.13357,3.79658 7.57741,0.98837 z m 46.46865,-4.27349 c 1.42771,-3.55811 2.27487,-6.7899 1.88266,-7.1821 -1.11383,-1.11858 -8.78541,10.89081 -7.89121,12.34982 1.66302,2.6827 3.49854,1.11387 6.00855,-5.16772 z m -464.26377,3.33219 c -0.53343,-0.86286 -1.28649,-1.56882 -1.66294,-1.56882 -0.37653,0 -0.69033,0.70596 -0.69033,1.56882 0,0.86285 0.75306,1.56883 1.66302,1.56883 0.90988,0 1.2236,-0.70598 0.69025,-1.56883 z m 130.99733,0 c 0,-0.86286 -0.70601,-1.56882 -1.56893,-1.56882 -0.86283,0 -1.56877,0.70596 -1.56877,1.56882 0,0.86285 0.70594,1.56883 1.56877,1.56883 0.86292,0 1.56893,-0.70598 1.56893,-1.56883 z m 489.34943,-13.17974 c 5.39671,-20.46539 6.69881,-51.4137 3.85931,-91.75616 -2.49441,-35.31279 -5.82045,-50.3767 -11.09164,-50.3767 -1.85128,0 -2.02386,0.50596 -0.72161,2.07509 7.54596,9.09107 12.26819,78.81645 8.01674,118.39332 -1.81992,16.87435 -5.47536,31.70762 -7.82848,31.70762 -0.83147,0 -1.5218,0.70441 -1.5218,1.56727 0,0.86286 1.30209,1.56883 2.90231,1.56883 2.30614,0 3.60824,-2.66701 6.38517,-13.17974 z m -487.84339,3.60203 c -1.47468,-3.53928 -1.50604,-5.16145 -0.1569,-6.51064 2.66707,-2.66701 2.32191,-13.71785 -0.43926,-13.71785 -1.58453,0 -2.24342,2.11165 -2.30623,7.45194 -0.0942,7.54136 3.21619,22.40133 4.26721,19.21817 0.32957,-0.95072 -0.29804,-3.84992 -1.36482,-6.44162 z m 20.1438,-6.10432 c -0.45502,-13.46684 -0.62761,-14.11633 -4.01622,-14.11946 -3.4515,-0.005 -3.51422,0.32474 -2.8867,13.72255 0.37653,7.55078 0.7217,13.89826 0.80011,14.1179 0.0784,0.21964 1.58461,0.39222 3.35732,0.39222 3.02784,0 3.18475,-0.78443 2.74549,-14.11321 z m 206.20692,10.1927 c -0.78435,-4.10564 -2.61987,-5.0689 -4.34554,-2.27795 -1.45907,2.35953 0.34501,6.19846 2.91799,6.19846 1.49036,0 1.9453,-1.25507 1.42755,-3.92051 z m 5.89886,-3.92208 c 0,-4.31428 -0.70601,-7.84415 -1.56885,-7.84415 -0.86291,0 -1.56877,3.52987 -1.56877,7.84415 0,4.31429 0.70586,7.84259 1.56877,7.84259 0.86284,0 1.56885,-3.5283 1.56885,-7.84259 z m 9.39725,5.5113 c 2.74549,-3.30395 0.97277,-6.62518 -3.37293,-6.3067 -2.02379,0.14904 -3.62408,0.56478 -3.56127,0.92562 1.25513,7.69668 3.52991,9.46945 6.9342,5.38108 z m -376.50347,-1.58922 c 0,-1.29429 -0.65889,-2.35325 -1.47468,-2.35325 -1.97682,0 -3.40437,2.45051 -2.14924,3.70401 1.77271,1.76964 3.62392,1.07465 3.62392,-1.35076 z m 130.2129,-0.87699 c 0,-0.81265 -0.70601,-1.47626 -1.56885,-1.47626 -0.86283,0 -1.56876,1.10132 -1.56876,2.44581 0,1.34605 0.70593,2.00966 1.56876,1.47627 0.86284,-0.53341 1.56885,-1.63316 1.56885,-2.44582 z m 15.23331,0.69657 c 0.3138,-0.96327 -0.97261,-1.66923 -2.88663,-1.56883 -1.89825,0.0988 -3.76522,1.12171 -4.15743,2.27323 -0.47062,1.4245 0.45502,1.92495 2.8867,1.56884 1.97667,-0.28867 3.84364,-1.31155 4.15736,-2.27324 z m 16.14326,-10.8014 c 0,-10.80767 -0.43934,-13.33505 -2.35319,-13.33505 -1.91393,0 -2.35327,2.52738 -2.35327,13.33505 0,10.80767 0.43934,13.33506 2.35327,13.33506 1.91385,0 2.35319,-2.52739 2.35319,-13.33506 z m 177.49751,11.77093 c 13.14671,-0.005 13.58604,-0.12236 14.54297,-3.92677 0.7373,-2.92274 2.02379,-3.92208 5.05171,-3.92208 3.76514,0 4.00037,-0.37966 2.99632,-5.0987 -1.31769,-6.2157 -1.3805,-9.91344 -0.47062,-23.4446 0.37653,-5.77643 0.28244,-11.16379 -0.23523,-11.97173 -0.54912,-0.86599 -31.07853,-1.73984 -74.15858,-2.1242 l -73.23309,-0.65263 -0.83147,11.84153 c -0.45494,6.51221 -1.28641,18.48552 -1.85121,26.60735 l -1.00405,14.7721 57.81144,-1.04014 c 31.80023,-0.56947 63.92978,-1.03699 71.38181,-1.04013 z m 53.4343,-25.16873 0.47062,-25.16403 -10.98186,0.45496 -10.98178,0.45495 -1.14527,9.2812 c -0.75298,6.05255 -0.56471,9.99816 0.54911,11.34421 1.55309,1.8622 1.38067,10.22093 -0.31372,16.20444 -0.42365,1.51236 0.70602,2.51798 3.26316,2.89607 4.70646,0.69655 8.1422,3.24276 6.94988,5.16302 -1.6159,2.61994 1.08254,4.52921 6.40085,4.52921 h 5.31839 z M 462.3367,804.09438 c 1.2236,0 2.22765,-1.05897 2.22765,-2.35325 0,-2.69525 -8.61282,-3.35729 -10.19735,-0.78442 -1.47476,2.37678 0.8001,5.03909 3.42005,4.02876 1.28641,-0.48946 3.32588,-0.89109 4.54965,-0.89109 z m -34.26328,-2.65916 c 0.39214,-1.19545 -0.9414,-1.75553 -3.68681,-1.54531 -2.35319,0.18198 -4.59661,1.25664 -4.97314,2.38776 -0.4863,1.44175 0.62753,1.90456 3.67105,1.5453 2.40024,-0.28239 4.64374,-1.35703 4.9889,-2.38775 z m 467.91922,-5.90979 c 0,-4.62021 -1.03542,-5.93017 -8.65995,-10.98965 -23.18732,-15.39494 -53.92068,-24.5114 -95.00838,-28.1809 -15.1549,-1.3539 -35.2202,-2.46306 -44.55472,-2.46306 -16.89633,0 -16.97482,0.0189 -14.15093,3.13765 2.51018,2.77684 4.84777,3.13924 20.23789,3.15179 30.09016,0.0219 65.60856,4.11347 84.08934,9.68125 13.06837,3.93775 31.00004,12.99148 41.7309,21.06938 6.36941,4.79278 11.98584,9.37377 12.4879,10.18014 1.70999,2.75801 3.82795,-0.33887 3.82795,-5.5866 z m -441.93936,-6.04627 c 0.67449,-4.27977 0.39213,-5.80938 -0.94141,-5.36698 -1.09815,0.35928 -2.02379,4.18408 -2.22766,9.12433 -0.37653,9.18863 1.49036,6.986 3.16907,-3.75735 z m -25.82296,3.66792 c 0.29804,-2.00183 -0.23539,-5.1238 -1.16095,-6.9358 -0.94141,-1.81356 -1.91401,-10.00285 -2.18069,-18.19999 l -0.47062,-14.90389 -0.3138,15.98796 c -0.18827,8.79329 -1.03542,16.42408 -1.89834,16.95747 -2.24333,1.38841 -1.94529,9.78793 0.3923,10.71982 3.3102,1.32253 5.06723,0.18356 5.6321,-3.62557 z m 33.91803,-3.00117 c -0.62744,-3.11413 -1.22368,-12.89893 -1.33346,-21.74399 -0.0942,-8.84505 -0.73737,-16.0805 -1.44331,-16.0805 -0.69033,0.002 -1.12959,7.4441 -0.97277,16.53861 0.1569,9.09607 -0.15682,16.97945 -0.69017,17.51912 -0.54911,0.53968 -0.98845,3.26787 -0.98845,6.06353 0,4.38488 0.45502,4.96535 3.27892,4.22329 2.85526,-0.74677 3.13761,-1.5908 2.14924,-6.52006 z m 189.10673,-0.171 c 0,-3.60988 -0.70593,-4.70649 -3.04344,-4.70649 -4.94178,0 -3.09065,9.28747 1.86688,9.38945 0.64321,0.0126 1.17656,-2.09439 1.17656,-4.68296 z m -230.618,-20.39479 c 0,-10.10954 -0.45495,-12.55065 -2.3532,-12.55065 -1.86689,0 -2.35319,2.2654 -2.35319,10.98182 v 10.98181 h -4.51828 c -5.28694,0 -6.41645,-2.66701 -6.4479,-15.29609 -0.032,-13.11542 -3.12201,-9.6185 -3.46718,3.92207 l -0.29804,12.15843 -0.56471,-10.9818 c -0.62753,-12.35611 -1.74143,-14.40187 -6.49495,-11.85565 -2.91806,1.55627 -3.31028,3.17531 -3.31028,13.47939 v 11.71131 h 14.9039 14.90383 z m 35.03201,-0.0204 c 0,-8.85291 -0.54911,-11.85251 -2.22774,-12.1804 -1.75703,-0.34828 -2.1022,1.63472 -1.67862,9.80519 l 0.51767,10.23975 h -4.832 -4.84769 v -10.98183 c 0,-7.82846 -0.56471,-10.98181 -1.99242,-10.98181 -1.45899,0 -1.91394,3.22708 -1.70991,12.15844 l 0.29804,12.15842 -1.14527,-11.34107 c -0.6276,-6.23766 -1.58453,-11.79446 -2.14925,-12.34669 -0.54911,-0.5538 -2.87102,-0.53655 -5.16148,0.0377 -3.35733,0.84247 -3.98485,1.71317 -3.23179,4.50255 0.51767,1.90298 0.94132,7.55077 0.95693,12.55221 l 0.016,9.0945 13.60172,-0.48477 13.60181,-0.48477 -0.016,-11.7474 z m 31.25111,11.56385 5.88318,-0.97268 v -12.34513 c 0,-9.92756 -0.45502,-12.34512 -2.35327,-12.34512 -1.86697,0 -2.35327,2.2654 -2.35327,10.98181 0,10.66804 -0.10986,10.98181 -3.92212,10.98181 -3.81227,0 -3.92204,-0.31377 -3.92204,-10.98181 0,-7.73903 -0.5804,-10.98181 -1.96106,-10.98181 -1.12951,0 -2.02379,2.14774 -2.11797,5.0987 -0.42349,14.29205 -0.73729,16.86492 -2.03939,16.86492 -0.76882,0 -1.12951,-4.94181 -0.7845,-10.98181 0.54911,-9.97776 0.32948,-10.98181 -2.40024,-10.98181 -7.13815,0 -7.95394,1.37743 -7.95394,13.4135 v 11.50737 l 6.66753,0.60086 c 3.67105,0.32945 7.71863,0.71538 9.02072,0.85658 1.28649,0.14119 5.00458,-0.18042 8.23637,-0.71538 z m 162.76611,-6.83696 c 0,-4.31429 -0.70601,-7.84416 -1.56885,-7.84416 -0.86291,0 -1.56877,3.52987 -1.56877,7.84416 0,4.31427 0.70586,7.84414 1.56877,7.84414 0.86284,0 1.56885,-3.52987 1.56885,-7.84414 z m 251.0128,-12.38278 c 0,-6.89187 -8.2207,-8.95959 -13.30369,-3.34475 -2.69836,2.9949 -2.68276,3.14238 0.94132,4.48058 2.05516,0.76088 4.78488,1.78219 6.08705,2.26853 4.87905,1.83552 6.27532,1.07465 6.27532,-3.40436 z M 650.29815,760.8229 c 1.75712,-4.55274 1.03542,-10.06875 -1.30217,-10.06875 -3.3102,0 -4.37706,2.60583 -3.21611,7.88181 1.11391,5.12223 3.04361,6.05097 4.51828,2.18694 z M 78.632191,759.38272 c 0,-1.30683 -1.39435,-2.35325 -3.1377,-2.35325 -1.74303,0 -3.13762,1.04642 -3.13762,2.35325 0,1.30683 1.39459,2.35324 3.13762,2.35324 1.74335,0 3.1377,-1.04641 3.1377,-2.35324 z m 804.150859,-2.1744 3.76514,-2.95881 -3.51407,-0.94131 c -1.9297,-0.51928 -4.31425,-0.95227 -5.30263,-0.96325 -2.69843,-0.0329 -4.0947,5.03281 -1.78855,6.49652 2.68275,1.70846 2.55722,1.74141 6.84011,-1.63315 z M 81.142281,754.31697 c -0.52127,-0.52085 -0.89196,0.40475 -0.82395,2.05831 0.0752,1.82768 0.44702,2.1995 0.94797,0.94914 0.45302,-1.1327 0.39733,-2.4866 -0.12402,-3.00745 z m 547.757029,2.83331 c 10.4013,-0.0973 12.94284,-0.58204 12.94284,-2.47405 0,-2.4364 -6.10273,-2.59641 -114.79133,-3.02313 -27.45445,-0.10669 -33.32187,0.55065 -30.45093,3.41533 0.98837,0.98837 109.92797,3.29141 117.00331,2.47406 1.28641,-0.15061 8.17364,-0.32633 15.29611,-0.39221 z m 49.8103,-1.68964 c 2.82389,-3.11412 2.74548,-3.13766 -10.74647,-3.13766 -10.82488,0 -13.57028,0.46124 -13.57028,2.28108 0,1.71787 2.61987,2.41757 10.58956,2.83017 5.82038,0.30279 10.65238,0.68715 10.73071,0.85659 0.0942,0.16942 1.42771,-1.10446 2.99648,-2.83018 z m 24.31691,1.56883 c -1.30209,-0.83618 -4.12599,-1.52019 -6.27531,-1.52019 -2.16501,0 -4.98891,0.68401 -6.27532,1.52019 -1.67862,1.08249 0.12554,1.5202 6.27532,1.5202 6.14985,0 7.95393,-0.43771 6.27531,-1.5202 z m -601.64635,-5.01869 3.13778,-3.22865 -3.92212,1.16408 c -2.157169,0.64008 -6.570319,1.51078 -9.805229,1.93593 -5.75916,0.75462 -7.04245,1.89672 -4.7315,4.2076 1.97986,1.97987 12.03439,-0.69655 15.321069,-4.07896 z m 60.77816,-7.11621 c -0.41422,-5.38108 -1.37434,-9.39885 -2.13365,-8.92821 -2.05515,1.26919 -1.67238,15.43886 0.47375,17.58502 1.02133,1.0213 1.98146,1.69277 2.13356,1.49038 0.15378,-0.20081 -0.0592,-4.76766 -0.47366,-10.14719 z m 6.77106,-1.26134 c 0.26667,-6.0243 -0.17259,-8.54227 -1.41987,-8.13281 -1.98138,0.65106 -3.34004,12.60869 -1.87001,16.44291 1.57357,4.10092 2.8867,0.78441 3.28988,-8.3101 z m 81.09741,8.8733 c 34.13782,-0.11922 52.94808,-0.74048 52.94808,-1.75238 0,-1.02131 -22.74798,-1.56883 -65.10641,-1.56883 -56.03233,0 -65.10649,0.31847 -65.10649,2.29049 0,1.8575 2.2983,2.18852 12.15841,1.75082 6.68633,-0.29494 35.9843,-0.61969 65.10641,-0.7201 z m -125.97698,-2.44265 c 1.03078,-1.24096 1.64566,-4.24213 1.36811,-6.66754 -0.90372,-7.88336 -12.27147,-6.26748 -12.27147,1.74455 0,6.46827 6.99861,9.62789 10.90336,4.92299 z m -6.82754,-0.46438 c -1.71159,-1.71003 -0.97581,-3.42163 2.19949,-5.12067 2.63243,-1.4088 3.1377,-1.19231 3.1377,1.34606 0,3.02313 -3.5676,5.54582 -5.33719,3.77461 z m 37.36952,1.77121 c 4.97786,-1.91084 2.24654,-2.96666 -7.32961,-2.83645 -12.4815,0.16943 -13.44323,0.37182 -10.58333,2.21989 2.62315,1.69591 14.07411,2.08968 17.91294,0.61656 z m 232.31239,-0.96327 c 93.26696,-0.65577 112.17131,-1.17819 112.17131,-3.10158 0,-1.26133 -15.24899,-1.46371 -55.30127,-0.7342 -30.41956,0.55379 -73.82909,1.01502 -96.48306,1.02601 -37.1499,0.0173 -41.18171,0.2714 -41.18171,2.59798 0,2.25441 1.52164,2.45522 12.15841,1.59394 6.68313,-0.54126 37.57347,-1.16252 68.63632,-1.38215 z m -276.89855,-5.23675 c 0,-2.10694 -0.70594,-3.82952 -1.56885,-3.82952 -0.86276,0 -1.56877,2.16028 -1.56877,4.79905 0,2.80036 0.65265,4.39586 1.56877,3.82952 0.86291,-0.5334 1.56885,-2.69211 1.56885,-4.79905 z m 734.93414,4.15897 c 4.54956,-1.77592 -10.29153,-3.29611 -45.82553,-4.69708 -16.59829,-0.65421 -30.56086,-1.56098 -31.0158,-2.01281 -0.45494,-0.4534 19.13974,-0.56321 43.53498,-0.24474 39.53462,0.51615 79.11619,3.33064 86.45821,6.14667 2.00811,0.77031 2.60435,0.08 2.60435,-3.01999 0,-4.97947 -1.86697,-5.34187 -32.72579,-6.36475 -12.37813,-0.41103 -22.92065,-1.1421 -23.39127,-1.6253 -0.48639,-0.48163 1.88257,-0.95855 5.25558,-1.05739 3.38861,-0.10041 6.85571,-0.34514 7.71862,-0.54595 0.86284,-0.20081 10.91913,-0.47223 22.35585,-0.604 l 20.78701,-0.23847 v -16.38017 c 0,-17.16143 -1.22369,-20.3493 -6.1341,-15.91578 -2.7298,2.48345 -26.15243,11.78191 -32.30229,12.82832 -1.72567,0.29337 -6.24395,1.28958 -10.02477,2.21362 -9.88364,2.40972 -11.60939,1.03072 -2.88663,-2.29991 4.07895,-1.55941 7.42051,-3.39808 7.42051,-4.08523 0,-0.68872 1.45899,-1.7163 3.26315,-2.28422 1.78856,-0.56791 2.99648,-1.288 2.68268,-1.59863 -0.31372,-0.31063 -7.24792,1.56411 -15.42157,4.16681 -13.68022,4.36135 -38.76579,9.29688 -46.21766,9.09451 -1.72575,-0.0471 6.04,-2.4411 17.25709,-5.32148 28.81943,-7.40017 52.71269,-17.39518 70.98952,-29.6901 6.68328,-4.4947 7.85984,-7.55863 5.33406,-13.93121 -0.98837,-2.50904 -1.75711,-2.25331 -7.34217,2.42228 -28.94489,24.27921 -59.97637,36.86436 -101.14248,41.0343 -47.42566,4.80219 -89.29771,7.88181 -140.41026,10.32762 -52.85382,2.53052 -52.66556,2.8286 1.56893,2.42541 53.05769,-0.39378 58.68988,0.17727 70.48753,7.14131 2.94935,1.73199 6.47926,4.87749 7.85976,6.99071 l 2.52578,3.84363 30.93739,0.12864 c 17.02178,0.0707 40.47585,1.03387 52.13212,2.13989 25.68182,2.43953 29.71371,2.5619 33.6672,1.01347 z m 4.76919,-26.16652 c 3.4515,-1.33664 12.37813,-3.78401 19.84568,-5.43914 7.46763,-1.65668 15.40589,-3.71028 17.64938,-4.56215 4.81632,-1.83082 5.63211,0.56948 1.03542,3.03097 -3.90636,2.08969 -26.74851,7.3484 -36.96163,8.50778 l -7.84416,0.89109 z M 77.060221,738.20352 c 0,-8.34148 -0.52559,-10.98181 -2.18533,-10.98181 -3.02048,0 -4.08998,3.52045 -4.08998,13.46369 0,7.45351 0.38613,8.49992 3.13769,8.49992 2.83886,0 3.13762,-1.04641 3.13762,-10.9818 z m 54.909059,6.27531 c 0,-2.58857 -0.70602,-4.70649 -1.56885,-4.70649 -0.86292,0 -1.56877,2.11792 -1.56877,4.70649 0,2.58858 0.70585,4.70649 1.56877,4.70649 0.86283,0 1.56885,-2.11791 1.56885,-4.70649 z m 385.93216,3.13767 c 0,-0.86285 -3.13762,-1.56884 -6.96557,-1.56884 -3.82794,0 -7.4049,0.70599 -7.93825,1.56884 -0.59624,0.96639 2.07083,1.56882 6.96557,1.56882 4.36129,0 7.93825,-0.70597 7.93825,-1.56882 z m 60.16463,-0.0831 c 37.5578,-0.13492 41.80932,-0.48006 41.80932,-3.40279 0,-1.42292 -98.58534,-0.23532 -100.16979,1.20643 -0.29804,0.27612 -0.032,1.34292 0.61184,2.37051 0.78443,1.29271 4.09471,1.57353 10.74655,0.91305 5.27118,-0.52399 26.41903,-1.01346 47.00208,-1.0872 z m 75.80584,-0.88168 c -2.54154,-1.37429 -5.5693,-1.91554 -7.05966,-1.25977 -2.07092,0.90365 -1.61597,1.38999 2.08652,2.28579 7.82848,1.89044 9.664,1.51392 4.97314,-1.02602 z m 20.91254,-1.38841 c -0.43926,-0.86286 -4.94186,-1.62844 -10.00909,-1.70219 -8.2207,-0.11923 -8.91103,0.10512 -6.2754,2.03007 3.35733,2.46463 17.53953,2.17911 16.28449,-0.32788 z m -572.90533,-1.69434 c 1.79792,-0.56007 1.38058,-6.05254 -0.63377,-8.31009 -1.291209,-1.4496 -13.178149,-2.74545 -14.977669,-1.63472 -2.82981,1.74925 -2.69395,9.86167 0.18515,11.05084 2.24182,0.92404 10.88448,0.30435 15.426289,-1.10603 z m 522.26348,-8.08889 c -0.36085,-2.38461 -0.67457,-0.80637 -0.67457,3.50791 -0.016,4.31428 0.28236,6.2659 0.6432,4.33624 0.37653,-1.92965 0.39222,-5.45952 0.032,-7.84415 z m 18.48085,8.99881 c 0.59608,-0.9664 -2.03947,-1.56883 -6.87147,-1.56883 -4.31433,0 -8.28342,0.70597 -8.81685,1.56883 -0.59616,0.9664 2.03947,1.56884 6.87147,1.56884 4.31433,0 8.28342,-0.70598 8.81685,-1.56884 z m 45.49605,0 c -4.37698,-1.87945 -10.19736,-1.87945 -10.19736,0 0,0.86286 2.99648,1.51864 6.66745,1.45901 5.16149,-0.0863 5.96167,-0.41416 3.52991,-1.45901 z m -427.75716,-1.037 c 41.21315,-1.00248 42.60934,-1.13739 42.60934,-4.17464 0,-3.0906 -0.70585,-3.12198 -45.88826,-2.10381 -25.24247,0.56948 -54.53717,1.03543 -65.10641,1.037 -18.17169,0.003 -19.21815,0.17414 -19.21815,3.1408 0,2.99175 1.04646,3.13765 22.49235,3.13765 12.37172,0 41.67281,-0.46594 65.11113,-1.037 z M 81.280381,733.87047 c -0.39269,-1.49981 -0.69969,0.0973 -0.68233,3.54869 0.0168,3.45142 0.33876,4.67825 0.71401,2.72663 0.37525,-1.95163 0.36101,-4.77552 -0.032,-6.27532 z m 75.074859,7.36565 c 1.55148,-2.50856 0.7969,-2.74388 -10.26489,-3.19414 -8.51249,-0.34828 -10.27584,0.0189 -10.6995,2.22617 -0.43614,2.25912 0.97269,2.64191 9.71113,2.64191 5.61955,0 10.68374,-0.75304 11.25326,-1.67394 z m 328.21489,0.13963 14.51161,-0.0345 v -4.03974 -4.0413 l -68.63632,1.05267 c -37.74606,0.57891 -70.75412,1.28959 -73.34279,1.58139 -2.5885,0.29024 -15.40588,0.57576 -28.48986,0.63537 -23.454,0.10355 -23.76788,0.14904 -22.90497,3.44672 l 0.87852,3.34161 81.73598,-0.95385 c 44.96278,-0.52398 88.26245,-0.96797 96.24783,-0.98836 z m 31.7687,-3.95659 c 0,-3.60204 -0.58039,-3.92207 -7.05966,-3.92207 -6.47926,0 -7.05981,0.32003 -7.05981,3.92207 0,3.60203 0.58055,3.92208 7.05981,3.92208 6.47927,0 7.05966,-0.32005 7.05966,-3.92208 z m 66.28313,1.41665 c 35.03194,-0.95542 37.25975,-1.19231 37.25975,-3.95816 0,-2.80036 -1.78848,-2.93213 -37.25975,-2.72506 -20.48896,0.11923 -42.48397,0.64636 -48.85337,1.17192 -10.33858,0.85344 -11.73484,1.35861 -12.95852,4.67355 l -1.3649,3.71812 12.95852,-0.93188 c 7.12254,-0.51301 29.72931,-1.38841 50.21827,-1.94849 z m 92.54526,-4.55431 -0.7373,-3.92208 h -24.14433 c -22.35585,0 -24.12856,0.21179 -24.12856,2.87567 0,1.58295 0.47062,3.34788 1.05109,3.92207 0.56472,0.57576 11.76621,1.04641 24.88163,1.04641 h 23.83053 z m 13.74302,0 c 0,-3.43574 -0.67465,-3.92208 -5.49089,-3.92208 -4.81632,0 -5.49097,0.48634 -5.49097,3.92208 0,3.43731 0.67465,3.92207 5.49097,3.92207 4.81624,0 5.49089,-0.48476 5.49089,-3.92207 z m -282.6718,-4.44136 c 0.42358,-2.13832 -0.80018,-2.61837 -6.66752,-2.61837 -6.00864,0 -7.1696,0.48477 -7.1696,2.99489 0,2.53523 1.01974,2.93685 6.66753,2.61837 4.78495,-0.26982 6.80874,-1.11543 7.16959,-2.99489 z m 14.40184,-1.1421 c 0,-0.81266 -1.06687,-1.47627 -2.35328,-1.47627 -2.43168,0 -3.12193,1.85122 -1.34922,3.61771 1.25513,1.2535 3.7025,-0.16316 3.7025,-2.14144 z m 15.68832,0.87697 c 0,-1.46372 -1.47468,-2.35324 -3.92212,-2.35324 -2.44737,0 -3.92204,0.88952 -3.92204,2.35324 0,1.46371 1.47467,2.35325 3.92204,2.35325 2.44744,0 3.92212,-0.88954 3.92212,-2.35325 z m 5.91447,-0.48947 c 0.94124,-2.8239 -2.30623,-2.23088 -3.38861,0.62125 -0.59624,1.52648 -0.2354,2.24499 0.90988,1.8622 1.01973,-0.342 2.13356,-1.45901 2.47873,-2.48345 z m 12.91139,0.48947 c 0,-1.29429 -1.0667,-2.35324 -2.35311,-2.35324 -1.30225,0 -2.35327,1.05895 -2.35327,2.35324 0,1.29429 1.05102,2.35325 2.35327,2.35325 1.28641,0 2.35311,-1.05896 2.35311,-2.35325 z m 25.8544,-0.25415 c -2.19637,-2.20421 -2.8239,-2.26539 -4.01622,-0.39221 -0.98837,1.56412 -1.39618,1.63943 -1.41194,0.25415 -0.016,-1.19074 -2.18069,-1.96103 -5.52226,-1.96103 -3.82795,0 -5.49089,0.7091 -5.49089,2.35324 0,1.83396 2.1022,2.35325 9.52279,2.35325 8.8795,0 9.3502,-0.17729 6.91852,-2.6074 z m 10.22872,0.25415 c 0,-1.29429 -0.62753,-2.35324 -1.39619,-2.35324 -0.76882,0 -1.81984,1.05895 -2.30623,2.35324 -0.54911,1.43391 0,2.35325 1.39627,2.35325 1.27081,0 2.30615,-1.05896 2.30615,-2.35325 z m 78.83375,-0.32318 c -1.94538,-0.37339 -5.11444,-0.37339 -7.05974,0 -1.94529,0.37495 -0.36084,0.68087 3.52991,0.68087 3.87492,0 5.47521,-0.30592 3.52983,-0.68087 z m -157.27522,-5.95214 c 0,-1.69904 -1.74135,-2.35324 -6.27531,-2.35324 -4.53396,0 -6.27531,0.6542 -6.27531,2.35324 0,1.69905 1.74135,2.35325 6.27531,2.35325 4.53396,0 6.27531,-0.6542 6.27531,-2.35325 z m 35.75363,-0.59772 c 0.37653,-1.10446 -1.78847,-1.75552 -5.82037,-1.75552 -4.54956,0 -6.40077,0.65891 -6.40077,2.27793 0,2.75958 11.29558,2.27638 12.22114,-0.52241 z m 37.98137,-0.18669 c 0,-0.86286 -2.82389,-1.56883 -6.27523,-1.56883 -3.4515,0 -6.2754,0.70597 -6.2754,1.56883 0,0.86285 2.8239,1.56883 6.2754,1.56883 3.45134,0 6.27523,-0.70598 6.27523,-1.56883 z m -78.14334,-8.62864 c -0.39229,-3.33533 -1.49044,-5.49091 -2.8239,-5.49091 -1.44339,0 -2.18069,1.84809 -2.18069,5.49091 0,4.24055 0.64321,5.4909 2.8239,5.4909 2.30614,0 2.69836,-1.01188 2.18069,-5.4909 z m 35.78499,0.0486 c 0,-4.19191 -0.53343,-5.23361 -2.35327,-4.53862 -1.34922,0.51615 -2.35327,2.85526 -2.35327,5.44227 0,2.98862 0.8001,4.53862 2.35327,4.53862 1.63158,0 2.35327,-1.6504 2.35327,-5.44227 z m 36.38116,-0.0486 c -0.36085,-3.02 -1.27081,-5.49091 -2.03947,-5.49091 -0.76875,0 -1.39635,2.47091 -1.39635,5.49091 0,3.45771 0.75306,5.4909 2.03955,5.4909 1.41195,0 1.83553,-1.70374 1.39627,-5.4909 z m 417.57541,-21.51022 c 2.58858,-4.10093 0,-5.13165 -4.62806,-1.84181 -2.30615,1.62687 -6.02432,4.1825 -8.2991,5.68074 -2.2591,1.49979 -4.1888,4.10405 -4.28289,5.79054 -0.15682,2.75487 0.61184,2.55876 7.68734,-1.95319 4.31425,-2.76114 8.59714,-6.21413 9.52271,-7.67628 z m -484.54887,8.17517 c -0.53327,-0.86286 -3.74946,-1.56884 -7.15375,-1.56884 -3.40438,0 -6.18122,0.70598 -6.18122,1.56884 0,0.86285 3.2161,1.56882 7.15391,1.56882 4.36138,0 6.7773,-0.61027 6.18106,-1.56882 z m 35.86356,-0.78442 c 0.7217,-1.87475 -0.51775,-2.35324 -6.10273,-2.35324 -5.19285,0 -7.01269,0.61184 -7.01269,2.35324 0,1.68806 1.72567,2.35324 6.10273,2.35324 3.98485,0 6.43214,-0.81892 7.01269,-2.35324 z m 35.12611,-0.41574 c 0.45494,-1.3492 -1.5218,-1.9375 -6.54207,-1.9375 -6.69889,0 -8.64427,1.15779 -6.13409,3.66635 1.74135,1.74768 11.98583,0.35142 12.67616,-1.72885 z m -75.11566,-2.91803 c 7.5618,-1.51078 5.82037,-3.72596 -2.93367,-3.72596 -5.93015,0 -7.84416,0.57576 -7.84416,2.35324 0,2.53523 3.04352,2.92272 10.77783,1.37272 z m 39.42476,-2.15714 c 1.72567,-1.11543 0.59616,-1.52646 -4.22016,-1.5453 -3.62392,-0.0126 -7.01269,0.68245 -7.54605,1.5453 -1.25504,2.03321 8.62851,2.03321 11.76621,0 z m 36.56942,-1.70531 c -0.73738,-0.74205 -4.15743,-0.85345 -7.57749,-0.24787 l -6.24395,1.10288 6.27539,0.88796 c 6.88708,0.97424 9.63256,0.34201 7.54605,-1.74297 z"
       style="fill:#000000;stroke-width:0.80010635"
       id="path2311"
       inkscape:connector-curvature="0" />
  </g>
</svg>
