<?xml version="1.0"?>
<svg xmlns:rdf="http://www.w3.org/1999/02/22-rdf-syntax-ns#" xmlns="http://www.w3.org/2000/svg" xmlns:cc="http://web.resource.org/cc/" xmlns:xlink="http://www.w3.org/1999/xlink" xmlns:dc="http://purl.org/dc/elements/1.1/" xmlns:svg="http://www.w3.org/2000/svg" id="Layer_1" xml:space="preserve" overflow="visible" viewBox="0 0 404.64 310.734" version="1.1" enable-background="new 0 0 404.64 310.734">
<g clip-rule="evenodd" fill-rule="evenodd">
	<path d="m334.56 69.631c-5.088-3.696-13.127-6.514-11.04-15.84 4.307 0.073 6.452 4.668 10.08 3.84 0.691-0.109 0.168-1.433 0.96-1.44-1.45-4.309-6.246-5.273-9.6-7.68-0.471-7.558 1.71-15.462-3.36-17.76-6.972-1.467-10.015 8.59-14.88 9.12-3.235 0.353-4.211-2.722-8.64-2.4 0.405 5.035 4.95 5.93 7.2 9.12-1.852 3.281-0.817 7.792-3.36 11.04 1.011 3.469 5.366 3.594 4.8 8.64 1.031 0.89 3.517 0.324 5.28 0.48 0.403 1.196 0.628 2.572 0.48 4.32-3.058 0.599-5.172-0.634-7.2-0.48-1.291 0.098-2.189 1.106-3.36 0.96-2.851-0.355-8.494-4.582-10.56-6.72-1.889-1.955-4.401-5.452-6.24-8.16-13.619-20.058-0.864-50.03 22.56-55.2 4.206-0.928 9.712-1.269 14.88-0.48 1.872 0.286 5.275 1.252 7.681 2.4 2.114 1.009 8.099 3.74 10.08 5.76 0.715 0.729 0.732 2.173 1.439 2.88 0.231 0.231 1.227-0.244 1.44 0 0.51 0.581 1.485 2.339 2.399 3.36 13.46 15.018 8.04 44.731-11.04 54.24z" fill="#fff"/>
	<path d="m103.2 47.071h1.44c0.496 1.594 1.594 6.28-1.92 5.28-0.05-1.968-0.1-3.934 0.48-5.28z" fill="#fff"/>
	<path d="m113.28 47.071c0.861-0.061 1.013 0.587 1.92 0.48-0.142 1.867 1.243 3.797 0 5.28-1.532 0.412-1.485-0.755-2.4-0.96-0.26-2.981 1.1-2.501 0.48-4.8z" fill="#fff"/>
	<path d="m107.52 47.551h1.92v4.8c-3.22 1.105-2.68-3.443-1.92-4.8z" fill="#fff"/>
	<path d="m308.16 66.271c0.207-1.073 2.365-0.194 3.359-0.48-0.21 1.073-2.37 0.195-3.36 0.48z" fill="#fff"/>
	<path d="m289.44 83.551c7.2-1.08 13.894 1.224 21.119-0.48-4.313 12.13 9.888 21.737 0.48 28.8-8.06-8.58-13.85-19.426-21.6-28.319z" fill="#fff"/>
	<path d="m234.24 89.311c1.787-0.062 2.597 2.443 1.92 3.36-0.98-0.459-1.899-0.981-2.88-1.44-0.35-1.31 0.95-0.966 0.96-1.92z"/>
	<path d="m223.2 108.51c-0.049 1.221-1.789 1.134-2.4 0.48 0.33-1.5 1.28-0.63 2.4-0.48z" fill="#fff"/>
	<path d="m213.12 108.99c1.459-0.02 3.159-0.279 2.88 1.44-1.356-0.396-1.243 0.677-2.4 0.48-0.37-0.43-0.52-1.08-0.48-1.92z" fill="#fff"/>
	<path d="m204.96 109.47h2.4c-0.066 0.894-0.316 1.604-0.96 1.92-1.27 0.15-1.24-1-1.44-1.92z" fill="#fff"/>
	<path d="m179.04 110.43c-1.16 1.58-2.29-1.33 0 0z" fill="#fff"/>
	<path d="m148.8 110.43c1.51-0.23 1.876 0.684 2.88 0.96-0.39 1.82-3.17 0.74-2.88-0.96z" fill="#fff"/>
	<path d="m156.96 110.43c0.775-0.135 0.826 0.454 1.44 0.48 0.19 0.93-2.19 0.7-1.44-0.48z" fill="#fff"/>
	<path d="m170.4 110.43c1.003-0.203 1.271 0.329 1.92 0.48 0.15 0.85-2.69 0.86-1.92-0.48z" fill="#fff"/>
	<path d="m344.16 117.15c1.976 0.657 1.133 3.787 1.439 6.72 1.076 10.28 2.717 22.7 4.32 29.28-2.818-0.678-3.222-4.827-3.36-7.2-0.5-8.6-2.09-19.32-2.4-28.8z" fill="#fff"/>
	<path d="m307.68 117.63c2.707 3.053 7.741 3.779 9.12 8.16-2.29-3.47-8.13-3.39-9.12-8.16z" fill="#fff"/>
	<path d="m276.48 120.51c1.226 0.054 0.952 1.607 0.96 2.88-1.82 0.41-1.7-2.15-0.96-2.88z" fill="#fff"/>
	<path d="m285.12 120.51c1.265-0.145 1.575 0.665 1.439 1.92h-1.439v-1.92z" fill="#fff"/>
	<path d="m296.64 120.51c0.845 0.116 1.095 0.826 0.96 1.92-0.894 0.066-1.604 0.316-1.92 0.96-1.12-0.54 0.38-2.45 0.96-2.88z" fill="#fff"/>
	<path d="m307.68 120.99c0.062 0.861-0.587 1.012-0.479 1.92-1.047 0.087-1.527-0.393-1.44-1.44 0.43-0.37 1.08-0.51 1.92-0.48z" fill="#fff"/>
	<path d="m6.72 123.87c0.71 0.25 1.209 0.71 1.92 0.96 0.063 1.184 0.073 2.313-0.48 2.88h-1.92c-0.816-0.87-0.739-3.56 0.48-3.84z" fill="#fff"/>
	<path d="m294.72 124.35c1.24-1.65 1.16 2.47 0 0z" fill="#fff"/>
	<path d="m0 124.35c1.763-0.271 2.187 3.788 0 3.36v-3.36z" fill="#fff"/>
	<path d="m151.2 124.83c1.033 0.407 1.698 1.182 1.44 2.88h-1.92c-0.35-1.47 0.83-1.41 0.48-2.88z" fill="#fff"/>
	<path d="m158.4 124.83c2.173 0.067 1.931 2.549 1.92 4.8-1.68-0.44-3.1-3.02-1.92-4.8z" fill="#fff"/>
	<path d="m165.6 124.83c2.014 0.082 2.781 1.696 1.92 3.36-1.74-0.01-2.11-1.41-1.92-3.36z" fill="#fff"/>
	<path d="m188.16 124.83c3.231-0.398 3.365 3.185 1.44 4.32-1.03-0.96-1.46-1.48-1.44-4.32z" fill="#fff"/>
	<path d="m194.88 124.83c2.391-0.54 2.989 2.42 1.92 3.84-1.64-0.28-2.27-1.57-1.92-3.84z" fill="#fff"/>
	<path d="m202.08 125.31c0.485-1.352 2.039 0.133 2.88 0-0.005 1.275 0.182 2.741-0.479 3.36-0.999-0.282-1.552-1.009-2.4-1.44-0.35-1.31 0.954-0.966 0.96-1.92h-0.96z" fill="#fff"/>
	<path d="m210.24 124.83c2.147-0.228 2.401 1.438 2.399 3.36-1.479 0.359-0.585-1.655-2.399-0.96v-2.4z" fill="#fff"/>
	<path d="m143.04 125.79c0.429-1.296 1.948 0.223 1.44 1.44-1.11 0.15-0.53-1.39-1.44-1.44z" fill="#fff"/>
	<path d="m172.32 125.31c3.009-0.148 2.237 2.631 1.44 4.32-2.26-0.71-1.48-1.82-1.44-4.32z" fill="#fff"/>
	<path d="m180.96 125.31c0.861-0.061 1.013 0.588 1.92 0.48 0.192 1.792-0.383 2.816-1.92 2.88-1.11-1.07 0.16-1.87 0-3.36z" fill="#fff"/>
	<path d="m218.88 125.31c1.375-0.094 2.62-0.06 2.4 1.44-0.93 0.93-2.94 0.5-2.4-1.44z" fill="#fff"/>
	<path d="m128.64 125.79c1.848-0.378 1.848 2.298 0 1.92v-1.92z" fill="#fff"/>
	<path d="m135.84 125.79c2.237 0.009 2.237 2.391 0 2.4v-2.4z" fill="#fff"/>
	<path d="m124.32 126.27c1.266-0.146 1.238 1.002 1.44 1.92-1.6 0.48-1.57-0.67-1.44-1.92z" fill="#fff"/>
	<path d="m394.08 126.75c2.436 0.181 1.878 2.907 1.439 4.8-0.427-0.373-1.083-0.516-1.92-0.48 0.1-1.5-0.32-3.52 0.48-4.32z" fill="#fff"/>
	<path d="m399.36 126.75h1.92c0.977 1.748 0.082 2.867-0.48 4.32-2.49-0.05-1.86-2.47-1.44-4.32z" fill="#fff"/>
	<path d="m308.64 127.23c1.539 0.789 1.225 1.605 0.96 3.36-1.478 0.336-0.922 0.336-2.399 0-0.61-2.21 0.87-2.33 1.44-3.36z" fill="#fff"/>
	<path d="m388.8 127.23c2.885-0.451 2.996 3.823 0.48 3.84-1.32-1.11-0.3-1.59-0.48-3.84z" fill="#fff"/>
	<path d="m296.64 127.71c2.007 0.074 2.623 1.538 2.4 3.84-2.79 0.71-2.49-1.67-2.4-3.84z" fill="#fff"/>
	<path d="m286.56 128.19c3.318-0.997 3.865 3.922 0.96 3.84-0.55-1.05-1.24-1.96-0.96-3.84z" fill="#fff"/>
	<path d="m0 132.03c0.631 0.489 1.77 0.471 2.4 0.96-0.396 1.356 0.677 1.244 0.48 2.4-0.614 0.656-2.266 0.656-2.88 0v-3.36z" fill="#fff"/>
	<path d="m8.16 132.51c1.41 0.878 2.671 2.646 1.92 4.32-3.471 0.38-2.865-2.51-1.92-4.32z" fill="#fff"/>
	<path d="m318.24 138.27c1.215 1.985 1.022 5.377 1.439 8.16-2.15-0.51-1.55-5.93-1.44-8.16z" fill="#fff"/>
	<path d="m351.36 148.35c1.532-0.677 1.213 2.872 0.479 2.88-2.16 0.05 0.21-1.45-0.48-2.88z" fill="#fff"/>
	<path d="m297.6 149.79h0.96v0.96h-0.96v-0.96z" fill="#fff"/>
	<path d="m331.2 149.79c2.78 1.7 4.415 4.544 5.28 8.16-1.203 0.877-3.162 0.999-3.841 2.4-1.73-2.84-0.6-7.96-1.44-10.56z" fill="#fff"/>
	<path d="m50.88 151.23c1.453 0.842 1.927 5.561 0 5.76-1.499 0.239-0.227-0.644-0.48-0.96-1.042-1.301-3.222-1.283-4.32-2.879 0.608-1.63 5.609 1.13 4.8-1.92z" fill="#fff"/>
	<path d="m317.76 151.23c2.375-0.866 2.031 4.262-0.479 2.88 0.55-0.57 0.54-1.69 0.48-2.88z" fill="#fff"/>
	<path d="m84.48 152.19c-0.209 0.591-0.614 0.986-1.44 0.96 0.21-0.59 0.614-0.98 1.44-0.96z" fill="#fff"/>
	<path d="m83.52 153.63c0.849 0.431 1.401 1.158 2.4 1.439 0.206 1.326-1.79 0.451-1.92 1.44-0.92-0.41-1.299-2.1-0.48-2.88z" fill="#fff"/>
	<path d="m200.16 153.63c-0.583 1.978-1.635 3.484-1.92 5.76-2.697-0.022-4.933-0.507-7.2-0.96-2.26 0.235-1.161-0.865 0.48-0.48 2.659-0.221 4.334-1.425 7.2-1.439 0.458-2.219-3.122-0.398-2.88-2.4 1.86 0.26 2.34-0.86 4.32-0.48z" fill="#fff"/>
	<path d="m300 153.63c2.253 0.34 0.843 4.196 4.32 4.319-1.585 5.685 8.961 4.856 11.04 1.44-0.145-0.712-2.02-2.065-2.4-0.96-1.079-1.994 5.392-2.779 6.72-2.4-1.183 3.396-0.938 6.633 0 10.08-4.308 1.933-9.156 3.323-13.439 5.28-2.42-5.58-3.61-12.39-6.24-17.76z" fill="#fff"/>
	<path d="m86.4 158.91c-2.186 2.035 2.91 2.84 0.48 3.359 0.407 0.714 1.545 0.694 2.4 0.96-0.51 1.09-3.017 0.183-4.32 0.48-0.305 2.225 2.625 1.215 4.32 1.439 0.812 0.535-2.624 0.864-3.84 0.96 1.717 2.597 8.216 1.903 11.52 1.44-0.004 2.518 3.218 2.883 4.8 2.399-2.109 2.462-0.823 5.659-2.88 7.681 0.373 3.473 6.524 3.708 7.2 5.28-0.434 1.371-3.975-0.168-5.76-0.961-9.79-4.347-18.414-12.234-22.56-22.56 3.356-0.22 5.538-0.79 8.64-0.48z" fill="#fff"/>
	<path d="m99.84 158.91c0.115-0.694 3.951-1.116 3.36 0.479-1.66 0.39-1.84-0.71-3.36-0.48z" fill="#fff"/>
	<path d="m150.24 158.43c-1.489 1.552-5.212 0.868-7.68 1.44 1.59-1.45 5.3-0.78 7.68-1.44z" fill="#fff"/>
	<path d="m196.8 161.79c-1.99-0.13-1.87 0.63-3.36 0 0.57-0.33 3.51-1.98 3.36 0z" fill="#fff"/>
	<path d="m98.4 161.79c0.827-1.693 0.786 1.385 2.4 0.479 0.156 1.09-7.384 2.427-3.84 0.96-0.07 0.03 2.917-0.56 1.44-1.44z" fill="#fff"/>
	<path d="m388.32 161.79c-5.279 2.166-11.989-0.063-17.761 1.439-0.562 0.078-0.404 0.875-0.479 1.44-1.947-0.45-4.864-0.851-6.72 0-0.418-1.857 1.172-1.708 1.439-2.88 9.41 1.37 14.1-1.6 23.52 0z" fill="#fff"/>
	<path d="m153.12 164.67c-3.286-0.246-5.229 0.852-8.64 0.479-0.553-2.313 2.232-1.287 2.4-2.88 2.15 1.44 5.08-0.39 6.24 2.4z" fill="#fff"/>
	<path d="m126.72 163.71c0.455 1.734-1.891 0.669-2.88 0.96 0.187 1.413 2.262 0.938 2.88 1.92h9.6c-0.013 0.467-0.587 0.372-0.96 0.479h-13.44c9.258 5.303 27.995 1.126 39.84 3.841-8.137 1.065-20.452 0.234-27.84 0.479 0.553 1.858 3.293 1.672 4.8 1.92 3.071 0.506 7.109 0.443 12.48 0.48 4.042 3.679 9.702 1.574 15.36 1.439 7.288-0.173 15.024 2.783 22.08 0.48-2.546-2.894-9.104-1.776-13.44-2.88 3.58-1.54 11.444 1.204 12.48-2.881 1.43 1.276 5.415-0.191 6.24 0.48-2.116 6.044-3.018 13.303-4.32 20.16-9.44-0.317-21.674-0.943-30.72-0.96-16.021-0.029-28.003-1.801-41.76-2.88-0.456-0.985-0.596-2.285-1.92-2.4 1.922-0.081 2.5-1.231 4.8-1.92-0.44-1.8-1.561-2.92-3.36-3.36 1.24-1.159 3.635-1.165 3.84-3.359 0.225-2.305-2.318-1.843-2.88-3.36-0.359-1.479 1.655-0.585 0.96-2.4-0.459-2.42-3.817-1.942-4.8-3.84 3.808 0.288 6.941-0.099 7.2-3.359 2.04 0.2 4.26 0.22 5.76 0.96z" fill="#fff"/>
	<path d="m196.32 163.71c0.011 1.131-0.827 1.413-0.48 2.88-2.308 2.08-10.063 1.593-12-0.96 5.32 0.52 8.79-0.81 12.48-1.92z" fill="#fff"/>
	<path d="m404.64 164.19v2.88c-2.533-1.146-5.028-2.331-8.64-2.399 1.93-1.11 5.91-0.17 8.64-0.48z" fill="#fff"/>
	<path d="m25.92 165.15c-1.287 2.783 1.44 2.574 3.84 2.88-1.51 1.323-3.773-0.685-6.24 0 0.624-0.638 0.633-1.786-0.48-1.92 0.592-0.69 1.65-0.91 2.88-0.96z" fill="#fff"/>
	<path d="m95.04 165.63c-0.081-1.041 1.703-0.218 2.4-0.48 0.081 1.04-1.703 0.22-2.4 0.48z" fill="#fff"/>
	<path d="m404.64 168.03v1.44c-9.694 0.076-18.813-2.379-27.84-1.44 0.055-0.585 0.144-1.136 0.96-0.96-0.804-1.227-4.921 0.8-5.76-1.439 10-0.59 22.22 4.13 32.64 2.4z" fill="#fff"/>
	<path d="m153.12 174.27c1.703-2.457 8.033-0.286 9.6-2.88 3.269 0.879 5.384 0.807 8.64 0.96h2.88c-4.18 1.663-10.173-1.1-12.96 1.44-2.76 0.12-6.12-0.36-8.16 0.48z" fill="#fff"/>
	<path d="m316.32 219.87c-2.127 1.859-5.178 0.803-7.681 0.96-4.397 0.276-8.086 1.428-12 1.439 2.453-2.347 6.822-2.777 9.12-5.28 2.9 1.58 8.49 0.47 10.56 2.88z" fill="#fff"/>
	<path d="m287.52 227.07c-0.357 1.083-2.691 0.188-3.84 0.48 0.4-1.1 2.95-1.31 3.84-0.48z" fill="#fff"/>
	<path d="m246.24 269.79c-0.21 0.59-0.614 0.985-1.44 0.96-0.22-1.02 0.68-0.91 1.44-0.96z" fill="#fff"/>
	<path d="m243.84 270.75c0.645 0.315 0.895 1.025 0.96 1.92-1.553-0.594-0.366 1.553-1.92 0.96-1.31-1.3 1.24-1.19 0.96-2.88z" fill="#fff"/>
	<path d="m255.84 275.07c-0.795 2.271-0.471 2.703-1.92 4.32-0.427-0.213-0.858-0.422-0.96-0.96v-0.96c2.51 1.71 0.53-2.65 2.88-2.4z" fill="#fff"/>
	<path d="m252 278.43c-0.115 0.845-0.826 1.094-1.92 0.96 0.32-0.64 1.03-0.89 1.92-0.96z" fill="#fff"/>
	<path d="m0 117.63c2.974 0.845 6.865-0.805 10.08 0.48 1.74-0.34 0.662-3.499 0.96-5.28-0.393-1.208-2.531-0.669-3.36-1.44 0.043-4.917 4.83-5.09 7.68-7.2 3.485 1.155 5.712 3.568 8.16 5.76-1.106 2.094-2.632 3.768-1.92 7.68 4.167-0.267 7.86 0.129 12.96 0 1.057-1.184 1.066-3.414 1.92-4.8 2.202 0.599 3.332-0.543 5.28 0.48 1.166 1.463 0.704 2.057 0.48 4.32 4.487-0.792 10.392-0.168 14.88-0.96 2.611 6.898 1.879 16.897 1.44 25.44-0.108 2.101-0.752 4.687 0.48 6.24-0.153 1.127-1.486 1.074-1.92 1.92 1.113 0.153 1.843-0.077 2.4-0.48 2.671-7.912 0.52-16.844 0.96-24.48 0.094-1.637 0.646-3.213 0.48-4.8-0.337-3.231-3.09-9.184-4.32-12.48-3.062-8.208-7.145-17.016-12.96-22.56 5.527-4.207 11.98-1.803 17.76 0.48 1.356 0.536 3.154 1.011 3.84 1.44 2.683 1.677 6.238 6.622 7.2 9.12 1.867 4.847 0.768 10.719 0.48 16.8-1.356-0.396-1.244 0.677-2.4 0.48 5.342 7.962 0.361 26.113 4.32 37.44 2.216-1.382 3.891-0.324 7.2-0.48-1.498-1.062-3.224-1.896-5.28-2.4 0.061-2.46-1.789-3.011-2.4-4.8 0.665-9.25 0.147-16.208-0.48-25.44 6.97-1.185 13.672-0.144 19.2-0.96 0.702 1.698 2.306 2.494 3.36 3.84 0.238 2.638-2.739 2.062-1.92 5.28 0.597 1.886 4.416 0.805 5.28 0 0.17-26.496-0.947-48.553-0.48-73.92 0.02-1.058 0.802-1.37 0.96-2.4 0.355-2.312-1.45-5.125 0-7.68-0.414-1.666-1.497-2.663-2.4-3.84 1.992-4.302 4.076-9.457 6.24-14.4 2.073-4.736 3.096-10.893 6.72-12.96 2.85 1.135 13.095 23.765 13.44 26.88-0.392 2.008-2.57 2.23-3.36 3.84 1.779 7.96 2.631 20.898 1.44 30.72-0.331 1.291-0.898 7.326-0.48 9.6 0.822 4.464 0.614 25.946 0 25.92 0.147 3.185 0.174 7.67 0 11.52 5.243 1.54 16.287 0.507 22.56 0.48v-6.24c-0.866-2.813-7.445 0.085-8.16-2.88 1.562-1.987 4.307-2.75 6.72-3.84 7.31-3.302 14.594-7.143 26.4-5.76 0.244-5.036 4.371-6.189 6.72-9.12 3.582 0.739 5.02 3.62 7.68 5.28v4.32c5.818 0.059 7.936 0.277 12.48 0.48 0.36-1.64-1.95-0.61-1.44-2.4 0.079-2.641 3.763-1.678 2.88-5.28 1.702-1.499 3.418-2.982 5.76-3.84 1.062-1.019 0.081-4.079 2.4-3.84 0.973 0.924 1.116 1.932 0.48 3.36 2.827 0.213 3.959 2.121 6.72 2.4 1.214 2.786 2.657 5.342 4.32 7.68 3.72 0.28 7.049 0.951 10.56 1.44 1.377-0.543 0.52-3.32 2.88-2.88-0.552-1.345-0.552-2.495 0-3.84 2.137-0.931 6.113-2.272 8.16-0.48 0.022 3.227 2.543 4.691 1.44 7.68 5.629 1.317 10.39 3.678 15.359 4.8 0.897 1.343 1.349 3.132 1.92 4.8 11.888 2.83 16.696-2.741 22.08-7.68 6.97 0.382 12.819-0.739 16.32 2.88 1.485 1.536 1.221 4.332 3.359 5.76 2.116 0.124 3.713 0.767 6.24 0.48-6.841-10.759-14.804-20.396-22.08-30.72-2.422 0.342-3.504-0.656-5.279-0.96-1.586-4.098-0.889-7.12 2.399-9.12 6.419 2.267 12.002-0.783 19.2-0.48-12.581-8.537-23.877-20.578-21.12-39.84 2.258-15.772 16.713-31.556 34.561-32.16 13.112-0.444 22.301 3.877 28.8 11.04 10.537 5.656 14.617 28.551 8.16 42.72-1.058 2.32-1.829 4.019-3.841 4.8-1.148 5.73-6.646 7.114-9.6 11.04-1.515-0.235-1.695 0.865-3.36 0.48 0.629 9.308 6.027 11.6 6.721 20.16-0.51 2.371-2.444 3.316-1.92 6.72 3.484 3.555 4.371 9.708 4.8 16.32 4.082 0.08 6.002 0.358 9.12 0 2.196 3.083 4.178 6.382 5.76 10.08 1.441 0.639 3.672 0.488 5.76 0.48 0.993-3.232-1.495-2.984-1.92-4.8 2.82-3.42 7.913-4.567 11.04-7.68h11.521c-5.363 11.757-14.26 19.981-20.641 30.72-2.961 1.199-4.89 3.43-7.2 5.28-1.356 0.396-1.243-0.676-2.399-0.48-0.408 1.317-1.915 3.125-0.96 4.32 4.478-2.097 7.978-5.995 11.52-9.6 10.615-10.802 19.428-25.045 25.44-40.8 4.224-0.311 2.475 3.413 1.92 5.76-0.896 3.794-1.378 6.133-2.88 10.08-0.835 2.191-2.507 4.161-3.36 6.24-1.496 3.644-2.145 7.569-3.84 11.04-1.678 3.436-5.069 8.893-6.24 13.44-3.837 3.843-6.853 8.508-9.6 13.44 0.617 0.153 2.385 0.398 4.319 0.479 0.76-0.694-0.049-1.072 0-2.88h2.881c0.708-2.309-2.759-0.441-2.4-2.4 2.653 1.752-0.522-3.068 3.36-1.92 0.71-0.596-1.167-1.396 0.479-2.4 2.811 0.55 6.178 0.542 9.601 0.48-2.427-1.094-6.795-0.245-8.16-2.4 0.115-0.844 0.825-1.094 1.92-0.96 3.062-13.898 10.432-23.488 13.439-37.44h9.601c1.441 1.438 1.631 4.129 3.359 5.28v47.52c-2.727 0.313-6.711-0.631-8.64 0.48 3.611 0.068 6.106 1.253 8.64 2.399v0.96c-10.419 1.729-22.637-2.994-32.64-2.399 0.839 2.239 4.956 0.213 5.76 1.439-0.816-0.176-0.905 0.375-0.96 0.96 9.026-0.938 18.146 1.517 27.84 1.44v1.44c-7.739-0.071-15.404 0.058-24.96 0-4.32-0.026-8.071 0.248-12-0.961-1.104-0.339-3.046-0.582-3.359-1.92h5.279c-0.76-1-3.357-0.161-4.319-0.96-0.381-0.552 0.773-1.118 0.479-1.439-0.027-0.03-4.265-0.818-2.88-0.96-2.301 0.234-5.883 7.412-7.68 8.64 13.127 15.833 27.208 30.712 40.319 46.561-0.349 2.196-3.277 3.881-5.76 2.399 1.605 1.755 5.027 1.692 4.8 5.28-1.067 1.011-2.314-0.506-4.319 0 2.795 1.365 5.437 2.883 5.279 7.2-3.465 0.055-5.718 1.321-8.64 1.92 3.573 1.867 7.351 3.529 9.12 7.2-0.289 4.99-5.518 5.042-10.08 5.76 1.711 3.569 7.051 3.509 7.2 8.64-3.267 1.149-5.639 0.234-8.64 1.44 2.607 3.151 8.505 3.015 8.159 9.12-2.029 0.53-3.937 1.183-5.76 1.92 2.423 2.973 6.328 4.295 6.72 8.16 0.592 5.838-6.484 9.656-11.52 11.52 1.05-4.87 5.49-6.35 7.2-10.56-0.943-4.817-6.92-4.601-9.12-8.16 1.035-2.805 1.74-5.939 5.76-5.761-1.339-2.021-4.269-2.451-5.28-4.8 0.551-3.77 3.638-5.002 7.2-5.76-1.511-2.169-4.902-2.458-6.24-4.8 0.968-3.832 4.032-5.568 8.16-6.24-2.421-2.379-7.061-2.539-9.6-4.8 0.765-3.076 1.611-6.069 3.84-7.68-0.874-1.366-2.637-1.844-3.84-2.881 2.058-1.941 2.043-5.956 6.24-5.76-1.532-1.853-3.626-0.188-5.761-1.439-3.008-5.763-7.378-10.544-11.04-15.841-6.239-9.024-11.212-18.889-17.76-27.84-7.412 6.941-13.88 14.982-21.6 21.601-1.143 0.979-3.195 0.934-3.36 2.88-5.858 2.941-9.994 7.605-15.36 11.04 1.818 0.524 6.357-0.354 9.601 0 1.614-0.775-1.509-1.521 0-2.4 5.98-2.499 16.185-2.782 23.04-0.479-0.588 3.751-5.511 2.736-7.68 2.88-1.305 1.444 1.05 2.142 0.479 4.319-2.403 1.277-5.79 1.57-8.16 2.881 0.835 0.925 3.334 0.187 3.36 1.92-2.82 3.723-9.996 3.11-15.84 3.84-1.729 0.216-5.558 0.81-8.641 0.479 5.396 1.812 13.563-0.652 15.84 3.36-3.208 6.392-17.123 2.077-20.159 8.64-1.861 0.54-3.34 1.461-5.28 1.92 8.475-0.255 20.478-0.94 24.479 5.761-0.306 3.054-5.135 1.584-6.239 3.84-6.776 0.84-10.201 2.085-17.28 2.399 1.771 1.429 4.08 2.32 4.8 4.801-1.319 1.4-4.629 0.811-5.28 2.88-7.333 0.826-13.372 2.947-21.119 3.359 6.616 0.86 18.29 0.505 19.199 8.641-6.192 2.847-14.152 3.979-20.64 5.279 3.569 0.777 6.926 1.638 9.12 4.801-0.091 1.35-1.566 1.313-1.92 2.399 1.556 1.206 4.051 0.143 5.28-0.479-0.307 2.494 1.059 3.847 0 5.76-3.599 2.802-10.651 2.149-11.521 7.68h-3.84c-1.346 1.223 2.025 1.787 0.96 4.32-1.7 0.22-2.772 1.067-4.8 0.96-1.146 2.147 3.432 2.183 2.399 5.76-2.105 2.47-9.585 1.579-12.479 0.48-0.538-1.512-0.044-1.087 0-2.88-1.521 0.666-4.239 0.666-5.76 0 0.549-2.811-1.919-3.717-3.36-5.761 0.417-1.396 0.719-0.539 1.92-0.479-0.621-1.706-1.085-1.745-0.48-3.84-3.563-1.717-10.596 0.036-12-3.84 3.18-3.861 11.021-3.06 16.801-4.32-4.917-1.392-13.308-0.647-19.681-1.92-3.549-0.709-6.527-2.085-8.159-4.32 2.633-3.286 9.633-2.207 13.439-4.32-6.848-1.312-17.103 0.783-20.16-4.319 0.302-1.618 1.631-2.21 3.36-2.4-0.34-1.74-3.498-0.661-5.28-0.96-0.645 0.316-0.894 1.026-0.96 1.92-10.819 3.777-24.114 3.629-36.48 3.36-4.652-0.101-10.706-0.104-13.92-3.36 2.151-2.998 6.316-2.496 10.08-2.88 11.381-1.161 25.231-2.596 36.959 0-2.034-0.846-4.478-1.281-6.72-1.92-0.909-1.264-1.014-1.616-0.479-2.88-17.947 2.941-39.559 2.054-56.16 0.479 1.68 1.68 5.176 1.544 6.72 3.36 0.347 1.467-0.491 1.749-0.48 2.88-9.45 1.105-19.333 1.426-29.28-0.479-1.952-0.374-4.897-0.35-5.76-2.4h6.72c-4.903-1.23-9.875-0.28-15.36-1.439 0.825-1.734 4.425-0.694 5.76-1.921-1.579-2.101-7.509 0.149-8.16-2.88 2.851-0.349 5.179-1.222 8.64-0.96-4.099-1.464-12.276-1.381-17.28-3.359 1.063-2.938 5.462-2.538 8.64-3.36-2.926-2.033-9.02-0.9-11.04-3.84 0.505-1.255 1.951-1.57 3.84-1.44-1.377-1.183-4.239-0.881-4.8-2.88-4.359 2.441-10.961 2.796-19.68 2.4-6.9-0.313-13.689-0.585-15.84-4.8 1.895-3.226 7.316-2.924 12-3.36-3.998-1.922-10.548-1.292-11.52-6.24 2.831-2.142 6.57-0.342 9.12-1.439-0.254-0.387-0.5-0.779-0.48-1.44-0.61 0.536-5.405 0.159-5.76-2.4 1.74-3.368 5.982-2.556 10.56-1.92-0.865-1.694-4.136-0.983-5.28-2.399-0.687-1.34 2.007-1.594-0.48-2.88 0.148-0.651 1.202-0.398 1.92-0.48-1.974-2.666-7.367-1.913-9.12-4.8 1.993-2.343 6.241 1.023 10.08 0-1.086-1.313-2.88-1.92-4.32-2.88 0.844-2.144 3.552-1.165 5.76-0.96-7.353-7.367-13.455-15.984-16.32-27.84-0.141-0.979-1.299-0.941-1.44-1.92-2.508-0.108-4.792 0.008-6.72 0.479-1.178-1.713-1.313-5.899-0.48-8.16 2.548-0.492 4.797-1.283 6.72-2.399-0.131-2.749-4.859-0.901-7.2-1.44-0.635-2.908-1.157-7.055 0-9.12 2.51-0.21 4.206-1.234 7.2-0.96v-3.84h-3.36c-1.315 1.144 1.895 2.116 0.48 3.36-1.919 0.159-2.665-0.856-4.8-0.48-1.909 1.291-2.726 3.675-6.72 2.88 1.097 1.303 4.662 0.138 4.32 2.88-0.023 2.058-2.88 1.28-4.8 1.44 0.072 0.888 1.625 0.295 1.92 0.96-1.047 1.673-2.822 2.618-5.76 2.4-0.596 2.326-3.329 1.627-6.72 2.88-1.493 0.551-2.566 1.732-3.36 1.92-3.831 0.901-8.237-0.041-11.52-1.92 0.108-0.691 1.433-0.168 1.44-0.96-5.346-1.253-10.089-1.568-14.88-3.36-1.617-0.604-4.1-1.15-4.32-2.88 2.243-1.256 6.678-1.305 9.12-0.96-0.087-1.513-2.423-0.777-2.4-2.4 0.409 2.085-4.874 1.564-7.68 1.92v-4.8c3.775-0.351 4.696 1.452 9.6 0-1.36-1.782-7.475-1.024-9.6-0.479v-24.48c0.614 0.656 2.266 0.656 2.88 0 0.197-1.156-0.876-1.043-0.48-2.4-0.63-0.489-1.769-0.471-2.4-0.96v-4.32c2.187 0.428 1.763-3.63 0-3.36v-6.72zm345.6-102.24c-0.914-1.021-1.89-2.779-2.399-3.36-0.214-0.244-1.209 0.231-1.44 0-0.707-0.708-0.725-2.151-1.439-2.88-1.981-2.02-7.966-4.751-10.08-5.76-2.405-1.147-5.809-2.114-7.681-2.4-5.168-0.789-10.674-0.448-14.88 0.48-23.424 5.17-36.179 35.143-22.56 55.2 1.839 2.708 4.352 6.205 6.24 8.16 2.065 2.139 7.709 6.365 10.56 6.72 1.171 0.146 2.069-0.862 3.36-0.96 2.028-0.154 4.143 1.079 7.2 0.48 0.147-1.749-0.077-3.124-0.48-4.32-1.764-0.156-4.249 0.41-5.28-0.48 0.566-5.046-3.789-5.17-4.8-8.64 2.543-3.248 1.509-7.759 3.36-11.04-2.25-3.19-6.795-4.085-7.2-9.12 4.429-0.322 5.404 2.753 8.64 2.4 4.865-0.53 7.908-10.587 14.88-9.12 5.07 2.298 2.89 10.202 3.36 17.76 3.354 2.407 8.149 3.371 9.6 7.68-0.792 0.008-0.269 1.332-0.96 1.44-3.628 0.828-5.773-3.768-10.08-3.84-2.087 9.327 5.952 12.144 11.04 15.84 19.08-9.509 24.5-39.222 11.04-54.24zm-242.88 36.96c3.514 1 2.416-3.686 1.92-5.28h-1.44c-0.58 1.346-0.53 3.312-0.48 5.28zm10.08-0.48c0.916 0.205 0.869 1.372 2.4 0.96 1.243-1.483-0.142-3.413 0-5.28-0.908 0.107-1.059-0.541-1.92-0.48 0.62 2.299-0.74 1.819-0.48 4.8zm-3.36 0.48v-4.8h-1.92c-0.76 1.357-1.3 5.905 1.92 4.8zm201.6 59.519c9.407-7.062-4.794-16.67-0.48-28.8-7.226 1.704-13.919-0.6-21.119 0.48 7.75 8.894 13.54 19.74 21.6 28.32zm-90.24-2.88c0.611 0.654 2.352 0.741 2.4-0.48-1.12-0.15-2.07-1.02-2.4 0.48zm-7.2 1.92c1.157 0.197 1.044-0.876 2.4-0.48 0.279-1.719-1.421-1.459-2.88-1.44-0.04 0.84 0.11 1.49 0.48 1.92zm-7.2 0.48c0.644-0.316 0.894-1.026 0.96-1.92h-2.4c0.2 0.92 0.17 2.07 1.44 1.92zm-45.6-0.48c0.851 0.429 0.612 1.948 2.4 1.44v-2.4c-1.19-0.07-1.99 0.25-2.4 0.96zm18.24-0.48c-2.29-1.33-1.16 1.58 0 0zm-27.36 0.96c-1.004-0.276-1.37-1.19-2.88-0.96-0.29 1.7 2.49 2.78 2.88 0.96zm6.72-0.48c-0.614-0.026-0.665-0.615-1.44-0.48-0.75 1.18 1.63 1.41 1.44 0.48zm13.92 0c-0.649-0.151-0.917-0.683-1.92-0.48-0.77 1.34 2.07 1.33 1.92 0.48zm174.24 35.04c0.139 2.374 0.542 6.522 3.36 7.2-1.604-6.581-3.244-19-4.32-29.28-0.307-2.933 0.536-6.063-1.439-6.72 0.31 9.48 1.9 20.2 2.4 28.8zm-29.76-20.16c-1.379-4.381-6.413-5.106-9.12-8.16 0.99 4.77 6.83 4.69 9.12 8.16zm-39.36-2.4c-0.008-1.272 0.266-2.826-0.96-2.88-0.74 0.73-0.86 3.29 0.96 2.88zm7.68-0.96h1.439c0.136-1.255-0.175-2.064-1.439-1.92v1.92zm10.56 0.96c0.316-0.644 1.026-0.894 1.92-0.96 0.135-1.094-0.115-1.804-0.96-1.92-0.58 0.43-2.08 2.34-0.96 2.88zm10.08-1.92c-0.087 1.047 0.394 1.527 1.44 1.44-0.107-0.908 0.541-1.059 0.479-1.92-0.84-0.03-1.49 0.11-1.92 0.48zm-106.08 30.24c1.207 0.644 2.29-1.326 2.88-1.92 4.475-4.504 8.133-8.68 12.959-12.48 5.075-3.995 9.271-6.307 15.841-9.12 3.921-1.679 8.367-4.134 12-4.32 2.656-0.135 7.565 1.57 11.52 1.92 5.292 0.468 9.368 0.876 12.48 3.36 1.112 0.153 1.843-0.078 2.399-0.48 0.182 2.219 2.906 1.894 4.8 2.4v1.44c7.444 1.676 11.267 6.974 17.28 10.08 1.15 1.841 2.876 5.292 5.28 4.32-3.585-5.535-10.217-8.023-14.4-12.96-1.778 0.463-3.101-1.797-3.359-1.92-3.496-1.651-8.85-2.063-9.12-5.28-1.554-0.593-0.367 1.553-1.92 0.96-10.692-4.018-27.597-7.223-36.48-1.44-1.014-0.426-1.419-1.461-2.88-1.44-0.659 1.094 1.237 1.805 0 1.92-10.837 4.204-18.157 11.923-26.4 18.72-0.422 1.542 1.583 0.658 1.44 1.92-1.44 1.44-3.28 2.48-4.32 4.32zm-193.44-24h1.92c0.553-0.567 0.543-1.696 0.48-2.88-0.71-0.25-1.21-0.71-1.92-0.96-1.219 0.28-1.296 2.97-0.48 3.84zm288.48-3.36c1.16 2.47 1.24-1.65 0 0zm-144 3.36h1.92c0.258-1.698-0.407-2.473-1.44-2.88 0.35 1.47-0.83 1.41-0.48 2.88zm9.6 1.92c0.011-2.251 0.253-4.733-1.92-4.8-1.18 1.78 0.24 4.36 1.92 4.8zm7.2-1.44c0.861-1.664 0.094-3.278-1.92-3.36-0.19 1.95 0.18 3.35 1.92 3.36zm22.08 0.96c1.925-1.135 1.791-4.719-1.44-4.32-0.02 2.84 0.41 3.36 1.44 4.32zm7.2-0.48c1.069-1.42 0.471-4.38-1.92-3.84-0.35 2.27 0.28 3.56 1.92 3.84zm6.24-3.36c-0.006 0.954-1.31 0.61-0.96 1.92 0.849 0.432 1.401 1.159 2.4 1.44 0.661-0.619 0.475-2.085 0.479-3.36-0.841 0.133-2.395-1.352-2.88 0h0.96zm7.2 1.92c1.814-0.695 0.921 1.319 2.399 0.96 0.002-1.922-0.252-3.588-2.399-3.36v2.4zm-65.76 0c0.508-1.217-1.011-2.736-1.44-1.44 0.91 0.05 0.33 1.59 1.44 1.44zm29.28 2.4c0.797-1.689 1.569-4.468-1.44-4.32-0.04 2.5-0.82 3.61 1.44 4.32zm7.2-0.96c1.537-0.064 2.112-1.088 1.92-2.88-0.907 0.108-1.059-0.541-1.92-0.48 0.16 1.49-1.11 2.29 0 3.36zm40.32-1.92c0.22-1.5-1.025-1.534-2.4-1.44-0.54 1.94 1.47 2.37 2.4 1.44zm-92.64 0.96c1.848 0.378 1.848-2.298 0-1.92v1.92zm7.2 0.48c2.237-0.009 2.237-2.391 0-2.4v2.4zm-10.08 0c-0.202-0.918-0.174-2.066-1.44-1.92-0.13 1.25-0.16 2.4 1.44 1.92zm267.84 2.88c0.837-0.036 1.493 0.107 1.92 0.48 0.438-1.894 0.996-4.619-1.439-4.8-0.8 0.8-0.38 2.82-0.48 4.32zm7.2 0c0.562-1.454 1.457-2.572 0.48-4.32h-1.92c-0.42 1.85-1.05 4.27 1.44 4.32zm-93.6-0.48c1.478 0.336 0.922 0.336 2.399 0 0.265-1.755 0.579-2.572-0.96-3.36-0.57 1.03-2.05 1.15-1.44 3.36zm82.08 0.48c2.516-0.018 2.404-4.292-0.48-3.84 0.18 2.25-0.84 2.73 0.48 3.84zm-90.24 0.48c0.223-2.303-0.394-3.766-2.4-3.84-0.09 2.17-0.39 4.55 2.4 3.84zm-11.52 0.48c2.905 0.082 2.358-4.837-0.96-3.84-0.28 1.88 0.41 2.79 0.96 3.84zm-277.44 4.8c0.751-1.674-0.51-3.442-1.92-4.32-0.945 1.81-1.551 4.7 1.92 4.32zm309.6 9.6c-0.417-2.783-0.225-6.175-1.439-8.16-0.11 2.23-0.71 7.65 1.44 8.16zm-120.48 3.36c1.434-0.166 1.911-1.289 2.4-2.4-1.16 0.44-1.96 1.24-2.4 2.4zm152.64 1.44c0.733-0.008 1.053-3.557-0.479-2.88 0.69 1.43-1.68 2.93 0.48 2.88zm-54.24-0.48h0.96v-0.96h-0.96v0.96zm35.04 9.6c0.679-1.401 2.638-1.523 3.841-2.4-0.865-3.615-2.5-6.46-5.28-8.16 0.84 2.6-0.29 7.72 1.44 10.56zm-286.56-7.2c1.098 1.596 3.277 1.579 4.32 2.879 0.253 0.316-1.019 1.199 0.48 0.96 1.927-0.199 1.453-4.918 0-5.76 0.809 3.05-4.192 0.29-4.8 1.92zm271.2 0.96c2.511 1.382 2.854-3.746 0.479-2.88 0.06 1.19 0.07 2.31-0.48 2.88zm-234.24-0.96c0.826 0.025 1.23-0.37 1.44-0.96-0.826-0.02-1.23 0.37-1.44 0.96zm0.96 3.36c0.13-0.989 2.125-0.114 1.92-1.44-0.999-0.281-1.551-1.009-2.4-1.439-0.819 0.78-0.44 2.47 0.48 2.88zm111.84-2.4c-0.242 2.002 3.338 0.182 2.88 2.4-2.866 0.015-4.541 1.219-7.2 1.439-1.641-0.385-2.74 0.716-0.48 0.48 2.267 0.453 4.503 0.938 7.2 0.96 0.285-2.275 1.337-3.782 1.92-5.76-1.98-0.38-2.46 0.74-4.32 0.48zm110.4 17.28c4.283-1.957 9.132-3.348 13.439-5.28-0.938-3.447-1.183-6.684 0-10.08-1.328-0.379-7.799 0.406-6.72 2.4 0.381-1.105 2.256 0.248 2.4 0.96-2.079 3.416-12.625 4.244-11.04-1.44-3.478-0.123-2.067-3.979-4.32-4.319 2.63 5.37 3.82 12.18 6.24 17.76zm-228.48-12c4.146 10.325 12.77 18.213 22.56 22.56 1.786 0.793 5.326 2.332 5.76 0.961-0.676-1.572-6.827-1.808-7.2-5.28 2.057-2.021 0.771-5.219 2.88-7.681-1.582 0.483-4.804 0.118-4.8-2.399-3.304 0.463-9.803 1.156-11.52-1.44 1.216-0.096 4.652-0.425 3.84-0.96-1.695-0.225-4.625 0.785-4.32-1.439 1.303-0.298 3.81 0.609 4.32-0.48-0.854-0.266-1.993-0.246-2.4-0.96 2.43-0.52-2.666-1.324-0.48-3.359-3.102-0.31-5.284 0.26-8.64 0.48zm25.44 0c0.59-1.596-3.245-1.174-3.36-0.479 1.52-0.23 1.7 0.87 3.36 0.48zm39.36 0.48c2.468-0.572 6.191 0.111 7.68-1.44-2.38 0.66-6.09-0.01-7.68 1.44zm50.88 1.92c1.49 0.63 1.37-0.13 3.36 0 0.15-1.98-2.79-0.33-3.36 0zm-96.48 1.44c-3.544 1.467 3.996 0.13 3.84-0.96-1.614 0.905-1.573-2.173-2.4-0.479 1.477 0.88-1.51 1.47-1.44 1.44zm267.84-1.44c-0.268 1.172-1.857 1.022-1.439 2.88 1.855-0.851 4.772-0.45 6.72 0 0.075-0.565-0.083-1.362 0.479-1.44 5.771-1.503 12.481 0.727 17.761-1.439-9.42-1.6-14.11 1.37-23.52 0zm-217.92 0.48c-0.168 1.593-2.953 0.566-2.4 2.88 3.412 0.372 5.354-0.726 8.64-0.479-1.16-2.79-4.09-0.96-6.24-2.4zm-25.92 0.48c-0.259 3.261-3.392 3.647-7.2 3.359 0.983 1.897 4.341 1.42 4.8 3.84 0.695 1.815-1.319 0.922-0.96 2.4 0.562 1.518 3.104 1.056 2.88 3.36-0.205 2.194-2.6 2.2-3.84 3.359 1.799 0.44 2.919 1.561 3.36 3.36-2.299 0.688-2.878 1.839-4.8 1.92 1.324 0.115 1.464 1.415 1.92 2.4 13.756 1.079 25.739 2.851 41.76 2.88 9.046 0.017 21.28 0.643 30.72 0.96 1.302-6.857 2.204-14.116 4.32-20.16-0.825-0.672-4.81 0.796-6.24-0.48-1.036 4.085-8.9 1.341-12.48 2.881 4.336 1.104 10.894-0.014 13.44 2.88-7.056 2.303-14.792-0.653-22.08-0.48-5.658 0.135-11.318 2.239-15.36-1.439-5.371-0.037-9.409 0.025-12.48-0.48-1.507-0.248-4.248-0.062-4.8-1.92 7.388-0.245 19.703 0.586 27.84-0.479-11.845-2.715-30.582 1.462-39.84-3.841h13.44c0.373-0.107 0.947-0.013 0.96-0.479h-9.6c-0.619-0.981-2.694-0.507-2.88-1.92 0.99-0.291 3.335 0.774 2.88-0.96-1.5-0.74-3.72-0.76-5.76-0.96zm62.88 2.88c1.937 2.553 9.692 3.04 12 0.96-0.347-1.467 0.491-1.749 0.48-2.88-3.69 1.11-7.16 2.44-12.48 1.92zm-160.8 0.48c1.113 0.134 1.104 1.282 0.48 1.92 2.466-0.685 4.729 1.323 6.24 0-2.4-0.306-5.126-0.097-3.84-2.88-1.23 0.05-2.288 0.27-2.88 0.96zm74.4-0.96c-0.697 0.263-2.481-0.561-2.4 0.48 0.697-0.26 2.481 0.56 2.4-0.48zm63.84 8.64c2.788-2.54 8.78 0.223 12.96-1.44h-2.88c-3.255-0.153-5.371-0.081-8.64-0.96-1.567 2.594-7.897 0.423-9.6 2.88 2.04-0.84 5.4-0.36 8.16-0.48zm144.48 43.2c-2.298 2.503-6.667 2.934-9.12 5.28 3.914-0.012 7.603-1.163 12-1.439 2.503-0.157 5.554 0.899 7.681-0.96-2.07-2.41-7.66-1.3-10.56-2.88zm-22.08 10.56c1.148-0.292 3.482 0.603 3.84-0.48-0.89-0.83-3.44-0.62-3.84 0.48zm-64.8 42.24c-3.76-1.45-2.09 1.02 0 0zm25.92 0.96c0.826 0.025 1.23-0.37 1.44-0.96-0.76 0.05-1.66-0.06-1.44 0.96zm-1.92 2.88c1.554 0.593 0.367-1.554 1.92-0.96-0.065-0.895-0.315-1.604-0.96-1.92 0.28 1.69-2.27 1.58-0.96 2.88zm10.08 3.84v0.96c0.102 0.538 0.533 0.747 0.96 0.96 1.449-1.617 1.125-2.049 1.92-4.32-2.35-0.25-0.37 4.11-2.88 2.4zm-2.88 1.92c1.094 0.134 1.805-0.115 1.92-0.96-0.89 0.07-1.6 0.32-1.92 0.96z"/>
	<path d="m0 159.87c2.125-0.545 8.24-1.303 9.6 0.479-4.904 1.452-5.825-0.351-9.6 0v-0.48z" fill="#fff"/>
	<path d="m204 147.39c0.143-1.262-1.862-0.378-1.44-1.92 8.243-6.797 15.563-14.517 26.4-18.72 1.237-0.115-0.659-0.826 0-1.92 1.461-0.021 1.866 1.014 2.88 1.44 8.884-5.783 25.788-2.578 36.48 1.44 1.553 0.593 0.366-1.553 1.92-0.96 0.271 3.217 5.624 3.629 9.12 5.28 0.259 0.123 1.581 2.383 3.359 1.92 4.184 4.937 10.815 7.425 14.4 12.96-2.404 0.972-4.13-2.479-5.28-4.32-6.014-3.106-9.836-8.404-17.28-10.08v-1.44c-1.894-0.506-4.618-0.181-4.8-2.4-0.557 0.402-1.287 0.633-2.399 0.48-3.112-2.484-7.188-2.892-12.48-3.36-3.954-0.35-8.863-2.055-11.52-1.92-3.633 0.186-8.079 2.641-12 4.32-6.569 2.813-10.766 5.125-15.841 9.12-4.826 3.8-8.484 7.976-12.959 12.48-0.59 0.594-1.673 2.564-2.88 1.92 1.04-1.84 2.88-2.88 4.32-4.32z" fill="#fff"/>
	<path d="m201.6 147.39c-0.489 1.111-0.966 2.234-2.4 2.4 0.44-1.16 1.24-1.96 2.4-2.4z" fill="#fff"/>
	<path d="m218.88 269.79c-2.09 1.02-3.76-1.45 0 0z" fill="#fff"/>
	<path d="m163.2 109.95v2.4c-1.789 0.508-1.55-1.011-2.4-1.44 0.41-0.71 1.21-1.03 2.4-0.96z" fill="#fff"/>
	<path d="m96 257.31c-3.821 0.818-6.807 2.474-11.52 2.4 2.622 3.458 8.768 3.392 9.12 9.12-4.011 2.068-10.862 1.298-15.36 2.88 6.596 0.193 13.835 3.713 15.84 10.08-1.708 3.258-6.516 0.742-11.04 1.439 2.613 2.729 9.06 3.214 9.12 7.681 0.045 3.367-3.798 5.34-9.12 5.279 0.096 1.824 2.019 1.822 1.92 3.84-1.106 0.494-1.548 1.652-3.36 1.44 0.552-3.803-4.703-4.952-7.2-7.2 0.883-3.757 5.788-3.492 9.6-4.32-0.601-2.119-4.273-1.167-5.28-2.88-0.008-1.928 2.505-1.334 4.32-1.439-3.195-3.569-7.627 1.644-11.04-0.96 0.094-1.854 0.017-3.537-0.48-4.8 1.228-1.013 2.059-2.422 4.32-2.4 0.419-1.858-2.096-0.784-1.44-2.88-2.832-1.328-7.93-0.391-10.56-1.92-1.175-4.669 5.669-5.359 9.6-6.24 4.154-0.931 7.909-1.697 10.56-1.92-2.703-3.835-9.35-1.664-13.44-3.36v-3.359c-1.685-2.155-6.765-0.916-7.68-3.841 1.287-3.517 12.633-4.706 16.8-4.8 7.348-0.16 16.206 1.13 16.32 8.16z"/>
</g>
<metadata><rdf:RDF><cc:Work><dc:format>image/svg+xml</dc:format><dc:type rdf:resource="http://purl.org/dc/dcmitype/StillImage"/><cc:license rdf:resource="http://creativecommons.org/licenses/publicdomain/"/><dc:publisher><cc:Agent rdf:about="http://openclipart.org/"><dc:title>Openclipart</dc:title></cc:Agent></dc:publisher><dc:title>venice gondolier</dc:title><dc:date>2006-10-26T21:46:36</dc:date><dc:description>asilhouetted scene of a gondolier with Venice in the background</dc:description><dc:source>http://openclipart.org/detail/968/venice-gondolier-by-johnny_automatic</dc:source><dc:creator><cc:Agent><dc:title>johnny_automatic</dc:title></cc:Agent></dc:creator><dc:subject><rdf:Bag><rdf:li>clip art</rdf:li><rdf:li>clipart</rdf:li><rdf:li>gondolier</rdf:li><rdf:li>image</rdf:li><rdf:li>italy</rdf:li><rdf:li>media</rdf:li><rdf:li>png</rdf:li><rdf:li>public domain</rdf:li><rdf:li>scene</rdf:li><rdf:li>silhouette</rdf:li><rdf:li>svg</rdf:li><rdf:li>venice</rdf:li></rdf:Bag></dc:subject></cc:Work><cc:License rdf:about="http://creativecommons.org/licenses/publicdomain/"><cc:permits rdf:resource="http://creativecommons.org/ns#Reproduction"/><cc:permits rdf:resource="http://creativecommons.org/ns#Distribution"/><cc:permits rdf:resource="http://creativecommons.org/ns#DerivativeWorks"/></cc:License></rdf:RDF></metadata></svg>
