<?xml version="1.0"?>
<svg xmlns:rdf="http://www.w3.org/1999/02/22-rdf-syntax-ns#" xmlns="http://www.w3.org/2000/svg" xmlns:cc="http://creativecommons.org/ns#" xmlns:dc="http://purl.org/dc/elements/1.1/" xmlns:svg="http://www.w3.org/2000/svg" id="svg2" viewBox="0 0 246 300" version="1.0">
  <path id="path2384" d="m71.595 296.86c-0.522-0.5-2.3-1.11-3.95-1.35-2.794-0.39-2.751-0.43 0.628-0.57 2.163-0.09 4.13 0.45 4.872 1.35 1.34 1.61 0.023 2.1-1.55 0.57zm56.985-0.18c-0.41-0.67-2.14-0.89-4.31-0.55-3.34 0.52-3.47 0.45-1.68-0.89 2.47-1.85 4.98-1.85 6.51-0.01 0.65 0.79 2.17 1.63 3.37 1.86 1.82 0.35 1.73 0.45-0.52 0.56-1.48 0.08-3-0.36-3.37-0.97zm7.57-0.64c0-0.14 0.11-0.55 0.25-0.9 0.13-0.36-0.65-1.02-1.75-1.47-2.47-1 5.46-0.22 10.5 1.04 3 0.75 3.14 0.9 1 1.09-4.28 0.36-10 0.5-10 0.24zm-90.005-1.41c0-0.46 1.35-0.84 3-0.84s3 0.42 3 0.93-1.35 0.89-3 0.85c-1.65-0.05-3-0.47-3-0.94zm104.2-3.34c0.38-3.27 0.21-3.5-2.4-3.5-1.53 0-2.79-0.45-2.79-1s1.57-1 3.5-1c3.01 0 3.5-0.33 3.5-2.37 0-1.3 0.9-3.51 2-4.91 2.27-2.89 2.59-4.2 0.75-3.09-0.83 0.5-0.78 0.17 0.14-0.97 0.76-0.94 1.13-1.97 0.82-2.28-0.32-0.32 0.3-2.14 1.38-4.04 1.07-1.91 1.72-3.84 1.44-4.29-0.28-0.46 0.15-1.38 0.97-2.05 0.81-0.68 1.26-1.58 1-2-0.27-0.43 0.19-1.34 1.02-2.02 1.08-0.9 1.21-1.6 0.44-2.53-0.78-0.93-0.56-1.63 0.8-2.61 2.56-1.84 3.62-4.98 2.02-6-0.87-0.55-0.54-0.82 1.05-0.83 1.42-0.01 2.17-0.5 1.91-1.26-0.23-0.69 0.29-1.8 1.17-2.47 1.36-1.05 1.37-1.23 0.09-1.27-1.34-0.04-1.34-0.15 0-1.03 1.17-0.77 0.95-0.93-1-0.74-1.67 0.17-2.5-0.24-2.5-1.24 0-1.02 1.01-1.5 3.16-1.5 1.74 0 3.44-0.28 3.79-0.63 0.34-0.34-0.18-3.94-1.16-8-1.36-5.59-1.79-11.37-1.77-23.89 0.02-15.21 0.19-16.79 2.2-20.04 2.32-3.75 8.28-19.77 8.28-22.26 0-0.81 0.67-1.73 1.5-2.05 0.82-0.31 1.5-1.06 1.5-1.66s-0.45-0.81-1-0.47-1-0.06-1-0.89c0-0.82 0.45-1.78 1.01-2.12 0.56-0.35 0.74-1.08 0.4-1.64-0.34-0.55 0.26-1.98 1.34-3.18 2.69-2.98 3.2-5.75 2.05-11.16-0.81-3.8-1.23-4.4-2.4-3.44-1.15 0.96-1.13 0.51 0.12-2.47 1.15-2.76 1.26-4.15 0.44-5.68-0.6-1.12-0.93-2.79-0.72-3.73 0.5-2.32 4.05 4.6 6.33 12.34 1.27 4.28 1.7 8.78 1.53 15.97-0.12 5.5-0.29 13.48-0.36 17.75-0.08 4.26-0.5 7.75-0.94 7.75-1.66 0-0.72 1.89 1.25 2.51 1.57 0.5 1.79 0.97 0.95 1.98-0.77 0.93-0.79 1.52-0.04 1.99 0.59 0.36 0.81 1.07 0.49 1.59-0.31 0.51-0.19 0.93 0.27 0.93s0.79 1.22 0.72 2.71c-0.17 4 1.58 5.51 3.99 3.44 1.57-1.33 1.48-0.97-0.42 1.85-1.3 1.92-2.54 3.71-2.75 3.97-0.2 0.26-0.77-0.18-1.26-0.97-0.49-0.8-1.17-1.17-1.51-0.83-0.35 0.34 0.8 3.26 2.54 6.47 2.51 4.65 3.03 5.19 2.49 2.61-0.57-2.7-0.17-3.86 2.37-6.94 1.68-2.04 2.79-3.95 2.47-4.26-0.32-0.3-1.26 0.46-2.1 1.7-0.83 1.23-1.93 2.25-2.44 2.25s0.18-1.47 1.53-3.25c1.97-2.61 2.21-3.49 1.18-4.42-0.98-0.9-1.68-0.78-3.06 0.5-1.24 1.15-1.1 0.67 0.44-1.58 1.22-1.79 1.77-3.25 1.21-3.25s-1.71 1-2.57 2.22c-0.85 1.22-1.55 1.81-1.55 1.31s1-1.97 2.22-3.27c1.75-1.86 1.94-2.54 0.89-3.19-0.93-0.58-1-1.03-0.22-1.51 0.61-0.37 1.09-1.44 1.07-2.37-0.02-1.48-0.21-1.45-1.5 0.25-0.81 1.08-1.23 2.72-0.93 3.67 0.3 0.94 0 2.05-0.66 2.47-0.84 0.52-1.01 0.22-0.56-0.97 0.4-1.02 0.26-1.47-0.33-1.11-1.94 1.2-0.94-1.29 2.02-5 1.65-2.08 3-4.17 3-4.64 0-1.73-1.7-0.8-3 1.64-0.74 1.37-1.73 2.5-2.2 2.5-1.7 0-1.92-2.91-0.83-10.65 1.63-11.48 1.35-28.15-0.6-35.89-1.31-5.23-1.41-7.1-0.48-9.14 1.16-2.53 1.21-2.54 3.29-0.7 1.16 1.03 3 3.88 4.09 6.32 1.83 4.08 1.98 6.48 1.85 29.08-0.07 13.55 0.31 27.02 0.87 29.93 0.55 2.9 1.24 8.27 1.53 11.91 0.8 10.11 1.97 14.99 5.78 24.14 1.14 2.73 1.35 6.77 0.98 18.45-0.26 8.23-0.18 17.72 0.18 21.1 0.65 6.02 0.72 6.13 3.35 5.6 1.89-0.39 2.16-0.67 0.94-0.93-0.97-0.2-1.75-0.79-1.75-1.3 0-2.6 23.24-0.08 26.15 2.84 1.27 1.26-0.3 2.09-7.78 4.16-6.49 1.8-7.22 2.73-3.37 4.3l3.38 1.38-3.94 2.39c-2.17 1.31-5.27 3.65-6.88 5.2-3.06 2.92-4.56 3.52-4.56 1.81 0-0.55-1.24-1.01-2.75-1.02-2.01-0.01-2.37-0.26-1.34-0.91 1.21-0.77 1.18-1.66-0.22-6.23-0.89-2.94-1.91-8.27-2.25-11.84-0.66-6.98-2.3-13.48-3.18-12.6-0.3 0.3-0.04 2.46 0.57 4.82 1.11 4.29 2.1 23.05 1.17 22.11-0.28-0.27-0.74-3.27-1.03-6.67l-0.52-6.16-1.19 6c-0.66 3.3-1.49 7.01-1.85 8.25-0.48 1.67-0.23 2.25 0.97 2.25 0.89 0 1.62 0.45 1.62 1s-0.65 1-1.45 1c-1.39 0-3.11 1.77-2.4 2.48 0.19 0.2 1.66 0.68 3.26 1.08 2.44 0.62 2.81 0.47 2.29-0.88-0.34-0.89-0.19-1.89 0.34-2.21 0.53-0.33 0.96 0.33 0.96 1.47 0 2.66 3.01 2.72 3.7 0.07 0.8-3.06 2.02-1.49 1.52 1.94-0.53 3.59-1.07 3.66-8.12 1.09-6.47-2.37-6.72-2.59-5.15-4.48 1.07-1.3 0.54-1.42-4.11-0.9-2.94 0.32-6.69 1.15-8.34 1.84-3.48 1.45-30.87 5.42-37.86 5.49-0.48 0-0.68-1.57-0.45-3.49zm3.81-3.06c0-0.25-0.45-0.44-1-0.44s-1 0.47-1 1.06c0 0.58 0.45 0.78 1 0.44s1-0.82 1-1.06zm7.73-1.14c-0.98-0.25-2.33-0.23-3 0.04-0.68 0.27 0.12 0.48 1.77 0.46s2.2-0.24 1.23-0.5zm10.02-0.02c-1.52-0.23-3.99-0.23-5.5 0-1.52 0.23-0.28 0.42 2.75 0.42 3.02 0 4.26-0.19 2.75-0.42zm20.25-0.29c1.04-0.69-0.36-0.91-4.66-0.74-3.38 0.14-5.94 0.58-5.69 1 0.67 1.09 8.58 0.89 10.35-0.26zm-14.82-3.68c-0.72-0.29-1.58-0.25-1.91 0.08-0.34 0.33 0.25 0.57 1.31 0.53 1.16-0.05 1.4-0.29 0.6-0.61zm-22.2-3.12c-0.01-1.46-0.15-1.49-0.98-0.19-1.27 1.95-1.27 3.28 0 2.5 0.55-0.34 0.99-1.38 0.98-2.31zm13.25-1.92c-1.8-0.22-4.5-0.22-6 0.01-1.51 0.23-0.03 0.41 3.27 0.41 3.3-0.01 4.52-0.2 2.73-0.42zm12.27-1.27c0.73-1.19-0.25-1.19-3 0-1.93 0.82-1.93 0.86 0.19 0.93 1.2 0.03 2.47-0.38 2.81-0.93zm-16.25-1.77c2.07-0.25 4.01-0.85 4.31-1.34s1.88-0.89 3.49-0.89c3.61 0 3.87-1.55 0.4-2.42-5.59-1.41-0.67-2.39 15.43-3.08l16.91-0.72-0.33-7.64c-0.4-9.35-1.32-14.8-3.09-18.32-3.14-6.23-4.48-11.96-3.82-16.32 0.77-5.18-1.21-13.02-5.57-22-1.6-3.3-3.59-8.82-4.43-12.25-1.76-7.25-4.47-12.96-7.42-15.64-2.06-1.85-2.1-1.84-3.23 1-0.63 1.59-1.51 4.24-1.95 5.89-0.45 1.65-1.54 5.47-2.43 8.5-2.65 9.03-2.08 24.55 1.5 40.67 0.86 3.89 0.55 4.99-4.65 16-3.06 6.51-6.81 15.2-8.32 19.33-1.52 4.12-3.13 8.36-3.58 9.42-0.7 1.63-0.53 1.8 1.1 1.09 1.06-0.46 3.62-1.04 5.68-1.28zm17.8-14.18c-0.94-0.59 0.12-0.72 3-0.35 2.44 0.32 4.63 0.73 4.86 0.93 0.94 0.82-6.53 0.27-7.86-0.58zm-5.32-56.71c0.67-0.27 2.02-0.29 3-0.04 0.97 0.26 0.42 0.48-1.23 0.5s-2.45-0.19-1.77-0.46zm5.45 65.97c-0.72-0.29-1.58-0.25-1.91 0.08-0.34 0.33 0.25 0.57 1.31 0.53 1.16-0.05 1.4-0.29 0.6-0.61zm38-1c-0.72-0.29-1.58-0.25-1.91 0.08-0.34 0.33 0.25 0.57 1.31 0.53 1.16-0.05 1.4-0.29 0.6-0.61zm15.82-0.37c0-0.59-0.45-0.78-1-0.44s-1 0.81-1 1.06c0 0.24 0.45 0.44 1 0.44s1-0.48 1-1.06zm-28.34-22.32c0.04-3.51 0.38-6.89 0.76-7.5 0.39-0.63 0.06-1.12-0.76-1.12-1.49 0-2.66 2.04-2.66 4.64 0 0.84 0.48 1.17 1.12 0.78 0.79-0.49 0.85-0.2 0.2 0.95-1 1.79-0.54 8.63 0.58 8.63 0.38 0 0.72-2.88 0.76-6.38zm-4.16-12.62c-0.8-4.73-0.01-5.2 1.74-1.02 0.97 2.3 1.59 2.76 2.76 2.01 1.28-0.82 1.24-0.97-0.25-0.98-0.97-0.01-1.75-0.51-1.75-1.11 0-1.58-3.2-8.17-4.72-9.73-1.58-1.62-1.64-2.25-0.16-1.92 0.62 0.13 1.35-0.38 1.63-1.14 0.31-0.85 0.07-1.12-0.62-0.69-0.68 0.41-1.13 0-1.13-1.03 0-3.51-1.39-0.2-2.04 4.87-0.44 3.4-0.23 6.47 0.61 8.74 0.91 2.47 1.33 2.91 1.45 1.5 0.1-1.36 0.46-0.97 1.09 1.25 1.32 4.54 2.2 4.06 1.39-0.75zm4.89-7.81c-0.87-2.03-2.06-5.04-2.63-6.69-1.32-3.81-2.36-4.97-3.21-3.59-0.37 0.6-0.14 1.09 0.51 1.09 0.78 0 0.98 1.01 0.59 3-0.35 1.72-0.18 3 0.39 3 0.93 0 2 2.01 3.37 6.31 0.31 1 1.02 1.54 1.57 1.2 0.63-0.39 0.42-1.98-0.59-4.32zm-6.29-15c-0.5-0.94-0.73-3.06-0.51-4.7 0.23-1.65 0.14-2.41-0.19-1.7-0.48 1.04-0.89 1.05-2.13 0.02-1.35-1.12-1.44-0.86-0.71 2.21 0.45 1.91 0.85 4.44 0.88 5.63 0.04 1.74 0.39 1.97 1.82 1.21 1.29-0.7 1.52-1.41 0.84-2.67zm-2.38-9.94c1.37-1.67 1.41-1.67 0.89 0-0.3 0.96-0.15 1.75 0.35 1.75s0.86-1.35 0.82-3c-0.07-2.45-0.34-2.79-1.49-1.83-1.72 1.43-3.62 4.83-2.69 4.83 0.37 0 1.32-0.79 2.12-1.75zm-0.72-31.56c0-0.55-0.9-0.19-2 0.81-1.1 0.99-2 2.26-2 2.81s0.9 0.18 2-0.81c1.1-1 2-2.26 2-2.81zm0.56-4.46c-0.72-0.72-2.49 0.75-3.69 3.07-1.09 2.09-1.02 2.08 1.49-0.22 1.44-1.34 2.43-2.62 2.2-2.85zm-0.63-16.73c0-0.55-0.66-0.13-1.47 0.94-0.8 1.07-1.45 2.64-1.43 3.5 0.04 1.69 2.89-2.68 2.9-4.44zm-1.77-4.74c-0.74-0.74-0.87-0.35-0.43 1.32 0.35 1.35 0.8 1.8 1.05 1.05 0.24-0.72-0.03-1.78-0.62-2.37zm1.5-9.8c0-1.87-0.35-2.67-0.93-2.1-0.51 0.52-0.63 1.88-0.27 3.04 0.91 2.86 1.2 2.64 1.2-0.94zm-0.73-5.46c0-0.55-0.71-0.1-1.57 1-1.53 1.95-1.55 1.94-0.86-0.38 0.52-1.73 0.38-2.17-0.5-1.62-0.88 0.54-1.04 0.09-0.56-1.63 0.52-1.89 0.44-2.04-0.38-0.74-0.72 1.14-0.7 2.61 0.06 4.79 1.02 2.92 1.2 3.02 2.46 1.37 0.74-0.99 1.35-2.24 1.35-2.79zm-5.31 163.3c0.27-0.44 1.57-0.8 2.88-0.8s2.6 0.36 2.87 0.8-1.02 0.8-2.87 0.8c-1.86 0-3.15-0.36-2.88-0.8zm-62.62-1.02c0-0.92 1-2.37 2.22-3.23 2.45-1.72 8.27-2.16 7.28-0.55-0.34 0.55-1.92 1-3.51 1-1.84 0-3.44 0.8-4.44 2.22-1.23 1.75-1.55 1.87-1.55 0.56zm-47.505-3.96c-2.2-0.54-6.526-0.77-9.614-0.51s-6.223 0.1-6.966-0.36c-0.795-0.49-1.949-0.35-2.799 0.35-1.16 0.96-1.345 0.9-0.934-0.3 0.392-1.15 1.815-1.43 6.084-1.17 4.654 0.27 5.93-0.03 7.748-1.85 2.562-2.56 8.34-4.57 7.721-2.68-0.217 0.66-1.623 1.34-3.126 1.52-1.556 0.18-2.561 0.83-2.334 1.5 0.247 0.73 2.723 1.18 6.561 1.18 3.39 0 6.162 0.07 6.161 0.16-0.001 0.1-0.275 0.88-0.609 1.75-0.676 1.77-2.043 1.84-7.893 0.41zm13.703-0.3c0.386-0.42 0.049-1.42-0.75-2.21-1.702-1.71-1.762-2.3-0.437-4.31 0.709-1.08 1.195-1.18 1.734-0.35 0.413 0.63 3.765 1.31 7.455 1.5 6.18 0.32 6.79 0.17 7.74-1.93 0.57-1.25 1.72-2.54 2.55-2.86s1.51-1.77 1.51-3.23c0-1.45 0.48-4.22 1.07-6.14 2.62-8.46 0.36-32.52-3.78-40.28-2.74-5.16-3-9.13-2.17-34.21 0.3-8.8 0.33-16.81 0.08-17.79-0.58-2.28-5.24-4.71-9.01-4.71-2.483 0-2.921 0.4-2.997 2.75-0.049 1.51-0.459 5-0.911 7.75-0.86 5.22 0.098 14.72 1.798 17.79 0.54 0.99 0.71 3.3 0.36 5.13-0.35 1.89 0.05 5.98 0.94 9.44 1.56 6.09 1.08 13.34-1.2 17.91-0.496 1-0.24 10.59 0.6 22.65 1.4 20 1.39 20.98-0.35 22.25-2.482 1.81-6.435 1.71-6.435-0.17 0-0.83-0.476-1.5-1.059-1.5-0.582 0-0.778-0.46-0.436-1.01 0.384-0.62 1.224-0.41 2.188 0.56 0.861 0.86 2.219 1.31 3.018 1 0.799-0.3 1.887-0.55 2.414-0.55 0.53 0 0.74-1.47 0.46-3.25-0.28-1.79-0.783-6.3-1.124-10.01-0.342-3.72-1.004-6.53-1.47-6.24-0.467 0.29-0.62-2.07-0.34-5.24 0.361-4.08 0.212-5.34-0.509-4.3-0.774 1.11-1.003 0.62-0.949-2 0.039-1.91 0.526-4.04 1.082-4.74s0.717-1.57 0.358-1.92c-0.359-0.36-1.309 0.21-2.111 1.27-1.031 1.36-1.471 4.71-1.502 11.43-0.024 5.22-0.64 11.75-1.37 14.5s-1.15 5.52-0.935 6.15c0.215 0.64-0.083 1.46-0.662 1.81-0.579 0.36-1.053 1.66-1.053 2.9 0 2.29-1.678 4.64-3.322 4.64-0.507 0-0.46-0.57 0.106-1.25 0.566-0.69 2.224-5.65 3.684-11.02 2.468-9.08 2.62-10.81 2.156-24.5-0.329-9.71-1.035-16.24-2.072-19.14-1.069-2.99-1.542-7.64-1.478-14.5 0.088-9.38-0.199-10.94-4.071-22.09-2.292-6.6-4.632-13.8-5.201-16-1.613-6.24-1.965-6.6-8.633-9.02-3.452-1.25-7.109-3.02-8.127-3.95-1.611-1.45-2.39-1.51-6.011-0.42-3.346 1-4.88 0.99-7.845-0.04-7.813-2.73-12.113-6-14.762-11.23-3.879-7.65-8.442-23.45-8.292-28.72l0.131-4.62 0.741 5.5c0.674 5 3.512 15.18 6.212 22.29 3.427 9.01 12.607 15.72 21.501 15.7l4.783-0.02-3.324-2.62c-1.828-1.44-3.785-3.79-4.347-5.23-2.242-5.74-3.587-11.12-2.782-11.12 0.468 0 1.631 2.47 2.585 5.5 0.954 3.02 2.029 5.5 2.391 5.5 0.65 0 2.977-4.49 2.977-5.75 0-0.36-0.54-0.11-1.2 0.55-2.3 2.3-2.667 1.16-1.107-3.41 1.133-3.33 1.258-4.81 0.447-5.31-1.439-0.89-2.759-10.08-1.449-10.08 0.53 0 0.784 1.46 0.565 3.25-0.32 2.61-0.171 2.95 0.76 1.75 0.959-1.25 1.073-1.12 0.665 0.75-0.271 1.23-0.085 2.5 0.413 2.8 0.499 0.31 0.906 1.67 0.906 3.02 0 2.34 1.712 6.33 3.198 7.45 0.383 0.29 0.278 1.19-0.235 2-0.63 1-0.937 1.07-0.947 0.23-0.009-0.69-0.466-1.25-1.016-1.25s-1 0.87-1 1.94c0 1.06-0.45 2.22-1 2.56-1.603 0.99-1.16 1.91 1.508 3.15 2.181 1.01 2.492 0.92 2.492-0.72 0-1.26-0.494-1.68-1.511-1.29-1.012 0.39-1.334 0.12-0.975-0.82 0.295-0.77 1.459-1.4 2.587-1.4 1.617 0 1.955 0.51 1.599 2.37-0.676 3.53 1.845 3.82 4.833 0.55 3.656-4 9.298-16.44 10.271-22.64l0.819-5.23-4.561 0.14c-3.478 0.11-4.179-0.1-2.953-0.89 1.319-0.85 1.424-1.64 0.582-4.38-0.937-3.05-2.691-4.63-2.691-2.43 0 0.51-0.273 1.63-0.607 2.5-0.415 1.09-0.021 1.61 1.25 1.65 1.477 0.05 1.366 0.26-0.538 1.02-2.999 1.2-3.576 0.67-2.15-2 1.512-2.82-0.399-2.71-2.398 0.14-0.856 1.22-1.557 1.84-1.557 1.37s1.575-2.59 3.5-4.73c3.794-4.19 3.948-4.61 2.514-6.86-1.016-1.6-0.85-1.66-7.161 2.95-3.145 2.29-3.09 2.16 0.897-2.23 5.834-6.42 5.335-7.78-1-2.72-4.987 3.98-4.931 3.89 1.121-1.89 5.123-4.893 6.04-6.211 4.684-6.731-1.1-0.422-2.793 0.373-4.87 2.287-1.752 1.614-4.085 3.534-5.185 4.254-1.1 0.73 0.823-1.32 4.273-4.548 7.51-7.034 8.466-10.573 1.057-3.912-4.775 4.293-8.83 7.15-8.83 6.22 0-0.21 2.7-2.51 6-5.102 3.3-2.593 6-5.172 6-5.732 0-0.966-4.472 2.301-10.053 7.343-1.405 1.269-3.542 4.331-4.75 6.811-1.207 2.47-2.195 3.9-2.196 3.18 0-0.72 0.514-2.28 1.143-3.45 0.856-1.6 0.857-2.23 0.002-2.52-0.674-0.22-0.894-1.37-0.535-2.796 0.744-2.966-1.083-3.234-2.843-0.418-1.554 2.494-3.407 2.514-9.736 0.104-4.9-1.861-4.972-1.861-3.976 0 0.558 1.043 1.337 1.93 1.73 1.97s1.614 0.29 2.714 0.55c1.1 0.25 3.61 0.54 5.578 0.65l3.578 0.18 0.143 5.02c0.079 2.77 0.148 9.03 0.153 13.92 0.006 6.26 0.459 9.58 1.529 11.22 1.795 2.74 1.885 3.39 0.468 3.39-1.749 0-4.157-7.07-3.546-10.42 0.522-2.85-1.119-9.63-2.717-11.23-0.377-0.38-0.686-1.65-0.686-2.82s-0.562-2.73-1.25-3.46c-1-1.06-1-1.42 0-1.78 2.587-0.95 1.09-2.13-3.504-2.76-3.796-0.52-5-1.17-5.972-3.23-0.67-1.423-0.935-3.042-0.589-3.602 0.386-0.625-0.202-0.8-1.528-0.453-1.186 0.31-2.157 0.168-2.157-0.317 0-1.637-5.874-3.932-10.066-3.932-3.674 0-4.105-0.236-3.644-1.999 0.287-1.099 0.115-2.251-0.383-2.559-1.572-0.971-0.921-3.836 1.562-6.873 2.536-3.103 5.531-4.251 5.531-2.119 0 1.428 4.66 0.946 6.739-0.697 3.004-2.374-2.828-3.845-6.804-1.717-1.298 0.694-1.935 0.7-1.935 0.019 0-1.31 2.861-1.934 11.385-2.481 3.787-0.244 7.364-0.922 7.95-1.508s2.213-1.061 3.615-1.056c1.403 0.006 5.25-0.932 8.55-2.083 5.184-1.809 6.409-1.92 9-0.817l3 1.276-2.891 0.387c-1.59 0.213-3.218-0.141-3.617-0.787-0.54-0.873-1.518-0.765-3.809 0.42-1.696 0.877-3.867 1.594-4.824 1.594-1.563 0-1.543 0.15 0.2 1.469 2.327 1.76 0.908 1.939-3.417 0.431-2.61-0.91-3.806-0.77-6.899 0.806-2.059 1.049-3.806 2.331-3.883 2.85-0.077 0.52-0.45 2.405-0.828 4.189-0.607 2.864-0.385 3.361 1.89 4.226 3.428 1.303 3.256 2.029-0.481 2.029-1.784 0-2.801-0.416-2.441-1 0.34-0.55-0.083-1-0.941-1-1.014 0-1.586 0.96-1.637 2.75-0.044 1.513-0.306 2.188-0.584 1.5-0.277-0.687-1.228-1.25-2.112-1.25-1.326 0-1.267 0.258 0.333 1.469 1.068 0.807 3.756 1.482 5.974 1.5 3.875 0.03 6.729 1.57 11.642 6.281 1.739 1.667 1.911 1.667 3.619 0 0.986-0.962 3.011-2.644 4.5-3.737s2.706-2.299 2.706-2.68c0-0.382-2.137-0.677-4.75-0.657-7.394 0.056-11.548-0.572-11.96-1.808-0.256-0.766 1.17-1.026 4.416-0.803 4.149 0.285 4.324 0.228 1.294-0.421l-3.5-0.75 4-0.535c2.2-0.294 4.77-0.874 5.711-1.289 1.359-0.598 1.627-0.323 1.307 1.339-0.221 1.15-0.225 2.091-0.007 2.091 1.262 0 5.489-2.461 5.489-3.195 0-0.481-0.87-0.409-1.934 0.16-2.623 1.404-2.934 1.318-2.607-0.715 0.155-0.962-0.102-2.492-0.57-3.4-0.593-1.148-0.373-1.834 0.722-2.254 1.031-0.395 1.749 0.064 2.081 1.331 1.005 3.845 6.663 3.564 6.111-0.304-0.242-1.699-0.997-2.123-3.786-2.123-2.384 0-3.581-0.5-3.792-1.586-0.229-1.181 0.565-1.619 3.11-1.715 3.878-0.146 7.165 2.683 7.165 6.164 0 1.481 0.538 2.047 1.75 1.844 2.543-0.427 2.145 0.523-0.884 2.11-2.516 1.318-2.54 1.404-0.534 1.929 1.246 0.326 2.012 0.101 1.884-0.553-0.118-0.606 0.422-1.122 1.2-1.147 1.641-0.053 2.61-5.103 1.152-6.004-0.539-0.333-0.728-1.262-0.42-2.065s-0.133-1.726-0.981-2.051c-0.847-0.325-1.296-1.229-0.996-2.008 0.335-0.874-0.096-1.418-1.123-1.418-0.916 0-1.387-0.451-1.046-1.002 0.832-1.346 4.498 0.623 4.498 2.416 0 0.738 0.945 1.97 2.1 2.737 1.928 1.279 2.005 1.747 0.941 5.698-0.716 2.66-0.807 4.752-0.237 5.478 1.514 1.928 2.209 11.261 0.933 12.537-0.625 0.625-0.77 1.136-0.322 1.136 0.449 0 0.036 1.194-0.917 2.644-1.586 2.42-1.596 2.72-0.115 3.55 0.89 0.5 1.617 2.13 1.617 3.62 0 2.48 4.277 10.19 5.654 10.19 1.148 0 11.346-11.4 11.346-12.69 0-0.36 0.725-1.46 1.61-2.44 1.522-1.68 1.373-1.76-2.713-1.57-3.243 0.15-4.404-0.2-4.65-1.38-0.226-1.1 0.896-1.949 3.636-2.77 5.627-1.686 10.934-6.724 14.135-13.419 1.927-4.03 2.937-5.285 3.367-4.17 0.75 1.944-0.27 6.435-1.46 6.435-0.47 0-0.57 0.749-0.22 1.664 0.41 1.071 0.24 1.422-0.47 0.984-0.601-0.374-1.422-0.153-1.82 0.491-0.485 0.784-0.287 0.901 0.601 0.352 0.959-0.595 1.149-0.363 0.686 0.845-0.351 0.916-0.403 1.664-0.114 1.664 1.277 0 4.547-9.369 3.957-11.349-3.746-12.658-3.742-12.603-1.16-17.225 2.11-3.781 2.3-4.882 1.46-8.629-0.89-3.976-0.77-4.462 1.65-6.546 1.44-1.238 3.27-2.251 4.06-2.251 0.8 0 1.45-0.605 1.45-1.345 0-1.965 3.32-4.655 5.76-4.655 1.31 0 2.36-0.844 2.78-2.25 0.37-1.237 2.47-4.405 4.66-7.038 4.18-5.031 4.67-8.785 0.88-6.755-3.5 1.87-4.39 1.296-3.78-2.438 0.32-1.978 0.11-3.762-0.49-4.131-0.6-0.374-0.84-2.506-0.55-5.034 0.27-2.412 0.07-4.6466-0.45-4.966-1.35-0.835 7.19-5.491 12.36-6.7421 2.16-0.5216 3.38 0.0075 6.25 2.7227 2.95 2.7805 3.48 3.8742 3.02 6.2514-0.47 2.468 0.3 3.811 5.36 9.38 7.64 8.418 10.5 13.993 10.77 21 0.29 7.343 1.99 17.757 3.55 21.68 0.95 2.385 0.98 3.786 0.15 5.61-1.07 2.349-0.93 2.47 4.2 3.617 6.04 1.352 8 3.114 9.01 8.093 0.39 1.925 1.77 5.337 3.06 7.581 1.29 2.245 2.66 6.495 3.05 9.446 0.59 4.397 1.41 6.067 4.6 9.287 4.05 4.09 8.54 11.69 6.91 11.69-0.52 0-1.96-1.66-3.21-3.68s-2.46-3.12-2.69-2.44c-0.22 0.68 0.31 2.03 1.19 3 0.88 0.98 1.61 2.3 1.61 2.95 0 0.64 0.43 1.17 0.96 1.17 0.54 0 0.68 0.77 0.31 1.71-0.53 1.39-0.9 1.12-1.94-1.42-0.7-1.73-1.74-3.43-2.31-3.78-0.56-0.35-1.02-1.56-1.02-2.7 0-1.75-0.24-1.87-1.57-0.76-1.37 1.13-1.48 0.97-0.89-1.37 0.52-2.07 0.25-2.81-1.19-3.32-1.02-0.36-3.2-1.65-4.85-2.86-1.65-1.22-5.19-2.54-7.86-2.93-4.15-0.62-5.13-0.43-6.75 1.31-2.41 2.58-2.38 3.06 0.11 2.41 1.11-0.3 2-0.03 2 0.59 0 0.61 0.9 2.02 2 3.12 2 2 2 2 0 2-1.1 0-2 0.45-2 1 0 1.63 3.28 1.13 6.5-1 3.92-2.6 5.82-2.6 5 0-0.46 1.44-0.18 2 1 2 1.14 0 1.45 0.56 1.03 1.88-0.68 2.16 1.5 3.41 4.22 2.42 1.6-0.59 1.6-0.47-0.09 1.46-1.25 1.41-1.62 2.81-1.15 4.29 0.5 1.58 0.36 1.99-0.5 1.45-0.66-0.4-1-1.81-0.75-3.12 0.38-1.99 0.05-2.38-2.02-2.38-2.02 0-2.38-0.39-1.93-2.09 0.47-1.81 0.21-2.01-1.93-1.47-2.44 0.61-2.45 0.59-0.79-1.95 2.4-3.65 1.19-4.03-2.34-0.73-1.66 1.55-3.53 2.64-4.17 2.43-0.63-0.21-1.78 0.14-2.54 0.77-1.13 0.94-1.28 0.73-0.79-1.16 0.55-2.14 0.46-2.2-1.29-0.8-1.57 1.24-1.51 0.96 0.32-1.66 1.22-1.73 2.22-3.42 2.22-3.75 0-1.45-2.4-0.36-5.08 2.33-3.37 3.37-4.01 2.86-0.75-0.61 2.12-2.26 2.13-2.31 0.17-2.31-1.1 0-2.58 1.07-3.29 2.39-0.7 1.32-2.69 3.43-4.42 4.69-1.92 1.4-0.47-0.7 3.74-5.44 7.17-8.05 8.29-10.712 2.5-5.95-2.21 1.83-2.87 2.1-1.92 0.8 0.8-1.1-0.13-0.52-2.06 1.27-1.94 1.8-3.76 3.04-4.04 2.76-0.85-0.85-4.88 3.99-5.34 6.42-0.24 1.24-0.85 2.78-1.36 3.41s-1.23 2.58-1.6 4.33c-0.58 2.71-3.55 6.82-3.55 4.9 0-0.36-0.89-0.18-1.97 0.4-1.08 0.57-1.76 1.6-1.52 2.28s-0.19 3.71-0.95 6.74l-1.4 5.5 0.56-6.75c0.38-4.71 0.21-6.75-0.59-6.75-0.62 0-1.21 1.68-1.29 3.75-0.16 3.69-0.17 3.7-0.57 0.5-0.63-5.12-2.27-3.79-2.27 1.84v5.1l-9.51-0.35c-5.72-0.21-9.66 0.05-9.92 0.66-0.23 0.55-0.42-0.58-0.43-2.5 0-2.04 0.28-2.87 0.68-2 0.37 0.82 1.4 1.61 2.28 1.76 1.21 0.19 1.88-1.07 2.67-5l1.06-5.26-0.53 5.75c-0.36 3.88-0.17 5.75 0.58 5.75 0.61 0 1.15-1.69 1.19-3.75 0.03-2.07 0.48-4.65 0.98-5.75 0.65-1.45 0.84-0.52 0.68 3.37-0.23 5.18-0.14 5.38 2.52 5.68s2.75 0.15 2.93-4.87l0.19-5.18 0.36 5.25c0.25 3.56 0.8 5.25 1.72 5.25 0.91 0 1.48-1.71 1.76-5.25 0.22-2.89 0.38-5.3 0.35-5.36-0.04-0.06-1.53-0.38-3.31-0.72l-3.25-0.62-0.18 4.72-0.19 4.73-0.37-4.75c-0.34-4.38-0.59-4.76-3.07-4.84-5-0.16-8.69-0.65-10.44-1.39-1.06-0.45-1.75-0.3-1.75 0.37 0 0.61 0.5 1.11 1.11 1.11 0.7 0 0.9 1.04 0.53 2.75-2.1 9.87-2.76 16.53-1.74 17.55 0.79 0.79 1.1 0.76 1.1-0.1 0-0.66 0.67-1.2 1.5-1.2 0.82 0 1.5-0.38 1.5-0.85 0-0.46 3.26-0.18 7.25 0.62 3.98 0.81 9.05 1.76 11.25 2.11 3.84 0.62 3.99 0.79 3.89 4.3-0.08 2.68 0.25 3.51 1.25 3.12 0.75-0.28 1.36 0.09 1.36 0.84 0.01 0.75 1.16-0.56 2.56-2.89 2.66-4.45 3.8-5.48 2.76-2.5-0.76 2.14 0.2 1.21 4.5-4.4 3.2-4.18 4.02-5.99 2.18-4.85-0.55 0.34-1 0.16-1-0.39s0.45-1.27 1-1.61 1-1.13 1-1.75c0-0.63-0.7-0.26-1.56 0.81-1.49 1.86-1.52 1.84-0.88-0.56 0.85-3.22 2.52-4.95 3.14-3.25 0.26 0.68 0.86 1.25 1.35 1.25 1.17 0-0.75-5.01-2.78-7.26-0.88-0.96-1.26-2.09-0.86-2.49 0.4-0.41 1.23 0.14 1.83 1.21 1.07 1.93 1.09 1.93 1.8-0.01 0.65-1.8 0.81-1.73 1.98 0.77 0.7 1.49 1.72 2.43 2.28 2.09 1.12-0.7 0.43 0.65-2.53 4.93-1.67 2.41-1.73 2.98-0.49 4.75 1.35 1.93 1.41 1.9 1.49-0.92 0.05-1.61 0.91-3.79 1.91-4.84s2.4-2.77 3.12-3.82 0.41-0.25-0.68 1.78c-1.26 2.34-2.09 6.02-2.25 10-0.25 6.36-2.4 12.34-5.3 14.75-0.87 0.71-1.57 1.81-1.56 2.43s0.45 0.45 0.99-0.37c0.75-1.16 0.99-0.83 1.08 1.5 0.11 2.91 0.14 2.93 0.85 0.5 0.65-2.24 0.86-1.98 2.02 2.5 0.71 2.75 1.24 6.71 1.19 8.79-0.06 2.25 0.29 3.55 0.87 3.19 0.54-0.33 0.99-1.39 0.99-2.35s0.66-2.62 1.48-3.69c1.23-1.62 1.21-1.14-0.13 2.91-1.3 3.91-1.39 5.57-0.48 8.61 0.62 2.07 1.13 6.9 1.13 10.72 0 7.82 1.91 15.58 5.55 22.45 2.59 4.91 3.15 10.67 1.37 14.02-0.78 1.45-0.76 3.36 0.08 6.86 1.04 4.34 0.89 5.74-1.46 13.42-1.44 4.72-2.9 9.33-3.25 10.24-0.46 1.21-0.25 1.46 0.79 0.92 0.78-0.41 0.58-0.06-0.43 0.77-1.02 0.82-1.58 1.95-1.24 2.5s0.15 1.29-0.42 1.64-2.16 2.87-3.55 5.6c-1.38 2.73-4.22 6.64-6.3 8.68s-4.12 4.6-4.52 5.69c-0.45 1.2-1 1.56-1.43 0.9-0.38-0.59-1.87-1.35-3.31-1.71-2.61-0.63-27.89 0.68-37.38 1.95-2.755 0.37-4.688 0.33-4.302-0.09zm27.462-5.69c0.85 2.11 1.08 2.18 2.28 0.74 1.12-1.36 1.06-1.92-0.44-3.57-1.51-1.67-1.55-2.05-0.3-2.53 2.29-0.88 2.05-7.4-0.71-19.1-1.37-5.8-2.49-13.17-2.49-16.38 0-3.2-0.43-5.98-0.95-6.16-0.9-0.32-1.68-3.47-2.6-10.48-0.26-1.98 0.13-3.6 1.07-4.37 0.81-0.68 1.48-1.69 1.48-2.26s-0.9-0.22-2 0.78c-1.1 0.99-2 1.34-2 0.77 0-0.56 0.67-1.59 1.5-2.27 0.82-0.69 1.48-1.98 1.46-2.88-0.02-1.36-0.26-1.31-1.5 0.32-0.8 1.07-1.46 1.56-1.46 1.09 0-0.46-0.9-0.03-2 0.97-2.38 2.14-2.58 5.06-0.5 7.14 0.82 0.82 1.5 2.57 1.5 3.88s0.68 4.99 1.51 8.18c2.09 8.05 2.89 23.54 1.61 31.25-0.73 4.34-0.75 6.66-0.07 7.08 1.43 0.88-0.04 4.19-1.59 3.59-1.38-0.53-4.46 2.33-4.46 4.15 0 0.61 1.91 1.25 4.25 1.42 3.52 0.25 4.35-0.03 4.86-1.69 0.59-1.91 0.66-1.89 1.55 0.33zm6.34-1.39c0-0.25-0.45-0.44-1-0.44s-1 0.47-1 1.06c0 0.58 0.45 0.78 1 0.44s1-0.82 1-1.06zm20.14-5.19c3.29-5.1 4.54-8.08 8.4-19.88 3.09-9.48 3.27-10.81 2.9-21.08-0.33-8.71-0.95-12.38-3.02-17.88-1.92-5.07-2.82-9.9-3.39-18.14-0.66-9.51-1.23-12.12-3.71-17-1.6-3.18-3.35-5.71-3.87-5.62-6.01 0.94-13.93 1.19-14.39 0.45-0.34-0.54-1.92-0.36-3.82 0.44-2.94 1.23-3.25 1.76-3.26 5.66-0.02 2.36-1.1 10.08-2.42 17.15-1.85 9.96-2.16 13.52-1.35 15.84 0.6 1.72 0.75 5.17 0.34 8.15-0.39 2.83-0.67 5.61-0.63 6.16 0.41 5.08 3.25 21.82 4.62 27.22 1.98 7.77 2.75 18.97 1.36 19.83-2.51 1.56 1.13 2.45 10.02 2.45h9.81l2.41-3.75zm-10.91-70.97c1.5-0.23 4.2-0.23 6-0.01 1.79 0.22 0.57 0.41-2.73 0.42-3.3 0-4.78-0.18-3.27-0.41zm-10.97-1c1.52-0.23 3.77-0.22 5 0.01 1.23 0.24-0.01 0.43-2.76 0.42s-3.76-0.2-2.24-0.43zm11.99-6c1.51-0.23 3.98-0.23 5.5 0 1.51 0.23 0.27 0.42-2.75 0.42-3.03 0-4.27-0.19-2.75-0.42zm-5.98-0.89c0.33-0.33 1.19-0.37 1.91-0.08 0.8 0.32 0.56 0.56-0.6 0.61-1.06 0.04-1.65-0.2-1.31-0.53zm-36.275 37.08c0-0.4-0.638-0.19-1.417 0.46-1.17 0.97-1.369 0.72-1.134-1.41 0.156-1.42 0.641-2.91 1.077-3.31 0.436-0.39 0.502 0.1 0.145 1.09-0.36 1-0.239 1.55 0.275 1.23 0.508-0.31 0.657-2.21 0.333-4.21-0.423-2.6-0.264-3.43 0.561-2.92 1.966 1.21 3.685-3.95 2.325-6.95-0.642-1.4-1.179-3.54-1.196-4.75-0.031-2.13-0.083-2.14-1.462-0.31-0.96 1.26-1.272 3.4-0.95 6.5 0.336 3.22 0.21 4-0.419 2.61-0.494-1.1-0.794-3.65-0.665-5.67 0.178-2.77-0.102-3.53-1.157-3.12-0.943 0.36-0.703-0.64 0.745-3.09 2.234-3.79 3.797-5.1 1.939-1.62-0.603 1.12-0.665 2-0.142 2 1.482 0 2.151-2.81 1.251-5.24-0.771-2.08-0.977-1.94-3.038 2.1-1.215 2.38-2.45 4.09-2.742 3.8-0.293-0.29 0.188-1.56 1.069-2.82 1.804-2.58 2.11-4.28 0.602-3.34-1.42 0.87-1.241-0.86 0.242-2.35 0.952-0.95 0.965-1.41 0.053-1.97-0.783-0.49-0.871-1.24-0.257-2.21 0.764-1.21 0.963-1.11 1.106 0.53 0.095 1.1 0.108 2.9 0.028 4-0.129 1.76-0.03 1.8 0.847 0.33 0.622-1.05 0.65-2.57 0.076-4.08-0.503-1.33-0.828-5.18-0.721-8.57 0.111-3.52-0.249-6.31-0.84-6.52-0.568-0.19 0.095-1.95 1.475-3.91 2.475-3.5 2.496-3.7 1.543-14.4-0.531-5.97-1.142-9.95-1.356-8.85-0.83 4.26-1.861 3.32-1.881-1.72-0.011-2.91-0.37-7.42-0.798-10.03-0.543-3.33-0.437-4.75 0.353-4.75 0.622 0 1.13 1.52 1.13 3.39 0 1.98 0.851 4.36 2.053 5.75l2.053 2.36-0.677-2.5-0.677-2.5 2.623 2.42c2.7 2.5 3.31 2.23 1.71-0.77-0.55-1.03-0.55-6.04 0-12.68 0.78-9.35 0.67-11.52-0.73-14.7-0.9-2.04-2.021-3.48-2.494-3.19-1.59 0.98-0.879-5.91 0.8-7.76 2.774-3.07 0.934-2.96-2.46 0.14-1.885 1.72-2.957 3.51-2.625 4.37 0.308 0.81 0.127 1.73-0.403 2.06-0.529 0.33-1.23-0.1-1.556-0.95-0.398-1.04-0.185-1.32 0.645-0.85 0.943 0.53 0.964 0.4 0.085-0.55-0.781-0.85-1.698-0.95-2.839-0.31-1.909 1.07-12.637 22.5-11.649 23.27 0.353 0.27 0.661 0.95 0.685 1.5 0.101 2.31 2.587 9.46 3.484 10.01 1.6 0.99 1.105 2.05-1.034 2.21-2.105 0.16-4.963-4.06-5.029-7.42-0.028-1.43-0.334-1.28-1.465 0.7-2.025 3.54-1.925 6.12 0.136 3.5 1.546-1.97 1.56-1.97 0.901 0.25-0.369 1.23-0.246 2.25 0.275 2.25 0.52 0 1.521 1.38 2.223 3.08 0.703 1.7 2.36 3.5 3.682 4 2.797 1.06 2.049 3.29-0.801 2.39-1.691-0.54-1.916-0.09-1.916 3.84 0 6.59 9.512 32.1 11.045 29.61 0.368-0.59 0.532 1.99 0.364 5.75-0.83 18.64-0.783 22.16 0.35 26.33 0.673 2.47 1.484 6.66 1.801 9.29l0.577 4.8 1.932-2.45c1.062-1.35 1.931-2.78 1.931-3.17zm-9.811-47.02c-1.204-2.48-2.163-5.06-2.131-5.73s1.162 1.21 2.512 4.18c2.987 6.58 2.676 7.84-0.381 1.55zm2.219-8.97c-0.347-1.38-0.348-3.97-0.002-5.75 0.345-1.78 0.695-3.8 0.778-4.48 0.174-1.45 1.816-1.72 1.816-0.3 0 0.52-0.49 2.03-1.089 3.34-0.758 1.67-0.782 3.51-0.081 6.05 0.576 2.09 0.623 3.66 0.109 3.66-0.495 0-1.184-1.13-1.531-2.52zm3.75-4.48c0-1.38 0.227-1.94 0.505-1.25 0.277 0.68 0.277 1.81 0 2.5-0.278 0.68-0.505 0.12-0.505-1.25zm-6.756-40.19c0.264-2.15 0.002-3.85-0.627-4.06-0.675-0.22-0.372-1.46 0.805-3.3 1.837-2.88 1.837-2.92 0.009-1.46-1.755 1.39-1.827 1.33-1.11-1 0.979-3.18 2.519-5.11 3.566-4.47 0.449 0.28 1.143-0.02 1.541-0.66 0.452-0.73 0.29-0.9-0.431-0.46-0.635 0.39-1.155 0.31-1.155-0.18 0-1.84 1.223-2 2.895-0.39 1.632 1.57 1.547 1.88-1.534 5.54-2.449 2.91-3.132 4.53-2.743 6.5 0.285 1.44 0.026 3.75-0.575 5.13-0.999 2.28-1.055 2.17-0.641-1.19zm33.333 90.26c-0.08-1.07-0.49-1.73-0.9-1.47-0.41 0.25-0.49 1.12-0.18 1.93 0.78 2.03 1.25 1.83 1.08-0.46zm-6.19-7.14c1.07-1.74-0.15-2.11-1.52-0.46-0.79 0.95-0.87 1.53-0.21 1.53 0.59 0 1.36-0.48 1.73-1.07zm0.46-4.12c0-1.39-2.2-2.01-3.29-0.93-0.82 0.82-0.76 1.12 0.21 1.12 1.07 0 1.07 0.31-0.05 1.66-1.26 1.52-1.18 1.54 0.88 0.26 1.23-0.77 2.25-1.72 2.25-2.11zm3.98-1.17c0.01-0.47-0.65-0.6-1.45-0.29-2.18 0.83-2.77-0.92-0.83-2.49 1.15-0.94 1.44-0.97 0.93-0.11-0.43 0.71-0.25 1.25 0.41 1.25 0.64 0 0.92-0.66 0.61-1.47s-0.18-1.71 0.3-2.01c0.48-0.29 1.09 0.03 1.36 0.72 0.26 0.69 0.44 0.29 0.38-0.89-0.1-2.12-0.14-2.12-3.4 0.37-3.84 2.93-3.76 2.64-1.64 5.87 1.25 1.91 1.86 2.2 2.48 1.22 0.46-0.72 0.84-1.7 0.85-2.17zm0.25-9.14c1.02-1.94 1-1.95-0.97-0.21-1.81 1.61-2.08 1.63-2.63 0.2-0.7-1.83 1.8-6.14 5.11-8.82 2.13-1.71 3.31-5.44 1.34-4.23-0.5 0.31-1.17 0-1.49-0.69s-0.35-0.33-0.08 0.79c0.35 1.45-0.67 3.18-3.51 5.95-2.2 2.15-4 4.75-4 5.77s0.4 1.61 0.89 1.3c0.49-0.3 1.15 0.1 1.45 0.89 0.37 0.96 0.07 1.26-0.9 0.89-0.79-0.31-1.44-0.03-1.44 0.61s0.45 0.89 1 0.55 1-0.19 1 0.33-0.68 1.21-1.5 1.53c-0.83 0.31-1.5 1.12-1.5 1.79 0 1.46 5.72-3.81 7.23-6.65zm3.77-7.85c0-1.31-3.93 2.33-5.23 4.84-0.74 1.43-0.14 1.17 2.1-0.93 1.72-1.62 3.13-3.37 3.13-3.91zm-4.13-4.11c-0.28-0.29-1.56 0.94-2.83 2.72l-2.31 3.24 2.83-2.72c1.56-1.5 2.6-2.96 2.31-3.24zm7.5-15.54c1.93 0 3.79-0.45 4.13-1 0.34-0.56-0.41-1-1.7-1-3.55 0.01-9.8 1.97-9.8 3.08 0 0.63 0.69 0.62 1.93-0.05 1.06-0.57 3.51-1.03 5.44-1.03zm23.9-4.07c-0.32-1.22-0.91-1.7-1.44-1.17-1.06 1.06 0.01 4.45 1.18 3.73 0.44-0.27 0.55-1.42 0.26-2.56zm-35.78 1.08c0.35-0.57-0.05-0.74-0.94-0.4-1.74 0.67-2.05 1.39-0.61 1.39 0.51 0 1.21-0.45 1.55-0.99zm12.76-0.57c2.05-0.49 2.75-1.27 2.75-3.05 0-1.32-0.53-2.39-1.17-2.39-2.39 0-11.73 3.36-11.29 4.07 0.25 0.4 2.57 0.09 5.16-0.69 2.59-0.77 5.18-1.24 5.75-1.04 0.58 0.21-0.87 0.96-3.2 1.67-2.34 0.72-4.25 1.71-4.25 2.21s0.78 0.68 1.75 0.39c0.96-0.28 2.98-0.81 4.5-1.17zm13.75-2.13c0-0.21-0.9 0.1-2 0.69s-2 1.57-2 2.19c0 0.61 0.9 0.3 2-0.69 1.1-1 2-1.98 2-2.19zm-2-1.62c0-0.55-0.9-0.19-2 0.81-1.1 0.99-2 2.26-2 2.81s0.9 0.18 2-0.81c1.1-1 2-2.26 2-2.81zm-1.5-4.69c-0.3-0.95 0.14-2.29 0.97-2.98 1.24-1.03 1.53-1.01 1.56 0.1 0.03 1.44 3.97-2.67 3.97-4.15 0-2.62-6.48 1.81-7.55 5.16-0.32 1.03-1.25 1.87-2.06 1.87-1.16 0-1.24 0.42-0.38 2.02 0.59 1.11 0.8 2.57 0.46 3.25-0.35 0.67 0.32 0.15 1.47-1.16 1.19-1.35 1.86-3.14 1.56-4.11zm-2.5 2.06c0-0.52 0.44-1.22 0.98-1.56 0.57-0.35 0.74 0.05 0.4 0.94-0.67 1.74-1.38 2.05-1.38 0.62zm5-6.95c0-0.55 0.45-1.27 1-1.61s1-0.17 1 0.38-0.45 1.28-1 1.62-1 0.16-1-0.39zm-17.03 7.93c3.01-1.04 5.64-2.38 5.84-2.99 0.31-0.94-3.26 0.22-12.31 3.99-3.98 1.65 1.02 0.88 6.47-1zm8.73-4.29c-0.24-1.24-0.43-0.23-0.43 2.25 0 2.47 0.19 3.48 0.43 2.25 0.24-1.24 0.24-3.27 0-4.5zm-2.91-1.98c0.22-1.1-1.17-0.77-5.5 1.31-7.04 3.38-10.29 4.36-10.29 3.11 0-0.52 1.68-1.22 3.75-1.57 5.2-0.87 7.1-2.17 5.49-3.78-0.98-0.98-1.95-0.99-4.57-0.04-4.52 1.63-6.89 1.43-3.17-0.27l3-1.37-3.24-0.08c-2.64-0.07-3.34 0.37-3.86 2.42-0.39 1.57-0.02 3.44 0.99 4.97l1.61 2.47 7.75-2.85c4.3-1.58 7.88-3.5 8.04-4.32zm-24.81 0.98c0.01-0.42-0.43-0.75-0.98-0.75s-1 1.01-0.99 2.25c0.01 1.82 0.2 1.96 0.99 0.75 0.53-0.83 0.97-1.84 0.98-2.25zm-5.38-0.48c-0.333-0.34-0.569 0.26-0.526 1.31 0.048 1.16 0.285 1.4 0.605 0.6 0.288-0.72 0.253-1.58-0.079-1.91zm10.46-3.27c0.52 0 0.94-0.71 0.94-1.56 0-0.92-0.48-1.27-1.15-0.85-0.81 0.49-0.95-0.08-0.48-1.94 0.87-3.48-0.13-3.42-1.47 0.09-0.6 1.58-0.71 4.22-0.27 6.25 0.73 3.37 0.78 3.4 1.13 0.76 0.2-1.52 0.79-2.75 1.3-2.75zm-6.06 1c0-0.55-0.45-1-1-1s-1 0.45-1 1 0.45 1 1 1 1-0.45 1-1zm-31.081-7.65c1.711-3.66 2.934-6.83 2.718-7.05-0.578-0.57-4.524 6.38-5.242 9.24-0.339 1.35-1.003 2.46-1.477 2.46-0.473 0-0.594-0.79-0.268-1.75 0.372-1.1-0.061-0.88-1.164 0.61-1.424 1.91-1.504 2.51-0.421 3.18 1.939 1.2 2.416 0.65 5.854-6.69zm57.341 6.05c0.8-0.8-0.25-3.4-1.37-3.4-0.49 0-0.89 0.9-0.89 2 0 1.95 1.06 2.6 2.26 1.4zm-4.66-3.13c-1.02-1.02-1.86 0.51-1.02 1.86 0.63 1.02 0.86 1.02 1.2 0 0.23-0.69 0.15-1.53-0.18-1.86zm-23.6 1.33c0-0.21-0.7-0.66-1.556-0.99-0.89-0.34-1.292-0.17-0.941 0.4 0.587 0.95 2.497 1.4 2.497 0.59zm14.98-1.85c-0.01-1.82-0.2-1.97-0.98-0.75-1.26 1.94-1.26 3 0 3 0.55 0 0.99-1.02 0.98-2.25zm3.02 0.75c0-0.83-0.45-1.5-1-1.5s-1 0.67-1 1.5c0 0.82 0.45 1.5 1 1.5s1-0.68 1-1.5zm-45.005-1c0-0.83-0.45-1.5-1-1.5s-1 0.67-1 1.5c0 0.82 0.45 1.5 1 1.5s1-0.68 1-1.5zm75.165-0.9c0.79 0.49-0.45-2.84-1.62-4.34-0.1-0.13-1.25 1.22-2.56 3-1.35 1.84-1.64 2.65-0.68 1.86 1.48-1.19 1.7-1.13 1.73 0.5 0.02 1.77 0.09 1.77 1.06 0.11 0.56-0.98 1.5-1.49 2.07-1.13zm-36.16 0.4c0-0.55-0.79-1-1.75-0.99-1.5 0.01-1.54 0.16-0.25 0.99 1.88 1.22 2 1.22 2 0zm-30.604-25.43c3.08-6.29 5.599-11.91 5.599-12.5s0.567-1.07 1.26-1.07 1.881-1.02 2.642-2.25c1.345-2.19 1.329-2.21-0.589-0.5-1.083 0.96-2.473 1.75-3.087 1.75s-1.705 1.23-2.425 2.75c-0.72 1.51-2.275 3.17-3.456 3.69-1.256 0.55-2.39 2.21-2.734 4-1.415 7.35-2.516 12.18-3.146 13.81-0.373 0.96-0.45 1.75-0.171 1.75s3.028-5.15 6.107-11.43zm68.604 8.49c0-0.52-0.45-1.22-1-1.56s-1 0.08-1 0.94c0 0.85 0.45 1.56 1 1.56s1-0.43 1-0.94zm-20.15-8.04c-0.57-1.64-0.84-3.55-0.61-4.25 0.24-0.7 0.99 0.41 1.67 2.48 0.68 2.06 1.9 3.75 2.7 3.75 1.13 0 1.22-0.44 0.42-1.93-1-1.87-0.44-5.05 1.06-6.08 1.31-0.9 2.34-6.38 1.05-5.58-1.37 0.85-1.46 0.06-0.25-2.23 1.09-2.05-0.45-3.63-3.68-3.81-1.26-0.06-2.07 0.1-1.8 0.38 0.28 0.27-0.43 2.31-1.56 4.53-2.12 4.16-2.04 9.63 0.21 13.84 1.53 2.85 1.96 2.24 0.79-1.1zm-0.56-7.84c-0.78-0.49-0.87-1.24-0.26-2.21 0.82-1.29 0.94-1.29 0.97 0.03 0.02 1.33 0.13 1.33 1 0 1.26-1.97 1.26-3.29-0.01-2.5-0.56 0.35-0.47-0.57 0.21-2.05 0.67-1.48 1.39-2.18 1.59-1.56 0.21 0.61 0.81 0.85 1.34 0.52 1.01-0.62-1.7 6.55-2.95 7.79-0.38 0.39-1.24 0.38-1.89-0.02zm-6.79 4.82c-0.34-0.55-0.82-1-1.06-1-0.25 0-0.44 0.45-0.44 1s0.47 1 1.05 1c0.59 0 0.79-0.45 0.45-1zm3.1-1.73c-0.33-0.34-0.57 0.26-0.53 1.31 0.05 1.16 0.29 1.4 0.61 0.6 0.29-0.72 0.25-1.58-0.08-1.91zm-11.6 0.73c0-0.55-0.48-1-1.06-1-0.59 0-0.78 0.45-0.44 1s0.81 1 1.05 1c0.25 0 0.45-0.45 0.45-1zm-6.99-2.47c-1.05-2.76-0.02-3.95 2.74-3.17 4.28 1.22 13.41 1.72 12.79 0.7-0.36-0.57-0.14-1.84 0.48-2.81 1.07-1.66 1.1-1.66 0.58 0-0.75 2.41 0.09 2.19 1.46-0.37 0.88-1.65 0.86-1.96-0.09-1.37-0.81 0.5-1.06 0.28-0.73-0.62 0.28-0.77 0.96-1.3 1.51-1.18 0.56 0.11 0.95-0.56 0.88-1.5s0.41-1.61 1.08-1.48c0.7 0.14 0.97-0.39 0.64-1.25-0.31-0.81-0.76-1.48-0.98-1.48-0.23 0-2.26 2.81-4.51 6.25-2.24 3.43-3.79 5.12-3.42 3.75 0.61-2.3 0.54-2.36-0.77-0.72-1.28 1.57-1.51 1.6-2.04 0.19-0.34-0.87-0.19-1.32 0.32-1 1.03 0.63 6.62-8.23 5.74-9.11-0.3-0.3-1.27 0.84-2.15 2.54-1.64 3.19-2.93 4.26-1.91 1.6 1.29-3.36-0.76-1.19-3.07 3.25-1.36 2.61-2.49 4.39-2.52 3.96-0.02-0.44 0.89-2.62 2.03-4.85 1.13-2.23 1.82-4.3 1.52-4.6s-0.83 0.19-1.18 1.09c-0.34 0.91-1.53 1.65-2.63 1.65-1.37 0-1.82-0.48-1.42-1.5 0.77-2.02-2.7-2-4.38 0.02-0.7 0.84-1.53 1.27-1.84 0.96-0.31-0.32 0.77-1.64 2.39-2.94 1.63-1.3 2.63-2.71 2.21-3.12-0.41-0.42-1.97 0.32-3.47 1.66-1.49 1.33-2.11 1.63-1.37 0.67 0.74-0.97 0.89-1.75 0.32-1.75-1.21 0-2.63 2.96-2.32 4.85 0.13 0.74-0.24 1.06-0.81 0.71-1.67-1.04-2.43 4.21-1.08 7.48 1.26 3.03 3.47 5.38 2.37 2.51-0.33-0.86-0.31-1.55 0.03-1.55 0.35 0 1.06 1.12 1.59 2.5 0.52 1.37 1.4 2.5 1.95 2.5 0.65 0 0.67-0.87 0.06-2.47zm-63.708-7.28c-0.31-2.32-0.937-3.98-1.392-3.7s-0.659 1.06-0.454 1.73 0.657 2.51 1.005 4.08c0.926 4.21 1.497 2.77 0.841-2.11zm81.298-5.5c0.79-1.52 1.07-2.75 0.61-2.75-0.73 0-4.01 5.57-5 8.5-0.56 1.64 2.83-2.79 4.39-5.75zm-28.101 1.24c1.155-1.87-1.19-1-3.099 1.15-1.891 2.13-1.889 2.14 0.29 1 1.207-0.64 2.471-1.6 2.809-2.15zm50.501 0.42c0-0.2-0.68-0.09-1.5 0.22-0.83 0.32-1.5 1.04-1.5 1.6 0 0.58 0.63 0.48 1.5-0.23 0.82-0.69 1.5-1.4 1.5-1.59zm-8.41-5.66l-0.57-3.254 1.44 3.004 1.45 3 0.17-4 0.18-4.004 0.8 3.5c0.8 3.484 0.8 3.474 0.59-0.772-0.15-3.118 0.13-4.139 1.07-3.781 0.7 0.27 1.33-0.058 1.39-0.728 0.07-0.67 0.47 0.131 0.89 1.781 0.74 2.945 0.76 2.926 1.02-1l0.26-4 0.72 4 0.71 4 0.16-5c0.11-3.472 0.44-4.556 1.08-3.547 0.5 0.799 0.66 2.712 0.35 4.25-0.34 1.737-0.13 2.797 0.57 2.797 0.65 0 1.2-2.001 1.3-4.75l0.17-4.75 0.39 4.273c0.47 5.263 2.27 4.594 2.27-0.846 0-3.39-0.47-4.24-3.25-5.938-4.64-2.825-7.83-2.473-12.94 1.427-5.66 4.318-7.64 7.349-7.44 11.352 0.21 4.126 1.63 5.366 6.95 6.116 0.46 0.06 0.58-1.35 0.27-3.13zm-25.23 0.75c0.31-0.83 0.18-1.5-0.29-1.5s-1.12 0.67-1.44 1.5c-0.31 0.82-0.18 1.5 0.29 1.5s1.12-0.68 1.44-1.5zm41.79 0.38c0.19 0.53 1.61-0.12 3.15-1.46 1.7-1.466 2.24-2.424 1.37-2.424-0.78 0-1.99 0.67-2.67 1.494-0.68 0.81-1.58 1.27-2 1.01-0.43-0.27-1.39 0.3-2.14 1.26-1.22 1.55-1.19 1.6 0.29 0.44 0.95-0.74 1.8-0.88 2-0.32zm-25.36-4.621c-0.12-3.297 0.53-4.274 6.54-9.855 3.66-3.408 6.67-6.469 6.67-6.802 0-1.513-5.49-0.382-7.98 1.644-1.53 1.238-4.18 3.017-5.9 3.954-3.5 1.908-3.87 3.969-2.01 11.341 1.3 5.169 2.88 4.999 2.68-0.282zm-39.678 2.271c0.988 0.15 2.245-1.068 3.234-3.142 0.889-1.865 1.183-3.392 0.652-3.392-0.53 0-1.252 1.146-1.604 2.547-0.351 1.401-0.869 2.316-1.15 2.035-0.82-0.82-4.25 1.371-4.233 2.702 0.011 0.86 0.231 0.89 0.75 0.11 0.404-0.61 1.462-1 2.351-0.86zm30.838-5.971c0.03-0.515-1.3 0.357-2.95 1.937-1.65 1.581-3 3.561-3 4.404 0 1.61 5.88-4.649 5.95-6.341zm-22.955 4.045c0-0.701-0.613-1.274-1.362-1.274-0.826 0-1.175 0.717-0.887 1.822 0.515 1.968 2.249 1.548 2.249-0.548zm71.505 1.392c0.34-0.55 0.14-1-0.45-1-0.58 0-1.05-1.098-1.05-2.441 0-3.153-1.41-3.987-3.14-1.856-0.75 0.925-0.87 1.384-0.26 1.021 0.61-0.367 1.59 0.409 2.2 1.744 0.91 1.996 0.81 2.481-0.6 2.856-1.26 0.33-1.13 0.47 0.49 0.56 1.2 0.06 2.47-0.33 2.81-0.884zm-62.5-1.559c0-0.242-0.45-0.441-1-0.441s-1 0.477-1 1.059c0 0.583 0.45 0.781 1 0.441s1-0.816 1-1.059zm8.77-3.002c-0.34-0.336-1.15 0.441-1.81 1.726-1.15 2.233-1.12 2.259 0.61 0.609 0.99-0.949 1.53-2 1.2-2.335zm48.41 2.878c-0.72-0.289-1.58-0.253-1.91 0.079-0.34 0.332 0.25 0.569 1.31 0.525 1.16-0.048 1.4-0.285 0.6-0.604zm-128.18-1.7c0-0.211-0.9-0.619-2-0.906-1.1-0.288-2-0.116-2 0.383 0 0.498 0.9 0.906 2 0.906s2-0.172 2-0.383zm77.255-2.325c-1.76-0.644-1.56-2.292 0.27-2.292 0.83 0 2.02-1.111 2.64-2.468 0.62-1.358 1.62-2.192 2.23-1.854 0.61 0.339 0.51-0.013-0.21-0.781-1.11-1.188-1.47-1.113-2.38 0.509-1 1.772-1.16 1.703-2.33-1l-1.24-2.906-1.62 3.718c-2 4.605-2.02 5.69-0.11 6.421 0.82 0.316 1.5 1.292 1.5 2.168 0 1.315 0.21 1.362 1.25 0.268 1-1.06 1-1.416 0-1.783zm-3.18-1.792c0-0.55 0.64-2.125 1.43-3.5 0.78-1.375 1.42-2.05 1.42-1.5s-0.64 2.125-1.42 3.5c-0.79 1.375-1.43 2.05-1.43 1.5zm65.62 0.057c-2.09-2.099-2.85-0.76-0.87 1.551 0.91 1.067 1.81 1.483 2 0.925 0.18-0.558-0.32-1.672-1.13-2.476zm-144.7 1.443c0-0.55-0.45-1-1-1s-1 0.45-1 1 0.45 1 1 1 1-0.45 1-1zm90.495-1.252c0.45 0.414 0.52 0.221 0.15-0.429-0.37-0.649-0.22-1.463 0.34-1.809 0.56-0.345 1.03 0.186 1.05 1.181 0.03 1.738 0.07 1.739 1.07 0.012 1.53-2.628 2.25-10.703 0.96-10.703-0.58 0-1.06 1.8-1.06 4 0 2.634-0.45 4-1.32 4-0.72 0-2.37 1.463-3.67 3.25-1.91 2.639-1.98 2.921-0.35 1.498 1.1-0.964 2.37-1.414 2.83-1zm37.09-2.493c-1.07-1.075-1.64 0.431-0.89 2.352 0.71 1.802 0.76 1.805 1.11 0.065 0.21-1.005 0.11-2.093-0.22-2.417zm-39.99 0.003c-0.7-0.694-2.59 0.715-2.59 1.924 0 0.663 0.57 0.587 1.52-0.202 0.84-0.695 1.32-1.471 1.07-1.722zm43.41-1.656c0-2.545 0.57-3.541 2.54-4.441 3.81-1.734 4.46-1.457 4.46 1.898 0 1.683 0.35 2.838 0.79 2.568 1.15-0.713 0.89-10.065-0.29-10.462-0.55-0.184-1.45-0.692-2-1.128-0.55-0.437-4.47-1.601-8.71-2.587-6.27-1.46-8.41-1.582-11.5-0.652-4.57 1.375-7.37 4.926-4.57 5.804 5.45 1.707 12.05 5.022 13.91 6.986 1.59 1.68 2.42 1.961 3.27 1.112s0.96-0.283 0.46 2.237c-0.49 2.432-0.35 3.175 0.48 2.66 0.64-0.393 1.16-2.191 1.16-3.995zm-8.29-10.654c1.5-1.378 5.29-2.106 5.29-1.015 0 0.587-0.34 1.105-0.75 1.151-0.42 0.046-1.78 0.197-3.04 0.335-1.26 0.139-1.93-0.073-1.5-0.471zm-93.215 13.052c0.34-0.55 0.169-1-0.381-1s-1.279 0.45-1.619 1c-0.339 0.55-0.168 1 0.382 1s1.279-0.45 1.618-1zm106.84-1.532c-0.79-2.067-1.34-1.823-1.34 0.591 0 1.133 0.43 1.793 0.95 1.468 0.53-0.325 0.7-1.251 0.39-2.059zm-151.46-0.218c0.539-0.962 1.236-1.637 1.55-1.5 1.587 0.696 2.902 0.181 1.955-0.765-1.237-1.238-7.704 1.689-6.836 3.094 0.885 1.432 2.257 1.091 3.331-0.829zm157.3-1.466c-0.72-0.718-1.18-0.777-1.18-0.15 0 1.334 1.18 2.517 1.85 1.85 0.28-0.284-0.02-1.049-0.67-1.7zm-61.23-6.093c0.03-0.445-0.4-0.534-0.94-0.198-0.55 0.339-0.75-0.023-0.45-0.812 0.3-0.782-0.08-2.053-0.85-2.822-3.31-3.311-3.87-5.719-2.18-9.293 0.89-1.876 2.26-3.657 3.04-3.957 1.88-0.721 1.83-2.275-0.07-2.275-0.83 0-1.5 0.289-1.5 0.642s-0.68 1.516-1.51 2.583c-1.48 1.912-1.49 1.912-0.9-0.059 0.47-1.569 0.37-1.687-0.43-0.547-0.57 0.798-0.82 1.802-0.55 2.229 0.26 0.427 0.01 1.649-0.56 2.716-1.25 2.34-0.23 8.98 1.07 6.933 0.47-0.732 0.9-1.106 0.96-0.831 0.3 1.217 1.01 8.73 1.05 11 0.05 2.328 0.18 2.259 1.92-1 1.02-1.925 1.88-3.864 1.9-4.309zm-53.955 2.564c0-0.275-0.675 0.061-1.5 0.745-0.825 0.685-1.5 1.47-1.5 1.745s0.675-0.06 1.5-0.745c0.825-0.684 1.5-1.47 1.5-1.745zm-41.2 0.545c0.934-0.933 1.467-0.933 2.4 0 0.66 0.66 1.933 1.2 2.827 1.2 1.248 0 1.522-0.717 1.175-3.077-0.405-2.762-0.72-3.008-3.076-2.401-1.444 0.372-3.689 0.801-4.989 0.952-2.447 0.286-4.374 2.333-3.512 3.729 0.741 1.198 3.814 0.959 5.175-0.403zm104.76-8.663c-1.42-1.42-1.55-1.059-1.43 3.899 0.12 4.986 0.19 5.158 0.87 1.964l0.73-3.5 0.31 4 0.3 4 0.39-4.399c0.28-3.072-0.08-4.872-1.17-5.964zm-95.329 4.709c0.419-2.849 0.333-2.976-0.886-1.309-1.536 2.101-1.781 4.463-0.463 4.463 0.488 0 1.095-1.419 1.349-3.154zm92.409-4.096c-0.63-8.947-0.78-9.75-1.77-9.75-0.43 0-0.69 2.922-0.58 6.494 0.11 3.571 0.5 6.496 0.86 6.5 0.36 0.003 0.42 0.906 0.14 2.006-0.31 1.179-0.04 2 0.67 2 0.87 0 1.06-1.994 0.68-7.25zm-3.64 4.691c0-0.242-0.45-0.441-1-0.441s-1 0.477-1 1.059c0 0.583 0.45 0.781 1 0.441s1-0.816 1-1.059zm22-3c0-0.242-0.45-0.441-1-0.441s-1 0.477-1 1.059c0 0.583 0.45 0.781 1 0.441s1-0.816 1-1.059zm-2.3-3.429c0.29-1.094 0.89-1.762 1.34-1.484s1.09 0.067 1.42-0.468 1.23-0.732 1.99-0.438c0.78 0.299 1.88-0.386 2.51-1.557 0.92-1.723 1.47-1.9 3.14-1.008 1.46 0.781 2.4 0.773 3.36-0.029 1-0.824 1.45-0.79 1.76 0.131 0.31 0.958 0.58 0.967 1.15 0.042 0.41-0.66 0.25-1.201-0.35-1.201s0.04-1.679 1.44-3.732c3.12-4.593 3.18-5.455 0.29-4.386-1.24 0.457-2.82 0.633-3.5 0.391-0.69-0.241-1.25 0.075-1.25 0.703 0 0.65 0.53 0.814 1.23 0.381 0.67-0.418 0.2 0.543-1.05 2.137s-3.24 3.044-4.41 3.222c-2.06 0.315-2.07 0.266-0.31-1.672 0.99-1.098 2.1-1.813 2.46-1.589s0.73-0.496 0.81-1.599c0.12-1.528-0.15-1.752-1.13-0.94-0.71 0.587-1.52 0.835-1.8 0.552-0.29-0.284-1.09 0.17-1.78 1.008-1 1.205-1.01 1.524-0.02 1.524 0.92 0 0.96 0.342 0.13 1.342-0.62 0.738-0.83 1.628-0.48 1.976 0.89 0.89-1.69 3.781-2.77 3.111-0.5-0.31-0.42-1.423 0.18-2.553 0.78-1.461 0.75-2.392-0.12-3.44-0.65-0.789-0.91-1.492-0.57-1.561 0.35-0.068 1.04-0.181 1.54-0.25 1.85-0.251 2.49-1.757 1.11-2.607-0.93-0.579-1.88-0.307-2.8 0.804-1.29 1.562-1.35 1.557-0.84-0.072 0.31-0.962 0.17-1.75-0.3-1.75s-1.09 0.901-1.37 2.002c-0.29 1.101-0.17 1.778 0.27 1.505 1.52-0.938 1.89 2.349 0.41 3.58-0.82 0.679-1.28 1.772-1.03 2.431 0.66 1.702-2.62 6.264-4.12 5.746-0.91-0.313-0.7-1.143 0.75-2.984 1.1-1.402 2.01-2.864 2.01-3.248 0-1.093-3.43-0.848-4.17 0.299-0.37 0.566-1.38 1.132-2.24 1.259-1.28 0.187-1.37-0.147-0.48-1.801 0.6-1.116 0.67-1.774 0.17-1.461-0.51 0.312-2.13 0.786-3.6 1.054-2.27 0.41-2.77 0.071-3.27-2.198-1.03-4.669-1.26-4.789-1.3-0.684-0.04 3.133 0.48 4.39 2.42 5.797 2.13 1.55 2.47 1.583 2.47 0.242 0-1.278 0.33-1.344 1.9-0.369 1.13 0.709 1.66 1.82 1.31 2.759-0.33 0.864 0.65 0.221 2.16-1.429l2.75-3-1.73 2.836c-1.48 2.411-1.52 2.97-0.32 3.734 2.32 1.466 4.08 1.063 4.63-1.058zm1.86-6.305c0.38-0.986 0.93-1.541 1.24-1.233s0 1.115-0.68 1.793c-0.99 0.98-1.1 0.865-0.56-0.56zm11.32-1.545c1.11-1.562 2.82-3.474 3.8-4.25 0.98-0.777 0.29 0.501-1.54 2.838-3.71 4.76-5.39 5.808-2.26 1.412zm-118.88 7.279c0-0.242-0.45-0.441-1-0.441s-1 0.477-1 1.059c0 0.583 0.45 0.781 1 0.441s1-0.816 1-1.059zm87.035-9.941c0.78 1.903 0.83 1.891 0.9-0.25 0.04-1.364-0.52-2.25-1.43-2.25-0.83 0-1.5-0.648-1.5-1.441 0-1.791-1.66-2.918-2.44-1.656-0.32 0.515 0.1 1.619 0.93 2.453 0.94 0.939 1.14 1.754 0.51 2.14-0.55 0.342-1 1.297-1 2.122s0.45 1.222 1 0.882c0.59-0.369 1.07 1.113 1.18 3.691 0.16 3.482 0.27 3.157 0.61-1.691 0.3-4.384 0.63-5.461 1.24-4zm-12.1 2.927c1.11-2.516 2.43-4.318 2.94-4.006 1.1 0.68 2.38-2.207 1.56-3.527-0.32-0.51-0.96-0.69-1.42-0.401-1.28 0.79-6.01 9.557-6.01 11.133 0 2.423 0.85 1.488 2.93-3.199zm52.46 1.823c-0.34 0.973-0.12 1.75 0.49 1.75 0.6 0 1-1.125 0.89-2.5-0.23-2.784-0.8-3.071-2.57-1.3-0.87 0.865-1.2 0.881-1.2 0.059 0-0.627 0.45-1.419 1-1.759s0.98-1.154 0.96-1.809-0.96-0.079-2.09 1.28c-1.22 1.472-1.61 2.617-0.96 2.833 0.6 0.2 1.09 1.087 1.09 1.971 0 1.329 0.26 1.271 1.5-0.334 1.25-1.618 1.4-1.649 0.89-0.191zm-27.92-8.595c-1.84-9.083-2.47-10.438-5.18-11.117-2.11-0.53-2.38-0.872-1.24-1.591 2.39-1.513 2.96-1.133 4.94 3.284 1.86 4.158 2.27 4.068 3.33-0.731 0.24-1.1 0.5-0.339 0.56 1.691s0.55 3.957 1.07 4.283c0.58 0.359 0.79-1.479 0.54-4.691-0.35-4.354-0.26-4.755 0.51-2.283 0.75 2.439 0.85 1.986 0.49-2.423-0.52-6.419-2.08-8.725-3.03-4.471-1.05 4.762-1.3 5.056-1.39 1.644-0.05-2.392-0.54-3.254-1.82-3.265-1.31-0.011-1.42-0.226-0.46-0.838 1.02-0.648 0.93-1.124-0.43-2.235-1.54-1.25-1.66-1.211-1.08 0.338 0.4 1.064 0.17 1.762-0.57 1.781-0.67 0.017-0.44 0.481 0.51 1.033 1.65 0.965 4.4 8.644 3.44 9.609-0.26 0.259-0.79-1.024-1.18-2.851-0.79-3.666-2.18-5.822-3.76-5.822-0.57 0-0.22 0.9 0.78 2 1.96 2.169 0.75 2.794-1.45 0.75-1.1-1.018-1.24-0.935-0.75 0.449 0.41 1.172 0.17 1.536-0.78 1.173-0.75-0.29-1.86 0.383-2.45 1.494-0.89 1.664-0.62 2.516 1.53 4.828 1.43 1.543 3.3 2.66 4.14 2.481 1.02-0.218 1.33 0.184 0.93 1.218-0.32 0.849-0.16 1.809 0.37 2.134s0.96 1.941 0.96 3.591c0 1.856 0.4 2.751 1.05 2.346 0.62-0.382 0.8-1.968 0.42-3.809zm2.6-17.071c-0.04-1.054 0.2-1.645 0.53-1.313s0.37 1.195 0.08 1.917c-0.32 0.798-0.56 0.561-0.61-0.604zm-20.12 16.166c0.17-5.304 0-9.02-0.46-9.764-0.93-1.497-4.25 0.178-5.41 2.728-1.62 3.564-0.57 4.071 1.3 0.625 0.84-1.561 1.55-2.472 1.58-2.023 0.02 0.449-0.45 1.725-1.05 2.836-0.59 1.111-0.85 2.246-0.57 2.522 0.27 0.277 1.18-0.774 2-2.335l1.5-2.839-0.3 3.983c-0.28 3.636 0.17 6.517 1 6.517 0.18 0 0.36-1.012 0.41-2.25zm21.05-0.809c0-0.517-0.45-0.941-1-0.941s-1 0.702-1 1.559c0 0.858 0.45 1.281 1 0.941s1-1.041 1-1.559zm-10.62-0.509c0.68-1.755-1-1.928-1.76-0.182-0.3 0.688-0.27-0.054 0.06-1.649 0.43-2.041 0.27-2.689-0.54-2.191-0.63 0.39-1.14 1.383-1.14 2.208s-0.46 1.221-1.01 0.88-0.73-1.723-0.39-3.07c0.5-1.969 0.3-2.329-0.99-1.834-0.88 0.339-1.47 0.906-1.31 1.261 1.92 4.266 3.11 5.751 4.67 5.869 1.03 0.077 2.11-0.504 2.41-1.292zm23.65-1.873c0.03 1.686 0.23 1.613 1.54-0.559l1.51-2.5-0.58 2.5c-0.55 2.382-0.5 2.366 1.03-0.332 1.58-2.771 1.4-5.668-0.35-5.668-0.48 0-1.39 1.013-2.01 2.25-1.03 2.07-1.08 2.01-0.57-0.75 0.31-1.663 0.19-2.539-0.27-1.966-0.46 0.568-1.73 1.018-2.82 1-1.23-0.021-2.11 0.729-2.3 1.966-0.27 1.65-0.14 1.738 0.72 0.5 0.92-1.333 1.04-1.333 1.12 0 0.06 1.011 0.37 0.848 0.95-0.5 0.47-1.1 0.89-1.474 0.93-0.831 0.12 2.045-1.11 4.34-2.03 3.774-0.48-0.301-0.59 0.215-0.23 1.146 0.6 1.561 0.75 1.551 1.99-0.139 1.28-1.762 1.34-1.758 1.37 0.109zm6.35-1.111c0.34-0.889 0.17-1.291-0.4-0.941-0.54 0.336-0.98 1.035-0.98 1.552 0 1.439 0.71 1.122 1.38-0.611zm-37.02-4.948c0.73-1.901-0.29-4.664-1.45-3.944-1.01 0.62-0.83 5.444 0.2 5.444 0.37 0 0.93-0.675 1.25-1.5zm40.9-0.102c0.34-0.332 0.2-1.684-0.31-3.004-0.58-1.546-0.52-3.256 0.19-4.802 0.89-1.967 0.63-3.367-1.43-7.746-2.87-6.093-10.71-15.356-10.71-12.655 0 0.93 0.45 1.969 1 2.309 1.26 0.78 1.3 2.5 0.06 2.5-0.96 0-1.2-0.614-3.01-7.617-1.04-4.027-1.15-4.11-4.96-3.786-2.74 0.232-4.08-0.107-4.47-1.133-0.31-0.805-1.12-1.464-1.81-1.464-0.68 0-2.2-1.2-3.37-2.668-1.41-1.7683-2.68-2.4535-3.78-2.0314-2.57 0.9858-1.99 3.3104 1.78 7.0774 2.82 2.821 3.53 3.143 3.94 1.783 0.27-0.913 0.28 1.264 0.02 4.839-0.52 7.076-0.06 8.37 3.35 9.433 1.75 0.548 2.26 0.304 2.3-1.115 0.03-1 0.6-0.243 1.27 1.682 0.98 2.838 0.96 3.564-0.12 3.835-0.79 0.199-1.2 1.411-1.01 3 0.26 2.286 1.16 2.95 6.31 4.665 6.37 2.125 12.5 5.416 12.5 6.716 0 0.927 1.41 1.04 2.26 0.182zm-6.28-13.43c-1.74-4.208-0.84-4.486 1.14-0.352 0.89 1.862 1.28 3.384 0.87 3.384s-1.32-1.364-2.01-3.032zm-3.83-1.968c0-1.375 0.23-1.937 0.51-1.25 0.28 0.688 0.28 1.813 0 2.5-0.28 0.688-0.51 0.125-0.51-1.25zm-9.9-10.5c-0.01-2.2 0.18-3.217 0.43-2.261s0.26 2.756 0.02 4-0.44 0.461-0.45-1.739zm-3.1-0.5c0-1.375 0.23-1.937 0.51-1.25 0.28 0.688 0.28 1.813 0 2.5-0.28 0.688-0.51 0.125-0.51-1.25zm-12 18.25c1.23-2.612 2.42-5.087 2.63-5.5 0.21-0.412-0.1-0.75-0.69-0.75-0.99 0-2.94 3.777-4.54 8.837-1.21 3.8 0.28 2.323 2.6-2.587zm9.37-4.174c-0.36-1.142-1.04-2.076-1.5-2.076s-0.32 1.093 0.31 2.428c1.35 2.86 2.14 2.627 1.19-0.352zm2.48-1.004c0-1.864-2.43-5.072-3.84-5.072-0.37 0-1.31 1.013-2.08 2.25-1.27 2.03-1.25 2.122 0.19 0.933 1.36-1.125 1.84-0.944 3.27 1.25 2.02 3.073 2.46 3.188 2.46 0.639zm5.43-29.53c-1.7-2.5916-5.55-3.9557-8.52-3.0142-4.1 1.3023-0.51 7.1846 5.11 8.3606 2.87 0.6 3.6 0.401 4.21-1.134 0.45-1.129 0.14-2.7859-0.8-4.2124zm-99.894 272.39c0.721-1.17 4.16-1.23 4.866-0.08 0.289 0.46-0.818 0.88-2.459 0.93s-2.724-0.34-2.407-0.85zm-14.291-9.73c-1.237-0.19-2.25-0.81-2.25-1.38s0.712-0.76 1.582-0.43 4.583 0.64 8.25 0.69c3.668 0.04 6.218 0.23 5.668 0.42-1.706 0.58-10.881 1.07-13.25 0.7zm-9.25-3.2c0-0.55-1.89-1-4.2-1-2.3853 0-3.7892-0.37-3.2495-0.85 1.5297-1.37 9.4495-0.15 9.4495 1.45 0 0.77-0.45 1.4-1 1.4s-1-0.45-1-1zm39-3l-4.5-0.7 4.5-0.07c2.475-0.03 6.75 0.29 9.5 0.72l5 0.78-5-0.02c-2.75-0.01-7.025-0.33-9.5-0.71zm42 0c0-0.55 0.45-1 1-1s1 0.45 1 1-0.45 1-1 1-1-0.45-1-1zm-74.5-7c0.34-0.55 1.492-1 2.559-1 1.068 0 1.941 0.45 1.941 1s-1.151 1-2.559 1c-1.451 0-2.291-0.44-1.941-1zm-12.5-5c0-0.55 0.4234-1 0.9405-1 0.518 0 1.22 0.45 1.559 1 0.34 0.55-0.083 1-0.941 1-0.857 0-1.5585-0.45-1.5585-1zm-2.5248-4.96c0.3535-0.58 1.8163-1.04 3.2505-1.04 3.1348 0 2.7718 0.48-1.0595 1.4-1.8587 0.44-2.6126 0.32-2.191-0.36zm1.5248-6.04c0.825-0.54 2.6245-0.94 3.9995-0.89l2.5 0.09-2.5 0.8c-1.375 0.44-3.1745 0.83-3.9995 0.88-1.3334 0.08-1.3334-0.02 0-0.88zm159.34-10.22c0.36-1.47-0.02-3.3-0.98-4.67-0.86-1.23-1.36-3.35-1.1-4.7 0.26-1.36 0.08-2.7-0.4-3-0.48-0.29-0.42-1.38 0.13-2.41 1.18-2.2 1.33-4.32 0.26-3.66-0.42 0.26-0.75-4.64-0.75-10.89 0-14.3 1.79-13.65 2.2 0.8 0.25 8.71 2.03 23.66 3.4 28.69 0.22 0.8-0.44 1.62-1.49 1.85-1.55 0.33-1.77-0.02-1.27-2.01zm-149.58 0.05c0.581-0.58 1.647-0.86 2.368-0.62 0.749 0.25 0.296 0.7-1.056 1.06-1.664 0.43-2.054 0.3-1.312-0.44zm5.47-0.52c0.956-0.25 2.756-0.26 4-0.02s0.461 0.44-1.739 0.45c-2.2 0.02-3.217-0.18-2.261-0.43zm20.511-3.05c2.338-0.21 6.163-0.21 8.5 0 2.338 0.21 0.425 0.39-4.25 0.39s-6.587-0.18-4.25-0.39zm165.98-22.99c2.32-0.21 6.37-0.22 9-0.01 2.62 0.21 0.73 0.38-4.22 0.38s-7.11-0.16-4.78-0.37zm15.53 0.04c0.96-0.25 2.53-0.25 3.5 0 0.96 0.25 0.17 0.45-1.75 0.45-1.93 0-2.72-0.2-1.75-0.45zm11.75-2.81c-3.27-1.87-2.13-1.89 2.13-0.04 1.85 0.8 2.69 1.46 1.87 1.46-0.83 0-2.63-0.64-4-1.42zm-194-0.5l-4.5-0.7 4.691-0.15c2.581-0.09 4.97 0.3 5.309 0.85 0.34 0.55 0.254 0.93-0.191 0.85-0.444-0.09-2.834-0.47-5.309-0.85zm23 0l-9.5-0.62 9-0.09c4.95-0.05 11.475 0.25 14.5 0.66l5.5 0.76-5-0.05c-2.75-0.02-9.275-0.32-14.5-0.66zm142-3c0.82-0.54 2.17-0.95 3-0.92 0.98 0.04 0.81 0.35-0.5 0.92-2.75 1.18-4.33 1.18-2.5 0zm-128.5-1.66c-1.65-0.2-5.475-1-8.5-1.79-3.025-0.78-8.762-1.94-12.75-2.58-3.987-0.64-7.25-1.5-7.25-1.92 0-0.76 8.088 0.66 19.665 3.46 3.39 0.82 7.301 1.49 8.691 1.49 1.389 0 2.805 0.45 3.144 1 0.34 0.55 0.479 0.93 0.309 0.85-0.169-0.09-1.659-0.31-3.309-0.51zm142.78 0.05c0.33-0.33 1.19-0.37 1.91-0.08 0.8 0.32 0.56 0.56-0.6 0.61-1.06 0.04-1.65-0.2-1.31-0.53zm-5.54-1.05c0.67-0.27 2.02-0.29 3-0.04 0.97 0.26 0.42 0.48-1.23 0.5s-2.45-0.19-1.77-0.46zm-176.46-2.95c0.333-0.33 1.195-0.37 1.917-0.08 0.798 0.32 0.561 0.56-0.604 0.61-1.054 0.04-1.645-0.2-1.313-0.53zm119.72-2.64c0-1.79-0.9-4.73-2-6.53-2.04-3.35-2.64-7.71-1.18-8.61 0.46-0.28 0.63 0.82 0.39 2.44s0 2.95 0.52 2.95c0.53 0 1.46 1.68 2.07 3.75 1.92 6.5 2.29 9.25 1.22 9.25-0.56 0-1.02-1.47-1.02-3.25zm-112.72 0.64c0.333-0.33 1.195-0.37 1.917-0.08 0.798 0.32 0.561 0.56-0.604 0.61-1.054 0.04-1.645-0.2-1.313-0.53zm121.16-9.55c0.07-1.84 0.47-3.91 0.9-4.59 0.47-0.75 0.28-1.25-0.48-1.25-0.97 0-0.99-0.27-0.05-1.2 1.73-1.74 1.47-2.85-0.49-2.09-1.19 0.45-0.87-0.43 1.09-3 1.53-2.01 2.6-4.19 2.38-4.86-0.22-0.66-1.43 0.45-2.68 2.47-1.24 2.02-2.49 3.68-2.77 3.68-0.27 0 0.42-1.49 1.54-3.31 1.13-1.82 2.54-6.5 3.15-10.4 1.05-6.8 1.35-7.35 7.04-13.04 7.5-7.5 7.8-6.61 0.39 1.16-7.13 7.48-6.24 8.67 1.04 1.4 3.03-3.03 5.51-5.2 5.51-4.82s-2.84 3.41-6.3 6.74c-5.35 5.13-6.32 6.59-6.4 9.66-0.11 3.85 0.45 4.35 2.72 2.36 0.78-0.69 0.65-0.32-0.3 0.83-2.2 2.65-2.24 4.08-0.06 2.29 1.49-1.23 1.55-1.17 0.57 0.63-0.59 1.1-2.02 2.78-3.16 3.74-2.03 1.7-2.98 4.43-1.14 3.3 1.15-0.71 0.79 3.49-0.47 5.5-0.5 0.8-0.79 2.24-0.63 3.19s-0.12 2.46-0.62 3.34c-0.66 1.19-0.87 0.74-0.78-1.73zm-15.36-12.34c-0.01-1.1 0.65-2.88 1.46-3.94 1.86-2.46 1.86-1.7 0 2.57-1.01 2.33-1.46 2.75-1.46 1.37zm23.93-10.76c0-0.27 0.67-1.06 1.5-1.74 0.82-0.69 1.5-1.02 1.5-0.75 0 0.28-0.68 1.06-1.5 1.75-0.83 0.68-1.5 1.02-1.5 0.74zm-1.5-3.74c0.99-1.1 2.03-2 2.31-2 0.27 0-0.32 0.9-1.31 2-1 1.1-2.04 2-2.31 2-0.28 0 0.31-0.9 1.31-2zm-41.46-3.09c0.62-1.15 1.32-1.89 1.56-1.64 0.7 0.7-0.72 3.73-1.75 3.73-0.51 0-0.42-0.94 0.19-2.09zm47.46-2.91c1.58-1.65 3.09-3 3.37-3 0.27 0-0.79 1.35-2.37 3-1.59 1.65-3.1 3-3.38 3-0.27 0 0.79-1.35 2.38-3zm-43.55 0.95c-0.8-0.51-1.07-0.93-0.59-0.94s0.09-1.2-0.86-2.65c-1.4-2.13-1.6-3.82-1.04-8.74 0.66-5.88 1.62-7.58 4.28-7.61 0.86-0.01 1.1 1.16 0.78 3.74-0.26 2.06-0.22 3.18 0.09 2.5 0.91-2.06 2.57-1.42 1.95 0.76-0.31 1.11-0.84 2.96-1.17 4.12-0.37 1.29-0.22 1.88 0.39 1.5 1.71-1.06 2.16 2.07 0.59 4.02-1.37 1.7-1.4 1.65-0.37-0.65 1.02-2.31 0.99-2.36-0.38-0.66-0.82 1.02-1.26 2.44-0.99 3.15 0.67 1.75-0.88 2.59-2.68 1.46zm2.23-8.38c0.22-1.89 0.09-3.25-0.28-3.02-0.95 0.59-1.71 6.45-0.84 6.45 0.39 0 0.9-1.55 1.12-3.43zm-2.52-5.82c-0.28-0.69-0.51-0.13-0.51 1.25 0 1.37 0.23 1.93 0.51 1.25 0.28-0.69 0.28-1.82 0-2.5zm-69.969 9.76c0.915-1.92 1.84-3.31 2.057-3.09 0.458 0.45-2.578 6.58-3.262 6.58-0.252 0 0.29-1.57 1.205-3.49zm102.31 1.6c0-0.55 0.45-1.27 1-1.61s1-0.17 1 0.38-0.45 1.28-1 1.62-1 0.16-1-0.39zm-104.96-0.69c-0.022-0.6 1.065-3.75 2.417-7 1.352-3.26 2.459-5.25 2.46-4.42 0.003 1.74-4.817 13.03-4.877 11.42zm58.964-0.42c-1.38-0.44-4.84-0.85-7.7-0.9-2.85-0.06-5.44-0.52-5.76-1.03-0.67-1.09 8.66-0.44 15.66 1.08 2.58 0.56 5.24 0.69 5.9 0.28 0.76-0.47 0.94-0.32 0.49 0.41-0.8 1.3-4.81 1.37-8.59 0.16zm54.5-5c1.58-1.65 3.09-3 3.37-3 0.27 0-0.79 1.35-2.37 3-1.59 1.65-3.1 3-3.38 3-0.27 0 0.79-1.35 2.38-3zm-68.31-5.5c-0.02-1.65 0.19-2.45 0.46-1.77 0.28 0.67 0.29 2.02 0.04 3-0.26 0.97-0.48 0.42-0.5-1.23zm-37.463-2.58c0.353-1.36 0.807-1.81 1.056-1.06 0.241 0.72-0.038 1.79-0.619 2.37-0.742 0.74-0.872 0.35-0.437-1.31zm95.833 0.78c0.38-0.98 0.93-1.54 1.24-1.23s0 1.11-0.68 1.79c-0.99 0.98-1.1 0.87-0.56-0.56zm-4.53-4.2c0-0.55 0.43-1.68 0.97-2.5 0.53-0.83 0.96-1.05 0.96-0.5s-0.43 1.67-0.96 2.5c-0.54 0.82-0.97 1.05-0.97 0.5zm-20.13-10.25c0.64-1.24 0.89-2.25 0.56-2.25s0.42-1.43 1.66-3.18c1.4-1.96 2.42-2.68 2.69-1.88 0.28 0.84 1.25 0.28 2.77-1.58 1.29-1.57 2.34-2.41 2.33-1.86 0 0.55-2.52 3.7-5.59 7s-5.06 4.98-4.42 3.75zm3.6-4.25c0.99-1.1 1.58-2 1.31-2-0.28 0-1.32 0.9-2.31 2-1 1.1-1.59 2-1.31 2 0.27 0 1.31-0.9 2.31-2zm-97.498 0.94c-0.004-0.86 0.654-2.43 1.462-3.5 1.91-2.53 1.929-1.43 0.038 2.19-0.822 1.58-1.497 2.16-1.5 1.31zm10.993-0.58c0-0.8 4.883-5.36 5.739-5.36 0.35 0-0.658 1.35-2.239 3-2.962 3.09-3.5 3.45-3.5 2.36zm-35.747-5.86c-0.011-2.2 0.184-3.22 0.435-2.27 0.25 0.96 0.259 2.76 0.02 4-0.239 1.25-0.444 0.47-0.455-1.73zm23.747 3.17c0-1.05 2.943-6.67 3.495-6.67 0.243 0 0.157 0.78-0.192 1.75-0.808 2.22-3.303 5.94-3.303 4.92zm-12.164-29.891c-3.327-1.114-4.6-3.783-1.804-3.783 1.083 0 1.856 0.563 1.718 1.25-0.163 0.818 0.875 1.199 3 1.103 1.788-0.081 3.25 0.204 3.25 0.633 0 1.309-3.344 1.741-6.164 0.797zm17.914-1.445c0.688-0.277 1.813-0.277 2.5 0 0.688 0.278 0.125 0.504-1.25 0.504s-1.937-0.226-1.25-0.504zm-17.676-2.749c-0.875-1.055-0.882-1.589-0.027-2.118 1.25-0.772 5.953 1.359 5.953 2.698 0 1.387-4.673 0.929-5.926-0.58z"/>
  <metadata>
    <rdf:RDF>
      <cc:Work>
        <dc:format>image/svg+xml</dc:format>
        <dc:type rdf:resource="http://purl.org/dc/dcmitype/StillImage"/>
        <cc:license rdf:resource="http://creativecommons.org/licenses/publicdomain/"/>
        <dc:publisher>
          <cc:Agent rdf:about="http://openclipart.org/">
            <dc:title>Openclipart</dc:title>
          </cc:Agent>
        </dc:publisher>
        <dc:title>Camel with Rider</dc:title>
        <dc:date>2008-04-09T22:50:59</dc:date>
        <dc:description>http://www.churchcontent.info/cbr/&#xD;\nFrom site home page...&#xD;\nFREE public domain Clipart</dc:description>
        <dc:source>http://openclipart.org/detail/16275/camel-with-rider-by-gerald_g-16275</dc:source>
        <dc:creator>
          <cc:Agent>
            <dc:title>Gerald_G</dc:title>
          </cc:Agent>
        </dc:creator>
        <dc:subject>
          <rdf:Bag>
            <rdf:li>animal</rdf:li>
            <rdf:li>bible</rdf:li>
            <rdf:li>camel</rdf:li>
            <rdf:li>clip art</rdf:li>
            <rdf:li>clipart</rdf:li>
            <rdf:li>desert</rdf:li>
            <rdf:li>externalsource</rdf:li>
            <rdf:li>outline</rdf:li>
            <rdf:li>person</rdf:li>
            <rdf:li>religion</rdf:li>
          </rdf:Bag>
        </dc:subject>
      </cc:Work>
      <cc:License rdf:about="http://creativecommons.org/licenses/publicdomain/">
        <cc:permits rdf:resource="http://creativecommons.org/ns#Reproduction"/>
        <cc:permits rdf:resource="http://creativecommons.org/ns#Distribution"/>
        <cc:permits rdf:resource="http://creativecommons.org/ns#DerivativeWorks"/>
      </cc:License>
    </rdf:RDF>
  </metadata>
</svg>
