<?xml version="1.0"?>
<svg xmlns:rdf="http://www.w3.org/1999/02/22-rdf-syntax-ns#" xmlns="http://www.w3.org/2000/svg" xmlns:cc="http://web.resource.org/cc/" xmlns:dc="http://purl.org/dc/elements/1.1/" xmlns:svg="http://www.w3.org/2000/svg" id="Layer_1" xml:space="preserve" viewBox="0 0 449.263 582.193" version="1.0">
<path id="path5" d="m217.86 104.27c2.23-1.48 4.35-4.359 6.22-8.931 1.88-4.716 4.11-12.24 5.04-18.252 0.72-6.12-1.54-11.808 0-17.496 1.48-5.688 3.71-9.504 9.33-16.308 5.65-6.948 16.31-18 24.48-24.84 8.06-7.02 15.8-13.428 23.65-16.308 7.85-2.808 19.8-2.556 22.93-0.792 2.88 1.656-2.09 5.112-5.04 10.512-3.06 5.4-7.7 11.448-12.81 21.744-5.22 10.296-8.86 25.128-17.86 39.204-9.14 14.004-20.92 28.257-36.14 43.887 7.99-2.31 15.87-7.31 24.08-15.16 8.1-7.991 16.13-23.003 24.48-31.823 8.35-8.892 17.28-14.832 25.23-20.592 7.82-5.868 13.4-7.056 21.75-13.968 8.31-7.092 21.85-25.308 27.97-27.576 5.87-2.196 9.29 3.708 7.74 14.364-1.76 10.656-8.28 34.74-17.06 48.924-8.93 13.968-22.07 25.344-34.96 34.561-12.89 9.14-30.92 13.75-41.18 20.2-10.3 6.37-16.67 12.27-19.8 17.85l0.79 4.29c7.13 0.18 12.13 1.47 15.15 3.88 2.99 2.38 2.09 5.55 2.7 10.48 0.51 4.86 0.83 14.18 0.4 18.65-0.47 4.46-1.77 6.87-3.49 7.77 2.05-0.97 3.99-1.36 5.43-1.18 1.41 0.07 2.7 0.72 3.49 1.94 3.03-7.52 5.69-13.64 8.14-18.65 2.38-5.11 3.06-11.77 6.23-11.23 3.13 0.61 7.6 10.01 12.42 14.72 4.72 4.5 14.11 7.96 15.55 12.46 1.26 4.43-1.33 9.22-7.77 14.36 3.56-0.72 7.27-0.5 11.27 0.65 3.99 1.19 7.99 3.17 12.42 6.23-4.22 0.11-7.71 0.58-10.48 1.55-2.84 0.9-4.82 2.19-6.23 3.89 7.74 3.78 13.86 7.27 19.04 10.47 5.08 3.1 10.27 5.26 11.24 8.57 0.72 3.17-2.42 5.22-6.2 10.87-3.85 5.65-9.1 13.14-16.3 22.9 1.65 1.01 3.67 2.59 6.19 5.04 2.44 2.37 5.25 5.43 8.56 9.32 4.43-1.19 8.39-0.79 12.03 1.19 3.6 1.91 6.84 5.4 9.72 10.48 7.13-7.64 14.36-14.4 22.14-20.6 7.67-6.26 16.7-13.64 24.05-16.3 7.31-2.74 13.32-3.39 19.44 0.39 6.04 3.85 13.75 15.27 16.31 22.14 2.26 6.7 0.79 12.28-2.35 17.86-3.27 5.51-8.71 10.51-16.7 15.15 0.83 3.39 2.31 6.48 4.28 9.69 1.98 3.06 4.61 6.08 7.74 8.93-8.31 3.24-16.92 6.08-26.38 8.53-9.58 2.23-21.82 3.53-29.92 5.83-8.06 2.38-14.15 5-18.25 8.17v43.09c5.47 2.13 9.65 5.22 13.21 9.72 3.35 4.43 8.21 9.72 7.38 16.71-0.94 6.95-6.05 20.55-12.42 24.44-6.48 3.64-19.69 1.05-26.03-1.94-6.41-3.21-10.83-10.26-12.02-16.31-1.23-6.08 0.65-14.4 4.64-19.8 3.93-5.44 10.05-9.76 18.65-12.82l-0.39-38.44c-1.26 0.5-4.11 2.3-8.54 5.83-4.5 3.45-10.58 8.24-18.25 14.76 0.04 2.52 0.69 5.76 1.95 9.72 1.26 3.92 3.02 8.53 5.43 13.97-6.98 2.66-12.45 5.07-16.7 7.38-4.21 2.26-7.06 4.28-8.53 6.19l3.09 14c-7.88 1.62-15.55 2.99-23.29 4.25-7.81 1.3-15.3 2.16-22.89 3.13-1.48 3.42-2.53 7.63-3.53 12.78-0.94 5.08 0.75 12.57-2.31 17.89-3.27 5.15-12.92 9.26-16.7 13.58-3.85 4.28-1.91 7.77-5.83 12.42-4.07 4.53-14.19 9.39-17.86 15.15-3.71 5.83-3.85 12.46-3.89 19.05 0 6.37 1.3 13.5 3.5 19 2.05 5.37 4.1 9.22 8.92 13.22 4.76 3.88 15.02 6.55 19.8 10.08 4.79 3.42 8.72 8.67 8.57 10.51-0.39 1.69-3.85 1.69-10.51 0-3.39 1.91-6.48 2.81-9.29 2.7-2.88-0.15-5.47-1.26-7.77-3.49-2.74 0.61-4.94 0.79-6.99 0.39-2.05-0.43-3.74-1.29-5.07-2.73-2.6 1.47-5.44 1.65-8.54 0.39-3.2-1.36-7.48-4.28-10.08-7.77-2.62-3.53-3.92-9.97-5.43-12.82-1.66-2.88-2.45 1.26-3.89-4.24-1.58-5.62-3.24-26.25-4.68-29.13-1.4-2.88-2.52 5.58-3.49 11.63-0.94 6.05-1.19 17.96-2.31 24.08-1.29 5.84-1.83 8.25-5.07 11.27-3.46 3.03-10.84 5.55-14.37 6.59-3.49 0.83-5.5 0.58-6.19-1.15-2.19 2.63-5.22 4.21-8.93 5.04-3.85 0.75-8.24 0.57-13.6-0.4-6.59 0.51-10.95 0.69-13.22 0.4-2.26-0.29-2.44-0.94-0.39-1.95-4.14-1.26-6.16-2.62-6.19-4.24-0.15-1.62 3.27-3.35 5.83-5.48 2.55-2.26 5.61-6.04 9.32-7.74 3.67-1.72 8.46 0.36 12.42-2.34 3.85-2.88 7.99-6.19 10.48-14.36 2.34-8.39 3.63-19.76 3.89-34.96-6.88-4.78-12.14-9.21-15.92-13.96-3.77-4.79-5.93-9.22-6.62-13.97-8.46-6.77-13.9-11.81-16.7-15.55-2.88-3.78 1.65-3.24 0-6.59-1.69-3.6-8.25-8.46-10.08-13.61-1.87-5.11-2.31-10.55-1.15-16.7-11.236-5.33-22.576-10.23-34.565-14.84-12.06-4.71-29.412-9.54-36.9-12.81-7.416-3.21-6.624-3.93-7.776-6.59-1.368-2.92-2.34-3.1 0-10.12 2.34-7.16 7.056-18.14 14.004-31.82 6.876-13.79 20.053-36.79 27.181-49.72 6.947-12.92 9.828-15.69 14.76-27.07 4.824-11.48 9.612-24.98 14.364-41.18l-8.568 4.68c-2.412 3.13-3.96 6.44-5.04 10.08-1.116 3.6-1.368 7.49-1.152 11.66-9.071-5.83-18.684-9.54-29.124-11.27-10.548-1.76-21.492-1.54-33.408 0.8l0.396-17.5c-4.176 0.18-7.92-0.47-11.664-1.94-3.852-1.48-10.584-1.77-10.476-6.99 0.072-5.43 4.572-14.36 11.268-24.84 6.732-10.55 16.164-22.93 28.728-37.69-3.312-0.43-5.544-1.55-6.984-3.49-1.44-1.98-1.908-4.65-1.548-8.14-3.384-1.19-7.308-0.72-12.06 1.55-4.752 2.2-10.188 6.08-16.308 11.66-0.756-2.52-1.008-6.87-0.756-13.21 0.252-6.48 0.972-14.58 2.304-24.84 0.468 4.68 3.924 8.61 10.512 11.63 6.588 3.1 15.984 5.11 28.728 6.59-0.18-2.59 0.252-4.36 1.152-5.44 0.864-1.11 2.34-1.55 4.284-1.15-0.575-2.34-0.107-3.89 1.549-4.64 1.584-0.8 4.355-0.8 8.172 0 2.052-2.31 4.067-3.42 6.191-3.5 2.124-0.1 4.068 0.98 6.229 3.1 1.979-1.76 3.996-2.16 6.191-1.19 2.196 0.97 5.652 4.61 6.624 7.02 0.828 2.38 0.36 4.57-1.548 6.99l43.49 2.7c-0.29-4.07 0.43-7.6 2.3-10.88 1.77-3.24 2.95-4.96 8.57-8.53 5.62-3.67 13.72-8.03 24.84-13.21 0.43-6.91 2.84-11.12 7.38-13.18 4.5-2.047 10.87-1.615 19.4 1.16 6.77-3.711 12.6-5.259 17.5-5.043 4.89 0.246 8.64 2.483 11.63 6.693zm-116.5 49.61l24.88 0.39 0.75 6.19c-3.92 2.45-6.98 5.12-9.32 8.54-2.49 3.31-3.89 6.19-4.65 11.26-0.75 5.01-0.57 11.13 0.4 18.65-4.54-6.62-8.06-12.71-11.27-18.65-3.06-5.97-5.651-11.41-7.379-16.7 3.096-1.04 5.04-2.2 6.229-3.85 1.01-1.66 1.26-3.6 0.36-5.83zm-7.381 0c0.756 2.84 0.504 4.78-0.756 5.83-1.368 0.97-3.601 1.19-6.984 0.36l-2.736-7.38c3.492 0.39 6.984 0.79 10.476 1.19zm-57.06-3.89l10.477 0.75 0.792 4.68-3.889 2.34c-2.412-0.25-4.176-1.08-5.436-2.34-1.26-1.33-1.908-3.09-1.944-5.43zm259.78 135.32c0.61 3.03 1.9 5.22 3.88 6.99 1.91 1.72 4.5 2.62 7.78 3.09l4.25 4.68c-1.87 2.13-1.87 4.97 0 8.53 1.76 3.6 5.43 7.78 10.87 12.82l-15.91 7.77c-2.41-5.5-4.4-11.62-6.23-19.04-1.84-7.45-3.38-15.55-4.64-24.84z" fill-rule="evenodd" stroke="#000" stroke-miterlimit="10" stroke-width=".036"/>
<path id="path7" d="m128.61 147.29c0.54-4.68 1.12-8.25 1.87-10.69 0.65-2.6 1.48-3.89 2.34-4.29 0.15 3.75 0.44 6.41 1.16 8.53 0.57 2.02 0.79 3.93 2.73 3.5 1.94-0.62 7.89-4.58 8.93-6.59 0.9-2.05-2.63-3.82-3.1-5.44-0.57-1.73-1.36-3.13 0-4.64 1.23-1.62 3.67-3.13 7.74-5.08 4.07-2.09 9.33-4.5 16.31-7.38-0.47-4.39 0.18-7.67 2.34-9.68 2.05-2.05 6.95-2.92 10.12-2.74 3.09 0.04 5.94 1.08 8.53 3.13 5.4-2.91 10.4-4.39 15.15-4.28 4.65 0.07 9.51 2.41 13.18 4.64 3.64 2.02 5.33 2.67 8.57 7.78 3.09 5.08 8.85 20.56 10.47 22.14 1.52 1.26-1.8-11.77-0.79-13.97 0.94-2.16 4.72-0.61 6.63 0.76 1.8 1.15 3.34 3.49 4.64 6.62 1.3 3.06 2.85 7.2 3.1 12.03 0.14 4.89 0.39 10.51-2.31 16.7-2.91 6.08-8.02 14.22-14.36 19.4-6.41 5.01-16.13 8.21-23.33 10.88-7.31 2.62-17.42 4.93-19.8 4.68-2.3-0.51 3.71-3.96 5.83-6.63 2.02-2.63 2.02-5 6.23-8.93 4.18-4.1 18.76-13.96 18.61-15.15-0.32-1.19-16.63 8.89-20.19 8.17-3.64-0.9-0.04-9.9-1.15-12.82-1.26-2.95-4.83-5.07-5.84-4.28-1.04 0.86-0.32 4.9-0.36 9.32-0.25 4.32 2.96 13.18-0.39 16.31-3.49 2.99-17.25-0.43-19.44 1.55-2.09 1.91 7.7 7.6 6.62 9.72-1.33 2.02-9.29 2.66-14 2.34-4.83-0.4-10.41-1.4-13.97-4.68-3.49-3.35-5.87-8.57-6.98-15.52 3.02 0.69 5.68 0.26 8.13-1.15 2.38-1.55 6.12-6.41 6.23-7.38-0.04-1.01-3.13 1.59-6.23 1.95-3.24 0.25-9.18 0.72-12.42 0-3.27-0.83-5.33-2.81-6.98-4.68-1.73-2.02-2.88-4.14-3.31-6.81l6.15 0.07c1.23 1.73 2.49 2.81 3.78 2.85 1.33 0.14 3.13-0.76 3.85-2.31 0.62-1.8 0.4-6.19-0.36-7.77-0.97-1.62-3.45-1.59-4.68-1.55-1.22-0.07-1.94 0.47-2.3 1.48-2.3-0.04-4.61-0.08-6.95-0.11z" fill-rule="evenodd" stroke="#000" stroke-miterlimit="10" stroke-width=".036" fill="#fff"/>
<path id="path9" d="m188.73 143.58c-1.37-0.36-4.21-4.43-4.64-8.17-0.47-3.82 0.36-10.19 1.94-13.97 1.51-3.85 3.89-7.02 6.98-8.53 3.06-1.62 6.73-2.99 10.88-0.79 3.92 2.12 9.39 9.57 12.81 13.6 3.42 3.93 7.78 8.97 7.38 9.69-0.54 0.57-9.07-6.95-10.48-6.19-1.54 0.75 1.98 6.51 1.55 10.47-0.57 3.85-3.2 12.35-4.28 12.42-1.01-0.18-0.69-10.98-1.94-12.81-1.48-1.91-3.82 2.3-6.59 1.94-2.92-0.4-8.21-4.68-10.48-4.25-2.3 0.43-1.9 6.7-3.13 6.59z" fill-rule="evenodd" stroke="#000" stroke-miterlimit="10" stroke-width=".036"/>
<path id="path11" d="m192.62 129.97c-1.19-1.22-1.44-2.95-0.76-5.04 0.65-2.23 2.38-6.44 4.65-7.77 2.12-1.37 6.33-1.55 8.17 0 1.76 1.44 2.48 4.42 2.3 8.96-1.9-2.02-3.45-2.88-4.64-2.74-1.26 0.11-2.27 1.73-2.74 3.5-0.64 1.76-0.82 4.71-0.39 6.62 0.43 1.69 3.74 3.67 3.13 3.85-0.86 0.04-5.69-1.87-7.38-3.09-1.62-1.23-2.45-2.7-2.34-4.29z" fill-rule="evenodd" stroke="#000" stroke-miterlimit="10" stroke-width=".036" fill="#fff"/>
<path id="path13" d="m151.47 141.64c0.4-3.57 1.55-6.38 3.06-8.57 1.48-2.23 3.39-2.95 6.27-4.65 2.91-1.76 6.4-3.7 10.87-5.83-3.17 2.49-5.91 4.68-8.5 6.59-2.66 1.84-5.22 2.45-6.84 4.75-1.73 2.27-3.45 8.35-2.7 8.93 0.69 0.4 4-4.43 7.17-5.87 3.09-1.51 8.31-2.55 11.62-2.73 3.21-0.22 5.8 0.25 7.78 1.54-7.63-0.14-13.32 0.51-17.46 1.95-4.1 1.47-5.62 4.97-7.02 6.59-1.58 1.51-1.26 2.66-1.94 2.34-0.69-0.51-1.55-2.09-2.31-5.04z" fill-rule="evenodd" stroke="#000" stroke-miterlimit="10" stroke-width=".036"/>
<path id="path15" d="m159.21 145.52c2.09-2.19 4.9-3.27 8.43-2.95 3.52 0.29 7.66 1.69 12.56 4.5-4.75-4.17-8.75-6.37-12.28-6.59-3.56-0.21-6.37 1.34-8.71 5.04z" fill-rule="evenodd" stroke="#000" stroke-miterlimit="10" stroke-width=".036"/>
<path id="path17" d="m156.51 148.62c6.16-0.83 10.95-0.54 14.76 1.15 3.82 1.66 6.23 4.47 7.78 8.57-5.19-4.1-9.36-6.91-13.21-8.57-3.82-1.69-6.88-1.98-9.33-1.15z" fill-rule="evenodd" stroke="#000" stroke-miterlimit="10" stroke-width=".036"/>
<path id="path19" d="m136.78 132.42c-0.21-2.99-1.62-6.3-4.64-10.08s-7.38-7.92-13.21-12.42c5.36 5.54 9.32 10.15 12.42 13.97 2.99 3.74 4.75 6.59 5.43 8.53z" fill-rule="evenodd" stroke="#000" stroke-miterlimit="10" stroke-width=".036"/>
<path id="path21" d="m134.3 134.54c-1.4-4.71-3.78-8.38-7.42-11.01-3.63-2.7-8.38-4.25-14.25-4.79 3.67 0.97 7.16 2.74 10.87 5.44 3.56 2.62 7.16 6.08 10.8 10.36z" fill-rule="evenodd" stroke="#000" stroke-miterlimit="10" stroke-width=".036"/>
<path id="path23" d="m131.6 137.78c-1.94-4.21-4.72-7.27-8.32-9.18-3.67-1.98-8.1-2.8-13.42-2.48 4.96 1.15 9.1 2.66 12.81 4.68 3.67 1.98 6.52 4.21 8.93 6.98z" fill-rule="evenodd" stroke="#000" stroke-miterlimit="10" stroke-width=".036"/>
<path id="path25" d="m130.74 141.38c-2.31-3.49-5.19-5.68-8.64-7.12-3.53-1.37-7.49-1.8-12.17-1.16 3.99 0.87 7.74 2.16 11.23 3.5 3.49 1.29 6.59 3.02 9.58 4.78z" fill-rule="evenodd" stroke="#000" stroke-miterlimit="10" stroke-width=".036"/>
<path id="path27" d="m221.35 105.82c1.33-0.58 2.84-2.99 4.68-7.781 1.76-4.824 5.25-13.716 6.19-20.556 0.86-6.804-3.46-13.536-0.76-20.196 2.6-6.804 10.95-14.112 16.31-19.836 5.29-5.796 9.51-9.432 15.12-14.364 5.44-5.148 10.77-11.988 17.5-15.516 6.66-3.492 18.39-5.364 22.14-5.04 3.38 0.324 1.4 2.52-0.79 6.984-2.31 4.464-8.36 12.42-12.03 19.404-3.71 6.804-5.47 13.68-9.72 21.744-4.35 8.136-13.5 23.796-15.91 26.424-2.41 2.34 2.74-11.592 1.55-11.664-1.33 0-6.52 5.832-9.33 11.268-2.84 5.292-3.96 13.644-7.77 20.592-3.96 6.947-9.22 13.577-15.91 20.557-1.48-2.74-3.21-4.93-5.04-6.98-1.88-2.09-4-3.64-6.23-5.04z" fill-rule="evenodd" stroke="#000" stroke-miterlimit="10" stroke-width=".036" fill="#fff"/>
<path id="path29" d="m241.94 119.78c2.34-2.59 11.48-4.71 18.25-11.23 6.7-6.66 14.04-19.043 21.75-27.971 7.56-9.036 15.22-18.828 23.68-25.632 8.46-6.84 24.05-14.4 26.79-14.76 2.55-0.36-4.9 6.048-11.27 12.42-6.59 6.264-19.44 16.128-27.18 24.876-7.78 8.748-16.06 21.384-18.61 26.787-2.63 5.18-2.16 9.9 3.49 4.28 5.76-5.97 21.99-28.691 30.67-38.447 8.43-9.648 14.19-11.916 20.2-19.044 5.86-7.344 10.11-17.496 15.51-24.084 5.33-6.696 13.4-15.12 16.71-15.12 3.31 0.072 4.82 5.796 2.73 15.516-2.27 9.576-9 29.988-16.31 41.94-7.45 11.844-17.1 20.952-27.97 29.124-11.09 8.065-28.19 14.185-37.3 19.045-9.07 4.68-11.98 6.01-16.66 9.29-4.76 3.24-8.61 9.11-11.27 10.11-2.7 0.8-3.24-2.48-4.68-4.68-1.59-2.34-2.81-6.48-4.25-8.53-1.54-2.09-6.58-1.44-4.28-3.89z" fill-rule="evenodd" stroke="#000" stroke-miterlimit="10" stroke-width=".036" fill="#fff"/>
<path id="path31" d="m332.01 303.96c4.18-6.34 8.53-10.3 13.21-12.42 4.65-2.13 9.76-2.13 14.76 0 4.97 2.19 13.18 10.11 14.76 12.78 1.37 2.56-2.66 3.53-5.83 2.34-3.17-1.33-10.87-9.18-12.81-10.08-1.91-0.97 2.23 2.99 1.18 4.25-1.29 1.04-5.68 0.93-8.17 2.73-2.48 1.84-3.56 5.62-6.59 8.14-3.16 2.45-7.09 4.39-12.06 6.23-1.11-2.63-1.36-5.04-1.15-7.38 0.22-2.45 1.12-4.47 2.7-6.59z" fill-rule="evenodd" stroke="#000" stroke-miterlimit="10" stroke-width=".036" fill="#fff"/>
<path id="path33" d="m260.19 443.14c0.15 8.31-0.79 15.04-3.1 20.59-2.44 5.36-7.66 7.31-10.51 12.06-2.77 4.71-2.84 11.91-6.19 16.31-3.53 4.24-10.58 5.4-14.36 9.28-3.93 3.86-6.88 8.57-8.17 13.61-1.23 5.01-0.51 9.15 0.79 15.91 1.19 6.74 3.24 17.82 6.59 23.69 3.31 5.62 9.1 7.74 13.21 10.12 3.99 2.23 7.67 2.12 10.87 3.85 3.13 1.69 7.74 5.15 8.14 6.62 0.32 1.37-1.52 2.02-5.8 1.95-4.68-4.03-7.74-6.63-9.32-7.38-1.59-0.76-1.12 0.72 0 2.34 1 1.4 5.94 4.71 6.19 6.19 0.07 1.4-3.49 2.73-5.44 2.34-2.05-0.5-3.92-2.41-6.59-5.04-2.84-2.74-9.14-10.94-9.72-10.87-0.5 0.03 1.66 3.78 6.63 11.23-1.34 0.9-3.1 0.65-5.44-0.36-2.38-1.19-6.34-4.28-8.57-6.23-2.45-1.98-5.15-6.34-5.04-5.44 0.22 0.83 2.2 4.32 6.23 10.48-3.71 0.97-6.77 0.5-9.32-1.55-2.52-2.23-4.29-7.2-5.83-10.87-1.77-3.56-3.1-7.06-4.29-10.48-2.41-0.5-3.96-2.88-5.04-6.98-1.04-4.28-1.01-11.81-1.15-17.86-0.36-6.08-2.99-11.62-0.4-17.89 2.63-6.33 11.45-12.35 15.92-19.4 4.28-7.06 7.52-20.27 10.11-22.54 2.56-2.23 4 10.48 5.44 8.97 1.33-1.84 1.62-13.47 3.09-19.05 1.55-5.65 4.61-14.29 5.84-13.97 0.97 0.51-0.87 15.02 0.75 16.31 1.69 0.94 6.7-8.46 9.33-9.72 2.44-1.33 3.27 3.39 5.83 2.34 2.55-1.08 5.61-3.89 9.32-8.56z" fill-rule="evenodd" stroke="#000" stroke-miterlimit="10" stroke-width=".036" fill="#fff"/>
<path id="path35" d="m124.65 574.79l10.12-7.78c-5.4 5.62-8.25 9.11-8.53 10.87-0.44 1.62 3.06 1.05 6.58-0.75 3.46-1.98 13.29-10.12 14.37-10.12 0.97 0.07-1.87 3.53-8.53 10.51 3.56 1.23 6.87 1.3 10.08 0.36 3.16-1.11 6.51-3.92 8.92-6.19 2.38-2.3 4.43-7.27 5.04-6.98 0.44 0.32-2.84 7.56-1.9 8.93 1 1.15 4.93 0.25 7.74-1.19 2.73-1.44 6.84-3.53 8.56-7.38 1.62-3.93 0.26-10.48 1.15-15.91 0.9-5.62 3.82-13.9 3.89-17.07-0.14-3.27-4.39-0.68-4.28-1.94 0.22-1.37 4.86-2.85 5.04-5.83-0.15-3.21-3.31-9.76-5.04-12.42-1.69-2.63-3.1-0.29-5.04-3.14-2.09-3.09-4.79-9.82-6.98-14.36-2.31-4.61-6.88-12.67-6.23-12.81 0.54-0.19 7.85 8.71 10.11 11.66 2.23 2.81 3.49 7.99 3.49 5.44-0.07-2.63-4.28-20.6-3.88-20.99 0.28-0.47 3.38 12.56 5.83 18.25 2.45 5.58 5.11 14.8 8.53 15.16 3.24 0.14 7.27-9.29 11.27-13.57 3.99-4.32 9.29-6.77 12.42-12.07 2.88-5.58 2.84-16.2 5.44-20.19 2.59-3.93 10.11-0.47 10.08-3.1-0.29-2.81-4.94-9.9-10.88-13.21-5.86-3.42-15.08-5.44-24.04-6.59-9.19-1.19-22.07-0.72-29.92-0.39-7.85 0.18-14.26-0.8-16.31 1.94-2.09 2.7 4.9 14.15 3.89 14.36-1.3 0.04-5.76-11.48-10.48-13.57-4.68-2.16-15.05-1.08-17.1 1.15-2.16 2.23 3.78 9.29 4.65 12.42 0.75 2.99-2.31 2.34 0.39 5.84 2.63 3.45 7.81 8.24 15.55 14.76 2.78 7.45 6.09 13.53 10.48 18.64 4.28 5.11 9.29 8.86 15.16 11.63-0.36 8.64-1.41 16.67-3.14 24.09-1.87 7.41-4.28 15.44-7.38 20.19-3.16 4.68-7.81 6.3-10.87 7.78-3.06 1.36-5-0.18-7.38 0.75-2.48 0.9-4.89 2.88-7.38 4.68-2.7 1.69-6.62 3.78-7.74 5.44-1.01 1.55 0.76 3.35 1.55 3.85 0.65 0.47 1.55 0.04 2.7-1.15z" fill-rule="evenodd" stroke="#000" stroke-miterlimit="10" stroke-width=".036" fill="#fff"/>
<path id="path37" d="m53.623 144.05c-0.54-1.23-1.188-3.31-2.34-3.89-1.188-0.68-3.996-0.68-4.68 0-0.756 0.58-0.9 2.27 0.396 3.53 1.188 1.15 5.832 3.38 6.984 3.49 1.044-0.11 0-1.94-0.36-3.13z" fill-rule="evenodd" stroke="#000" stroke-miterlimit="10" stroke-width=".036" fill="#fff"/>
<path id="path39" d="m53.228 135.91c-0.576-1.19-1.08-1.83-0.396-2.34 0.648-0.54 2.628-1.62 4.284-0.75 1.512 0.82 3.888 2.91 5.04 5.43 1.08 2.38 2.052 7.67 1.548 8.93-0.684 1.04-3.708-0.72-5.04-1.94-1.368-1.3-1.908-3.46-2.735-5.08-0.974-1.69-2.198-3.06-2.701-4.25z" fill-rule="evenodd" stroke="#000" stroke-miterlimit="10" stroke-width=".036" fill="#fff"/>
<path id="path41" d="m63.703 132.42c0.468-0.94 1.477-1.3 2.736-0.79 1.044 0.5 2.88 1.15 3.852 3.89 0.9 2.59 1.8 10.11 1.584 12.02-0.396 1.76-2.268 1.04-3.527-0.76-1.332-1.87-3.492-7.74-4.248-10.11-0.792-2.52-0.829-3.39-0.397-4.25z" fill-rule="evenodd" stroke="#000" stroke-miterlimit="10" stroke-width=".036" fill="#fff"/>
<path id="path43" d="m73.783 133.18c0.756-0.26 3.888 0.57 5.076 1.94 1.224 1.26 2.016 3.35 1.944 5.44-0.217 1.98-2.232 6.22-3.133 6.62-1.044 0.32-2.088-2.99-2.699-4.68-0.685-1.87-1.08-4.28-1.188-5.83-0.36-1.73-0.828-3.17 0-3.49z" fill-rule="evenodd" stroke="#000" stroke-miterlimit="10" stroke-width=".036" fill="#fff"/>
<path id="path45" d="m126.6 164.24l12.45 8.18c1.12 5.47 2.85 9.9 5.04 13.57 2.2 3.53 2.92 6.12 8.14 8.17 5.18 1.98 14.69 3.42 22.53 3.89 7.6 0.39 14.66 0.07 23.69-1.55 9.18-1.84 22.65-4.97 30.67-8.96 7.78-4.11 11.6-8.97 16.31-15.12 4.72-6.2 8.46-13.4 11.67-21.75 3.99-0.25 7.05 0.22 9.32 1.55 2.2 1.3 3.53 3.64 3.85 6.19 0.29 2.45-1.08 6.73-2.3 8.57-1.37 1.69-3.31 2.34-5.83 1.94 1.44 1.34 1.65 2.27 0.79 3.1-0.9 0.76-3.03 1.22-6.23 1.55 2.12 2.48 2.95 4.21 2.34 5.04s-2.56 0.83-5.83 0c0.47 2.52 0.25 4.07-0.79 5.07-1.08 0.9-2.85 0.98-5.44 0.36 0.14 2.24-0.29 3.71-1.15 4.29-0.9 0.54-2.38 0.32-4.29-0.79-0.36 2.98-1.08 4.75-2.3 5.43-1.33 0.61-2.88 0.15-5.08-1.55-0.9 2.45-1.98 3.96-3.09 4.68-1.26 0.69-2.41 0.33-3.89-0.79-0.58 2.23-1.66 3.71-3.1 4.29-1.58 0.54-3.38 0.32-5.83-0.8-1.98 2.31-3.74 3.6-5.43 3.89-1.8 0.29-3.17-0.54-4.65-2.34-1.22 1.77-2.34 2.77-3.89 2.74-1.47 0.03-3.2-0.97-5.04-2.74-1.94 3.35-3.63 5.11-5.07 5.44-1.55 0.25-2.85-1.08-3.89-3.85-2.45 2.05-4.25 2.95-5.8 3.09-1.51 0.11-2.55-0.93-3.13-2.73-2.41 2.19-4.36 3.24-5.44 3.13-1.11-0.15-1.76-1.44-1.55-3.89-4.35 1.73-7.2 2.41-8.92 2.34-1.77-0.14-2.02-1.19-1.16-3.13-4.1 2.09-6.69 2.95-8.17 2.73-1.51-0.25-1.51-1.72-0.39-4.28-3.71 1.58-6.3 2.23-7.38 1.94-1.12-0.36-1.12-1.65 0.39-3.88-4.07 1-6.51 1.22-7.74 0.79-1.19-0.47-0.93-1.59 0.76-3.49-4.72 2.12-7.74 3.02-8.93 2.7-1.22-0.33-0.76-1.88 1.55-4.65-4.79-0.21-7.45-0.83-8.14-1.55-0.72-0.79 0.58-1.83 3.89-3.13-4.43 0.11-7.02 0.11-8.17-0.39-1.19-0.4-0.54-1.3 1.55-2.31-3.5-0.68-5.44-1.33-5.84-1.94-0.5-0.69 0.54-1.33 3.14-1.95-3.1-1.62-4.61-2.73-4.68-3.49-0.11-0.79 1.36-1.19 4.28-1.19-1.22-2.62-1.66-4.39-1.15-5.43 0.39-1.05 1.73-1.3 3.85-0.76-1.08-1.87-1.33-3.2-0.76-4.28 0.58-1.05 1.95-1.69 4.26-1.95z" fill-rule="evenodd" stroke="#000" stroke-miterlimit="10" stroke-width=".036" fill="#fff"/>
<path id="path47" d="m114.97 196.1c-0.58-3.09-0.58-5.47 0-6.98 0.54-1.66 1.94-4.1 3.09-2.34 0.98 1.84 1.88 11.66 3.1 12.82 1.15 0.9 2.63-7.82 3.89-6.99 1.11 0.72 1.83 10.66 3.13 11.63 1.3 0.9 3.13-6.95 4.25-6.19 0.97 0.72 0.14 10.19 1.55 10.47 1.29 0.18 4.71-9.86 6.22-9.32 1.41 0.54 1.12 11.41 2.34 12.06 1.08 0.32 3.46-9.86 4.65-9.32 1.15 0.46 1.01 12.24 2.34 12.81 1.3 0.54 4.03-9.79 5.44-9.32 1.18 0.47 1.04 11.88 2.34 12.02 1.26-0.03 4.14-12.42 5.43-12.02 1.12 0.32 0.29 13.68 1.95 13.97 1.73 0.03 6.01-12.71 8.13-12.82 1.98 0.04 2.13 12.78 3.89 12.82 1.66-0.11 4-13.22 6.19-13.22 2.13-0.07 4.58 12.35 6.23 12.82 1.51 0.25 1.62-10.4 3.1-10.87 1.4-0.47 3.67 8.13 5.43 7.77 1.7-0.61 2.42-11.08 4.68-10.87 2.24 0.15 6.84 12.06 8.54 12.03 1.47-0.18-0.58-11.78 0.79-12.42 1.4-0.76 5.61 8.89 7.38 8.53 1.55-0.58 0.65-10.41 2.3-10.87 1.62-0.36 5.65 8.92 7.38 8.56 1.59-0.61 2.41-4.35 2.34-11.66 1.15 4.54 2.2 8.24 2.74 11.27 0.54 2.99 2.41 6.62 0.75 6.59-1.83-0.29-9.1-8.57-11.26-7.74-2.06 0.9-0.58 11.73-1.55 12.78-1.23 0.75-4.14-7.85-5.44-7.35-1.22 0.54-0.61 10.19-2.34 10.48-1.98 0.03-7.09-9.87-8.93-9.72-1.9 0.21-0.28 9.86-1.94 10.47-1.8 0.26-5.94-8.42-8.14-8.13-2.23 0.36-2.91 10.01-4.68 10.08-1.72-0.18-3.24-10.48-5.79-10.48-2.85 0-7.89 10.3-10.12 10.48-2.12 0.03-1.22-9.76-2.7-10.08-1.69-0.47-5.22 7.81-6.98 7.77-1.69-0.14-1.95-7.95-3.53-8.17-1.87-0.25-5.87 6.63-6.98 6.59-1.19-0.25 1.11-6.73 0.39-7.38-0.83-0.68-2.84 4.5-4.64 3.89-1.77-0.72-4.36-7.56-5.83-7.74-1.55-0.15-2.67 6.91-3.5 6.59-0.93-0.58-0.79-8.18-1.94-9.33-1.3-1.04-4.18 3.06-5.44 2.74-1.29-0.54-1.15-4.57-2.34-5.44-1.33-0.93-3.09-0.68-5.43 0.36-1.95-0.72-3.71-1.87-5.44-3.85-1.8-1.98-3.39-4.57-5.04-7.78z" fill-rule="evenodd" stroke="#000" stroke-miterlimit="10" stroke-width=".036" fill="#fff"/>
<path id="path49" d="m245.43 195.31c-0.83-2.09-0.61-3.2 0.79-3.49 1.41-0.29 6.27 2.77 7.38 1.94 0.87-1.08-2.98-6.55-1.54-7.38 1.4-0.82 8.74 3.6 10.08 2.74 1.18-0.97-3.03-7.31-2.34-8.17 0.68-0.9 5.76 3.71 6.62 2.73 0.76-1.11-1.94-7.66-1.58-8.96 0.28-1.37 2.88 2.59 3.88 1.19 0.94-1.44 1.59-4.68 1.95-9.72 0.65 3.35 1.04 6.62 1.19 10.11 0.1 3.42 0.57 8.68-0.4 10.48-1.15 1.69-4.57-1.4-5.83-0.4-1.3 0.83-0.15 5.22-1.55 5.84-1.55 0.5-6.41-3.57-7.38-2.34-0.97 1.22-0.5 4.46 1.55 9.72-2.52-0.36-4.9-0.83-6.99-1.55-2.23-0.76-4.03-1.62-5.83-2.74z" fill-rule="evenodd" stroke="#000" stroke-miterlimit="10" stroke-width=".036" fill="#fff"/>
<path id="path51" d="m263.68 201.94c-2.8 0.72-6.3 0.72-10.47 0-4.39-0.87-11.63-4.18-14.76-4.68-3.03-0.58-3.82-1.73-3.49 1.54 0.18 3.28 3.67 12.28 4.64 17.86 0.83 5.44-0.25 12.02 0.79 14.76 0.94 2.63 1.55 3.17 5.44 0.79 3.89-2.55 9.79-7.59 17.85-15.55-8.64 4.82-14.32 7.6-17.06 8.17-2.81 0.54-2.92-2.63 0.36-4.64 3.31-2.16 15.12-5.37 19.04-7.38 3.68-1.98 3.82-2.49 3.5-4.29-0.4-1.83-2.34-4.03-5.84-6.58z" fill-rule="evenodd" stroke="#000" stroke-miterlimit="10" stroke-width=".036" fill="#fff"/>
<path id="path53" d="m260.19 207.37c-0.65-0.54-5.98-1.08-9.32-1.19-3.53-0.21-9.29-0.18-10.48 0.4-1.11 0.54 2.12 2.59 3.89 3.1 1.66 0.39 4.5-0.33 6.19-0.36 1.62-0.15 1.77-0.18 3.49-0.4 1.62-0.36 6.66-1.15 6.23-1.55z" fill-rule="evenodd" stroke="#000" stroke-miterlimit="10" stroke-width=".036"/>
<path id="path55" d="m264.84 199.99c-0.8-1.94-0.22-4.93 1.58-6.62 1.69-1.77 5.65-3.71 8.53-3.49 2.74 0.14 5.98 2.77 7.78 4.68 1.65 1.9 3.2 4.1 2.3 6.58-1.04 2.34-5.83 6.7-8.13 7.38-2.42 0.47-3.86-2.44-5.84-3.88-2.16-1.48-5.4-2.85-6.22-4.65z" fill-rule="evenodd" stroke="#000" stroke-miterlimit="10" stroke-width=".036" fill="#fff"/>
<path id="path57" d="m283.09 190.27c-0.04-0.21 0.61-1.76 1.94-4.64 1.33-3.1 4.25-9.22 5.83-12.82 1.34-3.6 1.55-7.52 2.74-8.17 1.08-0.65 2.48 1.66 4.64 4.28 2.16 2.52 5.01 8 8.54 10.88 3.45 2.77 9.79 3.74 12.06 5.83 2.05 1.94 2.48 4.93 0.75 6.19-1.76 1.12-6.66-0.54-11.23 1.15-4.82 1.66-13.36 7.89-16.7 8.97-3.32 0.93-4.18-0.11-2.74-3.14 6.7-3.7 10.4-6.3 11.27-7.38 0.75-1.18-5.26 1.12-6.23 0.4-1.08-0.94 1.37-5.26 0.4-5.04-1.12 0.36-4.25 6.3-6.2 6.98-1.98 0.54-3.52-0.57-5.07-3.49z" fill-rule="evenodd" stroke="#000" stroke-miterlimit="10" stroke-width=".036" fill="#fff"/>
<path id="path59" d="m283.09 209.32c5.61-3.14 12.35-4.9 20.59-5.44 8.21-0.61 17.53 0.29 28.37 2.3-6.84 0.94-12.67 3.35-17.5 7.38-4.93 4.04-8.67 9.51-11.63 16.71-4.14-4.11-8.06-7.6-12.06-10.48-3.99-2.99-10.36-5.22-11.62-6.98-1.26-1.77-0.11-2.88 3.85-3.49z" fill-rule="evenodd" stroke="#000" stroke-miterlimit="10" stroke-width=".036" fill="#fff"/>
<path id="path61" d="m272.22 213.17c1.87 5.4 2.98 11.27 3.88 17.89 0.8 6.62 1.16 14.9 0.8 21.35-0.47 6.33-1.59 11.59-3.5 16.31-3.38-7.42-8.17-12.6-14.76-15.56-6.62-2.95-14.65-3.81-24.48-2.3 3.21-6.59 6.02-10.94 8.57-13.21 2.56-2.31 4.75-0.54 6.59-0.4 1.69 0.11 1.19 3.1 3.49 1.19 2.2-2.16 6.41-8.93 9.72-13.21 3.28-4.21 6.37-8.28 9.69-12.06z" fill-rule="evenodd" stroke="#000" stroke-miterlimit="10" stroke-width=".036" fill="#fff"/>
<path id="path63" d="m50.888 158.05c1.8 0.65 5.292 1.12 10.476 1.55 5.22 0.32 11.988 0.58 20.592 0.76 2.952 2.55 4.896 5.86 5.832 10.51 0.864 4.61 0.54 9.65-0.396 16.67-1.08 6.94-4.284 17.28-5.437 24.48-1.188 7.02-1.656 10.15-1.548 17.85 0 7.67 0.468 16.85 1.548 27.97-5.868-4.42-11.771-7.84-17.855-10.11-6.192-2.45-12.132-3.93-18.648-3.85-6.624 0-13.356 1.51-20.592 4.24-2.628-5.9-2.7-14.4-0.36-26.02 2.34-11.81 9.864-32.69 14.364-43.49 4.427-10.8 8.387-17.46 12.024-20.56z" fill-rule="evenodd" stroke="#000" stroke-miterlimit="10" stroke-width=".036" fill="#fff"/>
<path id="path65" d="m53.623 234.91c-5.688-13.82-9.36-25.02-10.872-34.16-1.548-9.18 0.036-15.12 1.548-20.2 1.404-5.15 4.104-10.26 6.984-10.47 2.844-0.36 6.156 2.48 10.08 8.53 4.572-4.47 8.46-6.48 11.664-6.19 3.132 0.18 7.02 2.95 7.38 7.77 0.288 4.86-1.008 11.67-5.436 20.95-4.535 9.26-11.556 20.24-21.348 33.77z" fill-rule="evenodd" stroke="#000" stroke-miterlimit="10" stroke-width=".036"/>
<path id="path67" d="m53.623 230.66c-4.319-13.1-7.128-23.36-8.568-31.46-1.44-8.06-1.26-12.24 0-16.7 1.116-4.61 4.32-10.52 6.984-10.48 2.628-0.04 5.437 3.46 8.568 10.48 5.976-5.55 10.224-8.21 13.176-8.14 2.736 0.11 3.853 4.43 3.888 8.53 0.072 3.89 0.396 7.13-3.491 15.16-4.069 8.1-10.872 18.65-20.557 32.61z" fill-rule="evenodd" stroke="#000" stroke-miterlimit="10" stroke-width=".036" fill="#fff"/>
<path id="path69" d="m50.491 149.88l1.188 5.83c2.735 1.33 5.111 1.98 6.983 1.95 1.944-0.11 4.608-1.41 4.248-2.34-0.576-1.01-5.292-2.63-7.344-3.5-2.087-0.93-3.779-1.58-5.075-1.94z" fill-rule="evenodd" stroke="#000" stroke-miterlimit="10" stroke-width=".036" fill="#fff"/>
<path id="path71" d="m80.012 149.48l1.151 7.38c-4.607 1.3-7.487 1.7-8.928 1.19-1.44-0.57 0.036-2.7 0.396-4.28 0.288-1.66 0.252-4.36 1.549-5.04 1.223-0.76 3.168-0.51 5.832 0.75z" fill-rule="evenodd" stroke="#000" stroke-miterlimit="10" stroke-width=".036" fill="#fff"/>
<path id="path73" d="m136.32 149.48c-1.12-0.25-5.91-0.5-14.91-1.04-9.03-0.54-21.743-1.22-38.663-2.05-0.756 0.57-0.972 1.29-0.936 2.16 0 0.83 0.54 1.69 1.332 2.73 4.752 0.58 11.376 1.16 20.267 1.34 8.86 0.18 19.55 0.18 32.51 0 0.83 1.15 1.87 1.8 2.74 1.94 0.86 0.11 2.41-0.11 2.7-1.19 0.18-1.22-0.8-5.25-1.55-5.83-0.79-0.69-2.09-0.04-3.49 1.94z" fill-rule="evenodd" stroke="#000" stroke-miterlimit="10" stroke-width=".036" fill="#fff"/>
<path id="path75" d="m95.419 153.66c0.864 1.58 1.152 2.99 0.864 4.21-0.36 1.23-1.152 2.05-2.664 2.88l1.225 1.87c2.231-0.93 3.743-2.16 4.68-3.52 0.896-1.41 1.076-3.1 0.686-4.94-1.587-0.14-3.171-0.32-4.791-0.5z" fill-rule="evenodd" stroke="#000" stroke-miterlimit="10" stroke-width=".036" fill="#fff"/>
<path id="path77" d="m5.419 132.64c1.512 2.05 4.212 3.92 7.812 5.61 3.672 1.62 8.748 3.1 13.968 4.29 5.112 1.11 10.476 1.94 16.488 2.48 2.7 0.83 4.428 1.62 5.041 2.38 0.576 0.68 0.18 1.47-1.332 2.08l-11.161-0.68c-0.468 1.8-0.396 3.2-0.18 4.5 0.108 1.12 0.54 2.05 1.728 2.95 1.296 0.87 3.06 1.66 5.688 2.38l-2.844 2.09c-3.024-0.62-5.256-1.91-6.552-3.89-1.404-2.05-1.872-4.68-1.548-8.03-3.672-1.51-6.912-2.09-10.26-1.58-3.42 0.39-6.588 2.3-9.504 4.35-2.952 2.02-5.616 4.65-7.992 7.89-0.288-5.22-0.432-9.9-0.288-14.44 0.072-4.54 0.432-8.53 0.936-12.38z" fill-rule="evenodd" stroke="#000" stroke-miterlimit="10" stroke-width=".036" fill="#fff"/>
<path id="path79" d="m42.751 163.09c-6.732 6.59-12.816 13.83-18.648 22.14-5.796 8.28-12.996 20.31-15.912 27.18-3.096 6.77-3.924 10.3-1.944 13.21 1.98 2.7 6.588 4 13.968 3.5 4.752-18.15 9.072-32.37 12.816-43.49 3.816-11.09 6.876-18.51 9.72-22.54z" fill-rule="evenodd" stroke="#000" stroke-miterlimit="10" stroke-width=".036" fill="#fff"/>
<path id="path81" d="m87.787 163.09l4.645-0.79c0.071 3.64 1.584 8.64 4.68 15.16 2.988 6.51 10.008 16.63 13.568 23.68 3.53 7.02 5.94 12.75 7.38 17.86-11.3 4.9-19.436 9.07-25.232 12.82-5.688 3.67-8.712 6.73-8.928 9.32-0.864-8.96-0.828-18.22 0.396-28.33 1.152-10.26 5.94-23.47 6.588-31.86 0.504-8.35-0.397-14.26-3.097-17.86z" fill-rule="evenodd" stroke="#000" stroke-miterlimit="10" stroke-width=".036" fill="#fff"/>
<path id="path83" d="m253.21 255.68c-0.79 1.37-0.54 4.83 0.75 10.52 1.3 5.76 3.64 13.24 7.02 23.29 8.57-2.2 17.14-5.47 26.39-10.12 9.15-4.61 19.51-9.97 28.33-17.46 8.68-7.67 16.53-16.85 23.69-27.97l-24.44-15.12c-3.28 3.13-5.87 6.16-7.78 8.93-1.98 2.84-3.27 5.25-3.89 7.77-1.26-2.12-4.1-4.93-8.53-8.56-4.5-3.68-10.58-8.07-18.25-13.18 2.59 7.34 3.71 15.91 3.49 25.99-0.25 10.12-1.98 21.31-5.04 34.17-3.71-6.02-7.2-10.59-10.87-13.58-3.71-3.09-7.2-4.6-10.87-4.68z" fill-rule="evenodd" stroke="#000" stroke-miterlimit="10" stroke-width=".036" fill="#fff"/>
<path id="path85" d="m103.3 232.39l24.48-14.36c9.69 4.75 19.37 8.1 29.88 10.47 10.48 2.2 18.83 4.07 32.26 3.14 13.25-1.05 28.76-3.93 46.98-8.93-1.44 4.17-2.09 7.31-1.55 9.68 0.47 2.27 1.84 3.75 4.25 4.29l-10.87 18.64c4.24-1.33 8.13-1.98 11.66-1.94 3.53-0.04 6.59 0.61 9.32 1.94-0.03 6.38 0.8 12.53 2.34 18.9 1.52 6.3 3.89 12.42 6.99 18.65l12.81-2.7c2.85 12.1 5.51 22.14 8.14 30.67 2.59 8.43 5 14.98 7.38 19.8-6.66 4.32-12.35 8.68-17.46 13.22-5.11 4.5-10.87 7.3-12.82 13.57-1.94 6.12-3.31 14.58 1.16 23.29 4.5 8.64 12.63 17.96 25.23 28.37l23.69-16.31c2.95 3.64 4.9 7.34 5.83 11.27 0.94 3.89 0.76 7.85-0.39 12.02-13.72 4.43-26.21 6.62-38.06 6.59-11.88-0.18-18.36-7.42-32.61-6.98-14.51 0.46-36.65 9.21-52.82 9.72-16.23 0.21-31.6-5.91-43.48-7.38-11.95-1.44-15.88 1.69-27.18-1.16-11.45-3.09-26.534-11.08-40.395-16.34-13.968-5.26-34.884-9.29-42.336-14.72-7.488-5.44-5.22-8.07-1.944-17.9 3.276-10.08 13.645-27.39 21.384-41.54 7.704-14.26 17.101-28.91 24.444-42.7 7.272-13.89 14.508-28.87 18.648-39.24 3.999-10.33 5.549-17.53 5.039-22.03z" fill-rule="evenodd" stroke="#000" stroke-miterlimit="10" stroke-width=".036" fill="#fff"/>
<path id="path87" d="m124.29 304.03c-7.09-7.77-11.88-16.96-14.36-27.94-2.56-11.19-4.39-30.06-0.79-37.69 3.56-7.59 17.1-8.57 22.14-7.38 4.93 1.15 7.34 5.91 7.38 14.4 7.59-6.41 13.93-9.47 19-9.72 4.97-0.25 10.95 1.44 11.27 8.53 0.22 7.13-2.27 23.22-9.68 33.41-7.53 9.98-19.05 18.72-34.96 26.39z" fill-rule="evenodd" stroke="#000" stroke-miterlimit="10" stroke-width=".036"/>
<path id="path89" d="m124.69 299.39c-5.44-5.11-8.93-12.13-10.91-21.75-2.02-9.64-3.24-28-0.76-35.35 2.52-7.41 11.45-10.08 15.52-8.53 4 1.55 6.62 7.45 8.17 17.86 8.32-7.13 15.05-11.27 20.2-12.42 5.07-1.23 10.51-0.62 10.47 5.43-0.14 6.09-4.17 21.35-11.26 30.67-7.2 9.18-17.54 17.07-31.43 24.09z" fill-rule="evenodd" stroke="#000" stroke-miterlimit="10" stroke-width=".036" fill="#fff"/>
<path id="path91" d="m176.31 239.59c-2.12 15.55-3.71 28.77-5.04 40.75-1.37 11.85-2.23 21.64-2.73 29.92 2.34-14.51 4.1-27.36 5.43-39.24 1.26-11.92 2.09-22.21 2.34-31.43z" fill-rule="evenodd" stroke="#000" stroke-miterlimit="10" stroke-width=".036"/>
<path id="path93" d="m180.96 239.2c-2.13 15.51-3.71 28.83-5.04 40.78-1.3 11.88-2.2 21.57-2.7 29.88 2.34-14.54 4.1-27.29 5.43-39.2 1.3-11.92 2.02-22.18 2.31-31.46z" fill-rule="evenodd" stroke="#000" stroke-miterlimit="10" stroke-width=".036"/>
<path id="path95" d="m170.12 324.62c-2.09 22.4-3.78 41.76-5.08 58.94-1.29 17.06-2.19 31.32-2.7 43.2 2.34-20.92 4.11-39.53 5.44-56.67 1.26-17.13 2.09-32.11 2.34-45.47z" fill-rule="evenodd" stroke="#000" stroke-miterlimit="10" stroke-width=".036"/>
<path id="path97" d="m165.84 321.92c-2.13 22.43-3.71 41.69-5.04 58.9-1.37 17.06-2.24 31.32-2.74 43.2 2.34-20.92 4.1-39.53 5.44-56.66 1.26-17.18 2.08-32.05 2.34-45.44z" fill-rule="evenodd" stroke="#000" stroke-miterlimit="10" stroke-width=".036"/>
<path id="path99" d="m84.295 304.43c16.385-0.11 31.465 0.72 45.825 2.34 14.37 1.62 27.29 4.03 39.6 7.38-24.48-2.81-43.48-4.97-57.85-6.63-14.291-1.69-23.434-2.62-27.575-3.09z" fill-rule="evenodd" stroke="#000" stroke-miterlimit="10" stroke-width=".036"/>
<path id="path101" d="m173.97 312.96c16.38-0.11 31.47 0.72 45.83 2.34s27.29 4.03 39.6 7.38c-24.48-2.81-43.49-5-57.85-6.59-14.29-1.65-23.44-2.7-27.58-3.13z" fill-rule="evenodd" stroke="#000" stroke-miterlimit="10" stroke-width=".036"/>
<path id="path103" d="m173.97 317.64c16.38-0.11 31.47 0.72 45.83 2.34s27.29 4.03 39.6 7.38c-24.48-2.81-43.49-4.97-57.85-6.62-14.29-1.7-23.44-2.63-27.58-3.1z" fill-rule="evenodd" stroke="#000" stroke-miterlimit="10" stroke-width=".036"/>
<path id="path105" d="m191.86 308.31c-6.01-7.56-9.68-13.93-10.87-19.4-1.19-5.51 0.76-11.63 3.49-13.21 2.6-1.62 6.56-0.51 12.03 3.49 2.88-3.38 5.72-4.72 8.53-4.28 2.77 0.43 7.49 3.6 8.17 6.98 0.65 3.35-0.83 8.32-4.28 12.82-3.67 4.46-9.18 8.82-17.07 13.6z" fill-rule="evenodd" stroke="#000" stroke-miterlimit="10" stroke-width=".036"/>
<path id="path107" d="m192.48 305.22c-4.94-6.23-7.89-11.38-8.86-15.84s0.58-9.43 2.84-10.73c2.16-1.4 5.3-0.32 9.83 2.85 2.31-2.74 4.72-3.86 6.95-3.5 2.23 0.26 6.01 3.03 6.62 5.69 0.51 2.7-0.64 6.73-3.45 10.44-2.99 3.64-7.49 7.2-13.93 11.09z" fill-rule="evenodd" stroke="#000" stroke-miterlimit="10" stroke-width=".036" fill="#fff"/>
<path id="path109" d="m100.21 376.28c-6.015-7.63-9.687-13.97-10.875-19.44-1.188-5.54 0.756-11.55 3.492-13.17 2.592-1.62 6.552-0.51 12.023 3.49 2.95-3.39 5.76-4.72 8.57-4.28 2.81 0.43 7.41 3.6 8.14 6.98 0.61 3.35-0.76 8.31-4.25 12.81-3.6 4.47-9.25 8.83-17.1 13.61z" fill-rule="evenodd" stroke="#000" stroke-miterlimit="10" stroke-width=".036"/>
<path id="path111" d="m137.11 351.41c-6.01-7.56-9.69-13.94-10.87-19.41-1.19-5.5 0.75-11.62 3.49-13.21 2.59-1.62 6.55-0.5 12.02 3.49 2.88-3.31 5.73-4.68 8.53-4.24 2.77 0.43 7.49 3.6 8.17 6.98 0.65 3.35-0.82 8.31-4.28 12.81-3.67 4.47-9.18 8.86-17.06 13.58z" fill-rule="evenodd" stroke="#000" stroke-miterlimit="10" stroke-width=".036"/>
<path id="path113" d="m137.72 348.31c-4.93-6.15-7.88-11.37-8.86-15.8-0.97-4.54 0.58-9.47 2.85-10.77 2.16-1.4 5.29-0.32 9.83 2.85 2.3-2.7 4.71-3.86 6.94-3.46 2.24 0.36 6.02 2.95 6.63 5.69 0.5 2.7-0.65 6.73-3.46 10.44-2.99 3.6-7.49 7.24-13.93 11.05z" fill-rule="evenodd" stroke="#000" stroke-miterlimit="10" stroke-width=".036" fill="#fff"/>
<path id="path115" d="m127.39 411.6c-6.01-7.56-9.69-13.93-10.87-19.4-1.19-5.51 0.75-11.63 3.49-13.22 2.59-1.62 6.55-0.5 12.02 3.5 2.95-3.32 5.76-4.68 8.57-4.25s7.42 3.6 8.14 6.98c0.61 3.35-0.76 8.32-4.25 12.82-3.6 4.46-9.25 8.85-17.1 13.57z" fill-rule="evenodd" stroke="#000" stroke-miterlimit="10" stroke-width=".036"/>
<path id="path117" d="m128.04 408.5c-4.94-6.15-7.89-11.37-8.86-15.8-0.97-4.54 0.58-9.47 2.84-10.77 2.06-1.4 5.37-0.32 9.8 2.85 2.34-2.74 4.6-3.85 6.94-3.49 2.31 0.36 6.05 2.91 6.66 5.72 0.51 2.74-0.61 6.66-3.49 10.41-2.99 3.63-7.49 7.2-13.89 11.08z" fill-rule="evenodd" stroke="#000" stroke-miterlimit="10" stroke-width=".036" fill="#fff"/>
<path id="path119" d="m76.663 343.67c-3.06-7.13-4.428-12.6-4.248-17.1 0.216-4.47 2.988-8.68 5.4-9.33 2.304-0.72 5.076 1.05 8.46 5.15 2.952-1.91 5.292-2.45 7.416-1.48 2.052 0.98 4.896 4.25 4.788 7.06-0.216 2.74-2.376 6.12-5.94 8.89-3.744 2.67-8.892 4.79-15.876 6.81z" fill-rule="evenodd" stroke="#000" stroke-miterlimit="10" stroke-width=".036"/>
<path id="path121" d="m54.127 389.1c-2.987-7.13-4.536-12.6-4.248-17.1 0.181-4.46 3.061-8.68 5.437-9.32 2.304-0.72 5.076 1.04 8.46 5.14 2.808-1.9 5.4-2.44 7.38-1.47 1.944 0.97 4.968 4.24 4.788 7.05-0.216 2.74-2.376 6.12-5.94 8.9-3.744 2.66-8.893 4.78-15.877 6.8z" fill-rule="evenodd" stroke="#000" stroke-miterlimit="10" stroke-width=".036"/>
<path id="path123" d="m185.24 230.27l21.38-1.95c1.59 7.1 1.84 12.57 0.76 17.1-1.12 4.36-3.53 7.46-7.38 9.29-4.54-3.27-8.03-6.77-10.48-10.87-2.52-4.18-3.85-8.57-4.28-13.57z" fill-rule="evenodd" stroke="#000" stroke-miterlimit="10" stroke-width=".036"/>
<path id="path125" d="m259.4 286.57c-3.06-3.06-5.9-4.61-8.93-5.04-3.1-0.43-7.42-0.18-8.93 2.7-1.65 2.85-2.12 8.75 0 13.97 2.09 5.04 6.41 10.44 12.82 16.34 2.66-0.43 5.07-2.77 7.38-7.02 2.23-4.32 4.35-10.47 6.23-18.61l-7.38 2.3c-0.4-1.54-0.79-3.09-1.19-4.64z" fill-rule="evenodd" stroke="#000" stroke-miterlimit="10" stroke-width=".036"/>
<path id="path127" d="m271.06 353.75c0.83-2.74 0.15-5.37-2.34-8.17-2.55-2.92-7.81-7.24-12.42-8.54-4.68-1.36-11.19-1.47-15.12 0.8-3.99 2.3-6.8 6.47-8.56 12.81-7.24-10.15-13.83-15.8-20.2-17.1-6.52-1.3-15.01 2.74-17.86 9.32-2.88 6.52-5.83 17.14 1.16 29.52 7.09 12.39 20.41 26.65 40.78 43.89 6.09-3.96 11.27-7.85 15.56-11.66 4.24-3.89 7.56-7.6 10.08-11.27-3.24-4.36-5.01-8.72-5.44-13.22-0.58-4.64 0.32-9.07 2.7-13.57 2.45-4.46 6.19-8.6 11.66-12.81z" fill-rule="evenodd" stroke="#000" stroke-miterlimit="10" stroke-width=".036"/>
<path id="path129" d="m331.65 375.13c-0.65-0.75-4.64 2.2-12.53 9.15-7.99 6.94-19.18 17.46-34.41 32.07-7.99-5.51-13.93-10.58-18.25-15.77-4.32-5.29-5.94-10.76-7.35-15.04-1.58-4.29-1.83-6.92-1.44-10.41 0.4-3.71 1.59-7.88 3.96-10.73 2.27-2.98 6.37-6.19 9.83-6.12 3.38 0.15 6.98 3.46 10.4 7.17 3.24 3.56 8.68 9.32 9.51 14.36 0.68 4.93-2.27 12.28-4.68 15.23-2.49 2.84-6.12 2.88-9.65 1.76-3.67-1.33-9.29-5.11-11.3-9.1-1.98-4.04-0.8-11.6-0.19-14.91 0.58-3.49 1.73-5.29 3.75-5.54 1.83-0.33 5.44 1.69 7.88 3.96 2.31 2.23 6.09 5.65 6.48 9.14 0.25 3.46-2.16 10.12-4.32 11.09-2.23 0.68-7.05-3.92-8.78-6.44-1.84-2.56-2.23-7.28-1.77-8.61 0.44-1.29 3.14-0.97 4.65 0.54 1.4 1.3 3.78 7.06 3.92 7.71-0.07 0.54-2.59-3.89-3.38-3.96-0.76-0.08-1.66 1.98-0.9 3.24 0.72 1 4.25 3.99 5.18 3.42 0.72-0.62 0.65-4.65-0.36-6.84-1.22-2.31-3.96-6.02-5.72-6.81-1.73-0.93-3.67 0.07-4.28 1.62-0.72 1.44-0.8 4.54 0.36 7.35 1.11 2.73 4.28 7.2 6.44 8.96 2.05 1.62 4.21 2.09 6.08 0.72 1.88-1.51 4.5-6.19 4.83-9.32 0.14-3.28-1.55-6.52-3.57-9.33-2.12-2.77-6.15-5.94-8.78-7.16-2.74-1.33-5.4-2.2-7.16-0.36-1.88 1.91-3.06 7.49-3.42 11.48-0.4 3.93-2.38 7.17 1.26 11.81 3.6 4.57 10.26 9.72 20.26 15.59 11.2-9.61 20.42-16.56 28.48-21.67 7.92-5.04 14.15-7.74 18.97-8.25z" fill-rule="evenodd" stroke="#000" stroke-miterlimit="10" stroke-width=".036" fill="#fff"/>
<path id="path131" d="m274.95 354.9c5.33-4.54 11.52-8.97 19.01-13.57 7.49-4.68 16.06-8.97 25.27-13.97 9.11-5.19 21.78-11.85 28.73-15.95 6.77-4.07 10.55-6.73 11.63-8.14 3.74 3.57 6.98 5.58 10.11 6.2 3.03 0.54 8.1-0.22 8.14-2.7-0.04-2.56-2.7-6.7-8.14-12.42 2.74-4.4 7.06-9 12.82-14.37 5.83-5.54 14.47-13.64 21.74-17.49 7.17-3.86 14.65-6.41 20.95-5.04 6.12 1.36 13.11 8.13 15.95 13.21 2.81 5.07 3.71 10.83 0.76 16.7-3.21 5.69-11.67 12.21-19.41 17.46-7.95 5.15-17.85 9.07-27.18 13.57-9.28 4.43-18.46 8.57-27.97 12.82 0.18-5.33-0.5-9.58-2.34-13.18-1.91-3.56-7.49-7.95-8.53-8.17-1.12-0.36 1.33 3.85 2.34 6.23 0.94 2.3 3.2 4.28 3.89 7.74 0.61 3.45 0.61 7.59 0 12.81-10.44 6.77-18.29 12.42-23.69 17.1s-5.62 8.03-8.57 10.88c-3.13 2.59-7.31 3.56-9.32 5.43-1.98 1.87 2.48 2.02-2.31 5.83-4.96 3.78-13.71 9.22-26.78 16.71 2.74-6.19 3.82-11.63 3.1-16.71-0.79-5.22-4.03-10.08-7.38-13.6-3.42-3.56-7.6-5.98-12.82-7.38z" fill-rule="evenodd" stroke="#000" stroke-miterlimit="10" stroke-width=".036" fill="#fff"/>
<path id="path133" d="m424.46 311.02c0.18 2.48 1.08 5.25 2.7 8.17 1.66 2.91 3.89 5.97 6.98 9.32-9.03 2.59-18.43 5.01-28.33 7.38-10.04 2.34-24.52 4.68-31.07 6.59-6.55 1.84-9.21 3.17-8.13 4.28l1.55-12.02c15.84-6.23 27.28-10.76 35.31-13.61 7.7-2.95 8.17-1.8 11.66-3.49 3.53-1.73 6.59-3.89 9.33-6.62z" fill-rule="evenodd" stroke="#000" stroke-miterlimit="10" stroke-width=".036" fill="#fff"/>
<path id="path135" d="m359.98 343.27c-3.74 0.94-8.06 3.78-12.81 8.53-4.83 4.79-10.08 11.2-15.91 19.8 6.76-4.86 12.24-9 17.1-12.42 4.68-3.49 8.42-6.12 11.23-8.17 0.11-2.55 0.25-5.15 0.39-7.74z" fill-rule="evenodd" stroke="#000" stroke-miterlimit="10" stroke-width=".036" fill="#fff"/>
<path id="path137" d="m358.83 398.39c-5.54 3.02-9.9 6.3-13.21 10.11-3.42 3.68-6.26 8-6.59 12.42-0.43 4.43 1.12 9.83 4.65 13.97 3.45 4.07 8.89 7.31 16.3 10.12-7.74-6.12-12.52-11.95-14.36-17.5-1.91-5.76 0.79-11.01 3.1-15.91 2.23-4.9 5.47-9.25 10.11-13.21z" fill-rule="evenodd" stroke="#000" stroke-miterlimit="10" stroke-width=".036" fill="#fff"/>
<path id="path139" d="m328.92 267.17c-0.58 1.76-3.17 3.99-7.78 6.98-4.75 2.88-11.34 6.37-20.16 10.48 1.76 2.55 3.35 4.5 5.04 5.83 1.58 1.26 3.13 1.91 4.64 1.94 7.89-5.54 11.88-8.13 12.42-7.77 0.36 0.36-9.39 8.28-9.68 9.72-0.29 1.15 7.2-2.56 7.74-1.95 0.4 0.69-4.39 2.67-5.04 5.8-0.72 3.1-0.14 9.32 1.19 12.46 1.26 2.98 3.45 4.75 6.59 5.43 0.39-7.34 2.34-13.17 6.22-17.89 3.86-4.72 11.31-8.53 16.67-10.08 5.26-1.66 9.87-1.48 14.4 0.4-3.53-3.24-7.27-5.01-11.66-5.44-4.54-0.47-12.57 3.17-14.37 2.7-1.69-0.61 4.86-5.08 4.25-6.19-0.83-1.15-7.56 0.11-8.53-0.79-0.94-1.05 2.99-3.1 2.74-5.04-0.4-1.95-1.91-4.14-4.68-6.59z" fill-rule="evenodd" stroke="#000" stroke-miterlimit="10" stroke-width=".036" fill="#fff"/>
<metadata><rdf:RDF><cc:Work><dc:format>image/svg+xml</dc:format><dc:type rdf:resource="http://purl.org/dc/dcmitype/StillImage"/><cc:license rdf:resource="http://creativecommons.org/licenses/publicdomain/"/><dc:publisher><cc:Agent rdf:about="http://openclipart.org/"><dc:title>Openclipart</dc:title></cc:Agent></dc:publisher><dc:title>Rabbit from Alice in Wonderland</dc:title><dc:date>2006-12-11T09:02:39</dc:date><dc:description>This image is one of a collection of 42 images by John Tenniel that were the illistrations for the inital release of Alice in Wonderland by Lewis Carrol.</dc:description><dc:source>http://openclipart.org/detail/1991/rabbit-from-alice-in-wonderland-by-gerald_g-1991</dc:source><dc:creator><cc:Agent><dc:title>Gerald_G</dc:title></cc:Agent></dc:creator><dc:subject><rdf:Bag><rdf:li>alice</rdf:li><rdf:li>cartoon</rdf:li><rdf:li>clip art</rdf:li><rdf:li>clipart</rdf:li><rdf:li>coloring book</rdf:li><rdf:li>externalsource</rdf:li><rdf:li>rabbit</rdf:li><rdf:li>remix</rdf:li></rdf:Bag></dc:subject></cc:Work><cc:License rdf:about="http://creativecommons.org/licenses/publicdomain/"><cc:permits rdf:resource="http://creativecommons.org/ns#Reproduction"/><cc:permits rdf:resource="http://creativecommons.org/ns#Distribution"/><cc:permits rdf:resource="http://creativecommons.org/ns#DerivativeWorks"/></cc:License></rdf:RDF></metadata></svg>
