<?xml version="1.0" encoding="utf-8"?>
<svg version="1.1" id="Layer_1" xmlns="http://www.w3.org/2000/svg" xmlns:xlink="http://www.w3.org/1999/xlink" x="0px" y="0px"
	 viewBox="0 0 2362 1657.2615" enable-background="new 0 0 2362 1657.2615" xml:space="preserve">
<g>
	<path d="M138.6133,1347.176c81.6472,46.9142,11.2194,156.2612-97.8076,281.4547
		c209.2339-176.2188,544.3384-180.0706,841.4753-125.5955c360.6208,66.1138,582.1684,123.8071,982.7531-75.3846l456.1602-269.0741
		c-134.0095,14.4846-219.2898-23.1597-241.5613-128.2091l-185.4355,133.7117c0,0,24.4474,83.8434,31.3645,112.1141
		c7.4812,30.5765,5.3605,50.5364-9.9045,54.4751c-22.4021,5.7803-39.0271-17.0027-49.9355-54.4751
		c-5.6025-19.2455-20.2218-77.5857-20.2218-77.5857l-17.7457,8.6665c0,0,18.0751,72.0159,23.5233,96.1567
		c6.0001,26.5863,2.611,45.8392-14.4441,47.0468c-19.6227,1.3893-31.0479-14.3438-37.5548-34.666
		c-6.0721-18.9641-22.698-76.3477-22.698-76.3477l-12.3807,7.0157c0,0,18.3752,52.5486,22.698,70.5699
		c8.2079,34.2184,2.7675,52.0165-10.111,52.8243c-20.2078,1.2678-33.8478-11.4797-42.7134-34.6659
		c-5.8147-15.2069-20.2218-61.9036-20.2218-61.9036l-155.5842,68.9193c6.6564,40.184,9.4918,78.8237-0.4127,103.5852
		c-5.5426,13.8564-25.3325,13.3873-33.4279,0.4127c-15.0632-24.1425-19.923-52.7847-21.0472-83.7761l-15.6823,3.7142
		c8.1361,44.524,9.6982,90.5854-6.603,101.9344c-15.7007,10.9308-33.3491-2.4875-41.6818-35.4913
		c-4.0048-15.8624-5.3831-32.7029-6.1903-49.9355l-12.7933,2.0635c6.9105,49.4668,7.6337,96.0399-13.4125,96.7758
		c-29.5073,1.0317-42.0765-39.1583-43.1261-82.7444c-117.8145,27.4966-247.493,28.548-385.4527,11.1427
		c-5.0347,15.8273-14.1141,25.389-27.2375,22.698c-12.9561-2.6569-17.9714-15.0515-18.9838-30.1265l-16.0949-3.3015
		c-4.0175,22.2094-14.5952,35.4197-31.3644,34.666c-13.5641-0.6096-20.1157-18.4889-21.4599-46.2213l-10.3173-1.6508
		c-0.9028,22.2976-10.7908,41.1643-30.9518,42.5071c-21.6696,1.4434-25.1017-29.6793-23.936-61.0781
		c-50.1642-18.895-107.4769-33.8785-169.6157-46.2213c-6.9865,43.7988-21.3268,72.2087-44.1579,70.9827
		c-21.7313-1.167-22.4423-35.71-12.3807-80.8872l-11.1426-3.3015c-4.183,41.8428-15.8513,68.6249-37.9675,73.0461
		c-27.9472,5.5869-24.6693-35.905-18.1584-80.8873l-8.2538-0.4127c-0.8582,33.7499-19.9123,74.5939-35.0787,76.7605
		c-24.5848,3.5121-32.2634-25.3669-20.6345-78.4113C331.8814,1290.3447,231.5509,1307.7999,138.6133,1347.176z"/>
	<path d="M102.7093,1293.1135c0,0,39.6183-94.506,112.2517-45.8086C214.961,1247.3049,175.7554,1325.7161,102.7093,1293.1135z"/>
	<path d="M73.9585,1115.9319c74.3994,9.5267,118.4659,42.5358,124.3574,105.0984
		C130.5202,1209.5576,89.3868,1174.2395,73.9585,1115.9319z"/>
	<path d="M235.1828,1084.5675c42.9946,57.3315,36.6351,103.6537-4.4021,142.2405
		C197.3998,1175.4973,199.6671,1128.1733,235.1828,1084.5675z"/>
	<path d="M458.0356,1363.2709c-4.0064-55.0912-4.7921-102.9312,6.3967-124.8387c9.4027-18.4105,32.4233-15.684,33.6342,3.7142
		C500.2244,1276.7155,481.3576,1319.1492,458.0356,1363.2709z"/>
	<path d="M518.5634,1373.4506c-4.0063-55.0912-4.7921-102.9312,6.3967-124.8387c9.4027-18.4105,32.4233-15.684,33.6343,3.7142
		C560.7523,1286.8951,541.8855,1329.3289,518.5634,1373.4506z"/>
	<path d="M584.869,1384.1805c-4.0064-55.0912-4.7921-102.9312,6.3967-124.8387c9.4028-18.4105,32.4234-15.684,33.6343,3.7141
		C627.0579,1297.6251,608.191,1340.0588,584.869,1384.1805z"/>
	<path d="M824.8849,1413.3331c-9.5618-52.0209-15.3013-97.4756-6.9371-119.496c7.0291-18.5052,29.2259-18.312,32.4025,0.0259
		C856.0114,1326.5428,842.4804,1368.9021,824.8849,1413.3331z"/>
	<path d="M885.963,1417.1849c-9.5618-52.0209-15.3013-97.4757-6.9371-119.4961c7.0291-18.5052,29.2259-18.3119,32.4025,0.026
		C917.0895,1330.3945,903.5585,1372.7539,885.963,1417.1849z"/>
	<path d="M953.9193,1421.3118c-9.5618-52.0209-15.3013-97.4756-6.937-119.496c7.0291-18.5052,29.2259-18.3119,32.4025,0.026
		C985.0458,1334.5215,971.5149,1376.8809,953.9193,1421.3118z"/>
	<path d="M1401.0688,1466.09c-21.7714-57.0347-37.8264-107.4192-32.9553-134.1671c4.0935-22.4781,29.3265-26.9178,36.781-6.7719
		C1418.179,1361.053,1411.713,1411.9694,1401.0688,1466.09z"/>
	<path d="M1467.9247,1457.6299c-21.7714-57.0347-37.8264-107.4193-32.9554-134.1672c4.0935-22.4781,29.3267-26.9178,36.7811-6.7717
		C1485.0348,1352.5929,1478.5688,1403.5092,1467.9247,1457.6299z"/>
	<path d="M1541.1771,1447.9316c-21.7714-57.0347-37.8264-107.4193-32.9553-134.1672c4.0935-22.4781,29.3267-26.9177,36.781-6.7717
		C1558.2874,1342.8947,1551.8214,1393.8109,1541.1771,1447.9316z"/>
	<path d="M1761.2836,1353.3995c-28.5839-52.4465-50.7538-99.1946-49.5364-125.7673c1.0232-22.3308,24.9069-29.9425,34.7749-11.3861
		C1764.1075,1249.3151,1764.5112,1299.53,1761.2836,1353.3995z"/>
	<path d="M1828.3457,1335.0348c-28.5839-52.4465-50.7538-99.1946-49.5363-125.7672c1.0231-22.3309,24.9069-29.9425,34.7748-11.3862
		C1831.1698,1230.9503,1831.5734,1281.1653,1828.3457,1335.0348z"/>
	<path d="M1903.249,1315.2257c-28.5839-52.4467-50.7538-99.1946-49.5364-125.7673c1.0232-22.3309,24.9069-29.9425,34.7748-11.3861
		C1906.073,1211.1412,1906.4767,1261.3562,1903.249,1315.2257z"/>
	<path d="M2084.0349,968.3264c41.4387-69.8286,97.9988-96.0361,167.9651-83.5698
		C2211.8601,962.4285,2154.2986,985.3401,2084.0349,968.3264z"/>
	<path d="M2082.3843,784.8856c36.845,87.3282,19.4695,149.2327-36.7295,192.9327
		C2018.3434,901.6891,2025.0573,835.726,2082.3843,784.8856z"/>
	<path d="M915.8469,524.4092c-55.577,15.9144-122.9664,3.9474-203.044-37.9675l139.2144,161.2244l245.1376-28.3381
		C1027.6339,611.9511,962.8323,591.9699,915.8469,524.4092z M781.0342,528.8113c47.1132,18.968,90.8583,26.4154,128.4845,12.9309
		c13.1895,26.5746,40.2075,49.9927,77.8606,70.9827l-122.4312,3.8519L781.0342,528.8113z"/>
	<path d="M752.6964,384.92c29.6655,24.5216,58.8912,45.6104,89.9665,52.5492c3.0264-20.9096-8.8876-44.2613-25.8619-67.131
		c29.894,17.7763,48.5505,47.6393,52.5491,93.268C804.5369,471.0501,770.5325,438.4839,752.6964,384.92z"/>
	<path d="M1088.0072,494.1453c-33.7776-17.0608-68.7776-16.8538-105.0297,1.0317c23.154,58.9856,67.1992,74.5479,124.2198,63.1416
		c-39.9775-16.4341-72.6213-33.5991-88.7284-52.4117C1028.3762,493.2217,1053.4059,490.5229,1088.0072,494.1453z"/>
	<path d="M909.5187,296.2603c8.4007,68.1935,38.132,115.8686,104.2042,105.236c42.1788-6.7876,44.9833-33.4279,28.063-47.253
		c-10.1627-8.3036-27.7407,0.4423-21.4599,26.4122c-20.1898-0.5106-35.6977-11.349-29.5074-40.0309
		c6.7188-31.1303,38.4852-38.0109,59.4274-26.4122c40.2373,22.2853,39.1187,74.652,5.5714,96.5695
		C993.9138,451.2255,900.0268,395.925,909.5187,296.2603z"/>
	<path d="M1524.8397,126.851c24.4584-36.3419,25.495-62.5048,5.7777-79.6492c1.6508,51.1736-24.0311,70.2331-61.0781,47.8721
		c22.8849-27.4399,16.8002-48.9628-9.0792-66.4431c12.4392,21.3873,4.2426,39.8923-20.2218,56.1259
		c-131.2355-43.9515-244.5189-30.1264-313.6445,54.4751c-20.084,1.1004-50.8983-9.4919-48.6975-42.0944
		c-14.5787,31.8245-7.9048,54.7913,28.8883,65.205c-18.7773,38.7929-58.6019,31.7771-82.1254-12.3807
		c-6.5797,27.1285,10.1855,50.3782,57.7766,68.5066l-11.5553,14.4442c-73.5443-46.557-134.3282-57.8202-184.8852-40.8563
		C717.6032,248.5577,554.728,427.9525,438.2264,639.825c-105.3456,191.5844-113.9025,421.7694,0.8254,508.847
		c207.1689,157.2395,482.4349,187.774,652.4633,0.4127c86.6038,92.7333,189.9487,138.5638,310.7557,136.6005
		c309.5044-5.0303,498.5298-163.0127,497.9792-503.4821C1899.8309,522.6212,1751.1315,286.9748,1524.8397,126.851z
		 M839.3613,1132.1644c-199.1545,10.6445-336.7552-102.3472-362.0668-293.8355c62.2062,25.1249,98.7523-18.2269,116.1034-112.8019
		c47.0281,50.9305,75.8306,9.2567,82.1254-146.7802c-25.7432,108.2311-54.1841,172.1998-90.3792,108.9503
		c-12.1054,85.4269-43.145,124.9561-106.4741,90.7918c37.6923-242.2491,305.666-574.0521,527.4181-536.0846
		c184.8434,31.6482,179.1075,275.2644,155.722,501.8314c0.1411,21.3972-18.1587,100.6964-53.5768,208.5167
		C1075.649,1051.9464,983.7481,1124.447,839.3613,1132.1644z M1719.7673,661.6975c1.6504,37.4173,8.5908,92.1443,25.5864,110.3258
		c11.8306,12.6559,37.6254,6.6926,46.4966-37.1421c6.8303,58.4855,22.9003,107.8348,64.3796,132.0609
		c-45.3959,190.1127-229.4557,289.571-435.2504,261.3705c-109.3314-14.9818-193.5613-77.978-264.6722-158.473
		c23.4299-137.1198,35.8018-274.8518,36.3168-413.2405c-1.6415-122.6892-25.5477-209.9748-71.8004-280.5289
		c-3.2108-4.8976-4.5936-10.8095-3.6965-16.5966c18.6013-119.9967,156.4197-193.9423,271.9375-149.1301
		c182.2712,70.7077,267.6913,145.6861,376.3735,337.8557c58.0974,102.7267,91.4882,207.7101,96.4969,314.2366
		c0.2784,5.9269-2.2393,11.6745-6.9001,15.3462c-33.5056,26.3939-49.1484-20.55-61.5339-80.8682
		c-32.6565,83.46-58.0515,47.3219-64.9302-70.9827c-47.2769,87.6163-68.7815,21.1848-82.5381-72.6335
		C1648.5493,705.9548,1668.7421,765.249,1719.7673,661.6975z"/>
	<path d="M1385.2126,361.259c-44.9719,62.0621-92.8424,105.8341-145.5419,119.1299c58.4832,9.7441,127.3223,10.8247,204.1439,5.2274
		c70.8005-56.6302,121.156-108.7859,135.0875-152.9706C1511.1255,364.784,1446.5399,374.4776,1385.2126,361.259z M1406.1228,408.856
		c-28.5106,29.6434-61.349,48.3788-98.2202,56.9511c33.2981-23.5293,60.3108-53.1714,83.3634-86.6649
		c41.2698,5.8418,80.3787,3.0686,117.204-8.8041C1482.1489,390.497,1447.869,403.1824,1406.1228,408.856z"/>
	<path d="M1165.6616,345.3018c48.9042-38.6865,91.2352-45.4866,129.3097-31.6397c-43.5602,1.6284-77.8729,8.0809-89.4161,26.4122
		c25.9073,14.6031,64.3384,12.1377,110.876-1.3755C1264.2375,388.181,1214.1697,385.7778,1165.6616,345.3018z"/>
	<path d="M1506.8191,191.2307c-5.1089,77.0538-49.5057,101.2824-108.6752,105.6487c45.4269-28.9274,75.5626-56.5279,77.8607-81.7127
		c-24.5746,1.5571-51.8671,20.3768-80.6119,48.4224C1409.2003,229.1071,1442.5256,203.2924,1506.8191,191.2307z"/>
</g>
</svg>
