<?xml version="1.0"?>
<svg xmlns:rdf="http://www.w3.org/1999/02/22-rdf-syntax-ns#" xmlns="http://www.w3.org/2000/svg" xmlns:cc="http://web.resource.org/cc/" xmlns:dc="http://purl.org/dc/elements/1.1/" xmlns:svg="http://www.w3.org/2000/svg" id="svg2" viewBox="0 0 282.19 269.94" version="1.0">
  <g id="layer1" transform="translate(-10.208 -9.0451)">
    <g id="g3153" stroke="#000" transform="translate(-23.089 -88.803)">
      <path id="path2160" stroke-linejoin="round" d="m97.143 295.22c3.297 0 1.625 4.44 0 5.48-4.405 2.8-9.602-1.24-10.953-5.48-2.415-7.59 3.716-14.89 10.953-16.43 10.617-2.25 20.277 6.21 21.907 16.43 2.17 13.62-8.71 25.7-21.907 27.38-16.613 2.12-31.14-11.2-32.857-27.38-2.08-19.6 13.691-36.59 32.857-38.33 22.587-2.06 42.047 16.18 43.807 38.33 2.04 25.57-18.68 47.51-43.807 49.29-28.556 2.01-52.972-21.18-54.762-49.29-2.008-31.54 23.664-58.44 54.762-60.24 34.527-2 63.907 26.16 65.717 60.24" transform="matrix(.99506 -.099285 .099285 .99506 35.212 15.395)" stroke-linecap="round" stroke-width="18" fill="none"/>
      <path id="path3140" d="m155.7 357.87c-31.73-7.12-35.61-19.98-35.61-19.98-22.804-5.94-30.892 2.2-30.532 2.56 0 0-21.213 15.15-40.406 15.15s-17.186 1.01-11.125 6.06c6.061 5.06 43.44 8.09 52.531 3.04 9.092-5.05 12.142 2.02 26.282 0 0.84-0.12 39.65-6.65 38.86-6.83z" stroke-width="1px" fill-rule="evenodd"/>
      <path id="path3133" d="m259.27 226.71c-15.31 13.76-28.48 38.06-32.34 48.72-17.62 7.52-8.96 7.98-7.5 26.57 0 8.39-4.49 36.93-34.49 54.22 9.66-1.64 46.91-8.12 65.06-26.14 11.4-16.28 17.37-25.39 23.47-63.72 3.68-11.1 16.49-6.12 28.08-17.17 0.74-21.11-13.82-14.82-5.48-25.35 8.3-10.48 22.22-5.31 18.23-12.56-5.62-10.21-7.59 3.51-20.12 7.24-8.92 2.65-16.96 2.34-15.97-0.33 3.97-10.68 24.39-12.44 12.23-20.88-2.51-1.74-2.09-0.59-5.83 6.73-4.69 9.18-23.51 21.02-25.34 22.67z" stroke-width=".98063px" fill-rule="evenodd"/>
      <path id="path3143" d="m223.71 264.51s11.73-77.98-23.04-109.58c-34.77-31.61-55.04-28.02-66.19-43.87-11.15-15.853-15.95-23.214 2.86 16.58 18.82 39.79 36.78 24.37 46.66 47.03s-21.52 21.52-28.42 8.29c-6.9-13.24-9.3-23.55-19.23-37.06-9.93-13.52-9.52-16.25-5.51 0.68s25.71 75.81 5.04 55.84c-8.91-8.6 6.94 35.5-2.51 24.74-9.46-10.75-11.08-43.15-29.23-56.07-20.077-14.29-18.612-12.67-9.013 0.41 10.003 13.62 5.593 41.07 13.383 57.85 7.78 16.78-18.848 11.88-23.313 3.31s-6.682-38.69-30.014-46.5c-23.331-7.82-20.67-5.26-6.892 10.09s17.719 38.97 16.605 60.27c-0.811 15.49 10.696 24.22 18.243 23.92 7.546-0.3-9.268 15.47-24.527 0.98-15.258-14.5-20.035-10.73-1.195 8.79 18.841 19.52 23.354 18.94 32.047 18.99s10.174-0.8 10.174-0.8-8.285-43.81 39.042-68.46c47.54-24.75 85.03 24.57 85.03 24.57z" stroke-width=".97514px" fill-rule="evenodd"/>
    </g>
  </g>
  <metadata>
    <rdf:RDF>
      <cc:Work>
        <dc:format>image/svg+xml</dc:format>
        <dc:type rdf:resource="http://purl.org/dc/dcmitype/StillImage"/>
        <cc:license rdf:resource="http://creativecommons.org/licenses/publicdomain/"/>
        <dc:publisher>
          <cc:Agent rdf:about="http://openclipart.org/">
            <dc:title>Openclipart</dc:title>
          </cc:Agent>
        </dc:publisher>
        <dc:title>Snail</dc:title>
        <dc:date>2007-08-19T17:10:10</dc:date>
        <dc:description>Snail tattoo test 1</dc:description>
        <dc:source>http://openclipart.org/detail/4839/snail-by-capi_x</dc:source>
        <dc:creator>
          <cc:Agent>
            <dc:title>capi_x</dc:title>
          </cc:Agent>
        </dc:creator>
        <dc:subject>
          <rdf:Bag>
            <rdf:li>animal</rdf:li>
            <rdf:li>clip art</rdf:li>
            <rdf:li>clipart</rdf:li>
            <rdf:li>image</rdf:li>
            <rdf:li>line art</rdf:li>
            <rdf:li>media</rdf:li>
            <rdf:li>nature</rdf:li>
            <rdf:li>public domain</rdf:li>
            <rdf:li>svg</rdf:li>
            <rdf:li>tattoo</rdf:li>
          </rdf:Bag>
        </dc:subject>
      </cc:Work>
      <cc:License rdf:about="http://creativecommons.org/licenses/publicdomain/">
        <cc:permits rdf:resource="http://creativecommons.org/ns#Reproduction"/>
        <cc:permits rdf:resource="http://creativecommons.org/ns#Distribution"/>
        <cc:permits rdf:resource="http://creativecommons.org/ns#DerivativeWorks"/>
      </cc:License>
    </rdf:RDF>
  </metadata>
</svg>
