<?xml version="1.0"?>
<svg xmlns:rdf="http://www.w3.org/1999/02/22-rdf-syntax-ns#" xmlns="http://www.w3.org/2000/svg" xmlns:cc="http://web.resource.org/cc/" xmlns:dc="http://purl.org/dc/elements/1.1/" xmlns:svg="http://www.w3.org/2000/svg" id="svg3948" viewBox="0 0 490.05 329.02" version="1.0">
  <g id="g3964" transform="matrix(.69988 0 0 .68703 0 54.67)">
    <path id="path3966" d="m216.4 67.777c18.72 0 33.89-15.174 33.89-33.888 0-18.717-15.17-33.889-33.89-33.889-18.71 0-33.89 15.172-33.89 33.889 0 18.714 15.18 33.888 33.89 33.888z"/>
  </g>
  <path id="path3970" d="m174.94 143.15v-14.67c0-31.265-46.96-30.921-46.96 0v59.84h0.09l-44.368 43.55c-4.185 4.11-4.695 4.29-12.913 4.29-0.007 0.01-27.126 0-27.126 0-27.296 0-43.663 24.08-43.663 44.49 0 20.42 16.367 46.22 46.084 46.22h48.32c11.406 0 25.226-4.28 36.636-14.81l141.47-138.46c3.02-2.63 4.7-3.45 9.9-3.45h34.93c16.81 0 40.61-18.71 40.61-45.68 0-26.688-23.97-44.483-41.99-44.542h-55.16c-11.4 0-26.07 4.577-34.82 13.165l-51.05 50.057h0.01z"/>
  <path id="path3972" d="m213.58 329.02h49.54c13.65 0 14.18-20.61 0-20.61h-25.39l48.3-47.41c10.7-10.52-4.44-25.73-15.82-14.56l-47.58 46.84v-24.68c0.08-13.39-21.1-13.91-21.13 0v48.34c0 7.21 4.93 12.08 12.08 12.08z"/>
  <path id="path3974" d="m264.16 102.98h49.62c12.08 0 20.2 13.25 20.2 21.15s-5.76 22.65-20.52 22.65h-29.84c-12.63 0-18.23 1.74-25.5 8.88l-142.55 139.93c-5.77 5.67-13.08 7.92-22.477 7.92h-47.009c-12.075 0-22.718-10.03-22.718-23.2s10.149-20.55 20.647-20.55h32.251c9.392 0 15.573-2.63 20.94-7.9l144.96-142.3c5.97-5.85 11.86-6.58 22-6.58z" fill="#fff"/>
  <path id="path640" d="m358.67 127.74l53.05-17.57c30.07-10.282 14.29-53.701-15.45-43.53l-56.49 19.686 0.03 0.086 18.86 41.318v0.01z"/>
  <g id="g641" transform="matrix(.69988 0 0 .68703 296.31 38.747)">
    <path id="path642" d="m216.4 67.777c18.72 0 33.89-15.174 33.89-33.888 0-18.717-15.17-33.889-33.89-33.889-18.71 0-33.89 15.172-33.89 33.889 0 18.714 15.18 33.888 33.89 33.888z"/>
  </g>
  <path id="path644" d="m415.25 104.6l61.41 2.02c17.81-0.54 17.77-16.97 0.35-17.487l-60.94-1.906v0.034l-0.82 17.339z"/>
  <path id="path645" d="m411.97 73.158l-0.03-60.317c-1.15-17.459-17.88-16.862-17.81 0.253l0.12 59.846h0.04l17.68 0.218z"/>
  <path id="path668" d="m356.32 85.531l-40.85-33.202-32.31-10.299c-21.98-11.295-25.45 12.44-7.89 17.288l30.32 9.471 31.82 33.711 18.91-16.968v-0.001z"/>
  <metadata>
    <rdf:RDF>
      <cc:Work>
        <dc:format>image/svg+xml</dc:format>
        <dc:type rdf:resource="http://purl.org/dc/dcmitype/StillImage"/>
        <cc:license rdf:resource="http://creativecommons.org/licenses/publicdomain/"/>
        <dc:publisher>
          <cc:Agent rdf:about="http://openclipart.org/">
            <dc:title>Openclipart</dc:title>
          </cc:Agent>
        </dc:publisher>
        <dc:title>Watch the Gap</dc:title>
        <dc:date>2007-10-24T21:45:36</dc:date>
        <dc:description>Just a funny sign describing my mood ...</dc:description>
        <dc:source>http://openclipart.org/detail/7293/watch-the-gap-by-vcollet</dc:source>
        <dc:creator>
          <cc:Agent>
            <dc:title>vcollet</dc:title>
          </cc:Agent>
        </dc:creator>
        <dc:subject>
          <rdf:Bag>
            <rdf:li>clip art</rdf:li>
            <rdf:li>clipart</rdf:li>
            <rdf:li>humor</rdf:li>
            <rdf:li>image</rdf:li>
            <rdf:li>media</rdf:li>
            <rdf:li>public domain</rdf:li>
            <rdf:li>sign</rdf:li>
            <rdf:li>svg</rdf:li>
          </rdf:Bag>
        </dc:subject>
      </cc:Work>
      <cc:License rdf:about="http://creativecommons.org/licenses/publicdomain/">
        <cc:permits rdf:resource="http://creativecommons.org/ns#Reproduction"/>
        <cc:permits rdf:resource="http://creativecommons.org/ns#Distribution"/>
        <cc:permits rdf:resource="http://creativecommons.org/ns#DerivativeWorks"/>
      </cc:License>
    </rdf:RDF>
  </metadata>
</svg>
