<?xml version="1.0"?>
<svg xmlns:rdf="http://www.w3.org/1999/02/22-rdf-syntax-ns#" xmlns="http://www.w3.org/2000/svg" xmlns:cc="http://web.resource.org/cc/" xmlns:xlink="http://www.w3.org/1999/xlink" xmlns:dc="http://purl.org/dc/elements/1.1/" xmlns:svg="http://www.w3.org/2000/svg" id="drinksthatplease_xA0_Image_1_" style="enable-background:new 0 0 161.357 331.168" xml:space="preserve" viewBox="0 0 161.357 331.168" version="1.1" y="0px" x="0px">
<g clip-rule="evenodd" fill-rule="evenodd">
	<path d="m98.827 1.544c0.294 1.094-0.658 0.941-0.48 1.92 0.156 0.244 0.552 0.248 0.48 0.72 1.927 0.011 4.095 0.418 5.52 1.2 1.022 0.561 1.6 1.82 2.641 2.4 0.804 0.448 2.331 0.678 2.64 1.92 1.379-0.099 2.053 0.507 2.88 0.96 2.918-0.685 5.719-2.078 8.88-1.68 1.052 0.132 1.881 1.066 3.12 0.72 3.306 2.854 7.309 5.012 9.84 8.64 1.245-0.125 1.362 0.878 2.4 0.96-0.088 0.408 0.188 0.453 0.479 0.48-0.104 2.184 1.622 2.583 3.12 4.08 0.664 0.664 0.96 1.654 1.44 1.92 1.723 0.955 4.202-0.138 5.04 1.68-0.071 0.489-0.48 0.639-0.72 0.96 4.991 1.249 9.303 3.177 11.76 6.96 0.347 3.24 0.174 5.305-2.641 5.76-0.163-0.957-0.606-1.633-0.479-2.88-0.87-1.529-2.246-2.554-3.84-3.36 0.333-1.773-1.809-1.071-1.92-2.4-1.264 0.067-1.423-0.254-2.4 0-0.313-1.635-2.226-2.308-1.92-3.84h-1.2c-0.592 0.955 1.242 1.229 0.721 2.88-1.683 0.214-2.614-1.592-4.08-1.92-1.045-0.233-2.084-0.087-3.12-0.72-0.486-0.297-0.826-1.249-1.44-1.92-0.582-0.636-1.361-0.967-1.68-1.44-0.488-0.727-0.302-2.542-1.92-2.4 0.577-1.458-1.328-0.432-0.96-1.68-1.265-0.255-1.478-1.563-2.4-2.16v-1.68c-1.413-1.227-2.832-2.448-4.32-3.6-1.39 0.29-2.968 0.392-4.079 0.96-0.695-0.826-2.376-0.665-3.12-1.44-1.693 1.72-4.53 2.512-6.721 1.44-0.912-0.447-1.73-0.722-2.64-1.44-1.046-0.826-1.742-2.729-3.6-2.88 0.042-0.843-0.811-0.79-0.96-1.44-0.816-0.144-1.574-0.346-1.921-0.96-1.693 0.206-2.599 0.171-3.6-0.72-3.788-0.356-6.793 2.389-9.84 1.2v-1.44c2.754-1.886 5.817-3.463 9.12-4.8-3.741-0.62-7.2 1.119-10.08 2.16-0.756 0.116-0.544-0.737-1.44-0.48-0.369-2.049 1.32-2.04 1.681-3.36 3.573-0.444 7.293-1.304 10.8-0.48 0.012 0.704 0.73 0.707 0.956 1.2z"/>
	<path d="m100.27 23.624c-0.338 1.182-1.834 1.206-3.119 1.44-1.099 0.858-2.919 2.153-4.561 1.68-0.661-1.177 0.738-1.515 2.16-2.16 1.815-0.825 4.154-2.39 5.52-0.96z"/>
	<path d="m102.67 32.984c-0.723 1.271-2.526 0.184-3.12 0-0.365-0.113-0.831 0.104-1.2 0-1.037-0.292-3.322-0.758-5.52-0.48-0.325-0.708-0.301-1.486 0.24-1.92 3.098 0.899 7.67 0.327 9.6 2.4z"/>
	<path d="m102.19 39.704c-1.29-0.17-2.051 0.189-2.881 0.479 0.434 0.607 1.876 0.205 2.4 0.72-0.871 2.378-4.178-0.09-6.72 0.24 0.041-0.681-0.812-0.469-0.48-1.44 1.439-0.16 2.343 0.217 3.601 0.24 0.577-0.144-0.715-0.371-0.24-1.2 1.265-0.151 4.549-1.542 4.319 0.961z"/>
	<path d="m155.47 50.984c-2.568 0.568-2.896-1.103-2.88-3.12-0.667-0.933-1.729-1.47-2.64-2.16 0.406-0.714 1.351-0.889 1.92-1.44-0.364-2.035-2.32-2.479-3.84-3.36 0.02-0.38-0.115-0.916 0.239-0.96 1.329-0.758 2.476 0.498 4.08 0.24 1.843 1.678 3.041 4 3.841 6.72-0.79 1.338-0.05 2.901-0.72 4.08z"/>
	<path d="m17.707 47.144c-0.13 0.91-1.493 0.587-2.16 0.96-3.483 2.037-5.205 5.835-6.72 9.84v1.68c-0.482 0.558-0.579 1.501-0.48 2.64 1.032-0.434 0.924-1.771 1.44-2.64 0.397-0.669 1.487-1.812 2.16-2.64 0.834-1.026 1.436-3.068 3.36-3.12-0.058 1.783-1.277 2.403-2.16 3.36v0.96c-0.836 0.244-0.99 1.213-1.44 1.92-0.767 1.204-1.646 2.453-2.4 4.08-0.294 0.634-0.202 1.627-0.96 1.92-0.084 0.956 0.299 2.379-0.48 2.64 0.534 0.346 0.697 1.063 1.44 1.2-0.364 1.236-0.185 3.016-1.44 3.36-0.624-1.376-0.835-3.165-1.92-4.08 0.409-0.871 0.449-2.111 0.96-2.88-1.245-5.805 1.177-11.883 3.36-15.84 0.914-0.287 1.242-1.159 1.68-1.92 1.444-0.667 3.915-3.498 5.76-1.44z"/>
	<path d="m120.67 52.424c1.498-0.297 2.007 0.394 3.12 0.48v1.44c-1.32-0.362-3.21-0.158-3.12-1.92z"/>
	<path d="m156.19 63.224c0.721 1.838 0.762 4.358 1.439 6.24-2.477 0.156-2.68-1.96-3.84-3.12-0.36-2.15 0.39-4.094 2.4-3.12z"/>
	<path d="m50.587 76.424c0.826 0.62-1.234 0.58 0 0z"/>
	<path d="m117.79 95.624c-0.438 1.106-1.806 0.293-2.64 0.24-2.293-0.146-5.066 0.09-6.96-0.48 0.694-1.789 3.457-0.952 6.239-0.72 1.49 0.124 3.37-0.35 3.36 0.96z"/>
	<path d="m123.31 99.224c-0.964 1.401-3.107 0.149-5.04 0-2.162-0.167-5.081-0.179-7.199 0-1.492 0.126-3.062 1.261-3.841-0.24 1.004-1.395 3.234-0.889 5.28-0.96 2.104-0.073 4.426-0.248 6.72 0 1.74 0.187 3.83 0.121 4.08 1.2z"/>
	<path d="m57.547 105.46c-1.397 0.442-2.055 1.625-4.08 1.44 0.006-0.565-0.413-0.707-0.24-1.44-1.068-0.132-2.772 0.372-3.12-0.48 0.468-1.533 3.214-0.786 5.04-0.96-2.787-1.743-6.926 0.309-10.08 0.48-1.741 0.655-3.922 3.173-6 1.92 0.769-1.392 2.209-2.111 4.08-2.4 0.029-0.691 1.316-0.124 1.2-0.96 3.237-0.683 6.582-1.258 10.8-0.96 0.657 1.27 2.431 1.41 2.4 3.36z"/>
	<path d="m81.787 102.34c-0.133 1.699-1.894 1.928-2.88 0.96-0.105-1.3 1.973-1.43 2.88-0.96z"/>
	<path d="m77.467 103.78c-0.143 1.697-1.848 1.832-3.84 1.68 0.062-0.703-0.542-0.737-0.48-1.44 1.194-0.34 3.527-1.66 4.32-0.24z"/>
	<path d="m74.587 106.42h3.36v1.44h-3.36v-1.44z"/>
	<path d="m54.187 117.7c-0.254 1.005-1.153 0.349-1.68 0.48-2.401 0.596-4.692 2.378-7.2 1.92 0.837-2.283 3.956-2.284 6.96-2.4 0.1-0.6 1.851-0.78 1.92 0z"/>
	<path d="m80.347 122.74c-0.637 2.112-3.725 0.639-5.28 0.24 0.596-1.89 3.493-0.08 5.28-0.24z"/>
	<path d="m151.87 144.82c-1.039 0.24-1.332-0.268-1.92-0.48 0.211-0.829 1.023-1.057 1.439-1.68-0.074-0.326-0.601-0.199-0.96-0.24v-2.88c1.026 0.226 0.649-0.951 1.44-0.96 0.81-2.311 1.899-4.341 2.88-6.48-0.236-2.796 0.789-4.331 0.479-7.2h1.681c1.493 5.168 0.724 12.61-1.681 16.08-1.768-0.248-1.855 1.184-2.159 2.4-0.808-0.167-0.787 0.493-1.2 0.72v0.72z"/>
	<path d="m126.19 130.66v1.2c-1.071 0.296-3.441 0.393-3.601-0.96 0.85-0.6 2.46-0.56 3.6-0.24z"/>
	<path d="m142.99 140.98c1.768-0.088 2.852 0.508 4.08 0.96-0.354 1.566-1.156 2.684-3.36 2.4-0.41-0.97-1.21-2.22-0.72-3.36z"/>
	<path d="m20.587 155.14h1.92c0.926 1.714 2.252 3.028 4.08 3.84 0.912-0.781-0.137-2.045 1.2-2.4 2.106 0.71 1.739 3.48 2.4 5.76 1.139 3.93 1.868 9.238 3.36 12.96 0.428 1.067 1.336 2.046 1.68 3.12 0.509 1.591 0.295 3.293 1.44 4.56 0.669 0.211 1.186 0.575 1.92 0.721 1.25 3.07 3.89 4.75 6.24 6.72-0.646 1.306 0.062 1.367 0 3.12-1.499 0.219-1.96-0.601-2.4-1.44-1.696-1.105-2.958-2.771-4.32-4.319-1.264-1.438-2.234-2.789-3.36-4.801-0.735-1.312-1.174-2.612-2.16-3.6-1.321-4.519-3.093-8.587-3.84-13.68 0.132-0.532-0.458-0.342-0.48-0.721 0.145-1.344-0.127-2.272-0.48-3.12-0.877 0.076-1.515 0.324-2.4 0-0.934-0.341-1.941-0.98-2.88-1.92-1.058-1.058-1.141-1.413-1.44-2.16-0.118-0.29-1.02-1.61-0.48-2.64z"/>
	<path d="m116.83 184.66c-0.346 1.974-2.388 2.252-2.88 4.08-2.196 0.524-2.923 2.518-4.8 3.359-0.478-0.003-0.306-0.654-0.96-0.479 0.346-1.054 1.144-1.194 2.159-1.92 0.242-0.173 0.37-0.703 0.721-0.96 0.23-0.17 0.763-0.039 0.96-0.24 0.22-0.224-0.03-0.515 0.239-0.72 0.547-0.417 1.179-0.952 1.921-1.44 1.18-0.78 0.88-1.78 2.64-1.68z"/>
	<path d="m44.347 216.58c-0.53 1.631-2.768 1.553-3.84 2.64 1.072 0.624 0.166 2.26-0.24 2.88-0.974 0.094-1.388-0.372-1.2-1.439-1.051 0.629-2.101 1.259-3.6 1.439-0.46 0.027 0.282 0.804 0 1.44-2.806 2.794-3.489 7.71-4.08 12.72-1.01 0.29-1.053-0.388-1.68-0.479-0.721-3.331 0.985-6.003 1.44-8.16 0.101-0.476-0.125-1.102 0-1.44 0.112-0.305 0.607-0.287 0.72-0.479 0.374-0.637 0.367-1.917 0.72-2.4 0.509-0.697 1.417-1.259 2.16-1.439 0.536-0.036-0.312-0.605 0-1.2 0.904-1.016 2.949-0.892 3.36-2.4 2.606 0.18 3.924-3.13 6.24-1.68z"/>
	<path d="m106.51 233.38h1.92c1.157 1.385 2.495 3.66 4.561 3.36 0.127 0.913 1.322 0.757 0.96 2.16 1.751 1.448 2.532 3.867 5.279 4.319 1.356 1.73 0.963 3.812 1.681 6.48 0.362 1.346 1.232 2.987 1.92 4.8 0.267 0.704 0.55 1.677 0.96 2.4 0.587 1.035 1.521 1.633 1.92 3.359 0.51 2.208 0.4 4.209 0.96 6.72 0.11 0.494 0.357 0.345 0.48 0.721 1.4 4.286 1.288 9.259 3.359 13.2v3.119c1.478 3.403 1.433 8.328 2.4 12.24 1.116 0.317 0.803-0.797 1.92-0.479 1.416 1.762-0.792 3.338-1.68 4.319-0.188 0.853-0.921 1.16-1.2 1.92-0.682 0.041-0.469-0.812-1.44-0.479-0.6-2.84-0.287-6.593-2.399-7.92 0.024-0.825 0.123-1.724-0.48-1.92 0.152-2.072-0.172-3.669-0.96-4.8 0.539-2.153-0.647-4.324-0.96-6.48-0.094-0.647 0.109-1.321 0-1.92-0.221-1.211-0.771-2.328-0.96-3.6-0.362-2.443-0.018-5.109-0.48-7.44-0.337-1.704-1.258-3.505-1.92-5.28-0.687-1.842-1.04-3.964-1.68-5.52-0.188-0.455-0.719-0.523-0.96-0.96-0.513-0.928-0.188-2.196-0.96-2.88v-1.681c-0.949-1.078-1.16-3.297-2.16-4.8-0.48-0.723-0.946-2.157-1.68-3.12-0.347-0.454-0.982-0.517-1.44-0.96-0.349-0.337-0.539-0.953-0.96-1.439-0.331-0.384-0.851-0.815-1.2-1.2-1.266-1.394-2.047-3.12-4.08-3.84-0.06-0.97-0.9-1.18-0.72-2.4z"/>
	<path d="m107.71 246.82c1.517 2.723 2.201 6.278 3.36 9.359 0.041 0.602-0.538 0.583-0.721 0.96 0.65 1.91 2.664 2.456 3.601 4.08-0.017 0.704-0.733 0.707-0.96 1.2-0.847-0.033-1.073-0.687-1.92-0.72-0.026-1.654-1.79-1.571-1.92-3.12-1.829-1.771-3.662-3.539-4.801-6 0.175-0.545 0.723-0.718 1.2-0.96-0.112-2.047-1.293-2.985-0.72-4.561 1.2 0.17 1.85-0.22 2.88-0.24z"/>
	<path d="m25.387 256.66c0.395 6.475-1.336 10.823-2.16 16.08-1.424 0.464-1.037-0.884-1.68-1.2 0.93-3.469 0.071-7.957 0.96-11.28 0.117-0.438 0.425-0.388 0.48-0.72 0.151-0.91-0.315-1.925 0.48-2.16v-0.72h1.92z"/>
	<path d="m93.547 273.22c0.273 1.77-1.192 2.892-2.399 2.4 0.425-1.104 0.405-1.014-0.48-1.68-0.485-1.533 1.741-2.372 1.68-0.721h1.199z"/>
	<path d="m15.787 75.704h-1.44c0.067-0.547-0.058-0.902-0.48-0.96 0.206-0.914 0.65-1.59 0.48-2.88-0.671-1.045-0.94-4.227-0.48-6.24 0.236-1.036 1.112-1.812 1.2-2.88 0.056-0.674-0.365-1.144-0.24-1.68 0.428-1.836 2.456-3.057 1.92-5.28 1.415-0.818 1.472-2.515 2.16-3.84 0.136-0.262 0.607-0.299 0.72-0.48 0.145-0.233-0.129-0.716 0-0.96 0.056-0.105 0.624-0.33 0.72-0.48 0.144-0.225 0.057-0.692 0.24-0.96 0.344-0.506 1.583-0.832 1.44-1.92 1.162-0.758 2.122-1.718 2.88-2.88 0.905-0.215 1.66-0.579 1.92-1.44 1.55-0.173 3.043-1.536 4.8-0.72 0.179 1.378-1.279 1.121-1.92 1.68 0.514 0.538 0.869 2.028-0.48 1.92 0.343 1.812-0.127 2.116-0.48 3.6-0.172 0.652 1.132-0.171 0.96 0.48-0.199 1.801-1.321 2.679-2.88 3.12 0.043 0.917 1.267 0.653 0.96 1.92 1.562-0.198 1.151-2.369 3.36-1.92-0.184 0.774-0.481 1.783-0.96 2.4-0.093 0.121-0.609-0.108-0.72 0-0.168 0.163-0.248 0.658-0.48 0.96-0.239 0.312-0.506 0.415-0.72 0.72-0.651 0.927-0.678 1.969-1.92 2.16 0.223 0.943-0.834 0.605-0.48 1.68-0.436 0.361-1.455 0.84-1.92 1.44-0.101 0.13 0.121 0.614 0 0.72-0.071 0.062-0.432-0.075-0.48 0-0.086 0.133 0.115 0.619 0 0.72-0.627 0.551-0.581 0.775-1.2 1.68-0.76 1.109-1.787 2.674-1.68 5.04 1.244-0.43 1.257-1.929 1.92-2.88 0.114-0.163 0.838-0.333 0.96-0.48 0.104-0.127-0.122-0.613 0-0.72 0.07-0.062 0.432 0.075 0.48 0 0.085-0.133-0.116-0.619 0-0.72 0.355-0.312 0.319-0.504 0.96-0.96v-1.92c1.399-1.161 1.792-3.327 3.6-4.08 1.542-2.858 4.554-4.246 6.48-6.72 0.947-0.413 2.157-0.563 2.16-1.92-0.819 0.638-2.501 1.542-3.6 0.48-0.907-0.348-0.46 0.659-1.2 0.48-0.679-0.602-0.642-1.918-1.92-1.92 2.557-4.355 7.335-7.662 14.4-6.72 0.116 0.916-0.068 1.532-0.48 1.92 0.875-0.156 1.278 0.162 1.68 0.48 0.118 0.757-0.432 0.847-0.24 1.68 0.938 0.845 1.771-0.459 2.88-0.24v-1.439c-0.03-0.53-1.018-0.102-1.44-0.24 0.398-2.078-0.891-2.47-1.44-3.6-0.057-2.312 0.203-3.938 0.96-6 0.021-0.059 0.446 0.057 0.48 0 0.364-0.616 0.394-2.267 0.48-2.4 0.238-0.371 1.168-0.645 1.44-0.96 1.093 0.655 0.434 2.282-0.48 2.88 0 1.76-0.831 2.689-0.96 4.32 1.473-1.583 4.208-3.131 3.6-6 0.504-1.576 2.214-1.946 2.88-3.36 0.226-1.105-1.3-0.46-1.68-0.96 0.095-4.226 4.611-4.029 6.48-6.48-0.066-0.494-0.895-0.226-0.96-0.72-4.915 2.357-10.038 6.622-11.76 12.24-0.193 0.629-0.799 1.854-0.48 3.36-0.681-0.041-0.468 0.812-1.44 0.48 0.088-0.408-0.188-0.453-0.48-0.48-0.132-0.532 0.458-0.341 0.48-0.72-0.156-0.244-0.552-0.249-0.48-0.72-1.013-0.373 0.052 1.333-0.96 0.96-1.138-0.382-0.621-2.419-1.68-2.88-0.53 0.03-0.102 1.018-0.24 1.44h-1.44c-0.062 0.703 0.543 0.737 0.48 1.44-7.53-0.81-9.786 3.654-14.16 6 0.223-3.107 3.906-4.943 6.48-6 0.221-0.579 1.218-0.381 1.44-0.96 2.124 0.364 2.784-0.735 4.8-0.48 0.021-1.367-1.818-1.041-2.64-0.96-0.529 0.052-0.333 0.356-0.72 0.48-1.129 0.362-1.294-0.033-2.16 0.48-0.509 0.302-0.452 0.181-1.2 0.48-0.356 0.143-0.28 0.208-0.96 0.48-1.209 0.484-4.075 2.21-4.08 3.84-0.827-0.187-1.146 0.133-0.96 0.96-2.826 1.521-5.515 3.82-9.84 3.12-2.682 1.078-3.965 3.554-6.96 4.32-0.005 0.565 0.414 0.707 0.24 1.44-0.672 0.127-1.248 0.352-1.92 0.48-0.04 1.561-1.351 1.85-0.96 3.84-1.401 2.759-2.116 6.205-2.88 9.6 0.66 2.3 2.103 3.817 1.92 6.96-0.132 0.532 0.458 0.342 0.48 0.72-0.014 1.907 0.242 4.082-0.72 5.04-1.798 0.077-1.552-2.759-1.2-4.08-0.671-0.369-0.423-1.657-1.44-1.68-0.339-1.202-0.08-2.482-0.48-3.84-0.388-1.317-1.655-2.497-1.92-3.84-0.707-3.581 0.732-5.993 1.92-9.36 0.828 0.027 0.613-0.987 1.44-0.96 0.228-2.333 2.29-2.83 2.4-5.28 0.776 0.296 0.183-0.777 0.96-0.48 0.689-3.15 3.131-4.549 5.04-6.48 1.41 0.05 2.486-0.234 3.12-0.96 2.255-0.423 4.264-0.523 6-0.96v-1.44c0.388-1.532 1.412-2.429 1.44-4.32 1.218-1.022 1.846-2.635 3.36-3.36 0.236-2.084 1.94-2.699 2.88-4.08 3.212-1.179 5.742-2.239 8.4-0.24 0.185 0.139 0.65 0.663 0.96 0.96 0.776 0.747 1.681 2.402 2.88 2.88-0.455 0.939 0.6 1.001 0.96 1.44 0.104 0.127-0.122 0.613 0 0.72 0.07 0.062 0.432-0.075 0.48 0 0.085 0.133-0.116 0.619 0 0.72 0.424 0.373 0.229 0.094 0.48 0.72 0.142 0.356 0.208 0.28 0.48 0.96 0.125 0.313 0.604 0.755 0.72 1.68-0.052-1.972 1.33-3.751 1.44-5.76 0.043-0.784-0.354-1.589-0.24-2.4 0.314-2.245 1.825-3.604 2.4-5.521 1.353-0.007 1.319-1.4 1.92-2.16 1.37-1.03 2.982-1.817 4.08-3.12 1.584 0.558 2.049-1.519 2.64-0.48 0.183-0.377 0.761-0.358 0.72-0.96 2.614 0.134 3.672-1.289 6-1.44 1.323-1.196 2.645-2.159 4.08-3.36 0.185-0.155 0.277-0.349 0.24-0.72 4.021-1.029 6.864-5.491 11.52-4.32v1.92c-2.565 0.314-4.083 1.678-6.24 2.4-0.378 1.099 0.996 0.444 0.96 1.2-0.075 2.565-2.554 2.727-3.12 4.8-1.364-0.149-1.979 1.19-2.88 1.92-0.128 0.104-0.613-0.122-0.72 0-0.373 0.424-0.094 0.229-0.72 0.48-0.95 0.38-2.629 1.377-3.84 1.92-0.897 0.402-2.742 0.161-2.4 1.68 3.23 0.11 5.164-3.155 8.64-3.6 1.559-1.401 3.654-2.266 5.04-3.84h1.2c0.363-0.493 0.661-0.648 1.44-0.96 0.232-0.093 0.098-0.412 0.24-0.48 0.322-0.155 0.855 0.104 1.2 0 0.26-0.079 2.664-1.33 3.36-1.44 2.39-0.38 5.122 0.28 7.92 0 0.357 0.442 0.758 0.842 1.2 1.2-1.612 1.405-4.568 0.481-6.961 0.72-1.876 0.188-4.18 0.834-5.279 1.92h-1.2c-2.374 2.106-5.839 3.121-8.4 5.04 1.241 0.515 2.85-0.665 3.36-1.68 1.322 0.363 1.275-0.645 2.4-0.48 0.793-1.127 2.839-1.001 3.36-2.4 1.498 0.218 1.713-0.847 3.36-0.48-0.099 1.059 1.341 0.579 1.44 1.44 0.289-0.271 0.435-0.685 1.2-0.48 1.322 0.745 3.191 0.646 5.04 0.96 0.508 0.086 0.338 0.386 0.72 0.48 1.552 0.381 3.603 0.104 4.801-0.48 2.147 0.972 6.116 0.124 7.92 1.44 0.244-0.156 0.248-0.552 0.72-0.48 0.025 1.023 1.226 0.253 1.68 0.48 0.371 0.186 0.571 1.251 1.2 1.44-0.661 2.051-3.938 2.153-6.96 2.4-2.266 0.185-5.108 0.228-6.96 0-2.041-0.251-4.069-1.856-5.52-0.48 0.822 1.097 3.652 0.188 3.6 2.16-1.469 0.432-3.658-0.068-4.8-0.72-0.76 0.44-1.325 1.075-1.681 1.92 2.562 0.799 6.471 0.25 8.4 1.68v0.96c-2.789 0.29-6.148-0.877-9.6-0.72 2.124 1.637 6.867 0.654 9.36 1.92-0.645 0.875-1.247 1.792-1.92 2.64-1.87-0.07-2.887 0.137-4.08 0.24 2.198 1.162 5.864 0.856 7.92 2.16 0.95 0.31 0.49-0.79 1.44-0.48 2.106 1.082 5.294 1.119 7.92 1.44 0.509 0.062 0.359 0.312 0.72 0.48 3.876-0.116 6.174 1.346 9.601 1.68 0.48-1.029-0.989-0.567-1.44-0.72-0.105-0.036 0.025-0.429-0.24-0.48-0.727-0.141-1.394 0.103-2.159 0-0.309-1.052-1.98-0.74-2.881-1.2-0.038-1.158 1.32-0.92 1.681-1.68 1.332-0.052 1.734 0.825 3.359 0.48 0.112-0.512-0.343-0.457-0.72-0.48 0.482-1.117 1.688-1.512 1.92-2.88 2.239 0.988 3.981-0.32 6.48 0.48 0.369-0.271 0.59-0.689 0.96-0.96 2.073 0.327 4.048 0.752 6.24 0.96-0.166 0.966 1.01 0.589 0.96 1.44 2.137 0.183 3.365 1.274 5.04 1.92 0.243-0.156 0.248-0.552 0.72-0.48-1.453-2.067-4.927-2.113-6.72-3.84 1.382-1.078 4.469-0.309 5.52 0.48 0.53-0.03 0.102-1.018 0.24-1.44 0.75-0.322 2.253-0.467 2.399 0.48 1.325-0.285 1.315 0.765 2.641 0.48 1.462 1.658 5.296 0.943 5.52 3.84-4.263-0.297-6.264-2.856-10.56-3.12 1.088 1.711 3.652 1.948 4.8 3.6h2.88c-0.03 0.431 0.294 0.506 0.24 0.96-0.204 0.516-0.884 0.557-1.68 0.48-0.204 1.083 0.405 1.354 0.96 1.68 0.289 1.17-0.954 0.806-0.96 1.68 0.469 1.211 2.312 1.048 2.159 2.88-1.628 0.912-1.757-1.548-3.84-0.96 0.897 1.103 2.408 1.592 3.601 2.4 1.531-0.62 3.983-2.366 6-0.96-0.496 1.984-4.265 0.696-4.561 2.88 0.859 0.765 2.139-0.091 2.4-0.72 5.407 1.472 7.326 6.433 10.319 10.32-0.175 0.545 0.433 1.872-0.479 1.68-0.179 0.979 0.773 0.827 0.479 1.92-0.41-0.011-0.621 0.178-0.72 0.48-1.261-0.5-2.204-1.316-2.64-2.64-2.229-1.851-2.776-5.384-4.8-7.44-2.207-0.179-3.139-2.227-5.04-1.92-2.59 0.418-2.026 4.136-2.88 6.96 0.155 0.244 0.552 0.248 0.479 0.72 1.041-0.159 1.6-0.8 2.64-0.96v-1.68c-0.579-0.38-1.34-0.579-1.92-0.96 0.97-1.293 1.9-1.462 3.601-0.72 0.894 0.39 1.723 1.259 2.399 1.44 0.64 0.17 0.719 0.645 1.2 1.2 0.304 0.351 0.344 0.566 0.72 1.2 0.302 0.507 0.939 0.342 0.721 1.44 1.27 1.21 2.168 2.792 2.88 4.56-1.083-0.043-1.003 1.077-1.92 1.2 0.055 0.425-0.242 1.202 0.479 0.96-0.499 0.46-0.787 1.133-1.92 0.96 0.539 0.661 1.021 1.38 1.92 1.68-0.33 1.029-1.617 1.103-1.68 2.4-1.326-0.162-1.469-0.853-2.4-1.92-0.733-0.84-1.307-1.718-2.16-2.64-0.831-0.899-1.825-2.085-2.64-3.36-0.037-0.597 0.377-0.743 0.48-1.2 0.04-0.84-0.845-0.756-1.2-1.2 0.079-0.561 0.288-0.991 0.479-1.44-0.65 0.31-1.332 0.587-2.399 0.48-0.191 0.689-0.817 0.943-0.721 1.92-1.976 1.409-4.006 3.3-6.72 4.08-1.123 0.323-2.526-0.165-3.359 0.96 0.384 0.896 1.412 1.148 2.399 1.44 0.495 0.945 1.267 1.613 2.16 2.16 0.324-1.276 0.247-2.953 1.44-3.36 1.167-0.368 0.903 0.696 1.68 0.72 0.315-0.084 0.377-0.422 0.72-0.48-0.434-0.605-1.241-0.838-1.68-1.44 4.555-2.552 6.511 2.353 9.12 5.28 0.556 0.624 1.327 0.918 1.92 1.44 0.622 0.547 0.861 1.816 1.92 1.44 0.371-0.639 0.085-0.61 0.96-0.96 0.146-0.059 0.199-0.469 0.24-0.48 4.453-1.17 6.616 1.464 9.359 3.36 0.031 0.431-0.293 0.506-0.239 0.96 1.447 2.312 4.926 2.594 4.079 7.2-0.574 0.426-0.772 1.072-1.199 1.92-0.359 0.714-1.985 3.4-2.16 4.56-0.267 1.764 0.269 3.863 0.479 5.76-0.07 0.809-1.063 0.696-1.199 1.44 0.357 1.003 1.255 1.464 1.92 2.16-0.647 2.713-0.648 6.072-0.96 9.12-1.872 0.352-2.271-0.769-4.08-0.48-1.918 1.589-1.745 7.249 1.439 7.2 2.014 1.863 1.061 6.857 0.721 9.84-0.628 0.092-0.671 0.77-1.681 0.48-0.244-1.356-0.775-2.425-0.96-3.84-3.123-0.484-4.587 0.692-4.56 3.36 1.125 0.165 1.077-0.843 2.399-0.48 0.316 0.564 0.669 1.091 0.48 2.16 0.03 0.53 1.018 0.102 1.439 0.24 1.033 3.956 0.071 8.03-0.479 11.76-0.653 0.147-0.94 0.66-0.96 1.44-1.26 0.5-2.253 1.267-2.88 2.4-1.37 0.31-2.538 0.822-3.12 1.92-1.581 0.381-1.771-0.63-2.641-0.96-0.08-2.321 1.351-3.13 0.961-5.76-2.266-1.254-2.256-4.785-5.521-5.04-0.798-1.654-0.129-3.316-0.24-5.52-0.678-1.704-1.804-3.271-2.16-5.04-0.092-0.458 0.111-0.986 0-1.44-0.158-0.651-0.644-1.255-0.72-1.92-0.042-0.37 0.291-0.822 0.24-1.2-0.365-2.698-1.85-5.152-1.92-8.16 0.425-0.055 1.202 0.242 0.96-0.48 0.322 0.158 0.447 0.513 0.479 0.96 0.422-0.132 0.521-1.937-0.479-1.44 0.062-0.737 0.521-1.079 0.72-1.68-0.205-0.995-0.616-1.784-1.2-2.4-0.121-2.872-0.522-4.209-0.479-6.96-0.802 0.001-0.039-1.562-0.96-1.44 0.092-0.627 0.77-0.67 0.479-1.68-1.258-0.298-0.946 0.974-1.439 1.44-2.298 0.015-3.091 3.646-5.76 0.96-1.016 0.825-2.332 1.349-3.601 1.92-3.501-1.459-5.296-4.624-9.12-5.76 0.297-0.776-0.776-0.183-0.479-0.96-2.325 0.005-3.008-1.632-5.521-1.44 0.154-0.874-1.143-0.297-1.2-0.96-2.672-0.208-4.211-1.549-6-2.64-0.565-0.005-0.706 0.414-1.439 0.24-4.004-1.436-10.205-0.675-12.72-3.6-1.807 0.59-2.733-0.451-4.32-0.72-0.474-0.558-0.474-0.642 0-1.2-0.89-0.17-1.03 0.41-1.92 0.24 0.275-0.755-0.377-0.583-0.48-0.96-2.64-0.16-4.001 1.022-6.72 1.68-0.271-0.289-0.685-0.435-0.48-1.2-1.725 0.667-1.559-1.298-3.36-0.48-0.888 0.168-0.599-0.841-0.96-1.2-0.761 0.383-1.143 1.516-2.16 0.96 0.131-0.349-0.28-1.241 0.24-1.2-2.077-0.236-1.991-3.028-0.48-3.84-1.331-0.367-1.979 2.016-3.6 2.16-0.065 1.215-0.705 1.855-1.92 1.92-0.327-1.447 0.474-1.766 0.48-2.88-1.03 0.73-1.133 2.388-2.88 2.4-0.33-0.759-0.052-0.802 0-1.68-0.101-0.539-1.273-0.007-1.44-0.48 0.519-1.082 0.996-2.204 1.92-2.88-0.103-0.537-1.183-0.097-1.68-0.24-0.438 0.602-0.857 1.223-1.68 1.44 0.088-0.408-0.187-0.453-0.48-0.48 1.063-1.049-0.678-1.554-1.2-2.4 0.133-1.307 0.699-2.181 1.2-3.12-0.255-0.465-1.382-0.058-1.44-0.72-0.435 0.605-0.512 1.568-1.44 1.68 0.362 0.758 1.213 1.027 1.2 2.16-1.132 0.361-1.243 1.115-0.96 2.4-1.771 0.948-2.484 2.956-3.84 4.32-1.446-0.326-1.766 0.474-2.88 0.48v1.92c-0.94 0.42-2.233 0.487-2.88 1.2 0.005 0.875 0.615 1.145 0.96 1.68-1.121 2.239-2.46 4.26-2.64 7.44 1.191-0.809 0.747-3.253 2.16-3.84 0.183-1.497 0.239-3.122 1.92-3.12 0.282 0.948-0.177 1.63-0.48 2.16-0.076 0.133 0.111 0.622 0 0.72-0.046 0.041-0.465-0.048-0.48 0-0.156 0.511 0.183 1.021 0 1.44-0.142 0.325-0.821 0.417-0.96 0.72-0.343 0.747-0.203 2.029-0.48 2.88-0.017 0.051-0.433-0.042-0.48 0-0.283 0.257-0.115 1.959-0.479 2.4 0.827 0.028 0.612-0.987 1.44-0.96-0.422-2.262 1.285-2.395 0.96-4.56 1.752-1.448 1.212-5.188 3.36-6.24 1.005 0.641 0.295 2.761-0.48 3.12 0.351 0.989-0.676 1.51-0.96 2.16-0.329 0.75-0.032 1.807-0.96 2.16v1.92c-1.242 0.199-0.46 2.42-1.44 2.88 0.484 0.794 0.835 0.229 1.44 0v-1.44c1.131-3.188 2.734-5.905 3.36-9.6 1.063-0.297 0.527-2.193 1.92-2.16 0.481 5.128-3.3 8.054-3.84 12.96 2.369-0.191 1.728-3.393 2.64-5.04 0.481 0.082 0.75-0.049 0.72-0.48 1.126 0.285 0.278 0.985 0 1.92-0.11 0.372 0.143 1.058 0 1.44-0.021 0.058-0.431-0.05-0.48 0-0.292 0.299 0.423 1.785-0.72 1.44 0.592 1.193-0.488 2.035-0.48 3.36 1.84 0.535 1.519-1.923 1.92-3.36 0.417-1.491 1.009-2.903 1.44-3.84 0.776-0.296 0.183 0.776 0.96 0.48 0.146 3.435-2.91 6.661-1.2 9.36 1.337-1.08 0.218-3.952 1.44-5.52h1.2c0.405 2.019-0.341 4.71-0.48 6.96 0.226 0.654 1.304 0.456 0.96 1.68-3.643 0.837-7.816 1.144-10.32 3.12-2.694-0.454-2.745 1.735-5.28 1.44 0.168-1.512 1.749-1.611 2.4-2.64-0.084-0.315-0.422-0.377-0.48-0.72-0.664 0.384-1.739 1.609-2.88 0.72-0.201-1.081 0.974-0.786 0.96-1.68-0.387-0.645-0.76-0.357-1.2 0-1.051 2.069-1.933 4.307-2.64 6.72-1.017 0.983-1.814 2.186-2.16 3.84-0.85 0.081-0.59 0.661-1.44 0.24-0.192 1.328-1.301 1.739-1.92 2.64 0.284 0.596 1.012 0.748 1.44 1.2-0.031 4.031 0.814 7.186 0.48 11.52-0.427 0.213-0.61 0.67-1.44 0.48-0.738 4.223-2.185 7.735-2.4 12.48 1.358 2.574 3.263 5.294 2.88 8.88-1.629 0.131-2.938 0.583-4.08 1.2-1.663 0.224-1.844-1.036-3.6-0.72-0.316 2.396 1.937 2.223 2.4 3.84 0.197 0.879-2.37 1.142-2.4 0.24-2.242 0.403-2.112-1.567-3.84-1.68-0.104-1.097-0.574-1.826-1.44-2.16-2.126-5.015-2.259-15.366 1.2-18.96-0.041-2.578-0.042-4.07-0.72-6.24-1.153-0.207-1.195-1.525-2.88-1.2-1.907-4.494-0.948-12.503-0.96-17.04-1.236-0.356-1.032 0.728-2.16 0.48-0.351-1.49-1.295-2.385-2.16-3.36 1.801-5 4.377-9.223 8.64-11.76 0.851-0.05 0.474 1.126 1.44 0.96 1.095-0.085 1.572-1.013 2.64-1.44 0.356-0.142 0.28-0.208 0.96-0.48 0.192-0.077 0.142-0.443 0.24-0.48 0.955-0.355 1.814-0.149 2.4-0.96v-1.44c0.681 0.041 0.468-0.812 1.44-0.48 0.315-0.745-0.065-0.685 0-1.68 0.943-0.177 1.075-1.165 2.16-1.2-0.859-1.135-3.028 0.025-3.6 0.72-0.597 0.037-0.743-0.377-1.2-0.48-0.879 0.881-2.062 1.458-2.16 3.12-0.866 0.574-2.002 0.878-2.4 1.92-0.847 0.067-1.85 0.51-2.4 0.96-0.459 0.376-0.688 0.084-1.44 0.48-0.548 0.289-1.551 0.878-2.4 1.44-0.346 0.229-0.431 0.727-0.72 0.96-0.142 0.115-0.583-0.12-0.72 0-1.451 1.278-1.948 3.43-3.6 4.56 1.186 1.194-0.536 1.894-0.48 3.36-0.787 0.39-0.917-0.054-1.92 0v-3.36c0.091-0.523-0.404-0.353-0.48-0.72-0.553-2.675-0.271-5.026 0.48-7.68 0.94-0.339 1.279-1.281 1.44-2.4 1.258-0.732 1.595-2.279 2.88-3.36 2.59-2.179 6.226-3.053 7.92-6.24-0.093-2.253 1.039-3.281 1.44-5.04-0.104-0.536-0.424-0.855-0.96-0.96 0.632-3.928 1.777-7.343 4.32-9.36-0.356-1.236 0.728-1.032 0.48-2.16 1.903-0.976 3.174-2.586 4.32-4.32-0.007-0.233-0.294-0.187-0.48-0.24-3.001 2.438-5.513 5.367-8.16 8.16v2.64c-1.897 2.591-2.629 6.34-3.365 10.084zm13.44-31.68c-1.537-0.277-0.527 0.733 0 0zm-13.68 22.8c0.131 0.349-0.28 1.241 0.24 1.2-0.182-1.271 1.395-2.058 0.24-2.88-0.175 0.545 0.432 1.872-0.48 1.68zm54-54.24c0.765-0.836 1.802-1.398 2.16-2.64-1.375-0.241-2.983 2.25-2.16 2.64zm-6.72 4.32c2.748-0.692 4.723-2.157 6.24-4.08-2.784 0.655-4.879 2.001-6.24 4.08zm-11.52 5.76c-2.054 0.506-3.653 1.467-3.6 4.08 2.94-2.741 5.994-5.366 9.84-7.2 0.03-1.33 1.027-1.693 1.44-2.64-3.047 1.433-6.626 2.333-7.68 5.76zm31.92-4.08c1.826-0.57 3.673 1.211 4.561 0-1.278-0.642-2.978-0.862-5.04-0.72-0.073 0.472 0.323 0.476 0.479 0.72zm-6.24-0.24c-0.359 0.041-0.886-0.085-0.96 0.24 0.359-0.041 0.886 0.085 0.96-0.24zm19.68 1.2c0.253-0.013 0.188-0.308-0.24-0.24h-0.72c-1.246-0.86-5.277-0.743-6.24 0.24 2.285 0.824 4.585 0.073 7.2 0zm-32.16 2.16c-1.683 0.298-2.875 1.24-3.84 1.68-1.024 0.467-1.287 0.621-1.92 0.96-0.637 0.342-1.852 0.264-1.92 1.2 3.31-0.69 5.551-2.449 8.16-3.84 1.167-0.112 1.891-0.669 2.4-1.44-1.25 0.19-2.274 0.606-2.88 1.44zm15.36 1.44c0.397 0.612 1.578-0.003 1.68-0.48-0.545 0.175-1.872-0.433-1.68 0.48zm-13.68 0.48c-1.054-0.607-1.369 0.863 0 0zm6.48 0.72c1.059 0.179 1.575-0.185 1.92-0.72-0.951-0.071-1.467 0.293-1.92 0.72zm-15.12 3.36c2.644-0.477 4.405-1.835 6.24-3.12-2.286 0.834-4.429 1.812-6.24 3.12zm-25.68-0.96c0.574-0.146 1.741 0.301 1.92-0.24-0.622-0.24-1.607-0.422-1.92 0.24zm23.76 2.4c0.661-0.379 1.513-0.567 1.92-1.2-0.762 0.278-1.953 0.127-1.92 1.2zm18.96-0.24c1.028 0.381 3.952 0.597 4.32-0.48-1.08-0.6-3.712-0.732-4.32 0.48zm6 0.24c1.514 0.541 5.27 0.942 6.48 0.24-2.528 0.461-5.512-2.139-6.48-0.24zm-53.28 0.96c0.178 0.978-0.773 0.826-0.48 1.92 0.293 0.027 0.568 0.072 0.48 0.48 1.375-1.505 3.544-2.215 6-2.64-1.482-1.987-4.147 0.942-6 0.24zm38.88-0.72c-0.349 0.131-1.24-0.28-1.2 0.24 0.349-0.131 1.241 0.28 1.2-0.24zm-6.72 2.64c-0.333 0.08-0.866-0.278-1.2-0.24-1.969 0.224-3.73 2.5-5.28 3.12 0.368 0.912-0.244 2.804 0.96 2.88 1.091-0.908 1.694-2.305 3.6-2.4 2.031-2.209 4.952-3.529 7.2-5.52-2.002 0.196-3.456 1.724-5.28 2.16zm8.64 0c2.983 0.137 3.89-0.867 6.96-0.24v-1.2c-2.821-0.021-5.698-0.099-6.96 1.44zm53.283-0.48c0.498-0.143 1.577 0.296 1.681-0.24-0.64-0.242-1.23-0.251-1.68 0.24zm-93.603 2.4v1.44c2.909-0.691 4.139-3.061 7.92-2.88-2.002-2.2-6.186 0.327-7.92 1.44zm38.88 0c0.532 0.178 0.989-0.884 0.48-0.96 0.297 0.776-0.776 0.183-0.48 0.96zm-43.68 1.44c0.327 1.446-0.474 1.766-0.48 2.88 2.946 0.386 3.021-2.099 2.88-4.8-1.773-0.333-1.072 1.808-2.4 1.92zm71.04 16.08h1.439c-0.027 0.828 0.987 0.612 0.96 1.44 0.297 0.777-0.776 0.184-0.479 0.96 0.739-0.179 0.292 0.828 1.2 0.48 0.679 0.04-0.2-1.479 0.479-1.44 1.488 0.468 2.233-0.89 3.36-0.48 0.878 0.319-0.067 0.272 0.96 0 0.582-0.154 1.128 0.119 1.68 0 0.692 1.403 2.182 2.292 3.84 1.44 0.768 0.513 1.385 1.176 2.16 1.68 3.998-1.599 5.275 4.517 9.6 3.36-0.508-1.495-3.203-2.073-2.159-4.32 1.529 0.23 2.021 1.498 3.12 2.16 4.118 0.279 6.52-1.16 8.64-2.88h0.72c1.425-2.415 4.244-3.436 5.28-6.24 1.48-0.519 2.618-1.381 3.36-2.64-2.011-0.47-3.43 1.458-5.28 1.92-0.271-0.37-0.689-0.59-0.96-0.96 1.243-0.837 2.525-1.634 3.84-2.4-4.492-0.702-6.724 2.034-10.561 1.2v-1.2c-1.713-0.127-3.168-0.512-4.56-0.96 0.369 1.168-0.88 0.72-1.2 1.2 2.47-0.072 2.628 1.84 1.92 3.84-1.063 0.776-3.246 0.434-3.84 1.68 2.165 0.96 5.239-0.516 6.96 0 0.45 0.457 0.026 0.603 0 1.2-2.048 0.146-4.498 1.792-6.479 0.48h-2.16c-0.94-2.5-6.304-0.577-6.24-4.08-1.8-0.44-4.371-0.108-5.04-1.68 0.241-0.319 0.228-0.893 0.72-0.96 3.603 1.471 8.836 0.294 12.721 0.72-2.067-1.4-4.574-1.14-6.48-2.4-1.298 0.503-3.249 0.632-4.32-0.24v-1.2c3.232 0.032 6.642 0.241 7.2-2.4-1.443 0.636-3.672 0.487-5.76 0.479-0.264-0.696-0.696-1.224-0.96-1.92-4.093-0.467-7.834-1.286-11.28-2.4-0.093 0.708-1.049 0.55-1.439 0.96-0.093-0.707-1.05-0.55-1.44-0.96-3.498-0.022-5.582-1.458-9.12-1.44-0.353 0.913 1.073 0.047 0.721 0.96 3.012-0.212 4.105 1.494 7.439 0.96-0.027 0.828 0.987 0.613 0.96 1.44-0.656 0.304-1.54 0.38-2.16 0.72 0.188 0.613 1.193 0.407 1.2 1.2 0.041 0.601-0.368 0.751-0.72 0.96-0.671-0.37-1.499-0.581-1.68-1.44-0.733 0.307-1.183 0.897-1.921 1.2 1.321 1.319 4.429 0.852 5.28 2.64-2.073 1.301-3.567-1.345-6.24-0.96-0.119 1.159 0.86 1.22 1.92 1.2 1.716 1.405 4.826 0.992 6.24 2.16 0.354 1.074-0.702 0.737-0.479 1.68 1.438 0.401 3.118 0.562 3.84 1.68-0.103 0.458-0.686 0.435-0.48 1.2 0.391 0.41 1.348 0.252 1.44 0.96 0.041 0.601-0.537 0.583-0.72 0.96-3.519-0.563-6.83-2.61-10.32-2.4 2.276 0.44 4.275 1.162 5.276 2.881zm39.363-17.04h0.96c-0.104-0.536-0.424-0.855-0.96-0.96v0.96zm-69.603 0c-1.539 2.462-4.472 3.528-6 6 1.626 0.234 2.549-2.009 4.56-2.16 0.185-0.854 1.176-0.904 1.68-1.44 1.211 0.171 1.342-0.738 2.64-0.48-0.353-0.913 1.073-0.047 0.72-0.96-1.041 0.16-1.6 0.801-2.64 0.96-0.238-0.562-1.293-0.307-0.96-1.44 0.454-0.106 1.446 0.327 1.2-0.48h-1.2zm62.643 0.48c0.114 0.028 0.086 0.396 0.48 0.48 1.638 0.349 1.35 0.16 2.16 0 0.86-0.17 1.973 0.13 2.88 0-0.093-0.707-1.05-0.55-1.44-0.96-1.202 0.782-3.613-0.463-6 0 0.29 1.022 1.24 0.314 1.92 0.48zm-66.003 0c-1.801 2.199-5.741 2.259-6.24 5.76-0.779 0.006-1.454 1.623-0.48 1.92 1.885-1.635 3.022-4.018 5.28-5.28 0.041-0.359-0.086-0.886 0.24-0.96 0.957-0.243 1.542-0.858 2.16-1.44h-0.96zm72.483 1.92c1.008 0.203 2.972-0.704 3.359-1.92h-1.439c0.46 1.747-1.59 0.972-1.92 1.92zm-7.68 1.92c0.28 1.653 3.222 0.597 3.841-0.24-0.96-1.293-2.18 0.25-3.84 0.24zm-7.2 0.24c0.24-0.001 0.285 0.194 0.479 0.24-0.001-0.241 0.194-0.285 0.24-0.479-0.241 0-0.285-0.195-0.48-0.24 0 0.24-0.2 0.285-0.24 0.479zm-54.483 1.2c-2.317 0.563-4.349 1.411-5.76 2.88-1.076-0.116-1.273 0.646-1.68 1.2 1.97-0.211 4.028-1.598 6.48-2.4 2.496-0.815 5.01-0.618 6.24-2.16-1.786 0.216-3.755 0.994-5.04-0.24 0.01 0.33-0.113 0.527-0.24 0.72zm57.123 0.72c0.965 0.084 1.756-0.004 1.92-0.72-1.094 0.294-0.941-0.658-1.92-0.479-0.17 0.737-0.17 0.46 0 1.199zm15.12-0.72c0.413 0.013 0.615-0.185 0.72-0.479-0.38 0.022-0.83-0.033-0.72 0.479zm-5.76 0.48c0.425-0.055 1.201 0.242 0.96-0.48h-0.96v0.48zm2.4 1.2c0.729-0.15 2.067 0.307 2.4-0.24-0.64-1.005-1.93-0.674-2.4 0.24zm-14.16 0h0.96v-0.72c-0.6-0.041-0.75 0.369-0.96 0.72zm-48.483 0.72c-0.887 0.153-2.391-0.311-2.88 0.24 0.452 0.672 2.747 0.797 2.88-0.24zm-7.92 3.6c1.055-0.945 3.496-0.504 4.32-1.68-1.854 0.146-3.457 0.543-4.32 1.68zm30.72-1.2c-0.359 0.041-0.886-0.086-0.96 0.24 0.359-0.041 0.886 0.086 0.96-0.24zm-6.24 0.48c-0.358 0.041-0.886-0.086-0.96 0.24 0.359-0.041 0.885 0.086 0.96-0.24zm7.68 0c-0.359 0.041-0.886-0.086-0.96 0.24 0.359-0.041 0.886 0.086 0.96-0.24zm-6.96 0.72c0.573-0.146 1.741 0.302 1.92-0.24-0.351-0.322-1.901-0.491-1.92 0.24zm-33.12 1.92c1.48 0.837 1.752-1.387 3.6-0.96-0.544-2.143-2.861 0.323-3.6 0.96zm7.92 0.96c2.121-0.679 4.621-0.979 5.52-2.88-1.994 0.806-5.111 0.489-5.52 2.88zm28.8-2.64c-0.349 0.131-1.24-0.28-1.2 0.24 0.348-0.131 1.24 0.28 1.2-0.24zm20.883 0.24c-0.191 1.521 2.371 1.018 2.88 0.48 0.849 0.877 2.375 0.346 3.12-0.24-1.69 0.179-4.38-0.354-6-0.24zm-16.563 1.2c-1.143-0.144-2.411-1.421-3.601-0.72 0.994 0.293 2.798 1.035 3.601 0.72zm-37.44 1.68c0.706-0.734 2.455-0.425 3.84-0.48-0.303-1.823-3.6-1.122-3.84 0.48zm31.2-1.68c-0.349 0.131-1.24-0.28-1.2 0.24 0.349-0.131 1.24 0.28 1.2-0.24zm-39.36 6.96c-1.62-0.805-3.383 0.644-5.04 1.2 0.798 0.722 2.264 0.776 3.84 0.72 0.563 1.197 1.669 1.851 2.64 2.64-0.604 0.601 0.275 0.942 0.24 1.68-0.629 1.45-2.743 1.417-3.36 2.88 0.747-0.377 4.498 0.181 4.8-1.44-1.381-0.498-0.178-1.477 0-2.4-3.127-3.365-0.379-8.229 1.2-11.52-2.843 0.677-2.796 4.244-4.32 6.24zm86.883-5.76c-0.597 1.002-1.397 1.802-2.399 2.4-0.064 1.215-0.705 1.855-1.92 1.92-2.278 3.482-6.804 4.716-11.28 6 1.058 0.752 2.376 1.19 3.6 1.2 3.012 0.025 5.836-2.132 7.681-3.36 0.188-0.931 0.627-1.613 1.439-1.92 0.579-1.661 0.96-3.521 2.88-3.84-0.24-1.28 1.053-1.028 0.721-2.4h-0.72zm-90.723 0.48c-0.616-0.063-1.062 0.046-1.68 0 0.296 0.776-0.777 0.184-0.48 0.96h5.28c-0.553-0.632-1.982-0.843-3.12-0.96zm35.28 0.48c1.726-0.354 2.99 1.33 3.84-0.24-0.848-0.347-3.334-0.527-3.84 0.24zm71.763 5.28c-0.024-1.375-1.243-3.527-2.64-4.32 0.77 1.548 1.52 3.12 2.64 4.32zm-86.883-2.88c0.165 1.125-0.842 1.078-0.48 2.4 1.587-0.013 1.976-1.224 3.36-1.44v-0.96c-1.397 0.119-0.733-0.33-0.48-0.96-1.182-0.063-1.069 1.171-2.4 0.96zm5.28-0.96c-0.18 1.02-1.9 0.5-2.16 1.44h1.2c0.18-1.02 1.9-0.5 2.16-1.44h-1.2zm16.8 0.48c0.425-0.055 1.202 0.242 0.96-0.48h-0.96v0.48zm-41.52 0.96h2.4c0.054-0.454-0.271-0.529-0.24-0.96-1.148-0.108-2.052 0.028-2.16 0.96zm34.8 0.48c2.722 0.479 5.259 1.141 6.72 2.88-2.484 1.547-5.276-1.664-7.92-0.72 3.011 1.207 5.408 3.148 6.96 5.76 0.544 0.916 0.255 2.23 1.68 2.4 1.304-2.008-1.38-2.939-1.68-4.8 2.507-0.027 3.729 1.23 5.28 2.16 0.447-0.352 0.637-0.963 1.439-0.96 2.486 1.114 5.949 1.251 5.76 5.04 0.879-0.001 0.353-1.408 1.44-1.2 2.348 1.492 3.111 4.569 6 5.52 0.452-0.588 0.906-1.174 0.96-2.16-0.795-0.485-0.835-1.725-1.44-2.4-4.271-0.928-6.991-3.408-9.84-5.76 0.679 0.038 0.56-0.721 1.2-0.72 4.712 1.848 7.756 5.364 14.4 5.28 2.155 2.004 4.48 3.839 7.199 5.28 0.682 0.041 0.469-0.812 1.44-0.48 0.892 0.868 1.4 2.119 3.36 1.92-0.609-0.956-1.598-1.828-1.44-2.88-1.481-0.438-3.118-0.722-2.88-2.88-1.912 0.275-3.495-1.408-5.28-1.92-3.636-1.044-7.227-0.574-9.12-3.12-0.757-0.118-0.847 0.432-1.68 0.24-3.912-0.808-6.707-2.733-9.12-5.04-1.206 0.214-1.924-0.204-2.399-0.48-0.808-0.467-1.238-0.219-2.4-0.48-0.089-0.02-0.11-0.397-0.48-0.48-0.96-0.215-0.834-0.385-1.439-0.48-1.05-0.165-2.247 0.273-3.36 0-0.392-0.096-0.193-0.419-0.72-0.48-0.874-0.101-1.712 0.074-2.64 0-0.005 0.32-0.005 0.64-0.005 0.96zm-46.56 1.92c1.313-0.207 2.745-0.295 2.64-1.92-1.292 0.228-2.288 0.752-2.64 1.92zm-31.44 3.6c-0.317-1.917 1.17-2.03 0.96-3.84-0.053-0.187-0.201-0.279-0.48-0.24-0.35 0.985-1.592 3.179-0.48 4.08zm96.72-3.12c-0.598-0.362-1.178-0.742-1.92-0.96 0.039 0.849 1.648 1.837 1.92 0.96zm33.603 2.4c0.92-0.557 2.858-2.259 1.92-3.12-0.65 1.035-1.91 1.456-1.92 3.12zm-67.203-1.92c-0.302 2.178-2.85 2.11-3.36 4.08 2.739-0.381 4.072-2.167 5.28-4.08-0.586-0.59-1.041 0.177-1.92 0zm-7.2 0.96c0.557-0.083 1.125-0.155 0.96-0.96h-0.96v0.96zm-18.96 0.48h2.4c-0.229-0.891-2.171-0.891-2.4 0zm36.96 1.2c-3.31 0.611-5.37 2.471-8.16 3.6 0.164 1.044-0.432 1.328-0.96 1.68-0.494-0.498-1.217 0-1.2 0.72 1.897 0.42 3.565-2.22 5.76-2.88 0.457-0.138 1.235 0.101 1.92 0 2.171-0.321 2.818-0.433 4.56 0.72 0.076-1.444-0.287-3.327 0.48-4.08-1.503 0.383-1.505-0.735-2.4-0.96v1.2zm-74.4 1.44c-0.138-0.422 0.29-1.41-0.24-1.44-0.409 0.387-0.22 1.237 0.24 1.44zm19.92 11.52c0.359 2.439-2.776 3.401-1.44 5.28 1.642-1.398 3.357-2.723 5.76-3.36 2.352-3.648 5.243-6.756 7.92-10.08 2.225-0.416 3.711-1.568 4.8-3.12-1.76 0.16-2.08-1.12-3.6-1.2-1.461 0.779-2.855 1.625-3.84 2.88 0.286 1.886-0.811 2.39-1.92 2.88h-0.72c-0.494-0.066-0.226-0.894-0.72-0.96-0.429 1.011-1.038 1.842-2.88 1.44-0.332 0.972 0.521 0.759 0.48 1.44-0.631 0.329-0.896 1.025-0.96 1.92-0.63 0.17-1.079 0.521-0.96 1.44 1.39 0.35 0.806-1.274 1.68-1.44 1.112-0.008 1.206-1.035 1.92-1.44 0.807-0.027 1.27-0.48 1.68 0.24-2.043 1.557-2.835 4.365-5.76 5.04-0.022-0.378-0.612-0.188-0.48-0.72 0.318-0.562 1.189-0.57 0.96-1.68-0.955 0.165-0.965 1.275-1.92 1.44zm98.643-9.36c-0.707-0.978-2.265-2.371-3.841-1.68 0.8 0.882 2.57 2.058 3.84 1.68zm25.92-0.72c0.58 1.234 0.62-0.826 0 0zm-102.24 0.24c-1.537-0.277-0.527 0.733 0 0zm87.123 4.56h0.479v-0.48h-0.479v0.48zm-6.72 0.48c0.426-0.055 1.202 0.242 0.961-0.48h-0.961v0.48zm-92.643 1.44c-1.375 1.185-1.672 3.448-3.36 4.32-0.237 0.963-0.468 1.932-1.2 2.4 0.227 0.624 0.438 1.41-0.24 1.68 1.134 0.014 1.707-0.533 2.16-1.2 2.959-0.801 7.059-0.461 8.64-2.64-0.167-0.474-1.339 0.059-1.44-0.48 0.368-1.408-0.873-1.207-1.2-1.92-0.155-1.755 1.512-1.688 2.16-2.64-1.867 0.136-3.139 2.137-5.28 1.2 0.143-1.057 1.76-0.64 1.92-1.68-1.143-0.103-1.34 0.74-2.16 0.96zm94.563 0c0.988 0.292 1.561 1 2.399 1.44 0.322-0.158 0.447-0.513 0.48-0.96-0.963-0.318-1.169-1.392-2.4-1.44 0.29 0.776-0.78 0.184-0.48 0.96zm6.72 4.08c1.684 1.196 2.755 3.005 5.04 3.6 0.072-1.23 0.415-1.682 0-2.16-0.359-0.415-0.223-1.088-0.24-1.68-2.998-0.361-3.756-2.964-5.76-4.32-0.38 2.34 2.31 2.651 0.96 4.56zm-2.4-1.68h0.48v-0.48h-0.48v0.48zm-43.203 2.4c0.053-1.092-1.107-0.972-1.68-1.44 0.246 0.794 0.665 1.415 1.68 1.44zm42.243 1.68c0.186 0.263-0.154 0.918 0.48 0.72-0.443-1.237-0.67-2.69-1.92-3.12-0.04 1.208 0.95 1.712 1.44 2.4zm-3.36 0.24c-0.055-0.425 0.241-1.202-0.48-0.96 0.03 0.447 0.15 0.802 0.48 0.96zm-107.04 8.16c1.258 0.467 2.241-1.228 1.92-3.12 0.507-0.213 0.709-0.73 1.44-0.72-0.157-2.557 2.481-2.318 3.36-3.84-4.391 0.409-5.196 4.404-6.72 7.68zm137.28-4.08c0.519-0.682 1.384-1.016 1.681-1.92-1.139-0.542-1.845-1.515-3.36-1.68 0.73 1.027 0.89 2.627 1.68 3.6zm-25.92-2.64h0.48v-0.48h-0.48v0.48zm-104.64 0.48v0.72c0.601 0.042 0.583-0.537 0.96-0.72-0.477-0.4-0.305 0.022-0.96 0zm-8.16 2.16c1.351 0.541 1.842-0.545 2.16-1.68-1.37-0.091-1.917 0.643-2.16 1.68zm102.24-0.72c0.065-0.327-0.148-0.937-0.24-0.48-0.07 0.327 0.15 0.937 0.24 0.48zm-94.563 3.12c1.463 0.023 2.077-0.804 2.64-1.68-1.59-0.15-2.238 0.642-2.64 1.68zm-15.6 2.88c-0.32 2.08-2.668 2.132-2.4 4.8 0.729-0.747 1.018-1.713 1.68-2.4 2.062-2.141 4.83-2.126 7.92-2.88 0.072-1.368 0.955-1.925 1.2-3.12-3.134-0.054-5.966 2.164-8.4 3.6zm121.2-0.48c1.844-0.448 0.441-2.649-0.48-3.12-0.3 1.497 0.39 2.006 0.48 3.12zm-91.443-1.92h0.48v-0.48h-0.48v0.48zm-2.88 7.2c0.827-0.453 1.061-1.499 0.96-2.88 0.502-0.232 1.293-1.409 0.72-1.92-0.774 1.386-1.476 2.844-1.68 4.8zm94.323-0.96c1.706-1.344 2.444 1.457 4.319 1.44-1.659-1.541-2.23-4.168-4.319-5.28v3.84zm-94.803-3.36v0.48c0.591 0.373 0.706-0.815 0.24-0.72-0.013 0.146-0.036 0.284-0.24 0.24zm-2.88 1.92c0.479 0.562 0.5 1.581 0.72 2.4-0.868 0.124-1.235 1.65-0.72 2.4 2.358-0.522 1.349-4.411 2.88-5.76-1.073-0.472-1.97 0.552-2.88 0.96zm4.8 2.4c0.847 1.039-0.753 2.036 0 2.88 0.181-1.344 1.454-2.859 0.72-4.32-0.32 0.4 0.088 1.527-0.72 1.44zm-29.76 2.4c1.368-0.392 1.44-2.08 2.4-2.88-1.596 0.164-2.182 1.338-2.4 2.88zm28.08-1.92c-0.655 1.218 0.838 0.893 0 0zm110.64 3.36c-0.913 0.192-0.306-1.135-0.48-1.68-0.33 0.01-0.526-0.113-0.72-0.24 0.29 0.794 0.19 3.264 1.2 1.92zm-110.88-0.24c-0.002-0.352 0.091-1.964-0.24-1.2 0.003 0.352-0.091 1.964 0.24 1.2zm-3.84 1.68c0.155-0.237 0.722-1.108 0.24-1.92-0.218 0.88-0.498 2.315-0.24 1.92zm11.52 0c1.084 0.527 1.755-1.387 0.72-1.44-0.304 0.416-0.811 0.629-0.72 1.44zm-2.88 0.96c0.733 0.173 0.875-0.246 1.44-0.24-0.175-0.545 0.432-1.872-0.48-1.68-0.043 0.917-1.267 0.653-0.96 1.92zm-1.44 0.48v-0.48c-0.443-0.797-1.17 0.72 0 0.48zm6.72 0.72c0.57-0.15 1.117-0.323 1.2-0.96-0.507-0.479-1.486-0.076-1.2 0.96zm3.6 0.72c-0.992 0.102-1.633 0.819-1.2 1.68 1.136 0.016 2.278 0.039 2.64-0.72-0.966 0.166-0.589-1.011-1.44-0.96zm-15.36 1.2c0.801 0.447 1.011-0.862 0.48-0.96-0.125 0.355-0.355 0.605-0.48 0.96zm11.28 0.96c1.042 0.002 1.638-0.442 1.68-1.44-1.316-0.172-2.193 0.465-1.68 1.44zm-2.4 0.476c0.786 0.05 0.947-1.126 0-0.96v0.96zm-2.88 0.96c0.613-0.107 1.104-0.337 1.44-0.72-0.631-0.24-1.566-0.38-1.44 0.72zm-23.04 8.64v2.88c-0.099 0.865 0.438 0.329 0.24-0.24v-1.68c0.268-0.623 1.519-1.507 0.72-2.4 0.003 0.81-0.608 1-0.96 1.44zm9.12 1.2c0.278-0.127 1.4-1.133 0.24-1.2 0.184 0.54-1.108 0.77-0.24 1.2zm-5.52 16.08c0.039-0.167-0.083-1.397-0.24-0.72-0.211 0.92 0.129 1.21 0.24 0.72zm0 5.28c0.104-0.534 0.552-1.301-0.24-1.44-0.33 0.31-0.418 1.44 0.24 1.44zm-4.8 8.64c0.359 0.041 0.886-0.086 0.96 0.24 0.225 0.923 0.663 2.22 0.96 3.36 0.123 0.469-0.48 1.959 0.72 1.68 0.153-1.915-0.54-5.059-0.24-7.92-0.632-0.775-1.415-0.469-2.16-0.72-0.067 1.18-0.282 1.67-0.24 3.36z"/>
	<path d="m71.707 166.18c-1.215-0.383-1.335-0.789-2.88-0.479 0.051-0.851-1.126-0.475-0.96-1.44-0.444 0.036-0.147 0.812-0.48 0.96-0.687-0.193-0.958-0.803-1.68-0.96 0.41 1.19 0.795 2.404 1.68 3.12 1.036 0.156 1.345-0.414 1.92-0.72 2.255 0.708 4.552 0.08 7.2 0.24 1.617 0.097 2.502 1.239 4.08 1.439 1.8 0.229 3.76-0.335 5.28-1.439 0.654-0.175 0.483 0.477 0.96 0.479 4.122-0.968 9.28 0.048 13.439-0.479 1.356-1.124 1.796-3.165 1.921-5.521h0.96c-1.373-3.908-5.21-5.35-5.761-10.08-0.895-1.745-2.088-3.191-2.88-5.04 1.068 0.188 1.44-0.319 2.4-0.24 0.833 0.767 1.512 1.688 1.92 2.88 2.324 0.876 3.593 2.807 4.8 4.8 0.457-0.103 0.604-0.517 1.2-0.48 2.099 1.422 3.397 3.643 4.8 5.76-0.359 0.681-1.687 0.393-2.16 0.96 0.187 1.014 0.916 1.484 2.16 1.44 0.588 2.571-0.658 4.999-0.96 7.44 1.013 0.372-0.053-1.333 0.96-0.96 0.19-0.851 0.08-1.995 0.48-2.641 0.034-0.056 0.459 0.059 0.479 0 0.261-0.733 0.191-1.926 0.48-2.64 0.083-0.206 0.438-0.146 0.479-0.48 0.545-4.307-3.634-5.251-4.08-8.4 3.266-0.226 2.774 3.306 4.8 4.32 0.943 0.223 0.605-0.834 1.681-0.48 0.512 3.392-1.66 4.1-1.44 7.2-1.163 0.188-0.694 1.463-0.96 2.16-0.559 1.47-1.462 2.911-2.16 4.319-0.696 1.406-0.994 3.21-2.399 3.84-1.693-0.703-0.243-1.651 0.239-2.64-0.534-1.226-2.056-1.464-2.64-2.64-2.312 0.247-3.814 1.305-4.8 2.88-1.584 0.176-2.085 1.436-2.88 2.399-1.405 0.035-2.146 0.735-2.88 1.44-1.35 0.011-2.298 0.422-3.12 0.96h-1.681c-0.531-0.132-0.341 0.458-0.72 0.48h-3.6c0.145-0.865-0.732-0.708-0.72-1.44h4.079c0.628-0.332 0.363-1.558 0.96-1.92 1.825-0.14 4.302-0.726 5.761-1.92-0.712-0.809-0.988-2.052-1.92-2.641-3.494 0.987-7.853 1.108-10.8 2.641-0.797-1.121-4.374-1.937-5.52-0.48-1.593 0.394-1.616-0.784-2.64-0.96-1.208-0.008-1.461 0.939-2.16 1.44 1.127 1.309 0.498 2.591-0.24 3.84-1.593-0.393-1.807 0.593-2.16 1.44h-1.92c-4.492 2.228-9.938 3.502-13.92 6.239 1.294 1.052-0.404 2.379 1.2 3.12 1.833-0.708 2.303-4.08 4.32-2.64 0.515-0.365 0.433-1.328 1.2-1.44 1.062 3.099 0.202 8.117 0.48 12 1.122 0.238 1.413 1.308 2.4 1.681 0.757-0.098 0.865-1.145 0.96-1.681 0.608-3.44-0.456-8.9 0-12.72 2.068-0.819 4.696-1.761 6.72-0.48 2.106-4.349 5.608 1.633 9.12 0.24 0.252-0.468 0.481-0.958 0.72-1.439 3.475-0.194 4.673 1.887 7.92 1.92-0.039 0.278 0.053 0.427 0.24 0.479 0.356 1.317-0.867 1.054-0.96 1.92 0.276 0.047 1.389-0.814 2.16 0-0.104 0.377-0.755 0.205-0.48 0.96 1.197 1.923 3.791 2.449 4.08 5.28 1.191 0.088 1.271 1.29 2.16 1.68 0.362 1.323-0.646 1.275-0.48 2.4 0.588-0.212 0.881-0.72 1.92-0.48 1.488 1.872 2.823 3.897 3.84 6.24 1.235-2.146 0.006-5.042-0.479-6.96-2.695-3.305-4.569-7.431-7.92-10.08h-1.44c-0.444-0.89-1.37-0.853-2.16-1.439-0.395-0.294-0.618-1.152-1.199-1.44-0.288-0.143-1.32-0.07-1.681-0.479-0.477-0.543-1.372-0.571-2.399-0.96-1.167-0.442-3.134-0.396-4.08-1.44-1.853 0.092-3.537 0.017-4.8-0.479 0.07-0.65-0.337-1.778 0.72-1.44-0.487-0.981-0.514-1.664 0.72-1.92-0.088 0.408 0.188 0.453 0.48 0.479 0.205 0.766-0.209 0.911-0.48 1.2 0.179 0.541 1.346 0.094 1.92 0.24 1.167 0.746 2.677 0.525 4.08 0.96 0.336 0.104 1.188 0.271 1.681 0.48 0.056 0.023-0.057 0.457 0 0.479 0.749 0.302 1.656 0.182 2.399 0.48 0.061 0.023-0.06 0.447 0 0.479 0.249 0.135 0.707-0.127 0.96 0 0.093 0.046 0.168 0.453 0.24 0.48 1.505 0.558 2.513 0.166 3.12 1.439 1.958-0.361 3.198-1.441 4.08-2.88 1.584-0.176 2.084-1.436 2.88-2.4 1.209-0.329 1.268 0.493 2.16 0.48 0.083 1.363-0.636 1.925-0.721 3.12-1.757 0.402-1.857 2.462-3.84 2.64-0.592 1.093 1.159 1.789 0 1.92 3.51 3.13 5.232 8.048 8.641 11.28-0.391 0.786 0.054 0.917 0 1.92 1.51-0.09 1.37-1.83 2.88-1.92 3.044-3.516 7.568-5.551 10.8-8.88 0.348-0.907-0.659-0.461-0.48-1.2 1.21-2.471 3.458-3.902 4.08-6.96-2.214 0.745-1.821 4.099-4.56 4.32-0.232-2.232 1.51-2.49 1.92-4.08-1.326-0.918-1.244 1.629-2.4 1.68-0.29 1.949-2.22 2.26-2.88 3.84-1.664 0.482-3.105 2.103-4.319 3.36 1.835-0.007 3.013-2.745 5.279-3.12 0.386 2.065-1.918 1.441-1.92 3.12-2.672 0.769-3.736 3.144-5.76 4.56-0.457-0.103-0.603-0.517-1.2-0.479 0.709-1.691 2.428-2.372 3.601-3.601-0.771-0.519-1.679 0.874-2.4 1.2-1.024-0.096-0.961-1.279-1.92-1.439 1.311-3.01 4.592-4.048 6.24-6.721-1.968 0.115-2.763 3.477-5.521 3.601-0.559-1.098 1.265-1.564-0.24-2.4 0.148-0.972 1.018-1.223 1.44-1.92-0.907-0.348-0.461 0.659-1.2 0.48-0.582-2.499 2.257-3.448 3.601-4.801-0.36-1.56 0.604-1.795 0.479-3.119 1.328-0.639 1.413-2.637 1.92-4.08 0.019-0.052 0.46 0.052 0.48 0 0.463-1.206 0.214-2.931 1.439-3.601-0.323-1.443 0.804-1.437 0.48-2.88 1.013 0.373-0.053-1.333 0.96-0.96v-1.92c0.588-0.212 0.881-0.719 1.92-0.48-0.358 1.158 0.599 1.001 1.439 0.96-0.07 0.653 0.094 1.317 0 1.92-0.085 0.551-0.353 0.205-0.479 0.48-0.21 0.456 0.158 1.086 0 1.44-0.149 0.333-0.809 0.56-0.96 0.96-0.146 0.383 0.131 0.938 0 1.439-0.028 0.108-0.859 1.252-0.96 1.681-0.127 0.539-0.412 0.524-0.48 0.72-0.119 0.341 0.158 0.878 0 1.2-0.086 0.176-0.874 0.574-0.96 0.72-0.104 0.177 0.077 0.528 0 0.72-0.07 0.177-0.454 0.162-0.479 0.24-0.113 0.339 0.16 0.884 0 1.2-0.127 0.25-0.828 0.501-0.96 0.72-0.319 0.529-0.074 1.152-0.48 1.44 0.24 0.673 1.11 0.024 1.2-0.24 2.277-4.202 4.26-8.7 6-13.44 0.121-1.096-0.417-1.36 0-2.16 0.426-0.055 1.202 0.242 0.96-0.48 0.616 0.424 0.94 1.139 2.16 0.96 0.033 0.447 0.158 0.802 0.479 0.96-0.4 2.274-0.721 3.47-1.439 5.76-0.212 0.675-0.891 1.184-1.2 1.92-0.292 0.693-0.229 1.645-0.479 2.16-0.099 0.202-0.831 0.39-0.961 0.72-0.224 0.572-0.026 1.679-0.96 1.681 0.283 2.042-1.443 2.076-1.439 3.84 1.418-0.661 2.181-1.979 2.399-3.84 2.627-2.813 3.574-7.306 5.04-11.28 0.994-0.114 1.761-0.001 1.681 0.96 0.549-0.411 0.693-1.227 1.92-0.96 0.324 3.719-2.51 6.265-2.88 10.08-1.249 1.871-2.525 3.715-3.36 6 1.662-0.178 1.787-1.893 2.16-3.36 0.728-0.472 1.178-1.222 1.2-2.399 0.81-1.03 1.559-2.122 1.68-3.84 1.464-0.696 0.697-3.624 2.4-4.081 0.778 0.022 0.774 0.826 1.199 1.2 0.716-0.564 0.831-1.729 0.721-3.12 0.776 0.297 0.184-0.776 0.96-0.48-0.299-2.157 1.299-4.098 0-5.76 0.439-0.84 0.901-1.659 2.399-1.44 0.338 2.467-0.8 5.186-0.96 7.92 1.223-1.035 0.785-2.983 1.2-4.56 0.061-0.23 0.436-0.403 0.48-0.72 0.311-2.208-0.327-4.796 0.72-6.72 0.425 0.055 1.202-0.242 0.96 0.48 1.175-1.146-0.056-4.695 0.72-6.24 0.557 0.077 0.922-0.039 1.2-0.24-0.007-1.25-0.55-2.5 0-3.6 1.37 0.25 1.096-1.144 1.92-1.44 0.896-0.257 0.685 0.596 1.44 0.48-0.517 3.091 1.276 6.735 0.72 9.84-0.529 0.133-1.324 0.353-1.44-0.48-0.606 0.833 0.213 3.093-0.96 3.36-0.819-0.141-1.135-0.785-0.96-1.92-0.96 1.531-0.216 3.163-0.479 5.28-0.286 2.294-1.106 4.055-1.2 6.96 0.004 0.716 0.624 0.816 0.72 1.44-0.159 1.36-0.433 2.607-1.2 3.36-0.083 0.964 1.128 0.633 1.44 1.2-1.752 6.327-5.583 10.577-8.64 15.6h-1.44c-1.33 1.39-2.402 3.038-3.84 4.32 0.886 2.802-2.28 3.424-3.12 5.28 2.861-1.38 5.083-5.477 8.4-7.2v-0.96c1.229-0.371 1.998-1.202 1.92-2.88 0.85-0.431 1.114-1.446 1.439-2.4 1.586-0.334 1.532-2.308 2.88-2.88 0.28-1.64 0.899-2.941 1.921-3.84 0.351-3.282 2.677-5.758 2.399-8.88 1.85-2.718 1.339-8.234 2.64-11.28-0.337-1.693-0.184-3.078 1.44-3.36 0.771-0.211 0.329 0.791 0.96 0.72 1.395-0.48 2.286 0.276 3.12 0 2.819-0.934 1.415-5.758 4.56-6.48 0.48 2.329-0.014 2.813 0 5.52-1.088 0.752-2.102 1.578-2.399 3.12-1.878 1.002-3.73 2.03-6 2.64 0.034 2.834-0.686 4.914-0.72 7.68 0.041 0.602-0.538 0.583-0.721 0.96 0.049 1.269-0.455 2.318-0.72 3.36-0.719 2.836-1.442 6.224-3.12 7.92-0.364 1.396-0.66 2.86-1.92 3.36-0.287 1.232-0.935 2.104-1.92 2.64 0.391 0.5-0.888 1.524-0.96 1.68-0.28 0.605-0.042 1.071-0.48 1.681-0.146 0.202-0.389-0.102-0.479 0.239-0.237 0.888-1.73 1.547-2.4 2.4-0.113 0.145 0.121 0.583 0 0.72-0.42 0.475-1.002 0.69-1.439 1.2-1.729 2.016-4.28 4.087-6.24 6-0.24 0.234-0.538 0.523-0.48 0.96-1.44-0.32-0.959 1.28-2.399 0.96-1.995 2.405-4.51 4.291-7.681 5.521-0.281 0.038-0.202 0.438-0.239 0.72-3.501 0.785-5.051 4.646-9.12 4.08-0.029-0.691 0.131-1.571-0.24-1.92-1.852 1.091 0.537 2.997 0.72 4.319-1.687 5.914-1.725 13.476-3.12 19.681 1.1 1.701 4.393 1.207 4.801 3.6-0.898 0.509-1.142 0.742-2.4 0.48-0.473-1.359-2.272-1.291-3.36-1.92-0.164-0.096-0.465-0.475-0.479-0.48-0.68-0.276-2.235-0.157-2.88-0.48-0.173-0.086 0.088-0.422-0.24-0.479-0.779-0.138-1.738 0.103-2.64 0v2.4c-1.899 0.421-2.271 2.37-5.04 1.92 5.522 3.678 13.052 5.348 16.319 11.279-2.761 1.357-3.637-2.992-6-3.6-0.942 0.338-0.283 2.276-0.479 3.36 0.923 1.077 2.889 1.111 2.88 3.119 1.161-0.12 1.777 0.303 1.68 1.44-0.408-0.088-0.452 0.188-0.479 0.48-1.026-0.654-2.217-1.144-3.601-1.44-0.744-1.815-3.095-2.024-3.84-3.84-1.133 0.173-1.42-0.5-1.92-0.96h-1.439c-0.602-0.595-0.296-1.382-0.48-1.92-3.196 2.336-6.498-1.69-9.84-0.721-1.21-1.189-3.754-1.046-3.84-3.359-0.929-0.38-2.723-0.379-3.36 0.24 0.135 1.545 0.116 2.43 0.72 3.84 1.364 0.476 2.652 1.027 4.08 1.439 1-0.12 1.4-0.839 2.4-0.96 1.413 1.526-1.047 3.604-2.88 2.641 0.332 1.428 2.143 1.377 2.64 2.64h1.2c1.93 2.23 5.533 2.786 7.2 5.28 0.244-0.156 0.248-0.552 0.72-0.48 3.49 1.149 5.567 3.713 8.4 5.521 1.387 0.107 1.196-1.364 2.399-1.44 0.897-0.017 1.375 0.386 1.681 0.96-0.292 1.587-1.743 3.166-3.36 2.64 0.067 0.548-0.058 0.902-0.48 0.961 2.908 1.492 4.457 4.343 6.24 6.96 1.482-1.441 2.412 1.281 2.88 2.399-1.618 0.031-0.126 1.859 0 2.4-0.433 1.805-3.291 1.308-3.359-0.48-0.891-0.51-1.785 0.391-2.4-0.479-0.097 1.145 1.25 0.988 0.48 2.16-3.837-0.564-4.478-4.324-7.2-6v-0.96c-0.408 0.088-0.453-0.188-0.48-0.48h-1.439c-2.704-3.056-7.762-3.759-9.84-7.44-2.909-0.451-4.218-2.502-6.96-3.119-0.325 0.234-0.311 0.809-0.72 0.96-0.179 0.739 0.828 0.292 0.48 1.199-0.499 0.251-1.277 0.855-1.92 0.24-0.208-0.929 0.586-0.854 0.72-1.439-1.036-1.524-3.178-1.942-4.08-3.601-1.206 0.255-2.05 0.785-2.16 1.681-0.308 2.515 5.088 2.953 5.52 5.279 1.309 0.451 2.36 1.16 2.88 2.4h0.96c1.636 1.963 3.804 3.396 5.76 5.04 0.047 0.687 0.03 1.31-0.72 1.2 0.616 1.063 1.679 1.681 3.12 1.92 1.588 1.588 2.865 3.439 4.56 5.04 1.147 1.083 3.365 1.793 3.84 3.84h1.92c0.715 2.781 4.996 4.827 3.36 7.68h-0.96c-0.972-0.549-1.452-1.588-3.36-1.2-0.546-0.922-1.755-1.358-2.399-2.16-0.253-0.312 0.244-1.477-0.721-0.96-0.249 1.911-0.497 3.823-1.199 5.28 0.498 0.702 1.981 0.419 2.399 1.2 0.348 0.907-0.659 0.461-0.479 1.2-4.706-0.654-9.903-0.817-13.2-2.88-0.014-0.894 1.068-0.692 1.92-0.721-1.974-0.985-3.887-2.032-6.72-2.159-0.384 0.944 1.037 0.083 0.96 0.72v1.2c-3.16-0.28-4.573-2.308-7.44-2.881-0.53 0.03-0.102 1.019-0.24 1.44h-1.44c-0.106-0.934-0.182-1.898-0.48-2.64-1.567-0.673-2.955-1.526-4.32-2.4-0.193 0.127-0.39 0.25-0.72 0.24 0.43 1.329 0.486 1.777 0 3.12 0.03 0.53 1.018 0.102 1.44 0.239 0.756 1.404 2.625 1.695 3.12 3.36 3.15 1.57 5.866 3.573 8.64 5.521 1.695-0.255 2.117 0.764 3.36 0.96 0.73 0.09 0.407-0.873 0.96-0.96h2.88c0.414 0.907 2.771 1.603 4.08 2.159 0.321 0.138 0.948 0.655 1.2 0.721 0.959 0.249 1.997-0.066 2.399 0.96 0.237 0.605-0.496 1.112 0 1.68 2.103 0.777 3.528 2.231 6 2.64 0.239 1.04-0.268 1.332-0.479 1.921-1.068-0.133-2.772 0.371-3.12-0.48-0.705 1.779 2.724 1.996 3.6 1.68 0.836-0.115 0.27 1.172 0.96 1.2 1.001 0.12 1.059-0.701 2.16-0.479 0.652 0.171-0.172-1.132 0.48-0.96 2.521 0.598 0.722 5.518 3.6 5.76 1.995 2.363 2.418 5.918 4.08 8.64 0.353 0.578 1.267 0.741 0.96 1.68 1.914 0.486 3.124 1.676 5.76 1.44 0.133 1.093-0.131 1.789-0.96 1.92 0.604 3.005-1.632 3.168-3.6 3.601-0.58 0.576 0.582 0.635 0.24 1.68-0.416 2.102-3.684 2.093-3.841-0.24-1.477-1.083-2.984-2.136-4.56-3.12-0.097-1.113-0.619-1.803-1.2-2.64-0.855-1.233-1.503-2.729-2.16-4.32-0.076-0.185-0.446-0.148-0.479-0.24-0.404-1.095-0.34-2.414-1.44-3.119 0.351-1.391-0.559-1.521-0.479-2.641-1.154-0.605-1.164-2.355-1.92-3.359v-1.44c-2.783-1.058-3.183-4.498-5.521-6-0.146-0.734-0.51-1.25-0.72-1.92-4.301 0.259-5.139 3.981-9.84 3.84-0.532-0.132-0.342 0.458-0.72 0.48-2.291-0.292-3.367 0.633-5.52 0.479-0.532-0.132-0.342 0.458-0.72 0.48-4.099 0.578-5.701-1.34-9.12-1.44 0.373-1.013-1.333 0.053-0.96-0.96-0.493-0.064-0.999 0.085-1.44 0-0.529-0.102-0.214-0.357-0.479-0.48-0.388-0.178-1.108 0.103-1.44 0-0.04-0.012 0.04-0.47 0-0.479-0.6-0.142-1.207 0.165-1.68 0-0.056-0.02 0.048-0.434 0-0.48-0.215-0.209-2.257-0.039-2.16-0.96-2.32-0.08-2.893-1.906-5.04-2.159-1.636-2.284-4.458-3.382-5.28-6.48-0.553-0.088-0.229-1.051-0.96-0.96-0.099-1.181-0.425-2.135-0.96-2.88v-3.601c0.438-0.461 0.879-2.038 0-2.399 0.287-2.913-0.595-6.995 0.48-9.12-0.156-0.244-0.552-0.248-0.48-0.72-1.328 1.392-2.923 2.517-4.32 3.84 0.425 0.88 0.535 1.636 0.96 2.399 0.856 1.537 2.702 2.396 2.88 4.561-0.532-0.132-0.342 0.458-0.72 0.479-0.855-0.185-0.991-1.089-1.68-1.439-0.763 0.367-1.056 0.084-1.92 0-0.727-1.594-0.383-4.257-2.16-4.8 0.772-1.068 1.139-2.541 2.64-2.88v-1.681c1.564-0.676 3.015-1.465 3.84-2.88 1.152 0.032 2.183-0.057 2.4-0.96 2.331-0.149 4.165-0.795 5.28-2.16-1.656-0.977-3.836 1.214-5.28-0.24 0.978-1.948 4.213-1.929 6.48-1.92-0.241-1.236-0.088-1.757 0.24-2.88-0.084-0.314-0.422-0.377-0.48-0.72-2.637-0.396-3.166 1.314-5.52 1.2-0.703 0.577-1.592 0.968-2.88 0.96-0.964 0.956-3.075 0.765-3.84 1.92h-1.68c-0.813 0.317-0.851 1.302-1.44 1.92-0.111 0.116-0.579-0.087-0.72 0-0.194 0.119-0.07 0.798-0.24 0.96-0.119 0.113-0.613-0.122-0.72 0-0.484 0.552-1.364 1.234-2.16 1.92-0.594 0.512-0.608 0.547-1.44 0.96-0.276 0.137-1.419 1.242-1.68 1.68-0.08 0.134 0.112 0.621 0 0.721-0.06 0.053-0.448-0.065-0.48 0-0.15 0.303 0.186 0.922 0 1.2-0.133 0.198-0.408-0.109-0.48 0.239-0.204 0.995 0.147 2.055 0 3.36-0.565-0.006-0.707 0.413-1.44 0.24-1.058-1.601-0.291-4.715 0-6.48h0.96c0.052-1.548 1.604-1.596 1.92-2.88 1.058-0.382 2.142-0.737 2.4-1.92 1.715-0.125 1.993-1.688 3.12-2.4-0.368-0.672-1.775-0.305-1.68-1.439 0.978-1.263 3.298-1.182 4.08-2.641 0.187-1.386-0.789-1.61-1.2-2.399 1.112-2.568 4.093-3.268 6.24-4.8h2.4c0.934-0.667 2.307-0.894 2.64-2.16 2.085-0.715 4.074-1.526 5.28-3.12 1.301-0.139 2.053-0.827 2.64-1.68-1.705 0.308-10.168 3.138-8.88-1.2 1.17 0.749 2.634 1.206 4.8 0.96 0.569-1.351 2.624-1.217 3.84-1.92 0.11-1.25 0.896-1.825 0.72-3.36-1.427-0.392-3.371 0.039-4.8 0.48-1.013 0.312-2.084 0.837-2.64 1.439-2.325 0.396-4.434 1.007-5.76 2.4-2.341 0.459-4.461 1.139-5.521 2.88-0.685-0.087-1.193 0.066-1.68 0.479-1.935 1.642-4.379 3.481-6.48 4.801-0.777 0.296-0.184-0.777-0.96-0.48 0.996-2.284 4.004-2.556 5.04-4.8 2.966-0.794 4.106-3.413 7.44-3.84 1.631-1.489 4.505-1.735 6.24-3.12 2.721-0.159 4.679-1.082 5.76-2.88-1.566-0.755-5.124 0.483-5.52-1.44 0.408 0.089 0.453-0.188 0.48-0.479 2.505 0.104 4.432-0.368 6.24-0.96 0.8-1.36 2.124-2.197 2.16-4.32-2.536 0.504-4.758 1.321-7.68 1.44-0.902 0.537-0.492 2.387-0.96 3.359-1.009 0.29-1.052-0.388-1.68-0.479-0.247-1.447 0.705-1.695 0.72-2.88-5.607 1.111-9.529 3.911-13.68 6.479-1.284 2.045-3.498 2.807-4.08 5.28-0.27 1.146-0.135 2.133-0.48 3.359-0.12 0.428-0.427 0.396-0.48 0.721-0.327 2.017-0.233 3.829-0.96 5.52-1.04 0.239-1.332-0.268-1.92-0.479 0.391-3.609 0.642-7.359 1.44-10.561 2.416-0.977 2.646-3.9 4.8-5.279 0.542-0.348 1.527-0.387 2.16-0.721 0.33-0.174 0.671-0.498 0.96-0.72 1.13-0.866 2.795-1.499 4.08-2.4 0.683-0.479 0.599-0.732 1.68-0.72-0.088-0.408 0.188-0.453 0.48-0.479 0.207-1.168-0.687-1.233-0.48-2.4 0.591-0.369 0.849-1.071 1.92-0.96-0.212-0.588-0.719-0.881-0.48-1.92 2.207-1.714 6.046-1.794 7.68-4.08-1.187-0.972-4.387 1.596-5.76-0.24 1.159-1.881 4.868-1.212 6.24-2.88-0.17-1.551 1.375-2.049 0.48-3.6-0.427-0.448-0.61 0.194-1.44 0-0.517-2.709 0.749-7.928-0.48-10.561-0.658 0.255-0.199 1.257-0.24 1.92-0.123 1.985-0.405 4.597-0.24 6.721-0.555 0.405-1.298 0.621-2.4 0.479 0.055-1.386-0.254-3.135 0.48-3.84-1.051-3.989-0.21-9.869-0.48-14.64 0.425-0.055 1.202 0.241 0.96-0.48 0.681-0.041 0.468 0.812 1.44 0.48 0.501 0.915-0.236 1.642 0.48 2.159 0.554-0.726 0.084-2.475 0.24-3.6 0.755 0.275 0.583-0.377 0.96-0.48-0.488-1.855 0.055-3.665 2.4-3.359-0.011-1.109 0.134-2.374-0.48-2.88-1.424 0.336-1.283 2.237-2.4 2.88-1.175 0.214-1.164-0.756-1.68-1.2 0.409-1.911 1.626-3.014 2.88-4.08-0.558-0.95-1.387-1.843-0.72-3.36-1.205-1.034-2.56-1.919-3.6-3.119-0.132-0.532 0.458-0.342 0.48-0.721-0.347-0.853-1.818-0.582-1.92-1.68-0.228-0.867 0.945-0.335 1.44-0.48-0.804-1.836-3.776-1.504-3.84-4.079 0.279 0.039 0.427-0.054 0.48-0.24 1.11 0.17 0.919 1.641 2.4 1.439-0.075 1.355 1.614 0.946 1.92 1.92 0.119-1.881-3.613-1.985-3.84-4.319-1.448-0.312-2.405-1.115-2.4-2.88 2.351 0.368 2.463 2.977 4.8 3.359 1.658 2.822 5.45 3.511 7.68 5.761h1.2c0.163 1.356 2.26 0.779 2.64 1.92-0.64 1.137-1.938 0.107-2.88-0.24-0.478-0.177-0.77-0.548-1.2-0.72-0.507-0.203-1.239-0.843-1.68-0.96-0.289-0.077-0.948-0.398-0.96-0.961-1.463 0.184-1.282-1.277-2.88-0.96 0.056 1.064 1.533 0.707 1.44 1.921 2.828 0.852 4.585 2.774 7.2 3.84 4.415-2.545 9.43-4.49 15.6-5.28-1.626-1.573-4.128-2.271-6-3.6-0.757-0.118-0.847 0.432-1.68 0.239-0.633-0.614-1.591-0.828-1.92-1.92-0.143-0.473-0.931-0.881-0.96-0.96-0.208-0.565 0.561-1.656-0.48-1.92 0.448-0.353 0.637-0.963 1.44-0.96-0.76-0.359-0.522-1.718-1.68-1.68 0.224 1.547-1.329 1.378-1.68 2.88h-2.4c-1.513-1.928-4.514-2.366-6-4.32-0.205 0.766 0.209 0.911 0.48 1.2 0.981 0.793 2.183 1.652 3.6 2.4 1.093 0.576 3.332 0.842 2.88 2.399-2.428-0.132-3.686-1.435-5.52-2.16-0.049 1.733 4.292 2.425 4.8 3.601 0.146 0.946-1.318 0.282-1.92 0.479 0.409 0.871 1.924 0.636 2.64 1.2 0.348 0.907-0.659 0.461-0.48 1.2-1.125-0.155-1.883-0.677-3.12-0.72 0.425 1.175 2.283 0.917 2.64 2.159 1.338 0.103 2.661 0.22 2.88 1.44-0.233 0.007-0.186 0.294-0.24 0.48-1.296-0.257-1.781 0.299-2.64 0.479-7.481-2.438-11.439-8.401-17.04-12.72v-1.92c0.814 0.739 1.202 0.28 2.16 0 2.916 2.044 5.043 4.876 7.92 6.96-1.153-2.368-4.723-4.396-6.24-7.2-0.132-0.532 0.458-0.342 0.479-0.72-0.338-1.101-1.581-1.298-1.92-2.4h-2.4c0.027-1.146-0.863-1.377-1.44-1.92 0.263-1.062-0.406-1.193-0.48-1.92-0.402 0.318-0.804 0.636-1.68 0.48-2.143-3.552-2.776-9.844-2.4-15.12h1.44c0.335-0.69-0.654-1.219 0-1.44 0.901-0.699 0.911-2.289 2.88-1.92 0.098 1.022-0.232 2.472 0.24 3.12 1.538 0.222 1.535 1.985 1.44 3.84 0.519 0.541 0.819-0.199 1.68 0 1.155 2.125 1.524 5.035 2.64 7.2-0.408-0.088-0.453 0.188-0.479 0.48-1.417-0.103-1.379-1.661-1.92-2.64-0.512 2.354 1.726 4.033 1.92 6.48h1.44c1.101 2.019 3.736 2.503 4.56 4.8 0.877-0.158 0.92 0.52 1.68 0.48 0.739 0.18 0.292-0.827 1.2-0.48 2.168 1.352 4.218 2.822 6.72 3.84 0.631-0.628-0.482-0.736-0.48-1.44-2.023-0.377-3.977-0.822-4.32-2.88 1.009-0.29 1.052 0.388 1.68 0.48 0.878-0.377-0.557-0.358-0.24-0.96 0.755 0.275 0.583-0.377 0.96-0.48 0.546 0.334 1.286 0.475 1.68 0.96 0.535-0.345 0.806-0.954 1.68-0.96-0.119-0.919 0.331-1.27 0.96-1.44-0.297-1.737 1.022-1.858 0.96-3.36 4.186-3.335 6.899-8.142 12.24-10.32 0.482 0.785 0.925 1.239 0.48 2.4-1.462-0.183-2.396 0.164-3.12 0.72-0.066 0.946 1.026 0.734 0.96 1.68-0.07 1.209-1.2 1.36-0.96 2.88 1.199-0.721 2.891-0.95 3.6-2.16 2.222 0.018 3.364 1.116 4.32 2.4 1.495 0.105 2.498 0.703 4.32 0.48 1.454-0.978 2.941-2.403 5.04-2.64 2.947-0.333 5.389 1.57 7.44 2.64 0.403-0.921 1.764-0.264 2.16 0.24-0.847 2.482-2.663 4.251-5.28 4.08-0.861-0.056-2.062-1.254-3.6-1.2-1.062 0.038-1.299 0.432-2.4 0.72v2.4c-1.111 0.008-0.681 1.56-1.92 1.44 0.355 2.386-1.134 3.999-2.88 2.88-0.764 0.196-0.97 0.95-1.92 0.96-0.884-0.127-0.227-0.479-0.96-0.479-0.443 0-1.582 1.396-1.92-0.24-0.979 0.71-2.556 0.81-3.364 1.68zm0.96-1.44h-0.48v0.479h0.48v-0.48zm-39.84-18.72c0.032-0.315 0.036-1.736-0.24-0.96-0.032 0.32-0.036 1.74 0.24 0.96zm3.36 1.44c0.065-0.327-0.148-0.937-0.24-0.48-0.065 0.33 0.149 0.94 0.24 0.48zm102.96 1.92c0.136 2.004 0.575-1.979 0-2.16-0.39 0.78-0.12 1.3 0 2.16zm-104.88 5.04c-0.361-2.119-0.902-4.058-1.2-6.24-0.484 2.04 0.266 4.83 1.2 6.24zm4.08-4.56c0.282-0.038 0.681 0.042 0.72-0.24-0.472 0.072-0.476-0.324-0.72-0.48v0.72zm1.2 9.12c1.925-0.405 2.192 0.848 3.36 1.2-0.348 0.907 0.659 0.46 0.48 1.2 2.045 0.354 2.389 2.411 4.32 2.88-0.615-0.825-1.001-1.878-2.4-1.92-0.113-1.487-2.106-1.094-1.92-2.88-3.069-0.931-4.161-3.839-5.76-6.24-0.106-0.453 0.327-1.446-0.48-1.2 0.278 2.85 2.087 4.16 2.4 6.96zm97.443-3.36c0.042-0.849 0.781-2.245 0.239-2.88-0.32 0.58-0.89 2.14-0.24 2.88zm-102.72 0h0.48v-0.48h-0.48v0.48zm2.88 0.72c0.065-0.327-0.148-0.937-0.24-0.48-0.065 0.33 0.149 0.94 0.24 0.48zm44.4-0.48c-0.278-0.201-0.643-0.316-1.2-0.24-0.37 0.73 1.242 0.64 1.2 0.24zm-20.64 5.04c-0.777-0.296-0.184 0.777-0.96 0.48 0.218 1.499-0.601 1.96-1.44 2.4-0.402-0.253-1.607-0.931-2.16-0.24 2.261 0.642 4.089 1.631 6.48 0.96 0.493 0.227 0.203 1.236 0.96 1.2 0.776 0.296 0.184-0.776 0.96-0.48-0.069-1.211-0.598-1.961-0.96-2.88 0.24-0.319 0.396-0.724 0.72-0.96-0.246 0.807 0.747 0.374 1.2 0.48 0.323-1.443-0.803-1.437-0.48-2.88 0.776 0.296 0.184-0.777 0.96-0.48-0.645-1.147 0.669-1.517-0.24-2.4h-0.72c-1.24 1.8-3.76 2.32-4.32 4.8zm75.363-1.68c-0.096 0.393-0.423 0.192-0.479 0.72-0.091 0.84-0.146 1.733 0.24 2.4 0.398-1.524 1.263-3.854 0.72-5.52-0.83 0.28-0.3 1.65-0.48 2.4zm-30 1.2c-0.004-0.715 0.022-1.462-0.72-1.44-0.21 0.93 0.4 1.04 0.72 1.44zm9.12 2.4c-0.809 3.911-2.73 6.709-3.84 10.32 0.776 0.297 0.184-0.776 0.96-0.479 0.054-2.026 1.387-2.774 1.44-4.8 1.629-1.651 1.875-4.685 2.88-6.96-1.2-0.07-0.25 2-1.44 1.92zm5.52 0.72c0.38-0.359 0.177-0.982-0.24-1.2 0.13 0.35-0.28 1.24 0.24 1.2zm2.4 6.48c-0.191-0.778 0.869-1.008 0.96-1.199 0.269-0.566 0.105-2.032 0.48-2.88 0.46-1.042 1.838-2.225 0.72-3.121-0.43 2.53-2.16 5.05-2.16 7.2zm8.64-2.64c0.94-0.26 0.42-1.979 1.439-2.16-0.145-0.494 0.388-1.667-0.479-1.44-0.48 1.04-1.24 1.81-0.96 3.6zm-77.523-1.2c-0.884 0.072-1.468-1.396-2.16-0.72 0.754 0.06 1.307 1.56 2.16 0.72zm-7.68-0.48c-0.193 1.46 1.1 0.16 0 0zm1.92 2.16c0.986-0.005-0.408-1.196-0.96-1.2-0.314 1.04 1.143 0.3 0.96 1.2zm16.08 0.72c-0.028-0.376-1.093-1.44-0.72-0.72 0.4-0.04 0.17 1.71 0.72 0.72zm43.443 1.68c0.737 0.367 0.737-1.567 0-1.2v1.2zm13.44 2.4c-0.73 0.81 0.89 0.73 0 0zm-2.16 3.84c0.923 0.181 1.523-1.337 0.721-1.44 0.01 0.74-0.87 0.58-0.72 1.44zm-8.4 1.92c-0.851 0.67-2.004 1.037-2.4 2.16 1.446 0.246 1.147-1.253 2.4-1.2-0.235-1.675 1.674-1.205 1.439-2.88-1.29-0.16-1.37 0.87-1.44 1.92zm-3.84 1.92c0.688-0.434 0.561-1.68 1.921-1.439-0.067-0.627-0.081-1.201 0.72-0.96-0.033-0.447-0.158-0.803-0.48-0.961-0.16 1.47-3.3 2.17-2.16 3.36zm6.72 0.48c1.737-0.183 1.666-2.174 2.88-2.88-0.033-0.447-0.158-0.803-0.48-0.961-0.77 1.32-1.79 2.38-2.4 3.84zm-0.96-1.92c0.687-0.273 1.167-0.754 1.439-1.44h-0.96c0.33 0.98-0.52 0.76-0.48 1.44zm-5.52 2.64h0.721c-0.023-0.377 0.031-0.832-0.48-0.72 0.01 0.33-0.12 0.53-0.24 0.72zm4.56 0.24c-0.591 1.01-1.28 1.92-2.16 2.64 1.249-0.031 1.899-0.66 2.16-1.68 0.671 0.054 2.146-1.183 0.96-1.44 0.24 0.72-0.54 0.43-0.96 0.48zm-61.683 1.2v-0.72c-0.359 0.041-0.886-0.086-0.96 0.24 0.477 0.01 0.305 0.66 0.96 0.48zm24.72 1.92c0.013-0.308 0.308-0.333 0.24-0.721-0.283 0.038-0.681-0.041-0.72 0.24 0.317 0.01 0.22 0.42 0.48 0.48zm-0.24 1.2c-0.446-0.258-1.487-1.146-1.68-0.239 1.188 0.092 1.692 0.867 2.88 0.96 0.334-0.547 0.475-1.286 0.96-1.681-0.681 0.041-0.469-0.812-1.44-0.479 0.129 0.85-0.203 1.24-0.72 1.44zm33.363-0.24c0.798-0.162 1.465-0.455 1.68-1.2-1.03-0.06-1.23 0.7-1.68 1.2zm-35.043 1.2c-0.799-0.08-0.78-0.979-1.68-0.96 0.069 0.67 1.074 1.63 1.68 0.96zm-14.16 0.72h0.479v-0.96h-0.479v0.96zm15.6-0.24c-1.537-0.27-0.527 0.74 0 0zm0.72 2.16c-1.874 0.452-3.05-0.867-4.08-0.48-0.375 3.706-0.365 7.795-0.48 11.76 0.68 0.814 1.363 0.996 0.96 2.4 2.205 0.435 3.03 2.25 5.76 2.16v1.2c1.175-0.201 0.933 0.845 1.92 0.239 0.42-1.54-1.415-0.825-1.44-1.92 0.589-0.588 1.384 0.521 1.44-0.479-1.244-0.196-3.013 0.133-3.36-0.96 0.56-1.726 2.653 0.411 3.84-0.48-0.312-3.832 0.423-6.616 0.48-10.08 1.489-0.671 2.427-1.893 3.12-3.359 2.019-0.418 0.922 2.278 1.2 3.6 0.686-0.455 1.999-0.314 2.64-0.72 0.085-0.054-0.064-0.784 0.48-0.96 1.109-0.358 0.837-0.757 1.2-1.68-3.446-1.372-7.938-0.489-12-0.24-0.055-0.426 0.242-1.202-0.48-0.96-0.783-0.06-0.509 0.94-1.2 0.96zm-19.68 0.72c-3.072 1.248-5.872 2.768-7.92 5.04 1.601 0.239 2.302 1.378 4.56 0.96 0.041-0.359-0.086-0.886 0.24-0.96 2.061-0.899 3.559-2.361 4.56-4.32-0.733 0.02-0.576-0.86-1.44-0.72zm56.883 5.04h0.48v-0.48h-0.48v0.48zm-27.843 3.84v1.92c1.889 0.832 3.85 1.591 6.48 1.681 0.409 0.229 0.525 0.754 0.72 1.199 1.174-0.458 1.592 0.021 2.64 0.24 0.629-1.385 0.001-1.163 0.48-2.399-1.604-1.869-4.371-2.949-6.721-3.36-0.038-0.007-0.017-0.392-0.239-0.24-0.835 0.83-2.277 0.1-3.36 0.96zm19.683 3.84c-0.005 0.565 0.414 0.707 0.24 1.44 1.074 0.114 1.201-0.719 1.2-1.68 0.797-0.484 1.706-0.854 2.16-1.681-1.66 0.19-2.04 1.64-3.6 1.92zm-45.363 2.88c-0.242-0.798 0.53-2.61-0.48-2.64 0.242 0.8-0.53 2.62 0.48 2.64zm25.92-0.48c1.662 1.421 4.963 2.336 7.68 1.92 0.062-1.183-1.255-0.984-0.96-2.4-2.888 0.42-6.088-3.22-6.72 0.48zm-11.28 0.72c-0.191-1.408-1.945-1.255-2.64-2.16 0.358 1.25 1.444 1.76 2.64 2.16zm-12.96-1.44c-0.312 3.607-0.929 6.91-0.72 11.04 1.954-0.263 5.048 1.593 6.24-0.24-0.706-0.845-1.44 0.304-2.16 0.24-0.832-3.233 0.116-6.78-0.24-9.841-1.383 0.04-1.951-1.79-3.12-1.2zm14.4 1.68c-1.537-0.27-0.527 0.74 0 0zm-2.4 1.68c0.359-0.041 0.886 0.086 0.96-0.239-0.319-0.31-0.893-0.31-0.96 0.24zm4.32 0.48c0.574-0.146 1.741 0.301 1.92-0.24-0.847-0.033-1.073-0.687-1.92-0.72v0.96zm-8.4 6.24c-0.134 0.586-1.221 0.219-0.96 1.199 3.512 0.558 8.321 0.141 11.28 0v-4.08c-4.344 0.024-6.637-2.003-10.08-2.88-0.53 1.47-0.102 3.9-0.24 5.76zm31.923 1.44c0.327-1.517 1.771-4.193 0.72-5.52-0.49 1.44-1.39 3.73-0.72 5.52zm-7.203-4.32c-0.426 0.097-1.251 0.914-2.159 0.48-0.438 0.762-0.798 1.603-2.16 1.44 0.076 1.283 1.797 0.923 3.12 0.96 1.04-1.681 3.656-1.784 4.8-3.36-0.027-0.293-0.072-0.568-0.48-0.48-0.636 0.96-2.032 0.72-3.121 0.96zm-42.96 3.6c0.455-0.689 0.265-2.394 0-3.12h-0.72c0.037 1.25-0.245 2.81 0.72 3.12zm3.36-0.48c0.065-0.326-0.148-0.937-0.24-0.479-0.065 0.33 0.149 0.94 0.24 0.48zm29.28 0c0.065-0.326-0.149-0.937-0.24-0.479-0.065 0.33 0.149 0.94 0.24 0.48zm-1.92 0.96c0.058-0.342 0.396-0.404 0.48-0.72-0.472 0.072-0.476-0.324-0.72-0.479 0.131 0.35-0.281 1.24 0.24 1.2zm-6.72 3.6c0.794 2.458 5.714 1.648 7.92 0.96-1.891-2.15-5.606-3.37-7.92-0.96zm-11.52-0.48c0.348 4.301-0.318 9.748-0.48 12.48-0.1 1.682 0.392 3.683 0 5.279-0.097 0.394-0.429 0.189-0.48 0.721-0.332 3.441 0.829 7.183 0 10.56-0.097 0.394-0.429 0.188-0.48 0.72-0.285 2.951 0.597 6.158-0.48 9.12 1.332 1.719-0.145 4.39 0 6.48-1.25 0.351-1.031 2.169-2.4 2.399-0.027 0.828 0.988 0.613 0.96 1.44-0.58 0.62-1.169 1.23-1.92 1.68 1.529 0.438 3.458-0.664 5.76-0.239-1.009-1.754-0.626-5.581-1.44-8.16 0.455-0.258 0.443-0.742 0.48-0.96 0.849-4.988-0.343-10.693 0.96-15.84 0.193-0.766 0.834-1.407 0.96-2.16 0.279-1.672-0.002-5.196-0.48-6 1.092-4.293 0.073-10.136 0.48-14.4 0.138-1.449 0.965-2.595 0-3.6-0.896-0.25-0.684 0.6-1.44 0.48zm13.2 6.48c1.15 0.383 3.389 1.013 3.84-0.48-0.604-0.916-2.325-0.715-3.84-0.72v1.2zm-31.2 1.68c-0.129 0.849 0.204 1.236 0.72 1.44 0.127-0.524 0.581-1.553-0.24-1.681-0.053 0.19-0.201 0.28-0.48 0.24zm-3.84 4.56c0.8 0 1.6-0.001 2.4 0-0.162-1.119-0.747-1.814-0.48-3.36h-0.96c0.032 1.48-1.489 1.4-0.96 3.36zm57.84-2.4c-0.033-0.447-0.158-0.802-0.48-0.96 0.054 0.43-0.242 1.21 0.48 0.96zm-53.52 1.44c0.701-0.325 0.379-1.407 0-1.92-0.175 0.33-1.136 1.82 0 1.92zm41.76 0.96h5.52c-0.331-0.972 0.521-0.76 0.48-1.44-1.803-0.838-4.614-0.666-6.48-1.44-0.65 1.16 0.291 1.88 0.48 2.88zm8.88 8.64c-1.537-0.27-0.527 0.74 0 0zm0.48 3.6c-0.145-0.494 0.388-1.667-0.479-1.439 0.144 0.5-0.388 1.67 0.479 1.44zm-29.76 4.56c0.298 1.022 3.126 1.104 3.12-0.24-0.966-0.074-1.561-0.52-2.4-0.72-0.014-0.146-0.036-0.284-0.24-0.24 0.18 0.74-0.827 0.3-0.48 1.2zm-22.8 12c1.838-0.482 0.912-3.729 1.44-5.521-0.895 0.588-1.285 2.701-0.48 3.601-0.699 0.26-0.641 1.28-0.96 1.92zm-0.96-3.84c0.7 0.353 0.7-1.073 0-0.721v0.72zm-0.96 4.8c0.536-0.104 0.855-0.425 0.96-0.96-0.777 0.296-0.184-0.776-0.96-0.48v1.44zm-6.96 2.4c0.905 0.457 1.834-0.911 0.72-0.96 0.211 0.78-0.791 0.33-0.72 0.96zm60.96 3.36c2.315-0.515 2.146 2.598 3.84 1.92-0.89-1.67-2.118-3.002-2.88-4.8h-0.96v2.88zm-51.6 5.52c1.081 3.041-3.165 8.642 0.72 10.08 0.45-0.75 0.887-1.514 1.2-2.399-1.46-0.86-0.572-4.068-1.68-5.28 0.102-1.258 0.972-1.748 0.72-3.36-0.555-0.324-0.795-0.965-1.92-0.72-0.437 1.32 1 0.76 0.96 1.68zm15.12-0.96c1.473 0.366 4.206 0.312 5.04-0.72-2.09-0.17-3.35 0.49-5.04 0.72zm16.56 1.68c0.492 1.269 2.586 0.934 2.88 2.399 0.672-0.127 1.248-0.352 1.92-0.479 0.434 0.065 1.799 1.148 1.68 0.24-1.926-0.77-4.433-3.05-6.48-2.16zm-30.48 14.88c0.658-1.089-0.708-1.932-0.24-3.601h-0.96c-0.145 1.75 0.224 2.98 1.2 3.6zm42.24 0c0.324 0.075 0.458 0.342 0.96 0.24v-0.96h-0.72c0.01 0.33-0.113 0.53-0.24 0.72zm-24.72 6.96c-0.204-0.204-0.685 0.174-0.72 0.24-0.227 0.42 0.886-0.07 0.72-0.24z"/>
	<path d="m118.51 103.3c-0.41 0.196 0.765 0.817 0.96 1.2 0.354 0.913-1.072 0.047-0.72 0.96 1.207 2.153 4.755 1.965 5.76 4.32-0.045 0.675-0.417 1.022-1.2 0.96 0.305 1.456 2.245 1.275 2.16 3.12-1.466 1.212-2.029-1.31-3.84-1.2-0.085 1.431 2.225 1.524 1.44 2.88-2.649-0.551-3.501-2.899-6.721-2.88 1.609 0.871 3.206 1.754 4.561 2.88-0.187 0.213-0.258 0.542-0.24 0.96-2.876-0.516-4.854-3.425-7.92-3.36-1.178 0.025-1.874 0.598-3.36 0.96-1.478 0.359-2.327 1.689-3.84 1.92 0.077 0.557-0.038 0.921-0.24 1.2-2.977 0.703-5.146 2.213-7.92 3.12 0.463 1.422-0.875 1.045-0.96 1.92-0.04 0.521 0.852 0.109 1.2 0.24 1.399-1.401 2.979-2.622 5.521-2.88 0.472-0.968 1.556-1.324 2.399-1.92 4.726-0.233 9.634-0.509 11.28 2.88 1.107 0.012 1.981 0.258 2.399 0.96 3.893-0.212 4.617 2.743 7.2 3.84 0.021 1.1 0.785 1.455 0.721 2.64 0.321 0.398 1.26 0.18 1.199 0.96-0.594 1.977-3.593 0.966-5.279 0.72-3.054 1.986-5.767 4.313-10.32 4.8-0.245 0.234-0.485 0.475-0.72 0.72-6.421 1.086-11.228-1.372-15.12-3.6 0.247-2.567-1.485-3.155-2.16-4.8-0.907-0.347-0.461 0.66-1.2 0.48-0.139 1.921 0.557 3.242-0.479 4.32-2.474-0.755-2.795 0.92-4.561 1.44-1.216-0.526-1.563-1.866-1.2-3.36 0.529-0.271 1.324-0.276 1.44-0.96 0.221-1.021-1.584-0.016-1.44-0.96-0.221-1.021 1.585-0.016 1.44-0.96-0.581-0.415-1.757 0.284-1.92-0.96 0.096-0.784 1.331-0.428 1.68-0.96-0.009-0.791-1.186-0.414-0.96-1.44 0.755 0.275 0.583-0.377 0.96-0.48 0.943-0.223 0.605 0.834 1.681 0.48 0.408-1.289-0.827-0.933-1.681-0.96-0.557-0.642-1.584-1.273-2.399-0.96 0.296-0.777-0.777-0.184-0.48-0.96h-1.439c-0.366-1.812 2.141-1.465 1.199-3.12 0.601-0.199 0.942-0.658 1.681-0.72-1.283-0.727-6.285-0.397-8.16 0.24 0.994 0.686 3.556-0.196 4.56 0.48-0.336 1.395-1.936 0.833-3.12 0.96-2.076 0.223-4.646 0.332-6.72 0.24 1.606 2.491 5.35 0.322 9.12 0.96 0.122 2.408-2.607 1.203-4.08 1.2-1.594-0.003-3.002 0.505-4.32 0.24-0.49 0.07-0.471 0.649-0.96 0.72-0.172 0.652 1.131-0.171 0.96 0.48 0.095 1.535-1.749 1.131-1.2 3.12-0.096 0.704-0.788 0.812-0.96 1.44 0.066 0.494 0.894 0.226 0.96 0.72-0.006 2.234-2.174 2.306-2.4 4.32-0.69 0.05-1.219-0.061-1.44-0.48-1.031 1.469-2.591-0.089-3.6-0.72v-1.92c-1.922-0.063-4.732 1.386-6-0.24-1.143-0.103-1.794 0.285-2.4 0.72 0.155 1.195 0.117 1.021-0.24 1.92-1.107-0.148-1.381 0.539-2.4 0.48 0.334 0.865 1.781 0.619 2.4 1.2 0.062 4.401-11.518 4.894-13.68 1.68-0.951-0.088-1.467 0.562-1.92-0.24 0.315-1.605 2.475-1.366 3.36-2.4 0.706 0.494 1.314 1.085 2.16 1.44 0.785-0.095 1.551-0.208 1.68-0.96 1.54 0.61 3.969 1.48 5.04 0-2.369-0.771-5.825 0.015-8.4-1.2-0.919 0.727-2.125 1.304-3.36 0.48-0.536 0.104-0.856 0.424-0.96 0.96-1.875-0.539-2.506 2.266-3.84 0.72-0.299-1.019 0.798-0.642 0.96-1.2-0.427-2.197-1.254-3.828-0.24-6-0.435-0.205-0.662-0.618-1.2-0.72 0.212-0.588 0.719-0.88 0.48-1.92 1.778-1.021 2.418-3.182 4.08-4.32h1.2c0.229 1.11-0.642 1.118-0.96 1.68 0.856 1.647 4.355 1.445 5.521 0.24 0.916-0.116 1.532 0.068 1.92 0.48 2.623-1.428 7.84-0.819 10.56-1.44-0.501-0.458-1.146-0.774-1.92-0.96 0.029-0.611 0.35-0.931 0.96-0.96-3.513-2.867-10.572-1.323-14.16 0.48 0.132-0.532-0.458-0.342-0.48-0.72 0.162-0.958 0.722-1.518 1.68-1.68-0.631-0.38-2.559 0.266-3.36 0.96-0.46 0.399-1.314 0.662-1.92 1.2-1.245 1.106-1.662 2.958-3.12 3.6 0.166 1.125-0.842 1.078-0.48 2.4-2.463-0.624-1.329 2.351-2.88 2.64-1.709-1.147 0.435-4.408-1.2-5.76 0.797-2.562 1.503-5.216 3.12-6.96 1.635 0.355 1.612-0.948 2.64-1.2 0.798 0.162 0.794 1.126 1.92 0.96 1.229-0.371 0.797-2.403 1.68-3.12 0.347-0.908-0.66-0.46-0.48-1.2 1.246-0.514 2.464-1.056 4.32-0.96 0.512-0.112 0.457 0.343 0.48 0.72 0.73 0.011 0.933-0.507 1.44-0.72 2.934-0.109 5.745 0.796 8.4 0.48 0.842-0.1 1.533-0.59 2.4-0.48 2.344 0.299 3.335 2.871 5.52 3.12 0.4-0.32 0.373-1.067 0.72-1.44 3.664 0.221 7.314 0.766 10.32 0-2.979-0.621-7.59 0.219-9.36-0.96-0.209-1.009 0.797-0.803 1.2-1.2 4.551 0.753 11.877 0.898 16.319-0.48v-1.92c1.578 0.803 1.989-0.176 4.08 0 0.276 0.672 0.276 1.248 0 1.92-3.246 0.354-4.637 2.562-8.399 2.4 1.175 1.912 5.189-0.491 6.72 0.96-0.841 1.625-4.127 1.863-5.76 1.92-0.104-0.377-0.755-0.205-0.48-0.96-3.249 0.565-5.253 0.032-8.16 0.48 1.802 0.942 7.054 1.483 10.56 1.2 2.288-0.185 4.552-1.354 6.24-0.24-0.109 0.851-1.29 0.63-1.44 1.44 1.181 0.056 3.212-1.106 5.04-1.2 0.521-0.52 0.89-1.19 0.96-2.16 0.8-0.081 1.064-0.696 2.16-0.48 0.53-0.03 0.102-1.018 0.24-1.44 1.175 0.295 0.933-0.827 1.92-0.72-0.484-0.315-0.836-0.765-1.44-0.96 0.724-0.877 1.639-1.562 2.641-2.16 2.407 0.408 2.808-1.192 5.04-0.96v0.96c0.905-0.054 2.172 0.252 2.399-0.48 1.89 1.041 5.023 0.38 6-0.96 1.039-0.239 1.332 0.268 1.92 0.48-0.405-0.555-0.621-1.298-0.479-2.4-1.915-0.47-4.471 1.142-5.28-0.48-0.385-0.945 1.036-0.083 0.96-0.72 2.827 0.061 5.279-0.149 8.4 0.24 0.565-0.066-0.022-0.894-0.24-0.96 0.42-0.71 1.278 0.139 1.92 0 0.18 0.739-0.827 0.292-0.48 1.2 0.701 0.5 2.385 0.015 2.4 1.2-0.15 0.66-1.7 0.63-2.16 0.24zm-6 4.56c0.681 0.041 0.469-0.812 1.44-0.48v-0.96c-1.125 0.165-1.078-0.842-2.4-0.48-0.31 1.27 0.91 1.01 0.96 1.92zm-12-0.48c-0.47 0.125-0.403 0.34-0.72 0.48-0.529 0.234-0.768-0.475-0.72 0.24 1.048 0.168 1.352-0.408 2.399-0.24-0.226-1.026 0.951-0.649 0.96-1.44-0.77-0.03-1.7 0.9-1.92 0.96zm-52.323 5.28c-2.15-0.144-1.585 0.421 0.24 0.24-0.038-0.282 0.041-0.681-0.24-0.72v0.48zm21.12 0c-1.189 0.149-1.271-0.809-2.64-0.48 0.258 0.84 2.312 1.14 2.64 0.48zm-19.68 2.88c0.688 0.047 1.31 0.03 1.2-0.72-0.403-0.4-1.409-0.19-1.2 0.72zm18.96 0.72h0.96c0.153-1.047 1.836-0.563 2.16-1.44-0.649-0.398-2.95-0.398-3.6 0 0.418 0.37-0.246 1.04 0.48 1.44zm6.72-0.96c1.865-0.42 3.197 0.956 4.56 0.24-0.895-0.43-4.235-0.81-4.56-0.24zm6-0.24c-0.422 0.138-1.41-0.29-1.44 0.24 0.422-0.13 1.41 0.29 1.44-0.24zm-43.2 3.6c1.219-0.061 1.562-0.998 2.16-1.68-0.187-0.053-0.279-0.201-0.24-0.48-1.527-0.16-1.599 1.12-1.92 2.16zm40.32-1.68c-1.045 0.155-2.713-0.313-3.36 0.24 1.045-0.15 2.713 0.32 3.36-0.24zm-14.64 2.4c-0.987-0.133-1.073-1.167-2.4-0.96 0.02 0.95 1.725 1.47 2.4 0.96zm7.92 2.16c0.086-0.794 1.311-0.449 1.44-1.2-0.894-0.16-2.115 0.59-1.44 1.2zm-12.72 0c1.601-0.001 2.289 0.91 2.88 1.92 0.959-0.079 1.425 0.334 1.44 1.2-0.116 0.844-1.618 0.302-1.44 1.44 1.263 0.497 2.856 0.664 3.84 1.44 0.023 0.377-0.032 0.832 0.48 0.72 0.102-1.286 0.02-1.768-0.48-3.36h-1.2c-0.249-0.631-0.287-1.473-0.24-2.4-1.761-0.639-3.368-1.433-5.28-1.92v0.96zm56.883 0.96c-2.111 0.071-4.123-3.116-5.76-1.2 2.044 0.596 3.756 1.524 5.76 2.16 0.415 1.185 1.38 1.82 2.88 1.92-0.54-1.38-2.44-1.4-2.88-2.88zm-14.16 0h0.48v-0.48h-0.48v0.48zm-62.163 0.96h0.72c0.031-0.431-0.238-0.562-0.72-0.48v0.48zm10.32 0c-1.929 0.871-4.141 1.459-5.52 2.88 1.565 0.009 4.466-1.153 5.76-1.92 0.781-0.463 1.039-0.207 1.92-0.48 0.379-0.117 0.22-0.379 0.72-0.48 1.233-0.25 1.292 0.407 1.92 0.48 0.639 0.074 1.542-0.054 2.4 0-1.196-2.19-4.935-0.23-7.2-0.48zm48 0.96c1.051 0.091 1.633-0.287 1.92-0.96-0.895 0.07-1.592 0.33-1.92 0.96zm-3.84 1.92h0.479v-0.96h-0.479v0.96zm9.843 0.96c-1.145 1.016-3.232 1.088-5.521 0.96 1.625 2.073 6.154 4.36 8.16 1.44-1.77 0.09-0.94-2.42-2.64-2.4zm8.4 0.72c-0.619 0.181 0.176 1.775-0.72 1.68-1.522 0.157-3.676-0.316-4.8 0.24 2.322 0.319 5.003 1.554 7.68 0.72-0.431 0.031-0.562-0.238-0.479-0.72 0.595-0.365 1.86-0.059 2.399-0.48v-1.2c-1.72 0.38-2.63-1.12-4.08-0.24zm-63.603 1.68h-0.96c-0.051 0.79 1.126 0.95 0.96 0z"/>
</g>
<metadata><rdf:RDF><cc:Work><dc:format>image/svg+xml</dc:format><dc:type rdf:resource="http://purl.org/dc/dcmitype/StillImage"/><cc:license rdf:resource="http://creativecommons.org/licenses/publicdomain/"/><dc:publisher><cc:Agent rdf:about="http://openclipart.org/"><dc:title>Openclipart</dc:title></cc:Agent></dc:publisher><dc:title>drinks that please</dc:title><dc:date>2013-10-13T23:30:31</dc:date><dc:description>a boy pleased with his drink from the Evening Missourian, Columbus MO, circa 1920</dc:description><dc:source>http://openclipart.org/detail/184878/drinks-that-please-by-johnny_automatic-184878</dc:source><dc:creator><cc:Agent><dc:title>johnny_automatic</dc:title></cc:Agent></dc:creator><dc:subject><rdf:Bag><rdf:li>boy</rdf:li><rdf:li>drink</rdf:li><rdf:li>drinking</rdf:li><rdf:li>glass</rdf:li></rdf:Bag></dc:subject></cc:Work><cc:License rdf:about="http://creativecommons.org/licenses/publicdomain/"><cc:permits rdf:resource="http://creativecommons.org/ns#Reproduction"/><cc:permits rdf:resource="http://creativecommons.org/ns#Distribution"/><cc:permits rdf:resource="http://creativecommons.org/ns#DerivativeWorks"/></cc:License></rdf:RDF></metadata></svg>
