<?xml version="1.0" encoding="UTF-8" standalone="no"?>
<!-- Created with Inkscape (http://www.inkscape.org/) -->

<svg
   xmlns:dc="http://purl.org/dc/elements/1.1/"
   xmlns:cc="http://creativecommons.org/ns#"
   xmlns:rdf="http://www.w3.org/1999/02/22-rdf-syntax-ns#"
   xmlns:svg="http://www.w3.org/2000/svg"
   xmlns="http://www.w3.org/2000/svg"
   xmlns:xlink="http://www.w3.org/1999/xlink"
   xmlns:sodipodi="http://sodipodi.sourceforge.net/DTD/sodipodi-0.dtd"
   xmlns:inkscape="http://www.inkscape.org/namespaces/inkscape"
   width="30.038074mm"
   height="30.586824mm"
   viewBox="0 0 106.43412 108.37851"
   id="svg2"
   version="1.1"
   inkscape:version="0.91 r13725"
   sodipodi:docname="Kirschen-lineart.svg">
  <title
     id="title4136">cherries - lineart</title>
  <defs
     id="defs4">
    <pattern
       inkscape:collect="always"
       xlink:href="#Wavy"
       id="pattern5930"
       patternTransform="matrix(0.11029126,0,0,0.66219984,-16,908)" />
    <pattern
       inkscape:stockid="Wavy"
       id="Wavy"
       height="5.1805778"
       width="30.066020"
       patternUnits="userSpaceOnUse"
       inkscape:collect="always">
      <path
         id="path5703"
         d="M 7.597,0.061 C 5.079,-0.187 2.656,0.302 -0.01,1.788 L -0.01,3.061 C 2.773,1.431 5.173,1.052 7.472,1.280 C 9.770,1.508 11.969,2.361 14.253,3.218 C 18.820,4.931 23.804,6.676 30.066,3.061 L 30.062,1.788 C 23.622,5.497 19.246,3.770 14.691,2.061 C 12.413,1.207 10.115,0.311 7.597,0.061 z "
         style="fill:black;stroke:none;" />
    </pattern>
    <pattern
       inkscape:collect="always"
       xlink:href="#Polkadots-large"
       id="pattern5836"
       patternTransform="matrix(1.025,0,0,1.45,0,946)" />
    <pattern
       inkscape:stockid="Polka dots, large"
       id="Polkadots-large"
       patternTransform="translate(0,0) scale(10,10)"
       height="10"
       width="10"
       patternUnits="userSpaceOnUse"
       inkscape:collect="always">
      <circle
         id="circle5525"
         r="0.45"
         cy="0.810"
         cx="2.567"
         style="fill:black;stroke:none" />
      <circle
         id="circle5527"
         r="0.45"
         cy="2.33"
         cx="3.048"
         style="fill:black;stroke:none" />
      <circle
         id="circle5529"
         r="0.45"
         cy="2.415"
         cx="4.418"
         style="fill:black;stroke:none" />
      <circle
         id="circle5531"
         r="0.45"
         cy="3.029"
         cx="1.844"
         style="fill:black;stroke:none" />
      <circle
         id="circle5533"
         r="0.45"
         cy="1.363"
         cx="6.08"
         style="fill:black;stroke:none" />
      <circle
         id="circle5535"
         r="0.45"
         cy="4.413"
         cx="5.819"
         style="fill:black;stroke:none" />
      <circle
         id="circle5537"
         r="0.45"
         cy="4.048"
         cx="4.305"
         style="fill:black;stroke:none" />
      <circle
         id="circle5539"
         r="0.45"
         cy="3.045"
         cx="5.541"
         style="fill:black;stroke:none" />
      <circle
         id="circle5541"
         r="0.45"
         cy="5.527"
         cx="4.785"
         style="fill:black;stroke:none" />
      <circle
         id="circle5543"
         r="0.45"
         cy="5.184"
         cx="2.667"
         style="fill:black;stroke:none" />
      <circle
         id="circle5545"
         r="0.45"
         cy="1.448"
         cx="7.965"
         style="fill:black;stroke:none" />
      <circle
         id="circle5547"
         r="0.45"
         cy="5.049"
         cx="7.047"
         style="fill:black;stroke:none" />
      <circle
         id="circle5549"
         r="0.45"
         cy="0.895"
         cx="4.340"
         style="fill:black;stroke:none" />
      <circle
         id="circle5551"
         r="0.45"
         cy="0.340"
         cx="7.125"
         style="fill:black;stroke:none" />
      <circle
         id="circle5553"
         r="0.45"
         cy="1.049"
         cx="9.553"
         style="fill:black;stroke:none" />
      <circle
         id="circle5555"
         r="0.45"
         cy="2.689"
         cx="7.006"
         style="fill:black;stroke:none" />
      <circle
         id="circle5557"
         r="0.45"
         cy="2.689"
         cx="8.909"
         style="fill:black;stroke:none" />
      <circle
         id="circle5559"
         r="0.45"
         cy="4.407"
         cx="9.315"
         style="fill:black;stroke:none" />
      <circle
         id="circle5561"
         r="0.45"
         cy="3.870"
         cx="7.820"
         style="fill:black;stroke:none" />
      <circle
         id="circle5563"
         r="0.45"
         cy="5.948"
         cx="8.270"
         style="fill:black;stroke:none" />
      <circle
         id="circle5565"
         r="0.45"
         cy="7.428"
         cx="7.973"
         style="fill:black;stroke:none" />
      <circle
         id="circle5567"
         r="0.45"
         cy="8.072"
         cx="9.342"
         style="fill:black;stroke:none" />
      <circle
         id="circle5569"
         r="0.45"
         cy="9.315"
         cx="8.206"
         style="fill:black;stroke:none" />
      <circle
         id="circle5571"
         r="0.45"
         cy="9.475"
         cx="9.682"
         style="fill:black;stroke:none" />
      <circle
         id="circle5573"
         r="0.45"
         cy="6.186"
         cx="9.688"
         style="fill:black;stroke:none" />
      <circle
         id="circle5575"
         r="0.45"
         cy="6.296"
         cx="3.379"
         style="fill:black;stroke:none" />
      <circle
         id="circle5577"
         r="0.45"
         cy="8.204"
         cx="2.871"
         style="fill:black;stroke:none" />
      <circle
         id="circle5579"
         r="0.45"
         cy="8.719"
         cx="4.59"
         style="fill:black;stroke:none" />
      <circle
         id="circle5581"
         r="0.45"
         cy="9.671"
         cx="3.181"
         style="fill:black;stroke:none" />
      <circle
         id="circle5583"
         r="0.45"
         cy="7.315"
         cx="5.734"
         style="fill:black;stroke:none" />
      <circle
         id="circle5585"
         r="0.45"
         cy="6.513"
         cx="6.707"
         style="fill:black;stroke:none" />
      <circle
         id="circle5587"
         r="0.45"
         cy="9.670"
         cx="5.730"
         style="fill:black;stroke:none" />
      <circle
         id="circle5589"
         r="0.45"
         cy="8.373"
         cx="6.535"
         style="fill:black;stroke:none" />
      <circle
         id="circle5591"
         r="0.45"
         cy="7.154"
         cx="4.37"
         style="fill:black;stroke:none" />
      <circle
         id="circle5593"
         r="0.45"
         cy="7.25"
         cx="0.622"
         style="fill:black;stroke:none" />
      <circle
         id="circle5595"
         r="0.45"
         cy="5.679"
         cx="0.831"
         style="fill:black;stroke:none" />
      <circle
         id="circle5597"
         r="0.45"
         cy="8.519"
         cx="1.257"
         style="fill:black;stroke:none" />
      <circle
         id="circle5599"
         r="0.45"
         cy="6.877"
         cx="1.989"
         style="fill:black;stroke:none" />
      <circle
         id="circle5601"
         r="0.45"
         cy="3.181"
         cx="0.374"
         style="fill:black;stroke:none" />
      <circle
         id="circle5603"
         r="0.45"
         cy="1.664"
         cx="1.166"
         style="fill:black;stroke:none" />
      <circle
         id="circle5605"
         r="0.45"
         cy="0.093"
         cx="1.151"
         style="fill:black;stroke:none" />
      <circle
         id="circle5607"
         r="0.45"
         cy="10.093"
         cx="1.151"
         style="fill:black;stroke:none" />
      <circle
         id="circle5609"
         r="0.45"
         cy="4.451"
         cx="1.302"
         style="fill:black;stroke:none" />
      <circle
         id="circle5611"
         r="0.45"
         cy="3.763"
         cx="3.047"
         style="fill:black;stroke:none" />
    </pattern>
  </defs>
  <sodipodi:namedview
     id="base"
     pagecolor="#ffffff"
     bordercolor="#666666"
     borderopacity="1.0"
     inkscape:pageopacity="0.0"
     inkscape:pageshadow="2"
     inkscape:zoom="11.313708"
     inkscape:cx="68.537343"
     inkscape:cy="43.975929"
     inkscape:document-units="mm"
     inkscape:current-layer="layer1"
     showgrid="false"
     inkscape:window-width="2560"
     inkscape:window-height="1420"
     inkscape:window-x="-2"
     inkscape:window-y="-3"
     inkscape:window-maximized="1"
     inkscape:snap-global="false"
     fit-margin-top="1"
     fit-margin-right="1"
     fit-margin-bottom="1"
     fit-margin-left="1" />
  <metadata
     id="metadata7">
    <rdf:RDF>
      <cc:Work
         rdf:about="">
        <dc:format>image/svg+xml</dc:format>
        <dc:type
           rdf:resource="http://purl.org/dc/dcmitype/StillImage" />
        <dc:title>cherries - lineart</dc:title>
        <cc:license
           rdf:resource="http://creativecommons.org/publicdomain/zero/1.0/" />
        <dc:date>2015-02-21</dc:date>
        <dc:creator>
          <cc:Agent>
            <dc:title>Frank Tremmel</dc:title>
          </cc:Agent>
        </dc:creator>
        <dc:subject>
          <rdf:Bag>
            <rdf:li>cherries</rdf:li>
            <rdf:li>cherry</rdf:li>
            <rdf:li>fruit</rdf:li>
            <rdf:li>fruits</rdf:li>
            <rdf:li>food</rdf:li>
            <rdf:li>kirschen</rdf:li>
            <rdf:li>kirsche</rdf:li>
            <rdf:li>frucht</rdf:li>
            <rdf:li>früchte</rdf:li>
            <rdf:li>Nahrung</rdf:li>
            <rdf:li>line art</rdf:li>
            <rdf:li>outline</rdf:li>
            <rdf:li />
          </rdf:Bag>
        </dc:subject>
        <dc:description>line art cherries</dc:description>
      </cc:Work>
      <cc:License
         rdf:about="http://creativecommons.org/publicdomain/zero/1.0/">
        <cc:permits
           rdf:resource="http://creativecommons.org/ns#Reproduction" />
        <cc:permits
           rdf:resource="http://creativecommons.org/ns#Distribution" />
        <cc:permits
           rdf:resource="http://creativecommons.org/ns#DerivativeWorks" />
      </cc:License>
    </rdf:RDF>
  </metadata>
  <g
     inkscape:label="Ebene 1"
     inkscape:groupmode="layer"
     id="layer1"
     transform="translate(0.25840763,-945.12321)">
    <path
       style="color:#000000;display:inline;overflow:visible;visibility:visible;opacity:1;fill:#ffffff;fill-opacity:1;fill-rule:evenodd;stroke:#ff0000;stroke-width:0.35433072;stroke-linecap:round;stroke-linejoin:round;stroke-miterlimit:4;stroke-dasharray:none;stroke-dashoffset:0;stroke-opacity:1;marker:none;enable-background:accumulate"
       d="m 68.492305,949.69544 c -1.85742,0.387 -2.32636,3.47185 -2.60352,4.50195 0.174784,0.3711 -0.397704,2.54605 -4.75586,2.90821 -2.2072,1.5946 -8.48548,5.43284 -8.00586,9.99414 -14.972344,15.10835 -19.409666,24.78725 -26.223493,42.24576 -3.669486,0.7496 -4.528424,-0.9578 -6.520677,-1.7243 -7.90994,-2.435 -15.20895,5.4937 -15.20898,14.5469 -3e-5,10.8485 3.85229,22.5073 12.41016,25.3574 11.33821,3.7762 25.62504,-3.0801 29.375,-15 2.42655,-7.7133 1.898294,-22.8722 -13.82353,-21.0849 -1.970048,0.058 -0.839794,-1.7162 -1.47703,-2.2465 3.3638,-9.26085 4.5283,-12.32826 9.48806,-21.18226 3.288674,-5.87083 8.25602,-10.61734 12.91015,-15.27344 1.775856,9.7881 8.800903,19.71769 13.02149,23.20508 1.537236,1.27019 2.64493,2.3903 3.94336,3.27149 -0.86168,-0.24471 -1.7977,-0.33456 -2.89649,-0.084 -8.17701,1.86493 -12.07411,8.77463 -11.22461,18.07423 0.98688,10.8035 12.4224,27.8667 30.00782,23.2598 8.09738,-2.1213 15.266185,-14.8821 14.279295,-25.6856 -0.87386,-9.566 -4.386165,-18.1628 -15.533205,-16.9121 -2.48136,0.27843 -1.68965,1.7809 -5.56055,2.6211 -4.07408,-1.93906 -9.67873,-5.26086 -12.24609,-8.81837 -4.42041,-6.12522 -8.59037,-11.88889 -9.24805,-19.09179 -0.21221,-2.3242 0.1615,-4.33159 1.54688,-6.89649 1.46402,-2.7105 3.94504,-3.5466 6.84961,-5.0625 1.94155,1.4402 4.79265,3.02801 6.93554,1.90821 1.73501,-0.9066 2.93189,-2.55589 2.42383,-4.42969 l 3.01758,-1.50977 c 1.09824,-0.7562 2.65867,-2.48227 1.37109,-5.16797 -0.8941,-1.865 -3.82094,-2.07266 -5.98437,-0.85546 l -1.92188,0.67382 c -2.012955,-1.24652 -2.209897,-2.26316 -4.34567,-1.54295 z"
       id="path4157-4-2"
       inkscape:connector-curvature="0"
       sodipodi:nodetypes="ccccccscsccscsccsssscsssccccsccc" />
    <path
       style="color:#000000;display:inline;overflow:visible;visibility:visible;opacity:1;fill:url(#pattern5930);fill-opacity:1;fill-rule:evenodd;stroke:#ff0000;stroke-width:0.35433072;stroke-linecap:round;stroke-linejoin:round;stroke-miterlimit:4;stroke-dasharray:none;stroke-dashoffset:0;stroke-opacity:1;marker:none;enable-background:accumulate"
       d="m 67.990438,949.70329 c -0.973536,1.80121 -1.707641,3.38351 -1.984801,4.41361 -0.443939,0.63626 -0.309322,2.45761 -4.667472,2.81981 -2.2072,1.5946 -6.629329,4.19536 -8.978136,11.14315 -14.972344,15.1084 -18.349006,23.72664 -25.162833,41.18504 0.218936,0.6666 -1.751532,0.6834 -2.038557,1.5131 -0.399868,1.1559 0.887532,3.1409 1.893485,4.0171 0.600255,0.5228 2.45314,0.1178 3.99056,-0.695 1.035155,-0.4724 1.10475,-3.7492 0.467514,-4.2795 3.3638,-9.2608 4.086358,-11.5327 9.046118,-20.3867 3.288674,-5.8708 8.78635,-11.05924 13.44048,-15.71534 1.289464,4.50929 4.066578,10.57803 7.259043,15.35577 2.736039,4.09467 5.847556,7.12376 7.795383,8.73321 1.537237,1.27019 4.059144,3.71616 5.357574,4.59736 -0.86168,-0.2448 1.73783,2.4054 4.35135,3.1863 2.661416,0.7266 3.411846,0.1035 3.49259,-1.6635 0.0374,-0.8184 -0.901982,-2.2988 -0.362667,-3.2546 -0.893873,-0.4254 -2.41825,-0.5927 -3.590589,-1.04618 -4.170931,-1.61332 -8.507591,-5.26045 -10.51166,-8.03742 -4.420407,-6.1252 -8.325205,-11.1818 -8.982885,-18.3847 -0.21221,-2.3242 -0.633995,-3.5361 0.751385,-6.101 1.46402,-2.7105 4.210205,-5.13759 7.114775,-6.65349 1.94155,1.4402 4.704262,3.64672 6.847152,2.52692 1.73501,-0.9066 2.755113,-1.58353 2.247053,-3.45733 l 2.929192,-2.39368 c 1.09824,-0.7562 3.560356,-2.97779 2.166585,-5.60995 -1.689595,-3.19082 -4.174494,-1.89582 -6.337924,-0.67862 -0.758477,0.60762 -0.344696,0.0755 -2.45221,0.14347 -2.01296,-1.2465 -1.944735,-1.99803 -4.080505,-1.27783 z"
       id="path4157-4-2-4"
       inkscape:connector-curvature="0"
       sodipodi:nodetypes="cccccssccscssccscssssccccsccc" />
    <g
       id="g4344"
       style="fill:url(#pattern5836);fill-opacity:1;stroke:none">
      <path
         sodipodi:nodetypes="cssscssc"
         inkscape:connector-curvature="0"
         id="path4186"
         d="m 22.466797,1012.8086 c -1.244992,0.2479 -0.596431,2.5381 0.694305,4.9039 0.502506,0.921 1.893424,2.1994 3.403313,2.8811 2.148044,0.9698 4.591307,1.0578 6.425819,-0.8202 1.497724,-1.5332 1.202016,-3.6561 -0.281246,-4.3261 -0.156309,1.5323 -0.630446,2.2144 -2.018181,2.6244 -1.645332,0.4861 -3.438114,-0.078 -4.891572,-0.9784 -1.551578,-0.9613 -2.450232,-2.712 -3.332438,-4.2847 z"
         style="color:#000000;font-style:normal;font-variant:normal;font-weight:normal;font-stretch:normal;font-size:medium;line-height:normal;font-family:sans-serif;text-indent:0;text-align:start;text-decoration:none;text-decoration-line:none;text-decoration-style:solid;text-decoration-color:#000000;letter-spacing:normal;word-spacing:normal;text-transform:none;direction:ltr;block-progression:tb;writing-mode:lr-tb;baseline-shift:baseline;text-anchor:start;white-space:normal;clip-rule:nonzero;display:inline;overflow:visible;visibility:visible;opacity:1;isolation:auto;mix-blend-mode:normal;color-interpolation:sRGB;color-interpolation-filters:linearRGB;solid-color:#000000;solid-opacity:1;fill:#000000;fill-opacity:1;fill-rule:evenodd;stroke:none;stroke-width:2.83464575;stroke-linecap:butt;stroke-linejoin:miter;stroke-miterlimit:4;stroke-dasharray:none;stroke-dashoffset:0;stroke-opacity:1;color-rendering:auto;image-rendering:auto;shape-rendering:auto;text-rendering:auto;enable-background:accumulate" />
      <path
         sodipodi:nodetypes="cssscssc"
         inkscape:connector-curvature="0"
         id="path4186-9"
         d="m 74.650179,1005.3363 c -1.255318,0.2723 0.270216,3.7173 2.298285,5.053 1.00266,0.6604 2.2748,0.7098 3.462032,0.6826 2.460595,-0.057 5.144744,-0.7337 6.74913,-2.6808 2.056376,-2.4956 0.885664,-6.036 -1.913505,-5.3014 1.200591,1.2714 0.835733,3.2844 -0.292426,4.0739 -1.433656,1.0031 -4.04857,1.8747 -5.744955,1.4783 -1.92413,-0.4495 -3.225373,-2.2118 -4.558561,-3.3056 z"
         style="color:#000000;font-style:normal;font-variant:normal;font-weight:normal;font-stretch:normal;font-size:medium;line-height:normal;font-family:sans-serif;text-indent:0;text-align:start;text-decoration:none;text-decoration-line:none;text-decoration-style:solid;text-decoration-color:#000000;letter-spacing:normal;word-spacing:normal;text-transform:none;direction:ltr;block-progression:tb;writing-mode:lr-tb;baseline-shift:baseline;text-anchor:start;white-space:normal;clip-rule:nonzero;display:inline;overflow:visible;visibility:visible;opacity:1;isolation:auto;mix-blend-mode:normal;color-interpolation:sRGB;color-interpolation-filters:linearRGB;solid-color:#000000;solid-opacity:1;fill:#000000;fill-opacity:1;fill-rule:evenodd;stroke:none;stroke-width:2.83464575;stroke-linecap:butt;stroke-linejoin:miter;stroke-miterlimit:4;stroke-dasharray:none;stroke-dashoffset:0;stroke-opacity:1;color-rendering:auto;image-rendering:auto;shape-rendering:auto;text-rendering:auto;enable-background:accumulate" />
      <path
         sodipodi:nodetypes="ccsssc"
         inkscape:connector-curvature="0"
         id="path4308"
         d="m 24.507806,1009.8067 c -16.7732807,5.1637 -16.0306337,28.5719 -2.179379,38.8384 -7.293531,-0.3939 -13.0401327,-7.0067 -14.578427,-11.2829 -2.6684626,-7.4178 -2.3232233,-16.6993 -2.3232233,-16.6993 -0.4919733,-4.0342 3.8455721,-11.2608 9.4128163,-13.216 3.116452,-1.0944 7.103769,1.3444 9.668213,2.3598 z"
         style="fill:url(#pattern5836);fill-opacity:1;fill-rule:evenodd;stroke:none;stroke-width:0.35433072;stroke-linecap:butt;stroke-linejoin:miter;stroke-miterlimit:4;stroke-dasharray:none;stroke-opacity:1" />
      <path
         sodipodi:nodetypes="cccccscscccc"
         inkscape:connector-curvature="0"
         id="path4312"
         d="m 25.455844,1010.5545 c -0.879545,-0.2157 -2.931258,0.8801 -3.093592,2.2981 -0.472417,2.8498 4.119718,6.5885 4.154253,6.364 3.156455,1.0383 3.726275,0.5867 5.126524,0.088 1.621521,-0.9603 1.883254,-2.1926 1.149048,-3.624 -0.117081,-0.1707 2.088972,-0.9698 4.500646,-0.8142 1.172552,0.076 6.792343,1.8186 7.008105,0.4727 0.793042,-0.631 -5.321376,-4.3388 -7.538145,-3.9623 -0.896179,0.1522 -3.570881,0.5017 -4.942877,1.5638 -1.046344,1.4089 -1.192412,2.8896 -4.242641,2.74 -1.514831,-1.2682 -3.127238,-2.4833 -2.121321,-5.1265 z"
         style="fill:url(#pattern5836);fill-opacity:1;fill-rule:evenodd;stroke:none;stroke-width:0.35433072;stroke-linecap:butt;stroke-linejoin:miter;stroke-miterlimit:4;stroke-dasharray:none;stroke-opacity:1" />
      <path
         sodipodi:nodetypes="ccsssc"
         inkscape:connector-curvature="0"
         id="path4308-6"
         d="m 72.990711,1001.4972 c -14.140612,10.3947 -5.649527,33.4928 10.808328,38.6306 -7.017084,2.0276 -15.494402,-2.0764 -18.353944,-5.6084 -4.960393,-6.1269 -7.563024,-14.7553 -7.563024,-14.7553 -1.791854,-3.6477 -0.38402,-14.1669 4.230015,-17.8448 2.582892,-2.05877 7.238993,-4.51481 10.878625,-0.4221 z"
         style="fill:url(#pattern5836);fill-opacity:1;fill-rule:evenodd;stroke:none;stroke-width:0.35433072;stroke-linecap:butt;stroke-linejoin:miter;stroke-miterlimit:4;stroke-dasharray:none;stroke-opacity:1" />
      <path
         sodipodi:nodetypes="cccccscscccc"
         inkscape:connector-curvature="0"
         id="path4312-2"
         d="m 75.220354,1003.7861 c -0.694516,0.5812 0.03658,4.0084 1.08332,4.9787 2.017147,2.0678 8.311311,0.8299 8.150818,0.6692 2.705375,-1.9293 2.366228,-2.3434 2.793216,-3.7671 -0.355143,-0.9922 -0.925636,-1.628 -1.354847,-2.2544 -0.279005,-0.5093 2.452826,-1.2054 5.228434,-0.7466 3.112187,0.5143 6.523182,2.0589 6.729598,1.867 -0.389757,-2.7028 -6.271585,-6.90345 -10.235139,-6.05451 -2.341773,0.50158 -5.409731,2.24211 -5.392488,2.96611 -0.07768,1.8471 0.36269,2.7728 -0.240738,4.3539 -1.622444,0.3714 -2.375424,0.9955 -4.137499,-0.2001 z"
         style="fill:url(#pattern5836);fill-opacity:1;fill-rule:evenodd;stroke:none;stroke-width:0.35433072;stroke-linecap:butt;stroke-linejoin:miter;stroke-miterlimit:4;stroke-dasharray:none;stroke-opacity:1" />
    </g>
    <path
       style="fill:none;fill-rule:evenodd;stroke:#000000;stroke-width:1.0629921;stroke-linecap:butt;stroke-linejoin:miter;stroke-miterlimit:4;stroke-dasharray:none;stroke-opacity:1"
       d="m 92,1009.6122 c 0.662131,-0.8705 2.2133,-1.6041 3.125,-1 1.918193,1.2711 1.477639,4.7377 0.625,6.875 -0.678257,1.7002 -2.472496,4.4124 -4.125,3.625 -2.860985,-1.3631 -1.543606,-6.9776 0.375,-9.5 z"
       id="path4352"
       inkscape:connector-curvature="0"
       sodipodi:nodetypes="sssss" />
    <path
       style="fill:none;fill-rule:evenodd;stroke:#000000;stroke-width:1px;stroke-linecap:butt;stroke-linejoin:miter;stroke-opacity:1"
       d="m 36.75,1021.3622 c 1.104018,-2.0544 5.960705,1.1977 5.125,3.375 -2.463545,6.4185 -16.625,1.125 -16.625,1.125 0.125,-1.6516 8.543644,1.0012 11.5,-4.5 z"
       id="path4354"
       inkscape:connector-curvature="0"
       sodipodi:nodetypes="sscs" />
    <path
       style="color:#000000;font-style:normal;font-variant:normal;font-weight:normal;font-stretch:normal;font-size:medium;line-height:normal;font-family:sans-serif;text-indent:0;text-align:start;text-decoration:none;text-decoration-line:none;text-decoration-style:solid;text-decoration-color:#000000;letter-spacing:normal;word-spacing:normal;text-transform:none;direction:ltr;block-progression:tb;writing-mode:lr-tb;baseline-shift:baseline;text-anchor:start;white-space:normal;clip-rule:nonzero;display:inline;overflow:visible;visibility:visible;opacity:1;isolation:auto;mix-blend-mode:normal;color-interpolation:sRGB;color-interpolation-filters:linearRGB;solid-color:#000000;solid-opacity:1;fill:#000000;fill-opacity:1;fill-rule:evenodd;stroke:none;stroke-width:0.35433072;stroke-linecap:round;stroke-linejoin:round;stroke-miterlimit:4;stroke-dasharray:none;stroke-dashoffset:0;stroke-opacity:1;marker:none;color-rendering:auto;image-rendering:auto;shape-rendering:auto;text-rendering:auto;enable-background:accumulate"
       d="m 69.148438,948.68604 c -1.486084,-0.19181 -2.549191,1.0635 -3.003262,2.28634 -0.892249,2.40288 -1.332932,5.37692 -4.805596,5.11431 -4.414355,2.42631 -8.112119,6.48322 -9.545585,11.07672 -5.001572,5.08701 -9.595549,10.31906 -13.433103,16.29699 -4.715416,7.34541 -8.382481,15.58103 -11.305353,23.8144 -0.764314,2.153 -1.540308,1.8091 -3.306924,0.7146 -2.322612,-1.4389 -6.32528,-3.1389 -9.404615,-2.0572 -3.88461,1.3646 -7.4999415,3.4584 -9.32244,6.9287 -1.9280301,3.6713 -1.93896,8.7936 -1.5049005,12.8574 0.9401069,8.8015 3.6983734,18.9728 12.5862585,22.6538 14.036049,5.8131 33.152136,-5.0932 33.784373,-20.6174 0.314681,-7.7268 -3.71898,-17.0253 -12.253766,-18.1657 -2.837287,-0.3791 -6.409955,2.5741 -4.434681,-2.3129 4.055666,-10.03408 7.916893,-19.36236 16.104202,-27.94881 1.427788,-1.49739 3.201655,-3.78416 4.710726,-3.96725 0.350972,0.54896 0.570761,1.32068 0.949386,2.42698 2.636171,7.7026 6.953229,14.9606 13.308326,20.04745 -7.35508,1.43261 -13.834212,8.68153 -13.916431,15.95963 -0.07691,6.8078 2.931974,13.9192 7.217476,19.2599 3.401195,4.2386 7.671452,7.7694 12.906264,9.3053 7.45669,2.1878 17.801021,-0.4597 22.39433,-7.2265 6.511557,-9.5928 7.787637,-22.7432 2.35427,-32.9355 -3.077145,-5.77236 -11.833157,-7.73221 -17.188897,-3.56935 -1.271763,0.9885 -2.773329,0.53391 -4.208319,-0.0258 -3.444532,-1.34363 -7.598576,-5.46488 -8.625862,-6.65923 -3.778677,-4.39318 -5.764233,-7.73802 -7.529332,-12.57611 -1.430124,-3.91994 -3.183521,-6.77317 -1.973593,-10.79221 1.311381,-4.35604 6.864711,-9.26483 10.581564,-4.73819 3.092566,0.96159 4.744908,-0.4369 5.956387,-2.34653 0.735516,-1.15937 1.029488,-2.8141 2.187239,-3.36057 2.314768,-1.09259 3.649667,-2.90056 3.644038,-4.95425 -0.0067,-2.44655 -1.724284,-4.74428 -5.077811,-4.32103 -3.663427,1.78234 -5.481404,0.137 -7.844369,-0.16799 z m 4.908887,3.60018 c 0.389777,-0.14967 0.803749,-0.44685 1.258043,-0.94627 2.146208,-2.35941 4.996332,0.0496 5.043907,2.14761 0.02499,1.10207 -0.808882,1.82759 -2.331931,2.75902 -0.48664,0.29761 -1.104727,0.57873 -1.675422,0.90208 -0.225898,0.128 -1.770638,-0.66755 -2.144328,-1.84252 -0.566528,-1.7813 -0.1876,-2.14441 -0.150269,-3.01992 z m 0.617044,5.92646 c -0.450865,0.50196 -0.14064,0.939 0.221114,1.78152 -2.010373,4.50233 -6.216154,0.70919 -7.925523,-0.57702 -4.713797,2.1397 -9.5109,5.95401 -9.518395,11.61047 -0.0032,2.44301 2.530179,10.861 5.9367,15.70021 2.912676,4.13767 6.158502,8.54445 10.37736,11.20232 2.02329,1.27467 4.471271,2.34562 6.540748,3.26132 1.471507,0.6511 1.755196,2.2319 0.932952,3.6507 -0.501265,0.8649 -1.804019,0.8027 -3.357138,-0.3655 -2.139419,-1.6093 -4.583173,-3.9092 -6.646325,-6.02133 -0.917423,-0.9392 -2.272382,-1.63601 -3.172362,-2.48965 -2.081429,-1.97427 -3.618846,-4.04454 -5.486352,-6.34459 -3.02453,-3.72506 -5.066079,-8.71872 -6.66737,-13.18577 -0.7726,-2.15529 -1.405221,-3.36249 -1.840039,-5.62578 -0.32233,-1.67778 -0.441723,-2.9183 -0.243676,-3.92509 0.899714,-4.57376 4.869032,-6.79145 8.463629,-9.309 2.630927,-0.12854 3.893466,-1.32267 4.712265,-3.39141 1.036905,-1.32869 -0.01545,-4.39613 2.300777,-3.74218 1.386265,0.39139 2.395515,1.48591 3.450503,1.84838 -0.189087,0.33754 0.179139,3.12347 0.261732,3.30558 0.349407,0.77041 0.980696,1.68176 1.6594,2.61682 z m -22.291757,15.06648 c -6.020605,5.88773 -11.539725,12.03131 -15.167378,19.96056 -1.319126,2.88332 -3.014292,6.73638 -4.104353,9.75978 -1.031002,2.8597 -1.555008,4.0961 -2.388798,6.906 -0.177336,0.5977 0.729264,0.7139 0.57225,1.5217 -0.114492,0.5891 -0.221692,1.6881 -0.766738,2.2804 -0.51779,0.5627 -1.461203,0.6345 -2.051033,0.621 -0.993536,-0.023 -1.944762,-0.5826 -2.297639,-1.4943 -0.200764,-0.5187 -0.102176,-1.3205 0.02812,-1.779 0.222671,-0.7838 1.687226,-0.8142 1.831988,-1.3962 0.889009,-3.5739 1.854086,-5.3522 3.246267,-8.8409 2.285872,-5.72827 5.208911,-11.56075 8.67959,-16.6476 3.603689,-5.2818 7.037649,-9.62637 11.559188,-14.2098 0.05246,0.88639 0.364627,2.48882 0.858536,3.31836 z m 35.988482,25.89125 c 5.405853,-0.38711 9.088074,4.33249 10.292528,9.18659 2.543588,10.251 0.76705,22.9811 -8.186667,29.2178 -7.450154,5.1894 -18.149307,1.6348 -23.989142,-4.8801 -6.264593,-6.9887 -10.227901,-17.8203 -5.429219,-26.5653 2.229876,-3.7419 5.232398,-6.57923 9.484375,-5.4609 3.721864,0.9789 7.777966,8.3423 11.634765,5.5136 2.464726,-1.8077 -1.646006,-4.2579 2.210938,-5.7597 1.398927,-0.54472 2.547753,-1.14925 3.982422,-1.25199 z m -70.207032,9.42969 c 2.798538,0.041 5.385491,0.666 5.972112,2.688 0.213154,0.7348 0.136891,2.428 0.949251,3.6371 0.232294,0.3458 1.348111,1.2446 1.604816,1.417 1.066477,0.7161 3.244355,0.035 3.878894,-0.5984 0.894149,-0.8929 1.422334,-1.9363 2.213471,-2.4876 4.081354,-2.844 9.292759,-0.4895 11.824466,4.0871 4.443962,8.0334 2.355971,18.6872 -4.919143,24.3575 -6.808706,5.3068 -17.810688,8.2566 -24.802608,2.2806 -6.6935917,-5.721 -8.2002466,-15.6901 -7.4014571,-24.0969 0.5125319,-5.3941 4.7802781,-11.3705 10.6801981,-11.2844 z"
       id="path4157"
       inkscape:connector-curvature="0"
       sodipodi:nodetypes="ssccssssssssssscscsssssssssscssscscssscscccsssssssssssssccscsccsssssssssscccssssssssscsssssssssc" />
    <path
       style="fill:#ffffff;fill-opacity:1;fill-rule:evenodd;stroke:#00ff00;stroke-width:0.35433072;stroke-linecap:butt;stroke-linejoin:miter;stroke-miterlimit:4;stroke-dasharray:none;stroke-opacity:1"
       d="m 58.912825,957.6633 c -6.71611,2.6 -10.12677,-0.76291 -17.969667,5.93414 1.65047,-4.655 -1.905138,-6.03548 -4.600958,-8.17418 -9.11088,-5.37172 -17.22415,-1.96836 -18.96967,0.69194 -10.7132195,12.1429 -7.8477928,18.63361 -11.5732228,28.65901 -1.12396,4.3882 -2.1493768,9.38835 -0.4571068,11.89905 1.88913,3.46814 4.3172817,5.63964 6.4419416,5.10364 0.78512,-5.74069 4.986698,-10.81147 8.636038,-12.13917 8.89039,1.6609 16.36089,-2.67937 19.67463,-7.19147 2.84779,-3.8777 5.31793,-8.5873 0.27772,-14.3337 8.52801,-4.7167 8.28717,-3.23238 11.76517,-4.16158 z"
       id="path5951-1"
       inkscape:connector-curvature="0"
       sodipodi:nodetypes="ccccccccsccc" />
    <path
       style="color:#000000;font-style:normal;font-variant:normal;font-weight:normal;font-stretch:normal;font-size:medium;line-height:normal;font-family:sans-serif;text-indent:0;text-align:start;text-decoration:none;text-decoration-line:none;text-decoration-style:solid;text-decoration-color:#000000;letter-spacing:normal;word-spacing:normal;text-transform:none;direction:ltr;block-progression:tb;writing-mode:lr-tb;baseline-shift:baseline;text-anchor:start;white-space:normal;clip-rule:nonzero;display:inline;overflow:visible;visibility:visible;opacity:1;isolation:auto;mix-blend-mode:normal;color-interpolation:sRGB;color-interpolation-filters:linearRGB;solid-color:#000000;solid-opacity:1;fill:#000000;fill-opacity:1;fill-rule:evenodd;stroke:none;stroke-width:1.77165353;stroke-linecap:butt;stroke-linejoin:miter;stroke-miterlimit:4;stroke-dasharray:none;stroke-dashoffset:0;stroke-opacity:1;color-rendering:auto;image-rendering:auto;shape-rendering:auto;text-rendering:auto;enable-background:accumulate"
       d="m 24.136719,951.8457 c -9.261001,1.22916 -14.274036,12.08937 -16.2441429,19.73242 -1.1544447,4.88359 -2.194669,9.48049 -3.2226562,14.57816 -0.8011023,3.97258 -1.386462,8.22959 0.3398435,11.18937 0.9644212,1.75935 1.962916,3.15125 3.0898438,4.07805 1.1412938,0.9386 3.1297828,1.5658 4.4859058,1.2237 -0.119864,-2.6669 1.618524,-6.00972 3.318784,-8.15917 1.590196,-1.97397 3.515462,-3.40722 5.097656,-4.01953 9.085014,1.56034 16.719604,-2.5493 20.214844,-7.30859 1.452842,-1.97827 2.880888,-4.23956 3.259765,-6.86524 0.339963,-2.35599 -0.321044,-4.96613 -2.355468,-7.65625 3.435779,-1.81003 5.445945,-3.4837 6.594247,-3.57433 0.634244,-0.0501 2.203792,-0.25916 2.847769,-0.23976 0.643978,0.019 0.694582,-0.45755 1.65227,-0.71343 l 1.289672,-1.74524 c 2.14827,-0.18185 4.376342,-3.3303 6.660964,-5.75455 l -3.054688,0.66015 c -3.610776,0.54097 -5.216495,0.3299 -8.195312,0.79297 -2.458032,0.38212 -5.076994,1.39399 -7.97461,3.97071 0.009,-1.31217 -0.219872,-2.50464 -0.824218,-3.44727 -0.989629,-1.54357 -2.485921,-2.61438 -3.816407,-3.66992 -1.382615,-1.0969 -0.03187,-0.0257 -0.04883,-0.0371 -0.01695,-0.0114 -0.05273,-0.0312 -0.05273,-0.0312 -4.179378,-2.47291 -8.586023,-3.59809 -13.062502,-3.00395 z m 0.201172,1.75977 c 3.245693,-0.12175 6.391362,0.84439 9.197012,1.84824 2.40179,0.85935 4.58964,1.80068 6.090097,4.08926 0.751896,1.14684 0.939683,3.22802 0.183096,5.36191 1.276983,-0.92466 1.877098,-1.17245 2.462506,-1.40553 4.257931,-2.92319 5.197081,-3.26014 7.916898,-3.68294 1.960257,-0.30474 4.472929,-0.86115 6.800933,-1.33602 -1.898914,1.58737 -3.453209,2.07487 -3.796875,3.55504 -0.10079,0.85345 -1.324235,0.92603 -1.931219,0.75249 -0.555553,-0.0163 -1.879327,0.18196 -2.685623,0.24566 -1.612592,0.12727 -3.907297,2.10676 -8.223154,4.49379 l -0.96289,0.53125 0.726562,0.82618 c 2.393695,2.72906 2.915514,5.02308 2.607422,7.1582 -0.308091,2.13512 -1.538643,4.16892 -2.933594,6.06836 -6.575593,5.5153 -12.811413,7.57183 -19.263671,6.61718 -2.045792,0.74429 -4.200141,2.41419 -6,4.64843 -1.646661,2.04407 -2.892178,4.60567 -3.429688,7.37103 -0.600161,0.032 -1.182718,-0.1272 -1.871094,-0.6933 -0.855257,-0.7034 -1.7839814,-1.94056 -2.6972652,-3.61718 l -0.019531,-0.0352 -0.023437,-0.0351 c -1.4288529,-2.11993 -1.4067557,-5.55194 -0.3037306,-9.85841 1.7331154,-4.45501 2.4808208,-10.37539 3.4365428,-14.52442 1.110893,-4.69935 2.579977,-9.99289 8.296874,-15.53516 1.729239,-1.67642 4.277003,-2.76323 6.423829,-2.84376 z"
       id="path5951"
       inkscape:connector-curvature="0"
       sodipodi:nodetypes="scscscccsscccccccscssssssssccscccccccsccscccccccss" />
    <path
       style="color:#000000;font-style:normal;font-variant:normal;font-weight:normal;font-stretch:normal;font-size:medium;line-height:normal;font-family:sans-serif;text-indent:0;text-align:start;text-decoration:none;text-decoration-line:none;text-decoration-style:solid;text-decoration-color:#000000;letter-spacing:normal;word-spacing:normal;text-transform:none;direction:ltr;block-progression:tb;writing-mode:lr-tb;baseline-shift:baseline;text-anchor:start;white-space:normal;clip-rule:nonzero;display:inline;overflow:visible;visibility:visible;opacity:1;isolation:auto;mix-blend-mode:normal;color-interpolation:sRGB;color-interpolation-filters:linearRGB;solid-color:#000000;solid-opacity:1;fill:#000000;fill-opacity:1;fill-rule:evenodd;stroke:none;stroke-width:1.0629921;stroke-linecap:butt;stroke-linejoin:miter;stroke-miterlimit:4;stroke-dasharray:none;stroke-dashoffset:0;stroke-opacity:1;color-rendering:auto;image-rendering:auto;shape-rendering:auto;text-rendering:auto;enable-background:accumulate"
       d="m 30.077839,963.64851 c 2.903408,2.75812 1.082298,1.77107 4.212464,4.17393 0.923174,0.71532 -1.766356,0.44841 -2.421888,0.71138 -2.534689,0.39062 -5.172137,0.35583 -7.604743,1.24011 -1.51541,-0.80476 -3.732871,-0.95888 -5.41053,-1.01829 -1.317956,0.17222 -4.133053,0.97103 -5.010335,1.45041 1.582049,0.16927 3.534106,-0.35234 5.217286,-0.68264 2.030263,0.0715 1.814038,0.64221 3.838345,0.88088 -3.899619,2.23163 -6.453095,6.18543 -8.16211,10.23633 -1.80967,-0.12745 -2.780638,1.0939 -3.963233,2.71148 -0.551196,0.91577 -0.232111,1.02043 -1.4803185,1.24095 1.3452085,1.28538 2.2750905,-1.92673 3.5201095,-2.48492 0.552469,-0.45558 2.113779,-1.06786 1.243948,0.33097 -1.363579,4.48648 -3.052582,8.47117 -3.699412,13.57262 0.347744,0.56825 1.614264,-4.26562 1.970979,-5.23409 1.001506,-3.71089 1.443769,-5.14559 2.685271,-7.8538 0.60652,0.76828 -0.510662,4.08266 -0.605753,8.06031 -0.05792,1.39186 -0.628496,4.02911 0.256143,4.26391 -0.280073,-2.22448 0.475026,-4.43889 0.763413,-6.63692 0.301495,-2.3338 1.050868,-4.81015 0.287836,-7.12158 0.100244,-1.26477 1.047062,-2.53588 1.625911,-3.7265 1.56814,-2.68608 3.658738,-5.19779 6.477137,-6.62438 1.055831,3.20286 0.03101,6.60192 -0.558691,9.79486 -0.324138,1.90558 -0.959866,3.8814 -0.49209,5.81452 0.398866,-1.23244 0.500796,-2.06952 0.781102,-3.06832 0.492355,-4.14806 2.313878,-7.3836 1.571609,-11.60248 -0.541637,-1.97514 1.873563,-1.709 3.012983,-2.03281 2.46028,-0.30441 4.930522,-0.53625 7.3804,-0.91944 1.216656,3.23336 -0.323661,6.6111 -1.218273,9.71875 -0.672949,2.22304 -1.31423,4.65475 -0.562977,6.94336 0.320834,-1.40312 0.29728,-2.31143 0.365167,-3.26958 0.116531,-4.67859 3.595433,-7.83601 2.734446,-12.59206 -0.879626,-1.93498 3.327728,-1.28707 4.170017,-2.70521 -0.877935,-0.37337 -1.815999,-0.32966 -2.355568,0.14497 -1.962049,1.10429 -3.613771,0.16464 -4.997292,-1.32412 -2.07743,-2.87566 -6.643408,-4.88893 -10.100134,-6.34985 -0.608724,0.96662 5.383471,2.92294 6.528781,3.95725 z"
       id="path5953"
       inkscape:connector-curvature="0"
       sodipodi:nodetypes="ccccccccccccccccccccccccccccccccccccc" />
  </g>
</svg>
