<?xml version="1.0" encoding="UTF-8" standalone="no"?>
<svg
   xmlns:dc="http://purl.org/dc/elements/1.1/"
   xmlns:cc="http://creativecommons.org/ns#"
   xmlns:rdf="http://www.w3.org/1999/02/22-rdf-syntax-ns#"
   xmlns:svg="http://www.w3.org/2000/svg"
   xmlns="http://www.w3.org/2000/svg"
   xmlns:sodipodi="http://sodipodi.sourceforge.net/DTD/sodipodi-0.dtd"
   xmlns:inkscape="http://www.inkscape.org/namespaces/inkscape"
   id="svg2"
   xml:space="preserve"
   overflow="visible"
   viewBox="0 0 321.629 340.27"
   enable-background="new 0 0 321.629 340.27"
   version="1.1"
   sodipodi:docname="035.svg"
   inkscape:version="0.92.4 (5da689c313, 2019-01-14)"><defs
   id="defs875">
		
		
		
		
		
		
		
		
		
		
		
		
		
		
	</defs><sodipodi:namedview
   pagecolor="#ffffff"
   bordercolor="#666666"
   borderopacity="1"
   objecttolerance="10"
   gridtolerance="10"
   guidetolerance="10"
   inkscape:pageopacity="0"
   inkscape:pageshadow="2"
   inkscape:window-width="1920"
   inkscape:window-height="1133"
   id="namedview873"
   showgrid="false"
   inkscape:zoom="1.9804061"
   inkscape:cx="206.14996"
   inkscape:cy="162.25067"
   inkscape:window-x="0"
   inkscape:window-y="0"
   inkscape:window-maximized="1"
   inkscape:current-layer="svg2" />
	<path
   d="M 271.96484 0 C 270.51184 -0.048625 267.90122 2.1142031 265.51172 6.5332031 C 261.47672 13.995203 260.50928 14.956812 258.61328 13.382812 C 257.61328 12.551813 257.31741 11.080344 257.69141 8.7773438 C 258.47141 3.9703433 257.3457 0.28515625 255.0957 0.28515625 C 253.0117 0.28515625 252.03272 2.8671094 252.01172 8.4121094 C 251.99672 12.301109 249.9395 14.861219 247.5625 13.949219 C 246.7595 13.641219 245.61834 11.453891 245.02734 9.0878906 C 243.18434 1.7138906 240.47114 -1.1814531 237.61914 1.1855469 C 236.23014 2.3365469 236.26341 2.9678125 237.94141 7.3828125 C 239.77041 12.195813 239.7703 12.343016 237.9043 14.541016 L 235.99805 16.785156 L 233.74805 13.787109 C 232.51105 12.138109 230.28759 9.4381094 228.80859 7.7871094 C 226.32159 5.0121094 225.99475 4.9071563 224.46875 6.4101562 C 222.93575 7.9211563 222.9393 8.2751575 224.5293 11.410156 C 225.4693 13.267156 226.91523 15.557047 227.74023 16.498047 C 229.30123 18.279047 228.84081 21.285156 227.00781 21.285156 C 226.42781 21.285156 223.99366 19.477531 221.59766 17.269531 C 218.74066 14.635531 216.68214 13.468953 215.61914 13.876953 C 213.36014 14.742953 213.5522 15.594938 217.1582 20.710938 C 219.8062 24.466938 220.11016 25.443281 219.03516 26.738281 C 217.23516 28.906281 215.61481 28.674141 212.13281 25.744141 C 209.14581 23.230141 209.10148 23.224141 208.02148 25.244141 C 206.83848 27.456141 207.70831 29.967281 210.44531 32.238281 C 212.67931 34.093281 212.35972 37.872969 209.76172 40.292969 C 207.71072 42.202969 206.72472 42.326156 198.01172 41.785156 C 176.60372 40.455156 163.17808 44.314328 152.95508 54.736328 C 146.26308 61.560328 144.98562 63.529828 137.51562 78.548828 C 134.02363 85.569828 128.76603 94.539469 125.83203 98.480469 C 120.15803 106.10347 120.17695 106.0772 112.50195 117.4082 C 109.75395 121.4652 102.77705 131.08516 96.998047 138.78516 C 91.220047 146.48416 85.819094 153.73548 84.996094 154.89648 C 73.595094 170.96948 72.381328 173.69839 75.486328 176.27539 C 79.023328 179.21039 90.685145 174.64556 110.74414 162.47656 C 118.85814 157.55356 127.07205 152.7393 128.99805 151.7793 C 133.64405 149.4593 144.78119 141.36361 163.11719 126.97461 C 180.27919 113.50861 182.40077 112.25819 184.50977 114.36719 C 185.75877 115.61619 185.64209 116.45692 183.62109 120.79492 C 181.09109 126.22792 171.62208 138.11903 164.08008 145.33203 C 157.73308 151.40303 139.72705 165.18809 133.49805 168.74609 C 130.74805 170.31709 123.77205 174.05473 117.99805 177.05273 C 112.22305 180.05173 107.04805 182.84191 106.49805 183.25391 C 105.94705 183.66491 103.47305 184.69973 100.99805 185.55273 C 98.522035 186.40473 93.348047 188.29781 89.498047 189.75781 C 78.094047 194.08381 74.091141 195.18411 62.119141 197.28711 C 47.548141 199.84711 43.558047 199.84516 40.998047 197.28516 C 36.262047 192.55516 39.189234 187.10555 54.490234 172.18555 C 98.572234 129.19255 119.0933 97.161078 123.0293 65.205078 C 124.4503 53.665078 123.39969 45.290531 119.17969 34.519531 C 114.38069 22.270531 107.56987 15.221234 93.671875 8.1152344 C 79.528875 0.88523427 53.081469 0.82804677 39.730469 7.9980469 C 33.140469 11.537047 23.304125 21.324734 19.828125 27.802734 C 16.559125 33.894734 13.574094 49.837063 14.496094 56.289062 C 16.160094 67.931062 19.846469 75.552531 27.605469 83.394531 C 41.976469 97.915531 62.420625 99.104984 80.265625 86.458984 C 87.740625 81.161984 95.089203 67.216313 95.158203 58.195312 C 95.234203 48.521313 92.481719 41.758344 86.136719 36.027344 C 80.738719 31.151344 76.968766 29.333406 69.884766 28.191406 C 63.454766 27.156406 56.219516 28.607936 51.103516 31.960938 C 38.739516 40.062936 37.733031 59.286844 49.207031 68.214844 C 53.089031 71.236844 61.2495 72.833797 65.8125 71.466797 C 73.2395 69.240797 78.679969 60.400922 75.917969 55.044922 C 72.640969 48.688922 68.253734 46.851219 62.552734 49.449219 C 59.202734 50.975219 59.335859 52.733266 63.005859 55.447266 C 66.444859 57.990266 66.877313 60.753859 64.070312 62.255859 C 59.064312 64.934859 53.640814 62.521375 51.382812 56.609375 C 49.280812 51.105375 50.518828 46.088047 55.048828 41.748047 C 57.840828 39.073047 58.776314 38.791016 64.820312 38.791016 C 72.937314 38.791016 77.190719 40.949266 81.386719 47.197266 C 85.331719 53.070266 85.851315 58.773953 83.070312 65.626953 C 80.742312 71.363953 76.959547 75.508934 70.560547 79.335938 C 65.230547 82.521935 51.091984 83.359 44.583984 80.875 C 39.062984 78.765 33.918906 73.789281 30.878906 67.613281 C 28.857906 63.508281 28.503906 61.297859 28.503906 52.755859 C 28.503906 38.249859 32.388141 30.162953 42.369141 23.876953 C 49.314141 19.513953 54.634172 18.139781 64.451172 18.175781 C 79.129172 18.229781 87.922594 21.519203 96.808594 30.283203 C 102.03659 35.438203 104.49775 41.116953 105.84375 51.126953 C 107.12175 60.626953 105.97109 69.940434 101.99609 82.273438 C 94.99911 103.98544 83.925469 119.04939 47.605469 156.27539 C 27.268469 177.11639 18.616094 188.51986 13.371094 201.38086 C 8.6470925 212.96386 7.6295156 217.45139 7.7285156 226.27539 C 7.8205156 234.58739 7.7568125 234.83289 4.7578125 237.33789 C 2.2048125 239.46989 1.8068125 240.3612 2.3828125 242.6582 C 2.9888125 245.0752 3.4261563 245.34286 5.9101562 244.79688 C 10.013156 243.89588 10.489016 246.38661 7.0410156 250.72461 C 2.8520156 255.99761 4.6067656 261.07528 9.5097656 257.86328 C 13.005766 255.57228 14.789438 255.87311 19.398438 259.53711 C 23.229437 262.58011 31.403953 266.67447 42.001953 270.85547 C 44.475953 271.83247 48.388312 273.45013 50.695312 274.45312 C 53.002313 275.45513 55.356781 276.27734 55.925781 276.27734 C 57.834781 276.27734 77.414141 284.41534 84.494141 288.15234 C 91.427141 291.81134 108.21147 302.22645 112.35547 305.43945 C 113.53547 306.35545 114.26361 307.34181 113.97461 307.63281 C 113.42261 308.18781 80.688 301.04233 75.5 299.23438 C 73.85 298.66037 66.875 297.3322 60 296.2832 C 53.125 295.2342 43 293.68203 37.5 292.83203 C 27.116 291.22903 13.588875 290.80897 8.046875 291.91797 C 4.223875 292.68197 2.2905316 296.42136 3.8945312 299.94336 C 4.8415314 302.02136 5.3647035 302.13089 11.845703 301.58789 C 18.209703 301.05389 18.877875 301.18181 19.921875 303.13281 C 21.240875 305.59681 20.837266 306.52633 12.447266 320.36133 C 9.450264 325.30333 7 329.71039 7 330.15039 C 7 330.59039 8.1468281 331.48109 9.5488281 332.12109 C 11.805828 333.14909 12.387344 332.96825 14.652344 330.53125 C 16.057344 329.01825 18.118422 325.98025 19.232422 323.78125 C 25.807422 310.80425 32.243672 304.12453 35.263672 307.14453 C 36.560672 308.44153 35.849812 310.01225 27.507812 324.28125 C 21.810813 334.02625 21.193547 336.50156 24.310547 337.10156 C 27.394547 337.69556 30.905609 333.43148 38.474609 319.89648 C 42.235609 313.16848 44.990125 310.68083 47.578125 311.67383 C 50.239125 312.69583 49.007609 316.34636 42.974609 325.31836 C 39.661609 330.24636 36.679609 335.6283 36.349609 337.2793 L 36.351562 337.31641 C 35.818562 339.98641 36.018953 340.31711 38.126953 340.28711 C 41.602953 340.26511 42.176344 339.67073 48.277344 329.80273 C 54.490344 319.75073 59.105141 314.56559 62.619141 313.68359 C 66.289141 312.76159 74.129141 314.03987 87.869141 317.79688 C 107.04614 323.04188 133.33941 329.30273 136.19141 329.30273 C 139.85341 329.30273 143.59081 325.94088 145.50781 320.92188 C 147.09881 316.75387 147.08459 316.39006 145.18359 312.66406 C 142.93359 308.25306 128.79909 294.31392 121.99609 289.79492 C 119.51809 288.14892 114.56809 284.642 110.99609 282 C 107.42309 279.359 97.378828 272.66691 88.673828 267.12891 C 79.967828 261.58991 72.592156 256.40452 72.285156 255.60352 C 71.977156 254.80452 72.349281 253.55508 73.113281 252.83008 C 74.975281 251.06208 84.499062 248.42997 91.789062 247.66797 C 97.600062 247.06097 97.794465 247.12178 102.10547 250.92578 C 104.52247 253.05878 106.64236 255.12177 106.81836 255.50977 C 107.54436 257.11677 117.77911 263.74122 123.91211 266.57422 C 129.52811 269.16822 131.75595 269.63194 139.00195 269.71094 C 146.44595 269.79194 148.18495 269.45505 153.00195 266.99805 C 166.67295 260.02505 171.87667 251.60684 176.51367 228.96484 C 178.40767 219.71884 179.84159 216.35164 186.18359 206.26562 C 191.15459 198.35862 205.71728 184.51066 216.98828 176.97266 C 228.21628 169.46366 228.20585 172.66552 216.92188 196.97852 C 209.44988 213.07852 197.6437 255.90969 195.4707 274.80469 C 193.6177 290.92669 196.2387 303.57127 201.7207 304.94727 C 210.5587 307.16527 224.57503 295.32069 262.83203 253.30469 C 279.43703 235.06669 285.44895 229.43053 293.00195 225.01953 C 297.99095 222.10553 315.53469 204.47689 319.67969 198.21289 C 322.01369 194.68589 322.15433 194.02937 320.86133 192.73438 C 319.56633 191.44037 318.6305 192.04941 313.0625 197.81641 C 306.8735 204.22841 303.51806 205.95911 307.78906 200.53711 C 314.76906 191.67511 321.12908 181.22919 320.83008 179.11719 C 320.32608 175.56219 317.94775 176.34969 314.21875 181.30469 C 308.20375 189.29769 302.66831 195.30469 301.32031 195.30469 C 298.52231 195.30469 300.24795 190.88972 306.12695 183.01172 C 312.64995 174.26572 316.00391 167.69439 316.00391 163.65039 C 316.00391 159.36439 312.068 161.036 309 166.625 C 307.543 169.276 303.23673 175.74023 299.42773 180.99023 C 286.62173 198.64423 283.5663 202.80169 283.0293 203.30469 C 282.5093 203.78969 275.68791 212.16622 265.50391 224.82422 C 256.19991 236.38922 234.09648 260.77395 228.52148 265.62695 C 222.51448 270.85295 217.15331 273.14002 215.82031 271.04102 C 215.38731 270.36002 215.02853 268.52684 215.01953 266.96484 C 215.00053 263.51884 220.12698 241.10869 222.83398 232.80469 C 227.33398 218.99869 237.28647 190.26969 239.98047 183.30469 C 246.86547 165.50569 248.75512 149.00105 244.45312 144.24805 C 239.60713 138.89305 230.49214 141.81742 221.11914 151.73242 C 202.23314 171.71042 196.27791 177.47498 185.50391 186.20898 C 174.86491 194.83198 159.26691 205.01744 147.50391 211.02344 C 145.30391 212.14644 138.55391 215.57839 132.50391 218.65039 C 126.45291 221.72339 120.96464 225.10888 120.30664 226.17188 C 117.74064 230.31987 123.16906 240.8875 131.16406 247.3125 C 135.39606 250.7135 139.72009 252.32248 144.49609 252.27148 C 152.93909 252.18248 158.61214 239.28795 152.36914 234.37695 C 148.85514 231.61295 143.44289 231.61581 141.96289 234.38281 C 140.20989 237.65881 141.52147 239.64803 144.98047 238.95703 C 148.87847 238.17703 149.95956 240.11039 146.97656 242.52539 C 142.62756 246.04739 134.99153 241.80191 135.01953 235.87891 C 135.05253 229.08791 140.74211 224.30469 148.78711 224.30469 C 154.63111 224.30469 158.58614 226.5642 160.99414 231.2832 C 163.77414 236.7322 163.56881 242.78183 160.38281 249.17383 C 156.80681 256.35083 151.80038 259.59305 143.48438 260.12305 C 137.96437 260.47405 136.39623 260.1292 130.61523 257.2832 C 123.98223 254.0182 120.03917 250.14072 114.70117 241.63672 C 113.26217 239.34472 111.78969 236.29633 111.42969 234.86133 C 110.65969 231.79333 107.65458 229.91037 104.64258 230.60938 C 103.46658 230.88337 94.404859 233.21311 84.505859 235.78711 C 62.056859 241.62311 49.874453 243.60505 44.814453 242.24805 C 39.446453 240.80905 38.200187 235.30469 43.242188 235.30469 C 44.408188 235.30469 46.744594 234.88323 48.433594 234.36523 C 50.121594 233.84923 58.480859 231.77005 67.005859 229.74805 C 84.854859 225.51305 103.81886 218.40627 133.50586 204.82227 C 152.13086 196.29827 167.59386 186.92752 181.50586 175.72852 C 198.81286 161.79652 199.31977 161.22069 214.00977 138.80469 C 230.44977 113.71769 231.22886 112.96828 241.00586 112.86328 C 245.05886 112.82028 248.47886 113.64686 254.00586 116.00586 C 266.46486 121.32186 275.74234 123.6962 283.90234 123.6582 C 289.92034 123.6302 291.55034 123.27944 292.65234 121.77344 C 295.20134 118.28544 294.26186 116.57109 288.25586 113.74609 C 272.92386 106.53709 263.02647 97.045297 268.60547 94.904297 C 269.48547 94.566297 276.43959 93.844781 284.05859 93.300781 C 298.77459 92.248781 308.16589 89.741766 309.96289 86.384766 C 310.88689 84.659766 309.6618 82.304684 307.8418 82.304688 C 307.4238 82.304688 304.58797 81.372422 301.54297 80.232422 C 296.82197 78.466422 296.00586 77.786141 296.00586 75.619141 C 296.00586 73.173141 296.17586 73.104906 300.50586 73.753906 C 304.93586 74.418906 305.00366 74.384234 304.97266 71.615234 C 304.92966 68.074234 302.98609 65.814813 295.74609 60.882812 C 290.78509 57.504812 289.69911 56.169531 287.91211 51.269531 C 285.45611 44.538531 278.61359 36.332937 272.43359 32.710938 C 266.89359 29.464938 256.6932 26.3235 251.6582 26.3125 C 235.2122 26.2805 211.12486 46.364063 219.75586 52.914062 C 220.71786 53.645063 223.93148 55.488766 226.89648 57.009766 C 235.90548 61.634766 239.71789 70.232 237.08789 80 C 235.64089 85.373 228.43114 91.918562 222.24414 93.476562 C 219.81814 94.088563 217.70106 95.087266 217.53906 95.697266 C 217.37706 96.307266 216.46662 100.34116 215.51562 104.66016 C 213.27863 114.81616 207.83259 125.57825 197.93359 139.40625 C 184.10759 158.72225 176.65648 166.23305 160.77148 176.87305 C 150.90748 183.47805 121.05186 198.56725 109.50586 202.78125 C 104.00586 204.78825 94.779859 208.16039 89.005859 210.27539 C 60.666859 220.65339 39.7455 224.45711 35.3125 220.03711 C 33.9475 218.67511 33.786186 217.87559 34.617188 216.55859 C 35.749187 214.76459 36.633344 214.50362 52.152344 211.39062 C 83.953344 205.01063 124.9393 188.43681 150.1543 171.75781 C 164.7153 162.12581 181.45491 145.1753 190.50391 130.9043 C 200.85591 114.5763 203.46617 104.70484 198.95117 98.964844 C 194.89417 93.806844 183.26177 93.285172 176.38477 97.951172 C 174.47777 99.245172 172.70341 100.30664 172.44141 100.30664 C 171.15041 100.30664 145.79986 118.84683 141.00586 123.29883 C 133.52086 130.24783 123.28094 138.50292 118.83594 141.16992 C 113.59594 144.31292 112.98878 142.14072 117.67578 137.01172 C 119.79078 134.69872 124.57931 127.84806 128.32031 121.78906 C 142.61131 98.650072 154.66884 85.888922 168.46484 79.294922 C 174.53184 76.396922 186.78672 75.494641 195.51172 77.306641 C 200.45572 78.332641 202.1027 79.255906 205.4707 82.878906 C 210.2937 88.068906 214.01989 89.635578 219.46289 88.767578 C 223.81089 88.074578 230.26708 84.197531 232.58008 80.894531 C 237.17608 74.333531 231.11684 63.556734 221.21484 60.677734 C 214.26884 58.658734 211.80916 55.127234 213.16016 49.115234 C 215.63416 38.104234 225.36775 28.157281 239.09375 22.613281 C 244.81875 20.300281 246.36625 20.096375 254.28125 20.609375 C 264.03025 21.240375 271.74256 24.267797 280.35156 30.841797 C 283.04356 32.896797 286.02927 34.303734 287.69727 34.302734 C 290.48327 34.301734 309.00781 23.180766 309.00781 21.509766 C 309.00781 20.331766 306.78519 18.304688 305.49219 18.304688 C 304.88119 18.304688 301.32194 20.355328 297.58594 22.861328 C 291.05594 27.240328 287.1253 28.204719 286.2793 25.636719 C 286.0683 24.994719 288.73217 22.108656 292.20117 19.222656 C 298.71817 13.798656 300.05253 11.024906 296.39453 10.503906 C 294.98753 10.302906 292.40383 11.916172 288.67383 15.326172 C 284.79683 18.869172 282.38428 20.352906 280.86328 20.128906 C 277.22028 19.592906 277.62459 17.626375 282.43359 12.484375 C 284.94659 9.797375 287.00586 7.321375 287.00586 6.984375 C 287.00586 6.648375 286.02641 5.8485 284.81641 5.1875 C 282.83541 4.1275 282.11561 4.5995465 276.97461 10.310547 C 269.23361 18.912547 266.28061 16.990422 271.47461 6.7324219 C 273.71411 2.3089219 273.41784 0.048625 271.96484 0 z M 255.63086 45.787109 C 257.17014 45.720938 258.79784 46.007906 260.43359 46.691406 C 264.64459 48.451406 267.00391 51.818266 267.00391 56.072266 C 267.00391 60.465266 265.59344 62.926437 262.02344 64.773438 C 257.27344 67.224436 254.46234 66.6525 249.90234 62.3125 L 249.91016 62.3125 C 246.10716 58.6945 245.78612 58.008969 246.32812 54.667969 C 247.18988 49.354219 251.01302 45.985625 255.63086 45.787109 z M 189.49414 48.349609 C 194.49552 48.260484 199.47348 48.566594 202.14648 49.308594 C 204.77648 50.039594 205.96887 51.017266 206.42188 52.822266 C 207.15387 55.737266 205.39144 59.647516 203.64844 58.978516 C 198.98144 57.187516 189.63192 56.132312 183.41992 56.695312 C 179.50124 57.05144 174.98595 57.717049 173.38672 58.173828 C 170.31772 59.053828 166.00195 58.008766 166.00195 56.384766 C 166.00195 54.778766 171.60917 51.306719 176.70117 49.761719 C 179.46767 48.922219 184.49277 48.438734 189.49414 48.349609 z M 255.83594 51.285156 C 250.84894 51.285156 249.73967 57.426687 254.38867 59.304688 C 257.35867 60.503687 258.41883 60.460938 259.79883 59.085938 L 259.80078 59.085938 C 260.46078 58.425938 261 56.939156 261 55.785156 C 261 52.911156 259.13394 51.285156 255.83594 51.285156 z M 190.59375 63.900391 C 196.82255 63.887771 198.31114 64.259859 199.93164 65.724609 C 201.11164 66.789609 201.9423 68.354125 201.7793 69.203125 C 201.5193 70.510125 199.21828 70.750625 186.73828 70.765625 C 170.39828 70.787625 170 70.736391 170 68.650391 C 170 65.926391 176.88914 64.077734 187.61914 63.927734 C 188.71664 63.912359 189.70392 63.902193 190.59375 63.900391 z M 217.70508 67.607422 C 219.42097 67.694539 221.18719 68.417531 222.8125 69.785156 C 226.6845 73.043156 226.84137 75.473891 223.35938 78.212891 L 223.36523 78.212891 C 216.15523 83.885891 206.14414 77.150435 211.74414 70.398438 C 213.37483 68.434188 215.49893 67.495414 217.70508 67.607422 z M 290.07617 82.660156 C 298.28291 82.683688 298.99609 83.057781 298.99609 84.332031 C 298.99609 86.948031 296.98586 87.314406 277.75586 88.191406 C 260.51286 88.975406 256.78463 89.798516 255.51562 93.103516 C 254.11463 96.755516 264.795 106.9702 276.75 113.4082 C 280.187 115.2592 283 117.1133 283 117.5293 C 282.98229 118.81104 277.72358 118.29132 272.48242 116.48438 C 265.06942 113.92137 258.91336 110.00397 254.10938 104.79297 C 245.37338 95.313968 245.44809 89.789234 254.37109 85.365234 C 258.98009 83.082234 260.34509 82.935422 279.12109 82.732422 C 283.77334 82.682172 287.34059 82.652312 290.07617 82.660156 z "
   id="path7" /><path
   d="M 292.64648 288.49414 C 291.23251 288.47796 289.72502 288.55552 288.10352 288.7207 C 277.07652 289.8457 268.46497 296.61308 265.54297 306.45508 C 263.71497 312.60908 263.63023 315.41858 265.11523 320.76758 C 267.51623 329.41758 274.369 335.99216 283.5 338.41016 L 283.50391 338.4043 C 287.53391 339.4743 299.3625 338.57406 303.3125 336.91406 C 311.4725 333.46506 316.33375 324.70806 316.21875 313.66406 C 316.12875 305.00106 314.11183 300.49064 307.67383 294.55664 C 303.16527 290.40152 298.77371 288.56426 292.64648 288.49414 z M 294.5 303.28711 C 303.365 303.28711 307.11508 316.34494 300.08008 322.71094 L 300.07617 322.71289 C 295.85617 326.53289 284.56641 325.09188 282.06641 320.42188 C 277.85441 312.54787 284.572 303.28711 294.5 303.28711 z "
   id="path23" /><path
   inkscape:connector-curvature="0"
   d="m 275.32,171.88 c -6.204,-2.813 -8.635,-9.879 -5.882,-17.089 2.31,-6.047 6.583,-9.51 11.732,-9.51 8.197,0 14.236,4.884 15.367,12.429 0.801,5.34 -2.059,11.574 -6.164,13.445 -4.38,2 -11.5,2.34 -15.06,0.72 z"
   id="path27" /><path
   d="M 20.300781 105.54492 C 15.611758 105.4995 12.75975 106.85809 7.265625 111.03516 C 1.853625 115.14916 5.1458837e-17 119.14169 0 126.67969 C 0 130.34969 0.6151875 134.80031 1.3671875 136.57031 C 3.3881875 141.32431 9.3101719 146.87937 14.201172 148.60938 L 14.201172 148.60742 C 19.669172 150.53742 26.147172 150.66797 30.326172 148.91797 C 38.420172 145.53597 45.936297 131.95919 44.404297 123.49219 C 42.461297 112.76019 35.864531 107.0622 23.894531 105.7832 C 22.561594 105.6407 21.382864 105.5554 20.300781 105.54492 z M 20.935547 116.38477 C 21.78848 116.38406 22.701984 116.46234 23.677734 116.62109 C 28.253734 117.36309 30.405422 119.35708 31.857422 124.20508 C 33.280422 128.95508 32.0895 132.784 28.1875 136 L 28.1875 135.99609 C 24.6225 138.93609 20.293469 138.84609 15.730469 135.74609 C 12.247469 133.37909 12 132.87339 12 128.15039 C 12 120.30164 14.965012 116.38969 20.935547 116.38477 z "
   id="path29" /><path
   inkscape:connector-curvature="0"
   d="m 167.68,20.834 c -9.085,-3.24 -10.008,-12.535 -1.798,-18.114 5.79,-3.935 12.407,-2.699 17.031,3.18 4.117,5.234 1.939,11.187 -5.294,14.472 -4.87,2.211 -5.02,2.218 -9.94,0.462 z"
   id="path33" />
<metadata
   id="metadata870"><rdf:RDF><cc:Work><dc:format>image/svg+xml</dc:format><dc:type
         rdf:resource="http://purl.org/dc/dcmitype/StillImage" /><cc:license
         rdf:resource="http://creativecommons.org/licenses/publicdomain/" /><dc:publisher><cc:Agent
           rdf:about="http://openclipart.org/"><dc:title>Openclipart</dc:title></cc:Agent></dc:publisher><dc:title>Ancient Mexico Motif (1)</dc:title><dc:date>2008-01-25T22:03:50</dc:date><dc:description>Henze, W. (1958). Ornament, Dekor und Zeichen. Dresden: Verlag der Kunst. Note: Veroeffentlicht unter der Lizenznummer 413-455/3/58</dc:description><dc:source>http://openclipart.org/detail/11760/ancient-mexico-motif-(1)-by-cibo00</dc:source><dc:creator><cc:Agent><dc:title>cibo00</dc:title></cc:Agent></dc:creator><dc:subject><rdf:Bag><rdf:li>art</rdf:li><rdf:li>clip art</rdf:li><rdf:li>clipart</rdf:li><rdf:li>externalsource</rdf:li><rdf:li>image</rdf:li><rdf:li>media</rdf:li><rdf:li>mexico</rdf:li><rdf:li>monkey</rdf:li><rdf:li>png</rdf:li><rdf:li>public domain</rdf:li><rdf:li>svg</rdf:li></rdf:Bag></dc:subject></cc:Work><cc:License
       rdf:about="http://creativecommons.org/licenses/publicdomain/"><cc:permits
         rdf:resource="http://creativecommons.org/ns#Reproduction" /><cc:permits
         rdf:resource="http://creativecommons.org/ns#Distribution" /><cc:permits
         rdf:resource="http://creativecommons.org/ns#DerivativeWorks" /></cc:License></rdf:RDF></metadata></svg>