<?xml version="1.0" encoding="UTF-8" standalone="no"?>
<!-- Created with Inkscape (http://www.inkscape.org/) -->

<svg
   xmlns:dc="http://purl.org/dc/elements/1.1/"
   xmlns:cc="http://creativecommons.org/ns#"
   xmlns:rdf="http://www.w3.org/1999/02/22-rdf-syntax-ns#"
   xmlns:svg="http://www.w3.org/2000/svg"
   xmlns="http://www.w3.org/2000/svg"
   xmlns:sodipodi="http://sodipodi.sourceforge.net/DTD/sodipodi-0.dtd"
   xmlns:inkscape="http://www.inkscape.org/namespaces/inkscape"
   width="400mm"
   height="450mm"
   viewBox="0 0 1417.3228 1594.4882"
   id="svg2"
   version="1.1"
   inkscape:version="0.91 r13725"
   sodipodi:docname="wild knight.svg">
  <defs
     id="defs4" />
  <sodipodi:namedview
     id="base"
     pagecolor="#ffffff"
     bordercolor="#666666"
     borderopacity="1.0"
     inkscape:pageopacity="0.0"
     inkscape:pageshadow="2"
     inkscape:zoom="0.175"
     inkscape:cx="602.65743"
     inkscape:cy="1048.9764"
     inkscape:document-units="px"
     inkscape:current-layer="layer1"
     showgrid="false"
     inkscape:window-width="1366"
     inkscape:window-height="706"
     inkscape:window-x="-8"
     inkscape:window-y="-8"
     inkscape:window-maximized="1" />
  <metadata
     id="metadata7">
    <rdf:RDF>
      <cc:Work
         rdf:about="">
        <dc:format>image/svg+xml</dc:format>
        <dc:type
           rdf:resource="http://purl.org/dc/dcmitype/StillImage" />
        <dc:title></dc:title>
      </cc:Work>
    </rdf:RDF>
  </metadata>
  <g
     inkscape:label="Layer 1"
     inkscape:groupmode="layer"
     id="layer1"
     transform="translate(0,542.12598)">
    <path
       style="fill:#000000"
       d="m 316.45019,1007.0017 c -48.36204,-26.60714 -66.14721,-49.12664 -92.66073,-117.32672 -5.42673,-13.95904 -15.97591,-39.14852 -23.44263,-55.97662 -7.46672,-16.82812 -17.29489,-40.56984 -21.84037,-52.75941 -7.61698,-20.42635 -11.80373,-34.90399 -31.27735,-108.15596 -3.81089,-14.33508 -11.19935,-47.42704 -16.41876,-73.53773 -9.25114,-46.27963 -9.64242,-47.51475 -15.55358,-49.09567 -3.33506,-0.8919 -10.19508,-4.89377 -15.24449,-8.89297 -10.027228,-7.94172 -13.119885,-7.78604 -8.877997,0.44686 1.943382,3.77184 0.0417,2.71814 -6.615616,-3.66547 -5.138663,-4.92745 -9.343041,-8.11722 -9.343041,-7.08832 0,5.5403 -8.634153,-6.64816 -15.925727,-22.48169 -14.960234,-32.48589 -16.5142,-39.45355 -14.708322,-65.94835 0.883856,-12.96747 2.528728,-24.1468 3.655272,-24.84304 1.126521,-0.69624 2.048226,0.83406 2.048226,3.4007 0,7.54412 3.957612,5.35705 6.934931,-3.83245 4.117099,-12.70733 14.611683,-33.10535 29.564098,-57.4629 l 13.362076,-21.76685 0.1906,-30.36065 c 0.10494,-16.69837 1.18355,-46.16888 2.39701,-65.49006 3.05524,-48.64619 3.1754,-54.98741 1.124,-59.31812 -1.21536,-2.56574 -0.28742,-5.29931 2.87102,-8.45778 2.56674,-2.56671 7.68106,-11.31462 11.36519,-19.43976 5.09954,-11.24685 7.81423,-14.77298 11.37334,-14.77298 5.84727,0 6.12695,5.86269 0.42524,8.91415 -2.33735,1.25092 -4.77927,4.29938 -5.42652,6.77444 -1.39495,5.3343 0.53436,5.15371 35.74,-3.34606 21.29162,-5.14048 52.45673,-8.39491 84.04431,-8.77639 l 13.7855,-0.16659 9.87484,-14.42873 c 16.43832,-24.019 50.91237,-51.279191 94.63462,-74.831853 35.50863,-19.128078 51.35231,-23.644406 76.83292,-21.901692 10.99693,0.752132 30.34585,1.259967 42.99763,1.128515 18.18384,-0.189019 24.59408,0.617689 30.59658,3.850138 4.99015,2.687287 12.64383,4.131582 22.32506,4.212833 8.10243,0.06799 25.873,1.876636 39.49015,4.019145 27.51481,4.329235 44.36716,4.998054 44.36716,1.760867 0,-2.080477 -23.35025,-77.231242 -31.73002,-102.12034 -2.30827,-6.855878 -6.76511,-18.074626 -9.90409,-24.93055 -6.97212,-15.227988 -20.56025,-63.377593 -23.98487,-84.990523 -1.3826,-8.72567 -3.98098,-29.63336 -5.77416,-46.46148 -1.79317,-16.82812 -3.91718,-36.20593 -4.72001,-43.06186 -1.01021,-8.62699 -0.33362,-16.25571 2.19733,-24.77528 2.01135,-6.77055 3.65699,-15.72655 3.65699,-19.90228 0,-9.10047 5.08389,-11.97127 11.27607,-6.36742 2.36938,2.14425 5.92624,9.66213 7.90412,16.70634 15.48006,55.13224 24.56085,73.85161 46.12444,95.08206 9.24441,9.10163 17.24113,16.11525 17.7705,15.58588 0.52936,-0.52937 -2.10494,-12.05564 -5.85399,-25.61401 -13.21351,-47.78609 -14.91992,-62.34929 -14.44032,-123.24053 0.27473,-34.88237 1.82231,-66.90281 4.16245,-86.12372 2.04879,-16.82812 4.39786,-37.22584 5.22014,-45.32827 1.10816,-10.91942 2.37479,-14.73169 4.89466,-14.73169 2.59044,0 3.56092,3.39869 4.07732,14.27886 0.40127,8.45443 1.788,14.70386 3.39962,15.32078 1.94087,0.74295 2.49877,7.52682 1.94425,23.64152 -0.93333,27.12335 2.44437,49.91169 17.92221,120.91571 20.78059,95.3303 25.1367,110.76918 32.64114,115.68626 5.22499,3.42355 5.54267,3.23086 12.4694,-7.5635 10.18376,-15.87004 12.03377,-37.74325 10.16896,-120.23105 -1.39379,-61.65339 -1.14612,-68.88857 3.18105,-92.92296 2.5809,-14.33507 6.77685,-41.15991 9.32434,-59.61076 3.60088,-26.08019 5.73754,-35.04259 9.59967,-40.26638 6.53478,-8.83876 9.59224,-7.39834 10.32422,4.86393 0.75689,12.67973 12.05029,100.20928 13.16752,102.05493 0.458,0.7566 1.91521,20.13444 3.23823,43.06186 2.71396,47.03144 7.62623,91.22927 12.56783,113.0782 4.37257,19.33303 12.60165,41.53525 14.53821,39.22442 0.84283,-1.00572 4.20732,-8.96777 7.47665,-17.69349 14.32355,-38.22905 22.85422,-59.48842 27.73775,-69.12561 4.33563,-8.55596 16.56943,-38.75937 22.26158,-54.96054 1.66975,-4.75251 18.3157,-5.64087 21.23312,-1.1332 1.00846,1.55816 1.9083,42.60857 1.99961,91.22315 0.16205,86.27935 0.28629,88.65741 5.20131,99.58116 2.76937,6.15504 4.65634,13.29426 4.19325,15.8649 -0.79003,4.38537 -1.00509,4.32413 -3.48436,-0.99217 -2.07978,-4.45967 -2.52538,5.98984 -2.0929,49.078561 0.30223,30.109532 -0.0852,54.35209 -0.86108,53.872336 -2.36829,-1.464489 -4.20426,14.887958 -4.23051,37.680079 -0.0136,11.904338 -0.91948,22.613143 -2.01278,23.797344 -1.09329,1.184201 -3.64897,7.278655 -5.67927,13.543227 -4.68028,14.44127 -52.1315,77.783583 -71.86795,95.936083 -13.06747,12.0187 -13.87322,13.3181 -11.27224,18.17809 l 2.80124,5.23414 -6.99129,-5.16889 c -8.80282,-6.50819 -8.85894,-11.74354 -0.19197,-17.91492 3.73958,-2.6628 6.79924,-6.71531 6.79924,-9.00554 0,-2.29024 3.71692,-8.59508 8.25983,-14.01077 4.54292,-5.41566 17.41979,-21.958617 28.61527,-36.762129 11.19547,-14.803489 24.28353,-30.843556 29.08457,-35.64459 5.48784,-5.487849 8.23333,-10.021334 7.39381,-12.209057 -0.73443,-1.913919 -0.0873,-4.983799 1.43833,-6.821951 4.7553,-5.729788 9.15432,-100.311946 4.53267,-97.455607 -1.24653,0.770399 -2.26641,0.405643 -2.26641,-0.810583 0,-1.216248 1.20163,-2.611838 2.67028,-3.101406 2.02273,-0.674235 1.88532,-5.804194 -0.5666,-21.153197 -1.78029,-11.1447 -3.17291,-31.22687 -3.0947,-44.62704 0.131,-22.45819 -1.03774,-27.98278 -4.67502,-22.09754 -2.16116,3.49683 -5.0636,2.72353 -10.11056,-2.69376 -6.64639,-7.13406 -6.40568,-28.51652 0.4783,-42.48556 4.69681,-9.53079 5.13771,-13.83725 5.58431,-54.54288 l 0.4849,-44.19507 -11.22176,22.41456 c -6.17197,12.328 -13.42354,29.66607 -16.11459,38.52904 -10.53785,34.70625 -29.28066,85.87618 -32.82202,89.60769 -0.50525,0.53238 -3.87151,-1.86104 -7.48055,-5.31873 -11.04856,-10.58519 -21.30973,-53.28918 -24.0056,-99.90428 -1.40425,-24.28165 -4.47145,-54.36982 -7.97082,-78.19127 -1.94087,-13.2122 -9.00909,-102.68606 -9.00909,-114.04265 0,-10.86297 -2.50239,-0.20307 -6.85397,29.19732 -6.38673,43.15034 -9.68973,172.6648 -5.05381,198.16599 4.54892,25.02259 0.48862,52.24451 -8.63345,57.88228 -1.16761,0.72158 -2.1229,3.28634 -2.1229,5.69946 0,4.85955 -18.39757,14.98 -22.55769,12.40893 -1.30506,-0.80661 -2.37286,-4.85107 -2.37286,-8.98769 0,-7.21127 -4.57852,-14.07429 -7.46421,-11.18862 -0.75961,0.75963 -0.77423,4.57534 -0.0324,8.4794 2.46924,12.99686 -1.1054,5.11704 -11.69211,-25.77382 -11.67502,-34.06637 -21.15713,-70.1855 -28.25946,-107.64556 -2.59971,-13.7118 -6.23223,-32.5797 -8.07228,-41.92865 l -3.34555,-16.99811 1.233,21.53093 c 3.33532,58.24162 5.67202,91.64122 7.92819,113.32069 1.36211,13.08856 2.86508,31.38285 3.33992,40.65404 0.47486,9.27115 1.49334,19.72499 2.26333,23.23074 0.86008,3.91582 0.45648,6.37404 -1.04649,6.37404 -1.34571,0 -2.44662,-0.89532 -2.44662,-1.98964 0,-1.09429 -1.57874,-5.76804 -3.50829,-10.38613 -2.80888,-6.72264 -4.13014,-7.8805 -6.62745,-5.80789 -1.93296,1.60419 -6.28053,1.99555 -11.43229,1.02906 l -8.31316,-1.55954 3.70114,7.15725 c 2.03565,3.93646 3.18597,7.99078 2.55629,9.00963 -0.62968,1.01884 1.74439,4.81343 5.27569,8.43246 3.5313,3.61908 7.1455,9.89473 8.03156,13.94592 1.64848,7.53714 -0.32863,9.41262 -4.99905,4.7422 -1.98724,-1.98724 -3.48484,-1.90891 -6.17408,0.32299 -4.73832,3.93243 -6.16061,2.02907 -6.16061,-8.24433 0,-4.86792 -1.78584,-10.85114 -4.1272,-13.82769 -2.26998,-2.88582 -7.36431,-13.11587 -11.32076,-22.73348 -3.95646,-9.61767 -9.84258,-22.0761 -13.08029,-27.68549 -3.23771,-5.60936 -9.63054,-20.82903 -14.20627,-33.82145 l -8.3195,-23.62258 -1.62176,12.98005 c -2.08077,16.65401 -1.20387,21.98684 13.46055,81.8598 6.71674,27.42363 12.82872,52.78027 13.58214,56.34815 1.32551,6.27694 1.51324,6.35731 5.79567,2.48174 5.42446,-4.90903 5.78856,-1.74745 1.28778,11.181723 -3.35987,9.651682 -2.48288,17.245323 1.99166,17.245323 5.77103,0 8.51645,7.592237 22.68333,62.728982 7.95019,30.941783 16.55561,62.281751 19.12311,69.644423 2.56751,7.362671 4.6682,14.884286 4.6682,16.714687 0,3.96704 11.62315,30.422972 12.83405,29.212072 0.46237,-0.46237 -1.69569,-11.447332 -4.79569,-24.411014 -6.45771,-27.005067 -12.67666,-61.57429 -12.34624,-68.6289105 0.28094,-5.9979505 4.10635,9.3632125 14.60749,58.6570295 4.51433,21.190968 9.67659,40.823765 11.47165,43.628455 3.52199,5.50285 14.49136,7.15899 14.49136,2.18791 0,-1.60134 -2.57569,-18.606482 -5.72378,-37.789203 -5.76773,-35.145572 -6.45774,-51.375564 -1.11211,-26.158471 3.59295,16.949035 13.49468,68.406954 14.55033,75.615964 0.73974,5.0517 4.73858,9.26244 8.8698,9.33984 1.01888,0.0181 1.32075,-1.7501 0.67081,-3.93152 -0.64994,-2.18143 -3.26869,-15.69492 -5.81943,-30.029976 -2.55075,-14.335067 -5.767,-30.968503 -7.14725,-36.96319 -1.38022,-5.994665 -2.00779,-11.401149 -1.39456,-12.01435 1.98404,-1.984041 6.26282,13.080063 14.23099,50.102446 6.97912,32.42703 8.52078,36.92532 14.60354,42.61014 7.7362,7.23011 8.32912,9.57829 3.15032,12.47649 -2.60171,1.45599 -8.38666,-0.40804 -20.13715,-6.48867 -9.06772,-4.69234 -22.37996,-10.3892 -29.58275,-12.65967 -13.81405,-4.35448 -22.56406,-13.15934 -29.75797,-29.94449 -1.79455,-4.18715 -5.24244,-8.13066 -7.66198,-8.763375 -2.41953,-0.632714 -4.39915,-2.051353 -4.39915,-3.15249 0,-1.101138 -1.27486,-1.969015 -2.83302,-1.92856 -1.61482,0.04193 -7.0703,13.162035 -12.6872,30.512105 -10.09184,31.1728 -24.60706,59.86888 -41.38224,81.81121 -8.96902,11.73173 -10.8602,16.78876 -6.27849,16.78876 8.63637,0 98.09363,47.57182 133.43977,70.96098 21.46652,14.20477 25.15464,17.88858 9.06566,9.05507 -90.9136,-49.91527 -140.61832,-73.98499 -151.84972,-73.53384 -5.78051,0.2322 -9.16211,-1.12482 -12.46527,-5.0022 -6.26922,-7.35907 -79.86464,-34.03641 -101.83885,-36.91519 -3.82195,-0.50069 -10.09624,-1.49284 -13.94287,-2.20474 -5.87937,-1.08813 -7.95606,-0.15094 -13.03188,5.88136 -3.3209,3.94669 -6.03802,8.67801 -6.03802,10.51408 0,1.83604 -1.61661,6.46447 -3.59249,10.28537 -2.49824,4.83111 -4.31391,6.22568 -5.96103,4.57856 -1.64709,-1.64709 0.13757,-6.92763 5.85891,-17.33652 8.48731,-15.44076 10.32893,-23.6823 5.39442,-24.14093 -1.55816,-0.14483 -7.93244,-0.61488 -14.16508,-1.04457 -6.23264,-0.42967 -16.4315,-1.15209 -22.66414,-1.60535 -6.23264,-0.45326 -15.20915,-2.11941 -19.94784,-3.70254 -4.73866,-1.58316 -19.67188,-3.037 -33.18494,-3.23078 -13.51306,-0.19378 -24.10916,-1.11723 -23.54688,-2.05212 0.56227,-0.93492 -4.19749,-1.69983 -10.57727,-1.69983 -13.32109,0 -13.7271,4.42435 -0.43284,4.7169 l 8.36529,0.18403 -6.79924,3.11331 c -9.92759,4.54579 -14.23716,4.01837 -20.80137,-2.54584 -5.79971,-5.79973 -6.12603,-5.84662 -29.92695,-4.30363 -31.12677,2.01797 -57.33515,6.92841 -59.71957,11.18915 -1.02456,1.83074 -5.65967,4.00881 -10.30026,4.84006 -9.1679,1.64227 -15.73946,6.28951 -18.95224,13.40255 -1.75053,3.87562 -1.92702,3.65745 -1.21729,-1.50478 0.78749,-5.7277 0.27501,-6.07671 -9.98428,-6.79924 l -10.81435,-0.76158 -1.14239,13.59848 c -0.62831,7.47916 -2.07177,20.22774 -3.20772,28.33017 -1.13592,8.10243 -1.46154,35.12941 -0.72355,60.05996 1.16761,39.44455 1.80801,45.29552 4.93364,45.07589 2.60071,-0.18268 3.30779,1.23367 2.56241,5.13293 -0.56622,2.9619 -1.92759,5.94036 -3.02528,6.61876 -2.74075,1.6939 -2.52437,13.97024 0.27675,15.70144 1.50075,0.92751 1.43442,2.97057 -0.19536,6.01577 -1.61441,3.01653 -1.9403,12.17857 -0.94235,26.49281 2.41085,34.58089 12.18922,109.10601 14.86327,113.27938 1.84192,2.87465 2.05829,1.59921 0.89483,-5.27408 -0.84404,-4.98613 -1.88446,-50.63261 -2.31206,-101.43667 -0.4276,-50.80406 -1.76667,-95.95358 -2.97569,-100.33229 -2.49527,-9.03717 -0.1727,-19.85581 5.64233,-26.28127 4.15384,-4.58994 12.79907,-3.81827 19.19351,1.71325 1.96795,1.70237 4.26269,3.09522 5.09943,3.09522 0.83674,0 1.59696,-9.43395 1.68934,-20.96433 0.1965,-24.514 2.30624,-40.20114 5.49806,-40.88 1.24652,-0.26513 2.60578,1.91546 3.02056,4.84575 0.63584,4.49185 1.70264,5.11634 6.79924,3.98018 3.32481,-0.74116 11.14452,-1.95 17.37716,-2.68622 16.63981,-1.96559 18.06235,-2.60855 14.70944,-6.64855 -1.53956,-1.85503 -5.15528,-3.37283 -8.03499,-3.37283 -7.08177,0 -9.09627,-7.25846 -4.12165,-14.8507 3.06895,-4.68379 3.36814,-6.88479 1.37064,-10.08327 -2.30372,-3.68886 -1.5071,-4.1886 8.09273,-5.07643 11.13858,-1.03015 23.36919,2.55788 30.39614,8.91721 5.499,4.9765 5.12937,16.25163 -0.73749,22.49662 l -4.78669,5.0952 7.6197,1.17117 c 4.19083,0.64413 18.16499,1.78468 31.0537,2.5345 29.99499,1.74503 77.09224,13.38426 109.5026,27.06159 2.88407,1.21711 4.10429,-0.0254 5.27949,-5.37618 1.96924,-8.96579 10.23399,-10.01011 10.23399,-1.29312 0,4.55157 1.12847,5.66603 5.73716,5.66603 3.27793,0 6.36232,-1.6291 7.19557,-3.80053 1.32932,-3.46414 1.58565,-3.43776 2.89618,0.29829 1.01161,2.88394 10.13071,6.92269 30.76686,13.62631 66.85045,21.71628 133.80512,55.34238 173.24636,87.00812 18.40117,14.77353 19.47527,16.75761 4.53283,8.37297 C 540.96577,307.35598 442.11128,265.87784 404.136,260.6844 c -13.78779,-1.88561 -18.02372,-0.64783 -14.92748,4.36198 0.94142,1.52324 -0.0159,2.18082 -2.47569,1.69982 -2.20609,-0.43146 -4.38971,-3.27228 -4.85249,-6.3129 -0.46278,-3.04062 -1.41222,-6.10028 -2.10991,-6.79924 -0.69767,-0.69896 -20.30741,-5.0269 -43.5772,-9.61766 -32.47497,-6.40681 -42.91071,-7.72376 -44.89865,-5.66603 -4.16753,4.31375 -19.88864,128.71917 -24.82657,196.45916 -2.60993,35.80392 -5.54646,33.38999 -4.13559,-3.39962 1.94306,-50.66739 11.25621,-127.19579 21.23749,-174.51384 2.3665,-11.21875 3.59812,-21.12914 2.73697,-22.02309 -2.39125,-2.48226 -53.20091,-5.70426 -77.16397,-4.89323 -12.71087,0.43021 -25.26157,2.24013 -31.1632,4.49396 l -9.88117,3.77367 0,29.15549 c 0,27.8125 0.21236,29.15546 4.61256,29.15546 4.05432,0 4.28862,0.60531 1.93588,5.00145 -1.93305,3.61194 -2.29901,16.99205 -1.3172,48.16129 2.92116,92.73813 22.65285,212.82581 48.32547,294.11014 7.0456,22.30763 24.86682,67.34211 37.28922,94.23034 4.90307,10.61269 8.49962,19.71087 7.9923,20.21818 -0.50729,0.50732 -4.72731,-5.24212 -9.37781,-12.7765 -4.65047,-7.53439 -9.16367,-13.26117 -10.02933,-12.72616 -0.86566,0.53501 -5.02564,-7.39039 -9.24441,-17.612 -4.21879,-10.2216 -7.95033,-17.0549 -8.29231,-15.18511 -0.342,1.86979 4.89992,22.26751 11.64871,45.32827 6.74877,23.06076 12.3559,39.37894 12.46027,36.26262 0.10448,-3.11632 1.09105,-7.08941 2.19262,-8.82909 1.54968,-2.44741 2.80335,-1.61504 5.54093,3.67887 1.94596,3.76306 2.98443,7.39562 2.3077,8.07235 -0.67672,0.67671 2.34808,8.36073 6.72176,17.07559 4.37368,8.71486 7.34776,16.44957 6.60909,17.18826 -0.7387,0.73867 -0.0929,1.34305 1.43484,1.34305 1.52786,0 2.14759,1.01989 1.37719,2.26642 -0.7704,1.24652 -0.32066,2.26641 0.99944,2.26641 1.32009,0 2.2794,0.76491 2.13179,1.69981 -0.69525,4.40317 0.47134,7.50793 2.37819,6.32944 1.1604,-0.71719 2.84782,-0.10992 3.74981,1.34962 1.08336,1.75292 0.65211,2.04302 -1.27062,0.85469 -1.95229,-1.20657 -2.53399,-0.76219 -1.7667,1.34963 0.62916,1.73167 2.17132,2.93353 3.427,2.67078 1.25571,-0.26276 2.14811,1.26707 1.98311,3.39962 -0.16499,2.13254 0.93821,3.63461 2.45149,3.33793 1.51331,-0.29669 2.23514,0.8061 1.60408,2.45063 -1.48405,3.86732 46.84514,67.20933 51.28291,67.21329 0.68448,6.2e-4 2.53884,-3.57826 4.1208,-7.95305 1.58193,-4.37481 5.61139,-9.43718 8.95433,-11.24975 6.63406,-3.59705 25.52664,-21.25801 40.50788,-37.86715 5.22458,-5.7923 11.36164,-11.12257 13.63789,-11.84503 2.27628,-0.72244 13.18532,-11.58752 24.24231,-24.14456 11.057,-12.55706 23.58609,-25.56716 27.84244,-28.91137 8.42354,-6.61833 34.04944,-39.14434 52.10923,-66.14032 19.01464,-28.42327 31.54442,-52.14771 63.1072,-119.48979 16.63182,-35.48551 37.8363,-78.44593 47.12107,-95.4676 23.14407,-42.42976 27.32622,-51.17202 33.23691,-69.47753 2.81745,-8.72569 8.95891,-26.57369 13.64767,-39.66223 4.68878,-13.08854 9.40956,-27.86605 10.49064,-32.83893 2.12732,-9.78551 7.47635,-12.78776 13.65197,-7.66247 2.8598,2.37343 3.25035,5.83531 2.0419,18.09924 -4.45332,45.19407 -31.15814,122.18272 -73.80667,212.7809 -21.98369,46.69991 -49.52649,94.97706 -49.7706,87.23814 -0.13871,-4.39779 19.84782,-52.47294 39.09464,-94.03738 46.90982,-101.30404 46.15263,-114.60635 -1.03206,-18.13131 -11.27872,23.06076 -30.01101,61.3065 -41.62733,84.99052 -29.91428,60.991 -53.5508,96.16654 -106.60562,158.64895 -21.58644,25.42225 -55.31219,60.05997 -58.47866,60.05997 -3.52582,0 -0.75919,-6.12945 5.96177,-13.20825 5.01526,-5.28229 5.87113,-6.98958 2.68199,-5.35001 -9.18557,4.72241 -55.01146,51.44574 -56.57755,57.68554 -0.856,3.41054 -2.97562,6.201 -4.71029,6.201 -1.73465,0 -3.15392,1.13044 -3.15392,2.51211 0,4.15735 -11.8465,0.009 -18.96265,-6.63998 -19.38847,-18.11608 -52.41016,-65.28693 -67.12483,-95.88648 -6.21673,-12.92785 -11.31781,-22.91893 -11.33572,-22.20236 -0.0181,0.71655 2.4454,8.58842 5.47405,17.49302 9.08623,26.71467 21.60423,52.722 34.04292,70.72748 16.41778,23.76537 16.92136,25.1627 4.91419,13.63559 -9.84052,-9.4471 -14.83365,-15.94427 -25.11943,-32.68593 l -4.04575,-6.58507 -3.02165,7.18644 c -3.8409,9.13478 -7.84723,10.61838 -16.538,6.12421 -8.74564,-4.52254 -11.60381,-9.8492 -11.60381,-21.62546 0,-9.87828 7.56019,-20.44371 14.62868,-20.44371 4.58624,0 4.70528,0.75528 -4.2522,-26.98152 -6.47311,-20.04396 -14.66254,-49.60198 -31.02782,-111.98826 -2.12825,-8.11317 -2.68976,-8.55861 -9.03313,-7.16534 -7.55486,1.65931 -13.37739,-1.76694 -13.37739,-7.87191 0,-2.55429 1.73247,-3.80753 5.09943,-3.6887 7.14623,0.25218 7.66694,-7.22023 1.17448,-16.85439 -5.51174,-8.17885 -18.42495,-18.09504 -23.564,-18.09504 -7.14444,0 -5.17359,16.32565 4.71969,39.09563 1.05434,2.42656 0.74937,3.96622 -0.7856,3.96622 -1.37991,0 -2.5089,-1.49782 -2.5089,-3.3285 0,-5.64903 -6.31849,-1.31141 -8.90728,6.11483 -3.53805,10.14925 -2.96435,33.07827 1.18171,47.23002 5.98664,20.43424 21.66077,59.74265 24.84812,62.31546 1.64261,1.32592 6.11467,10.2853 9.93791,19.90976 18.43761,46.41402 28.22936,61.299 65.72794,99.91671 l 28.46473,29.31425 -18.13131,-14.50706 c -9.97222,-7.97887 -24.67823,-20.66034 -32.68,-28.18104 l -14.5487,-13.67398 10.737,20.37744 c 19.45781,36.92842 34.73709,57.65069 63.93494,86.71061 15.34244,15.26997 27.68279,27.75917 27.42301,27.75387 -0.25977,0 -10.71551,-5.6451 -23.23495,-12.5329 z M 256.09113,855.42967 c 0.4046,-3.43713 0.0947,-7.91937 -0.68851,-9.96057 -2.13066,-5.55242 -5.63442,0.93607 -5.67843,10.51566 -0.0424,9.24456 5.26791,8.78158 6.36694,-0.55509 z M 175.72349,670.02805 c 3.74622,0.8163 3.50882,-0.39573 -2.09403,-10.68997 -3.47561,-6.38584 -6.95012,-10.58997 -7.7211,-9.34249 -0.77099,1.24748 -5.58633,-10.19814 -10.70077,-25.43467 -9.1528,-27.26734 -15.49917,-54.56609 -26.72571,-114.95971 -7.2797,-39.16134 -5.51419,-15.09817 2.49428,33.9962 8.81617,54.04583 17.47654,95.77568 28.45669,137.11803 l 2.40775,9.06566 4.82882,-10.33684 c 3.638,-7.78776 5.87076,-10.10982 9.05407,-9.41621 z m -8.47811,-9.79797 c -2.18704,-5.69931 -1.54186,-7.16992 1.12988,-2.57542 1.32288,2.27491 1.92781,4.61365 1.34427,5.19718 -0.58353,0.58354 -1.69691,-0.59627 -2.47415,-2.62176 z m 30.37965,-55.45684 c -4.75854,-19.31585 -11.37715,-51.43619 -14.70806,-71.37854 -3.3309,-19.94233 -8.00234,-46.63312 -10.38099,-59.31286 -5.36365,-28.5919 -10.50927,-79.62849 -12.488,-123.86213 l -1.50287,-33.59553 -5.00159,4.69875 c -2.99371,2.81244 -8.03201,4.69875 -12.55029,4.69875 l -7.54872,0 1.3746,76.49149 c 1.47566,82.11454 5.54539,136.90047 12.79499,172.24378 5.94546,28.98524 16.41286,62.2949 19.94595,63.47257 1.54272,0.51423 2.80496,-0.64393 2.80496,-2.57374 0,-9.26036 16.51601,-8.83337 28.68874,0.74173 3.2997,2.59555 6.27479,4.44385 6.61129,4.10733 0.33652,-0.33651 -3.2815,-16.41572 -8.04001,-35.73157 z M 111.64335,478.41835 c -2.56723,-20.86851 -5.77898,-50.68195 -7.13725,-66.2521 -1.35826,-15.57014 -2.8009,-28.64069 -3.20586,-29.04565 -0.40496,-0.40496 -3.489737,2.87365 -6.855044,7.28579 -7.923496,10.38827 -23.802398,51.35378 -23.802398,61.40714 0,5.98823 -0.784383,7.48329 -3.39962,6.47977 -4.967209,-1.90613 -4.244087,4.51283 1.047899,9.30202 2.446117,2.21374 5.650894,7.7262 7.121729,12.24994 3.896395,11.98407 7.039277,15.89223 24.080146,29.94374 9.817308,8.09513 15.610268,11.55783 16.081498,9.61261 0.4051,-1.67225 -1.36388,-20.11471 -3.9311,-40.98324 z M 146.32517,306.5718 c 1.77281,-4.61984 1.77281,-17.67356 0,-22.2934 -2.01436,-5.24938 -6.95014,-4.37284 -8.52788,1.51444 -2.09373,7.81274 -1.68374,15.29829 0.83792,15.29829 1.24653,0 2.26641,2.03978 2.26641,4.53283 0,5.4037 3.48031,6.01191 5.42355,0.94784 z m 393.46527,-98.09195 c 0,-1.07512 5.61574,-9.48918 12.47942,-18.69791 6.86367,-9.20876 18.56956,-28.98179 26.01308,-43.94014 12.98954,-26.10342 25.54595,-62.713544 23.41443,-68.268206 -1.40071,-3.650195 -31.94442,-17.092658 -40.73758,-17.928828 -3.93846,-0.374525 -9.14729,-1.744096 -11.57521,-3.043454 -8.04765,-4.306979 -19.28884,0.968597 -32.01579,15.025235 -34.36867,37.959453 -44.98183,50.612163 -53.6973,64.016383 -5.26821,8.10243 -12.66003,17.65621 -16.42624,21.23059 -6.3097,5.98832 -13.49015,18.78361 -11.44829,20.40042 0.47941,0.37965 17.38148,5.97123 37.56016,12.42577 20.17867,6.45457 41.08634,13.68839 46.46148,16.07513 10.42077,4.6272 19.97184,5.92082 19.97184,2.70501 z M 221.92699,194.00309 c -0.51881,-1.55816 -2.86609,-3.20562 -5.21615,-3.66103 -3.69675,-0.71637 -3.86322,-0.33439 -1.2345,2.83302 3.59499,4.33172 7.79681,4.87104 6.45065,0.82801 z m 207.52623,-51.74397 c 8.49681,-10.49479 22.89173,-26.73061 31.98873,-36.07956 9.097,-9.348952 19.63625,-21.587563 23.4206,-27.196959 3.78432,-5.609374 10.00583,-13.159614 13.82555,-16.778306 3.81972,-3.618715 6.42381,-7.422686 5.78688,-8.453293 -2.46282,-3.984899 -29.4966,1.016283 -45.49302,8.416078 -25.1695,11.643202 -41.92822,28.660206 -70.90382,71.99648 -1.79421,2.68345 -5.29931,7.18725 -7.78912,10.00843 -2.77858,3.14844 -3.70695,5.91376 -2.40383,7.16022 2.72394,2.60549 30.86196,11.43575 33.85288,10.62372 1.24653,-0.33844 9.21834,-9.202 17.71515,-19.69681 z m -57.52775,-3.55834 c 3.38381,-13.43831 31.53504,-55.043203 44.67716,-66.028646 10.66012,-8.910722 12.41147,-14.832499 5.48329,-18.540329 -7.12789,-3.814737 -16.65136,-2.711333 -27.43233,3.178305 -5.56187,3.038445 -15.25804,8.117025 -21.54706,11.285743 -17.63218,8.883934 -30.16973,18.616073 -55.71716,43.249737 -12.92764,12.46528 -27.07442,24.94807 -31.43726,27.73954 l -7.93245,5.07541 29.94934,-0.33105 c 24.88717,-0.2751 31.01642,-1.03467 36.26262,-4.49387 7.11228,-4.68966 9.7129,-5.21697 9.7129,-1.96945 0,1.22278 -2.54972,2.86319 -5.66604,3.64533 -7.30147,1.83255 -7.43494,6.33009 -0.14663,4.93681 3.03575,-0.58031 6.86032,-0.20488 8.49905,0.83429 1.63875,1.03917 5.15321,1.90503 7.80992,1.92412 3.86632,0.0277 5.3601,-2.06901 7.48454,-10.50594 z m 484.0154,-459.1736 c 1.06084,-8.27948 0.84442,-13.03188 -0.59346,-13.03188 -3.79466,0 -5.00948,9.05999 -4.71033,35.12941 l 0.28604,24.93055 1.674,-16.9981 c 0.92068,-9.34895 2.42538,-22.86242 3.34375,-30.02998 z m -235.32495,33.99621 c -0.62873,-1.55816 -1.14316,-0.28331 -1.14316,2.83301 0,3.11632 0.51443,4.39118 1.14316,2.83302 0.62873,-1.55816 0.62873,-4.10787 0,-5.66603 z m -2.19681,-16.95498 c -0.57463,-2.20515 -1.08258,-0.94967 -1.12877,2.78989 -0.0462,3.73961 0.42396,5.54378 1.0448,4.00935 0.62081,-1.53443 0.65859,-4.59408 0.0841,-6.79924 z M 333.5468,1006.6733 c 0,-4.3348 15.44565,-19.38542 18.1677,-17.70309 3.70747,2.29133 29.86714,-20.64263 77.02167,-67.52421 46.17467,-45.90739 51.2353,-51.82092 96.58125,-112.85841 26.31934,-35.4269 53.48965,-73.08162 60.37848,-83.67708 48.73454,-74.95706 75.26295,-122.50889 97.85799,-175.40909 11.37513,-26.63176 12.75889,-31.54841 5.48891,-19.50249 -10.278,17.03004 -32.34879,49.6666 -33.08776,48.92763 -0.4288,-0.42876 5.4925,-14.92753 13.15844,-32.21945 49.47717,-111.60482 66.3016,-156.13683 73.52905,-194.62167 2.65626,-14.14412 4.64957,-19.1468 9.06434,-22.74926 3.11261,-2.5399 5.65928,-6.81422 5.65928,-9.49852 0,-5.67174 3.50152,-8.65029 5.79903,-4.93283 5.5577,8.99254 0.29251,45.70106 -14.11003,98.3738 -14.70008,53.76085 -34.10073,103.91978 -68.4852,177.0632 -8.71667,18.5423 -16.50692,37.79281 -17.31168,42.77892 -2.621,16.23924 -6.13759,24.58792 -16.1564,38.35672 -8.41348,11.56256 -12.52815,21.70325 -8.80634,21.70325 0.57712,0 6.22426,-2.03978 12.54918,-4.53283 6.32493,-2.49306 14.01068,-4.53283 17.07942,-4.53283 3.42786,0 9.12959,-3.44522 14.78529,-8.93388 11.64246,-11.29862 26.14388,-14.98598 50.1054,-12.7406 9.26125,0.86785 17.92173,2.27507 19.24555,3.12715 4.29086,2.76187 9.83861,15.86922 9.83861,23.24511 0,5.38563 0.71075,6.65063 2.83302,5.0422 1.55816,-1.18091 7.32024,-3.43225 12.80465,-5.00299 6.36934,-1.82419 14.27534,-6.92616 21.8849,-14.12296 13.27365,-12.55368 13.46317,-12.49453 19.27838,6.01588 2.19675,6.99248 2.93138,13.747 1.91038,17.56471 -0.91243,3.4117 -1.305,6.2031 -0.87236,6.2031 0.43264,0 6.12337,-3.31463 12.64611,-7.36584 10.53495,-6.54316 13.6956,-7.36584 28.29872,-7.36584 13.92894,0 17.26796,0.77867 21.86674,5.09943 7.05038,6.62413 8.52441,6.42956 8.58481,-1.13321 0.0596,-7.45829 6.888,-23.19772 11.84265,-27.29712 2.21562,-1.83321 8.51238,-2.72051 16.79066,-2.36604 7.28507,0.31193 15.03038,-0.26204 17.2118,-1.27552 3.61287,-1.6785 3.96622,-0.1047 3.96622,17.66432 0,10.72886 0.84361,19.507 1.87467,19.507 1.03106,0 3.12114,-6.76495 4.64463,-15.03322 2.6374,-14.31364 2.53255,-15.28591 -2.19054,-20.31343 -4.72193,-5.02625 -4.7793,-5.55681 -1.19277,-11.03054 5.14601,-7.85383 8.94348,-7.33736 7.71263,1.04891 -1.60675,10.94749 2.05564,7.80846 4.94579,-4.239 1.73648,-7.23845 5.22279,-13.5338 10.12752,-18.28767 4.36346,-4.22922 9.86615,-13.55771 13.20825,-22.39136 17.12609,-45.26678 22.31466,-62.14846 24.48376,-79.66104 5.2268,-42.19926 9.0792,-56.23711 19.2854,-70.27525 3.4316,-4.71992 5.4757,-10.25732 5.102,-13.82071 -0.3626,-3.45619 1.1314,-7.70059 3.5681,-10.13735 3.8215,-3.82142 4.0943,-7.3063 3.0882,-39.43999 -0.6813,-21.76094 -2.218,-37.60508 -4.0161,-41.40781 -2.5033,-5.29436 -2.2365,-8.16065 1.8993,-20.40459 3.3163,-9.8178 4.3746,-16.93824 3.4054,-22.91108 -1.2357,-7.61449 -0.8907,-8.57627 2.8431,-7.92558 3.399,0.5923 4.8074,-1.48625 7.0367,-10.38505 1.5329,-6.11907 4.3563,-14.43229 6.2741,-18.47383 1.9179,-4.04156 3.487,-9.87134 3.487,-12.95509 0,-10.4166 2.815,-19.7719 5.9493,-19.7719 3.8245,0 4.1069,-11.02318 0.6905,-26.9531 -1.7806,-8.30269 -3.2877,-10.98059 -5.666,-10.06793 -2.2925,0.87968 -3.2402,-0.46403 -3.2402,-4.59402 0,-4.48134 0.8642,-5.50571 3.7204,-4.40969 3.2086,1.23122 3.496,0.23133 2.0893,-7.26726 -2.3421,-12.48438 -8.2131,-26.21536 -10.5827,-24.7508 -1.1145,0.68874 -2.0144,-0.0827 -2,-1.7145 0.041,-4.65057 -21.2928,-50.22141 -22.2154,-47.45365 -0.4529,1.35888 -5.8734,-7.38823 -12.0454,-19.438044 -10.2465,-20.004478 -10.9081,-22.216883 -7.6114,-25.453435 3.2841,-3.224177 4.2318,-2.776266 10.4828,4.954426 3.7797,4.674478 7.9243,8.499051 9.21,8.499051 1.5637,0 1.8219,-9.19339 0.7798,-27.763568 -1.8515,-32.994835 -6.863,-45.9870291 -22.2819,-57.7652184 -5.28303,-4.0356216 -13.48645,-10.6338766 -18.22981,-14.6627896 -6.47041,-5.495804 -9.07542,-6.595355 -10.4306,-4.402622 -1.32869,2.149852 -3.41977,1.005154 -7.90838,-4.329258 -5.89011,-7 -27.63468,-17.830738 -36.02147,-17.941906 -2.2319,-0.02969 -6.82139,1.976812 -10.19886,4.458671 -3.37748,2.481881 -10.66822,6.816397 -16.20164,9.632258 -7.5218,3.827746 -12.11156,8.551541 -18.18713,18.718265 -8.17215,13.6751323 -16.14992,18.1076029 -17.73907,9.85586268 -1.19784,-6.21985508 14.3304,-34.33628068 25.5101,-46.19021368 7.44603,-7.895075 7.73144,-8.712887 4.04521,-11.590417 -3.43398,-2.680623 -3.05388,-2.751063 2.83317,-0.525037 3.73959,1.413993 13.30915,2.960208 21.26572,3.435974 26.09997,1.56072 77.1164,21.5448 90.10706,35.296605 9.7679,10.3402179 25.0847,36.686552 29.5339,50.801028 3.2537,10.321905 3.3827,15.056512 1.0399,38.164888 -1.471,14.509603 -3.8711,28.297036 -5.3335,30.638717 -2.1778,3.487213 -1.5524,6.444493 3.4559,16.343233 3.3631,6.6471 6.1174,13.0909 6.1206,14.31952 0,1.22865 3.6278,8.24064 8.0546,15.58219 4.4269,7.34157 10.5454,20.78514 13.5966,29.87459 4.8952,14.58243 5.6056,21.00984 6.0403,54.64412 l 0.4926,38.11782 -8.6786,22.66413 c -4.7733,12.46528 -9.8887,23.68402 -11.3676,24.93055 -6.9186,5.83139 -8.7186,16.75787 -7.0021,42.50453 4.3554,65.32896 -3.8028,122.51674 -24.8621,174.27873 -1.0969,2.69608 -0.3926,3.64523 2.5224,3.39962 2.8181,-0.23743 4.4157,1.70731 5.27,6.4151 0.872,4.8058 2.53,6.7684 5.7439,6.79925 4.8341,0.0465 22.4517,9.2468 34.5866,18.06207 4.0724,2.95832 11.9204,6.91757 17.4401,8.79835 l 10.0359,3.41954 -2.1419,-5.63358 c -9.604,-25.26058 12.2534,-38.00918 64.7771,-37.78202 l 29.5231,0.1276 3.9435,-29.73691 c 2.169,-16.35533 4.9912,-43.48541 6.2718,-60.2891 1.2805,-16.80369 3.429,-34.92402 4.7745,-40.26736 2.5075,-9.95822 6.4216,-15.10857 6.4216,-8.44976 0,2.04721 1.2749,3.29806 2.8331,2.77964 4.2888,-1.427 9.8008,-33.15475 21.1637,-121.8215 2.1565,-16.82812 4.6681,-31.10653 5.5813,-31.72979 0.9132,-0.62324 3.8481,-18.47125 6.5219,-39.66224 5.4531,-43.21668 20.3781,-144.055196 21.6186,-146.062332 0.4432,-0.717094 2.4839,-13.438723 4.535,-28.270315 2.0511,-14.831616 5.089,-29.6088821 6.751,-32.83838558 3.06,-5.94611762 7.5243,-43.08588442 7.9252,-65.93178742 0.1203,-6.855901 0.6663,-13.995104 1.2133,-15.864896 3.0374,-10.382033 8.4803,-117.096584 8.2073,-160.915384 -0.1747,-28.04686 0.8408,-59.72256 2.2567,-70.39034 2.4647,-18.57049 2.3212,-20.09776 -3.3727,-35.88247 -5.7268,-15.87612 -5.9777,-20.64637 -1.0857,-20.64637 9.0827,0 61.9545,144.44285 67.6122,184.71271 1.2259,8.72572 3.3401,20.96433 4.6982,27.19697 3.7174,17.06056 5.4909,112.481593 2.4882,133.872051 -1.388,9.887705 -4.0924,28.6864964 -6.0097,41.775013 -1.9173,13.088539 -4.4333,33.486262 -5.5911,45.328273 -1.1578,11.842035 -4.7726,31.729792 -8.033,44.195063 -3.2603,12.46527 -8.4268,42.04197 -11.481,65.72599 -3.0542,23.68403 -9.0655,58.36016 -13.3584,77.05807 -4.2929,18.69791 -11.9446,52.8641 -17.0037,75.92486 -5.0592,23.06076 -13.6999,59.26671 -19.2016,80.45771 -8.2084,31.6163 -19.1593,87.76693 -25.4256,130.37054 l -1.1744,7.98419 25.7266,12.81278 c 14.1495,7.04706 31.068,14.49562 37.5964,16.55235 14.3725,4.52798 20.9931,12.06935 20.9931,23.91286 0,7.36678 -1.1257,9.27083 -7.988,13.51202 -4.745,2.93256 -14.5529,5.76116 -24.1583,6.96725 -8.8936,1.11675 -16.5784,2.43855 -17.0772,2.93739 -0.4988,0.49883 1.1656,4.77402 3.6988,9.5004 2.6987,5.03517 4.0774,10.69856 3.3298,13.67757 -1.0022,3.99306 0.1681,5.83092 5.4531,8.56392 7.5989,3.92958 8.5603,5.73382 10.7162,20.11027 l 1.5361,10.24315 -18.265,18.86329 c -11.7192,12.10304 -17.3271,19.44305 -15.6477,20.48093 1.9741,1.22005 1.9589,3.06267 -0.062,7.49766 -4.3279,9.49867 -25.8916,35.21689 -29.7662,35.50096 -4.8821,0.35796 -11.2627,-0.13485 -19.9911,-1.54374 l -7.3658,-1.18905 0,11.13027 c 0,18.8229 -19.0527,50.92309 -37.3346,62.90188 -3.7593,2.46319 -6.6341,2.77434 -10.8441,1.17369 -3.1508,-1.19792 -7.623,-1.72354 -9.9382,-1.16802 -7.6101,1.82598 -21.892,-8.61738 -29.7695,-21.76838 -15.8151,-26.40225 -16.2472,-39.83381 -2.1204,-65.89798 5.6725,-10.46598 10.6517,-22.5725 11.0646,-26.90337 l 0.7509,-7.87434 -22.6641,-2.48448 c -26.1948,-2.87153 -32.863,-5.62629 -32.863,-13.57639 0,-6.47879 1.424,-6.78979 10.4567,-2.28368 3.6411,1.81644 14.8623,3.99 24.936,4.83011 l 18.3157,1.52747 1.476,-7.37983 c 0.8118,-4.05889 1.476,-9.77653 1.476,-12.70587 0,-4.83501 -0.6791,-5.17459 -7.3658,-3.68293 -4.0513,0.90371 -16.5915,1.64315 -27.8672,1.64315 -15.7244,0 -21.9135,-0.92592 -26.5621,-3.97374 -5.7766,-3.78743 -5.9947,-3.78743 -4.6514,0 0.7752,2.18554 2.9435,5.75979 4.8184,7.94273 3.2238,3.75346 3.0327,3.78131 -3.5185,0.51316 -7.9819,-3.98188 -14.1779,-12.40224 -14.1779,-19.26784 0,-3.01458 -0.9561,-4.15543 -2.6204,-3.12681 -3.3931,2.09706 -0.9596,-36.29963 3.2811,-51.77117 3.4031,-12.41567 5.2118,-14.63832 12.7603,-15.68152 8.4931,-1.17376 8.6832,-6.42456 0.2326,-6.42456 -4.0226,0 -6.5307,-0.95643 -5.7635,-2.19783 0.7471,-1.20882 -2.3942,-3.76574 -6.9806,-5.68204 -8.9511,-3.74006 -15.8954,-1.27109 -13.5579,4.8203 0.636,1.65741 -1.2811,5.45095 -4.2603,8.43015 -7.2628,7.26284 -17.0198,39.0975 -18.6719,60.92202 -0.7314,9.66059 -2.2038,17.56471 -3.2723,17.56471 -3.7008,0 -1.9175,5.16944 3.5224,10.21101 3.4076,3.15802 11.0784,6.12391 20.3755,7.87816 18.185,3.43126 17.9347,8.08203 -0.3195,5.9366 -6.8195,-0.80152 -14.419,-2.53829 -16.8877,-3.8595 -2.4687,-1.3212 -5.0982,-1.79266 -5.8432,-1.0476 -3.1333,3.13322 4.0085,5.78017 19.4739,7.21753 19.4136,1.80429 18.7596,5.05911 -1.4964,7.44748 -10.1126,1.19238 -15.3275,0.76022 -19.9307,-1.65163 -5.0248,-2.63275 -7.6651,-2.74925 -13.6077,-0.60035 -4.0553,1.46642 -11.6268,2.15353 -16.8255,1.52691 l -9.4522,-1.13933 0.95751,29.93525 c 0.91001,28.45027 1.36135,30.84256 9.09839,48.22645 14.8368,33.33618 28.2529,85.3372 26.3394,102.09233 l -0.7463,6.53561 -6.3274,-9.32035 c -4.3774,-6.44786 -7.7043,-16.2269 -10.795,-31.7298 -5.7618,-28.9019 -19.56784,-71.13733 -23.2535,-71.13733 -0.48107,0 -4.25748,6.66468 -8.39203,14.8104 -8.5947,16.93288 -22.75935,31.1531 -29.97058,30.08816 -7.71404,-1.13921 -7.03071,-5.19423 2.7868,-16.53745 14.21808,-16.42772 20.38857,-30.46586 21.70993,-49.39096 0.62846,-9.00129 2.56737,-24.52507 4.30871,-34.49729 3.09641,-17.73276 4.67128,-39.67787 3.65951,-50.9943 -0.46949,-5.25108 -0.64924,-5.33408 -2.45442,-1.13321 -1.7547,4.0834 -1.96362,3.94295 -2.1071,-1.41651 -0.0877,-3.27213 -0.78439,-9.07474 -1.5484,-12.89471 l -1.38906,-6.94538 -8.57006,5.6714 c -7.34193,4.85867 -9.06563,7.68086 -12.0284,19.69396 -8.76592,35.54317 -11.09081,54.52214 -9.5608,78.04874 0.83094,12.7769 0.95881,23.23074 0.28419,23.23074 -0.67462,0 -2.93716,-3.30788 -5.02786,-7.35085 -3.21536,-6.21781 -4.02397,-6.71597 -5.24611,-3.23192 -3.14538,8.96677 -5.8112,2.83954 -6.01121,-13.8164 -0.11581,-9.64121 -1.03614,-30.14009 -2.04526,-45.55304 l -1.83477,-28.02357 -7.92885,-3.31288 c -7.53589,-3.14868 -8.19834,-3.04336 -13.36717,2.12546 -7.71016,7.71016 -10.84055,30.58224 -6.266,45.78233 4.7383,15.74414 4.2122,21.75637 -3.69897,42.27068 l -7.02135,18.20694 8.31919,12.52959 c 4.57558,6.89128 7.86539,12.98343 7.31073,13.53809 -0.55466,0.55468 -5.75164,-2.61205 -11.54881,-7.03713 l -10.54034,-8.04563 -15.24619,15.01368 c -8.38541,8.25752 -19.78037,17.95759 -25.32216,21.55572 -9.17648,5.95806 -11.86379,6.54207 -30.10278,6.54207 -20.55,0 -32.04509,-3.00082 -37.72341,-9.84779 -3.62948,-4.37642 -10.19669,-5.06652 -8.73308,-0.91767 0.54965,1.55816 2.72914,2.68225 4.84328,2.49797 5.99056,-0.52216 3.27399,7.01296 -2.842,7.88302 -2.89475,0.41178 -7.07134,-0.88767 -9.28134,-2.88764 -2.20998,-2.00004 -5.51961,-3.06023 -7.3547,-2.35605 -1.83511,0.7042 -6.3171,0.13281 -9.96002,-1.26992 l -6.62349,-2.55026 8.49906,-4.39564 c 9.62926,-4.98012 9.32923,-3.73444 6.02641,-25.02159 -4.10572,-26.46206 -0.48603,-40.11301 20.64413,-77.85471 4.88519,-8.72569 8.91442,-16.65601 8.95383,-17.62291 0.0394,-0.96689 -2.82783,-0.25864 -6.37161,1.57394 -4.3146,2.23114 -7.8056,6.9301 -10.56698,14.22328 -5.10684,13.48797 -24.82126,49.53073 -41.90759,76.61734 -11.41026,18.08843 -18.14024,32.06291 -18.14024,37.66739 0,2.10659 16.54568,0.20692 24.51149,-2.81437 7.27117,-2.75774 7.26057,-2.77116 3.6043,4.55799 -2.59969,5.21119 -5.26008,6.84695 -13.03129,8.01229 -5.37059,0.80537 -11.29572,0.87681 -13.16698,0.15865 -1.87124,-0.71804 -6.12784,-0.26929 -9.45913,0.99727 -5.21862,1.98411 -6.05688,1.71971 -6.05688,-1.91041 0,-6.00962 -10.04397,-4.748 -23.09616,2.9011 -8.77433,5.14211 -14.07259,6.34005 -33.19276,7.50489 -16.04999,0.97778 -24.79642,0.53921 -29.69294,-1.48899 -7.98965,-3.30944 -9.62587,-8.09751 -1.84167,-5.38935 8.50107,2.95754 39.29812,0.40188 47.39858,-3.93336 11.7004,-6.26185 39.49806,-38.03407 59.3134,-67.79412 4.56492,-6.8559 12.63633,-18.74589 17.93645,-26.42221 28.96193,-41.94633 26.5446,-37.00335 25.07233,-51.26821 -0.73601,-7.13129 -2.21541,-12.96604 -3.28754,-12.96604 -1.07215,0 -1.94934,-1.45644 -1.94934,-3.23653 0,-4.27568 -22.04865,-7.09104 -34.56154,-4.41311 -7.51219,1.6077 -9.69046,3.272 -11.49514,8.78285 -2.20882,6.74492 -18.83922,32.863 -20.92516,32.863 -0.59782,0 1.72909,-5.3544 5.17089,-11.89867 3.44182,-6.54429 6.63624,-12.76138 7.09875,-13.81583 0.46248,-1.05443 -4.47028,1.73632 -10.96172,6.20161 -14.18124,9.755 -25.75677,13.31445 -45.26864,13.92006 -12.46251,0.38681 -14.93585,1.16161 -16.76029,5.25037 -1.61591,3.62137 -3.45519,4.46658 -7.50697,3.44962 -6.67534,-1.67538 -11.07656,1.85252 -17.14042,13.73932 -2.58611,5.06951 -17.55491,29.05952 -33.26395,53.31115 -21.88866,33.79171 -34.66078,50.73661 -54.66546,72.52524 -14.35694,15.63726 -33.87577,37.61032 -43.37517,48.82909 -26.8558,31.71658 -86.09936,83.68196 -109.53439,96.07785 -11.06065,5.8505 -19.29808,6.2655 -19.29808,0.9722 z M 809.49367,830.48409 c 0,-4.40056 -3.65686,-8.11779 -7.98589,-8.11779 -3.07217,0 -7.15545,-2.57469 -9.88458,-6.23264 l -4.65007,-6.23264 -0.0718,8.17117 c -0.0637,7.24817 0.76027,8.43813 7.29404,10.53411 7.86267,2.52227 15.29829,3.43495 15.29829,1.87779 z m 380.00563,-14.91703 c 5.1007,-5.60938 13.4107,-16.7619 18.4667,-24.78337 10.8801,-17.26171 10.1416,-20.61605 -5.7299,-26.02399 -5.9196,-2.01704 -14.5477,-6.70883 -19.1735,-10.4262 -4.6258,-3.71737 -8.9802,-6.75886 -9.6766,-6.75886 -0.6963,0 -1.2661,5.27721 -1.2661,11.72713 l 0,11.72713 -5.2455,-4.92789 c -6.9945,-6.57094 -8.0111,-6.29977 -11.9785,3.19558 -4.2045,10.06278 -2.267,26.35422 4.2898,36.0716 6.0375,8.94774 18.0678,21.75089 19.7277,20.99506 0.7215,-0.32854 5.4852,-5.18682 10.5859,-10.79619 z m -353.92789,5.44845 c 6.13339,-4.01876 21.87785,-27.82426 28.27911,-42.75782 2.27845,-5.31537 4.85778,-16.3424 5.73187,-24.50457 2.85491,-26.65876 -5.88046,-40.17468 -25.96498,-40.17468 -11.87087,0 -14.10159,1.38106 -25.62532,15.8649 -8.83487,11.10429 -26.62973,46.11222 -26.62973,52.38887 0,6.98491 2.5152,10.83298 6.16523,9.43234 2.99972,-1.15111 3.29247,0.1897 1.96879,9.01659 -1.71549,11.43979 -0.85063,12.8264 12.2637,19.66166 10.16083,5.29588 16.90244,5.5996 23.81133,1.07271 z m -16.67493,-30.94844 c -1.43197,-1.43194 -2.61841,-4.18439 -2.63655,-6.11651 -0.0181,-1.93209 -1.48107,-7.66782 -3.25096,-12.74608 -4.14425,-11.89088 -1.37946,-25.16635 6.69129,-32.12891 12.35538,-10.65887 23.22874,-3.68328 25.48686,16.35057 0.91312,8.10129 -0.0385,12.05181 -4.90307,20.35241 -6.80701,11.61528 -17.15054,18.52556 -21.38757,14.28852 z m 15.17506,-25.57657 c 1.95166,-6.99109 -0.67292,-21.44868 -3.89367,-21.44868 -3.21008,0 -8.93774,7.68708 -10.55447,14.16508 -1.49628,5.99544 0.14211,7.58748 6.59135,6.4045 1.95158,-0.35798 1.34704,3.27182 -2.04746,12.29342 -1.68501,4.47818 -1.64689,4.47721 3.16179,-0.0823 2.67702,-2.5383 5.71113,-7.63773 6.74246,-11.33207 z m -62.98479,36.05535 c 1.11988,-4.82687 2.06049,-13.09973 2.09022,-18.38408 0.0718,-12.77675 6.09688,-27.98735 18.96553,-47.88025 8.01146,-12.38444 10.24982,-17.71808 9.19666,-21.91418 -1.04006,-4.14391 -0.32852,-5.92479 2.81468,-7.04472 6.52983,-2.32659 12.13907,-7.9249 12.13907,-12.11543 0,-5.48615 -5.15038,-4.68244 -13.14364,2.05108 -9.92217,8.3584 -38.26655,59.47468 -41.43065,74.71609 -2.37085,11.42034 -1.31443,36.80767 1.73712,41.74516 2.00511,3.2444 5.45933,-1.8134 7.63101,-11.17367 z m 487.23655,-54.20046 c 1.7031,-2.05213 2.0517,-4.2474 0.8442,-5.31601 -3.2502,-2.87619 -36.2481,-9.31963 -47.7273,-9.31963 -9.2224,0 -10.0732,0.40818 -7.4468,3.57282 2.1488,2.5891 5.0806,3.17597 10.6482,2.13149 4.2257,-0.79274 8.9025,-0.42923 10.3931,0.80778 3.0191,2.50567 23.8423,11.0254 27.832,11.38736 1.4055,0.1276 3.861,-1.34119 5.4566,-3.26381 z M 881.86332,715.46922 c -2.81217,-6.78916 -12.30627,-13.22285 -19.51276,-13.22285 -2.92066,0 -1.75497,1.87408 4.23867,6.81456 4.84419,3.99297 9.98464,11.26564 12.41505,17.56471 l 4.14783,10.75014 0.73024,-7.63459 c 0.40163,-4.19903 -0.50693,-10.62141 -2.01903,-14.27197 z m 359.06858,6.04167 c 0.8969,-2.33733 4.5489,-3.39962 11.6871,-3.39962 14.6686,0 39.6208,-13.80074 39.6208,-21.91369 0,-1.95342 3.0597,-7.03644 6.7993,-11.29557 4.0248,-4.58403 6.785,-10.25496 6.7645,-13.8977 -0.041,-7.26331 -4.2278,-14.45856 -5.9548,-10.23372 -0.6114,1.49561 -3.2341,5.41753 -5.8282,8.71541 -3.7487,4.76577 -6.0302,5.73341 -11.1185,4.71575 -5.3201,-1.06402 -7.3583,-0.0267 -12.0605,6.13826 -3.1122,4.08027 -7.2487,11.2245 -9.1923,15.87614 -3.4534,8.26534 -9.8149,12.53073 -20.6204,13.82625 -6.56,0.78652 -9.9822,3.21015 -9.9822,7.0694 0,1.79622 -0.8291,3.26586 -1.8424,3.26586 -3.5124,0 -13.9207,-12.62989 -16.4957,-20.01651 -2.3588,-6.76656 -3.3154,-7.36184 -10.8226,-6.73492 -11.66,0.97367 -10.8028,7.06778 2.5909,18.42002 9.8031,8.30897 16.2305,10.79239 32.5599,12.58055 1.4248,0.15593 3.1776,-1.24614 3.8951,-3.11594 z m -5.3524,-22.85302 c 0,-1.97369 -1.2111,-3.18479 -2.6914,-2.69137 -4.2024,1.40083 -4.8994,6.27987 -0.8971,6.27987 1.9737,0 3.5885,-1.61482 3.5885,-3.5885 z m -600.59968,-0.94433 c 0,-1.24652 -1.01989,-2.26641 -2.26642,-2.26641 -1.24653,0 -2.26641,1.01989 -2.26641,2.26641 0,1.24651 1.01988,2.26642 2.26641,2.26642 1.24653,0 2.26642,-1.01991 2.26642,-2.26642 z m 30.33039,-6.75969 c 1.26828,-1.26828 1.55929,-2.30596 0.64668,-2.30596 -2.69556,0 -17.37859,6.47068 -17.37859,7.6586 0,1.73324 14.18337,-2.8041 16.73191,-5.35264 z m 360.29279,-9.33842 c 0.7951,-7.60742 0.9377,-14.65356 0.3169,-15.6581 -1.9945,-3.22715 3.6161,-36.60122 8.2232,-48.91485 2.4536,-6.55769 9.4857,-19.33544 15.6269,-28.39497 6.1413,-9.05958 10.9401,-16.66531 10.6642,-16.90171 -3.2552,-2.78826 -36.4154,-14.10673 -38.7287,-13.21907 -3.8743,1.48677 -17.3002,21.94582 -17.3002,26.36302 0,1.79479 -2.7071,10.80234 -6.01573,20.01676 -5.86543,16.33502 -5.95001,17.32116 -3.38675,39.48197 1.44593,12.50065 2.63877,27.31797 2.65078,32.92734 0.032,14.9009 2.8002,17.6126 18.3275,17.95238 l 8.1762,0.17882 1.4457,-13.8317 z m 224.1647,5.80753 c 3.4152,-3.16677 6.2095,-6.38263 6.2095,-7.14636 0,-0.76372 -3.1358,-8.02547 -6.9684,-16.13721 -3.8326,-8.11172 -6.4449,-16.7502 -5.8052,-19.19661 1.5204,-5.81388 -15.5116,-23.78858 -23.8568,-25.17734 -3.3186,-0.55226 -8.2428,-2.1863 -10.9426,-3.63118 -2.6998,-1.44489 -6.3915,-2.05804 -8.2039,-1.3626 -3.7248,1.42936 -21.6005,-2.57158 -45.0785,-10.08948 -15.329,-4.90851 -38.4907,-6.54037 -48.362,-3.40735 -4.2018,1.3336 -18.4972,28.79492 -18.4972,35.53295 0,6.04455 16.992,20.21106 28.3378,23.62564 11.1387,3.35225 31.8823,4.38478 38.336,1.90823 1.9718,-0.75662 3.585,-3.45828 3.585,-6.00371 0,-4.68182 13.7012,-19.81756 17.9392,-19.81756 1.2645,0 3.4624,2.1738 4.8844,4.8307 2.3254,4.3451 3.8949,4.69381 15.614,3.4689 11.9449,-1.24847 13.6023,-0.84904 19.923,4.80158 4.1771,3.73417 7.947,10.18295 9.5652,16.36219 2.6915,10.27719 12.2847,27.19697 15.4202,27.19697 0.93,0 4.4851,-2.59099 7.9003,-5.75776 z m -28.0117,-10.45308 c -4.0039,-14.06133 -7.5087,-16.73713 -5.6314,-4.29932 1.4283,9.46293 5.2965,17.29271 7.4697,15.11951 0.532,-0.53201 -0.2952,-5.40113 -1.8383,-10.82022 z m -15.6399,-7.58651 c 0,-8.98089 -1.8136,-9.72767 -9.1659,-3.77419 l -5.1352,4.15824 5.3884,3.77421 c 7.6673,5.37034 8.9127,4.78927 8.9127,-4.15826 z m 65.726,-0.69993 c 0,-1.00822 3.4699,-7.59539 7.7108,-14.63816 6.4678,-10.74085 7.1985,-13.23016 4.5328,-15.44246 -1.7479,-1.45061 -3.1779,-4.58438 -3.1779,-6.96391 0,-4.80199 -1.3829,-5.47285 -15.2983,-7.42163 -9.1638,-1.28333 -9.6323,-1.0682 -9.6323,4.42298 0,7.60531 11.3746,41.87632 13.8988,41.87632 1.0813,0 1.9661,-0.82491 1.9661,-1.83314 z M 986.27394,650.11886 c 0,-1.24653 -1.01989,-2.26642 -2.26642,-2.26642 -1.24652,0 -2.26641,1.01989 -2.26641,2.26642 0,1.2465 1.01989,2.26641 2.26641,2.26641 1.24653,0 2.26642,-1.01991 2.26642,-2.26641 z m 96.69046,-23.23074 c -0.6288,-1.55816 -1.1432,-0.2833 -1.1432,2.83301 0,3.11632 0.5144,4.39118 1.1432,2.83302 0.6287,-1.55816 0.6287,-4.10787 0,-5.66603 z m 157.3832,-4.63754 c -2.909,-2.90892 -5.8588,-0.66068 -3.7053,2.82391 0.8343,1.34978 2.5551,1.81247 3.8241,1.02818 1.548,-0.9567 1.5089,-2.2244 -0.1188,-3.85209 z m -147.5522,-14.81575 c 0,-2.9508 -0.581,-2.79367 -3.023,0.81765 -1.6627,2.45879 -3.7044,6.51032 -4.5373,9.00338 -1.314,3.93345 -0.9143,3.8253 3.023,-0.81768 2.4956,-2.9428 4.5373,-6.99429 4.5373,-9.00335 z m 163.1818,-5.65969 c 0,-3.34273 -21.2559,-14.78549 -29.7987,-16.04167 -12.1178,-1.78186 -30.6721,-13.14047 -34.2336,-20.95715 -1.3317,-2.92272 -3.8452,-5.31403 -5.5856,-5.31403 -2.5991,0 -2.5341,-0.89984 0.3638,-5.03713 1.9404,-2.7704 3.5281,-5.98608 3.5281,-7.14593 0,-3.13167 -48.6255,0.0859 -64.4629,4.26566 -15.1202,3.99034 -19.3944,6.70829 -19.3944,12.33269 0,6.65426 9.3908,12.81246 33.9962,22.2936 25.0255,9.643 47.5462,15.06975 56.8083,13.68889 5.1554,-0.76866 4.885,-1.23137 -4.1142,-7.04019 -5.2977,-3.41963 -9.6322,-7.22457 -9.6322,-8.45546 0,-3.05753 1.3389,-2.8424 9.7448,1.56568 17.2012,9.02037 62.7804,20.52405 62.7804,15.84506 z m 63.1536,-3.66468 c 3.2965,-1.85095 3.2051,-2.25333 -0.8272,-3.64384 -2.4931,-0.85975 -12.6919,-5.11902 -22.6642,-9.46509 -27.8301,-12.12881 -45.8194,-18.62655 -47.345,-17.10098 -0.7605,0.76059 -1.3829,4.71306 -1.3829,8.78326 0,7.87114 3.4222,11.24035 21.531,21.19775 8.0191,4.40942 11.2542,4.83047 28.0242,3.64727 10.4272,-0.73568 20.6261,-2.27394 22.6641,-3.41834 z m -217.8835,-15.08692 c -0.7531,-0.75311 -2.7079,-0.83361 -4.344,-0.17882 -1.808,0.72348 -1.271,1.26053 1.3693,1.36927 2.3892,0.0984 3.7278,-0.43725 2.9747,-1.19036 z m 120.7337,-9.70209 c 0,-1.10318 -2.5497,-3.67639 -5.666,-5.71827 -5.0456,-3.306 -5.6661,-3.32655 -5.6661,-0.18766 0,2.77121 4.8444,6.26674 10.7655,7.76799 0.3116,0.0791 0.5666,-0.75893 0.5666,-1.86208 z m 19.3915,-16.69216 c 3.3908,-10.28385 8.0085,-22.37286 10.2614,-26.86446 2.2529,-4.4916 6.7068,-23.35951 9.8976,-41.92865 6.1627,-35.86486 13.9417,-77.94221 16.0007,-86.54894 0.6831,-2.85566 2.1761,-4.6148 3.3178,-3.9092 2.8889,1.78544 10.3951,-23.94117 17.1827,-58.89108 3.1471,-16.20484 9.216,-44.76167 13.4865,-63.45958 12.7726,-55.92326 14.4292,-65.03948 19.2438,-105.89628 5.2489,-44.54307 13.3159,-83.054647 20.2406,-96.628221 7.8615,-15.409868 14.0887,-74.9251438 15.4168,-147.34454 1.5802,-86.163939 -1.6955,-114.074619 -17.9537,-152.973529 -3.7163,-8.89139 -12.6766,-32.99429 -19.9119,-53.56199 -15.8513,-45.06052 -15.9584,-45.32828 -18.1296,-45.32828 -3.3665,0 -4.5373,17.61797 -4.5619,68.64661 -0.027,54.71044 -2.3845,104.38986 -8.0371,169.326838 -7.6647,88.0508516 -10.527,111.209293 -20.309,164.314992 -2.9848,16.204858 -6.5361,45.27163 -7.8915,64.59278 -3.3631,47.93717 -8.2517,87.45674 -15.9805,129.18558 -3.5785,19.32118 -8.6378,47.87799 -11.2427,63.45959 -2.6049,15.58159 -7.3143,41.58871 -10.4653,57.79354 -4.0287,20.71879 -6.3144,42.58031 -7.7013,73.65846 -1.0847,24.30729 -3.1431,50.25261 -4.5742,57.65623 -1.4311,7.40367 -2.1784,16.34705 -1.6608,19.87416 0.5343,3.64025 -0.3616,7.49424 -2.0722,8.91385 -1.6573,1.37549 -3.0134,4.35797 -3.0134,6.6277 0,4.61883 8.6643,11.69868 11.8826,9.70965 1.143,-0.70642 3.5843,0.86595 5.4252,3.49413 1.8408,2.6282 3.7154,4.77853 4.1656,4.77853 0.4502,0 3.5929,-8.41406 6.9838,-18.69791 z m -35.2564,5.09943 c 0,-1.24655 -1.0199,-2.26641 -2.2664,-2.26641 -1.2465,0 -2.2664,1.01986 -2.2664,2.26641 0,1.24651 1.0199,2.26642 2.2664,2.26642 1.2465,0 2.2664,-1.01991 2.2664,-2.26642 z m -168.48,-93.48956 c -0.6287,-1.55816 -1.1432,-0.2833 -1.1432,2.83302 0,3.11631 0.5145,4.39117 1.1432,2.83301 0.6287,-1.55816 0.6287,-4.10787 0,-5.66603 z m 5.2982,-115.02051 c 0,-1.24653 -0.4497,-2.26642 -0.9994,-2.26642 -0.5497,0 -1.6298,1.01989 -2.4002,2.26642 -0.7704,1.24653 -0.3207,2.26641 0.9994,2.26641 1.3201,0 2.4002,-1.01988 2.4002,-2.26641 z M 645.74458,802.00878 c -3.74502,-2.94582 -6.23194,-7.10074 -6.23194,-10.41177 0,-7.99448 7.83533,-21.37121 14.56228,-24.8612 5.78536,-3.00148 5.79442,-2.99128 2.74406,3.07879 -5.17166,10.29138 -6.36631,20.81372 -2.53018,22.28578 7.12123,2.73268 14.9387,-1.70276 21.67095,-12.29559 7.47971,-11.76887 8.30645,-24.33679 1.86612,-28.36813 -5.27771,-3.30357 -15.28544,-0.0415 -22.73873,7.41178 -8.08948,8.08949 -8.56181,5.11226 -0.67577,-4.25972 8.08151,-9.60436 21.47093,-13.4831 29.15764,-8.44658 10.53612,6.90354 10.69355,26.68502 0.3369,42.33497 -10.91093,16.48753 -27.10393,22.22942 -38.16133,13.53167 z M 369.80941,688.64789 c -1.86979,-1.20836 -7.9891,-2.23695 -13.59848,-2.28579 -14.48247,-0.12602 -26.84564,-3.40769 -32.51544,-8.63078 -2.68421,-2.47268 -6.92016,-4.86304 -9.41321,-5.31186 -2.83003,-0.50947 -4.80736,-2.93582 -5.26361,-6.45889 -0.40193,-3.10358 -4.33343,-9.00347 -8.73669,-13.11087 -5.73971,-5.35408 -7.66131,-8.78559 -6.78861,-12.12284 0.6695,-2.56018 0.64235,-4.07993 -0.0603,-3.37723 -0.7027,0.70271 -3.06877,0.31907 -5.25792,-0.85253 -4.75347,-2.54398 -7.49007,-18.24756 -2.87105,-16.47508 3.88504,1.49084 3.77593,0.48517 -2.51334,-23.16391 -2.98355,-11.21875 -6.67835,-31.57313 -8.2107,-45.23197 -1.97894,-17.63961 -4.0494,-26.54299 -7.14675,-30.73237 -3.64892,-4.93543 -3.95002,-6.97824 -1.84468,-12.51568 3.42469,-9.00759 11.62086,-44.53768 10.52652,-45.63202 -1.40543,-1.40542 -7.94763,9.55539 -9.57614,16.04388 -0.81768,3.25792 -2.54235,6.57593 -3.83257,7.37334 -4.70284,2.90652 0.87669,-11.24202 9.42046,-23.88831 4.73157,-7.00356 11.42943,-19.06888 14.88415,-26.81181 4.30444,-9.64745 10.31887,-17.85018 19.11047,-26.06375 15.34495,-14.33607 25.35892,-22.18457 28.30546,-22.18457 1.18942,0 3.77272,-1.36875 5.74067,-3.04166 1.96795,-1.67291 11.38324,-4.82844 20.92287,-7.01228 13.07293,-2.99271 18.89888,-5.59276 23.65477,-10.55682 3.47049,-3.62241 8.2747,-6.5862 10.67601,-6.5862 3.56448,0 4.18235,1.25151 3.36553,6.81687 -1.06442,7.25237 -1.18341,7.18388 21.19947,12.20058 15.01957,3.36635 42.39741,30.17442 53.64254,52.5262 2.55047,5.06949 6.24157,10.54877 8.20247,12.17617 1.9609,1.6274 3.57894,5.63872 3.59562,8.91403 0.0392,7.67557 9.9581,38.84139 12.97071,40.75447 1.50465,0.9555 1.63195,6.5755 0.36689,16.19498 -3.10916,23.64184 -4.4225,29.65661 -6.23146,28.53859 -0.93508,-0.57792 -5.54451,11.37742 -10.24317,26.56737 -8.87467,28.69031 -27.30331,67.9787 -42.11271,89.78097 -7.67208,11.29476 -11.06373,13.8869 -32.10713,24.53866 -23.27611,11.78186 -31.65631,13.88917 -38.26067,9.62111 z m 19.39794,-7.86038 c 5.63408,-4.26138 1.61634,-4.31135 -5.79945,-0.0721 -3.63177,2.0761 -4.39757,3.26783 -2.13299,3.3193 1.94317,0.0442 5.51278,-1.4171 7.93244,-3.24723 z m -20.60278,-22.91437 c 7.38329,-17.67066 14.69252,-39.68313 12.7854,-38.50444 -1.1092,0.6855 -4.59794,7.62977 -7.75276,15.43167 -3.15481,7.8019 -7.36014,18.00985 -9.34515,22.68433 -2.02597,4.77089 -2.61495,8.49905 -1.34272,8.49905 1.24653,0 3.7914,-3.64976 5.65523,-8.11061 z m -50.08475,-21.91937 c 0.75163,-2.80468 1.2977,-7.64914 1.21348,-10.76546 -0.14981,-5.53851 -0.22324,-5.51299 -3.26645,1.1332 -3.59686,7.85521 -4.21099,14.73169 -1.3157,14.73169 1.10114,0 2.61705,-2.29476 3.36867,-5.09943 z m 42.15452,-11.89867 c 0,-1.24653 -0.98863,-0.73661 -2.19699,1.13321 -1.20836,1.86979 -2.197,4.4195 -2.197,5.66603 0,1.24651 0.98864,0.73659 2.197,-1.13321 1.20836,-1.86981 2.19699,-4.41952 2.19699,-5.66603 z m 3.20061,-6.91696 c 0.77395,-2.01693 0.39401,-2.92666 -0.89073,-2.13265 -1.23225,0.76156 -2.24046,2.34438 -2.24046,3.51734 0,3.26008 1.6245,2.54169 3.13119,-1.38469 z m 16.12206,-94.19662 1.53534,-12.28838 -8.36715,-3.02559 c -4.86406,-1.75888 -9.9275,-5.76861 -12.0941,-9.5773 -5.40501,-9.50158 -12.08717,-8.54728 -20.529,2.93179 -7.60769,10.34486 -8.62928,17.94512 -3.59568,26.75048 1.78144,3.11632 3.29017,11.78535 3.35272,19.26451 0.10245,12.23594 0.39425,13.05622 2.91332,8.18674 3.47228,-6.71205 7.12139,-6.60152 7.98439,0.24185 0.59483,4.71673 1.81833,4.0582 13.95839,-7.51291 12.18486,-11.61381 13.43585,-13.71858 14.84177,-24.97119 z m 45.10061,32.09516 c 21.40463,-9.60361 37.07522,-20.48171 40.13035,-27.85744 1.45603,-3.51521 2.23219,-6.80647 1.72479,-7.3139 -0.50743,-0.5074 -13.13831,-2.00507 -28.06863,-3.32814 -14.93034,-1.32306 -30.8613,-3.03067 -35.40218,-3.79467 l -8.25609,-1.38913 -2.47338,11.53294 c -2.41217,11.24757 -2.26397,11.86825 5.9897,25.08518 4.65469,7.45376 9.1329,13.59837 9.9516,13.65474 0.81869,0.0564 8.20042,-2.90897 16.40384,-6.58958 z M 333.5468,529.99893 c 0,-1.24655 -1.01989,-2.26641 -2.26642,-2.26641 -1.24653,0 -2.26641,1.01986 -2.26641,2.26641 0,1.24651 1.01988,2.26641 2.26641,2.26641 1.24653,0 2.26642,-1.0199 2.26642,-2.26641 z m 135.98482,-24.7452 c 0,-14.38536 -4.64944,-17.71604 -10.07757,-7.21914 -3.19011,6.169 -3.09116,6.77658 1.64161,10.07999 7.18782,5.017 8.43596,4.5937 8.43596,-2.86085 z m -163.9472,-7.55119 c -0.62873,-1.55816 -1.14316,-0.28331 -1.14316,2.83301 0,3.11632 0.51443,4.39118 1.14316,2.83302 0.62872,-1.55816 0.62872,-4.10787 0,-5.66603 z m 105.02044,-8.25657 c 0,-5.75207 -1.18332,-9.27727 -3.39962,-10.12774 -2.53807,-0.97397 -3.39962,0.35353 -3.39962,5.2382 0,3.5985 -0.61905,8.15598 -1.37569,10.12772 -0.98621,2.57 -0.0236,3.58499 3.39962,3.58499 4.03839,0 4.77531,-1.36159 4.77531,-8.82317 z m 74.02751,-12.85229 c 0.74803,-1.9493 0.0893,-6.28379 -1.46408,-9.63226 -2.76315,-5.95674 -2.86407,-5.98281 -4.6762,-1.20904 -2.0953,5.51967 -0.42693,14.38545 2.70707,14.38545 1.14025,0 2.6852,-1.59488 3.43321,-3.54415 z m -124.58442,-9.4446 c -0.57463,-2.20515 -1.08258,-0.94969 -1.12877,2.78989 -0.0462,3.73958 0.42396,5.54378 1.0448,4.00935 0.62081,-1.53443 0.65859,-4.59411 0.0841,-6.79924 z m 73.18635,-3.44275 c 0.0181,-3.42797 -0.98519,-6.23264 -2.23172,-6.23264 -1.24652,0 -2.25079,4.33452 -2.23171,9.63226 0.0254,7.0541 0.62276,8.72229 2.23171,6.23264 1.20837,-1.86981 2.21264,-6.20433 2.23172,-9.63226 z m -21.84796,-8.49905 c 1.3041,-7.36331 1.16383,-7.6168 -1.95471,-3.53307 -1.84779,2.41967 -3.32859,7.5191 -3.29067,11.33207 0.085,8.53813 3.16237,3.96237 5.24538,-7.799 z m -39.97398,-7.33942 c -0.54211,-2.81921 -1.00624,-1.04633 -1.0314,3.9398 -0.0252,4.98609 0.4184,7.29275 0.98566,5.12586 0.56726,-2.1669 0.58784,-6.24644 0.0458,-9.06566 z m 96.94353,-13.14218 c -3.18168,-6.27879 -6.76846,-10.8081 -7.97061,-10.06515 -3.52364,2.17773 -2.58043,5.36368 4.04691,13.66967 8.93236,11.19484 10.63195,9.63351 3.9237,-3.60452 z m -23.16247,-14.31302 c 2.93217,-2.93214 6.80311,-5.85761 8.60208,-6.50097 2.49845,-0.89351 1.66522,-2.89471 -3.5284,-8.47435 -3.73958,-4.01753 -9.70938,-9.39573 -13.26623,-11.95152 -5.34454,-3.84042 -6.81363,-4.09949 -8.46433,-1.49273 -3.5667,5.63247 -2.31205,12.76027 2.46604,14.00977 3.01517,0.78848 4.53283,3.09141 4.53283,6.8782 0,5.60341 1.99737,12.86282 3.53907,12.86282 0.43325,0 3.18676,-2.39905 6.11894,-5.33122 z m -53.43807,-6.42579 c -0.72349,-1.80799 -1.26054,-1.27096 -1.36928,1.36929 -0.0984,2.38919 0.43724,3.72777 1.19037,2.97467 0.7531,-0.7531 0.83361,-2.70789 0.17882,-4.34396 z m 0.6835,-21.67259 c -0.027,-4.85678 -0.51971,-5.48216 -2.23171,-2.83301 -2.86568,4.4343 -2.86568,9.06565 0,9.06565 1.24653,0 2.2508,-2.80469 2.23171,-6.23264 z m 15.0928,-11.19454 c -0.36131,-0.36129 -4.01377,-1.32828 -8.11659,-2.14885 -7.08543,-1.41708 -7.32897,-1.24769 -4.85444,3.37602 1.43288,2.67736 4.09918,4.86794 5.92511,4.86794 1.82594,0 3.40755,1.7848 3.51469,3.96623 0.1072,2.18142 1.09332,0.95783 2.19148,-2.71909 1.09817,-3.67694 1.70104,-6.98094 1.33975,-7.34225 z m -40.55525,3.47636 c 4.05121,-1.16992 7.36584,-3.18012 7.36584,-4.4671 0,-1.4534 -2.79072,-1.74079 -7.36584,-0.75852 -9.54285,2.04881 -15.29829,5.12121 -15.29829,8.16659 0,1.42025 1.64729,1.7557 3.96622,0.8077 2.18142,-0.89181 7.28085,-2.5787 11.33207,-3.74864 z m 506.15925,301.5726 c -3.995,-1.59682 -4.80543,-2.87002 -2.98534,-4.69009 3.23506,-3.23506 9.60218,-0.78259 9.60218,3.69854 0,1.90891 -0.25497,3.4061 -0.5666,3.32707 -0.31163,-0.0791 -3.03423,-1.12999 -6.05024,-2.33552 z m 9.87046,-11.35554 c -1.8006,-2.91343 -1.31042,-3.30951 6.37864,-5.15415 7.74624,-1.85832 8.18713,1.50588 0.64754,4.94115 -3.78657,1.72524 -6.04917,1.79386 -7.02618,0.21304 z M 511.17384,630.92517 c -2.69399,-7.02042 1.00545,-33.47949 12.8437,-91.86058 14.95327,-73.74301 14.1053,-69.90957 21.05621,-95.18938 3.25606,-11.84201 7.39764,-30.76887 9.20349,-42.05969 1.80588,-11.29084 5.30946,-24.03942 7.78577,-28.33019 2.47631,-4.29075 5.60717,-13.41076 6.9575,-20.26668 1.35031,-6.85588 2.85677,-14.50503 3.34772,-16.9981 0.49093,-2.49306 1.01091,1.4299 1.15551,8.71767 0.2375,11.96983 -11.95658,77.61287 -24.6543,132.71888 -10.93823,47.46999 -24.69973,114.04794 -27.33823,132.26181 -2.86669,19.78928 -7.34163,28.86511 -10.35737,21.00626 z m 379.27678,-77.03826 c -3.8228,-2.80084 -3.84887,-4.36054 -0.49908,-29.85311 1.94394,-14.79384 4.1714,-39.3915 4.94991,-54.66143 2.1969,-43.09146 7.51518,-34.34304 7.51518,12.36228 0,25.68591 -3.73587,67.31825 -6.50141,72.45136 -1.07406,1.99351 -2.43726,1.9189 -5.4646,-0.2991 z M 811.76008,439.28028 c -5.60937,-0.96862 -12.74857,-1.21924 -15.86489,-0.5569 -4.64522,0.98725 -5.15564,0.6615 -2.83302,-1.8081 4.31915,-4.59248 3.60881,-5.62972 -6.79924,-9.9283 -17.56353,-7.25377 -20.76887,-9.79484 -24.18962,-19.17682 -4.93887,-13.54567 -1.24852,-15.37578 12.00447,-5.95323 7.00961,4.98366 16.54258,9.03642 26.67778,11.34163 8.67386,1.97282 17.54818,4.69705 19.72072,6.05381 3.23456,2.02001 8.03718,-0.20805 26.51371,-12.3 12.40999,-8.12178 26.25094,-16.51864 30.75763,-18.6597 8.18341,-3.88778 8.19604,-3.91666 9.7638,-22.31645 2.08998,-24.52821 1.86567,-28.73475 -2.137,-40.07955 -3.06747,-8.69412 -3.04744,-10.20646 0.20081,-15.16383 3.35479,-5.12005 3.25817,-6.36853 -1.37665,-17.78797 -4.81934,-11.8741 -5.40793,-12.40138 -17.74724,-15.89887 -22.67436,-6.42684 -29.27846,-14.13451 -16.72878,-19.52422 8.45603,-3.63161 8.35681,-3.50005 5.36154,-7.10913 -1.45765,-1.75636 -5.00263,-10.19505 -7.87776,-18.75269 l -5.22753,-15.55934 -14.03152,-4.86789 c -20.47961,-7.10489 -25.21032,-12.38138 -17.12036,-19.09545 5.45483,-4.52711 16.68412,-3.24199 29.02549,3.3218 15.64933,8.32313 17.18764,9.9302 24.09707,25.17437 3.38995,7.47916 9.21819,17.39452 12.95163,22.03409 6.3865,7.93655 6.72327,9.34445 5.69212,23.79735 -0.9914,13.89579 -0.40238,16.76754 6.17233,30.09342 3.99759,8.10243 8.16432,17.2814 9.25943,20.39772 1.09511,3.11632 5.51561,15.8649 9.82332,28.33017 4.4295,12.81773 8.96373,22.39323 10.43672,22.0406 1.57337,-0.37668 2.08478,1.01406 1.29174,3.51269 -1.03237,3.25278 0.9885,5.16743 9.46146,8.96408 5.92586,2.6553 15.48536,7.64019 21.24337,11.07755 l 10.46909,6.24972 9.64384,-7.63806 c 7.32353,-5.80032 12.93449,-8.08808 23.3206,-9.50847 7.52226,-1.02872 14.13536,-1.41181 14.69586,-0.85131 1.8709,1.87091 -18.5943,24.34235 -25.35122,27.83648 -3.66459,1.89504 -11.35911,3.51637 -17.09894,3.60296 -9.17474,0.13848 -12.01247,-1.12661 -23.47982,-10.46686 -7.17406,-5.84338 -14.02398,-10.7518 -15.22198,-10.90761 -1.19803,-0.15593 -5.28446,-0.41079 -9.08095,-0.56661 -6.07843,-0.24946 -6.7499,0.32566 -5.62286,4.81613 1.29498,5.15958 -2.20697,7.36328 -3.85315,2.4247 -0.55439,-1.66316 -13.21648,4.00222 -33.48051,14.98016 -42.30377,22.91787 -41.1639,22.15396 -39.97355,26.7902 1.13984,4.43963 -4.84517,4.85695 -23.48789,1.63773 z M 634.97982,361.1511 c -1.57387,-1.8964 -1.8193,-3.39962 -0.55503,-3.39962 1.24653,0 3.53606,1.52982 5.08785,3.39962 1.57387,1.8964 1.8193,3.39962 0.55502,3.39962 -1.24652,0 -3.53605,-1.52983 -5.08784,-3.39962 z M 416.2539,323.09708 c -2.18639,-37.90681 1.27245,-51.46932 13.12618,-51.46932 4.2018,0 4.3808,1.06947 2.93981,17.5647 -0.84394,9.66059 -2.43923,21.13431 -3.54508,25.49716 -1.10585,4.36284 -3.48375,13.84382 -5.28421,21.06883 -1.80048,7.22501 -3.80012,13.66291 -4.44367,14.30646 -0.64354,0.64355 -1.90041,-11.49199 -2.79303,-26.96781 z m 212.13303,14.07024 c -6.27846,-10.29875 -6.02895,-19.12756 0.73167,-25.88818 13.9199,-13.91991 33.05818,-7.96817 33.05818,10.28061 0,7.31009 -11.79301,18.62904 -19.39207,18.61254 -3.66944,-0.009 -7.34755,1.05551 -8.17362,2.36328 -0.8519,1.34869 -3.54569,-0.97465 -6.22416,-5.36825 z m 16.6195,-10.0513 c 6.91764,-6.41105 6.96822,-13.22704 0.10539,-14.21531 -6.13759,-0.88385 -14.66492,7.45598 -14.66492,14.34248 0,7.42294 6.47376,7.36639 14.55944,-0.12715 z M 424.42069,246.05019 c -12.03028,-4.29218 -13.37655,-8.592 -5.80025,-18.52503 7.35114,-9.63784 13.40788,-12.55775 26.04844,-12.55775 9.96508,0 14.21313,4.83313 11.92813,13.57099 -0.92748,3.54669 -0.0938,6.17122 2.58192,8.12773 2.17345,1.58925 3.5966,4.75137 3.16256,7.02692 -0.65547,3.43638 -3.28114,4.21975 -15.49744,4.62355 -8.08954,0.26742 -18.18006,-0.75247 -22.42336,-2.26641 z m 26.24779,-18.84623 c 0.76578,-1.9956 0.0159,-4.47843 -1.6642,-5.5174 -3.19633,-1.97545 -14.43658,-0.58578 -20.26811,2.50579 -3.02188,1.60204 -3.02188,1.93432 0,2.99049 1.86979,0.6535 6.45928,1.58914 10.19886,2.07923 3.73958,0.49009 7.59616,1.04389 8.57017,1.23066 0.97404,0.18676 2.39751,-1.29319 3.16328,-3.28877 z M 840.74355,191.0679 c -0.67947,-0.67947 -9.538,-3.21842 -19.68564,-5.64212 -21.05906,-5.02981 -35.30617,-11.59727 -38.62948,-17.80694 -1.93425,-3.61414 -1.35289,-4.45033 3.77573,-5.43072 3.33408,-0.63736 8.66332,-0.15094 11.84274,1.08097 3.17939,1.23184 7.82051,2.74952 10.31356,3.37256 14.78749,3.69552 14.97828,3.67737 16.34762,-1.55909 0.73887,-2.82542 3.86131,-9.84027 6.93879,-15.58855 3.07745,-5.74828 7.59327,-16.49199 10.03515,-23.8749 4.82298,-14.58204 28.30683,-46.860476 41.86545,-57.543829 10.0418,-7.912322 24.15251,-26.635664 27.59907,-36.620871 2.38461,-6.908596 2.15649,-8.621506 -1.87421,-14.073319 -7.94727,-10.7492371 -4.25191,-23.9912576 6.0673,-21.7417287 4.16349,0.9076306 4.41989,2.2181844 1.7671,9.0322704 -1.00697,2.5865446 0.44836,5.6958153 4.36491,9.3255443 7.06543,6.548009 7.20026,7.450019 1.34271,8.981798 -3.64169,0.952324 -4.53282,3.09141 -4.53282,10.880848 0,5.332508 -2.07357,13.978877 -4.60794,19.214179 -4.11252,8.495357 -27.97829,32.668223 -54.12176,54.818218 -8.18336,6.93332 -17.03234,20.73657 -14.75424,23.01468 0.566,0.56599 6.23591,-4.81284 12.59981,-11.953 13.79616,-15.47892 17.03899,-15.45723 5.20816,0.0349 -9.22229,12.07626 -12.47441,18.70956 -17.8188,36.34457 -4.48328,14.79358 -4.49065,21.03891 -0.0324,27.404 4.29637,6.13393 0.88275,13.22414 -4.01083,8.33059 z M 664.83397,95.980703 c -3.28213,-14.223264 -11.77184,-62.28796 -11.57918,-65.555766 0.3605,-6.114694 4.334,9.297826 10.00253,38.798056 5.8982,30.695536 7.06849,50.556857 1.57665,26.75771 z M 767.47982,31.758268 c 6.18577,-6.436343 11.54017,-11.702423 11.89867,-11.702423 2.94895,0 -1.23152,4.981124 -11.24798,13.402233 l -11.89756,10.00259 11.24687,-11.7024 z m -10.11367,-5.90258 10.19887,-11.069232 -11.33207,6.180668 c -9.72616,5.304814 -10.5291,5.47076 -5.66604,1.171283 6.25261,-5.527964 29.14529,-16.7545991 30.79696,-15.1029275 0.57381,0.5738106 -4.84589,5.9654275 -12.04381,11.9813505 -21.01485,17.56389 -22.75056,18.556874 -11.95391,6.838881 z m -92.74402,4.210158 c 0.10878,-2.640258 0.64579,-3.177285 1.36927,-1.369299 0.6547,1.636056 0.5742,3.59086 -0.17882,4.343967 -0.7531,0.753107 -1.28877,-0.585505 -1.19036,-2.974668 z M 660.963,-2.7386561 c -0.81471,-1.3182142 4.03358,-9.7322749 10.77397,-18.6979129 6.7404,-8.965615 13.97604,-19.069945 16.07923,-22.45404 7.19767,-11.581329 11.48883,-12.002338 25.95603,-2.546588 7.14854,4.672257 15.99565,11.345735 19.66023,14.829893 3.66459,3.48418 7.53293,6.334875 8.59628,6.334875 2.74218,0 26.99557,18.5606817 25.8068,19.749461 -0.54057,0.5405623 -5.91389,-1.6421527 -11.94072,-4.850488 -6.02682,-3.20829 -12.57794,-5.833318 -14.55804,-5.833318 -3.55008,0 -15.44993,-5.699917 -32.20086,-15.42392 -4.7124,-2.735606 -8.88754,-4.973803 -9.27809,-4.973803 -0.39054,0 -7.59543,8.159112 -16.01083,18.131309 -14.72665,17.4510683 -19.70683,20.8753247 -22.884,15.7345319 z m 121.3337,1.3470429 c 0,-3.1862376 21.49288,-39.6175458 23.41083,-39.6822518 3.43339,-0.115814 -1.24324,14.533287 -7.57687,23.733907 -6.60621,9.5966072 -15.83396,18.891011 -15.83396,15.9483448 z M 645.79419,-8.8270139 c -1.93146,-2.1890611 -7.29436,-11.5468791 -11.91753,-20.7951611 -4.62317,-9.248237 -9.9171,-18.326335 -11.76432,-20.173575 -2.96712,-2.967098 -2.53974,-4.177069 3.66711,-10.381943 l 7.02563,-7.023366 28.85095,-0.560938 c 15.868,-0.308549 49.24864,-0.839321 74.17919,-1.179577 45.77148,-0.624669 63.81578,-3.064373 76.42173,-10.332694 3.3896,-1.954396 6.84151,-2.874809 7.67092,-2.045415 2.32249,2.322507 -3.68954,15.232453 -12.5957,27.047449 -4.42055,5.864345 -11.38431,15.298292 -15.47503,20.964326 -4.09072,5.666057 -8.50628,10.301916 -9.81235,10.301916 -3.97035,0 0.29266,-13.932507 7.45476,-24.363948 3.71878,-5.416298 5.41133,-9.632258 3.867,-9.632258 -4.86493,0 -43.71676,7.037373 -50.4976,9.146838 -6.57333,2.044872 -10.43335,1.243128 -10.43335,-2.167077 0,-1.0001 2.54972,-1.330951 5.66604,-0.735224 3.30749,0.632261 5.66603,0.02969 5.66603,-1.447491 0,-1.39185 -2.03977,-2.530655 -4.53283,-2.530655 -2.49305,0 -4.53282,-1.019886 -4.53282,-2.266413 0,-1.246528 -4.57274,-2.266414 -10.16165,-2.266414 -17.78412,0 -86.01538,6.880333 -88.00983,8.8748 -1.05488,1.05488 0.30028,6.266113 3.01148,11.580513 4.53681,8.892886 11.70659,32.023813 10.34751,33.382868 -0.32095,0.3209695 -2.16386,-1.2074999 -4.09534,-3.3965609 z M 781.92834,-58.360913 c 8.82889,-1.993809 17.23746,-5.052856 18.68568,-6.797881 2.19971,-2.65048 1.37524,-2.934575 -5.00907,-1.726033 -12.87246,2.436735 -39.67518,11.688032 -34.55059,11.925575 2.65179,0.122839 12.04508,-1.407851 20.87398,-3.401661 z m 104.62339,-5.440548 c -2.04269,-1.320073 -2.32223,-2.210864 -0.70036,-2.231715 1.48459,-0.01813 3.32959,0.985187 4.09998,2.231715 1.73902,2.81382 0.95444,2.81382 -3.39962,0 z M 612.84149,-84.199185 c 0,-4.362846 0.46642,-6.147624 1.0365,-3.966224 0.57004,2.181446 0.57004,5.751048 0,7.932448 -0.57008,2.181446 -1.0365,0.396623 -1.0365,-3.966224 z m 11.53167,-6.799241 c 0,-8.102429 0.41135,-11.417044 0.91411,-7.365844 0.50274,4.051237 0.50274,10.680497 0,14.731689 -0.50276,4.051237 -0.91411,0.736584 -0.91411,-7.365845 z m 15.66826,-1.133206 c 0.005,-4.986111 0.78608,-12.125298 1.73764,-15.864908 l 1.73011,-6.79924 0.13757,6.79924 c 0.0757,3.73961 -0.70631,10.878797 -1.73764,15.864908 l -1.87516,9.065654 0.007,-9.065654 z"
       id="path4162"
       inkscape:connector-curvature="0" />
  </g>
</svg>
