<?xml version="1.0" encoding="utf-8"?>
<!DOCTYPE svg PUBLIC "-//W3C//DTD SVG 1.1//EN" "http://www.w3.org/Graphics/SVG/1.1/DTD/svg11.dtd">
<svg version="1.1" id="Layer_1" xmlns="http://www.w3.org/2000/svg" xmlns:xlink="http://www.w3.org/1999/xlink" x="0px" y="0px"
	 viewBox="594 42.6 1372 1514.7" enable-background="new 594 42.6 1372 1514.7" xml:space="preserve">
<g>
	<path stroke="#000000" stroke-width="9.380000e-002" d="M1242.1,89c1.1-4.5,4.1-10.2,9.5-9.7c10.6,0.2,21.1,2.1,31.5,4
		c14.1,2.6,28.1,6,41.3,11.8c7.7,3.5,14,10.1,17,18c1.8,5,3.8,9.9,5.8,14.9c3.6,9.2,5.9,19.1,6,29c0.2,11.4-2,22.7-5.4,33.6
		c-5.8,16.7-3.7,34.9-0.6,51.9c2.3,11.9,5.6,23.5,9.1,35.1c3.8,0.9,8.8,2.1,9.8,6.5c2.1,8.5,2.7,17.3,3.5,26.1
		c1.2,16.4,1.7,32.8,1.4,49.2c-0.2,7.1-0.5,14.3-1.6,21.3c1.9,0.8,4,1.5,5.3,3.2c1,1.3,0.9,3.1,1.1,4.6c0.6,8.5,1.3,16.9,1.7,25.4
		c39-1.1,78.1,1.7,116.4,9.1c67.9,12.9,133.2,39.5,191,77.5c53.7,35.2,100.9,80.1,139.1,131.8c39.7,53.7,69.6,114.6,87.8,178.9
		c22,77.6,26.8,160,14.7,239.7c-9.6,62.8-29.9,123.8-60,179.7c-23.6,43.9-53.2,84.6-87.8,120.6c-31.2,32.2-65.8,61.3-103.6,85.5
		c-47.4,30.4-99.7,53.3-154.3,67.3c-76.8,19.7-158,21.8-235.8,6.2c-66.9-13.4-131.1-40.1-188-77.8c-54.4-36-102.1-81.9-140.3-134.6
		c-39.9-54.9-69.6-117.2-87-182.8c-21.4-80.1-24.7-164.9-10-246.4c17.3-96.9,61-189,125.4-263.5c21.5-25.1,45.4-48.2,71.1-68.9
		c19.8-15.8,40.3-30.7,61.8-44c47.6-29.4,99.9-51.3,154.4-64.2c20.9-5,42.2-8.6,63.5-11.2c0-1.5-0.1-3-0.1-4.4
		c-47.9,8.2-96,16.6-142.6,30.9c-54.2,16.5-106.3,41.4-150.8,76.7c-50.7,39.7-90.8,91.8-120.4,148.8c-24.2,46.4-42,95.9-55.4,146.4
		c-26.2,99.2-36.5,201.9-39.8,304.2c-0.4,3.1,2,5.8,1.3,8.9c-1.5,9.4-4.4,18.6-6.1,28c27,9.7,50.6,28.1,67.3,51.4
		c18,25,27.7,55.9,27.6,86.7c0.1,31.6-10.3,63.1-29.2,88.5c-9.1,12.4-20.4,23-32.7,32.3c-24,18.1-54,28.3-84.1,28.2
		c-30.2,0.2-60.3-9.8-84.5-27.9c-23-17.1-40.7-41.1-50.4-68c-12.1-33.4-11.7-71.1,1.1-104.3c9.4-24.6,25.6-46.5,46.3-62.9
		c24-19.9,54.6-31.8,85.8-32.5c8.9-0.4,17.7,0.4,26.5,1.5c1.7-2.2,1.9-5.5,2.9-8.1c2-7.6,4.7-15.1,6.8-22.6
		c-1.9-82.2,3-164.9,18.8-245.7c9-45.7,21.5-90.8,38.4-134.2c22.6-58,53.2-113.2,92.6-161.5c42.2-52,94.8-95.6,153.9-127.2
		c-0.3-7.1-3.6-13.5-7.2-19.4c-2.5-0.2-5.2,0.2-7.6-0.4c-1.4-1.2-2.4-2.7-3.6-4.2c-5.4-0.1-10.9,0-16.3-0.3
		c-2.3-1.6-3.3-4.4-5.1-6.4c2.1-2.3,2.8-6.4-0.1-8.4c0.7-1,1.3-2,2-3.1c-1-2.1-2.4-4.1-2.6-6.5c0-1.1-1-1.6-1.8-2.1
		c-14-7.6-27.8-15.7-40.8-25.1c-4.4-3.3-9.2-6.5-11.8-11.6c1.7-2.9,2.2-6.3,4-9.1c4.3-7.6,12.7-13.7,21.8-12.5
		c6.6,0.6,11.6,5.2,17.5,7.5c13.5,5.6,28,8.1,42.4,10.4c19.6,2.9,39.5,3.8,59.3,2.8c19.3-0.9,38.4-3.7,57.5-6.4
		c12.2-1.6,24.6-3.6,37-1.8c6.3,0.9,12.7,2.1,18.6,4.6c2.2,1,4.8,2.3,5.6,4.7c0.2,2.3-1.9,3.8-3.5,5.1c-7.4,5.8-15.5,10.7-23.6,15.5
		c-14.6,8.6-29.5,16.5-44.9,23.5c-9,4.1-18.2,8-27.7,10.6c-11.3,3.1-23,4.8-34.7,4.9c1.7,3.3,4.9,7.3,8.8,6.8
		c56.3-23.9,116.3-38.2,177.1-44.4c3.2-0.5,6.7-0.1,9.7-1.5c-2.3-12.9-2.7-25.9-2.9-39c-0.1-14.7,0.1-29.5,1.4-44.2
		c0-1.6,0.6-3.2-0.2-4.7c-9.2-20.3-17.6-41-23.2-62.6c-1.9-8.1-3.8-16.5-2.8-24.8c2.4-13.5,4.1-27.6,1-41.1
		c-1.8-7.8-5.7-14.8-10.5-21.2c-3-3.9-5.3-8.7-10-10.9c-2.7-1.2-5.6-2.1-8.6-2.3c-11.6,1.7-23.3,1.8-35,1.7
		c-8.1-0.1-16.3-0.3-24.3-1.5c-2-0.4-4.6-0.5-5.8-2.4c-1.8-2.9-1.6-6.6-0.9-9.8c0.8-3,2.4-6.6,5.9-7.2c6.1-1.2,12.3-1.2,18.5-1.3
		c17.3,0,34.7,0.6,51.5,4.9c7.6,2.2,14.4,7.3,18.3,14.2c5,9,11,17.6,14.2,27.5c3.7,10.6,4.5,22,3.8,33.1c4.9-14.5,8.8-30,6.5-45.3
		c-1.4-9.8-6.5-18.5-10.9-27.3c-2.5-5.1-7.9-7.8-13.1-9.5c-15.7-0.4-31.4-2.8-46.8-5.7c-6.9-1.4-13.8-2.7-20.3-5.4
		C1241,97.3,1241.4,92.3,1242.1,89 M1379.1,438.2c-0.2,3.2,0.2,6.4,0.3,9.6c2.3,45.3,4.1,90.6,5.8,135.9
		c1.5,41.1,3.2,82.2,4.3,123.4c1.3-4.9,1.2-10,1.9-15c7.6-76.9,15.1-153.8,22.5-230.6c0.6-7.5,1.8-15,1.8-22.5
		C1403.5,438.1,1391.3,438.2,1379.1,438.2 M1417.6,439c-0.2,8.8-1.5,17.5-2.2,26.3c-8.3,85.3-16.8,170.6-25.1,255.9
		c0.9,34.8,2.3,69.5,3.4,104.3c2-7.2,3.1-14.6,4.8-21.9c24.2-116.7,47.9-233.6,71.7-350.4c0.5-2.8,1.5-5.6,1-8.5
		C1453.3,442,1435.5,439.9,1417.6,439 M1309.5,444.4c11.6,125,22.8,250,34.3,375.1c0.9,8.3,1.2,16.7,2.5,25
		c-0.9-19.5-1-38.9-1.6-58.4c-2.8-115-6-230-8.4-345C1327.3,441.6,1318.4,443.1,1309.5,444.4 M1258.6,455.1
		c7.6,36.5,14.9,73,22.2,109.6c14.9,74.4,29.8,148.9,44.6,223.4c7.3,36.4,14.3,72.8,21.8,109.1c0.2-5.6-0.2-11.3-0.2-16.9
		c0-11.2-1.6-22.3-2.4-33.4c-12.3-134.1-24.3-268.2-36.8-402.2C1291.2,447.3,1274.8,450.8,1258.6,455.1 M1473,445.1
		c0.1,1.7,0.4,3.4,0,5.1c-26.1,127.6-52.6,255.1-78.8,382.7c0.1,15.6,0.9,31.2,1.4,46.7c1.4-2.3,1.8-5.1,2.7-7.6
		c21.1-68.1,42.2-136.2,63-204.4c21.4-70.3,43.2-140.5,64.4-210.9C1508.4,452,1490.8,448,1473,445.1 M1204.1,473
		c45,145.9,89.2,292,133.7,438c2.3,8.9,6.6,17.1,10.4,25.5c0-9.3-0.3-18.7-0.6-28c-3.3-17.6-7-35.2-10.6-52.7
		c-23.6-113.7-47.2-227.3-70.8-341c-3.9-19.5-8.3-38.9-11.9-58.5C1237.4,461,1220.5,466.4,1204.1,473 M1528.3,457.5
		c-43.3,140.6-86.9,281-130.4,421.5c-0.8,2.9-2.2,5.6-2,8.7c0.2,4.7,0.1,9.5,0.6,14.2c2.4-3.7,3.7-8.1,5.5-12.1
		c32-74.5,63.7-149.1,95.2-223.8c27-63.8,54.1-127.6,81-191.5C1562,468,1545.3,462.3,1528.3,457.5 M1151.8,496.9
		c54.9,121.9,109.2,244.2,163.6,366.3c6.3,13.8,12.1,27.7,18.6,41.3c-0.7-2.8-1.6-5.5-2.4-8.3c-20-65.1-40.6-130-60.9-195.1
		c-23.6-75.5-47.4-150.9-70.9-226.4C1183.4,481,1167.4,488.7,1151.8,496.9 M1580.6,475.5c-0.3,1.7-0.8,3.3-1.5,4.9
		c-60.4,141.9-121.3,283.7-182,425.5c-1.2,3.4-0.1,7.2-0.2,10.7c3.8-5.8,6.9-12.1,10.4-18c42.6-74.8,84.4-150,126.6-225
		c32.5-58,65-116,97.5-174C1614.9,490.5,1598,482.5,1580.6,475.5 M1103.2,526.1c77.9,133.2,155.1,266.7,232.5,400.2
		c3.4,5.6,6.3,11.5,10.1,16.9c-2.1-7.8-4.6-15.5-7-23.3c-3.1-7.8-6.8-15.4-10.2-23.2c-28-62.6-56.8-124.9-85.1-187.4
		c-32-70.1-63.8-140.2-95.8-210.3C1132.4,507.3,1117.4,516.2,1103.2,526.1 M1634.2,501c-12.6,22.7-25.5,45.3-38.2,67.9
		c-65.9,116.5-132,233-198,349.5c-1.9,3.4-0.5,7.6-0.5,11.3c19.4-27.1,38.5-54.4,57.7-81.7c74.3-106.6,148.6-213.3,222.9-320
		C1663.9,518.2,1649.3,509.2,1634.2,501 M1063,556.7c-0.1,0.3-0.4,0.8-0.5,1.1c15.6,21.9,31.5,43.6,47.1,65.4
		c77.8,108,155.3,216.2,232.9,324.2c0.8-0.5,1.7-1,2.6-1.5c-9.7-17.2-19.7-34.1-29.5-51.2c-33-56.4-66.4-112.5-99.6-168.8
		c-38.9-65.8-77.7-131.7-116.7-197.4C1086.7,537.3,1074.6,546.7,1063,556.7 M1398.2,931.8c-1,1.3-0.5,3.1-0.6,4.6
		c4-3.6,7.2-8,10.8-11.9c21-23.9,42.1-47.9,63-72c83.9-96.6,167.7-193.3,251.6-289.9c-13.4-11.7-27.4-22.6-42.1-32.6
		C1587,664.2,1492.5,797.9,1398.2,931.8 M1058.6,560.4c-12.7,11.4-25.2,23-36.7,35.6c105.6,117.5,211,235.1,316.5,352.7
		c0.6,0.7,1.4,1,2.4,0.9c0-2.8-2.5-4.7-3.8-7c-47.8-67-96.7-133.3-145.2-199.8C1147.4,681.9,1103.2,621,1058.6,560.4 M1398.7,938.2
		c-1.4,1.2-0.7,3.1-0.7,4.6c2.6-1.7,4.6-4,6.9-6c25.7-23.7,51.5-47.4,77-71.3c94-87.9,188-175.8,282.1-263.7
		c-12-12.9-24.7-25.2-38-36.7C1617.2,689.8,1507.8,813.9,1398.7,938.2 M988.2,635.3c111.6,100.9,223.3,201.8,334.9,302.7
		c5.1,4.4,9.8,9.3,15.2,13.4c-1.5-2.4-3.6-4.4-5.5-6.5c-104-115.9-208-231.9-312.1-347.8C1009.3,609.2,998.4,622,988.2,635.3
		 M1400.1,943.6c0.9,0.8,1.8,1.5,2.8,2.3c30.1-21.8,60.1-43.9,89.9-66.2c103.4-77.1,207-154,310.4-231.1
		c-11.3-15.3-23.5-29.9-36.4-43.9C1644.8,718.1,1522.3,830.6,1400.1,943.6 M956.2,681.4c15.2,11.3,30.8,22.1,46.1,33.3
		c109.3,78.4,218.7,156.9,328.1,235.3c2,1.4,3.8,3.2,6.3,3.8c-0.1-1.4-1-2.3-2-3.1c-115.8-104.6-231.6-209.3-347.4-314
		C975.9,650.8,966,666.1,956.2,681.4 M1464.8,902.8c3.6,1.8,7.3,3.6,11,5.2c119.2-71.1,238.6-142.1,357.8-213.3
		c-8.6-14.6-17.9-28.7-27.9-42.4C1692.3,736.1,1578.4,819.3,1464.8,902.8 M955.3,683c-8.2,13.8-16.3,27.6-23,42.1
		c129.3,74.1,258.6,148.4,387.9,222.6c4.9,2.6,9.4,5.9,14.5,7.9c-0.6-0.8-1.3-1.5-2.1-2.1c-65.2-46.7-130.4-93.5-195.6-140.3
		C1076.4,769.9,1016,726.2,955.3,683 M1477.9,908.9c5.1,2.5,10.1,5.3,15.4,7.2c59.5-27.1,118.9-54.5,178.4-81.7
		c63.1-28.9,126.3-57.9,189.4-86.8c-7.4-16.8-15.9-33.2-25.1-49.1C1716.8,769.1,1597.2,838.8,1477.9,908.9 M911.6,772.1
		c60.5,26.8,121.2,53.3,181.8,80c64.3,28.2,128.5,56.4,192.8,84.7c15,6.5,29.8,13.4,45,19.5c-4.5-3.4-9.6-5.7-14.4-8.6
		c-128.4-73.7-256.8-147.5-385.3-221.2C924,741.3,917.5,756.6,911.6,772.1 M1805.2,778c-96.7,43.7-193.5,87.1-290.3,130.5
		c-6.4,3-13.1,5.5-19.3,9c5.9,2.8,11.7,5.6,17.6,8.4c121.8-42.1,243.5-84.2,365.2-126.2c0.7-0.4,2.8-0.5,2.2-1.8
		c-5.1-15.6-11.1-30.9-17.6-45.9C1843.7,760.4,1824.5,769.4,1805.2,778 M911,773.7c-5.7,15-10.7,30.3-14.9,45.8
		c111.4,36.4,222.9,72.6,334.4,108.8c33.7,10.8,67.2,22,100.9,32.7c0.3-0.8,0.6-1.5,1-2.2C1191.9,897.1,1051.5,835.3,911,773.7
		 M1516.6,927c-2.3,5.2-4.8,10.4-7.3,15.5c-4-1.7-7.8-3.8-11.8-5.5c-2,0-3.8,1.1-5.8,1.2c-4.5,0.2-9.3,0-13.3,2.2
		c-16.9,8-33.9,15.9-50.8,23.9c13.1-2.8,26.2-5.8,39.2-8.7c143.3-32.9,286.6-66,429.9-99c-3.6-18-8.5-35.8-14.1-53.3
		C1760.7,844.9,1638.6,885.9,1516.6,927 M895.5,821.2c-4.2,16.3-8.2,32.6-10.8,49.2c148.5,30.7,296.9,61.5,445.4,92.2
		c-5.4-2.2-11.1-3.8-16.7-5.7c-123.3-40.1-246.6-80.2-369.8-120.3C927.5,831.6,911.6,825.9,895.5,821.2 M1369.8,833.7
		c0.2,22.5,0.6,45,0.7,67.5c1.1-5.5,1.4-11.2,1.8-16.8c-0.2-9.7-0.9-19.4-1.3-29.1c-0.7-9.4-0.6-18.8-1.6-28.2
		C1369.6,829.3,1369.8,831.5,1369.8,833.7 M1658,914.9c-74,16.5-148.1,32.7-222.1,49.4c72.8-6.9,145.5-14.8,218.2-22.2
		c83.9-8.7,167.8-17.3,251.7-26c-1.6-18.4-4.5-36.7-8.1-54.8C1817.8,879.3,1737.9,897.2,1658,914.9 M884.3,872.1
		c-2.7,15.7-4.8,31.5-6,47.4c150.1,15.2,300.1,30.2,450.2,45.3c0.5,0,1-0.1,1.5-0.4c-72.4-15.2-144.9-30-217.3-45.1
		C1036.6,903.6,960.4,887.8,884.3,872.1 M1372.9,897c-0.7,6.4-1.3,12.9-1.9,19.3c-0.3,6.4,0,12.7,0.1,19.1
		c1.3-6.4,3.5-12.7,2.8-19.3C1373.6,909.7,1373.5,903.3,1372.9,897 M1446.1,916.4c-13.9,10.2-27.9,20.4-41.8,30.7
		c0.4,0.4,1.2,1.2,1.6,1.5c2-0.5,3.6-1.9,5.4-2.8c15.4-9.1,30.9-18,46.2-27.2c2.3-5.2,5-10.3,7.2-15.6
		C1458.2,907.1,1452.3,912,1446.1,916.4 M1407.3,950.3c0.9,1.2,1.8,2.4,2.7,3.6c20-9,40-17.9,59.9-26.9c0.9-0.5,2.1-0.6,2.7-1.6
		c-1.1-1.2-2.9-1.6-4.3-2.4c-2.8-1.2-5.3-2.9-8.2-3.6C1442.4,929.5,1424.8,939.8,1407.3,950.3 M878,921.3
		c-1.1,15.6-1.8,31.2-1.6,46.8c150.4,1,300.8,1.7,451.2,2.7c0.4-1.4,0.9-2.8,1.3-4.1c-6.5-1.1-13.2-1.4-19.8-2.2
		C1165.5,950.1,1021.8,935.5,878,921.3 M1424.1,967.1c-2.9,0.2-5.7,1-8.2,2.4c0.3,2,0.5,4,0.6,6c163.9-3.7,327.9-7.7,491.8-11.4
		c0.3-14.4-0.9-28.8-1.9-43.1C1745.7,936.7,1584.9,951.9,1424.1,967.1 M1372.2,939.1c0.7-0.1,2-0.4,2.7-0.5c-0.2-3.3-0.3-6.7-0.4-10
		C1373.5,932.1,1372.9,935.6,1372.2,939.1 M1345,934.3c0.9,3.5,1.9,7,3.3,10.3C1349,940.8,1346.8,937.4,1345,934.3 M1416.5,977.2
		c-0.1,2.2-0.3,4.4-0.5,6.6c143.8,7.1,287.7,14.1,431.6,21.2c19.9,0.9,39.8,2.2,59.7,2.8c0.9-14,1.4-28,1.3-42
		C1744.5,969.5,1580.5,973.4,1416.5,977.2 M876.5,969.7c-0.1,16.5,0.9,32.9,2.6,49.3c148.9-15.1,297.9-30.1,446.8-45.2
		c1,0.1,1.5-0.4,1.6-1.4C1177.2,971.5,1026.8,970.7,876.5,969.7 M879.2,1020.6c1.5,16.4,4.1,32.7,7.1,48.9c2-0.1,4-0.5,6-0.9
		c111-22.7,222-45.1,333-67.8c0.7-1.6,1.4-3.1,2.2-4.7c2.2,1,4.3,2.2,6.5,2.9c30.9-6.1,61.7-12.5,92.6-18.8c0.1-1.7,0.2-3.3,0.3-5
		C1177.7,990.3,1028.5,1005.6,879.2,1020.6 M1294,988.6c-19,4-38.1,7.5-57,11.8c3.4,2.1,7.2,3.6,10.8,5.5c3.4,1.9,7.6,1.6,11.3,1.5
		c4.3,0.2,8.1-2.1,12.1-3.3c18-6.7,36-13.5,54.2-19.9c1.1-0.3,1.6-1,1.7-2.1C1316,983.9,1305,986.4,1294,988.6 M1415.3,985.7
		c0,0.5,0.1,1.5,0.1,2c43,6.8,85.8,14,128.8,20.9c80.6,13.2,161.3,26.3,241.9,39.5c37.9,6.1,75.8,12.6,113.8,18.4
		c3.1-18.9,5.8-37.8,7-57c-145.7-7.1-291.3-14.3-437-21.4C1451.7,987.4,1433.5,986.1,1415.3,985.7 M1414,989.3
		c0.1,0.4,0.4,1.2,0.5,1.6c156.9,45.4,313.9,90.5,470.8,135.9c5.8-18.8,10.4-37.9,14-57.2c0.6-1.6-1.7-1.4-2.6-1.6
		c-123.6-20.1-247.1-40.3-370.7-60.5C1488.7,1001.4,1451.4,995,1414,989.3 M1413.4,992.3c-0.5,1.1-1.1,2.3-1.6,3.4
		c21.5,8.9,43.2,17.6,64.8,26.4c129.8,52.7,259.6,105.4,389.4,158c7.3-16.9,13.4-34.2,18.9-51.7c-15.8-4.8-31.7-9.2-47.5-13.8
		C1696.1,1073.8,1554.8,1033,1413.4,992.3 M1410.4,997.4c1.5,2.2,4.3,2.9,6.6,4.3c136.4,72.5,272.7,145.1,409.1,217.6
		c5.7,2.8,11.1,6.3,17,8.7c8.1-15.1,15.6-30.5,22.4-46.3c-17.7-7.6-35.6-14.5-53.4-21.8c-131.4-53.3-262.8-106.7-394.2-160
		C1415.4,999,1413.1,997.7,1410.4,997.4 M1326.3,1001.7c-15,8.6-30,17.2-45,25.8c-3.6,2.2-8.1,3.6-9.5,8c-1.2-0.3-2.6-1.3-3.8-0.4
		c-109,62.4-218,124.7-327,187.1c7.6,14,15.7,27.8,24.7,41c122.5-86.9,245.1-173.8,367.5-260.9c-0.6-0.9-1.1-1.9-1.7-2.8
		C1329.7,1000,1328,1000.7,1326.3,1001.7 M1409.2,999.5c-0.1,0.4-0.4,1.3-0.5,1.7c26.4,18,53,35.6,79.5,53.5
		c108.9,73,217.8,146.2,326.8,219.1c9.8-14.3,18.9-29,27.1-44.2c-130.7-69.5-261.3-139-392-208.5
		C1436.4,1013.9,1423,1006.4,1409.2,999.5 M886.8,1071.4c3.5,18.2,8.2,36.2,13.5,54c6.8-1.6,13.3-4.2,20-6.2
		c71.8-23.2,143.6-46.3,215.4-69.5c32.7-10.7,65.5-20.9,98.2-31.8c-4.4-2.5-9.1-4.4-13.5-6.7c1.3-2.8,2.7-5.5,3.8-8.3
		C1111.7,1025.5,999.3,1048.6,886.8,1071.4 M1405.6,1004.5c101.7,86.7,203.6,173.2,305.3,259.8c22.5,19,44.7,38.2,67.3,57.1
		c12.8-14.7,24.7-30.2,35.7-46.2c-28.6-19.3-57.4-38.5-86.1-57.8c-106.8-71.6-213.6-143.3-320.5-214.9
		C1406.8,1003.2,1406.2,1003.9,1405.6,1004.5 M1294,1011.8c-6.5,2.3-13.2,4-19.6,6.6c1.3,1,3.7,1.1,4.3,2.7
		c-1.1,2.6-2.5,5.1-3.6,7.8c14.8-8.2,29.5-16.6,44-25.2C1310.7,1006.2,1302.4,1009.1,1294,1011.8 M1332.2,1005
		c-121.9,86.5-243.8,173-365.6,259.5c7.6,11.3,15.5,22.4,24,33.1c113.1-96.3,226.3-192.6,339.5-288.8c1.7-1.6,4-2.8,4.9-5.1
		C1334,1004,1333.1,1004.4,1332.2,1005 M1334,1007.7c-114.1,97.1-228.2,194.2-342.3,291.3c7.3,9.3,14.9,18.5,23,27.1
		c16.7-16.7,33.6-33.2,50.3-49.9c90.2-89.2,180.5-178.4,270.7-267.6c0.6-0.7,1-1.5,1-2.5C1335.8,1006.5,1334.8,1007,1334,1007.7
		 M1403.2,1006c1.1,2.2,3,3.8,4.7,5.6c68.5,71.5,137,143,205.4,214.6c42.8,44.5,85.3,89.3,128.2,133.7
		c12.4-11.8,24.3-24.1,35.5-37.1c-23.7-20.3-47.5-40.5-71.3-60.7c-98.9-84.2-197.8-168.3-296.7-252.4
		C1407.2,1008.3,1405.7,1005.9,1403.2,1006 M1399.3,1009.7c22.5,29.6,45.2,59.1,67.7,88.7c76.3,99.8,152.5,199.6,228.9,299.3
		c15.5-11.2,30.3-23.4,44.2-36.4c-2.2-2.6-4.6-5-6.9-7.4c-110.4-115.3-220.8-230.5-331.1-345.9
		C1401.2,1008.4,1400.3,1009.1,1399.3,1009.7 M1337.8,1009c-107.4,106.1-214.7,212.3-322.1,318.3c10.2,11.5,21.2,22.4,32.5,32.8
		c97.1-116.3,194-232.8,291-349.2C1340.3,1010,1338.9,1008.4,1337.8,1009 M1329.3,1025.4c-93.2,111.9-186.5,223.8-279.8,335.8
		c12.6,11.6,25.8,22.6,39.6,32.8c84.3-126.7,168.4-253.5,252.6-380.3c0.8-0.9,0.7-2-0.2-2.8
		C1337.2,1015.5,1333.4,1020.7,1329.3,1025.4 M1394.3,1012.6c16.9,27,33.5,54.2,50.7,81.1c69.7,110.5,139.4,221,209.2,331.5
		c13.8-8.2,27.3-17,40.3-26.6c-20-26.5-40.3-52.7-60.4-79.1c-78.7-102.8-157.3-205.7-236-308.6
		C1396.7,1010.6,1395.6,1012.1,1394.3,1012.6 M1391.4,1013.9c1.8,6.2,3.9,12.2,6.1,18.3c7.5,15.8,15.1,31.5,22.7,47.2
		c60.9,124.1,121.9,248.3,183,372.4c16.1-7.2,31.7-15.3,47-24.1c-14.4-23.5-29.2-46.8-43.8-70.3c-36.5-58.6-72.8-117.2-109.2-175.9
		c-34.9-56.2-69.6-112.6-104.7-168.7C1392.2,1013,1391.7,1013.6,1391.4,1013.9 M1343.3,1014.4c-48.8,73.5-97.6,146.9-146.4,220.4
		c-35.4,53.5-71.1,106.8-106.4,160.4c14.2,10.5,28.8,20.5,44.1,29.3c71-136.4,142.2-272.7,213.2-409.1
		C1346.4,1015,1344.4,1012.4,1343.3,1014.4 M1374.8,1015.3c2.8,160.3,5.9,320.5,8.9,480.8c18.4,0.7,36.8-0.3,55.1-1.6
		c-18.2-151.7-36.6-303.4-54.9-455c-1.2-8.2-1.5-16.5-3.4-24.5C1378.5,1014.8,1376.6,1014.6,1374.8,1015.3 M1382.6,1015
		c0.4,6,2.3,11.9,3.5,17.8c8.7,38.4,17.9,76.8,27.1,115.1c27,112.9,53.7,225.9,80.8,338.8c17.1-3.5,34.1-7.7,50.8-12.9
		C1495.4,1329,1446.8,1184,1398,1039c-2.5-8.6-7.1-16.3-10.7-24.4C1385.7,1014.8,1384.2,1014.9,1382.6,1015 M1389.3,1014.7
		c-0.5,0.9,0.3,3,1.5,2.8C1391.3,1016.5,1390.4,1014.5,1389.3,1014.7 M1346.8,1021.2c-70.2,134.7-140.5,269.4-210.7,404.2
		c12.1,7.2,24.6,13.9,37.3,20c3.9-9.5,7.7-19,11.6-28.5c54.2-132.2,109.7-263.8,163.9-396.1c0.7-1.6,1.4-3.3,1.5-5
		C1348.5,1017.1,1347.9,1019.4,1346.8,1021.2 M1367.7,1018c-10.9,158.3-21.9,316.5-32.5,474.8c15.5,1.9,31.1,2.9,46.7,3.3
		c-3-159.9-6-319.8-8.9-479.8C1371.3,1016.9,1369.5,1017.4,1367.7,1018 M1352.2,1017.1c-6,15.2-12.3,30.2-18.5,45.3
		c-26.2,63.5-52.6,126.8-78.9,190.2c-26.7,64.5-53.7,128.9-79.8,193.6c17.8,8.6,36.2,16.2,55,22.6
		c41.5-149.8,82.8-299.7,124.2-449.5C1355.2,1017.6,1353.4,1017.4,1352.2,1017.1 M1350.1,1040.4c-39.5,143-79.1,286-118.4,429
		c15.9,5.5,32.2,10,48.5,13.9c0.8-3.2,1.2-6.3,1.8-9.5c26.7-151.7,53.3-303.5,80-455.2c-1.9-0.1-3.8-0.3-5.7-0.5
		C1354.1,1025.5,1352.2,1032.9,1350.1,1040.4 M1361.5,1031c-26.5,150.9-53,301.8-79.6,452.6c17,3.9,34.2,7,51.5,8.9
		c10.7-158.1,21.7-316.2,32.6-474.3c-0.5,0-1.4,0.1-1.9,0.1C1362.5,1022.3,1362.5,1026.8,1361.5,1031 M901,1127.1
		c4.8,15,9.8,30.1,16.3,44.5c109.6-48.3,219.3-96.1,328.9-144.4c-2-1.6-3.4-3.7-4.8-5.8c-1.9-1.2-4.1-3-6.4-2.1
		C1123.7,1055.3,1012.3,1091.1,901,1127.1 M1247.9,1028.4c-47.3,20.7-94.6,41.5-141.8,62.2c-62.8,27.5-125.4,55.2-188.3,82.5
		c6.4,16.3,14.2,32.1,22.4,47.5c52.2-29.6,104.3-59.6,156.5-89.4c56.8-32.6,113.7-64.9,170.4-97.6c-3-1.6-6.1-3-9.2-4.5
		C1254.9,1027.2,1251.2,1028,1247.9,1028.4 M1385.2,1036.2c8.3,70.6,17,141.3,25.5,211.9c9.9,82.1,19.8,164.1,29.8,246.1
		c16.4-1.4,32.6-3.7,48.8-6.7c-1-5.5-2.5-10.8-3.7-16.2C1451.7,1326.4,1418.7,1181.3,1385.2,1036.2 M1402.5,1046.9
		c2.5,8.9,5.8,17.5,8.7,26.3c45.9,133.1,92,266,137.9,399.1c16.9-5.2,33.5-11.6,49.8-18.7c-2.6-5.1-5-10.3-7.5-15.4
		c-60.2-123.9-119.7-248.1-179.5-372.2C1408.7,1059.6,1406,1053,1402.5,1046.9 M737,1166.2c6.7,27.1,14,54.1,20.8,81.1
		c1.9,6.8,3.3,13.8,5.6,20.5c1.1-2.6,2-5.4,2.2-8.3c0.4-32.5,0.7-65,1.1-97.5C756.6,1162.2,746.7,1163.9,737,1166.2 M767.7,1162.1
		c-0.2,31.4-0.9,62.8-0.8,94.1c8-30.9,16.3-61.7,24.8-92.5C783.8,1162.5,775.8,1161.8,767.7,1162.1 M703.6,1180.5
		c18.4,32.3,37.2,64.5,55.7,96.7c2.3-1.7,3.8-4.7,3.1-7.6c-8.9-34.3-17.7-68.5-26.6-102.8C724.5,1169.6,713.7,1174.6,703.6,1180.5
		 M818.3,1171.1c-5,20.7-10.7,41.2-15.8,61.8c10.8-17.9,21.5-35.9,32-54.1C829.2,1176,823.9,1173.3,818.3,1171.1 M807.1,1227.5
		c-2.5,4.7-6.2,8.9-7.2,14.3c-2.2,8.8-4.8,17.6-6.8,26.5c1.2-1,2.3-2,3.4-3c22-21.7,44.2-43.1,66-64.8c-8.1-8.1-17.3-15.1-27.1-21
		C826,1195.4,816.6,1211.5,807.1,1227.5 M678.7,1200.6c24.9,25.5,50,50.7,75,76.1c1.5,1.4,2.7,3.2,4.7,3.8c1-2.6-1.3-4.7-2.3-6.9
		c-17.8-30.8-35.6-61.6-53.4-92.4C693.7,1186.4,685.8,1193.1,678.7,1200.6 M657.8,1229.6c31.8,18.8,63.8,37.4,95.7,56.2
		c1.2-1.3,2.4-2.6,3.6-3.9c-15.4-15.9-31-31.4-46.4-47.2c-11-11-21.7-22.4-33-33.1C670,1210.1,663.2,1219.4,657.8,1229.6
		 M793.2,1270.2c-2.2,3.3-2.3,7.6-3.3,11.3c31.5-17.5,62.8-35.3,94.2-53c-5.7-9.9-12.6-19.1-20.6-27.2
		C840.1,1224.3,816.6,1247.3,793.2,1270.2 M789.3,1283.3c0,2.1,0.5,4.2,1,6.2c16.8-3.9,33.5-8.5,50.3-12.7
		c19-4.9,38.1-9.7,57.2-14.7c-2.9-11.3-7.4-22.2-13.1-32.4C852.9,1247.4,821.2,1265.5,789.3,1283.3 M645.9,1260.8
		c28.3,7.7,56.5,15.5,84.8,23.3c6.9,1.7,13.6,4.2,20.7,5.4c0.5-0.9,1-1.8,1.5-2.7c-31.7-18.9-63.7-37.4-95.5-56.1
		C652.2,1240.2,648.3,1250.3,645.9,1260.8 M645.4,1262c-2.3,10.5-3.7,21.2-3.7,31.9c35.8,0.3,71.6,0.5,107.3,0.7
		c0.4-1.3,0.9-2.5,1.4-3.7c-28-8.1-56.2-15.5-84.3-23.3C659.2,1265.7,652.4,1263.4,645.4,1262 M790.9,1290.6
		c-0.2,1.7-0.4,3.3-0.5,5.1c37.3-0.8,74.5-1.7,111.8-2.6c-0.1-10.1-1.8-20-3.9-29.8c-0.6,0.1-1.7,0.3-2.3,0.4
		C861,1272.6,826,1281.8,790.9,1290.6 M790.2,1297c-0.2,1.4-0.5,2.8-0.8,4.2c36.4,9,72.9,17.7,109.3,26.7
		c2.8-10.9,3.6-22.3,3.6-33.6C865,1295.1,827.6,1295.8,790.2,1297 M641.7,1295.1c0,12.7,2,25.4,5.3,37.7c1.2-0.2,2.4-0.5,3.5-0.8
		c33-9.4,66.1-18.7,99.1-28.1c-0.8-2.7-1.1-5.5-0.8-8.2C713.1,1295.6,677.4,1295.3,641.7,1295.1 M789,1302.3
		c-0.6,1.4-1.1,2.9-1.6,4.4c33.1,17.9,66.1,36.2,99.2,54.1c5.3-10.1,9.5-20.8,11.9-32C862,1320,825.5,1311,789,1302.3 M647.5,1334
		c2.9,10,7.1,19.7,12.3,28.7c30.6-18.3,61.2-36.8,91.8-55c-0.5-0.9-1-1.8-1.6-2.7C715.9,1314.7,681.7,1324.4,647.5,1334 M785,1309.6
		c27.4,26.4,54.9,52.5,82.4,78.8c7.3-8,13.5-16.9,18.6-26.4c-27.7-15.4-55.7-30.5-83.5-45.8c-5.3-2.7-10.3-6-15.8-8.4
		C786.3,1308.2,785.4,1309.2,785,1309.6 M660.4,1363.7c5.4,9.3,12,17.9,19.5,25.6c25.1-26,50.3-52.1,75.3-78.2
		c-0.9-0.9-1.8-1.8-2.7-2.7C721.8,1326.8,691,1345.1,660.4,1363.7 M779.4,1314c19.8,32.5,39.5,65.2,59.5,97.6
		c10.2-6.2,19.9-13.4,27.6-22.6c-27.5-26-54.8-52.3-82.3-78.4C782.8,1311.9,781.1,1313,779.4,1314 M756.1,1311.8
		c-25,26.2-50.4,52.2-75.3,78.4c7.6,7.6,16,14.4,25.2,19.9c17.6-31.8,35.2-63.6,52.7-95.4C760.2,1312.9,757.3,1312.4,756.1,1311.8
		 M760.3,1313.9c-17.6,32.2-35.6,64.3-53.3,96.5c0.5,1.4,2.4,1.7,3.6,2.6c8.5,4.6,17.4,8.6,26.8,11.1c8.9-36.5,18.2-72.9,27-109.5
		C763.1,1314.4,761.7,1314.1,760.3,1313.9 M765.9,1314.6c-0.6,1.7-1.1,3.5-1.5,5.3c-8.6,34.8-17.4,69.7-25.9,104.5
		c10.5,2.9,21.4,4.7,32.4,4.7c-0.8-38.2-1.5-76.4-2.1-114.5C767.8,1314.6,766.9,1314.6,765.9,1314.6 M774.5,1315.2
		c10.5,36.6,21.4,73.2,32.1,109.8c10.9-2.8,21.5-7.1,31.2-12.8c-19.8-32.5-39.6-65.1-59.5-97.6
		C777.1,1314.7,775.8,1315,774.5,1315.2 M769.9,1315c0.7,38.1,1.4,76.2,2.1,114.3c11.3,0.1,22.6-1.2,33.5-4
		c-10.6-36.7-21.5-73.3-32.2-110C772.2,1315.2,771,1315.1,769.9,1315z"/>
</g>
</svg>
