<?xml version="1.0"?>
<svg xmlns:rdf="http://www.w3.org/1999/02/22-rdf-syntax-ns#" xmlns="http://www.w3.org/2000/svg" xmlns:cc="http://web.resource.org/cc/" xmlns:xlink="http://www.w3.org/1999/xlink" xmlns:dc="http://purl.org/dc/elements/1.1/" xmlns:svg="http://www.w3.org/2000/svg" id="Layer_1" xml:space="preserve" overflow="visible" viewBox="0 0 504.847 598.338" version="1.1" enable-background="new 0 0 504.847 598.338">
	<path d="m219 538c0.206-3.657 9.238 2.688 6.052-5.589-1.6-4.158-3.88-1.536-7.412-1.271-3.276 0.246-2.558-0.845-4.929-2.071-6.05-3.134-11.72-8.188-18.711-8.066-0.469 3.396 4.013 2.516 4.206 5.419 0.211 3.167-7.158 0.128-7.206 5.581 1.579-0.268 2.002 0.848 3.365 1.135 3.648 0.77 0.128-2.79 2.635-3.135 3.193 0.673 5.242-0.426 7-3-0.166 2.134 3.972 0.613 5 1v3.999c6.24-1.46 5.54 4.22 10 6z" fill="none"/>
	<path d="m299 369.81c0.831-0.181 1.641-0.426 2.438-0.707-0.87 0.28-1.7 0.53-2.44 0.71z" fill="none"/>
	<path d="m341.65 445.05c3.968-3.32 9.076-24.198 3.351-27.049-3.158 3.501-5.007 7.923-7.842 11.659-2.043 2.696-2.926 2.39-3.062 5.866-0.078 1.992-0.594 3.934-1.646 5.637-0.914 1.476-2.155 2.698-3.448 3.838-3.018 0-4.439-1.077-5.408 1.878-1.184 3.607-3.831 6.042-3.592 10.122 10.35 0.75 14.6-6.06 21.65-11.96z" fill="none"/>
	<path d="m180 544c-1.6-2.936-6.749-1.956-7-6-0.585-2.218 3.105-0.287 3.902-1.098 2.056-2.091-4.99-0.919-4.902-0.902-2.386-1.928-3.411-4.404-7-4 0.017-0.053-4.386 4.585-2.474 3.84 1.258-0.491 1.684-2.604 3.474-1.84 1.416 1.453 1.095 4.219 1 6 5.82-4.04 6.77 8.7 13 4z" fill="none"/>
	<path d="m145 538c1.759-0.101 0.766-2.555 3-2 1.795 3.53 4.067 2.351 7 1 0.507 3.969 7.805 7.396 10 3-2.539-0.95-1.756-3.697-5-2-0.178-2.66-3.26-2.728-4-5-0.561-1.716 0.844-3.891-0.103-5.497-0.139-0.235-6.306 3.232-9.093 0.692-1.605-1.463-3.287-2.48-5.538-2.462-3.136 0.024-3.289 2.752-6.459 3.272-6.552 1.079-5.041-5.235-9.808-5.008-1.198 2.555-6.874 0.515-8.999 1.001-0.146 5.806 17.776 9.544 21.641 10.936 2.39 0.87 4.82 1.75 7.36 2.07z" fill="none"/>
	<path d="m335.7 321.72c3.464-5.986-5.438-9.065-9.705-11.721-2.046-1.271-12.237-8.791-14-6-2.496-4.845-8.147-6.622-12.873-8.46-2.467-0.959-4.97-1.975-7.127-3.54-2.866-1.095-3.667-1.575-8.896-3.104-4.006-1.173-7.896-2.625-12.104-2.896-0.853 2.415-3.833 3.104-4.146 5.855-0.488 4.31-6.486 5.088-7.854 10.145 4.508-0.043 5.472 2.845 7.175-1.825 0.995-2.728 4.29 3.536 4.463 3.855 1.655 3.067 6.907 2.723 10.146 3.987 2.662 1.039 5.285 2.172 8.119 2.68 1.688 0.298 3.387 0.397 5.098 0.303 0.236 0.939 0.805 1.6 1.691 1.975 1.533 0.752 3.893 0.985 4.309 3.025 3.667 0.288 7.408-0.527 9.316 3.096 1.104 2.096 10.498 4.649 13.06 5.418 4.51 1.35 10.55 1.98 13.31-2.8z" fill="none"/>
	<path d="m308.48 373.62c-0.758 0.781-1.723 1.254-2.738 1.138-1.61-0.187-3.477-0.45-4.982-1.188 2.61 1.6 6.29 1.96 7.72 0.05z" fill="none"/>
	<path d="m312.46 352.83c2.365-1.569 3.865-5.173 4.545-7.831-0.77 3-2.27 5.76-4.54 7.83z" fill="none"/>
	<path d="m205 363c-0.247 0.759-13.378 13.123-12.62 13.604-0.391-0.248 6.375-0.549 6.62-0.604 4.09-0.91 7.938-3.477 11.621-5.371 3.045-1.566 6.281-2.255 9.379-3.629 1.415-0.627 0.323-1.999 2.532-2.583 2.32-0.612 4.461-1.738 6.702-2.591 8.541-3.252 17.16-7.947 25.854-10.551 4.062-1.217 8.084-1.914 9.912-6.275-1.2-2.537-4.169-3.338-6.45-4.55-2.188-1.161-3.664-2.87-3.716-5.451-0.078-3.911-7.665-6.655-10.877-9.289-6.827-5.601-14.545 11.396-18.794 14.354-2.852 1.982-4.739 4.959-6.868 7.631-1.281 1.606-2.687 3.144-4.416 4.283-2.612 1.725-1.078 1.941-2.741 4.147-1.414 1.876-4.538 2.954-1.667 4.549 1.53 0.851-0.189 2.31-0.471 3.324-1.55 0.2-2.44-1.1-3.98-0.99z" fill="none"/>
	<path d="m307.67 581.47c-7.104 4.117-7.822-2.438-14.152-2.213-3.104 0.109-16.088-1.815-16.334-4.243-0.416-4.092-20.705-5.921-25.085-6.429-18.768-2.174-37.129-6.625-56.003-8.462-18.445-1.796-38.06-7.52-56.098-14.126 1.129 0.413-4.697-1.657-10.432-3.615 38.649 30.271 87.292 48.336 140.08 48.336 20.149 0 39.69-2.646 58.309-7.584l-3.951-1.136c-3.13 6.58-11.58-3.28-16.34-0.53z" fill="none"/>
	<path d="m398.96 175.96c-2.05 5.21-3.96 10.04-3.96 10.04-1.535 3.63-2.303 7.517-3.266 11.32-0.942 3.718-3.324 6.396-4.406 10.361-1.124 4.121-2.524 8.018-3.234 12.253-0.622 3.706-3.195 6.075-3.491 9.464-0.083 1.681-0.157 3.362-0.229 5.043-0.269 3.482-1.739 2.102-2.374 4.558-0.784 3.043 0.682 7.776-2.011 9.944-3.014 2.424-1.973 10.374-2.427 13.929-0.523 4.09-4.23 9.205-1.562 13.127-4.339 7.096-4.02 16.697-4.564 24.701-0.226 3.304-2.133 8.19-1.5 11.375 0.721 3.62-0.966 6.562-1.446 10.684-0.915 7.814-2.878 18.462 3.925 23.495 5.8 4.292 13.042 10.288 2.726 13.283-2.384 0.691-7.754 0.416-9.473 2.127-3.243 3.23-3.719 0.561-7.485 1.763-4.771 1.523-1.295 2.808-2.18 6.572-3.196 1.744-4.595 4.312-4 8 6.882 1.624 13.395 9.053 10.355 16.435-0.5 1.086-1.066 2.135-1.7 3.146-1.06 1.889 0.104 3.626-0.655 5.42-1.284 3.03-4.634 2.84-4.271 6.762 0.227 2.443-3.655 2.743-0.522 5.031 3.07 2.242 0.179 5.137 0.092 8.456-0.171 6.459-1.576 19.583-6.708 23.809-4.509 3.712-7.369 9.212-12.64 12.027-2.584 1.381-7.434 0.826-9.297 2.771-1.872 1.949-4.654 7.636-4.654 1.146-4.017 0.625-6.713 5.539-10.044 7.146-5.09 2.44-11.64 3.14-16.98 4.85-5.187 1.658-13.049-1.636-17 3 0.108 4.799-6.028 12.087-1 16-2.892-0.396-4.635-1.081-6 2 3.341-0.278 3.084 2.064 1.865 3.742-0.999 1.376 0.393 3.25 0.129 4.742-0.349 1.977-3.656 1.956-3.491-0.224 0.18-2.369 2.463-4.526-0.503-6.263-0.931 3.265-4.892 3.646-6.451 6.405-1.702 3.01 3.134 4.896 5.451 3.595 0.233 1.494 5.985 11.634-0.886 6.886-4.723-3.264-7.543-8.782-13.114-10.886 0.127 1.46-0.54 2.127-2 2 0.093-1.572 0.486-4.832-2-5 0.67 7.369-7.408-8.343 1-1 0.363-3.564 3.123-6.077 3.815-9.518 0.539-2.678 4.743-6.802 2.185-9.482-3.694 1.393-5.503 4.946-6.453 8.547-1.062 4.026-4.151 6.048-7.654 8.203-6.601 4.06-14.321 6.675-19.893 12.25 6.314 1.104 19.352 5.248 18.534-4.62-0.749-9.039 7.174 3.257 9.466 3.62 0 5.277-0.39 6.3-6 6-0.254 1.19-2.469 8.668 1.405 6.833 2.012-0.953 0.899-4.065 2.456-5.401 2.217-1.9 4.835 1.773 7.14 1.568 0.124-2.444-2.844-7.074 1-8 3.984 3.218 4.039 8.671 2 13 2.436 1.208 5.191-2.126 6.859-3.374 2.856-2.138 8.104-1.562 10.141-4.626-5.818 0.945-2.338-7.955 1.102-9.398 4.021-1.688 10.289 6.803 9.996 10.607-0.178 2.32-6.203 7.616-1.41 8.589 2.528 0.513 4.938-1.082 7.479-0.598 4.724 0.899 1.045-2.631 3.834-5.2-2.827-0.658-5.544 4.085-7 0 3.535-1.119 1.841-6.482 5-8 1.812 0.633 9.347 2.216 5.021 5.622-4.016 3.163 0.463 3.429-0.021 7.378 2.366 0.36 6.394-1.086 5.627-3.628-1.183-3.93-1.271-5.379 2.785-6.627 2.521-0.775 0.706-5.521 3.826-7.741 2.201-1.565 5.146-3.192 6.479 0.188 0.849 2.148 0.576 4.573 1.469 6.712 1.215 2.898 4.113 2.343 4.408-0.82 0.223-2.365-1.759-4.895-0.941-7.19 1.767-4.979 4.502 0.539 4.35 3.106 3.104-0.99 7.785-3.713 7.301-7.021-0.729-4.972 5.896-2.165 3.699 4.021 4.717-0.915 4.535 3.56 5.489 6.761 1.476 4.957 9.461-5.595 10.444 2.306 0.61 4.907 2.221 7.854 6.493 3.162 2.462-2.699 3.221-0.221 5.063-1.522 1.302-0.92 1.834-3.674 3.839-2.262 3.197 2.251 4.91-4.595 8.148 0.478 2.556 3.997 9.01 6.196 13.684 6.251 2.269 0.026 10.009-4.7 5.271 0.954-1.191 1.425 8.729 5.093 11.563 4.875 5.166-0.396 16.287 3.819 21.364 1.489l-2.379 2.736c45.01-41.605 73.245-101.11 73.245-167.09-0.01-77.5-38.95-146.06-98.28-187.18zm-91.96 314.04c0 2.67 0.957 3.787-1.938 4.548-1.871 0.491-4.479 1.046-6.062-0.548-0.87-4.41 4.92-6.27 8-4zm-20 13c0.356 2.409 0.979 4.618 4 4-2.125 1.529-8.81 3.738-7.646-0.895 1.19-4.739 4.955-6.612 9.646-6.105 0 6.32-1.63 2.96-6 3zm17 6c-1.397-0.486-2.065-1.486-2-3-2.295 2.31-5.366-0.139-8 0 1.668-1.536 0.332-4.464 2-6 3.563-0.56 5.211 1.312 7 4 1.499-0.735 1.89-2.504 2-4 5.55 2.07 0.1 5.86-1 9zm14.01-13.01c-2.565-3.534 4.029-3.981 5.994-1.993 0.81 5.9-3.13 5.93-5.99 1.99zm24.99 12.01c-0.012-4.569 3.284-6.936 7-5 0.44 4.44-2.56 5.44-7 5zm24-14c-0.271-1.451 2.12-6.027-1.501-5.001-2.148 0.609-1.424 4.327-1.593 5.907-0.504 4.73-8.67-3.312-11.906-2.906 0.361-5.84-1.454-1.526-5-2-0.389-2.569 0.895-3.902 3-5-1.333-2.274-2.616-6.174-0.745-7.745 2.981-2.506 8.759 2.969 9.745-4.255 8.107 0.439-2.904 9.105-1 11-3.896 0.52-4.189-2.042-3-5-3.09 1.623-4.258 4.612-4 8 2.955-1.217 6.794-1.398 6 3 3.086-0.137 4.624-1.878 4-5 3.859 2.51 4.289-2.251 8-2-0.87 3.69 4.18 9.41-2 11zm21 22c-5.074 0.223-1.584-5.594-1-8 5.59-1.13 4.05 5.97 1 8zm19 7c-7.145 1.948-8.816-6.771-3-10 3.91-0.94 10.78 7.88 3 10zm5-9c-0.306-4.639 1.754-6.913 6-7 0.12 4.45-0.85 7.81-6 7z" fill="none"/>
	<path d="m291.64 354.6c-0.135-0.043-0.271-0.08-0.408-0.123 0.211 0.067 0.424 0.133 0.634 0.205-0.07-0.02-0.14-0.05-0.22-0.08z" fill="none"/>
	<path d="m305 327c-0.183-4.823-15.528-7.48-19.165-8.73-10.377-3.562-20.777-6.967-31.762-8.025-6.948-0.67-6.252 5.49-2.564 9.376 1.901 2.003 3.368 1.12 5.491 2.382 1.546 0.918 2.571 2.477 4.11 3.415 2.812 1.717 3.277-0.474 5.604 2.619 1.645 2.182 2.956 4.587 4.284 6.966 4.668 2.85 8-0.332 8 6 6.479-0.366 12.448-3.037 18.483-5.161 5.229-1.84 12.396-1.729 16.517-5.839-3.28-1.09-5.23-3.46-9-3.01z" fill="none"/>
	<path d="m283.94 358.86c1.153 2.74 3.424 4.594 7.121 4.604 2.672 0.008 5.32-0.682 7.854-1.459 0.392-0.119 0.724-0.232 1.028-0.344-6.32 1.94-13.48 2.9-16-2.8z" fill="none"/>
	<path d="m88 490c-1.276-3.148 3.341-7.583 4.401-10.582 1.661-4.698 5.539-7.644 9.181-10.823 3.929-3.432 6.274-6.889 8.384-11.616 1.935-4.337 6.256-8.087 8.802-12.258 4.943-8.099 12.502-15.761 19.069-22.639 3.998-4.188 8.067-8.311 11.896-12.656 1.831-2.078 3.605-4.209 5.268-6.426 1.482-1.977-0.169-3.695 2.473-5.008 3.744-1.859 5.685-7.025 8.527-9.992 2.64-2.756 5.389-6.266 7.917-9.291 5.711-6.833 11.478-15.206 18.083-20.709 3.475-2.896 7.337-5.748 9.555-9.799 0.747-1.363 0.711-4.477 2.532-4.742 1.083-0.158 2.603 0.482 3.388-0.655 1.68-2.437 2.049-2.932 2.476-6.28 0.259-2.028 1.889-1.521 3.549-1.521 3.668 0 3.433-2.371 5.94-4.742 2.808-2.654 6.304-4.576 8.666-7.695 2.908-3.843 1.055-4.677-1.65-7.518-2.265-2.379-2.55-6.932 0.957-8.359 3.329-1.354 7.239 0.465 10.614 0.707 7.635 0.549 11.788-9.734 14.973-15.393 2.673-4.747 5.5-9.196 7.923-14.081 1.691-3.41 5.04-5.776 7.077-8.919 2.365-3.647 4.715-7.414 7-11 0.979-1.536 0.98-3.483 2-5 1.331-1.981 3.329-3.441 4.703-5.49 6.965-10.392 14.009-20.694 21.454-30.753 6.377-8.615 13.309-16.322 19.843-24.757 1.137-1.467 0.826-3.547 2-5 1.49-1.845 3.674-2.908 5.465-4.401 1.803-1.503 5.97-8.57 4.535-10.599 4.696 0.202 7.173-3.067 9.266-6.751 0.791-1.394 2.967-2.648 2.983-4.274 0.004-0.31 5.907-6.292 5.729-6.633 0.207-0.077 0.406-0.167 0.603-0.265 0.77-0.388 1.458-0.953 2.118-1.618-26.562-10.89-55.616-16.911-86.056-16.911-125.49 0-227.59 102.1-227.59 227.59 0 46.586 14.079 89.939 38.192 126.05l7.758 0.81z" fill="none"/>
	<path d="m301.56 405.26c1.938-2.992 0.309-6.625-0.254-9.76-0.496-2.779-4.057-4.161-7.205-5.192-1.82 0.323-2.853-0.443-3.098-2.303-1.62-2.76-2.104-1.689-4.742-3.132-2.705-1.479-4.58-4.011-7.146-5.675-5.244-3.399-15.021 1.358-19.715 4.022-2.301 1.306-6.93 1.054-8.281 2.706-1.792 2.191-6.74 2.828-9.33 4.221-4.847 2.604-13.558 2.364-14.844 7.797-1.099 4.644-3.054-0.408-4.939 0.061-3.401 2.242-7.305 3.372-11 5-6.708 2.954-15.355 5.773-21 10-1.468 1.099-9.469 4.457-9.776 5.833-0.538 2.402 2.401 3.337-2.265 2.763-3.431-0.423-7.411 2.609-10.326 4.008-4.549 2.18-9.117 4.317-13.667 6.493-3.65 1.74-7.89 4.9-11.96 4.9-3.944 0-7.173 5.486-9.614 8.386-6.093 7.237-11.712 14.892-18.319 21.684-3.594 3.691-4.158 3.564-3.019 8.135 0.579 2.323-5.587 4.25-7.484 5.861-2.617 2.223-6.481 3.837-6.574 7.195-0.175 6.273 1.742 5.727 7.51 6.3 10.385 1.033 20.684 2.729 30.997 4.298 5.158 0.783 10.322 1.529 15.504 2.144 1.841-4.184 7.158-1.017 10-4-1.984-1.498-5.064-0.978-7.358-1.441-3.86-0.778-2.253 2.98-5.642 3.441-0.159-0.812-6.792-9.708-6.709-9.688-1.065-0.246-3.278 1.608-4.039 0.293-2.278-3.945 2.946-1.7 3.891-1.849 2.174-0.338 1.636-2.77 1.122-4.034-1.427-3.513 5.487 0.6 6.401 0.861 2.352 0.679 3.65 0.836 5.131-0.987 1.899-2.339 4.919 2.306 7.203 2.403 0.381-3.187 2.353-5.394 4.999-7.001 1.926 0.281 2.601 1.956 4 3 0.924-2.94 3.499-6.09 2.147-8.646-1.277-2.416-1.895-2.408-3.765-4.401-2.566-2.734 3.702-5.162 4.798-0.632 0.614 2.541 8.996 3.919 11.677 4.602 1.918 0.488 9.025 1.191 8.268-2.41-0.203-0.964-1.122-8.155 2.184-3.962 2.981 3.782 0.176 12.394-1.309 16.451 5.288-0.165 1.69 8.693-1.26 9.74-2.877 1.021-1.987 1.557-1.973 4.36 0.021 3.813-5.704-0.283-2.768-3.103-2.373 0.245-4.055 1.396-3.333 3.926 1.213 4.253 4.001 2.83 7.686 3.922 3.167 0.938 6.157 2.286 9.502 2.497 5.31 0.336 5.716-1.354 9.145-4.345 2.667-2.324 4.901-2.221 6.341-5.758 0.194-0.939 0.742-1.521 1.642-1.745 1.96-0.655 0.898-2.217 2.017-3.497 4.075-4.661 14.143-11.906 13-19 3.258 0.641 4.594-2.647 7-4 3.447-1.938 7.41-2.565 11.038-4.056 3.089-1.271 5.851-4.405 8.385-6.584 3.099-2.664 6.882-4.471 10.577-6.36 3.771-1.932 5.393-1.804 8-5.729 1.643-2.474 6.492-4.817 5.535-7.25-1.829-4.648 2.604-1.892 4.465-2.021 0.568-3.531 4.989-6.307 2-10 9.15 0.4 7.62-14.22 10.56-18.74zm-150.56 58.74c1.128-3.42-2.748-3.833-2-7 1.633 0.355 4.129 2.694 5.844 1.516 4-2.752 1.646 0.463 5.156 0.484-0.12 0.86-7.8 5.39-9 5zm13-30c0.193-2.729-2.696-4.599 1.911-4.888 2.404-0.15 6.156 0.822 6.089 3.888-2.48 1.02-5.4 0.2-8 1zm45.64 51.84c-2.356 3.152-1.785 2.418-2.421 6.494-0.928 5.937-9.388 6.271-6.372-0.487 2.461-5.517-2.937-5.542-2.697-10.59 0.082-1.731 3.407-2.453 0.753-3.818-1.607-0.826-2.579-1.338-1.899-3.435h5c0.212 1.514-2.321 3.173 0.647 3.858 2.797 0.646 2.604 1.982 2.799 4.416 0.114 1.429 2.581 2.924 3.277 1.051 0.74-1.988-1.486-3.646 2.277-3.325 0.14 2.02-0.12 4.16-1.37 5.84zm2.36-67.84c-2.974 0.369-1.613-3.621-4-4 0-1.971-0.839-3.852 1.317-4.683 1.621-0.624 2.996-1.219 2.683-3.317 5.96 1.93-1.01 7.88 0 12zm51-8c2.942-0.443 3.408 4.068 6.406 3.007 0.956-0.339 4.603-4.819 3.608-0.158-1.49 6.98-13.99 2.37-10.02-2.85zm10 32c-3.356-3.379-7.793 2.659-10.007-3.594-0.944-2.668 3.584-2.604 5.007-2.406 2.332-0.288 0.033-4.31 2-5 0.88 0.678 1.88 1.011 3 1-2.33 3.69 1.77 6.6 0 10zm-2.9-17.65c-2.914 1.628-1.215 2.914-3.754 4.994-4.31 3.531-7.131-0.939-7.349-5.348 2.66-0.165 4.126 3.223 6.506 1.105 1.794-1.598 2.277-4.127 3.494-6.105 2.16-0.631 2.972 1.345 5 1-1.24 1.5-2.13 3.36-3.9 4.35zm8.9-5.35c3.087-0.765 3.913 2.765 7 2-1.1 6.46-11.9 2.7-7-2z" fill="none"/>
	<path d="m190.36 392.96c-1.11 2.416-2.991 4.294-3.359 7.04 1.639-0.688 3.13 0.843 4.424 1.517 2.738 1.429 6.259-0.329 8.652-1.661 2.331-1.299 5.571-4.306 8.409-3.891 2.567 0.375 2.458-2.396 5.01-1.975 2.165 0.357 3.26-2.076 5.446-2.598 2.197-0.525 5.479-0.357 6.924-2.345 1.893-2.601 8.115-1.479 10.008-3.991 3.479-4.613 11.785-2.481 15.521-6.162 4.298-4.233 11.101-3.289 16.562-5.938 3.924-1.903 3.975-1.496 3.07-5.644-0.476-2.18-0.869-5.013-2.668-6.572-3.112-2.7-14.7 4.24-18.358 5.26-0.388 1.027 1.135 5.166-1 5-3.641-2.833-4.414-3.062-8.826-1.554-5.353 1.833-12.093 3.562-14.174 9.554-1.361-0.304-1.794-1.782-3.141-2.109-1.933-0.47-4.362 1.2-6.009 1.959-1.965 0.905-3.914 2.09-4.85 4.15-2.33-0.085-4.646 0.243-6.825 1.084-3.646 1.407-6.566 4.116-10.121 5.698-2.76 1.21-3.39 0.36-4.68 3.16z" fill="none"/>
	<path d="m312.46 352.83c2.273-2.067 3.776-4.826 4.545-7.831-5.674 0.098-10.464 3.309-16 4 0.076 0.225 0.168 0.434 0.271 0.633 0.047 0.096 0.104 0.186 0.157 0.275s0.106 0.181 0.165 0.266c0.085 0.122 0.174 0.239 0.268 0.352 0.027 0.031 0.054 0.062 0.08 0.094 0.225 0.257 0.482 0.479 0.752 0.688 0.188 0.145 0.388 0.273 0.592 0.396 0.068 0.043 0.138 0.086 0.208 0.127 1.659 0.928 3.771 1.296 5.499 1.68 1.3 0.29 2.46-0.02 3.46-0.68z" fill="#fff"/>
	<path d="m292.87 355.04c-0.335-0.122-0.669-0.246-1.007-0.359-0.21-0.072-0.422-0.138-0.633-0.205-0.695-0.224-1.394-0.438-2.096-0.64-0.193-0.056-0.388-0.112-0.582-0.166-0.849-0.237-1.699-0.465-2.557-0.673-0.693 1.088-1.693 1.422-3 1 0.007 0.338 0.023 0.661 0.047 0.977 0.109 1.412 0.404 2.729 0.895 3.89 2.521 5.69 9.679 4.733 16.004 2.801 3.082-1.12 1.895-1.849-0.944-3.666-1.626-1.041-3.362-1.88-5.153-2.59-0.33-0.13-0.65-0.25-0.98-0.37z" fill="#fff"/>
	<path d="m308.48 373.62c0.121-0.161 0.235-0.328 0.322-0.521 3.515-7.846-2.449-5.574-7.371-3.996-0.798 0.281-1.606 0.526-2.438 0.707-0.354 0.084-0.688 0.15-0.995 0.191 0.227 1.452 1.334 2.691 2.761 3.568 1.507 0.736 3.372 1.003 4.982 1.188 1.02 0.11 1.98-0.36 2.74-1.14z" fill="#fff"/>
	<path d="m212 406c0.313 2.1-1.062 2.693-2.683 3.317-2.16 0.83-1.32 2.71-1.32 4.68 2.387 0.379 1.026 4.369 4 4-1.01-4.12 5.96-10.07 0-12z" fill="#010101"/>
	<path d="m273.02 412.85c0.994-4.661-2.652-0.181-3.607 0.158-2.998 1.062-3.465-3.45-6.406-3.007-3.97 5.22 8.53 9.83 10.02 2.85z" fill="#010101"/>
	<path d="m269 419c-1.217 1.979-1.7 4.509-3.494 6.105-2.38 2.116-3.846-1.271-6.506-1.105 0.218 4.407 3.039 8.879 7.349 5.348 2.539-2.08 0.84-3.367 3.754-4.994 1.769-0.988 2.658-2.857 3.897-4.354-2.03 0.33-2.84-1.64-5-1.01z" fill="#010101"/>
	<path d="m279 419c-4.905 4.7 5.903 8.459 7 2-3.09 0.76-3.91-2.76-7-2z" fill="#010101"/>
	<path d="m165.91 429.11c-4.607 0.289-1.718 2.159-1.911 4.888 2.595-0.801 5.522 0.016 8-1 0.07-3.06-3.68-4.04-6.09-3.89z" fill="#010101"/>
	<path d="m273 432c-1.12 0.011-2.12-0.322-3-1-1.967 0.69 0.332 4.712-2 5-1.423-0.197-5.951-0.262-5.007 2.406 2.214 6.253 6.65 0.215 10.007 3.594 1.77-3.4-2.33-6.31 0-10z" fill="#010101"/>
	<path d="m154.84 458.52c-1.715 1.18-4.211-1.16-5.844-1.516-0.748 3.167 3.128 3.58 2 7 1.195 0.388 8.882-4.14 9-5-3.51-0.02-1.16-3.24-5.16-0.48z" fill="#010101"/>
	<path d="m369 483c-3.711-0.251-4.141 4.51-8 2 0.624 3.122-0.914 4.863-4 5 0.794-4.398-3.045-4.217-6-3-0.258-3.388 0.91-6.377 4-8-1.189 2.958-0.896 5.52 3 5-1.904-1.895 9.107-10.561 1-11-0.986 7.224-6.764 1.749-9.745 4.255-1.871 1.571-0.588 5.471 0.745 7.745-2.105 1.098-3.389 2.431-3 5 3.546 0.474 5.361-3.84 5 2 3.236-0.405 11.402 7.638 11.906 2.906 0.169-1.58-0.557-5.298 1.593-5.907 3.621-1.026 1.229 3.55 1.501 5.001 6.18-1.59 1.13-7.31 2-11z" fill="#010101"/>
	<path d="m208.72 483.32c-0.696 1.873-3.163 0.378-3.277-1.051-0.195-2.434-0.002-3.771-2.799-4.416-2.968-0.687-0.435-2.346-0.647-3.858h-5c-0.68 2.097 0.292 2.607 1.899 3.436 2.654 1.364-0.671 2.087-0.753 3.817-0.24 5.048 5.158 5.073 2.697 10.59-3.016 6.758 5.444 6.424 6.372 0.487 0.636-4.076 0.065-3.342 2.421-6.494 1.25-1.673 1.518-3.811 1.364-5.836-3.75-0.32-1.53 1.34-2.27 3.32z" fill="#010101"/>
	<path d="m305.06 494.55c2.9-0.76 1.94-1.88 1.94-4.55-3.08-2.271-8.87-0.414-8 4 1.58 1.59 4.19 1.04 6.06 0.55z" fill="#010101"/>
	<path d="m318.01 495.99c2.86 3.938 6.808 3.904 5.994-1.993-1.96-1.99-8.56-1.54-5.99 1.99z" fill="#010101"/>
	<path d="m283.35 506.1c-1.164 4.633 5.521 2.424 7.646 0.895-3.021 0.618-3.644-1.591-4-4 4.371-0.042 6 3.325 6-3-4.69-0.51-8.45 1.37-9.65 6.1z" fill="#010101"/>
	<path d="m305 500c-0.11 1.496-0.501 3.265-2 4-1.789-2.688-3.437-4.56-7-4-1.668 1.536-0.332 4.464-2 6 2.634-0.139 5.705 2.31 8 0-0.065 1.514 0.603 2.514 2 3 1.1-3.14 6.55-6.93 1-9z" fill="#010101"/>
	<path d="m343 508c4.443 0.443 7.441-0.559 7-5-3.72-1.94-7.01 0.43-7 5z" fill="#010101"/>
	<path d="m412 514c5.146 0.812 6.116-2.551 6-7-4.25 0.09-6.31 2.36-6 7z" fill="#010101"/>
	<path d="m387 508c-0.584 2.406-4.074 8.223 1 8 3.05-2.03 4.59-9.13-1-8z" fill="#010101"/>
	<path d="m404 513c-5.816 3.229-4.145 11.948 3 10 7.78-2.12 0.91-10.94-3-10z" fill="#010101"/>
	<path d="m413 533c-1.577-1.822-4.005-3.961-6.649-3.476-1.441 0.361-2.56 1.188-3.351 2.476h-5c-0.377 1.556 0.377 1.963 1.403 2.797 3.441 2.795-3.305 2.203-4.403 2.203 0.094 1.821-0.589 3.341-2.233 4.195-2.989 1.552-8.86 3.2-7.767-2.195-5.154 0.279-14.569-0.734-14 7 5.026-0.705 8.599-9.225 12.377-1.252 2.773 5.852 4.27 8.652 11.452 6.581 1.319-0.38 2.652-0.541 3.879-0.853 1.78-1.229 3.542-2.483 5.284-3.764l16.01-14.72c-2.58-0.4-4.36 1.61-7 1z" fill="#fff"/>
	<path d="m355 352c-1.736 0.429-6.042 1.593-6 4 4.146-1.346 11.062-0.095 14-4-1.215-0.188-4.64-0.434-7.798-0.042-0.06 0.02-0.13 0.02-0.2 0.04z" fill="#fff"/>
	<path d="m401.81 168.68c0.804-2.059 1.46-3.754 1.797-4.655 1.973-5.274 3.896-10.605 6.729-15.491 2.564-4.423 3.401-9.182 5.663-13.534 4.841-9.319 10.854-18.594 16-28 2.258-4.128 4.338-8.3 6.647-12.408 1.222-2.177 2.373-4.398 3.448-6.651 1.067-2.231 2-1.426 2.902-2.94 2.375-3.988 5.032-8.694 7.019-12.965 1.577-3.392 5.892-7.068 6.484-10.598 0.278-1.653 3.602-6.762 4.989-7.43 2.532-1.217 4.931-6.572 6.508-9.007 5.986-9.239 11.94-19.463 19.048-27.85 2.34-2.766 15.12-17.151 5.95-17.151-3.273 2.622-5.86 5.736-8.251 8.989-3.662 4.983-6.858 10.293-11.325 14.679-2.746 2.697-4.88 6.054-7.646 8.612-3.346 3.094-4.201 7.158-7.272 10.37-3.088 3.23-6.355 6.331-9.539 9.472-1.149 1.135-2.948 0.857-3.965 1.877-0.919 0.919-0.878 2.16-1.976 3.076-8.043 6.708-14.863 15.698-22.26 23.159-5.152 5.2-10.362 10.336-15.592 15.453-2.86 2.799-5.72 5.6-8.596 8.386-1.397 1.354-2.509 3.191-3.641 4.944-1.163 1.805-2.349 3.519-3.889 4.523-0.255 0.166-0.49 0.33-0.714 0.492-2.245 1.627-3.062 3.096-4.454 4.853-0.514 0.649-1.105 1.339-1.879 2.09-0.182 0.177-0.354 0.361-0.534 0.539-3.896 3.843-7.456 7.928-11.02 12.005-3.072 3.515-6.164 7.012-9.486 10.335-0.239 0.24-0.47 0.487-0.712 0.725-0.564 0.554-1.072 1.123-1.56 1.694-28.02-11.808-58.784-18.342-91.048-18.342-129.69 0-235.2 105.51-235.2 235.2 0 46.467 13.548 89.827 36.896 126.35-2.681-0.281-5.187-0.714-5.781-0.802-5.931-0.87-12.622-3.111-18.632-2.743-4.824 0.296-8.747-2.213-13.663-2.656-5.644-0.513-11.439-0.482-16.973-1.828-5.295-1.27-10.872-3.59-16.287-1.43 0.877 9.733 10.29 13.468 18 17 11.045 5.06 22.605 9.005 34.264 12.388 10.25 2.979 20.261 4.461 30.351 7.307 3.441 0.971 7.314 1.562 11.106 2.37 43.12 48.594 106 79.273 175.92 79.273 129.69 0 235.2-105.51 235.2-235.2 0.01-80.73-40.88-152.08-103.03-194.46zm-38.81 183.32c-2.938 3.905-9.854 2.654-14 4-0.042-2.407 4.264-3.571 6-4 0.067-0.018 0.135-0.025 0.202-0.042 3.16-0.39 6.58-0.15 7.8 0.04zm-320.94 11.14c0-125.49 102.1-227.59 227.59-227.59 30.438 0 59.491 6.021 86.055 16.911-0.66 0.666-1.35 1.23-2.118 1.618-0.195 0.099-0.395 0.188-0.602 0.265 0.178 0.341-5.727 6.323-5.729 6.633-0.018 1.626-2.192 2.88-2.983 4.274-2.093 3.684-4.568 6.953-9.266 6.751 1.436 2.029-2.732 9.096-4.535 10.599-1.791 1.493-3.975 2.556-5.465 4.401-1.174 1.453-0.863 3.533-2 5-6.534 8.435-13.466 16.142-19.843 24.757-7.445 10.059-14.489 20.361-21.454 30.753-1.374 2.049-3.372 3.509-4.703 5.49-1.021 1.517-1.021 3.464-2 5-2.285 3.586-4.635 7.353-7 11-2.037 3.143-5.386 5.509-7.077 8.919-2.423 4.885-5.25 9.334-7.923 14.081-3.186 5.657-7.338 15.94-14.973 15.392-3.375-0.242-7.285-2.062-10.614-0.707-3.507 1.43-3.222 5.981-0.957 8.36 2.705 2.841 4.558 3.675 1.65 7.517-2.362 3.119-5.858 5.041-8.666 7.696-2.507 2.371-2.272 4.742-5.94 4.742-1.66 0-3.29-0.507-3.549 1.522-0.427 3.349-0.796 3.844-2.476 6.279-0.785 1.139-2.305 0.497-3.388 0.655-1.821 0.267-1.785 3.379-2.532 4.742-2.218 4.051-6.08 6.901-9.555 9.799-6.605 5.503-12.372 13.876-18.083 20.709-2.528 3.024-5.277 6.535-7.917 9.291-2.842 2.967-4.783 8.133-8.527 9.992-2.642 1.312-0.991 3.031-2.473 5.008-1.663 2.217-3.437 4.348-5.268 6.426-3.829 4.347-7.898 8.47-11.896 12.656-6.567 6.878-14.126 14.54-19.069 22.639-2.546 4.171-6.867 7.921-8.802 12.259-2.11 4.728-4.455 8.185-8.384 11.615-3.642 3.181-7.52 6.125-9.181 10.823-1.06 2.999-5.677 7.435-4.401 10.582l-7.75-0.813c-24.111-36.1-38.19-79.45-38.19-126.03zm246.94 70.86c-1.861 0.131-6.294-2.627-4.465 2.021 0.957 2.433-3.893 4.776-5.535 7.25-2.607 3.925-4.229 3.797-8 5.729-3.695 1.891-7.479 3.696-10.577 6.36-2.534 2.179-5.296 5.313-8.385 6.584-3.628 1.489-7.591 2.118-11.038 4.056-2.406 1.354-3.742 4.641-7 4 1.143 7.094-8.925 14.339-13 19-1.119 1.28-0.057 2.842-2.017 3.497-0.9 0.224-1.448 0.806-1.642 1.745-1.44 3.537-3.674 3.434-6.341 5.758-3.429 2.99-3.835 4.681-9.145 4.345-3.345-0.211-6.335-1.559-9.502-2.497-3.685-1.092-6.473 0.331-7.686-3.922-0.722-2.529 0.96-3.681 3.333-3.926-2.936 2.818 2.789 6.916 2.768 3.102-0.014-2.804-0.904-3.34 1.973-4.359 2.95-1.047 6.548-9.905 1.26-9.74 1.485-4.059 4.29-12.669 1.309-16.451-3.306-4.193-2.387 2.998-2.184 3.962 0.757 3.603-6.35 2.898-8.268 2.41-2.681-0.683-11.063-2.061-11.677-4.602-1.096-4.53-7.364-2.104-4.798 0.632 1.87 1.993 2.488 1.984 3.765 4.4 1.352 2.558-1.223 5.707-2.147 8.646-1.399-1.044-2.074-2.719-4-3-2.646 1.607-4.618 3.814-4.999 7.001-2.284-0.099-5.304-4.742-7.203-2.403-1.481 1.823-2.779 1.666-5.131 0.987-0.914-0.263-7.828-4.374-6.401-0.861 0.514 1.266 1.052 3.696-1.122 4.034-0.945 0.147-6.169-2.098-3.891 1.849 0.761 1.315 2.974-0.539 4.039-0.294-0.083-0.02 6.55 8.877 6.709 9.688 3.389-0.461 1.782-4.221 5.642-3.441 2.294 0.465 5.374-0.057 7.358 1.441-2.842 2.983-8.159-0.184-10 4-5.182-0.613-10.346-1.359-15.504-2.144-10.313-1.568-20.612-3.265-30.997-4.299-5.768-0.572-7.685-0.024-7.51-6.299 0.093-3.358 3.957-4.974 6.574-7.195 1.897-1.611 8.063-3.538 7.484-5.861-1.139-4.569-0.575-4.442 3.019-8.135 6.607-6.792 12.226-14.445 18.319-21.684 2.441-2.898 5.67-8.386 9.614-8.386 4.072 0 8.31-3.155 11.966-4.903 4.55-2.176 9.118-4.313 13.667-6.494 2.915-1.396 6.896-4.43 10.326-4.007 4.666 0.574 1.727-0.359 2.265-2.763 0.307-1.376 8.308-4.734 9.776-5.833 5.645-4.228 14.292-7.046 21-10 3.695-1.628 7.599-2.758 11-5 1.885-0.47 3.84 4.583 4.939-0.062 1.286-5.432 9.997-5.192 14.844-7.797 2.59-1.392 7.538-2.027 9.33-4.22 1.353-1.653 5.981-1.401 8.283-2.706 4.692-2.664 14.47-7.423 19.715-4.023 2.565 1.664 4.44 4.195 7.146 5.676 2.64 1.441 3.122 0.371 4.742 3.132 0.245 1.858 1.276 2.626 3.099 2.303 3.147 1.031 6.709 2.413 7.204 5.192 0.562 3.135 2.192 6.768 0.255 9.76-2.932 4.522-1.408 19.14-10.558 18.745 3.01 3.69-1.41 6.47-1.98 10zm-85 93c-1.758 2.574-3.807 3.673-7 3-2.507 0.345 1.013 3.903-2.635 3.135-1.363-0.287-1.786-1.401-3.365-1.135 0.048-5.453 7.417-2.414 7.206-5.581-0.193-2.903-4.675-2.021-4.206-5.419 6.991-0.122 12.661 4.934 18.711 8.066 2.371 1.228 1.653 2.317 4.929 2.071 3.532-0.265 5.812-2.887 7.412 1.271 3.186 8.275-5.846 1.932-6.052 5.589-4.463-1.778-3.759-7.464-10-6v-3.999c-1.03-0.39-5.17 1.13-5-1zm-38 7c-1.79-0.765-2.216 1.349-3.474 1.84-1.912 0.745 2.491-3.893 2.474-3.84 3.589-0.404 4.614 2.072 7 4-0.088-0.017 6.958-1.188 4.902 0.902-0.797 0.811-4.487-1.12-3.902 1.098 0.251 4.044 5.4 3.064 7 6-6.227 4.7-7.175-8.043-13-4 0.1-1.78 0.42-4.55-1-6zm-50-9c2.125-0.486 7.801 1.554 8.999-1.001 4.767-0.229 3.256 6.087 9.808 5.008 3.17-0.521 3.323-3.248 6.459-3.272 2.251-0.02 3.933 0.999 5.538 2.462 2.787 2.54 8.954-0.929 9.093-0.692 0.947 1.606-0.458 3.781 0.103 5.497 0.74 2.271 3.822 2.34 4 5 3.244-1.697 2.461 1.05 5 2-2.195 4.396-9.493 0.969-10-3-2.933 1.351-5.205 2.53-7-1-2.234-0.555-1.241 1.899-3 2-2.536-0.316-4.971-1.205-7.359-2.064-3.86-1.41-21.78-5.14-21.64-10.95zm93.47-164.32c-2.871-1.595 0.253-2.673 1.667-4.549 1.663-2.206 0.129-2.424 2.741-4.148 1.729-1.14 3.135-2.676 4.416-4.283 2.129-2.672 4.016-5.646 6.868-7.631 4.249-2.959 11.967-19.955 18.794-14.354 3.212 2.634 10.799 5.378 10.877 9.289 0.052 2.581 1.528 4.29 3.716 5.451 2.281 1.212 5.25 2.013 6.45 4.55-1.828 4.36-5.851 5.06-9.912 6.274-8.694 2.604-17.313 7.3-25.854 10.552-2.241 0.853-4.382 1.979-6.702 2.591-2.209 0.584-1.117 1.956-2.532 2.583-3.098 1.374-6.334 2.062-9.379 3.629-3.683 1.896-7.531 4.461-11.621 5.371-0.245 0.055-7.011 0.354-6.62 0.604-0.758-0.48 12.373-12.846 12.62-13.604 1.545-0.108 2.426 1.188 4 1 0.26-1.02 1.98-2.48 0.45-3.32zm88.01-24.84c-6.035 2.124-12.004 4.795-18.484 5.161 0-6.332-3.332-3.151-8-6-1.328-2.379-2.641-4.784-4.284-6.966-2.327-3.092-2.792-0.902-5.604-2.619-1.539-0.939-2.563-2.497-4.109-3.415-2.123-1.262-3.59-0.379-5.491-2.382-3.688-3.885-4.384-10.046 2.564-9.376 10.983 1.06 21.385 4.463 31.762 8.026 3.638 1.25 18.981 3.906 19.165 8.729 3.768-0.446 5.725 1.922 8.999 3.001-4.12 4.11-11.29 4-16.52 5.84zm1.52 22.16c2.839 1.816 4.026 2.546 0.944 3.666-0.305 0.109-0.637 0.225-1.027 0.344-2.534 0.777-5.184 1.467-7.855 1.459-3.696-0.01-5.967-1.861-7.121-4.604-0.488-1.161-0.783-2.479-0.894-3.889-0.022-0.315-0.04-0.64-0.047-0.978 1.306 0.422 2.306 0.088 3-1 0.856 0.208 1.708 0.437 2.558 0.673 0.193 0.055 0.389 0.11 0.582 0.166 0.701 0.202 1.398 0.416 2.094 0.639 0.137 0.043 0.273 0.08 0.408 0.125 0.075 0.024 0.149 0.055 0.226 0.08 0.338 0.114 0.672 0.238 1.007 0.36 0.325 0.119 0.65 0.239 0.973 0.367 1.79 0.71 3.52 1.55 5.15 2.59zm-103.95 31.78c3.555-1.582 6.475-4.291 10.121-5.698 2.179-0.841 4.495-1.169 6.825-1.084 0.936-2.061 2.885-3.245 4.85-4.15 1.647-0.759 4.076-2.429 6.009-1.959 1.347 0.327 1.78 1.807 3.141 2.109 2.081-5.991 8.821-7.721 14.174-9.554 4.412-1.509 5.185-1.279 8.826 1.554 2.135 0.166 0.612-3.973 1-5 3.658-1.02 15.246-7.96 18.358-5.26 1.799 1.561 2.192 4.394 2.668 6.572 0.904 4.146 0.854 3.739-3.07 5.644-5.462 2.649-12.264 1.705-16.562 5.938-3.735 3.681-12.042 1.549-15.521 6.162-1.893 2.512-8.115 1.392-10.008 3.991-1.445 1.986-4.727 1.818-6.924 2.345-2.186 0.521-3.281 2.954-5.446 2.598-2.552-0.422-2.443 2.35-5.01 1.975-2.838-0.415-6.078 2.592-8.409 3.891-2.393 1.332-5.914 3.09-8.652 1.661-1.294-0.674-2.785-2.204-4.424-1.517 0.368-2.746 2.249-4.624 3.359-7.04 1.28-2.79 1.91-1.94 4.68-3.17zm105.71-16.21c-1.427-0.877-2.535-2.116-2.761-3.568 0.308-0.041 0.642-0.107 0.995-0.191 0.742-0.176 1.574-0.432 2.438-0.707 4.922-1.578 10.887-3.85 7.373 3.996-0.088 0.193-0.203 0.36-0.324 0.521-1.44 1.91-5.12 1.55-7.73-0.05zm8.23-20.06c-1.729-0.384-3.839-0.752-5.499-1.68-0.07-0.041-0.139-0.084-0.208-0.127-0.204-0.123-0.403-0.253-0.591-0.396-0.271-0.209-0.528-0.432-0.752-0.688-0.027-0.03-0.055-0.062-0.08-0.094-0.094-0.111-0.184-0.229-0.269-0.352-0.059-0.085-0.11-0.176-0.165-0.266-0.054-0.092-0.109-0.18-0.158-0.275-0.102-0.199-0.192-0.408-0.27-0.633 5.536-0.691 10.326-3.902 16-4-0.68 2.658-2.18 6.262-4.545 7.831-0.98 0.67-2.14 0.98-3.45 0.69zm0.33-34.41c-1.909-3.623-5.65-2.808-9.317-3.096-0.416-2.04-2.774-2.273-4.308-3.025-0.89-0.375-1.455-1.035-1.692-1.975-1.711 0.096-3.41-0.005-5.097-0.303-2.834-0.508-5.457-1.641-8.12-2.68-3.238-1.266-8.49-0.92-10.146-3.987-0.174-0.319-3.469-6.583-4.464-3.855-1.702 4.67-2.667 1.782-7.175 1.825 1.368-5.057 7.366-5.835 7.854-10.145 0.312-2.751 3.293-3.44 4.146-5.855 4.21 0.271 8.1 1.723 12.104 2.896 5.229 1.529 6.029 2.009 8.896 3.104 2.157 1.565 4.66 2.581 7.127 3.54 4.727 1.838 10.377 3.615 12.873 8.46 1.763-2.791 11.954 4.729 14 6 4.268 2.654 13.169 5.734 9.705 11.721-2.763 4.774-8.806 4.149-13.329 2.793-2.56-0.77-11.95-3.32-13.05-5.41zm14.27 127.78c0.969-2.955 2.392-1.878 5.408-1.878 1.293-1.14 2.534-2.362 3.448-3.838 1.054-1.703 1.568-3.645 1.646-5.637 0.138-3.478 1.021-3.17 3.062-5.866 2.835-3.736 4.684-8.158 7.842-11.659 5.727 2.851 0.617 23.729-3.351 27.049-7.05 5.91-11.3 12.72-21.65 11.96-0.24-4.08 2.41-6.52 3.59-10.12zm-53.94 143.84c-52.786 0-101.43-18.065-140.08-48.336 5.734 1.958 11.561 4.028 10.432 3.615 18.038 6.606 37.653 12.33 56.097 14.126 18.874 1.837 37.236 6.288 56.003 8.462 4.38 0.508 24.669 2.337 25.085 6.429 0.246 2.428 13.229 4.354 16.334 4.243 6.33-0.225 7.049 6.33 14.152 2.213 4.754-2.756 13.212 7.104 16.328 0.528l3.951 1.136c-18.6 4.94-38.15 7.58-58.29 7.58zm129.06-40.24c-1.227 0.312-2.56 0.473-3.879 0.853-7.184 2.071-8.679-0.729-11.452-6.581-3.778-7.973-7.351 0.547-12.377 1.252-0.569-7.734 8.846-6.721 14-7-1.095 5.396 4.776 3.747 7.767 2.195 1.646-0.854 2.327-2.374 2.233-4.195 1.1 0 7.846 0.592 4.403-2.203-1.026-0.834-1.78-1.241-1.403-2.797h5c0.791-1.288 1.908-2.113 3.351-2.476 2.646-0.485 5.072 1.652 6.649 3.476 2.644 0.612 4.417-1.399 6.999-0.999l-16.007 14.713c-1.74 1.28-3.5 2.54-5.28 3.77zm25.27-20.25l2.379-2.736c-5.077 2.33-16.198-1.887-21.364-1.489-2.835 0.218-12.756-3.45-11.563-4.875 4.736-5.654-3.004-0.928-5.271-0.954-4.674-0.055-11.128-2.254-13.684-6.251-3.238-5.071-4.951 1.773-8.148-0.478-2.005-1.412-2.537 1.342-3.839 2.262-1.844 1.303-2.603-1.177-5.063 1.523-4.272 4.69-5.883 1.744-6.493-3.163-0.983-7.899-8.97 2.651-10.444-2.306-0.954-3.201-0.772-7.676-5.489-6.761 2.197-6.185-4.428-8.991-3.699-4.02 0.484 3.307-4.196 6.028-7.301 7.02 0.152-2.567-2.583-8.085-4.35-3.106-0.816 2.298 1.164 4.825 0.941 7.19-0.295 3.163-3.193 3.72-4.408 0.82-0.893-2.139-0.62-4.562-1.469-6.712-1.331-3.382-4.276-1.754-6.479-0.188-3.12 2.22-1.306 6.966-3.826 7.741-4.058 1.248-3.968 2.697-2.785 6.627 0.767 2.542-3.261 3.988-5.627 3.628 0.483-3.949-3.994-4.215 0.021-7.378 4.324-3.406-3.209-4.989-5.021-5.622-3.159 1.519-1.465 6.881-5 8 1.456 4.085 4.173-0.658 7 0-2.789 2.569 0.89 6.101-3.834 5.2-2.541-0.484-4.95 1.109-7.479 0.598-4.793-0.973 1.232-6.269 1.41-8.589 0.293-3.806-5.976-12.295-9.996-10.606-3.438 1.442-6.92 10.344-1.102 9.397-2.037 3.063-7.283 2.488-10.141 4.626-1.668 1.248-4.424 4.582-6.859 3.374 2.039-4.329 1.984-9.782-2-13-3.844 0.926-0.876 5.556-1 8-2.305 0.205-4.923-3.47-7.14-1.567-1.557 1.336-0.444 4.447-2.456 5.4-3.874 1.835-1.659-5.643-1.405-6.833 5.61 0.3 6-0.723 6-6-2.292-0.363-10.215-12.659-9.466-3.62 0.818 9.868-12.22 5.726-18.534 4.62 5.572-5.575 13.292-8.189 19.893-12.25 3.503-2.155 6.592-4.177 7.654-8.203 0.95-3.601 2.759-7.153 6.453-8.547 2.558 2.683-1.646 6.806-2.185 9.482-0.692 3.439-3.452 5.953-3.815 9.518-8.408-7.343-0.33 8.369-1 1 2.486 0.168 2.093 3.428 2 5 1.46 0.127 2.127-0.54 2-2 5.571 2.104 8.392 7.622 13.114 10.886 6.871 4.748 1.119-5.392 0.886-6.886-2.317 1.301-7.153-0.585-5.451-3.595 1.56-2.76 5.521-3.142 6.451-6.405 2.966 1.735 0.683 3.895 0.503 6.263-0.165 2.18 3.143 2.199 3.491 0.224 0.264-1.492-1.128-3.366-0.129-4.742 1.219-1.678 1.476-4.021-1.865-3.742 1.365-3.081 3.108-2.396 6-2-5.028-3.913 1.108-11.201 1-16 3.951-4.636 11.813-1.342 17-3 5.345-1.71 11.89-2.412 16.957-4.854 3.331-1.606 6.027-6.521 10.044-7.146 0 6.489 2.782 0.804 4.654-1.146 1.863-1.944 6.713-1.391 9.297-2.771 5.271-2.814 8.131-8.314 12.64-12.027 5.132-4.226 6.537-17.35 6.708-23.809 0.087-3.319 2.979-6.214-0.092-8.456-3.133-2.288 0.749-2.588 0.522-5.031-0.363-3.922 2.985-3.73 4.271-6.762 0.76-1.794-0.403-3.531 0.655-5.42 0.634-1.012 1.2-2.062 1.7-3.146 3.037-7.383-3.475-14.812-10.355-16.436-0.595-3.688 0.804-6.256 4-8 0.885-3.765-2.592-5.049 2.18-6.572 3.768-1.201 4.242 1.469 7.485-1.763 1.719-1.711 7.089-1.437 9.473-2.127 10.316-2.995 3.074-8.991-2.726-13.283-6.803-5.032-4.84-15.681-3.925-23.495 0.48-4.121 2.167-7.062 1.446-10.684-0.633-3.186 1.274-8.071 1.5-11.375 0.546-8.004 0.227-17.605 4.564-24.701-2.668-3.922 1.039-9.037 1.562-13.127 0.455-3.555-0.586-11.505 2.428-13.929 2.691-2.168 1.227-6.901 2.011-9.944 0.635-2.456 2.104-1.076 2.374-4.558 0.07-1.681 0.146-3.362 0.229-5.043 0.295-3.389 2.869-5.758 3.491-9.464 0.71-4.235 2.11-8.132 3.234-12.253 1.082-3.965 3.464-6.643 4.406-10.361 0.963-3.803 1.729-7.69 3.266-11.32 0 0 1.911-4.832 3.957-10.035 59.332 41.118 98.272 109.68 98.272 187.17 0.03 65.99-28.2 125.49-73.22 167.1z" fill="#010101"/>
<metadata><rdf:RDF><cc:Work><dc:format>image/svg+xml</dc:format><dc:type rdf:resource="http://purl.org/dc/dcmitype/StillImage"/><cc:license rdf:resource="http://creativecommons.org/licenses/publicdomain/"/><dc:publisher><cc:Agent rdf:about="http://openclipart.org/"><dc:title>Openclipart</dc:title></cc:Agent></dc:publisher><dc:title>windsurfing</dc:title><dc:date>2006-11-02T12:03:05</dc:date><dc:description>a silhouette of a wind surfer</dc:description><dc:source>http://openclipart.org/detail/1181/windsurfing-by-johnny_automatic</dc:source><dc:creator><cc:Agent><dc:title>johnny_automatic</dc:title></cc:Agent></dc:creator><dc:subject><rdf:Bag><rdf:li>activity</rdf:li><rdf:li>athletics</rdf:li><rdf:li>clip art</rdf:li><rdf:li>clipart</rdf:li><rdf:li>image</rdf:li><rdf:li>media</rdf:li><rdf:li>ocean</rdf:li><rdf:li>png</rdf:li><rdf:li>public domain</rdf:li><rdf:li>silhouette</rdf:li><rdf:li>sport</rdf:li><rdf:li>surf</rdf:li><rdf:li>svg</rdf:li><rdf:li>wind</rdf:li><rdf:li>windsurfer</rdf:li></rdf:Bag></dc:subject></cc:Work><cc:License rdf:about="http://creativecommons.org/licenses/publicdomain/"><cc:permits rdf:resource="http://creativecommons.org/ns#Reproduction"/><cc:permits rdf:resource="http://creativecommons.org/ns#Distribution"/><cc:permits rdf:resource="http://creativecommons.org/ns#DerivativeWorks"/></cc:License></rdf:RDF></metadata></svg>
