<?xml version="1.0" encoding="UTF-8" standalone="no"?>
<!-- Created with Inkscape (http://www.inkscape.org/) -->
<svg
   xmlns:svg="http://www.w3.org/2000/svg"
   xmlns="http://www.w3.org/2000/svg"
   version="1.0"
   x="0.00000000"
   y="0.00000000"
   width="245.00000"
   height="305.00000"
   id="svg2">
  <defs
     id="defs4" />
  <rect
     width="303.00000"
     height="317.00000"
     x="62.453476"
     y="34.523251"
     style="fill:none;stroke:none"
     id="rect1368" />
  <path
     d="M 90.593750,10.281250 C 89.975184,10.199000 89.248680,10.246100 88.406250,10.406250 C 83.351734,11.367120 74.985290,16.389740 71.687500,21.218750 C 68.375774,26.068119 68.755370,34.703990 72.562500,41.062500 C 73.776884,43.090741 75.075290,46.406920 75.437500,48.437500 C 76.063094,51.944801 77.444460,53.053090 78.375000,50.781250 C 78.526994,50.410151 79.086020,50.273030 79.750000,50.218750 C 80.124664,50.263971 80.475630,50.274540 80.906250,50.437500 C 82.124294,50.898431 85.851680,51.583500 89.187500,51.968750 C 92.523334,52.354001 95.898330,53.088360 96.687500,53.593750 C 97.714954,54.251721 98.697258,53.786990 100.15625,52.000000 C 101.27693,50.627411 102.90676,49.531250 103.78125,49.531250 C 106.33638,49.531251 107.54653,47.207600 107.21875,42.968750 C 107.00180,40.163031 107.41206,38.596580 108.65625,37.531250 C 109.33432,36.950661 109.53770,36.382140 109.59375,35.781250 C 109.63175,35.630001 109.61409,35.403960 109.59375,35.218750 C 109.57722,35.068181 109.62881,34.942730 109.59375,34.781250 L 109.40625,34.781250 C 109.24128,34.108101 109.00462,33.409500 108.21875,32.062500 C 107.22448,30.358321 106.99782,29.093410 107.56250,28.125000 C 108.13343,27.145869 107.93227,25.977400 106.90625,24.218750 C 105.83455,22.381849 105.64549,20.696970 106.12500,18.093750 C 106.90760,13.845059 106.39804,13.498920 98.187500,12.500000 C 95.228814,12.140030 92.451210,11.449120 92.031250,10.968750 C 91.710694,10.602080 91.212300,10.363490 90.593750,10.281250 z M 176.21875,23.437500 C 175.74215,23.523999 172.22969,23.701670 168.43750,23.843750 C 160.44825,24.143089 158.60847,25.430530 158.09375,30.968750 C 157.90251,33.026679 156.86402,35.654840 155.78125,36.843750 C 154.69850,38.032651 152.72437,40.226380 151.37500,41.718750 C 149.10485,44.229511 146.99357,49.551140 145.93750,55.375000 C 145.68769,56.752711 146.20537,58.543050 147.15625,59.593750 C 148.71654,61.317821 148.61070,61.683110 145.50000,65.718750 C 143.68053,68.079251 141.03243,71.011250 139.62500,72.218750 C 137.15941,74.334101 137.14459,74.385340 139.31250,73.843750 C 140.55002,73.534591 141.56249,73.520380 141.56250,73.812500 C 141.56252,74.819501 132.36378,79.490670 131.46875,78.937500 C 130.97549,78.632641 129.32125,79.244150 127.81250,80.281250 C 124.58983,82.496521 118.20276,85.531250 116.75000,85.531250 C 116.19147,85.531251 115.53335,86.093750 115.28125,86.781250 C 114.96961,87.631221 114.48797,87.686980 113.75000,87.000000 C 112.98693,86.289651 114.10036,84.355970 117.50000,80.500000 C 120.15932,77.483731 122.10383,74.490220 121.84375,73.812500 C 121.18159,72.086921 111.88190,65.531250 110.09375,65.531250 C 108.24274,65.531251 105.97552,62.011210 105.09375,57.781250 C 104.38990,54.404741 102.45825,52.344070 101.81250,54.281250 C 101.60702,54.897741 100.78946,55.146690 100.00000,54.843750 C 98.916324,54.427891 98.562490,55.183040 98.562500,57.906250 C 98.562514,60.859331 98.938788,61.531250 100.59375,61.531250 C 102.75130,61.531251 103.13417,62.203490 106.56250,72.531250 C 110.94164,85.723271 113.87846,100.43648 112.84375,103.84375 L 111.90625,107.03125 L 110.68750,102.53125 C 108.57843,94.637481 103.32344,83.274470 97.968750,75.031250 C 92.647254,66.839111 88.377850,61.531250 87.125000,61.531250 C 86.241244,61.531251 83.562490,58.900430 83.562500,58.031250 C 83.562514,57.675821 86.487490,57.558390 90.062500,57.781250 C 93.637514,58.004121 96.562490,57.800470 96.562500,57.343750 C 96.562514,56.887021 93.974990,56.492890 90.812500,56.468750 C 87.650014,56.444611 83.262490,55.792570 81.062500,55.000000 C 78.862514,54.207421 76.768270,53.539530 76.406250,53.531250 C 75.370954,53.507571 68.520690,66.452360 66.343750,72.531250 C 63.300084,81.030401 63.073280,88.072528 65.500000,99.750000 C 66.673074,105.39478 68.277480,111.60625 69.062500,113.53125 C 72.415994,121.75464 72.737440,125.08768 70.718750,131.21875 C 69.025344,136.36195 67.297930,143.04851 66.125000,149.03125 C 65.909354,150.13124 65.269990,153.05625 64.687500,155.53125 C 64.105024,158.00624 63.607190,161.71875 63.593750,163.78125 C 63.584003,165.27697 63.314468,166.33679 62.968750,166.93750 L 60.218750,172.00000 C 59.135388,174.42537 57.475633,177.82145 54.375000,183.53125 C 49.907100,191.75890 48.218790,196.94985 49.000000,200.06250 C 49.856310,203.47426 50.797850,203.13274 53.625000,198.40625 C 54.973080,196.15252 58.191770,191.47130 60.781250,188.00000 C 63.370740,184.52869 65.797300,180.52393 66.156250,179.09375 C 66.515214,177.66357 67.198420,176.23977 67.687500,175.93750 C 68.176584,175.63523 68.562490,174.72381 68.562500,173.90625 C 68.562514,172.12441 57.866980,183.05439 57.031250,185.68750 C 56.710400,186.69842 56.062990,187.53125 55.593750,187.53125 C 55.124520,187.53124 54.424890,188.88125 54.062500,190.53125 C 53.700110,192.18124 53.030550,193.53125 52.562500,193.53125 C 52.094460,193.53124 51.517680,194.31875 51.281250,195.28125 C 51.044840,196.24374 51.047950,195.45625 51.281250,193.53125 C 51.846020,188.87117 56.739750,181.59502 65.312500,172.75000 C 70.356774,167.54553 72.531650,165.91110 72.937500,166.96875 C 73.248754,167.77983 73.108660,168.70108 72.625000,169.00000 C 72.141354,169.29891 71.421900,171.00005 71.031250,172.78125 C 70.640624,174.56243 69.464170,177.58314 68.437500,179.50000 C 67.410834,181.41685 66.562490,183.77935 66.562500,184.75000 C 66.562514,185.72064 66.154550,186.53125 65.656250,186.53125 C 65.157964,186.53124 64.044510,188.64309 63.156250,191.25000 C 62.183150,194.10590 59.624560,197.98123 56.718750,201.00000 C 54.066310,203.75558 50.671660,208.16875 49.187500,210.78125 C 46.327820,215.81499 46.780750,216.84855 50.375000,213.50000 C 51.572640,212.38422 56.630170,209.34673 61.625000,206.75000 C 66.619860,204.15325 71.482530,201.61204 72.406250,201.12500 C 73.329994,200.63794 76.987490,194.24903 80.562500,186.90625 C 84.137514,179.56346 87.399990,173.53893 87.812500,173.53125 C 88.225014,173.52357 88.562490,172.84225 88.562500,172.00000 C 88.562514,171.15772 89.193510,170.22299 89.937500,169.93750 C 90.681494,169.65200 92.318720,167.19099 93.593750,164.46875 C 94.868794,161.74649 96.212760,159.53125 96.562500,159.53125 C 96.912244,159.53124 98.731248,156.26875 100.62500,152.28125 C 102.51876,148.29374 104.41292,144.76823 104.81250,144.46875 C 105.21209,144.16927 106.15746,141.24428 106.90625,137.96875 L 108.25000,132.03125 L 117.15625,131.96875 C 131.58865,131.86611 132.40872,131.73609 133.93750,129.28125 C 136.09534,125.81630 136.66192,120.99662 135.15625,118.93750 C 134.06119,117.43988 132.25769,117.10908 124.93750,117.00000 C 115.58232,116.86059 111.56249,116.06378 111.56250,114.34375 C 111.56251,113.73085 112.28077,113.61452 113.31250,114.06250 C 114.27501,114.48043 118.97391,114.93012 123.71875,115.06250 C 128.46360,115.19489 133.35362,115.63765 134.59375,116.03125 C 136.74501,116.71403 136.81481,116.55699 136.09375,112.87500 C 132.61435,95.107801 134.86656,82.850430 142.90625,75.968750 C 146.05003,73.277811 146.50842,72.511970 145.00000,72.500000 C 143.39292,72.487251 143.31345,72.324530 144.56250,71.531250 C 145.51778,70.924591 146.19398,70.946080 146.40625,71.562500 C 146.58961,72.094871 147.37710,72.531250 148.15625,72.531250 C 150.52007,72.531251 149.64823,73.873150 145.25000,77.062500 C 139.40302,81.302401 136.31506,89.151078 136.46875,99.375000 C 136.53046,103.47919 137.06180,108.56469 137.62500,110.65625 L 138.62500,114.46875 L 141.31250,112.25000 C 142.77929,111.03038 146.42348,107.66875 149.43750,104.78125 C 152.45154,101.89375 155.20065,99.531260 155.53125,99.531250 C 155.86188,99.531253 156.99067,100.54376 158.03125,101.78125 C 159.07185,103.01875 162.67849,107.18125 166.06250,111.03125 C 169.44654,114.88125 173.18251,119.64340 174.37500,121.62500 C 175.56750,123.60659 177.77533,126.08159 179.25000,127.12500 C 182.62433,129.51249 189.19808,135.36438 196.87500,142.78125 C 200.14840,145.94374 203.19466,148.53125 203.65625,148.53125 C 204.11786,148.53124 204.97386,147.63114 205.56250,146.53125 C 206.47066,144.83436 205.66105,143.13035 200.09375,135.28125 C 191.53060,123.20841 185.03149,115.24372 179.96875,110.56250 C 174.74976,105.73679 172.86952,103.00548 167.31250,92.343750 L 162.78125,83.687500 L 163.43750,73.843750 C 164.06837,64.181051 164.10947,64.006450 167.06250,62.562500 C 168.71252,61.755701 171.83130,60.970090 173.96875,60.812500 C 178.82505,60.454441 187.45226,56.326660 190.96875,52.656250 C 192.53840,51.017921 193.93545,48.043150 194.40625,45.437500 C 194.88500,42.787871 195.70574,41.122870 196.43750,41.281250 C 197.37037,41.483141 197.38674,41.067250 196.53125,39.468750 C 195.91537,38.317921 195.67543,36.733150 195.96875,35.968750 C 196.26210,35.204341 196.03222,34.285740 195.46875,33.937500 C 194.90530,33.589251 194.67353,32.675620 194.96875,31.906250 C 195.68333,30.044149 194.66234,27.531250 193.18750,27.531250 C 192.53766,27.531249 190.28744,26.633110 188.18750,25.562500 C 184.75800,23.814029 184.52561,23.811610 185.96875,25.406250 C 186.85242,26.382669 187.56249,27.486450 187.56250,27.875000 C 187.56252,28.748379 183.60437,26.698110 181.78125,24.875000 C 180.54202,23.635739 178.33063,23.054200 176.21875,23.437500 z M 129.53125,41.562500 C 127.48310,41.655761 125.70764,42.246370 124.87500,43.281250 C 122.25814,46.533751 117.13880,54.972130 116.93750,56.343750 C 116.82754,57.093041 116.00486,58.496520 115.12500,59.468750 C 114.24516,60.440961 113.78825,61.891360 114.09375,62.687500 C 114.67896,64.212501 119.68918,67.531250 121.40625,67.531250 C 122.01144,67.531251 122.34750,64.399930 122.25000,59.718750 C 122.10079,52.553811 122.28572,51.668890 124.81250,48.656250 C 127.79277,45.102921 128.58387,45.628040 125.93750,49.406250 C 124.66137,51.228201 124.23469,54.845400 123.96875,66.125000 C 123.76010,74.975461 123.99850,80.531250 124.59375,80.531250 C 125.12630,80.531251 125.56249,80.165740 125.56250,79.750000 C 125.56251,79.334271 126.91249,78.417870 128.56250,77.687500 C 131.86850,76.224131 132.06994,75.315260 130.59375,67.531250 C 129.78420,63.262401 129.89625,61.661960 131.21875,58.875000 C 132.11266,56.991271 133.69044,54.987840 134.71875,54.437500 C 135.88646,53.812571 136.56249,52.346060 136.56250,50.531250 C 136.56252,48.933061 137.01249,47.371170 137.56250,47.031250 C 139.35392,45.924111 138.62393,44.057900 135.87500,42.781250 C 133.92001,41.873311 131.57942,41.469230 129.53125,41.562500 z M 149.68750,107.50000 C 148.98596,107.79890 147.51568,109.04420 144.65625,111.53125 C 139.21420,116.26462 138.83001,116.89951 139.59375,119.56250 C 140.04887,121.14933 140.16891,123.34486 139.87500,124.46875 C 139.14600,127.25652 141.12394,127.07559 145.15625,124.00000 C 147.80377,121.98065 148.57914,120.57579 149.06250,116.75000 C 149.39227,114.14008 149.84769,110.76249 150.09375,109.21875 C 150.31074,107.85753 150.38906,107.20110 149.68750,107.50000 z M 138.34375,130.59375 C 137.75568,130.50392 137.18260,130.52763 136.65625,130.65625 C 135.95447,130.82774 135.31631,131.18370 134.75000,131.75000 C 133.18275,133.31726 129.24437,133.77180 118.46875,133.65625 L 109.87500,133.56250 L 108.56250,139.28125 C 107.83744,142.42877 106.70367,145.70625 106.03125,146.53125 C 105.35884,147.35624 103.36991,150.73125 101.62500,154.03125 C 96.556366,163.61708 94.041950,167.89662 90.187500,173.50000 C 88.200694,176.38832 86.562490,179.36172 86.562500,180.12500 C 86.562514,180.88828 86.177870,181.53125 85.687500,181.53125 C 85.197134,181.53124 84.513160,182.67167 84.156250,184.09375 C 83.799344,185.51582 83.040350,187.20333 82.500000,187.84375 C 81.959654,188.48416 80.087340,191.93554 78.312500,195.50000 C 75.295294,201.55950 74.607450,202.21086 68.062500,205.53125 C 58.608604,210.32741 51.989830,214.30502 50.531250,216.06250 C 49.867240,216.86258 48.712630,217.53125 47.968750,217.53125 C 46.579230,217.53124 37.181540,221.61265 27.718750,226.34375 C 24.141390,228.13231 22.983580,229.11780 24.218750,229.31250 C 31.417920,230.44726 42.027120,232.75677 43.406250,233.50000 C 44.318030,233.99135 48.437490,235.94735 52.562500,237.84375 C 56.687510,239.74013 63.212490,242.75971 67.062500,244.53125 C 70.912514,246.30277 74.287490,248.08803 74.562500,248.50000 C 74.837514,248.91194 76.637490,250.04941 78.562500,251.03125 C 86.285494,254.97034 97.252758,264.76113 102.96875,272.84375 C 105.12865,275.89793 112.01845,280.01338 118.56250,282.15625 C 121.03751,282.96671 123.73749,283.92695 124.56250,284.28125 C 125.38751,284.63557 128.76249,285.44694 132.06250,286.09375 C 150.72992,289.75266 167.81924,285.05940 181.62500,272.50000 L 186.06250,268.46875 L 189.56250,272.25000 C 191.48752,274.32403 193.95275,276.70625 195.03125,277.53125 C 196.93996,278.99130 196.95614,278.95132 195.00000,276.03125 C 192.60284,272.45282 190.56249,267.91968 190.56250,266.12500 C 190.56252,265.41250 192.13749,263.97417 194.06250,262.93750 C 195.98752,261.90083 197.56249,260.79240 197.56250,260.46875 C 197.56252,260.14511 199.47499,258.83163 201.81250,257.53125 C 209.18479,253.43000 225.11071,239.57072 226.12500,236.37500 C 227.26701,232.77687 224.52064,227.69442 218.43750,222.06250 C 215.13433,219.00431 211.02855,215.74732 209.28125,214.84375 C 204.02997,212.12819 193.48006,203.26177 186.06250,195.31250 C 178.09090,186.76945 170.85197,176.60176 164.53125,165.03125 C 158.33499,153.68853 148.41173,138.68579 144.18750,134.28125 C 142.10759,132.11252 140.10801,130.86321 138.34375,130.59375 z M 211.09375,145.15625 C 209.66869,145.05882 209.33663,145.74716 208.53125,148.18750 C 207.90454,150.08648 207.52643,151.80952 207.71875,152.00000 C 207.91108,152.19049 212.11249,154.16066 217.06250,156.37500 C 222.01252,158.58934 226.92101,160.43543 227.96875,160.46875 C 229.81051,160.52730 229.81238,160.46485 228.06250,158.53125 C 227.06703,157.43124 225.70367,156.53125 225.03125,156.53125 C 222.95849,156.53124 221.11204,153.60670 222.37500,152.34375 C 223.17449,151.54427 224.54412,152.36356 227.43750,155.37500 C 233.37229,161.55189 236.81130,160.68831 232.75000,154.03125 C 229.86440,149.30129 223.23719,145.18773 219.40625,145.75000 C 217.64125,146.00903 214.74032,145.90660 212.93750,145.50000 C 212.16527,145.32582 211.56878,145.18872 211.09375,145.15625 z M 23.750000,231.53125 C 18.931570,231.50601 16.562490,233.10126 16.562500,236.37500 C 16.562510,239.38722 18.628480,241.71069 25.062500,245.87500 C 27.262510,247.29890 30.420580,249.58836 32.062500,250.96875 L 35.062500,253.46875 L 32.562500,260.75000 C 31.195600,264.75116 30.204060,268.83230 30.343750,269.84375 C 30.483440,270.85520 29.929520,272.88018 29.125000,274.34375 C 26.459180,279.19331 23.355810,286.86279 23.093750,289.25000 C 22.772320,292.17827 25.876800,296.25582 28.843750,296.81250 C 31.456780,297.30278 34.240690,296.81762 37.250000,295.34375 C 38.785290,294.59182 39.526110,293.09317 39.875000,290.15625 C 40.575190,284.26217 42.632430,276.24609 43.812500,274.78125 C 44.366350,274.09376 45.668590,273.53125 46.687500,273.53125 C 47.909380,273.53126 49.226880,271.99432 50.562500,269.06250 C 51.676250,266.61769 52.562490,264.16345 52.562500,263.59375 C 52.562510,261.89158 57.085960,261.28997 61.218750,262.43750 C 63.345340,263.02799 65.624020,263.49695 66.281250,263.50000 C 67.473744,263.50558 75.562490,252.93684 75.562500,251.37500 C 75.562514,250.92190 73.917370,249.85336 71.875000,249.00000 C 69.832644,248.14663 67.470130,246.87770 66.625000,246.18750 C 65.779884,245.49728 63.262490,244.33572 61.062500,243.59375 C 58.862510,242.85176 53.359690,240.46511 48.812500,238.31250 C 40.567470,234.40937 30.036450,231.56417 23.750000,231.53125 z M 77.750000,252.65625 L 75.218750,256.50000 C 73.816954,258.61828 70.189060,262.75573 67.187500,265.68750 C 63.601834,269.18981 61.276920,272.48886 60.406250,275.28125 C 59.677410,277.61876 58.759850,279.53125 58.343750,279.53125 C 57.927680,279.53126 57.562490,280.02899 57.562500,280.65625 C 57.562510,283.22869 53.229250,290.23400 50.500000,292.06250 C 48.891610,293.14010 47.595330,294.59375 47.593750,295.28125 C 47.591650,296.20147 50.328700,296.53125 58.000000,296.53125 L 68.406250,296.53125 L 69.062500,293.65625 C 69.409744,292.07533 70.778540,289.73370 72.125000,288.46875 L 74.562500,286.15625 L 74.562500,291.34375 C 74.562514,294.22010 75.022390,296.53125 75.593750,296.53125 C 76.260444,296.53126 76.400700,294.24726 75.968750,290.03125 C 75.499274,285.44870 75.635120,283.53125 76.437500,283.53125 C 77.112874,283.53126 77.621140,285.46253 77.687500,288.28125 L 77.812500,293.03125 L 78.687500,288.03125 C 79.180154,285.28126 80.272910,281.83487 81.093750,280.37500 C 82.979904,277.02055 82.950000,274.77318 81.031250,271.09375 C 80.193554,269.48736 79.883890,267.82814 80.312500,267.40625 C 80.741114,266.98439 83.537490,267.49676 86.562500,268.53125 C 89.587514,269.56576 93.842300,270.72303 96.000000,271.09375 L 99.937500,271.75000 L 97.500000,268.81250 C 94.646494,265.36610 84.712310,256.89189 80.625000,254.40625 L 77.750000,252.65625 z M 183.40625,273.56250 L 179.00000,277.25000 C 175.07991,280.52681 174.56249,281.39270 174.56250,285.09375 C 174.56252,287.57673 173.95655,289.78925 173.06250,290.53125 C 172.23752,291.21595 171.56249,292.39861 171.56250,293.15625 C 171.56252,294.94148 171.94734,294.89563 176.37500,292.62500 C 182.86109,289.29876 184.22450,286.89465 183.78125,279.78125 L 183.40625,273.56250 z M 186.12500,273.75000 C 185.96962,273.62872 185.84376,274.67500 185.84375,276.53125 C 185.84377,279.00626 186.04290,280.01875 186.28125,278.78125 C 186.51963,277.54376 186.51961,275.51875 186.28125,274.28125 C 186.22168,273.97188 186.17680,273.79043 186.12500,273.75000 z M 114.56250,283.93750 L 114.56250,289.56250 C 114.56251,292.65989 114.88333,295.47708 115.25000,295.84375 C 115.61667,296.21043 118.55567,296.53125 121.78125,296.53125 C 126.07185,296.53126 127.79764,296.12864 128.21875,295.03125 C 128.98524,293.03388 135.76634,293.05095 139.65625,295.06250 C 141.88259,296.21378 145.13543,296.52612 152.75000,296.31250 C 158.38113,296.15453 163.04402,295.58598 163.21875,295.03125 C 163.86131,292.99119 161.75648,291.34990 157.75000,290.81250 C 155.48211,290.50832 153.78888,289.96662 154.00000,289.62500 C 154.21114,289.28341 149.80372,289.03125 144.21875,289.03125 C 138.63379,289.03126 133.16249,288.59573 132.06250,288.09375 C 130.96252,287.59178 126.57499,286.46206 122.31250,285.56250 L 114.56250,283.93750 z "
     style="fill:#000000"
     id="path3850" />
</svg>
