<?xml version="1.0" encoding="UTF-8" standalone="no"?>
<svg
   xmlns:dc="http://purl.org/dc/elements/1.1/"
   xmlns:cc="http://creativecommons.org/ns#"
   xmlns:rdf="http://www.w3.org/1999/02/22-rdf-syntax-ns#"
   xmlns:svg="http://www.w3.org/2000/svg"
   xmlns="http://www.w3.org/2000/svg"
   xmlns:sodipodi="http://sodipodi.sourceforge.net/DTD/sodipodi-0.dtd"
   xmlns:inkscape="http://www.inkscape.org/namespaces/inkscape"
   id="svg4566"
   version="1.1"
   viewBox="0 0 70.431641 47.278606"
   height="47.278606mm"
   width="70.431641mm"
   sodipodi:docname="049.svg"
   inkscape:version="0.92.4 (5da689c313, 2019-01-14)">
  <sodipodi:namedview
     pagecolor="#ffffff"
     bordercolor="#666666"
     borderopacity="1"
     objecttolerance="10"
     gridtolerance="10"
     guidetolerance="10"
     inkscape:pageopacity="0"
     inkscape:pageshadow="2"
     inkscape:window-width="1920"
     inkscape:window-height="1133"
     id="namedview875"
     showgrid="false"
     inkscape:zoom="1.8620773"
     inkscape:cx="184.20406"
     inkscape:cy="45.842964"
     inkscape:window-x="0"
     inkscape:window-y="0"
     inkscape:window-maximized="1"
     inkscape:current-layer="svg4566" />
  <defs
     id="defs4560" />
  <metadata
     id="metadata4563">
    <rdf:RDF>
      <cc:Work
         rdf:about="">
        <dc:format>image/svg+xml</dc:format>
        <dc:type
           rdf:resource="http://purl.org/dc/dcmitype/StillImage" />
        <dc:title />
      </cc:Work>
    </rdf:RDF>
  </metadata>
  <path
     inkscape:connector-curvature="0"
     style="fill:#000000;stroke-width:0.26458335"
     d="m 38.91095,47.04151 c -0.65426,-0.12809 -1.66629,-0.43014 -2.24896,-0.6712 -0.58266,-0.24107 -1.41658,-0.42707 -1.85314,-0.41334 -0.60433,0.019 -0.67561,-0.0226 -0.29867,-0.17441 0.45447,-0.18301 0.43758,-0.23705 -0.20591,-0.65867 -0.38555,-0.25262 -0.81669,-0.38781 -0.9581,-0.30041 -0.14141,0.0874 -0.25711,0.0398 -0.25711,-0.10568 0,-0.57561 0.4645,-0.46469 2.03229,0.48528 2.27219,1.37678 6.01459,2.0809 8.08802,1.52172 1.44678,-0.39018 0.66736,-0.58315 -2.38163,-0.58963 -3.00675,-0.006 -3.16042,-0.035 -4.69597,-0.8733 -2.02535,-1.10574 -3.62376,-2.42738 -2.93571,-2.42738 0.35362,0 0.44663,-0.14246 0.3455,-0.52917 -0.12647,-0.48361 0.16797,-0.66737 0.91146,-0.56887 0.0953,0.0126 0.23694,-0.14276 0.31467,-0.34533 0.11972,-0.31197 0.003,-0.3107 -0.76015,0.008 -1.12697,0.47088 -1.18307,0.46918 -1.18307,-0.0358 0,-0.25511 0.12619,-0.33988 0.33073,-0.22217 0.1819,0.10468 0.2419,0.0923 0.13334,-0.0274 -0.10857,-0.11977 -0.57699,-0.25932 -1.04094,-0.31011 -0.46395,-0.0508 -1.03962,-0.2698 -1.27928,-0.48669 -0.23966,-0.21689 -0.51538,-0.31471 -0.61271,-0.21738 -0.0973,0.0973 -0.17697,-0.0474 -0.17697,-0.32172 0,-0.27428 -0.31617,-0.77037 -0.70261,-1.10243 -0.38644,-0.33205 -0.56503,-0.60373 -0.39688,-0.60373 0.35881,0 1.36407,0.9525 1.36407,1.29248 0,0.12879 0.32743,0.44361 0.72761,0.69962 l 0.7276,0.46546 -0.56119,-0.63347 c -0.38371,-0.43313 -0.52818,-0.8845 -0.4568,-1.42722 0.0787,-0.59858 0.0388,-0.69616 -0.16236,-0.39687 -0.22077,0.32846 -0.26745,0.30109 -0.27081,-0.15874 -0.002,-0.30559 -0.3718,-1.06329 -0.82128,-1.68378 -1.02885,-1.42028 -0.91124,-1.34635 3.6852,2.31655 2.6128,2.08214 4.2965,3.22037 5.40798,3.65596 1.89739,0.74358 1.77822,0.7249 1.77822,0.27869 0,-0.334 -2.28661,-2.16066 -11.44481,-9.1427 -3.77286,-2.87636 -3.91246,-2.95582 -4.15041,-2.36237 -0.2248,0.56064 -0.25011,0.56804 -0.29075,0.0849 -0.0281,-0.33391 -0.17322,-0.13866 -0.39331,0.52916 -0.19184,0.58209 -0.35795,0.8599 -0.36914,0.61736 -0.0112,-0.24253 -0.13478,-0.48065 -0.27466,-0.52916 -0.15813,-0.0548 -0.13861,-0.53853 0.0516,-1.27882 0.27804,-1.08208 0.32294,-1.13032 0.49254,-0.52917 0.17506,0.62055 0.18823,0.60964 0.21297,-0.17639 0.0145,-0.46081 -0.12245,-0.8979 -0.30435,-0.9713 -0.22485,-0.0907 -0.20367,-0.13825 0.0661,-0.14845 0.59116,-0.0224 1.67508,0.90112 1.53853,1.31078 -0.0726,0.21782 1.1748,1.33611 3.20621,2.87434 1.82878,1.3848 5.22091,3.97942 7.53806,5.76582 2.31716,1.7864 4.23726,3.21901 4.26691,3.18358 0.0296,-0.0354 0.13282,-0.83833 0.2293,-1.78421 l 0.17541,-1.71979 -2.98222,-2.38125 c -1.64023,-1.30969 -4.88942,-3.94128 -7.22044,-5.84797 -4.1788,-3.41812 -11.68779,-8.75107 -11.95109,-8.48777 -0.2544,0.25441 0.43559,1.20281 1.00703,1.38418 0.6759,0.21452 1.89086,1.45675 1.64517,1.68209 -0.0941,0.0863 -0.2243,0.008 -0.28926,-0.17376 -0.065,-0.1819 -0.28679,-0.33073 -0.49295,-0.33073 -0.20615,0 -0.37482,-0.17859 -0.37482,-0.39688 0,-0.22048 -0.23519,-0.39687 -0.52917,-0.39687 -0.29104,0 -0.52917,-0.11533 -0.52917,-0.25628 0,-0.14095 -0.19812,-0.18025 -0.44027,-0.0873 -0.2791,0.1071 -0.37565,0.0644 -0.26373,-0.11672 0.22052,-0.35681 -0.0572,-1.12717 -0.40637,-1.12717 -0.14301,0 -0.47721,-0.26789 -0.74267,-0.59531 -0.62511,-0.77102 -0.78191,-0.57755 -0.93585,1.15474 l -0.12663,1.42494 0.39455,-1.05833 0.39455,-1.05833 -0.13918,1.05833 c -0.58721,4.4652 -1.11183,6.34189 -0.81359,2.91042 0.0974,-1.12057 0.071,-1.64308 -0.0667,-1.32292 -0.21389,0.49705 -0.23556,0.48902 -0.35694,-0.13229 -0.0792,-0.40548 -0.14317,-0.1751 -0.16526,0.59531 -0.0198,0.69185 -0.16298,1.25677 -0.31845,1.25677 -0.15532,0 -0.22338,-0.20836 -0.15123,-0.46302 0.0722,-0.25466 0.22621,-1.47505 0.34237,-2.71198 l 0.2112,-2.24896 0.16149,1.45521 c 0.12674,1.14199 0.17078,1.24536 0.20463,0.48025 0.0237,-0.53623 0.15573,-1.27115 0.29337,-1.63315 0.18051,-0.47479 0.15343,-0.73853 -0.0972,-0.94653 -0.60724,-0.50396 -0.89367,0.24848 -1.229,3.22852 -0.17574,1.56182 -0.43029,2.83966 -0.56566,2.83966 -0.13538,0 -0.1817,-0.20836 -0.10293,-0.46302 0.0788,-0.25466 0.2623,-1.52479 0.40786,-2.82252 0.30372,-2.70778 0.021,-3.77136 -0.97457,-3.66571 -0.3662,0.0389 -0.62615,-0.12527 -0.73335,-0.46302 -0.30614,-0.96457 -0.65957,-0.53606 -0.65957,0.79969 0,1.3652 0.49988,1.89031 0.56671,0.59531 0.0293,-0.5671 0.0793,-0.49414 0.22704,0.33073 0.14292,0.79825 0.19872,0.88336 0.22703,0.34635 0.0207,-0.3916 0.17309,-0.79576 0.33875,-0.89815 0.21519,-0.13299 0.25065,0.0833 0.12418,0.7575 -0.1047,0.55811 -0.0656,1.01252 0.0957,1.1122 0.15944,0.0985 0.2727,-0.10619 0.2727,-0.49292 0,-0.3638 0.12666,-0.73973 0.28146,-0.83541 0.29294,-0.18105 0.16913,0.95402 -0.30418,2.78856 -0.1314,0.50932 -0.23958,1.30596 -0.24039,1.77032 -8.2e-4,0.46435 -0.13867,0.92907 -0.30635,1.0327 -0.22044,0.13624 -0.2573,-0.0976 -0.13307,-0.84428 0.45438,-2.73117 0.48499,-3.15389 0.19933,-2.75249 -0.15535,0.21828 -0.29264,0.81359 -0.30509,1.32291 -0.0125,0.50933 -0.12498,1.16417 -0.25004,1.45521 -0.20876,0.48581 -0.22925,0.47497 -0.25004,-0.13229 -0.0175,-0.51064 -0.0784,-0.57338 -0.26698,-0.27519 -0.1552,0.24537 -0.19434,-0.38197 -0.1073,-1.71979 0.0995,-1.52912 0.0599,-1.99734 -0.14445,-1.70919 -0.1548,0.21828 -0.28329,1.10133 -0.28551,1.96233 -0.002,0.861 -0.0933,1.47434 -0.20249,1.36298 -0.10914,-0.11136 -0.19844,-1.10188 -0.19844,-2.20116 0,-1.3618 -0.10539,-2.035 -0.33073,-2.11263 -0.22358,-0.077 -0.33073,0.18817 -0.33073,0.81853 0,0.51286 -0.10774,0.99906 -0.23941,1.08044 -0.13385,0.0827 -0.19642,-0.34789 -0.1419,-0.97657 0.0849,-0.97886 0.0685,-1.02171 -0.12616,-0.33079 -0.19406,0.68865 -0.23332,0.58355 -0.29654,-0.79375 l -0.0729,-1.5875 -0.18145,1.32291 -0.18145,1.32292 -0.072,-1.19062 -0.072,-1.19063 -0.19828,1.02771 c -0.25102,1.30109 -0.003,2.39902 0.88227,3.91012 0.38488,0.65674 0.69821,1.36221 0.69628,1.56771 -0.002,0.2055 -0.47762,-0.48126 -1.05711,-1.52614 -0.57949,-1.04486 -0.98652,-2.07462 -0.90451,-2.28834 0.082,-0.21371 0.0219,-0.46718 -0.13351,-0.56324 -0.15544,-0.0961 -0.28262,-0.29374 -0.28262,-0.43926 0,-0.14552 0.10947,-0.19692 0.24326,-0.11424 0.1338,0.0827 0.33304,-0.65442 0.44277,-1.63803 0.1537,-1.37781 0.24365,-1.63652 0.39182,-1.12691 0.19096,0.65679 0.19251,0.6571 0.21869,0.0441 0.0372,-0.87175 0.66388,-0.57675 0.79273,0.37319 l 0.10489,0.77334 0.19946,-0.66146 c 0.15968,-0.52952 0.20473,-0.41642 0.22584,0.56701 0.0178,0.82951 0.15526,1.27792 0.42325,1.38076 0.3158,0.12118 0.39687,-0.086 0.39687,-1.01441 0,-0.64169 -0.121,-1.2415 -0.2689,-1.3329 -0.37291,-0.23048 -0.0983,-0.59212 0.80379,-1.05862 0.76322,-0.39468 0.7898,-0.38068 7.5706,3.98702 7.0528,4.5429 7.38821,4.81354 15.70827,12.67513 1.23762,1.16942 2.97522,2.80154 3.86133,3.62694 l 1.6111,1.50071 -0.3205,2.33574 c -0.17628,1.28466 -0.27212,2.42119 -0.21298,2.52563 0.0591,0.10443 1.00069,0.9197 2.09233,1.81171 l 1.9848,1.62184 1.44446,-0.87543 c 0.79445,-0.48149 1.44022,-0.93958 1.43505,-1.01797 -0.005,-0.0784 -1.43008,-1.44614 -3.16647,-3.03943 -1.73638,-1.5933 -3.10556,-2.94841 -3.04261,-3.01136 0.063,-0.063 1.3985,1.08197 2.96789,2.54427 1.56939,1.4623 2.89127,2.62089 2.93751,2.57464 0.0462,-0.0462 -0.21064,-0.66569 -0.57086,-1.37654 C 46.33852,41.03981 43.28004,38.02705 35.22624,30.76887 32.98196,28.74631 30.42212,26.41304 29.53769,25.58383 28.44227,24.55678 25.49667,22.61684 20.2976,19.49841 L 12.66555,14.92065 10.42387,12.337 C 8.40067,10.00515 7.04895,8.96753 6.03442,8.96753 c -0.16738,0 -0.21933,0.74389 -0.13916,1.99298 0.13162,2.05096 -0.0207,2.52636 -0.5899,1.84057 -0.17983,-0.21668 -0.51082,-0.39397 -0.73554,-0.39397 -0.22471,0 -0.33339,-0.0752 -0.24149,-0.16708 0.29256,-0.29256 -0.36606,-1.20378 -0.76064,-1.05237 -0.20712,0.0795 -0.37658,0.0292 -0.37658,-0.11177 0,-0.45087 1.06829,-0.274 1.24868,0.20674 0.16247,0.43301 0.83529,1.09638 1.13257,1.11669 0.0728,0.005 0.0935,-0.94374 0.046,-2.10825 -0.0843,-2.06953 -0.0724,-2.11682 0.52917,-2.0964 0.3385,0.0115 0.45854,0.0836 0.26675,0.16033 -0.20018,0.08 0.19427,0.39475 0.92604,0.73882 0.9196,0.43239 1.8494,1.26899 3.33739,3.00287 1.35409,1.57787 2.60912,2.73547 3.65353,3.36992 0.875,0.53153 1.65499,0.90233 1.73332,0.824 0.0783,-0.0783 -0.34537,-0.39127 -0.94156,-0.69542 -0.59619,-0.30415 -1.08397,-0.65278 -1.08397,-0.77474 0,-0.12197 0.6569,-0.65791 1.45978,-1.19099 l 1.45978,-0.96924 3.30272,2.01422 c 1.81649,1.10783 3.30272,2.11371 3.30272,2.23529 0,0.12157 -0.66941,0.60404 -1.48757,1.07215 -1.46637,0.83897 -1.49868,0.84453 -2.26728,0.39051 -0.42884,-0.25332 -0.83365,-0.40664 -0.89959,-0.3407 -0.0659,0.0659 1.9366,1.35636 4.45009,2.8676 3.63717,2.18686 5.19104,3.31365 7.61268,5.52032 2.62899,2.3956 7.3851,6.71293 9.53244,8.65301 l 0.6689,0.60434 2.0055,-0.82552 2.00551,-0.82551 3.03967,2.35361 c 1.86031,1.44044 3.47774,2.94388 4.16875,3.87497 1.06316,1.43253 1.53685,1.75887 1.95135,1.34437 0.0973,-0.0973 -1.54969,-1.83558 -3.66006,-3.86275 -2.11039,-2.02717 -3.83706,-3.78444 -3.83706,-3.90504 0,-0.23011 0.6504,-0.49447 6.87407,-2.79399 l 3.83137,-1.41561 3.16933,3.10062 c 1.74313,1.70534 3.33717,3.25513 3.54232,3.44396 0.20514,0.18883 0.32493,0.39139 0.26618,0.45014 -0.0587,0.0587 -1.58791,-1.36619 -3.39815,-3.16653 -1.81023,-1.80034 -3.38368,-3.21627 -3.49656,-3.14651 -0.11287,0.0698 -0.20523,0.39968 -0.20523,0.73316 0,0.43257 0.81504,1.35421 2.84428,3.21629 1.56434,1.43549 2.84427,2.7332 2.84427,2.8838 0,0.54237 -0.61314,0.25347 -1.81688,-0.85611 -1.20175,-1.10773 -1.67692,-1.79096 -0.76281,-1.0968 0.25466,0.19338 0.0527,-0.0897 -0.44878,-0.62906 -0.50149,-0.53937 -0.96873,-0.98067 -1.03831,-0.98067 -0.0696,0 0.15313,0.29766 0.4949,0.66146 0.34178,0.3638 0.50638,0.66146 0.36579,0.66146 -0.14059,0 -0.78642,-0.56216 -1.43518,-1.24924 -0.64876,-0.68708 -0.91095,-1.02516 -0.58263,-0.75128 0.74031,0.61757 1.05439,0.40793 0.3474,-0.23189 -0.56369,-0.51013 -1.07663,-0.3613 -1.07663,0.3124 0,0.23651 -0.25305,0.95275 -0.56233,1.59164 -0.32086,0.6628 -0.46288,1.2603 -0.33073,1.39141 0.12738,0.12639 1.09789,0.70545 2.1567,1.2868 1.88659,1.03586 1.94405,1.04908 2.87287,0.661 0.52127,-0.21781 0.99565,-0.34813 1.05416,-0.28962 0.0585,0.0585 -0.40084,0.32446 -1.02078,0.59098 -0.61995,0.26653 -1.75579,0.76141 -2.52408,1.09973 -0.7683,0.33833 -1.43777,0.61515 -1.48773,0.61515 -0.31989,0 -2.55819,1.12767 -2.45102,1.23484 0.0728,0.0728 0.69311,-0.11578 1.37854,-0.41898 1.48174,-0.65545 1.74161,-0.68176 1.53983,-0.15592 -0.0834,0.21744 -0.25693,0.33032 -0.38554,0.25084 -0.1286,-0.0795 -0.15651,0.057 -0.062,0.30322 0.14979,0.39036 0.20874,0.39734 0.45999,0.0544 0.15849,-0.21634 0.48829,-0.36385 0.73287,-0.32781 0.29732,0.0438 0.39473,-0.0647 0.29391,-0.32742 -0.10794,-0.2813 -0.20504,-0.30517 -0.34173,-0.084 -0.13682,0.22137 -0.23352,0.198 -0.34114,-0.0825 -0.10828,-0.28217 0.30605,-0.59304 1.48453,-1.11385 0.8991,-0.39734 2.49545,-1.13127 3.54744,-1.63095 l 1.91272,-0.90852 -3.45901,-3.9721 c -1.90244,-2.18466 -3.4093,-4.0218 -3.34856,-4.08254 0.0607,-0.0607 0.91683,-0.44093 1.90243,-0.84486 0.9856,-0.40394 1.80883,-0.85163 1.8294,-0.99488 0.0206,-0.14325 -0.8986,-0.76239 -2.04259,-1.37586 -1.14398,-0.61347 -1.88636,-0.90146 -1.64973,-0.63999 0.23664,0.26148 0.34069,0.57414 0.23123,0.6948 -0.10946,0.12066 -0.0502,0.13374 0.13172,0.0291 0.1819,-0.10468 0.33072,-0.0605 0.33072,0.0982 0,0.15868 -0.20835,0.35299 -0.46302,0.4318 -0.25466,0.0788 -0.85103,0.31179 -1.32526,0.5177 l -0.86224,0.3744 -1.91588,-1.75173 c -1.05374,-0.96346 -1.95429,-1.85114 -2.00122,-1.97263 -0.0469,-0.12149 0.30547,-0.38035 0.78311,-0.57525 l 0.86843,-0.35436 -3.24317,-1.79825 -3.24318,-1.79825 -1.64563,0.23662 c -0.9051,0.13014 -1.94119,0.15432 -2.30243,0.0537 -0.36124,-0.10059 -1.31433,-0.19476 -2.11799,-0.20926 -1.41404,-0.0255 -1.47759,0.004 -1.96971,0.91791 -0.2797,0.51936 -0.70615,1.05005 -0.94767,1.17931 -0.82874,0.44353 -3.80459,0.54914 -5.72698,0.20326 L 31.0019,20.74149 29.13505,18.36207 c -1.02676,-1.30868 -1.8642,-2.61837 -1.86096,-2.91042 0.003,-0.29205 0.23871,-0.82865 0.52328,-1.19245 0.8835,-1.12949 0.69374,-1.71787 -0.7276,-2.25611 -1.58951,-0.60191 -2.46593,-1.22296 -2.31785,-1.64246 0.0634,-0.17968 -0.14813,-0.4637 -0.47013,-0.63115 -0.322,-0.16746 -0.6318,-0.34459 -0.68843,-0.39364 -0.0566,-0.0491 0.47044,-0.96546 1.17128,-2.03645 l 1.27425,-1.94727 2.06987,-0.61549 c 1.13842,-0.33853 2.06986,-0.7008 2.06986,-0.80506 0,-0.47179 -1.76914,-0.45718 -4.01584,0.0332 -1.34905,0.29443 -2.49362,0.57614 -2.54351,0.62602 -0.0499,0.0499 0.34199,0.23349 0.87081,0.40802 1.32316,0.43668 0.97604,0.64466 -0.39191,0.23481 -0.9282,-0.27809 -1.14323,-0.27045 -1.34463,0.0478 -0.34245,0.54116 -0.30298,1.03932 0.0829,1.04618 0.39766,0.007 1.76801,1.03857 1.38907,1.04558 C 24.07998,7.37618 23.55689,7.13175 23.06306,6.8307 22.1832,6.29429 22.12752,6.29237 20.28494,6.7348 17.52152,7.39833 17.53416,7.37668 19.07045,8.81369 19.81471,9.50987 20.37112,10.13201 20.3069,10.19623 20.2427,10.26043 19.56604,9.74237 18.80326,9.04496 17.01626,7.41108 17.0051,7.4055 15.29113,7.28645 14.49146,7.23085 13.70156,7.10164 13.5358,6.99919 13.37004,6.89675 11.86099,7.13231 10.18236,7.52267 8.50372,7.91303 7.06939,8.1715 6.99494,8.09705 c -0.0744,-0.0745 0.974,-0.40774 2.32989,-0.74064 1.7641,-0.43313 3.02965,-0.58023 4.44963,-0.51722 3.85101,0.17091 4.64795,0.12489 6.44009,-0.37188 1.4673,-0.40672 1.85857,-0.62972 2.06708,-1.17815 0.31125,-0.81865 0.67481,-1.07343 1.547,-1.08411 0.53846,-0.007 0.58766,-0.0598 0.26458,-0.28597 -0.31403,-0.21986 -0.27719,-0.24436 0.1765,-0.11737 0.31536,0.0883 1.36512,-0.0231 2.3328,-0.24755 2.13329,-0.49474 3.61964,-0.31994 4.96359,0.58373 0.83542,0.56175 1.14626,0.63219 1.98437,0.44972 0.54658,-0.119 1.74283,-0.2249 2.65833,-0.23533 0.9155,-0.0104 1.74894,-0.14907 1.85208,-0.30808 0.29407,-0.45332 1.28036,-0.89748 1.99292,-0.89748 1.0573,0 1.72395,0.77817 1.86571,2.17781 l 0.12678,1.25176 -1.06231,0.28605 c -0.70662,0.19028 -1.45316,0.20269 -2.22966,0.0371 -0.94386,-0.2013 -1.16736,-0.17787 -1.16736,0.12238 0,0.70522 2.12493,1.12615 3.63803,0.72065 0.32742,-0.0877 0.59531,-0.32424 0.59531,-0.52555 0,-0.20131 0.12497,-0.36602 0.27772,-0.36602 0.52676,0 1.77524,0.77529 1.94003,1.20472 0.19631,0.51157 -0.0368,0.98291 -0.38092,0.77023 -0.1338,-0.0827 -0.17402,0.0642 -0.0894,0.32642 0.10666,0.33042 -0.0143,0.27373 -0.39402,-0.1847 -0.30136,-0.3638 -0.55056,-0.5056 -0.5538,-0.31511 -0.003,0.19198 -0.14078,0.26297 -0.30855,0.15928 -0.16647,-0.10288 -0.0799,0.1901 0.19242,0.65107 0.27231,0.46098 0.64282,0.78145 0.82337,0.71217 0.3419,-0.1312 0.76501,0.31307 0.5259,0.55218 -0.0753,0.0753 -0.85247,-0.12402 -1.72707,-0.44292 C 40.90296,9.83831 40.56767,9.60409 40.67383,9.26985 40.78792,8.91067 40.76513,8.90126 40.5422,9.21565 40.31309,9.53877 39.99127,9.48563 38.40241,8.86226 37.37384,8.45871 36.39057,8.17578 36.21736,8.23351 c -0.36603,0.12201 6.40801,2.82177 7.58729,3.02387 0.47992,0.0822 0.66851,0.046 0.47699,-0.0917 -0.18348,-0.13188 -0.2268,-0.37325 -0.10297,-0.57362 0.1688,-0.27312 0.24765,-0.25772 0.37461,0.0731 0.0884,0.23048 0.34314,0.41906 0.56599,0.41906 0.22284,0 0.40517,0.11906 0.40517,0.26458 0,0.14552 0.12008,0.26458 0.26683,0.26458 0.16114,0 0.14016,-0.20282 -0.053,-0.51205 -0.17588,-0.28163 -0.40591,-0.45882 -0.51117,-0.39376 -0.2902,0.17935 -1.34884,-1.43109 -1.15108,-1.75106 0.24863,-0.40228 0.98073,0.26285 0.802,0.72863 -0.0777,0.20252 -0.0347,0.30232 0.0957,0.22176 0.13034,-0.0805 0.57156,0.38239 0.98049,1.02877 0.40893,0.64637 0.926,1.2314 1.14905,1.30007 0.22305,0.0687 4.07817,1.56407 8.56694,3.32312 4.48876,1.75905 8.36776,3.19827 8.62,3.19827 0.96398,0 4.41211,1.40082 4.98058,2.02338 0.73288,0.80263 0.75225,1.55243 0.0691,2.67298 -0.38156,0.6258 -0.71732,0.85989 -1.23335,0.85989 -0.94953,0 -5.3483,-1.87625 -5.44214,-2.32129 -0.0926,-0.43932 -7.74676,-3.82566 -8.73939,-3.86649 -0.40019,-0.0165 -0.71799,-0.14042 -0.70622,-0.27547 0.0117,-0.13505 -0.69764,-0.57192 -1.57643,-0.97084 -2.39986,-1.08938 -2.67899,-1.15069 -2.67424,-0.58738 0.003,0.40725 0.0433,0.42011 0.26053,0.084 0.21216,-0.32829 0.25718,-0.33189 0.26053,-0.0208 0.002,0.20682 -0.18523,0.58519 -0.41657,0.84082 -0.39045,0.43145 -0.35724,0.49696 0.46302,0.9134 0.48601,0.24674 1.6482,0.8723 2.58266,1.39013 0.93446,0.51784 1.61204,0.80079 1.50574,0.62879 -0.34183,-0.55309 0.11766,-0.33575 1.24863,0.5906 1.41078,1.15553 4.39074,2.84408 4.69136,2.65828 0.27163,-0.16787 6.58889,5.11796 7.37198,6.16835 0.29567,0.3966 0.77436,0.95974 1.06375,1.25143 0.28938,0.29169 0.95495,1.24242 1.47903,2.11275 l 0.95287,1.5824 L 69.855,34.959 c -0.31716,0.25682 -0.74908,0.46694 -0.95983,0.46694 -0.21074,0 -0.30959,0.11907 -0.21965,0.26459 0.0899,0.14552 0.0374,0.26458 -0.11668,0.26458 -0.15411,0 -0.2802,0.16626 -0.2802,0.36947 0,0.56656 -1.68578,1.91907 -2.82158,2.26375 -1.554,0.47159 -3.52842,1.39878 -3.52842,1.65694 0,0.12702 -0.20836,0.19597 -0.46302,0.15321 -0.34296,-0.0576 -0.48259,0.12807 -0.5385,0.716 -0.16648,1.75083 -0.5477,2.04656 -4.24276,3.29133 -1.20636,0.4064 -2.35748,0.53609 -5.06367,0.57051 -3.4775,0.0442 -3.51297,0.0509 -4.9912,0.94106 -0.81885,0.49308 -1.62643,0.8437 -1.79464,0.77916 -0.1682,-0.0645 -0.76646,0.0468 -1.32946,0.24753 -1.14805,0.40925 -2.8201,0.44464 -4.59444,0.0972 z m 0.0358,-2.8753 c 0.7459,-0.6214 0.59797,-0.66362 -0.59984,-0.17116 -1.43946,0.59181 -2.18416,0.13961 -2.78269,-1.68973 -0.29373,-0.89773 -0.30384,-0.9034 -0.33073,-0.1853 -0.0314,0.83719 0.58439,2.18557 1.09117,2.38947 0.77154,0.31042 2.03613,0.14486 2.62209,-0.34328 z m 0.8892,0.25578 c 0.0899,-0.14552 0.0445,-0.26459 -0.10106,-0.26459 -0.14552,0 -0.33817,0.11907 -0.4281,0.26459 -0.0899,0.14552 -0.0445,0.26458 0.10106,0.26458 0.14552,0 0.33817,-0.11906 0.4281,-0.26458 z m 10.8984,-1.08124 c 1.28192,-0.59469 2.37721,-1.1273 2.43398,-1.1836 0.13956,-0.13839 -1.86193,-3.02683 -2.09738,-3.02683 -0.1733,0 -3.96063,1.5948 -4.1984,1.76789 -0.11377,0.0828 1.29646,3.52378 1.44418,3.52378 0.0478,0 1.1357,-0.48656 2.41762,-1.08124 z m -13.67652,0.46079 c 0,-0.0502 -0.26789,-0.3181 -0.59531,-0.59532 l -0.59532,-0.50403 0.50403,0.59532 c 0.47366,0.55944 0.6866,0.71576 0.6866,0.50403 z m 0.77662,-0.59082 c -0.16908,-0.20373 -0.41877,-0.30159 -0.55487,-0.21747 -0.14634,0.0904 -0.12184,0.30429 0.06,0.52334 0.16908,0.20372 0.41877,0.30158 0.55487,0.21747 0.14633,-0.0904 0.12183,-0.30429 -0.06,-0.52334 z m 16.27133,-0.4787 c 0.20259,0.0777 0.40853,-0.11951 0.49891,-0.47788 0.1312,-0.52024 0.10705,-0.54786 -0.16367,-0.18715 -0.17466,0.23272 -0.43365,0.43215 -0.57554,0.44318 -0.14188,0.011 -0.28178,0.15101 -0.31088,0.31109 -0.0291,0.16007 0.005,0.17569 0.0766,0.0347 0.0713,-0.14098 0.2848,-0.19675 0.47456,-0.12394 z m 1.1572,-0.83058 c -0.0815,-0.0815 -0.22941,0.0654 -0.32877,0.32632 -0.14358,0.37709 -0.11319,0.40748 0.14812,0.14812 0.18082,-0.17948 0.26211,-0.39297 0.18065,-0.47444 z m 0.86931,0.0221 c 0.13412,0.0829 0.31912,-0.0454 0.4111,-0.28511 0.13368,-0.34837 0.21214,-0.36501 0.39096,-0.0829 0.15258,0.24071 0.225,0.25272 0.22776,0.0378 0.007,-0.54476 -0.48067,-0.64255 -0.76539,-0.15347 -0.21313,0.36608 -0.27545,0.38177 -0.2849,0.0717 -0.0107,-0.35278 -0.0406,-0.35278 -0.26858,0 -0.14106,0.21828 -0.2489,0.51593 -0.23964,0.66146 0.009,0.14552 0.0771,0.11501 0.15084,-0.0678 0.0737,-0.18281 0.24373,-0.26456 0.37785,-0.18167 z M 33.97334,40.59898 c 0.0981,-0.25575 0.02,-0.33461 -0.23476,-0.23686 -0.21003,0.0806 -0.31601,0.25313 -0.23549,0.3834 0.20278,0.32811 0.2997,0.29791 0.47025,-0.14654 z m 24.74515,-1.62043 1.15546,-0.53458 -2.1372,-1.2418 -2.1372,-1.2418 -2.12711,0.83261 c -1.16991,0.45793 -2.12711,0.91492 -2.12711,1.01552 0,0.1006 0.70141,0.85194 1.55868,1.66964 l 1.55868,1.48674 1.55017,-0.72588 c 0.8526,-0.39923 2.07013,-0.96643 2.70563,-1.26045 z m -10.49945,1.03457 c 2.66987,-1.12584 2.67193,-1.06248 -0.10581,-3.26021 -1.35104,-1.06894 -2.58673,-2.04207 -2.74597,-2.16252 -0.23902,-0.18079 -3.38053,0.86591 -3.79476,1.26436 -0.0883,0.0849 4.70141,4.80223 4.92674,4.85224 0.0268,0.006 0.8007,-0.3063 1.7198,-0.69387 z m -15.30039,0.11381 c -0.0809,-0.13095 -0.21569,-0.16955 -0.29946,-0.0858 -0.0838,0.0838 -0.4588,-0.11667 -0.8334,-0.44542 l -0.68109,-0.59773 0.60001,0.6835 c 0.5507,0.62735 1.55386,0.99542 1.21394,0.44542 z m 29.22373,-1.28392 c 0.37866,-0.63581 0.37785,-0.63571 -0.17535,0.0227 -0.39251,0.46714 -0.56363,0.54487 -0.58254,0.26458 -0.0186,-0.27514 -0.0679,-0.29493 -0.16077,-0.0645 -0.0737,0.18281 -0.26129,0.25371 -0.41687,0.15756 -0.15875,-0.0981 -0.20642,-0.0511 -0.10864,0.10708 0.28159,0.45562 1.03372,0.20177 1.44417,-0.48742 z m 1.75243,-1.00976 c -0.0846,-0.0846 -0.2712,0.0561 -0.41475,0.31263 -0.14355,0.25651 -0.39114,0.38595 -0.55021,0.28764 -0.17889,-0.11056 -0.21313,-0.0557 -0.0898,0.14396 0.14982,0.24242 0.32497,0.2091 0.70396,-0.13388 0.27749,-0.25112 0.43533,-0.52578 0.35076,-0.61035 z m -1.29708,-1.07188 c -0.0857,-0.13875 -0.53926,-0.51624 -1.0078,-0.83887 l -0.85189,-0.58659 0.7771,0.83886 c 0.71868,0.77579 1.44162,1.16751 1.08259,0.5866 z m 5.2566,-1.23232 c 1.1065,-0.52548 2.01183,-1.05947 2.01183,-1.18665 0,-0.12718 -0.36609,-0.82621 -0.81354,-1.55341 l -0.81354,-1.32217 -0.8401,0.35528 c -1.87658,0.7936 -3.35365,1.55625 -3.35365,1.73157 0,0.41315 1.34066,2.9308 1.56066,2.9308 0.13008,0 1.14182,-0.42994 2.24834,-0.95542 z m -17.41425,0.0407 c 0.0897,-0.35756 0.10141,-0.80405 0.0259,-0.99219 -0.0755,-0.18815 -0.14664,-0.0217 -0.15812,0.3699 -0.0115,0.3916 -0.12275,0.77495 -0.24725,0.85189 -0.1245,0.0769 -0.18239,-0.18392 -0.12863,-0.57969 0.0842,-0.6198 0.0631,-0.64621 -0.15192,-0.19043 -0.37062,0.78558 -0.33491,1.19062 0.10499,1.19062 0.21551,0 0.46526,-0.29255 0.555,-0.6501 z m 0.68871,-0.52196 c 0.0583,-0.49912 0.0118,-0.84928 -0.10334,-0.77814 -0.20717,0.12804 -0.30507,1.68562 -0.10594,1.68562 0.0568,0 0.15102,-0.40837 0.20928,-0.90748 z m -1.79917,0.23228 c 0.0904,-0.23546 0.046,-0.34167 -0.10399,-0.24897 -0.14385,0.0889 -0.26155,0.27368 -0.26155,0.41062 0,0.38058 0.18964,0.29672 0.36554,-0.16165 z m 3.65342,-0.78001 c 0.0595,-0.50932 0.013,-0.92604 -0.10334,-0.92604 -0.1163,0 -0.21146,0.41672 -0.21146,0.92604 0,0.50932 0.0465,0.92604 0.10335,0.92604 0.0568,0 0.15199,-0.41672 0.21145,-0.92604 z m 0.3896,-0.19844 c -0.0734,-0.1819 -0.13345,-0.0331 -0.13345,0.33073 0,0.3638 0.06,0.51263 0.13345,0.33073 0.0734,-0.1819 0.0734,-0.47956 0,-0.66146 z m 10.56401,-0.15277 c -0.22675,-0.43849 -0.95293,-1.24028 -1.61373,-1.78176 -0.66079,-0.54147 -1.13765,-1.04829 -1.05967,-1.12626 0.078,-0.078 0.46795,0.15316 0.86661,0.51363 1.59867,1.44551 1.47416,1.42906 3.63377,0.47999 1.09222,-0.48 1.98587,-0.94173 1.98587,-1.02607 0,-0.0843 -0.83803,-0.79245 -1.86229,-1.57358 -1.02426,-0.78113 -1.80365,-1.47887 -1.73199,-1.55053 0.0717,-0.0717 0.61752,0.2556 1.21303,0.72725 0.5955,0.47165 1.14001,0.80026 1.21002,0.73025 0.22533,-0.22533 -1.78755,-1.60208 -2.44838,-1.67462 -0.35145,-0.0386 -0.81537,-0.21652 -1.03093,-0.39542 -0.31643,-0.26261 -0.74697,-0.18598 -2.23479,0.39774 -1.01357,0.39766 -1.90392,0.82183 -1.97856,0.9426 -0.0746,0.12077 0.37115,0.65344 0.99065,1.1837 0.6195,0.53027 1.12636,1.08388 1.12636,1.23025 0,0.32791 3.0879,3.9785 3.23816,3.82824 0.0595,-0.0595 -0.0774,-0.46692 -0.30413,-0.90541 z M 53.90181,34.03704 c -0.0734,-0.1819 -0.13346,-0.0331 -0.13346,0.33073 0,0.3638 0.0601,0.51263 0.13346,0.33073 0.0734,-0.1819 0.0734,-0.47956 0,-0.66146 z m -17.77746,-0.3981 c -0.44065,-0.39951 -2.10752,-1.92222 -3.70416,-3.38381 -4.62672,-4.23537 -5.16946,-4.72473 -5.77245,-5.20474 -1.36577,-1.08723 -12.96813,-8.4097 -13.32505,-8.4097 -0.13244,0 -0.47192,0.1697 -0.7544,0.37711 -0.49604,0.36422 -0.48873,0.3866 0.21402,0.65491 0.40018,0.15279 0.7276,0.39981 0.7276,0.54893 0,0.14912 0.23137,0.27113 0.51416,0.27113 0.28279,0 0.68283,0.24079 0.88896,0.53509 0.24675,0.35228 0.53166,0.4749 0.83394,0.35891 0.32716,-0.12555 0.75599,0.13895 1.49179,0.92011 0.56795,0.60297 1.1817,1.09252 1.36388,1.08789 0.18823,-0.005 0.11112,-0.17493 -0.17862,-0.39414 -0.28042,-0.21215 -0.45164,-0.44394 -0.38048,-0.5151 0.37807,-0.37807 11.66339,7.98126 17.92484,13.27741 0.98967,0.83709 1.11028,0.74121 0.15597,-0.124 z m 16.14702,0.46425 c -0.0899,-0.14552 -0.30532,-0.26276 -0.47864,-0.26054 -0.18934,0.002 -0.1567,0.10643 0.0818,0.26054 0.5083,0.32848 0.59989,0.32848 0.39688,0 z m -3.39114,-0.57878 c -0.0845,-0.21107 -0.14715,-0.14837 -0.15985,0.15985 -0.0115,0.27892 0.0511,0.43519 0.13897,0.34727 0.0879,-0.0879 0.0973,-0.31613 0.0209,-0.50712 z m 0.52917,-0.26458 c -0.0845,-0.21107 -0.14716,-0.14838 -0.15985,0.15985 -0.0115,0.27891 0.051,0.43518 0.13896,0.34727 0.0879,-0.0879 0.0973,-0.31613 0.0209,-0.50712 z m 6.6172,-0.40838 c -0.0671,-0.25743 -0.12638,-0.11087 -0.13177,0.32569 -0.005,0.43657 0.0495,0.64719 0.12197,0.46806 0.0725,-0.17913 0.0769,-0.53632 0.01,-0.79375 z m -5.82345,0.14379 c -0.0845,-0.21106 -0.14716,-0.14837 -0.15985,0.15986 -0.0115,0.27891 0.051,0.43518 0.13896,0.34726 0.0879,-0.0879 0.0973,-0.31612 0.0209,-0.50712 z m 0.52366,-0.28112 c -0.0734,-0.1819 -0.13346,-0.0331 -0.13346,0.33073 0,0.3638 0.0601,0.51263 0.13346,0.33073 0.0734,-0.1819 0.0734,-0.47956 0,-0.66146 z m 4.7625,0 c -0.0734,-0.1819 -0.13346,-0.0331 -0.13346,0.33073 0,0.3638 0.0601,0.51263 0.13346,0.33073 0.0734,-0.1819 0.0734,-0.47956 0,-0.66146 z m -2.02732,-0.7276 c 0,-0.29104 -0.0456,-0.52917 -0.10143,-0.52917 -0.0558,0 -0.1637,0.23813 -0.23981,0.52917 -0.0761,0.29104 -0.0305,0.52917 0.10143,0.52917 0.1319,0 0.23981,-0.23813 0.23981,-0.52917 z M 24.00938,30.87863 c -0.0845,-0.21107 -0.14716,-0.14838 -0.15985,0.15985 -0.0115,0.27891 0.051,0.43518 0.13896,0.34727 0.0879,-0.0879 0.0973,-0.31613 0.0209,-0.50712 z m 32.70636,-0.12677 c -0.12398,-0.32309 -0.19413,-0.33134 -0.37612,-0.0442 -0.33441,0.52756 -0.278,0.75091 0.14836,0.5873 0.20909,-0.0802 0.31158,-0.32461 0.22776,-0.54305 z M 25.20447,29.5524 c -0.16977,-0.16977 -0.39651,-0.22084 -0.50386,-0.11349 -0.10735,0.10735 -0.0235,0.3013 0.18636,0.43099 0.49414,0.30539 0.71727,0.0823 0.3175,-0.3175 z m 29.845,-4.70958 c -0.94588,-0.86345 -1.59171,-1.57386 -1.43518,-1.5787 0.15654,-0.005 0.57325,0.3007 0.92604,0.67899 0.81506,0.87396 2.80515,2.46365 2.53404,2.02419 -0.11403,-0.18483 -0.0804,-0.33073 0.0762,-0.33073 0.15411,0 0.2896,0.14883 0.30108,0.33073 0.0166,0.26283 0.0484,0.26249 0.15489,-0.002 0.0737,-0.18281 0.23245,-0.27154 0.35276,-0.19718 0.12032,0.0744 0.19331,-0.0382 0.16219,-0.25024 -0.0781,-0.53176 -0.97734,-1.48677 -1.24454,-1.32164 -0.12018,0.0743 -0.67973,-0.28164 -1.24345,-0.79093 -0.62072,-0.56078 -1.02496,-0.77883 -1.02496,-0.55286 0,0.20522 0.0694,0.34997 0.15434,0.32168 0.0849,-0.0283 0.15434,0.0195 0.15434,0.10632 0,0.0868 0.16341,0.35467 0.36313,0.59532 0.19972,0.24064 0.25024,0.43753 0.11227,0.43753 -0.33295,0 -1.44392,-1.19224 -1.27157,-1.36459 0.0741,-0.0741 -0.0439,-0.13471 -0.26216,-0.13471 -0.21828,0 -0.39688,0.10624 -0.39688,0.2361 0,0.12985 -0.11906,0.16252 -0.26458,0.0726 -0.14552,-0.0899 -0.26458,-0.0723 -0.26458,0.0391 0,0.28668 3.2516,3.2424 3.57187,3.24686 0.14552,0.002 -0.50932,-0.70277 -1.45521,-1.56622 z m 1.0165,0.0878 c -0.31876,-0.33931 -0.48471,-0.61693 -0.36876,-0.61693 0.11595,0 0.0474,-0.20518 -0.15232,-0.45595 -0.23288,-0.29242 -0.091,-0.24627 0.39558,0.12869 0.41728,0.32155 0.84786,0.52953 0.95683,0.46219 0.10896,-0.0674 0.41108,0.11287 0.67136,0.40048 0.26029,0.28761 0.42503,0.53285 0.36609,0.54497 -0.87825,0.18072 -1.38066,0.0561 -1.86878,-0.46345 z m 1.62934,0.34151 c 0,-0.0549 -0.20836,-0.2633 -0.46302,-0.46302 -0.41965,-0.32911 -0.42901,-0.31975 -0.0999,0.0999 0.34565,0.44073 0.56292,0.58088 0.56292,0.36312 z m 11.45096,-2.31808 c 0.5846,-1.19559 0.21285,-2.34452 -0.7586,-2.34452 -1.29608,0 -2.28554,2.53417 -1.23351,3.15921 0.80646,0.47914 1.49771,0.19644 1.99211,-0.81469 z m -1.72752,0.5447 c -0.90435,-0.52673 -0.22766,-2.62464 0.84659,-2.62464 0.89352,0 1.1222,1.74945 0.3232,2.47253 -0.5605,0.50725 -0.56014,0.5072 -1.16979,0.15211 z m 1.38501,-1.10329 c 0.002,-0.10914 -0.3829,-0.19579 -0.85585,-0.19255 l -0.85989,0.006 0.65718,0.50495 c 0.62047,0.47673 1.04493,0.34911 1.05856,-0.31828 z m -55.48774,0.1323 c 0.0789,-0.61847 0.0358,-1.12448 -0.0959,-1.12448 -0.13167,0 -0.23941,0.55562 -0.23941,1.23472 0,1.478 0.1384,1.43249 0.3353,-0.11024 z m 53.08307,0.87652 c -0.22207,-0.22207 -2.61836,-1.18733 -2.61836,-1.05471 0,0.0736 0.50601,0.35857 1.12447,0.63337 1.07931,0.47955 1.73784,0.66529 1.49389,0.42134 z M 65.23593,21.2652 c -0.7276,-0.34276 -1.50151,-0.62572 -1.71979,-0.62881 -0.21828,-0.003 0.25797,0.28248 1.05834,0.63459 1.86611,0.82099 2.40647,0.81626 0.66145,-0.006 z m 1.93837,-0.47441 0.57541,-0.61249 -1.73242,-0.61159 c -1.68657,-0.59541 -1.74237,-0.59846 -2.10837,-0.11512 -0.20677,0.27306 -0.37973,0.55683 -0.38436,0.6306 -0.007,0.11477 2.48417,1.2186 2.92202,1.29463 0.0838,0.0146 0.41125,-0.24916 0.72772,-0.58603 z m -29.80466,0.0869 c 0.74365,-0.004 1.55492,-0.61622 1.51936,-1.14699 -0.0157,-0.23495 -0.0526,-0.23395 -0.14938,0.004 -0.0707,0.17372 -0.2994,0.25028 -0.50828,0.17013 -0.46709,-0.17924 -0.50178,-0.61767 -0.0491,-0.61996 0.31495,-0.002 1.37108,-1.55972 1.184,-1.74679 -0.0491,-0.0491 -0.55883,0.0408 -1.13273,0.19977 -1.14059,0.31597 -4.49977,0.13115 -6.42426,-0.35344 -1.26191,-0.31775 -3.21816,-1.95119 -3.21816,-2.68711 0,-0.24081 -0.11906,-0.43784 -0.26458,-0.43784 -0.61925,0 -0.1603,0.97298 1.37417,2.91325 l 1.63876,2.07213 2.52843,0.16662 c 3.08262,0.20314 3.90938,0.32047 2.59458,0.36821 -0.88456,0.0321 -0.99219,0.11114 -0.99219,0.72835 0,0.58884 0.089,0.66848 0.59531,0.53278 0.32742,-0.0877 0.91423,-0.16116 1.30402,-0.16315 z M 32.9997,20.01418 c -0.0734,-0.1819 -0.13345,-0.0331 -0.13345,0.33073 0,0.36381 0.06,0.51263 0.13345,0.33073 0.0734,-0.1819 0.0734,-0.47956 0,-0.66146 z m 0.52917,0 c -0.0734,-0.1819 -0.13345,-0.0331 -0.13345,0.33073 0,0.36381 0.06,0.51263 0.13345,0.33073 0.0734,-0.1819 0.0734,-0.47956 0,-0.66146 z m 0.52917,0 c -0.0734,-0.1819 -0.13346,-0.0331 -0.13346,0.33073 0,0.36381 0.0601,0.51263 0.13346,0.33073 0.0734,-0.1819 0.0734,-0.47956 0,-0.66146 z m 0.52916,0 c -0.0734,-0.1819 -0.13345,-0.0331 -0.13345,0.33073 0,0.36381 0.0601,0.51263 0.13345,0.33073 0.0734,-0.1819 0.0734,-0.47956 0,-0.66146 z m -3.175,-0.26458 c -0.0734,-0.1819 -0.13345,-0.0331 -0.13345,0.33073 0,0.3638 0.06,0.51263 0.13345,0.33073 0.0734,-0.1819 0.0734,-0.47956 0,-0.66146 z m 0.52917,0 c -0.0734,-0.1819 -0.13345,-0.0331 -0.13345,0.33073 0,0.3638 0.06,0.51263 0.13345,0.33073 0.0734,-0.1819 0.0734,-0.47956 0,-0.66146 z m 0.53468,0.28112 c -0.0845,-0.21107 -0.14716,-0.14837 -0.15985,0.15985 -0.0115,0.27892 0.051,0.43519 0.13896,0.34727 0.0879,-0.0879 0.0973,-0.31612 0.0209,-0.50712 z m 30.11405,0.31419 c -0.0899,-0.14552 -0.30532,-0.26276 -0.47864,-0.26053 -0.18933,0.002 -0.1567,0.10642 0.0818,0.26053 0.50829,0.32849 0.59988,0.32849 0.39687,0 z m -1.19062,-0.52916 c -0.21829,-0.14107 -0.51594,-0.25648 -0.66146,-0.25648 -0.14552,0 -0.086,0.11541 0.13229,0.25648 0.21828,0.14106 0.51594,0.25648 0.66146,0.25648 0.14552,0 0.086,-0.11542 -0.13229,-0.25648 z m 1.96474,-0.17654 c 0.0931,-0.24261 0.0761,-0.51887 -0.0378,-0.61391 -0.53724,-0.44822 -17.21357,-6.88247 -17.83803,-6.88247 -0.254,0 -0.52099,0.0958 -0.59332,0.21279 -0.12003,0.1942 17.29814,7.64779 17.99749,7.70149 0.16633,0.0128 0.3786,-0.17528 0.4717,-0.4179 z M 46.28598,18.51836 c 0.50724,-0.32129 0.12844,-0.81928 -0.62319,-0.81928 -0.89859,0 -1.46123,0.26559 -1.46123,0.68977 0,0.41705 1.48479,0.50931 2.08442,0.12951 z m 11.93849,-0.0255 c -0.21828,-0.14106 -0.51593,-0.25648 -0.66145,-0.25648 -0.14552,0 -0.086,0.11542 0.13229,0.25648 0.21828,0.14106 0.51594,0.25648 0.66146,0.25648 0.14552,0 0.086,-0.11542 -0.1323,-0.25648 z m -36.5125,-0.81051 c 0,-0.0847 -1.05189,-0.70868 -2.33754,-1.38654 -2.03172,-1.07124 -2.40006,-1.18678 -2.81531,-0.88314 -0.43193,0.31583 -0.25515,0.47853 1.84245,1.69573 1.95439,1.13411 2.39827,1.29764 2.81531,1.0372 0.2723,-0.17006 0.49509,-0.37852 0.49509,-0.46325 z m 19.6506,0.66496 c 0.24808,-0.0952 0.33356,-0.38477 0.2471,-0.83707 -0.11449,-0.59891 -0.0649,-0.66234 0.36995,-0.47361 0.27618,0.11986 1.33781,0.27004 2.35917,0.33373 1.59898,0.0997 1.94824,0.0391 2.51354,-0.43655 l 0.65652,-0.55237 -1.52583,0.16662 c -1.25258,0.13679 -1.6198,0.0816 -2.05052,-0.30821 -0.28858,-0.26116 -0.52469,-0.70364 -0.52469,-0.9833 0,-0.42102 -0.11947,-0.36648 -0.69474,0.31719 -0.38211,0.45411 -1.15602,1.06098 -1.71979,1.3486 -1.57535,0.80368 -1.253,2.0475 0.36929,1.42497 z m 6.12464,-0.27963 c 0.422,-0.16194 0.60003,-1.16232 0.20685,-1.16232 -0.32973,0 -0.84667,0.59771 -0.84667,0.97896 0,0.39048 0.0573,0.40689 0.63982,0.18336 z M 18.80156,17.84255 c 0,-0.21218 -2.39959,-1.53621 -2.53633,-1.39947 -0.0721,0.0721 0.37972,0.43915 1.00414,0.81557 1.10773,0.66776 1.53219,0.82952 1.53219,0.5839 z m 3.96108,-0.66227 c 0.49273,-0.31161 0.64109,-0.18888 -2.70469,-2.23731 l -2.84389,-1.74115 v 0.7592 c 0,0.68557 0.23735,0.88783 2.44739,2.08552 2.8297,1.5335 2.60118,1.44996 3.10119,1.13374 z m 17.42793,-0.25232 c 0.82988,-0.44413 0.72516,-0.91512 -0.1562,-0.70255 -0.40018,0.0965 -1.65034,0.24476 -2.77812,0.32942 -1.58596,0.11906 -2.05053,0.2446 -2.05053,0.55411 0,0.3362 0.35281,0.37817 2.20672,0.2625 1.2137,-0.0757 2.46386,-0.27528 2.77813,-0.44348 z m 14.72661,0.24198 c -0.0899,-0.14552 -0.30532,-0.26276 -0.47863,-0.26053 -0.18934,0.002 -0.15671,0.10642 0.0818,0.26053 0.50829,0.32849 0.59989,0.32849 0.39687,0 z M 32.74063,16.59117 c -0.0845,-0.21107 -0.14716,-0.14837 -0.15985,0.15985 -0.0115,0.27891 0.051,0.43518 0.13896,0.34727 0.0879,-0.0879 0.0973,-0.31613 0.0209,-0.50712 z M 31.6823,16.32658 c -0.0845,-0.21106 -0.14716,-0.14837 -0.15985,0.15986 -0.0115,0.27891 0.051,0.43518 0.13896,0.34726 0.0879,-0.0879 0.0973,-0.31612 0.0209,-0.50712 z m 21.77967,0.1819 c -0.3638,-0.20796 -0.78052,-0.37812 -0.92604,-0.37812 -0.14552,0 0.0331,0.17016 0.39688,0.37812 0.3638,0.20797 0.78052,0.37813 0.92604,0.37813 0.14552,0 -0.0331,-0.17016 -0.39688,-0.37813 z M 30.35938,15.79742 c -0.0845,-0.21107 -0.14716,-0.14837 -0.15985,0.15985 -0.0115,0.27891 0.051,0.43518 0.13896,0.34727 0.0879,-0.0879 0.0973,-0.31613 0.0209,-0.50712 z m 8.60363,0.2818 c 1.42154,-0.30109 3.65105,-1.41875 3.65105,-1.83028 0,-0.12368 -0.68084,0.0762 -1.51296,0.44423 -1.12426,0.49719 -1.75304,0.62569 -2.4474,0.50016 -1.18824,-0.21484 -2.00711,-0.21339 -3.24064,0.006 -0.71333,0.1267 -1.29447,0.0298 -2.11667,-0.35278 -0.62336,-0.29008 -1.54236,-0.66132 -2.04224,-0.82496 -1.05121,-0.34414 -1.86926,-1.01047 -1.86926,-1.52256 0,-0.19573 -0.17028,-0.35587 -0.3784,-0.35587 -0.41152,0 -0.24244,0.95661 0.37198,2.10467 0.85508,1.59773 6.02471,2.58569 9.58454,1.83169 z m 7.09063,0.0324 c 0,-0.14552 -0.045,-0.26458 -0.1,-0.26458 -0.055,0 -0.52487,-0.17753 -1.04418,-0.39452 -1.03852,-0.43392 -1.48759,-0.15836 -0.82375,0.50548 0.45892,0.45891 1.96791,0.57671 1.96791,0.15362 z m 5.82083,-0.26458 c -0.21828,-0.14107 -0.51593,-0.25648 -0.66145,-0.25648 -0.14552,0 -0.086,0.11541 0.13229,0.25648 0.21828,0.14106 0.51594,0.25648 0.66146,0.25648 0.14552,0 0.086,-0.11542 -0.1323,-0.25648 z M 49.8901,15.05329 c -0.0899,-0.14552 -0.30532,-0.26276 -0.47864,-0.26054 -0.18934,0.002 -0.1567,0.10643 0.0818,0.26054 0.5083,0.32848 0.59989,0.32848 0.39688,0 z M 16.07449,14.06613 c -0.0671,-0.25743 -0.12638,-0.11086 -0.13177,0.3257 -0.005,0.43656 0.0495,0.64719 0.12197,0.46805 0.0725,-0.17913 0.0769,-0.53631 0.01,-0.79375 z m 19.77105,0.82656 c 0.7943,-0.3048 0.41488,-0.50439 -0.77844,-0.40948 -0.70269,0.0559 -1.36086,-0.0408 -1.59389,-0.23423 -0.21832,-0.18119 -0.47161,-0.25476 -0.56287,-0.1635 -0.19383,0.19383 1.42846,0.94227 2.07531,0.95745 0.24276,0.006 0.62971,-0.0619 0.85989,-0.15024 z m 3.06435,-0.53784 c 0,-0.71238 -0.84364,-1.1371 -2.24896,-1.1322 l -1.32291,0.005 1.5875,0.75802 c 1.90285,0.90859 1.98437,0.92377 1.98437,0.36957 z m 1.4229,0.0334 c 0.87707,-0.36647 1.34464,-1.18708 0.67637,-1.18708 -0.68237,0 -1.8199,0.86314 -1.83063,1.38907 -0.005,0.26839 0.053,0.25816 1.15426,-0.20199 z m 8.36668,0.13584 c -0.21828,-0.14106 -0.51593,-0.25648 -0.66145,-0.25648 -0.14552,0 -0.086,0.11542 0.13229,0.25648 0.21828,0.14106 0.51594,0.25648 0.66146,0.25648 0.14552,0 0.086,-0.11542 -0.1323,-0.25648 z m -13.67796,-0.6614 c -0.3116,-0.21826 -0.75413,-0.32484 -0.98339,-0.23686 -0.64847,0.24884 -0.21551,0.63368 0.71292,0.63368 0.8194,0 0.82509,-0.008 0.27047,-0.39682 z m 12.09046,-6e-5 c -0.3638,-0.20797 -0.78052,-0.37812 -0.92604,-0.37812 -0.14552,0 0.0331,0.17015 0.39688,0.37812 0.3638,0.20797 0.78052,0.37813 0.92604,0.37813 0.14552,0 -0.0331,-0.17016 -0.39688,-0.37813 z m -30.1625,-0.39687 c 0,-0.14552 -0.0525,-0.26459 -0.11667,-0.26459 -0.0642,0 -0.19026,0.11907 -0.2802,0.26459 -0.0899,0.14552 -0.0374,0.26458 0.11668,0.26458 0.1541,0 0.28019,-0.11906 0.28019,-0.26458 z m 15.74271,0.0207 c 0.46526,-0.18171 0.39154,-0.27691 -0.61036,-0.78821 -1.05798,-0.53991 -2.16776,-0.56261 -2.16776,-0.0443 0,0.11597 0.44648,0.39403 0.99219,0.61792 1.17697,0.48288 1.11742,0.47572 1.78593,0.21462 z m 6.81302,-0.19594 c -0.1819,-0.0734 -0.47955,-0.0734 -0.66145,0 -0.18191,0.0734 -0.0331,0.13345 0.33072,0.13345 0.36381,0 0.51263,-0.06 0.33073,-0.13345 z m 6.01927,-0.0894 c -0.21828,-0.14106 -0.51593,-0.25648 -0.66145,-0.25648 -0.14552,0 -0.086,0.11542 0.13229,0.25648 0.21828,0.14107 0.51594,0.25648 0.66146,0.25648 0.14552,0 0.086,-0.11541 -0.1323,-0.25648 z m -1.05833,-0.90664 c 0,-0.20761 0.20836,-0.43303 0.46302,-0.50094 0.25466,-0.0679 0.0463,-0.11568 -0.46302,-0.10617 -0.5676,0.0106 -3.33274,-0.9131 -7.14375,-2.38639 -9.27503,-3.5856 -10.01488,-3.84055 -10.65825,-3.67282 -0.34497,0.0899 -0.98985,0.80815 -1.5658,1.74388 -1.13274,1.84031 -1.34407,1.56095 2.28745,3.02375 2.67619,1.07799 2.89089,1.10638 4.20725,0.55637 0.52242,-0.21828 1.01321,-0.39687 1.09064,-0.39687 0.0774,0 0.14079,0.47625 0.14079,1.05833 v 1.05834 h 5.82084 c 4.86472,0 5.82083,-0.062 5.82083,-0.37748 z M 33.19749,11.1826 C 33.08164,10.56511 32.84129,10.17637 32.52404,10.09341 31.8607,9.91994 31.90052,9.71877 32.75833,8.9097 l 0.7276,-0.68626 3.83646,1.39315 c 2.15777,0.78356 3.80752,1.52527 3.77031,1.69509 -0.0364,0.16607 0.0529,0.30194 0.19844,0.30194 0.14552,0 0.26458,-0.11532 0.26458,-0.25628 0,-0.14095 0.1786,-0.18774 0.39688,-0.10398 0.21828,0.0838 0.39687,0.31815 0.39687,0.52086 0,0.30054 -0.82795,0.36857 -4.48592,0.36857 h -4.48593 z m 3.19886,-0.36273 c 0.56839,-0.58208 0.9739,-1.05833 0.90114,-1.05833 -0.0728,0 -0.59734,0.47625 -1.16572,1.05833 -0.56839,0.58209 -0.97391,1.05834 -0.90115,1.05834 0.0728,0 0.59734,-0.47625 1.16573,-1.05834 z m 2.64583,0.52917 c 0.26339,-0.29104 0.41936,-0.52917 0.3466,-0.52917 -0.0728,0 -0.34779,0.23813 -0.61118,0.52917 -0.26339,0.29104 -0.41936,0.52917 -0.3466,0.52917 0.0728,0 0.34779,-0.23813 0.61118,-0.52917 z m 0.79375,0 c 0.26339,-0.29104 0.41936,-0.52917 0.3466,-0.52917 -0.0728,0 -0.34779,0.23813 -0.61118,0.52917 -0.26339,0.29104 -0.41936,0.52917 -0.3466,0.52917 0.0728,0 0.34779,-0.23813 0.61118,-0.52917 z m 0.92604,-0.0312 c 0,-0.14552 -0.11906,-0.191 -0.26458,-0.10106 -0.14552,0.0899 -0.26458,0.28258 -0.26458,0.4281 0,0.14552 0.11906,0.191 0.26458,0.10106 0.14552,-0.0899 0.26458,-0.28258 0.26458,-0.4281 z m -5.76584,-0.68393 c 1.14031,-1.11348 1.20174,-1.27395 0.5077,-1.32623 -0.27261,-0.0205 -0.89769,0.39948 -1.38907,0.93337 -0.49137,0.53389 -0.58808,0.70394 -0.2149,0.3779 0.99325,-0.86778 1.26566,-0.72366 0.37982,0.20095 -1.09272,1.14056 -0.47886,0.9812 0.71645,-0.18599 z m -0.055,-0.87234 c 0,-0.14552 0.12609,-0.26458 0.2802,-0.26458 0.15411,0 0.20661,0.11906 0.11668,0.26458 -0.0899,0.14552 -0.21603,0.26458 -0.2802,0.26458 -0.0642,0 -0.11668,-0.11906 -0.11668,-0.26458 z m 0.79375,0.92604 c 0.49366,-0.50932 0.83802,-0.92604 0.76526,-0.92604 -0.0728,0 -0.53619,0.41672 -1.02984,0.92604 -0.49366,0.50932 -0.83803,0.92604 -0.76526,0.92604 0.0728,0 0.53619,-0.41672 1.02984,-0.92604 z m 1.57057,0.0515 0.64453,-0.84526 -0.84297,0.77711 c -0.87699,0.80847 -0.97707,0.95258 -0.64452,0.92804 0.10914,-0.008 0.48847,-0.395 0.84296,-0.85989 z m 1.28438,0.24278 c 0.24879,-0.28465 0.31368,-0.4368 0.14421,-0.33812 -0.16947,0.0987 -0.35042,0.0525 -0.40212,-0.10255 -0.0517,-0.15508 -0.37437,0.0165 -0.71706,0.38127 -0.6221,0.6622 -0.62218,0.66317 -0.0502,0.62009 0.31507,-0.0237 0.77641,-0.27605 1.0252,-0.56069 z M 34.14738,9.62927 c 0.34178,-0.3638 0.56188,-0.66146 0.48912,-0.66146 -0.0728,0 -0.41193,0.29766 -0.7537,0.66146 -0.34178,0.3638 -0.56188,0.66146 -0.48912,0.66146 0.0728,0 0.41193,-0.29766 0.7537,-0.66146 z M 33.74009,9.2439 c 0.34451,-0.38068 0.3354,-0.43348 -0.0802,-0.46479 -0.25788,-0.0194 -0.5995,0.17384 -0.75914,0.42947 -0.3859,0.61792 0.2865,0.64621 0.83935,0.0353 z m -7.99323,0.1232 c -0.47294,-0.20556 -0.8599,-0.44083 -0.8599,-0.52282 0,-0.082 0.37067,-0.80585 0.82371,-1.60859 0.93838,-1.66272 0.53342,-1.64443 4.521,-0.20412 2.3614,0.85294 2.54165,0.96699 2.25465,1.42654 -0.47885,0.76676 -0.88817,0.80883 -2.37446,0.24409 L 28.7411,8.18135 27.92591,8.97145 C 27.00182,9.86712 26.92807,9.88051 25.74686,9.3671 Z m 1.20385,-0.45221 c 0.17463,-0.17462 0.3175,-0.22415 0.3175,-0.11006 0,0.1141 0.47625,-0.16975 1.05834,-0.63077 0.58208,-0.46102 1.05833,-0.92743 1.05833,-1.03647 0,-0.53983 -1.05236,-0.10417 -2.10289,0.87056 L 26.10515,9.1001 27.10127,7.84333 C 28.32828,6.29526 27.93283,6.16738 26.629,7.69062 c -0.51977,0.60723 -1.00351,1.04557 -1.07499,0.9741 -0.0715,-0.0715 0.28498,-0.53213 0.79213,-1.02367 0.50714,-0.49154 0.92207,-1.00787 0.92207,-1.1474 0,-0.32956 -0.97028,0.55071 -1.63512,1.48345 l -0.51967,0.72907 0.61437,0.24634 c 0.82181,0.32951 0.85688,0.32843 1.22292,-0.0376 z m 0.3175,-0.29445 c 0,-0.0455 0.38696,-0.43249 0.8599,-0.8599 l 0.8599,-0.77711 -0.77711,0.8599 c -0.72437,0.80154 -0.94269,0.98151 -0.94269,0.77711 z m 4.76248,-0.0495 C 32.30799,8.23681 32.20992,8.11137 31.41013,7.77719 30.26052,7.29685 29.85472,7.28087 29.43615,7.69949 29.187,7.94863 29.36405,8.11673 30.24313,8.46581 31.688,9.03954 31.64398,9.03695 32.03069,8.57099 Z m 0.39274,3.30054 c -0.0798,-0.12911 -0.32984,-0.16385 -0.55566,-0.0772 -0.32072,0.12307 -0.33611,0.20359 -0.0703,0.36786 0.40132,0.24803 0.83457,0.0469 0.62597,-0.29067 z m 9.48561,-2.46604 c 0.16947,0.097 0.21539,0.0745 0.10204,-0.0501 -0.38473,-0.42275 -0.95678,-0.3585 -0.78536,0.0882 0.10621,0.27679 0.19937,0.31301 0.26886,0.10455 0.0585,-0.17545 0.24499,-0.23964 0.41446,-0.14264 z M 43.4078,8.08669 C 43.66894,8.02919 43.54935,7.876 43.05812,7.63871 42.42491,7.33283 42.27703,7.33397 42.08405,7.64671 41.7266,8.22507 38.54528,8.34322 37.72911,7.80844 36.9596,7.30424 36.71172,7.2686 36.84951,7.68196 c 0.0552,0.16565 0.61401,0.50199 1.24176,0.74744 1.12671,0.44052 2.02215,0.38288 5.31653,-0.34222 z M 36.05258,7.95701 C 36.46594,7.7918 36.46933,7.70862 36.09428,6.93497 35.85126,6.43371 35.5352,6.13916 35.31356,6.20736 c -1.23455,0.3799 -1.20295,0.34478 -0.87337,0.97057 0.49523,0.94028 0.81838,1.09642 1.61242,0.77908 z M 34.14333,7.44644 C 34.13143,6.86483 33.45333,6.45868 31.16132,5.66041 29.14468,4.95805 28.54494,4.84219 28.20658,5.0896 c -0.35281,0.25798 0.0125,0.46113 2.16283,1.20261 1.42304,0.49071 2.76594,0.99218 2.98422,1.11439 0.50067,0.28029 0.79491,0.29514 0.7897,0.0398 z m 6.99752,-1.54386 c 0.0944,-0.37618 0.10267,-0.90131 0.0184,-1.16695 -0.21959,-0.69185 -1.38336,-1.38267 -1.99971,-1.18705 -0.48837,0.155 -1.30795,1.37539 -1.30795,1.94759 0,0.60284 0.88288,1.09037 1.97459,1.09037 1.00861,0 1.16323,-0.0804 1.31471,-0.68396 z M 34.51619,6.0881 C 34.90254,5.93647 34.56939,5.7284 33.06098,5.17938 31.09572,4.46407 29.29057,4.21681 29.80751,4.73375 c 0.22635,0.22635 3.69826,1.54679 4.07529,1.54992 0.0728,6e-4 0.35778,-0.0874 0.63339,-0.19557 z m 1.3849,-1.03566 c -0.41791,-0.0521 -0.86429,0.01 -0.99195,0.13734 -0.13309,0.1331 0.19105,0.17352 0.75984,0.0948 0.91312,-0.12643 0.93156,-0.14487 0.23211,-0.23211 z m -1.2962,-0.21325 c -0.0879,-0.0879 -0.31612,-0.0973 -0.50712,-0.0209 -0.21106,0.0845 -0.14837,0.14716 0.15985,0.15985 0.27892,0.0115 0.43519,-0.051 0.34727,-0.13896 z M 21.97923,42.27963 c -1.67201,-1.17306 -3.11028,-2.24653 -3.19615,-2.38547 -0.0859,-0.13895 -0.35646,-0.17575 -0.6013,-0.0818 -0.33672,0.12921 0.20022,0.64861 2.20396,2.13198 1.45703,1.07863 2.64914,2.02015 2.64914,2.09227 0,0.53979 -2.66707,-0.75575 -4.13187,-2.00707 -1.04036,-0.88873 -5.22782,-3.42842 -5.65282,-3.42842 -0.17516,0 -0.873,-0.42259 -1.55075,-0.9391 C 9.86634,36.26504 1.37572,30.85936 0.47915,30.51848 0.1851,30.40667 0.01613,30.06243 0.01613,29.57517 v -0.76726 l 2.05052,1.28838 c 1.12779,0.7086 3.06255,1.96943 4.29948,2.80183 3.01649,2.02997 3.175,2.11041 3.175,1.61127 0,-0.23585 -0.23229,-0.40618 -0.55394,-0.40618 -0.33142,0 -0.60952,-0.21257 -0.69231,-0.52917 C 8.21878,33.283 8.00623,33.04487 7.82258,33.04487 7.63892,33.04487 7.34159,32.6898 7.16183,32.25583 6.93427,31.70645 6.40215,31.25502 5.40994,30.76958 4.62616,30.38611 3.98488,29.971 3.98488,29.84713 c 0,-0.12388 0.17859,-0.1567 0.39688,-0.0729 0.21828,0.0838 0.39687,0.0205 0.39687,-0.14059 0,-0.51541 0.46212,-0.31329 0.61431,0.26869 0.11906,0.45529 0.30019,0.53909 0.9569,0.4427 0.72674,-0.10666 0.81004,-0.048 0.81004,0.57017 0,0.82437 0.67275,1.86513 1.20563,1.86513 0.21003,0 0.36777,0.0893 0.35054,0.19844 -0.10061,0.63715 0.091,0.88487 0.62664,0.81038 0.45339,-0.063 0.61626,0.0652 0.68316,0.53772 0.0643,0.454 0.21836,0.58636 0.57423,0.4933 0.34725,-0.0908 0.5317,0.0534 0.6448,0.50399 0.11819,0.47091 0.34188,0.6322 0.88098,0.63522 0.54892,0.003 0.62903,0.0632 0.33335,0.2502 -0.21407,0.13538 -0.33313,0.28671 -0.26458,0.33629 1.69892,1.22882 3.16733,1.99894 3.16733,1.66112 0,-0.21977 -0.21967,-0.39958 -0.48816,-0.39958 -0.26848,0 -0.6852,-0.21773 -0.92604,-0.48385 -0.4985,-0.55084 -0.55803,-0.83906 -0.1733,-0.83906 0.14552,0 0.26459,0.17859 0.26459,0.39687 0,0.3869 0.29942,0.50869 1.01269,0.41192 0.19318,-0.0262 0.41543,0.19781 0.49388,0.49782 0.0785,0.3 0.30735,0.56035 0.50866,0.57854 0.20131,0.0182 0.49468,0.048 0.65193,0.0661 0.15725,0.0182 0.44988,0.25732 0.6503,0.5314 0.27522,0.37639 0.56133,0.45893 1.16929,0.33734 0.45131,-0.0903 0.80491,-0.049 0.80491,0.094 0,0.90799 1.82249,1.74479 2.25961,1.03751 0.1172,-0.18963 0.31705,-0.15789 0.61093,0.097 0.26393,0.22892 0.94665,0.36661 1.72533,0.34796 1.09731,-0.0263 1.32124,0.0551 1.50869,0.54837 0.28004,0.7369 1.05602,1.15581 1.78695,0.96467 0.37877,-0.0991 0.62344,-0.006 0.73255,0.27817 0.0901,0.23479 0.38217,0.42689 0.64905,0.42689 0.26689,0 0.55883,0.11906 0.64877,0.26458 0.0899,0.14552 0.42439,0.26837 0.74322,0.273 0.31883,0.005 0.81081,0.18322 1.09329,0.39687 0.46873,0.35454 0.36475,0.38856 -1.19063,0.3895 -1.63863,0.001 -1.7883,-0.0566 -3.88931,-1.49703 -1.2018,-0.82393 -2.27336,-1.4034 -2.38125,-1.28772 -0.10788,0.11568 -0.0713,0.25548 0.0812,0.31066 0.22518,0.0815 2.9087,2.01918 3.2575,2.35219 0.33504,0.31986 -1.37652,-0.14065 -1.98931,-0.53525 l -0.75182,-0.48413 0.50402,0.57012 c 0.27722,0.31357 0.45581,0.568 0.39688,0.56539 -0.0589,-0.003 -1.47516,-0.96452 -3.14718,-2.13759 z m 2.22507,0.37431 c -0.24949,-0.18243 -0.55709,-0.26775 -0.68355,-0.1896 -0.36756,0.22716 -0.0455,0.52131 0.57082,0.52131 0.51882,0 0.52828,-0.0279 0.11273,-0.33171 z m -1.18897,-0.76908 c -0.1704,-0.20533 -0.47268,-0.37332 -0.67171,-0.37332 -0.27891,0 -0.26065,0.11824 0.0796,0.51561 0.24281,0.28359 0.54509,0.45158 0.67171,0.37332 0.12663,-0.0783 0.0908,-0.31028 -0.0796,-0.51561 z m -5.95965,-2.59483 c -0.078,-0.20319 -0.43142,-0.4248 -0.78545,-0.49248 -0.83558,-0.15973 -0.81318,-0.0407 0.0839,0.44599 0.90498,0.49096 0.87123,0.48872 0.70153,0.0465 z M 7.82795,43.19329 C 6.95846,42.67398 5.47018,41.82817 4.52066,41.31372 2.51565,40.22739 1.86821,39.71672 1.86821,39.22157 c 0,-0.19572 0.0633,-0.35586 0.1407,-0.35586 0.7334,0 9.52133,4.97824 9.25612,5.24346 -0.0691,0.0691 -0.60176,-0.18944 -1.18368,-0.57454 C 9.49943,43.14954 8.8975,42.83446 8.74374,42.83446 8.58998,42.83446 8.14555,42.6261 7.75612,42.37144 7.36668,42.11677 7.1389,42.05583 7.24993,42.23601 c 0.11104,0.18017 0.73151,0.63797 1.37883,1.01732 0.64733,0.37936 1.17695,0.73796 1.17695,0.79689 0,0.24533 -0.48168,0.0366 -1.97776,-0.85693 z m 4.6236,-0.34002 C 11.36014,42.16188 9.93139,41.29761 9.27655,40.93267 8.6217,40.56773 7.47744,39.89384 6.73374,39.43513 5.99004,38.97643 5.29712,38.60112 5.19391,38.60112 c -0.1032,0 -0.68535,-0.33785 -1.29365,-0.75078 C 3.29196,37.43741 2.21407,36.81369 1.50495,36.46428 0.28834,35.86482 -0.23193,35.3214 0.09641,34.99307 c 0.36248,-0.36249 8.20377,4.2463 11.56908,6.79983 0.65907,0.5001 1.64134,1.1447 2.18281,1.43245 0.54147,0.28776 0.9845,0.61518 0.9845,0.72761 0,0.35089 -0.3373,0.19512 -2.38125,-1.09969 z m 5.29166,0.55389 c -0.79669,-0.59773 -0.85563,-0.61234 -0.42201,-0.10457 0.27722,0.32461 0.38109,0.5902 0.23083,0.5902 -0.15025,0 -0.41598,-0.17205 -0.59051,-0.38234 C 16.787,43.30016 16.02828,42.74358 15.27548,42.27361 14.52268,41.80363 13.6091,41.14947 13.2453,40.81991 12.15791,39.83487 10.23963,38.62876 9.99792,38.77815 9.87387,38.85485 9.52128,38.69755 9.21439,38.4286 8.90751,38.15969 8.74344,38.08849 8.84981,38.27039 9.13281,38.75438 8.60851,38.67453 8.18967,38.16986 7.76239,37.65501 4.51099,35.57029 4.12379,35.56291 3.97463,35.55991 3.37634,35.25134 2.79426,34.87685 2.21217,34.50236 1.34897,33.97082 0.87603,33.69566 -0.09239,33.13223 -0.27761,32.6514 0.57843,32.9231 c 0.37539,0.11914 0.50274,0.0821 0.38313,-0.11143 -0.30127,-0.48748 0.62243,-0.0287 3.15561,1.56743 1.30969,0.8252 3.57188,2.19446 5.02709,3.0428 2.70649,1.57779 7.94439,4.97105 9.12417,5.91091 1.00321,0.79919 0.53015,0.86616 -0.52522,0.0743 z m 13.27718,-0.3055 C 30.53747,42.98738 29.68932,42.5298 29.1356,42.08481 28.58188,41.63984 27.72684,41.1004 27.2355,40.88607 c -0.79461,-0.34663 -0.82324,-0.39208 -0.25912,-0.41128 0.35135,-0.012 1.11838,0.37308 1.71979,0.86332 1.40312,1.14375 2.08757,1.49635 2.90466,1.49635 0.36478,0 0.73682,0.11906 0.82676,0.26458 0.18563,0.30036 -0.14648,0.30098 -1.4072,0.003 z m -2.69384,-2.86012 c 0,-0.60294 -0.49989,-1.11125 -1.09285,-1.11125 -0.27263,0 -0.49205,-0.23973 -0.5424,-0.59261 -0.049,-0.34341 -0.30706,-0.63396 -0.61371,-0.69095 -0.29104,-0.0541 -0.62438,-0.26367 -0.74075,-0.46573 -0.11637,-0.20205 -0.41515,-0.36738 -0.66396,-0.36738 -0.24881,0 -0.59496,-0.22831 -0.76923,-0.50737 -0.21843,-0.34975 -0.49764,-0.46009 -0.89877,-0.35519 -0.4003,0.10468 -0.52284,0.0566 -0.39263,-0.15409 0.309,-0.49999 1.01745,-0.33775 2.14242,0.49061 0.58209,0.42861 1.31604,0.89409 1.63101,1.03439 0.31497,0.1403 0.65041,0.50004 0.74543,0.79941 0.095,0.29938 0.34028,0.54433 0.54501,0.54433 0.20474,0 0.55391,0.35127 0.77592,0.78061 0.47437,0.91731 0.49438,1.07147 0.13909,1.07147 -0.14552,0 -0.26458,-0.21431 -0.26458,-0.47625 z m -2.93329,-0.30578 c -1.19518,-0.36221 -2.10369,-1.1161 -2.61143,-2.16699 -0.27097,-0.56085 -0.39886,-1.01973 -0.2842,-1.01973 0.11466,0 0.3577,0.36028 0.54009,0.80062 0.39293,0.9486 1.48425,1.78544 2.62623,2.01384 0.45184,0.0904 0.88561,0.26799 0.96393,0.39471 0.16856,0.27275 -0.28792,0.26444 -1.23462,-0.0225 z M 10.0703,39.11467 c 0,-0.15411 0.11906,-0.20661 0.26458,-0.11667 0.14552,0.0899 0.26458,0.21602 0.26458,0.2802 0,0.0642 -0.11906,0.11667 -0.26458,0.11667 -0.14552,0 -0.26458,-0.12609 -0.26458,-0.2802 z m 7.75903,-3.20876 c -0.46196,-0.70045 -0.73154,-1.27354 -0.59906,-1.27354 0.31546,0 1.65155,2.02274 1.53157,2.31869 -0.0509,0.12561 -0.47055,-0.34471 -0.93251,-1.04515 z m 10.89648,0.77081 c -0.10733,-0.40358 -0.44943,-0.91906 -0.76022,-1.14552 -0.53768,-0.39178 -0.53952,-0.40736 -0.0379,-0.32132 0.5659,0.0971 1.30721,1.35 1.11189,1.87925 -0.0652,0.17675 -0.20641,-0.009 -0.31374,-0.41241 z m -3.79388,-1.01233 c -0.22653,-0.36274 -0.4963,-0.47924 -0.84988,-0.36702 -0.3743,0.1188 -0.518,0.0408 -0.518,-0.28114 0,-0.33258 -0.16771,-0.41349 -0.66146,-0.3191 -0.55451,0.106 -0.66146,0.0254 -0.66146,-0.49832 0,-0.34362 -0.11533,-0.62477 -0.25628,-0.62477 -0.14095,0 -0.18804,-0.17783 -0.10464,-0.39517 0.0971,-0.253 -0.0725,-0.48494 -0.47132,-0.64469 -0.45884,-0.18378 -0.50098,-0.25393 -0.15995,-0.26629 0.61408,-0.0222 0.58529,-0.42366 -0.0779,-1.0869 C 20.70735,30.71729 20.649,30.4055 20.7626,28.99817 l 0.13253,-1.64184 -0.3751,1.71979 -0.37511,1.71979 0.10607,-1.98437 c 0.0997,-1.86516 0.0855,-1.92874 -0.23585,-1.05833 l -0.34191,0.92604 -0.1894,-0.84688 c -0.2098,-0.93812 0.04,-3.16558 0.42422,-3.78333 0.16687,-0.26827 0.19907,-0.0754 0.0994,0.59531 -0.0811,0.54571 -0.20193,1.43867 -0.26847,1.98438 -0.10312,0.84575 -0.0803,0.81646 0.15476,-0.19844 0.3935,-1.69911 0.81224,-2.54052 0.61655,-1.23887 -0.13384,0.89022 -0.0553,1.09438 0.66156,1.72029 l 0.81342,0.71019 -0.31203,1.55372 c -0.24505,1.22021 -0.24148,1.66669 0.0166,2.08001 0.18077,0.28946 0.37629,0.78069 0.43449,1.09162 0.1627,0.86928 0.66571,1.69421 1.14181,1.87254 0.94131,0.3526 1.92714,1.00713 2.06739,1.3726 0.23376,0.60919 -0.0359,0.65753 -0.40156,0.072 z m -3.56675,-7.58045 c -0.0666,-0.25467 -0.121,-0.0463 -0.121,0.46302 0,0.50932 0.0544,0.71768 0.121,0.46302 0.0666,-0.25466 0.0666,-0.67138 0,-0.92604 z m -1.19575,7.0776 c 0.004,-0.3638 0.10311,-0.95912 0.21962,-1.32292 0.20657,-0.64501 0.21203,-0.64172 0.21961,0.13229 0.004,0.43657 -0.0945,1.03188 -0.21961,1.32292 -0.20671,0.48103 -0.22669,0.469 -0.21962,-0.13229 z m 1.10479,-1.05833 c -0.35147,-1.31676 -0.22412,-1.35893 0.3019,-0.1 0.46307,1.10828 0.4713,1.15831 0.1905,1.15831 -0.11545,0 -0.33704,-0.47625 -0.4924,-1.05833 z M 12.3854,32.74448 c -0.99957,-2.03522 -1.24382,-3.13919 -0.69453,-3.13919 0.18875,0 0.24032,0.28666 0.14096,0.78349 -0.0862,0.43092 -0.0393,0.85607 0.10425,0.94477 0.38619,0.23868 1.61748,2.76259 1.52294,3.12175 -0.0448,0.17015 -0.52792,-0.59972 -1.07362,-1.71082 z m 7.32059,1.09414 c 0.0574,-0.50932 0.14519,-1.08975 0.19522,-1.28984 0.05,-0.20009 -0.0579,-0.41837 -0.23977,-0.48507 -0.23038,-0.0845 -0.33073,0.20652 -0.33073,0.95912 0,0.5942 -0.11608,1.08038 -0.25796,1.08038 -0.14481,0 -0.18919,-0.34392 -0.10117,-0.78402 0.17809,-0.89044 -0.0631,-2.1264 -0.41489,-2.1264 -0.12912,0 -0.17755,0.26789 -0.10761,0.59531 0.12356,0.57848 0.11546,0.5809 -0.28662,0.0855 -0.51871,-0.63914 -0.82743,-0.38514 -0.43137,0.3549 0.16243,0.30351 0.20184,0.5489 0.0876,0.54532 -0.11426,-0.004 -0.42481,-0.4421 -0.69012,-0.9745 -0.44584,-0.8947 -0.44747,-0.93927 -0.0215,-0.5888 0.42687,0.35123 0.44736,0.31091 0.27794,-0.54686 -0.17824,-0.90243 -0.17225,-0.91086 0.23497,-0.33073 0.22982,0.32743 0.64924,0.59532 0.93203,0.59532 0.28279,0 0.51416,0.11906 0.51416,0.26458 0,0.14552 0.2301,0.26458 0.51134,0.26458 0.72541,0 0.87384,0.75553 0.41764,2.12576 -0.36776,1.10461 -0.38659,1.12124 -0.28912,0.25549 z m 6.50389,0.72586 c 0,-0.0373 0.11523,-0.48382 0.25606,-0.99219 0.20783,-0.75021 0.19474,-0.84373 -0.0695,-0.49655 -0.46524,0.61124 -0.9757,0.0182 -0.6777,-0.78737 0.22838,-0.61739 0.46243,-0.58685 1.35106,0.1763 0.58402,0.50155 0.58608,0.9596 0.007,1.63551 -0.38386,0.4483 -0.86725,0.7071 -0.86725,0.4643 z m 13.32414,-5.15763 c -2.30781,-2.43747 -4.28531,-4.47146 -4.39445,-4.51996 -0.35316,-0.15696 -0.21063,-0.50787 0.26458,-0.65136 0.25466,-0.0769 2.36802,-0.67836 4.69636,-1.33659 2.32833,-0.65823 4.99298,-1.44264 5.92144,-1.74313 0.92847,-0.3005 1.89988,-0.54635 2.15869,-0.54635 0.57722,0 8.82669,8.20507 8.53368,8.48775 -0.1153,0.11125 -1.57887,0.69824 -3.25236,1.30444 -1.67348,0.60619 -4.47724,1.6275 -6.23055,2.26957 -1.75332,0.64207 -3.2584,1.1674 -3.34461,1.1674 -0.0862,0 -2.04497,-1.99429 -4.35278,-4.43177 z m 4.66753,3.97975 c 0,-0.23451 -7.66059,-8.05787 -8.20209,-8.37636 -0.21828,-0.12839 0.44333,0.64461 1.47025,1.71779 4.72407,4.93686 5.81938,6.11413 6.01695,6.46716 0.21866,0.39073 0.71489,0.52359 0.71489,0.19141 z m -3.31676,-4.58454 c -2.31972,-2.32312 -4.33677,-4.22385 -4.48234,-4.22385 -0.14558,0 1.69286,1.96024 4.08542,4.35609 2.39255,2.39586 4.4096,4.29659 4.48234,4.22386 0.0727,-0.0727 -1.7657,-2.03298 -4.08542,-4.3561 z m 0.74657,-0.30972 c -2.35837,-2.35837 -4.34442,-4.23147 -4.41343,-4.16246 -0.2021,0.2021 7.87014,8.38478 8.30552,8.41916 0.21772,0.0172 -1.53372,-1.89832 -3.89209,-4.2567 z m 0.75922,-0.29911 c -2.33938,-2.33938 -4.30737,-4.19908 -4.37332,-4.13266 -0.19596,0.19736 8.14811,8.66023 8.3977,8.51727 0.12597,-0.0722 -1.685,-2.04523 -4.02438,-4.38461 z m 4.80118,3.72716 c -0.27236,-0.5356 -8.25729,-8.24871 -8.39591,-8.1101 -0.14924,0.14924 8.06444,8.44083 8.36152,8.44083 0.11141,0 0.12689,-0.14883 0.0344,-0.33073 z M 44.73071,28.2759 c -5.46364,-5.26675 -6.19302,-5.60964 -1.19372,-0.56119 2.32663,2.34951 4.41022,4.26903 4.63021,4.26561 0.21998,-0.003 -1.32643,-1.67041 -3.43649,-3.70442 z m 0.39688,-0.65921 c -2.32833,-2.2451 -4.41193,-4.08472 -4.63021,-4.08804 -0.21828,-0.003 0.85328,1.15253 2.38125,2.56856 1.52797,1.41602 3.4925,3.25863 4.36563,4.09467 0.87312,0.83604 1.70656,1.51709 1.85208,1.51344 0.14552,-0.004 -1.64042,-1.84353 -3.96875,-4.08863 z m 4.89479,3.71067 c 0,-0.12665 -4.17994,-4.18522 -7.18507,-6.97645 -0.82309,-0.7645 -1.54939,-1.294 -1.61399,-1.17667 -0.11964,0.21732 8.23845,8.25835 8.60062,8.27436 0.10914,0.005 0.19844,-0.0497 0.19844,-0.12124 z m -3.36559,-4.37369 c -2.27016,-2.17963 -4.2573,-3.95951 -4.41588,-3.95529 -0.15857,0.004 1.61668,1.83655 3.94501,4.07183 2.32834,2.23529 4.31548,4.01517 4.41588,3.95529 0.10039,-0.0599 -1.67486,-1.89221 -3.94501,-4.07183 z m 2.08763,0.97734 c -3.97919,-3.84457 -5.48747,-5.20576 -5.76093,-5.19916 -0.13044,0.003 1.66785,1.83499 3.99618,4.07076 2.32834,2.23577 4.3131,4.018 4.41058,3.96051 0.0975,-0.0575 -1.09313,-1.33194 -2.64583,-2.83211 z m 2.21419,0.10123 c -1.08606,-1.08605 -2.04845,-1.90084 -2.13866,-1.81063 -0.0902,0.0902 0.70899,1.02318 1.77598,2.07327 3.02607,2.97813 1.27836,1.55215 -2.77139,-2.26122 -2.00918,-1.89191 -3.79511,-3.47764 -3.96875,-3.52385 -0.17364,-0.0462 1.5871,1.75328 3.91274,3.99888 3.62682,3.50199 4.29505,4.04131 4.69658,3.79055 0.41669,-0.26023 0.25113,-0.50937 -1.5065,-2.267 z m -0.0364,-0.88091 c -4.71633,-4.45918 -5.76361,-5.37589 -5.58444,-4.88823 0.0936,0.25466 0.0647,0.46302 -0.0641,0.46302 -0.12883,0 -0.28739,-0.14883 -0.35235,-0.33073 -0.065,-0.1819 -0.19836,-0.25686 -0.29643,-0.16658 -0.18931,0.17425 3.36749,3.73675 3.89568,3.90193 0.17118,0.0535 -0.45924,-0.69062 -1.40092,-1.65365 -3.06658,-3.1361 -1.29557,-1.81867 2.62762,1.95466 2.10424,2.02386 3.87837,3.62727 3.94251,3.56313 0.0641,-0.0641 -1.18126,-1.34374 -2.76756,-2.84355 z m -0.62684,-1.5147 c -2.25097,-2.16782 -4.15314,-3.88102 -4.22706,-3.8071 -0.0739,0.0739 0.51915,0.75237 1.31791,1.50768 0.79876,0.75531 2.60629,2.47462 4.01674,3.82068 1.41045,1.34607 2.65909,2.44129 2.77476,2.43381 0.11568,-0.007 -1.63138,-1.78725 -3.88235,-3.95507 z m 4.56883,3.6355 c -0.25776,-0.40587 -5.98047,-5.88842 -7.10892,-6.81059 -0.44518,-0.3638 0.98413,1.08959 3.17625,3.22977 2.19212,2.14018 4.02135,3.89635 4.06497,3.90261 0.0436,0.006 -0.0159,-0.13855 -0.1323,-0.32179 z m -3.10788,-3.97466 c -2.15998,-2.06909 -4.05881,-3.80469 -4.21963,-3.8569 -0.16082,-0.0522 1.55307,1.68988 3.80864,3.87132 2.25557,2.18145 4.1544,3.91705 4.21962,3.85691 0.0652,-0.0601 -1.64866,-1.80225 -3.80863,-3.87133 z m 0.63804,-0.33171 c -2.10117,-2.10493 -3.94091,-3.82674 -4.08832,-3.82625 -0.1474,4.7e-4 1.51554,1.77889 3.69544,3.95201 2.17989,2.17311 4.01963,3.89493 4.08831,3.82625 0.0687,-0.0687 -1.59426,-1.84709 -3.69543,-3.95201 z M 10.01163,32.13695 C 9.79586,31.48153 9.71211,31.00263 9.82552,31.07272 c 0.26912,0.16632 0.86375,1.97057 0.70257,2.13175 -0.0683,0.0683 -0.30069,-0.4121 -0.51646,-1.06752 z m 6.14411,0.90792 c 0,-0.14552 0.11907,-0.26458 0.26459,-0.26458 0.14552,0 0.26458,0.11906 0.26458,0.26458 0,0.14552 -0.11906,0.26459 -0.26458,0.26459 -0.14552,0 -0.26459,-0.11907 -0.26459,-0.26459 z m 6.75017,-2.09123 c 0.0815,-0.64086 0.26545,-1.35523 0.40866,-1.5875 0.18284,-0.29654 0.20816,-0.10713 0.085,0.63602 -0.26259,1.5848 -0.67554,2.38068 -0.49368,0.95148 z m -0.79363,-1.20537 c 0.0737,-0.72172 0.25188,-1.43015 0.396,-1.57427 0.35747,-0.35747 0.32685,-0.0132 -0.13906,1.56358 l -0.3909,1.32292 z M 8.00524,29.473 c 0.005,-0.43656 0.0647,-0.58313 0.13177,-0.3257 0.0671,0.25744 0.0627,0.61462 -0.01,0.79375 -0.0725,0.17913 -0.12736,-0.0315 -0.12197,-0.46805 z m 7.62134,0.39687 c 0,-0.14552 -0.29766,-0.26458 -0.66146,-0.26458 -0.41158,0 -0.66146,-0.14993 -0.66146,-0.39688 0,-0.25754 -0.25543,-0.39545 -0.7276,-0.39282 -0.5088,0.003 -0.61966,0.0725 -0.36863,0.23151 0.26625,0.1687 0.27879,0.27702 0.0485,0.41932 -0.46312,0.28622 -0.6935,-0.0871 -0.37114,-0.60142 0.37774,-0.6027 1.37812,-0.73201 1.58061,-0.20431 0.0877,0.22849 0.36099,0.41543 0.60736,0.41543 0.46717,0 1.08294,0.48143 1.08294,0.84667 0,0.11642 -0.11906,0.21167 -0.26458,0.21167 -0.14552,0 -0.26458,-0.11907 -0.26458,-0.26459 z M 1.80684,28.54696 C 1.62508,28.25591 1.37527,28.01779 1.2517,28.01779 c -0.3012,0 -1.21568,-1.113 -1.22674,-1.49305 -0.005,-0.16633 0.16252,-0.36816 0.3719,-0.44851 0.26363,-0.10116 0.40602,0.0732 0.46302,0.56701 0.0644,0.55782 0.20973,0.69976 0.66744,0.65187 0.42337,-0.0443 0.54318,0.0481 0.43342,0.3341 -0.22522,0.5869 0.41737,1.22412 1.03632,1.02766 0.34769,-0.11035 0.46382,-0.0677 0.34391,0.12632 -0.29219,0.47278 -1.17637,0.33662 -1.53413,-0.23623 z m 14.08432,0.26458 c 0,-0.14552 0.11906,-0.26458 0.26458,-0.26458 0.14552,0 0.26459,0.11906 0.26459,0.26458 0,0.14552 -0.11907,0.26458 -0.26459,0.26458 -0.14552,0 -0.26458,-0.11906 -0.26458,-0.26458 z m 2.25939,-2.28161 c 0.11984,-1.23816 0.0715,-1.39469 -0.55788,-1.80708 -0.80686,-0.52868 -0.68852,-0.8583 0.14751,-0.41087 0.49183,0.26322 0.59141,0.22936 0.71497,-0.24314 0.079,-0.30193 0.23222,-0.54897 0.34058,-0.54897 0.18845,0 -0.042,1.46232 -0.54215,3.43959 -0.20005,0.79092 -0.21508,0.72825 -0.10303,-0.42953 z M 7.15991,27.20842 c 0,-0.15411 0.11906,-0.20661 0.26458,-0.11667 0.14552,0.0899 0.26459,0.21602 0.26459,0.2802 0,0.0642 -0.11907,0.11667 -0.26459,0.11667 -0.14552,0 -0.26458,-0.12609 -0.26458,-0.2802 z m 11.47744,-0.4474 c 0.0748,-0.25466 0.21716,-0.93927 0.31634,-1.52136 0.0992,-0.58208 0.2893,-1.23692 0.42249,-1.4552 0.15968,-0.26171 0.18578,-0.0815 0.0766,0.52916 -0.2686,1.50258 -0.66117,2.91042 -0.81154,2.91042 -0.077,0 -0.0787,-0.20836 -0.004,-0.46302 z m 4.82489,-0.21448 c -0.0955,-0.2489 -0.33469,-0.37147 -0.55782,-0.28585 -0.22832,0.0876 -0.50607,-0.0659 -0.66853,-0.36942 -0.15286,-0.28562 -0.4821,-0.52114 -0.73164,-0.52336 -0.39004,-0.004 -0.39801,-0.0404 -0.0568,-0.26307 0.28986,-0.18917 0.51532,-0.11673 0.83616,0.26864 0.24161,0.2902 0.6323,0.52764 0.8682,0.52764 0.42286,0 0.86737,0.69147 0.60997,0.94887 -0.0728,0.0728 -0.20753,-0.0638 -0.2995,-0.30345 z M 9.27658,26.06581 c 0,-0.0549 0.17859,-0.24811 0.39687,-0.42927 0.32504,-0.26976 0.39688,-0.25168 0.39688,0.0999 0,0.23609 -0.1786,0.42927 -0.39688,0.42927 -0.21828,0 -0.39687,-0.045 -0.39687,-0.0999 z M 8.89551,24.41469 c -0.24835,-0.98947 0.002,-1.07467 0.33671,-0.11457 0.15478,0.44399 0.18145,0.80725 0.0593,0.80725 -0.12218,0 -0.30037,-0.3117 -0.39599,-0.69268 z m 47.61461,-3.5729 c -1.54398,-1.32743 -2.75041,-2.47032 -2.68097,-2.53977 0.11248,-0.11247 5.71826,4.66054 5.71826,4.86878 0,0.23966 -0.45863,-0.11202 -3.03729,-2.32901 z M 7.95366,22.04905 c 0,-0.22687 0.11906,-0.33891 0.26458,-0.24897 0.14552,0.0899 0.26459,0.27556 0.26459,0.41249 0,0.13693 -0.11907,0.24897 -0.26459,0.24897 -0.14552,0 -0.26458,-0.18562 -0.26458,-0.41249 z m -2.91042,-2.7469 c 0,-0.59067 0.0465,-1.07394 0.10335,-1.07394 0.21188,0 0.31496,1.88937 0.10998,2.01605 -0.11733,0.0725 -0.21333,-0.35143 -0.21333,-0.94211 z m -0.74385,0.11668 c 0.007,-0.43656 0.1036,-1.15094 0.21469,-1.5875 0.19302,-0.75856 0.20254,-0.74683 0.21468,0.26458 0.007,0.58209 -0.0896,1.29646 -0.21468,1.5875 -0.19257,0.44812 -0.22545,0.4076 -0.21469,-0.26458 z M 3.77191,19.15425 c 0.005,-0.43656 0.0647,-0.58313 0.13177,-0.3257 0.0671,0.25744 0.0627,0.61462 -0.01,0.79375 -0.0725,0.17914 -0.12737,-0.0315 -0.12197,-0.46805 z m 2.32967,0.39687 c 0,-0.14552 0.11906,-0.26458 0.26458,-0.26458 0.14552,0 0.26458,0.11906 0.26458,0.26458 0,0.14552 -0.11906,0.26459 -0.26458,0.26459 -0.14552,0 -0.26458,-0.11907 -0.26458,-0.26459 z m 45.29919,-1.10149 c -0.91539,-0.7406 -1.60534,-1.40555 -1.53322,-1.47767 0.12644,-0.12644 3.59444,2.51162 3.59444,2.73424 0,0.30224 -0.54569,-0.0304 -2.06122,-1.25657 z M 5.62399,18.88966 c 0.005,-0.43656 0.0647,-0.58312 0.13177,-0.32569 0.0671,0.25743 0.0627,0.61462 -0.01,0.79375 -0.0725,0.17913 -0.12736,-0.0315 -0.12197,-0.46806 z m 2.75636,-0.24 c -0.0879,-0.35028 -0.23886,-0.8563 -0.33543,-1.12448 -0.0966,-0.26818 -0.075,-0.39608 0.0479,-0.28422 0.33345,0.30345 0.8888,2.04558 0.65209,2.04558 -0.1126,0 -0.27666,-0.2866 -0.36457,-0.63688 z M 7.08448,18.41327 C 6.97907,18.13858 6.62427,17.96362 6.17262,17.96362 c -0.50414,0 -0.82239,-0.18392 -1.00049,-0.57819 -0.38649,-0.85562 -0.92264,-0.91682 -0.92264,-0.10531 0,0.90802 -0.39742,0.88078 -0.473,-0.0324 -0.0781,-0.94315 -0.52412,-1.39571 -0.85688,-0.86937 -0.13723,0.21707 -0.25134,0.26042 -0.25356,0.0963 -0.002,-0.16409 0.15874,-0.43345 0.35771,-0.59858 0.27452,-0.22782 0.43872,-0.20752 0.68081,0.0842 0.17546,0.21142 0.46587,0.32806 0.64534,0.25919 0.17947,-0.0689 0.67678,0.17619 1.10513,0.54457 0.42836,0.36839 0.91308,0.66994 1.07716,0.67011 0.42297,4.5e-4 0.96289,0.71459 0.83357,1.10253 -0.0712,0.21361 -0.16832,0.171 -0.28129,-0.12339 z m -5.7454,-0.44965 c 0,-0.14552 0.11906,-0.26458 0.26458,-0.26458 0.14552,0 0.26458,0.11906 0.26458,0.26458 0,0.14552 -0.11906,0.26459 -0.26458,0.26459 -0.14552,0 -0.26458,-0.11907 -0.26458,-0.26459 z m 4.97118,-1.19745 c -0.0818,-0.28728 -0.22927,-0.76046 -0.3278,-1.05151 -0.0985,-0.29104 0.0146,-0.1946 0.25133,0.2143 0.23676,0.40891 0.38427,0.88209 0.32779,1.05151 -0.0565,0.16943 -0.16957,0.073 -0.25132,-0.2143 z m 4.55496,-0.12332 C 10.69201,16.31919 10.39896,16.13188 10.1908,16.21176 9.98834,16.28946 9.74591,16.22876 9.65206,16.07693 9.55826,15.92509 9.26221,15.85819 8.99426,15.92826 8.67603,16.01146 8.35712,15.8268 8.07469,15.39577 7.75708,14.91103 7.47295,14.76825 7.00424,14.85785 c -0.7195,0.13754 -0.8693,-0.18847 -0.20392,-0.4438 0.44754,-0.17173 1.68251,0.47404 1.68251,0.8798 0,0.12564 0.53547,0.30874 1.18993,0.40688 0.80231,0.12031 1.28334,0.35296 1.47665,0.71416 0.15769,0.29465 0.22718,0.59525 0.15442,0.66801 -0.0728,0.0728 -0.27014,-0.12526 -0.43861,-0.44005 z M 2.90684,14.48055 C 2.72689,14.14067 2.40589,13.59469 2.19352,13.26727 1.98114,12.93985 1.87892,12.67196 1.96635,12.67196 c 0.26232,0 1.57894,2.11531 1.41726,2.27699 -0.0823,0.0823 -0.29681,-0.12851 -0.47677,-0.4684 z m 1.07807,0.0279 c 0,-0.1541 0.11906,-0.20661 0.26458,-0.11667 0.14552,0.0899 0.26459,0.21602 0.26459,0.2802 0,0.0642 -0.11907,0.11667 -0.26459,0.11667 -0.14552,0 -0.26458,-0.12609 -0.26458,-0.2802 z m 9.17222,-0.42535 c -0.29741,-0.29742 -0.19551,-0.66041 0.12908,-0.45981 0.19077,0.11791 0.23358,0.0725 0.11401,-0.12099 -0.1053,-0.17038 -0.29035,-0.24866 -0.41121,-0.17396 C 12.6633,13.52963 9.42032,9.7727 9.70029,9.51842 9.83105,9.39965 10.9933,9.03854 12.28306,8.71596 l 2.34502,-0.58652 1.53009,1.67596 c 0.84155,0.92178 1.48051,1.75781 1.4199,1.85786 -0.10342,0.17071 -3.99524,2.59623 -4.16574,2.59623 -0.0433,0 -0.15818,-0.0794 -0.2552,-0.17639 z m -0.17094,-1.80244 c -0.63969,-0.65179 -1.21907,-1.12908 -1.28752,-1.06063 -0.0684,0.0685 -0.314,-0.0197 -0.54567,-0.19598 -0.23167,-0.17623 -0.13602,-2.6e-4 0.21256,0.39102 0.34857,0.39129 0.71731,0.65981 0.81941,0.59671 0.1021,-0.0631 0.52378,0.23823 0.93708,0.66961 0.41329,0.43139 0.81349,0.78435 0.88932,0.78435 0.0758,0 -0.3855,-0.53329 -1.02518,-1.18508 z m 1.59087,0.29431 c -0.53552,-0.53553 -0.26284,-0.76984 0.32191,-0.27661 l 0.59532,0.50213 -0.59532,-0.67662 c -0.88753,-1.00875 -0.71896,-1.25202 0.25035,-0.36128 0.70979,0.65226 0.67202,0.56457 -0.23513,-0.54581 -0.59443,-0.72761 -1.36193,-1.55918 -1.70555,-1.84795 -0.48335,-0.40619 -0.46008,-0.34302 0.10283,0.27906 1.06568,1.1777 0.88767,1.42285 -0.26458,0.36437 l -0.99219,-0.91145 0.99219,1.06914 c 1.42775,1.53848 1.22378,1.78413 -0.26458,0.31864 -1.27106,-1.25153 -1.92692,-1.35781 -2.07681,-0.33654 -0.0507,0.34545 0.0123,0.36988 0.31211,0.12106 0.34869,-0.28939 0.49177,-0.15789 0.40041,0.36802 -0.0208,0.11996 0.0644,0.15489 0.18942,0.0776 0.12502,-0.0773 0.7286,0.37029 1.34129,0.99457 0.61268,0.62428 1.29122,1.13506 1.50785,1.13506 0.27106,0 0.30863,-0.0853 0.12048,-0.27341 z M 12.77327,11.2746 c -0.75902,-0.76856 -1.38003,-1.50822 -1.38003,-1.6437 0,-0.13547 0.57258,0.31765 1.27239,1.00694 0.69982,0.68929 1.32915,1.1965 1.39851,1.12714 0.0694,-0.0694 0.12613,0.10633 0.12613,0.39044 0,0.28411 -0.008,0.51657 -0.0185,0.51657 -0.0102,0 -0.6395,-0.62883 -1.39851,-1.39739 z m 3.16401,0.25585 c -0.81883,-0.8716 -0.71361,-1.19139 0.14015,-0.42594 0.39652,0.35551 0.20893,0.0226 -0.42084,-0.74682 -0.62495,-0.76355 -1.27432,-1.46862 -1.44304,-1.56684 -0.16872,-0.0982 -0.0984,0.0596 0.15626,0.35076 0.77997,0.89169 0.51429,1.02988 -0.39688,0.20644 l -0.85989,-0.77711 0.79042,0.92605 c 1.33594,1.56514 2.34995,2.64583 2.4826,2.64583 0.0696,0 -0.13237,-0.27556 -0.44878,-0.61237 z m 35.93721,1.79469 c 0,-0.22285 -0.17791,-0.47345 -0.39535,-0.55689 -0.21745,-0.0834 -0.33298,-0.25265 -0.25673,-0.37601 0.0762,-0.12336 -0.19234,-0.40377 -0.59684,-0.62314 -0.51767,-0.28074 -0.59895,-0.40198 -0.27447,-0.40944 0.25354,-0.006 0.78295,0.35077 1.17647,0.79243 0.73481,0.8247 1.0156,1.57823 0.5881,1.57823 -0.13265,0 -0.24118,-0.18233 -0.24118,-0.40518 z m -1.11948,-2.7105 c -0.0877,-0.33538 -0.36369,-0.59165 -0.64168,-0.59584 -0.26829,-0.004 -0.83506,-0.36123 -1.2595,-0.79375 -0.85594,-0.87224 -0.58479,-1.09446 0.31388,-0.25723 0.3124,0.29104 0.67358,0.52917 0.80263,0.52917 0.39644,0 1.17148,1.0074 1.05164,1.36693 -0.0641,0.19216 -0.17979,0.0841 -0.26697,-0.24928 z M 17.13638,9.194 C 15.7112,8.30619 14.6072,7.51775 14.68304,7.44191 c 0.0759,-0.0758 1.19115,0.5298 2.47845,1.34587 1.2873,0.81607 2.53377,1.55791 2.76993,1.64854 0.23616,0.0906 1.07915,-0.0241 1.87331,-0.25499 0.79415,-0.23087 1.60418,-0.40755 1.80007,-0.39262 0.56299,0.0429 -2.47946,0.9977 -3.21572,1.00917 -0.3642,0.006 -1.82597,-0.71512 -3.2527,-1.60388 z M 2.66199,9.99529 C 2.66199,9.8328 2.45012,9.75526 2.19116,9.82298 1.52012,9.99846 1.07449,9.40317 1.07449,8.33129 c 0,-0.91127 0.0105,-0.91979 0.79424,-0.64657 0.88599,0.30886 1.31638,0.80005 0.84011,0.9588 -0.36151,0.12051 -0.42605,0.85347 -0.0752,0.85347 0.12995,0 0.3048,0.17859 0.38857,0.39687 0.0838,0.21828 0.037,0.39688 -0.10399,0.39688 -0.14095,0 -0.25628,-0.13295 -0.25628,-0.29545 z M 2.04347,8.37251 c -0.0734,-0.1819 -0.13345,-0.0331 -0.13345,0.33073 0,0.3638 0.0601,0.51263 0.13345,0.33073 0.0734,-0.18191 0.0734,-0.47956 0,-0.66146 z M 1.51982,8.12446 C 1.43532,7.91339 1.37266,7.97609 1.35996,8.28431 1.34846,8.56323 1.41106,8.7195 1.49893,8.63158 1.58683,8.54368 1.59623,8.31546 1.51983,8.12446 Z m 42.32898,1.98989 c -0.097,-0.097 -0.17639,-0.29942 -0.17639,-0.44979 0,-0.16579 0.12324,-0.15017 0.31309,0.0397 0.1722,0.1722 0.25158,0.37461 0.17639,0.4498 -0.0752,0.0752 -0.21608,0.0573 -0.31309,-0.0397 z M 42.86919,9.4535 c -0.30298,-0.59078 -0.29588,-0.59787 0.16125,-0.16125 0.263,0.2512 0.40562,0.52928 0.31693,0.61797 C 43.25867,9.99892 43.0435,9.79339 42.86919,9.4535 Z M 0.47918,9.60915 C 0.23499,9.3626 0.21391,6.21243 0.45488,5.9715 0.65997,5.76641 1.33912,6.2757 1.33912,6.63458 c 0,0.13629 -0.11329,0.17779 -0.25176,0.0922 C 0.94143,6.63658 0.8024,7.25181 0.75663,8.19034 0.71323,9.08087 0.58836,9.71933 0.47922,9.60914 Z M 47.91105,9.37109 C 47.72698,9.14929 47.35656,8.96782 47.0879,8.96782 46.77411,8.96782 46.65111,8.83315 46.74394,8.59124 46.9012,8.18144 45.93578,7.523 45.53808,7.7688 45.40604,7.8504 45.22188,7.6773 45.12884,7.38416 45.03584,7.09101 44.75933,6.84175 44.51448,6.83027 c -0.29891,-0.014 -0.33149,-0.0664 -0.0992,-0.15945 0.19033,-0.0762 0.54751,0.0292 0.79375,0.23431 0.24625,0.20508 0.77514,0.5124 1.17532,0.68294 0.40018,0.17054 0.7276,0.49122 0.7276,0.71262 0,0.2214 0.16402,0.40255 0.36448,0.40255 0.4059,0 1.10862,0.73177 0.90156,0.93883 -0.0728,0.0728 -0.2829,-0.0492 -0.46698,-0.27098 z M 4.10993,7.28184 C 3.82289,7.08215 3.20984,6.83649 2.74759,6.73592 1.99527,6.57224 0.8501,5.39985 1.1498,5.10015 c 0.0647,-0.0647 0.31506,0.18378 0.55641,0.55212 0.24135,0.36834 0.61063,0.66972 0.82061,0.66972 0.53251,0 2.25184,0.84547 2.25184,1.10733 0,0.289 -0.0605,0.27566 -0.66873,-0.14748 z M 5.7585,6.97513 C 5.48797,6.60343 5.01737,6.32199 4.66641,6.32199 4.32722,6.32199 3.90148,6.14339 3.72033,5.92511 3.53917,5.70683 3.11846,5.52824 2.78541,5.52824 c -0.67073,0 -2.1727,-1.56669 -1.75153,-1.82699 0.1416,-0.0875 0.31338,-0.51591 0.38175,-0.952 0.0827,-0.52773 0.1193,-0.38949 0.10934,0.41338 -0.008,0.66345 0.0727,1.34806 0.17977,1.52136 C 2.12093,5.3574 2.31412,4.94066 2.18907,3.63921 L 2.0584,2.27936 2.88936,2.77022 C 3.55221,3.16177 3.71231,3.42351 3.68068,4.06393 L 3.64108,4.86678 3.50969,4.07303 3.37829,3.27928 3.17883,3.94074 2.97936,4.60219 2.95296,3.89021 C 2.90796,2.6763 2.52971,2.86489 2.52971,4.10122 c 0,0.88329 0.0889,1.13418 0.36427,1.0285 0.20034,-0.0769 0.52776,-0.004 0.7276,0.16177 0.29487,0.24472 0.36334,0.14586 0.36334,-0.52461 0,-0.45438 0.13294,-0.82614 0.29543,-0.82614 0.29406,0 0.22273,0.74923 -0.15742,1.65364 -0.15988,0.38036 -0.0552,0.46302 0.58643,0.46302 0.71583,0 1.27681,0.39956 1.76447,1.25677 C 6.8143,7.91264 6.24417,7.64241 5.75851,6.97513 Z M 9.44548,6.18969 C 9.36128,5.97017 8.96433,5.79101 8.55728,5.78877 8.15253,5.78677 7.64277,5.65857 7.42449,5.50439 7.13154,5.29746 7.30346,5.27003 8.08108,5.39963 c 1.21504,0.2025 1.98925,0.5651 1.98925,0.93167 0,0.40142 -0.45614,0.29805 -0.62485,-0.14161 z m 4.5936,-0.0838 C 13.8208,6.03559 13.58267,5.90383 13.50991,5.81315 13.32971,5.58857 11.97535,4.73446 11.79943,4.73446 c -0.0779,0 -0.14915,0.32742 -0.15837,0.7276 l -0.0168,0.7276 -0.25608,-0.64072 c -0.17776,-0.44475 -0.16399,-0.69766 0.045,-0.82683 0.22344,-0.1381 0.22104,-0.23557 -0.009,-0.37795 -0.39981,-0.2471 -0.47873,-0.15409 -0.64438,0.75945 -0.21403,1.18031 -0.4246,1.15033 -0.4246,-0.0605 0,-0.93334 0.0828,-1.10243 0.53988,-1.10243 0.29693,0 0.86248,0.23339 1.25677,0.51865 0.39429,0.28527 1.22372,0.5764 1.84318,0.64696 1.25644,0.14313 1.65184,0.31894 1.65184,0.73448 0,0.17545 -0.15182,0.15537 -0.40327,-0.0533 -0.2218,-0.18407 -0.47977,-0.25818 -0.57327,-0.16469 -0.0935,0.0935 -0.0311,0.17 0.13869,0.17 0.16977,0 0.30868,0.0992 0.30868,0.22049 0,0.24621 -0.45738,0.28623 -1.05833,0.0926 z M 43.40783,5.07647 C 42.63671,4.60625 41.67188,3.41154 42.06325,3.41154 c 0.1472,0 0.39812,0.24382 0.55761,0.54183 0.15948,0.29801 0.58039,0.65225 0.93535,0.7872 0.35495,0.13496 0.64537,0.36738 0.64537,0.5165 0,0.31958 0.0423,0.32919 -0.79375,-0.1806 z M 9.33796,4.46987 c 0,-0.50932 0.0544,-0.71768 0.121,-0.46302 0.0666,0.25466 0.0666,0.67138 0,0.92604 -0.0666,0.25467 -0.121,0.0463 -0.121,-0.46302 z M 9.85732,4.60216 C 9.86232,4.1656 9.92202,4.01904 9.9891,4.27647 10.0562,4.5339 10.0518,4.89109 9.9791,5.07022 9.9066,5.24935 9.85174,5.03872 9.85713,4.60216 Z m 9.60572,0.11435 C 19.00586,4.42366 18.16443,4.19784 17.47866,4.18394 c -1.05059,-0.0213 -1.10543,-0.0498 -0.4663,-0.24222 0.8429,-0.25378 2.19944,0.1001 3.1322,0.8171 0.8369,0.64332 0.34078,0.61252 -0.68152,-0.0423 z M 4.77661,3.71143 C 4.26616,3.18269 3.51091,2.57519 3.09828,2.36143 2.68565,2.14768 2.48234,1.92802 2.64648,1.87331 3.00345,1.75432 5.72901,3.80684 5.93831,4.35227 6.17328,4.9646 5.77353,4.74408 4.77661,3.71143 Z m 1.341,-0.33896 C 5.62278,2.31977 5.41538,2.16048 3.78749,1.58292 2.80466,1.23422 1.82194,0.88541 1.60366,0.80778 c -0.35278,-0.12547 -0.35278,-0.086 0,0.3548 C 1.96556,1.61482 1.95782,1.64251 1.51586,1.4767 1.2493,1.3767 0.86235,1.29487 0.65597,1.29487 0.10915,1.29487 0.19512,0.76744 0.74377,0.75633 1.09716,0.74933 1.05017,0.65743 0.54534,0.36883 -0.58388,-0.27669 0.30247,-0.0719 3.10308,0.9598 5.68841,1.91218 5.81505,1.99589 6.35634,3.11002 6.6661,3.74761 6.86133,4.32749 6.79017,4.39865 6.71907,4.46985 6.41637,4.00802 6.11762,3.37247 Z M 0.49821,2.4855 C 0.32767,1.69268 0.41011,1.33606 0.69753,1.62346 c 0.0837,0.0837 0.11152,0.49051 0.0618,0.904 l -0.0904,0.75179 z"
     id="path4593" />
</svg>
