<?xml version="1.0"?>
<svg xmlns:rdf="http://www.w3.org/1999/02/22-rdf-syntax-ns#" xmlns="http://www.w3.org/2000/svg" xmlns:cc="http://web.resource.org/cc/" xmlns:dc="http://purl.org/dc/elements/1.1/" xmlns:sodipodi="http://inkscape.sourceforge.net/DTD/sodipodi-0.dtd" xmlns:svg="http://www.w3.org/2000/svg" id="svg1363" sodipodi:version="0.32" height="670pt" width="595.28pt" version="1.0" sodipodi:docname="Wolf.svg" sodipodi:docbase="C:\foo\wikipedia\transfer">
  <sodipodi:namedview id="base" bordercolor="#666666" borderopacity="1.0" pagecolor="#ffffff"/>
  <path id="path1372" d="m234.62 821.87c-3.39-0.94-10.32-3.33-15.4-5.31-7.92-3.09-16.31-3.6-58.58-3.56-35.2 0.04-50.69 0.78-54.08 2.6-3.57 1.91-6.11 1.97-10.228 0.27-6.07-2.51-9.824-2.67-35.215-1.49-11.839 0.55-22.599-0.34-33.45-2.78-16.756-3.76-24.041-8.23-24.041-14.75-0.0002-10.92 30.472-45.07 44.528-49.9 5.849-2.01 8.399-4.73 12.707-13.57 4.902-10.06 6.78-11.77 20.788-18.88 12.891-6.54 15.29-8.55 14.725-12.32-2.241-14.95-2.499-29.27-0.682-37.82 1.146-5.39 3.151-25.04 4.458-43.68 1.3-18.63 3.25-35.73 4.33-38 1.09-2.27 5.17-6.31 9.08-8.99 9.66-6.62 10.04-17.19 0.91-25.93-3.41-3.26-7.19-9.67-8.4-14.24s-4.97-12.85-8.36-18.39c-9.825-16.08-9.879-21.87-0.403-43.31 6.003-13.59 19.953-54.07 22.333-64.82 3.44-15.5 5.1-18.12 18.87-29.79 6.56-5.55 12.24-10.81 12.62-11.68 0.39-0.88 3.62-3.1 7.19-4.93 7.22-3.73 36.2-26.01 50.24-38.64 9.1-8.19 12.39-9.63 68.15-29.68 11.86-4.27 22.94-8.31 24.64-8.99 15.89-6.35 26.66-9.61 31.82-9.64 3.39-0.02 13.09-1.94 21.56-4.26s19.26-5.03 23.97-6.03c9.4-1.99 31.57-10.89 38.58-15.48 2.44-1.6 12.23-5.33 21.76-8.3 9.53-2.96 19.29-7.17 21.68-9.36 2.39-2.18 6.67-4.62 9.51-5.41 9.59-2.67 66.79-57.12 63.47-60.43-1.07-1.08-7.19 0.34-14.78 3.43-14.09 5.72-17.52 6.31-19.39 3.29-1.34-2.17 8.63-23.28 11.51-24.38 0.99-0.37 1.79-1.46 1.79-2.42 0-0.95 3.57-7.11 7.93-13.69 4.37-6.57 11.38-20.26 15.6-30.43 4.21-10.161 9.13-22.004 10.92-26.315 2.23-5.366 6.67-10.104 14.08-15.023 5.96-3.951 11.41-9.021 12.12-11.267 0.72-2.245 6.14-9.345 12.06-15.776s14.03-15.328 18.02-19.771c6.85-7.6116 7.67-7.9601 14.22-6.0446l6.95 2.0327-0.66 12.718c-0.6 11.305-0.24 12.718 3.18 12.718 2.12 0 4.96-1.109 6.31-2.464 4.87-4.871 6.45 0.972 4.27 15.816-1.16 7.902-3.05 17.428-4.19 21.169-1.83 6.002-1.47 21.763 1.4 60.957 2.01 27.34 3.89 40.4 7.41 51.33 2.18 6.78 4.86 15.16 5.95 18.62 2.67 8.43 2.55 27-0.18 28.68-1.2 0.75-3.88-0.18-5.96-2.06-2.07-1.88-4.21-2.66-4.75-1.74s-0.12 9.99 0.93 20.15c4.87 47.31 4.63 58.52-1.29 58.52-5.48 0-5.68 8.91-0.89 38.46 0.14 0.87 0.14 3.66 0.01 6.2-0.29 5.53-7.32 6.43-9.33 1.19-1.03-2.67-1.86-2.88-3.79-0.94-1.72 1.72-2.32 9.87-1.94 26.7l0.54 24.23-8.74 11.11c-4.82 6.11-9.92 12.33-11.35 13.82-1.42 1.5-2.67 3.81-2.78 5.14-0.1 1.33-0.46 7.5-0.81 13.71-0.34 6.21-2.06 18.68-3.82 27.72-4.55 23.35-7.19 37.19-9.77 51.33-1.23 6.78-5.04 23.87-8.47 37.98l-6.22 25.67 3.46 21.5c1.9 11.82 3.82 21.87 4.28 22.32 0.45 0.45 5.02 1.6 10.15 2.56s11.88 3.57 14.98 5.79c3.11 2.22 9.55 5.05 14.32 6.29 4.77 1.23 11.68 4.99 15.35 8.35 3.68 3.35 8.56 6.69 10.84 7.41s9.42 4.79 15.85 9.06c7.55 5.01 16.65 8.84 25.67 10.81 39.54 8.65 46.15 10.55 47.88 13.77 2.62 4.91 7 81.36 5.3 92.68-2.45 16.39-17.09 21.32-42.69 14.38-9.99-2.7-22.21-4.15-36.57-4.32-11.85-0.14-34.49-1.21-50.3-2.38s-61.09-2.61-100.61-3.19c-39.53-0.58-75.1-1.17-79.05-1.31-11.51-0.42-100.25 6.49-116.01 9.03-7.9 1.27-20.28 4.97-27.49 8.22s-14.25 5.91-15.63 5.91-5.77 2.22-9.76 4.93c-8.69 5.9-16.82 7.61-25.14 5.31zm-78.82-133.58c14.79-8.16 15.75-8.39 38.78-9.28 21.76-0.84 53.43-7 66.73-12.98 10.74-4.83 22.13-8.39 26.86-8.39 5.02 0 5.16 0.35 3.83 9.24-1.26 8.4-1 9.24 2.82 9.24 2.31 0 6.81-1 9.99-2.23 3.18-1.22 11.15-3.1 17.72-4.17 12.42-2.02 19.88-5.41 19.88-9.01 0-1.15-6.03-11.33-13.41-22.6-13.89-21.24-32.7-40.86-47.47-49.53-9.02-5.3-11.35-10.22-9.57-20.26 0.6-3.38 1.52-10.31 2.05-15.4 1.02-9.83 1.56-8.76-16.49-32.66-7.7-10.2-13.66-13.46-13.66-7.47 0 1.64-6.7 8.73-14.89 15.75s-15.54 14.42-16.34 16.46c-1.43 3.65 2.09 24.85 6.44 38.72 1.25 3.99 1.7 12.23 1.02 18.48-0.68 6.28-0.26 13.8 0.95 16.92 2.99 7.77 1.01 11.5-6.89 12.98-8.35 1.56-26.87-7.41-45.53-22.05-6.93-5.45-13.53-9.9-14.65-9.9s-7.48 5.82-14.13 12.93c-11.13 11.89-12.31 14.08-14.73 27.21-1.45 7.85-3.19 16.58-3.87 19.4-1.67 6.88-1.14 9.11 5.66 24.11 4.21 9.3 6.92 12.85 9.77 12.85 2.18 0 10.78-3.76 19.13-8.36zm276.67-34.67c3.78-1.09 10.22-4.55 14.31-7.7s9.77-6.2 12.62-6.77c7.16-1.43 7.98-12.56 1.96-26.56-4.59-10.67-4.45-24.36 0.31-30.09 1.12-1.36 5.85-14.34 10.51-28.85 7.69-23.94 8.56-28.83 9.38-52.72 1.02-30-0.42-43.63-4.8-45.31-1.67-0.63-7.68-0.08-13.36 1.23-11.79 2.72-14.05 1.81-35.78-14.34-18.12-13.48-31.62-18.8-51.13-20.15-12.83-0.88-18.26-2.26-23.81-6.02-5.27-3.57-11.39-5.24-22.89-6.27-14.23-1.27-15.9-1.03-17.83 2.58-2.79 5.23-1.79 11.94 3.47 23.24 2.37 5.08 4.33 11.92 4.35 15.2 0.05 6.16 8.65 26.5 13.61 32.16 2.38 2.71 2.37 5.28-0.03 16.76-1.56 7.46-3.93 16.88-5.27 20.93-1.34 4.06-2.04 8.53-1.56 9.93s-0.75 6.36-2.74 11.03c-6.94 16.3-5.15 24.63 7.44 34.64 4.26 3.39 8.91 7.08 10.33 8.21s5.56 7.6 9.19 14.37c3.64 6.78 8.85 16.48 11.57 21.56s5.83 9.36 6.9 9.5c1.06 0.14 3.09 0.38 4.5 0.53 1.42 0.16 6.53 4.07 11.36 8.69 7.68 7.34 9.64 8.25 15.5 7.15 5.21-0.98 8.25-0.11 13.68 3.89 7.84 5.79 8.62 5.93 18.21 3.18zm91.31-19.65c5.45-0.26 10.92-1.48 12.15-2.71 2.96-2.96-1.78-17.54-8.15-25.12-5.48-6.51-5.84-13.41-1.44-27.55 6.87-22.1 12.62-46.42 17.43-73.78 1.52-8.63 1.15-11.15-2.48-17.03-2.35-3.8-5.3-6.57-6.56-6.15-1.25 0.42-3.62 5.31-5.25 10.88-2.81 9.55-14.34 43.76-23.14 68.63-2.2 6.21-5.87 19.07-8.16 28.59-4.12 17.16-4.05 22.29 0.55 39.91 1.98 7.62 2.32 7.86 8.6 6.36 3.59-0.86 10.99-1.77 16.45-2.03zm-374.78-95.83c3.87-3.87 2.88-6.11-1.65-3.69-2.26 1.2-4.1 3.08-4.1 4.17 0 2.72 2.78 2.49 5.75-0.48zm9.56-28.19c0.65-1.05 0.34-2.43-0.69-3.07s-2.4 0.22-3.05 1.91c-1.28 3.33 1.81 4.28 3.74 1.16zm1.25-18.69c2.18-1.17 3.97-3.02 3.97-4.11 0-3.4-5.35-2.17-9.24 2.12-4.08 4.51-1.37 5.54 5.27 1.99zm1.78-23.38c1.99-2.4 1.67-2.72-1.8-1.82-2.32 0.61-4.22 1.92-4.22 2.92 0 2.77 3.31 2.16 6.02-1.1z"/>
  <metadata>
    <rdf:RDF>
      <cc:Work>
        <dc:format>image/svg+xml</dc:format>
        <dc:type rdf:resource="http://purl.org/dc/dcmitype/StillImage"/>
        <cc:license rdf:resource="http://creativecommons.org/licenses/publicdomain/"/>
        <dc:publisher>
          <cc:Agent rdf:about="http://openclipart.org/">
            <dc:title>Openclipart</dc:title>
          </cc:Agent>
        </dc:publisher>
        <dc:title>Wolf</dc:title>
        <dc:date>2006-10-23T07:12:40</dc:date>
        <dc:description>Silhouette of a wolf.</dc:description>
        <dc:source>http://openclipart.org/detail/837/wolf-by-liftarn</dc:source>
        <dc:creator>
          <cc:Agent>
            <dc:title>liftarn</dc:title>
          </cc:Agent>
        </dc:creator>
        <dc:subject>
          <rdf:Bag>
            <rdf:li>animal</rdf:li>
            <rdf:li>clip art</rdf:li>
            <rdf:li>clipart</rdf:li>
            <rdf:li>remix problem</rdf:li>
            <rdf:li>silhouette</rdf:li>
            <rdf:li>wolf</rdf:li>
          </rdf:Bag>
        </dc:subject>
      </cc:Work>
      <cc:License rdf:about="http://creativecommons.org/licenses/publicdomain/">
        <cc:permits rdf:resource="http://creativecommons.org/ns#Reproduction"/>
        <cc:permits rdf:resource="http://creativecommons.org/ns#Distribution"/>
        <cc:permits rdf:resource="http://creativecommons.org/ns#DerivativeWorks"/>
      </cc:License>
    </rdf:RDF>
  </metadata>
</svg>
