<?xml version="1.0"?>
<svg xmlns:rdf="http://www.w3.org/1999/02/22-rdf-syntax-ns#" xmlns="http://www.w3.org/2000/svg" xmlns:cc="http://web.resource.org/cc/" xmlns:xlink="http://www.w3.org/1999/xlink" xmlns:dc="http://purl.org/dc/elements/1.1/" xmlns:svg="http://www.w3.org/2000/svg" id="bird_on_a_cocktail_xA0_Image_1_" style="enable-background:new 0 0 232.56 219.12" xml:space="preserve" viewBox="0 0 232.56 219.12" version="1.1" y="0px" x="0px">
<g clip-rule="evenodd" fill-rule="evenodd">
	<path d="m190.8 0.24c-0.741 1.071-2.003 0.97-2.88 0.24-5.005 1.635-8.673 4.607-10.8 9.12-0.83-1.686 0.542-3.752 1.439-4.8 1.771-2.066 5.242-3.06 6.961-4.8 1.44 0.396 3.48 0.194 5.28 0.24z"/>
	<path d="m175.2 17.28c1.317 0.841 0.324 2.953 0.24 4.8-0.411 9.049-0.073 19.459-3.12 25.68-1.089-0.975 0.236-2.905 0.479-4.08 0.155-0.748 0.073-1.633 0.24-2.4 0.142-0.649 0.587-1.251 0.72-1.92 1.276-6.407 0.079-13.848 0.721-21.36-0.068-0.388 0.227-0.413 0.239-0.72h0.48z"/>
	<path d="m180.24 17.52h0.72c-0.386 8.497-0.858 18.979-4.08 25.44 1.702-6.097 2.922-16.244 3.12-24.72-0.07-0.387 0.23-0.413 0.24-0.72z"/>
	<path d="m186.24 18c-0.982 6.078-2.348 13.524-3.84 19.68-0.411 1.692-0.255 3.713-1.681 4.8 1.582-7.779 3.316-15.404 4.32-23.76 0.085-0.315 0.423-0.377 0.48-0.72h0.72z"/>
	<path d="m183.12 18.24c0.388-0.067 0.413 0.227 0.72 0.24-1.167 8.513-2.572 16.788-4.8 24.24 0.369-6.276 3.438-15.786 3.6-23.76 0.08-0.315 0.42-0.377 0.48-0.72z"/>
	<path d="m139.44 48.72c0.9-0.181 0.522 0.917 1.199 0.96 0.646 0.166 0.464-0.496 0.721-0.72 1.107 0.412 1.109 1.93 2.399 2.16 0.499-0.062 0.065-1.055 0.48-1.2 0.522 0.757 2.153 0.406 3.359 0.48 0.071 1.92-3.058 1.364-4.56 1.68-1.59 0.334-5.346 0.527-6.24-1.68 1.546-0.266 1.677 0.884 3.12 0.72-0.17-0.755-1.27-1.439-0.48-2.4z"/>
	<path d="m133.68 52.08c0.466-0.095 0.351 1.093-0.239 0.72v-0.48c0.2 0.044 0.23-0.093 0.24-0.24z"/>
	<path d="m159.84 53.28c1.281 0.479 2.708 0.812 3.12 2.16-0.9 0.036-2.62-1.014-3.12-2.16z"/>
	<path d="m150 53.52h0.72c0.258 0.623 0.152 1.607 0.721 1.92 0.618-0.342 0.359-1.561 1.199-1.68 0.955 0.819 0.719 0.405 2.16 0.24 0.077 0.563 0.379 0.901 0.24 1.68 1.121-0.078 1.156-1.244 2.4-1.2-0.404 1.356-1.328 2.192-2.881 2.4-0.33-0.309-0.237-1.042-0.239-1.68-1.316-0.196-1.068 1.172-1.681 1.68-0.521 0.041-0.108-0.851-0.239-1.2-0.771-0.051-0.585 0.856-0.96 1.2-0.524 0.043-0.764-0.196-0.721-0.72-0.898 0.334 0.227 1.45-0.479 2.16-1.431-0.65-1.231-2.928-2.16-4.08 1.263-0.143 1.113 1.127 1.44 1.92 0.55-0.493 0.01-2.073 0.48-2.64z"/>
	<path d="m128.4 53.76c-0.409 0.872-1.755 0.806-2.641 1.2 0.18-1.098 1.6-0.96 2.64-1.2z"/>
	<path d="m138 56.64c-1.591 0.474-4.569 1.634-4.32-1.92 1.74-1.437 4.08-0.174 4.32 1.92zm-0.96-0.72c-0.537-0.663-1.384-1.016-2.64-0.96 0.06 1.265 1.8 1.853 2.64 0.96z"/>
	<path d="m146.4 54.72c1.186 0.814 1.896 2.103 2.399 3.6-1.93-0.067-2.05-1.948-2.4-3.6z"/>
	<path d="m141.12 57.84c0.849-0.045 1.188 1.142 0.72 1.68-0.62-0.182-0.83-0.766-0.72-1.68z"/>
	<path d="m128.16 65.76c1.166 0.538 0.518 2.209 0.96 3.84-0.54-1.062-0.65-2.552-0.96-3.84z"/>
	<path d="m151.44 68.4c0.387-0.068 0.413 0.227 0.72 0.24 0.557 2.003 1.54 3.579 2.399 5.28-1.94-0.938-2.37-3.389-3.12-5.52z"/>
	<path d="m139.44 76.08c1.269 0.171 2.093 0.786 2.399 1.92-1.01 1.74-3.31-0.342-2.4-1.92z"/>
	<path d="m180.72 98.16c0.074-0.326 0.602-0.199 0.96-0.24-0.07 0.556-0.64 0.552-0.96 0.24z"/>
	<path d="m136.32 98.4c0.029-0.53 1.018-0.102 1.439-0.24-0.03 0.53-1.02 0.102-1.44 0.24z"/>
	<path d="m130.8 98.88c-0.663 0.537-1.902 0.498-3.12 0.48 0.84-0.365 1.97-0.434 3.12-0.48z"/>
	<path d="m118.32 100.56c-1.39 0.851-3.752 0.728-5.28 1.44 0.8-1.44 3.52-0.96 5.28-1.44z"/>
	<path d="m144.48 100.56h0.72c-0.715 0.933-2.751 0.409-4.32 0.48-3.971 0.18-8.095 0.867-12 0.96 4.56-1.12 10.42-0.94 15.6-1.44z"/>
	<path d="m128.4 102c-3.009 0.832-6.616 1.064-10.08 1.44 3.12-0.72 6.6-1.08 10.08-1.44z"/>
	<path d="m132.24 103.2c0.762 0.202-0.426 0.317-0.72 0.24-1.102 0.855-1.023 1.506 0.96 1.2 0.312 0.329-1.748 0.321-2.4 0.48 0.046-0.194 0.241-0.239 0.24-0.48-2.563-0.364-4.863-0.074-6.721-0.24 1.11-1.29 5.93-0.75 8.64-1.2z"/>
	<path d="m118.08 103.44c-0.055 0.346-0.717 0.083-0.72 0.48-0.77-0.27 0.23-0.68 0.72-0.48z"/>
	<path d="m122.4 104.88c-1.862 0.048-3.603-0.572-5.28 0 0.39-1.1 4.91-1.2 5.28 0z"/>
	<path d="m113.04 104.88c-0.567 1.506-2.958 0.137-4.08 0.72 0.06-1.44 3.05-1.04 4.08-0.72z"/>
	<path d="m125.28 105.6c0.749-0.851 2.535-0.664 4.08-0.72 0.594-0.03 0.408 0.294 0 0.24-1.42 0.1-2.84 0.21-4.08 0.48z"/>
	<path d="m107.28 105.36c-0.495 1.307-4.05 0.695-5.28 0.48 0.49-1.31 4.05-0.69 5.28-0.48z"/>
	<path d="m145.44 105.6c1.203-0.557 3.438-0.083 5.04-0.24-1.2 0.56-3.44 0.08-5.04 0.24z"/>
	<path d="m98.64 106.08c-1.033 1.208-4.557-0.077-6 0.72 0.553-1.53 4.439-1 6-0.72z"/>
	<path d="m125.04 107.52c0.951-1.208 3.686-0.634 5.52-0.96 0.888 0.153 2.392-0.311 2.881 0.24h-3.12c-1.66 0.34-3.86 0.14-5.28 0.72z"/>
	<path d="m115.92 107.28c0.807-0.246 0.374 0.747 0.48 1.2-0.83 0.17-0.86-0.84-0.48-1.2z"/>
	<path d="m168.96 108c1.156 0.892-0.506 4.251 0.48 5.76 1.488-0.591 0.315-3.844 0.96-5.28 1.48 0.742 0.058 2.949 0.479 4.8 4.461-0.027 8.617-2.417 12.96-3.36-0.425 1.015-1.792 1.088-2.399 1.92-2.059 0.021-3.539 0.622-4.801 1.44-10.182 1.841-21.523 3.725-32.88 3.6-1.051-0.175 0.193 0.477-0.479 0.48-2.667-1.591-6.54 0.246-10.8-0.24 2.005-1.107 5.624 0.105 7.199-0.96-4.479-0.319-10.224 0.176-14.88 0.479 1.371 0.887 4.148-0.104 6.48 0.24-6.678 1.048-14.394 0.385-22.56 0.72-1.388 0.058-2.824 0.11-4.08 0-0.533-0.047-0.327-0.38-0.72-0.479-0.955-0.242-1.807 0.314-2.64 0-0.005-0.965 1.924 0.004 1.92-0.96 0.802 0.66 1.649 0.356 2.88 0.239 11.268-1.07 23.331 0.185 35.28-0.72 0.512-0.112 0.457 0.343 0.479 0.72 1.186-0.334 2.807-0.233 4.32-0.239 1.297-0.543 0.29-3.39 0.96-4.561 0.776 0.929-0.853 3.579 0.479 4.32 0.77-1.047 0.186-3.1 0-4.56 0.679-0.199 0.622 0.338 1.2 0.239 0.106-0.453-0.326-1.446 0.48-1.2-0.525 1.315-0.105 3.575-0.24 5.28 5.475 0.354 11.601-0.719 16.8-1.439-0.384-1.922-0.522-3.763 0-5.76 0.853 1.06-0.386 4.815 1.2 5.76 1.329-1.041-0.464-3.853 0.24-5.041 1.25 0.59 0.528 3.152 0.72 4.8 1.31-0.73-0.12-4.48 0.96-6zm-20.64 6.24c-0.44 2.72 1.07 0.64 0 0zm-32.64 2.64c-0.349-0.371-1.229-0.211-1.92-0.24-0.831 0.369-2.188 0.213-3.36 0.24-0.255-0.011-0.609 0.113-0.24 0.24 3.142-0.299 7.49 0.61 9.84-0.48-1.64 0.3-2.77-0.26-4.32 0.24zm6 0.24c0.816 0.017 1.675 0.074 1.92-0.48-0.6 0.2-2.07-0.47-1.92 0.48z"/>
	<path d="m172.32 108c1.168 0.627-0.231 2.576 0.239 4.08-1.45-0.29-0.55-3.28-0.24-4.08z"/>
	<path d="m164.64 109.2c0.319 0.505 0.263 3.769-0.479 4.081-0.03-1.55 0.41-2.63 0.48-4.08z"/>
	<path d="m152.64 109.44c0.279-0.039 0.428 0.053 0.48 0.24-0.046 1.795 0.155 3.836-0.24 5.28-1-1.38-0.29-4.06-0.24-5.52z"/>
	<path d="m155.52 109.44h0.72c0.484 1.49 0.009 2.515 0.24 4.08-1.47-0.21-0.28-3.08-0.96-4.08z"/>
	<path d="m68.16 109.92c-0.252 0.569-2.446 1.296-2.4 0 0.595-0.21 1.861-0.47 2.4 0z"/>
	<path d="m151.2 109.68c1.062 0.778 0.601 3.079 0.72 4.8-1.48-0.36-0.38-3.3-0.72-4.8z"/>
	<path d="m153.84 109.92c0.279-0.039 0.427 0.053 0.48 0.24-0.067 1.827-0.009 3.528 0.479 4.8-1.52-0.36-1.31-3.6-0.96-5.04z"/>
	<path d="m65.28 110.16c-0.456 1.647-2.544 0.288-3.84 1.2-0.585-1.31 2.245-1.27 3.84-1.2z"/>
	<path d="m162.24 110.16c0.836 0.123 0.352 1.567 0.479 2.399-0.86-0.06-0.93-1.78-0.48-2.4z"/>
	<path d="m159.36 110.4c1.067 0.139 0.038 1.821 0 2.4 0.139 0.488-0.164 1.892-0.24 0.72-0.14-1.26 0.18-2.06 0.24-3.12z"/>
	<path d="m149.76 110.88c1.21-0.189 0.968 3.11 0.721 4.56-1.09-0.82-0.07-3.94-0.72-4.56z"/>
	<path d="m157.2 110.64c0.919 0.378-0.145 2.664 0.24 4.08-0.79-1.17-0.08-2.34-0.24-4.08z"/>
	<path d="m115.92 112.08c1.04 0.1-0.25 1.39 0 0z"/>
	<path d="m117.6 112.56c0.989-0.113-0.23 0.646 0.721 0.721 5.212-0.178 13.581 0.157 18.96 0.479-1.826 0.353-4.18 0.649-5.76 0-3.306 0.654-9.298 0.026-14.16 0.24-7.11 0.312-17.06 1.44-23.28 0.96-0.635-0.049-1.059-0.445-1.68-0.48-1.503-0.083-3.318 0.197-4.8 0 1.105-0.954 2.603-0.252 3.84-0.239 7.467 0.077 16.048-0.759 24.24-0.721 0.81-0.15 1.07-0.85 1.92-0.96z"/>
	<path d="m177.84 115.2c0.296 0.104 0.493 0.307 0.48 0.72-0.526 0.514-1.421 0.66-1.92 1.2 0.475 0.688 1.497-0.083 2.159 0-0.005 1.354-1.871 0.848-2.159 1.92 0.066 0.504 0.641-0.348 0.96 0.24-1.244 1.556-3.688 1.911-5.28 3.119-0.248 2.182-3.389 3.254-5.521 4.32 0.33-1.75 2.32-1.84 3.601-2.64 0.174-2.387 2.491-2.629 4.08-3.601 0.03-0.43-0.294-0.506-0.24-0.96 0.632-0.487 1.415-0.824 2.16-1.199-0.636-0.695-1.54 0.37-1.92-0.48 0.82-1.27 2.77-1.39 3.6-2.64z"/>
	<path d="m151.92 119.52c-0.72-0.76 1.62-0.46 0 0z"/>
	<path d="m98.4 121.2c-1.274 0.528-3.968-0.167-5.76-0.48-0.95-0.166-0.667-0.273 0.24-0.24 0.344 0.01 3.789 0.59 5.52 0.72z"/>
	<path d="m140.4 120.48c-0.53 0.73-1.54-0.28 0 0z"/>
	<path d="m149.76 120.72c-0.04-0.521 0.852-0.108 1.2-0.24 0.04 0.52-0.85 0.11-1.2 0.24z"/>
	<path d="m110.64 120.96c0.489-0.551 1.993-0.087 2.88-0.24 0.559 0.421-1.629 0.115-1.92 0.48-0.07-0.33-0.6-0.2-0.96-0.24z"/>
	<path d="m101.04 121.92c-0.534 0.437-3.174-0.495-1.92-0.48-0.277 0 1.38 0.21 1.92 0.48z"/>
	<path d="m130.8 121.68c0.104-0.536 1.183-0.097 1.681-0.24-0.1 0.54-1.18 0.1-1.68 0.24z"/>
	<path d="m143.28 121.68c-0.868 0.99-2.471 0.534-3.84 0.72-1.917 0.262-4.211 1.332-6.24 0.48 3.06-0.54 7.11-1.37 10.08-1.2z"/>
	<path d="m167.52 121.92c-0.833 0.792-2.327 1.58-3.601 2.16-3.679 1.675-8.617 2.429-12.72 4.08-1.312 0.528-2.67 1.671-4.8 1.68 0.436-1.586 2.483-1.686 3.84-2.16 1.383-0.484 2.885-0.958 4.319-1.439 2.862-0.961 6.363-1.578 8.641-2.88 0.474-0.271 1.082-0.474 1.2-1.2 1.17 0.2 2.21-0.98 3.12-0.24z"/>
	<path d="m96.24 123.84c-0.527 0.73-1.537-0.28 0 0z"/>
	<path d="m98.88 124.56c-0.729 0.468-2.362 0.03-2.4-0.239-0.066-0.48 1.708-0.03 2.4 0.24z"/>
	<path d="m90.96 125.28c-1.848 0.59-2.537-0.67 0 0z"/>
	<path d="m147.12 125.28c0.295 0.104 0.493 0.307 0.479 0.72-1.046 0.313-1.995 0.725-3.359 0.72 0.04-1.4 2.19-0.69 2.88-1.44z"/>
	<path d="m93.36 126.24c0.475-0.689 1.498 0.083 2.16 0-0.501 0.72-1.262-0.32-2.16 0z"/>
	<path d="m168 126.96c-1.352 2.088-4.035 2.845-6 4.32-0.355 0.277-0.604 0.277-0.96 0 2.06-1.7 4.35-3.18 6.96-4.32z"/>
	<path d="m104.4 145.92c0.074-0.326 0.601-0.199 0.96-0.24-0.07 0.33-0.6 0.2-0.96 0.24z"/>
	<path d="m181.2 185.28c-0.976 0.95-2.361 0.225-3.601 0.239-2.663 0.033-5.747 0.791-8.64 1.2-1.494 0.212-2.928 0.015-4.08 0.24-0.908 0.178-1.635 1.237-2.399 0.479 1.301-1.611 5.044-1.752 7.92-1.92 3.5-0.2 7.68-0.54 10.8-0.24z"/>
	<path d="m53.52 185.52c-0.527 0.73-1.537-0.28 0 0z"/>
	<path d="m161.52 188.64c-6.226 1.296-14.011 2.31-19.921 3.12 0.569-1.802 3.027-1.26 4.561-1.439 4.495-0.527 8.371-1.559 13.2-1.92 0.66-0.05 1.81-0.87 2.16 0.24z"/>
	<path d="m6.24 188.88c0.798 0.241 2.61-0.53 2.64 0.48-0.798-0.24-2.61 0.53-2.64-0.48z"/>
	<path d="m200.88 191.28c-1.219 1.07-3.022 0.104-4.56 0-1.893-0.128-3.871-0.062-5.761 0-5.386 0.174-10.939-0.021-15.119 0.96 6.028 0.283 11.721 1.3 18.239 1.68 0.55 0.25 0.667 0.933 1.2 1.2 5.557 0.364 10.286 1.554 15.12 2.64 0.94 0.423 0.592 1.044 1.2 1.44 5.663-0.187 10.047-0.183 15.6-0.48 0.651 0.069 1.132 0.309 1.44 0.72 0.604-0.936 3.013-0.825 2.88 0.961-1.458 0.741-0.991-0.622-2.16-0.721-0.73-0.091-0.407 0.873-0.96 0.96-4.05 0.564-8.896-0.32-13.2 0-1.459 0.109-3.113 0.204-4.319 0.48-0.89 0.203-1.796 1.131-2.641 1.2-1.425 0.116-3.255-0.666-3.84-1.92 0.961-1.056 2.724-0.01 3.6 0.479 1.161-0.278 1.666-1.215 2.881-1.44-3.151-1.379-6.97-1.705-10.561-2.399-3.691-0.714-7.388-1.379-11.04-1.92-1.11 0.181-0.333-0.917-0.72-0.96-5.372-0.597-11.995-1.484-18.48-1.44-2.729 0.019-5.581 0.161-9.12 0-1.585-0.072-3.771 0.189-4.56-1.2 5.154 0.007 10.15 1.515 14.64-0.239 2.82 1.069 7.171-0.023 11.761-0.48 4.126-0.41 8.196-0.158 11.76-0.24 2.25-0.05 4.84-0.72 6.72 0.72z"/>
	<path d="m109.44 191.52c-0.054 0.346-0.716 0.084-0.72 0.48-0.592 0.031-1.157 0.036-1.44-0.24-0.398 0.402-1.409 0.191-2.16 0.24 1.14-0.36 3.35-0.73 4.32-0.48z"/>
	<path d="m43.92 195.6c0.074-0.325 0.601-0.199 0.96-0.239-0.074 0.33-0.601 0.2-0.96 0.24z"/>
	<path d="m10.8 198.24c0.058-0.348 1.976-0.559 1.68 0.239-0.757 0.12-0.848-0.43-1.68-0.24z"/>
	<path d="m165.6 198.96c-0.71 1.879-3.242 0.451-4.56 1.68 4.579 0.787 10.885 0.202 15.84 0.24 0.187 0.533 0.504 0.936 0.48 1.68-0.694 1.367-3.588 1.481-5.04 0.721-0.741-0.77 0.563-0.847 0.479-1.681-4.932-0.246-9.933 0.988-13.439-0.72 0.728-1.271 3.101-0.899 4.56-1.44-0.567-1.091-1.646-0.463-2.64-0.479-5.429-0.092-12.213 0.368-16.8 0 0.792-1.282 3.317-0.72 5.279-0.72 5.77 0 10.93-0.61 15.84 0.72zm7.68 3.84c1.004 0.229 2.728 0.529 2.88-0.72-1.26-0.07-2.3 0.1-2.88 0.72z"/>
	<path d="m232.56 199.68v0.96c-0.321-0.157-0.446-0.513-0.479-0.96h0.48z"/>
	<path d="m29.04 201.36c-1.104 0.575-2.561 0.799-4.08 0.96 0.959-0.72 2.485-0.88 4.08-0.96z"/>
	<path d="m186.96 204c-1.732-0.028-3.261-0.259-4.08-1.2 1.05-1.39 4.09-0.61 4.08 1.2z"/>
	<path d="m187.44 206.64c-0.673 1.413-4.269 1.486-5.28 0.48 0.74-1.56 3.73-0.81 5.28-0.48z"/>
	<path d="m51.6 209.04c-9.454-0.009-19.862 0.444-29.76 0.72-1.042 0.718-1.212 2.309-3.36 1.92-0.12-1.653 1.3-0.286 1.92-1.2-1.153-1.081-3.957-0.075-5.04-0.239 1.038-1.361 3.102-0.792 5.52-0.96 7.663-0.534 17.248-1.054 26.16-0.96 1.57 0.02 3.637-0.35 4.56 0.72z"/>
	<path d="m46.08 211.92c-0.175 0.488-0.722 0.98-1.2 0.48-0.733 2.216-4.701 2.025-6 0.479 0.691-1.747 3.749-2.74 5.04-1.2 0.874-0.08 1.562 0.04 2.16 0.24zm-6 0.72c0.641 0.902 2.988 0.583 2.88-0.72-0.798-0.44-2.864-0.39-2.88 0.72z"/>
	<path d="m38.4 212.88c-1.142 1.208-5.938 0.949-7.44 0.24-0.088-0.408 0.188-0.453 0.48-0.48 2.256 0.14 5.099-0.3 6.96 0.24z"/>
	<path d="m142.56 217.68c-0.198 0.679 0.339 0.622 0.24 1.2-0.657-0.383-1.184-0.896-1.92-1.2 0.58-0.92 0.71 0.11 1.68 0z"/>
	<path d="m126 217.44h1.68v0.961c-0.74-0.14-1.7-0.06-1.68-0.96z"/>
	<path d="m138.24 217.44c-0.027 0.613-0.804 0.477-1.44 0.48-0.23-0.87 0.94-0.34 1.44-0.48z"/>
	<path d="m119.76 96.72c-3.446-0.936-7.093-0.215-10.8 0-11.146 0.646-23.269 2.261-34.32 3.84-4.919 0.703-9.844 0.906-13.2 2.64-0.852-1.184-2.589-0.403-3.84 0 0.574 2.466 0.569 5.511 2.4 6.72 1.038 5.522 4.779 8.341 7.2 12.479 6.635 5.631 12.388 12.037 20.16 16.801 1.087 0.666 2.092 1.666 3.12 2.16 1.578 0.758 3.603 0.935 5.28 1.68 0.827 0.367 1.636 0.848 2.4 1.2 1.624 0.749 3.311 1.767 5.04 2.399 0.957 0.351 2.047 0.374 3.12 0.721 0.257 0.083 0.444 0.609 0.72 0.72 1.163 0.464 2.67 0.25 3.84 0.72-0.171-1.269-0.99-1.89-2.4-1.92 2.5-1.22-6.043-2.61-7.44-2.4 0.204 0.356 0.604 0.517 1.2 0.48-0.731 0.559-2.423 0.032-2.4-0.96 2.52-0.241 5.708 0.607 8.16 1.2-1.433-1.701-4.054-1.692-6.24-2.4-2.104-0.682-4.084-1.81-6-2.4-0.209-0.769 0.37-0.75 0.72-0.959-1.488-1.073-4.132-0.989-5.28-2.4-0.017-1.18 1.509 0.094 1.68-0.48-2.026-1.573-6.646-0.553-7.44-3.359 1.355-0.296 2.497 0.565 3.36 0-2.038-1.482-5.853-1.188-7.92-2.641 0.256-0.544 0.728-0.872 1.44-0.96-1.284-0.476-2.724-0.796-3.6-1.68 1.08-1.757 4.682 0.272 7.2-0.24-1.667-1.372-4.644-1.436-7.44-1.68-0.775-1.064-3.167-0.513-3.6-1.92 2.919-0.578 5.832 0.873 9.12 0.72-2.482-2.158-7.992-1.288-11.28-2.64 1.592-2.471 5.792 0.478 9.36-0.24-0.228-0.784-1.369-0.599-1.92-0.72-1.652-0.365-4.371-0.338-6.48-0.96-0.17-0.051-0.195-0.413-0.48-0.48-1.604-0.377-3.377-1.422-5.04-1.68 1.85-0.978 4.674 0.76 7.2 1.2 1.207 0.21 3.063 0.685 3.84-0.48-1.444-0.557-3.219-0.781-5.28-0.72v-0.96c-4.18-0.939-9.646-0.595-11.76-3.601 1.12-0.689 1.693 0.946 2.88 0.96 3.513-0.684 7.33 1.424 11.52 1.92 1.052 0.125 2.103-0.094 3.12 0 1.317 0.123 2.537 0.759 3.84 0.961 2.402 0.371 4.974 0.116 7.68 0.239 14.617 0.664 29.284 1.539 44.399 0.24 0.594 0.379-1.414 0.166-1.68 0.48 7.787 0.339 17.136-0.672 24.48-1.2-0.48 0.506-1.287 0.812-1.92 0.96-0.342 0.079-1.067 0.192-1.44 0.24-2.559 0.322-5.758 0.925-8.16 0.96-0.699 0.01-1.449-0.44-2.16-0.48-1.192-0.067-2.398 0.39-3.6 0.48-2.68 0.201-5.461-0.059-7.92 0.479-0.776 0.297-0.184-0.776-0.96-0.479-0.947-0.308-0.581 0.699-1.2 0.72-0.704-0.121-0.138-0.454-0.96-0.72-7.314 0.722-15.247 0.568-22.08 1.199 0.179 0.542 1.346 0.095 1.92 0.24-2.706 0.844-7.692 0.067-12 0-0.457-0.473 1.925-0.143 2.64-0.24-5.341-0.818-11.218-1.102-16.8-1.68 1.144 1.173 4.162 0.652 6.24 1.44 0.765-0.185 1.822 0.292 0.48 0.239-0.904 0.185-1.147-0.292-1.92-0.239-0.362 0.705 0.524 1.369 1.92 1.439-0.034-0.687-1.001-0.438-1.68-0.479 2.368-0.354 6.103 0.785 9.6 1.199 1.996 0.237 4.489-0.267 5.28 1.2-5.698-0.508-11.92-1.344-17.04-1.68 0.176 0.224 0.436 0.363 0.72 0.479-0.286 0.406-1.626 0.028-0.96-0.72-0.904 0.185-1.147-0.293-1.92-0.24 0.158 0.322 0.513 0.447 0.96 0.48-0.809 0.192-1.84 0.026-2.88 0.479 0.776 1.198 2.425 0.804 3.6 0.961 4.549 0.608 9.546 1.652 14.16 2.159 0.489-0.199-0.76-0.657-1.2-0.72 1.413-0.368 3.927 0.229 5.04 0.96-1.575 0.787-3.803 0.422-5.52 0.24-3.728-0.394-7.523-1.433-11.52-1.68 0.363 0.356 1.053 0.386 1.68 0.479-0.677 0.583-2.255 0.025-2.4-0.72-0.87-0.229-0.244 1.036-0.72 1.2 2.604 1.235 6.887 0.793 9.84 1.68 0.261-0.06 0.163-0.478 0.48-0.48 1.378 0.067 2.831 0.464 4.32 0.721 1.309 0.226 3.231 0.046 3.84 1.199-4.759 0.032-10.36-1.153-15.36-1.68-0.306 0.946 0.657 0.623 0.96 0.96-0.206 0.522-2.572-0.761-2.4 0.72 3.583 0.577 7.124 1.197 11.04 1.44-0.751-0.289-1.509-0.571-2.4-0.72 1.77-0.167 4.802 0.476 6.48 1.2-0.432 1.677-4.326-0.044-5.52-0.24-3.165-0.521-6.885-0.316-10.08-0.72 4.419 1.9 10.761 1.879 15.36 3.6-1.384 1.092-3.159 0.031-4.56-0.24-2.927-0.567-5.525-0.79-8.88-0.96 4.149 1.852 9.955 2.046 14.16 3.84-0.485 0.904-1.835 0.154-2.64 0-2.114-0.404-5.218-1.229-7.68-1.439 2.028 0.814 5.251 2.248 7.92 3.12 0.856 0.279 2.231-0.081 2.64 0.96-2.079 0.823-5.336-0.966-8.4-0.721 3.613 1.987 8.002 3.198 12.48 4.32-0.206-2.262 0.431-4.575 1.68-6.479 1.183-1.803 4.269-4.223 6.48-4.561 2.471-0.378 4.407 0.69 6.96 1.2 0.983 1.256 1.433 3.047 2.159 4.56 5.769-1.352 9.377-4.863 11.521-9.84 0.714 0.566 2.275 0.285 3.12 0.721-0.08 0.839-0.945 0.83-1.44 1.199-1.959 1.46-3.543 3.353-5.279 5.04-0.063 0.703 0.542 0.737 0.479 1.44-0.586 0.608-0.512-0.506-1.439-0.24-1.553 0.849-2.71 2.091-4.561 2.64 1.856 1.25 1.794 3.819 0.96 6.24 1.023 0.593 2.333-0.307 3.84 0 0.948-0.076-0.178-0.743 0.48-0.96 4.455-1.385 9.613-2.066 14.16-3.359-2.613-1.037-6.376 0.992-9.12 0.479 0.332-1.499 2.311-1.2 3.359-1.44 3.772-0.862 7.889-1.966 11.521-2.88-3.203-0.481-6.516 1.003-9.601 1.44 0.01-1.818 2.414-1.819 3.601-2.16 4.254-1.223 9.412-2.35 13.2-4.08-5.1-0.682-9.093 1.946-13.44 1.68 0.469-1.583 2.557-1.506 3.84-1.92 3.81-1.227 8.48-2.725 12.48-4.08-1.665-0.62-3.585 0.573-5.521 0.48 1.774-0.845 4.889-1.432 6.96-1.2-0.115 1.314-1.933 1.558-2.88 1.92-3.043 1.165-6.979 2.202-10.319 3.36 2.879 0.237 7.109-1.528 10.56-0.72-0.776 1.904-3.699 2.064-5.76 2.64-2.132 0.595-4.315 1.391-6.24 1.92 1.699 0.627 4.455-0.943 6.48 0-3.199 2.321-8.94 2.101-12.721 3.84 1.083 0.345 3.734-0.88 5.04 0.24-0.22 1.335-2.126 0.903-3.359 1.2-0.95 0.229-3.027 0.752-4.32 1.2 1.338 0.805 3.619-0.633 5.04 0.239-1.669 1.291-4.602 1.318-7.2 1.681-0.246 0.806 0.746 0.373 1.2 0.479-3.764 0.557-8.425 0.215-11.521 1.44 4.046 0.166 9.12 0.465 13.681-0.721-0.15-0.569-1.478 0.038-1.681-0.479 2.822 0.479 5.575-0.832 8.88-2.4 5.995-2.845 12.479-6.044 17.28-9.84 3.449-2.727 6.412-5.943 9.601-8.64 3.37-2.851 6.355-6.017 8.399-9.601-4.281-0.52-7.043 2.557-11.76 2.4-0.703 0.203 0.144 0.772 0 1.2-1.161 0.199-2.037 0.683-3.36 0.72 0.174-0.546 1.369-0.071 1.2-0.96-0.361-1.038-1.504 0.11-2.64-0.24 5.904-1.135 11.357-2.722 17.04-4.08 1.82-2.058 2.997-5.064 4.319-7.68 0.396-0.781 0.397-2.126 1.44-2.4 0.365 2.868-1.575 5.244-2.64 7.44-1.174 2.421-2.333 4.659-3.841 6.72-2.988 4.087-6.948 7.324-10.56 10.561-7.416 6.645-15.51 13.11-24.24 18 0.62 0.758 1.504-0.24 2.16-0.24-1.344 1.381-3.309 1.147-5.04 1.68-1.593 0.49-2.984 1.567-4.56 2.16-4.306 1.62-9.057 1.828-14.641 2.64 0.2 1.447 2.896 0.534 3.601 0.24 0.763 0.518 1.444 1.115 2.64 1.2-0.73 1.784-3.639 2.96-6 3.36-3.078 0.521-6.486-0.735-8.88-2.16-0.031-0.592-0.036-1.156 0.24-1.44-3.864-1.003-9.858 0.717-12.48-1.92 4.898 1.422 12.361 1.584 17.76 0.48-1.792-0.96-6.173-0.516-7.439 0-1.183-1.138-3.77-0.87-5.76-1.2 0.628 0.572 1.844 0.556 2.64 0.96-10.39-0.746-19.081-5.881-26.88-10.561-0.858-0.515-1.976-0.728-2.64-1.199-2.05-1.457-2.874-4.211-5.28-5.04 3.377 4.062 7.341 7.539 12 10.319-1.756-0.236-3.426-1.379-4.8-2.399-7.004-5.201-12.941-12.508-18.96-18.96 1.828 4.972 6.627 9.052 9.6 13.68-1.947-0.899-2.729-2.985-4.08-4.56-0.688-0.802-1.736-1.327-2.4-2.16-1.431-1.798-2.639-4.075-4.08-6.24-0.761-1.144-1.47-2.245-2.16-3.36-1.416-2.286-2.363-4.903-4.32-6.72 0.444-0.462 0.439-0.189 0.24-0.96-1.286-3.553-3.714-7.849-2.4-12.48 1.193-0.901 2.253-0.786 4.32-0.96 3.736-0.315 7.623-1.414 11.76-1.92 12.194-1.491 25.605-2.605 38.88-3.36 6.62-0.376 13.514-0.387 19.92-1.44 0.009 0.969-1.709 0.21-1.92 0.96 4.919 0.337 11.812 0.148 17.28 1.2-1.071 0.848-2.843 0.161-4.32 0.24-3.341 0.179-8.58-0.121-12.96 0 0.63 0.921 2.065 0.463 2.88 0.48 5.015 0.103 9.902-0.017 14.641 0.72 1.085-2.115 2.665-3.734 4.8-4.8 0.755-0.035 0.824 0.616 0.96 1.2 0.946 0.066 0.733-1.026 1.68-0.96 0.328 0.473 0.229 1.371 0.48 1.92 3.545-2.935 6.231-6.729 8.64-10.8-3.386-0.01-5.021 3.54-8.16 4.8-2.809 1.127-7.815 1.866-11.76 0.96-1.329-1.871-4.041-2.359-4.32-5.28-0.596-0.443-0.966-1.114-1.68-1.44-3.153 3.631-8.485 1.208-10.8-1.2v-1.2c-1.069 0.029-1.488-0.592-2.4-0.72-0.957-1.467-2.61-3.437-1.92-5.76-1.207-1.622-0.585-4.959-1.439-7.2-0.715-1.874-1.691-5.708-0.721-7.68 0.272-0.553 0.889-1.048 1.2-1.68 0.36-0.732 0.455-1.765 0.72-2.16 1.547-2.302 4.524-3.147 7.92-3.6 0.533-0.267 0.65-0.95 1.2-1.2 3.258-0.058 4.326 2.074 6 3.6-1.32 0.674-1.594-1.761-3.6-1.2 0.168-0.888-0.842-0.599-1.2-0.96-1.009 0.299-1.344 1.049-2.64 0.48-0.828 0.292-1.447 0.793-1.92 1.44-2.08-0.68-3.333 1.438-4.801 2.16-0.253 0.706-0.33 1.59-0.72 2.16 0.215 0.774-0.782 0.337-0.96 0.72-0.343 1.392 0.311 2.093 0.24 3.12 0.149 0.825 1.291 0.486 1.439 0.72 0.072 1.201-1.242 1.994-0.72 2.88 0.493 0.855 0.203-1.049 0.96-0.72 0.097 1.137-0.429 1.652-0.24 2.88 0.918 0.197 0.283-1.157 1.2-0.96-0.525 1.469-0.029 2.965 0.24 4.32-1.039 0.031-0.591-1.424-1.68-0.72-0.135 1.074 1.27 2.526 1.92 3.6 1.012-0.611 1.214 0.378 1.92 0.72 0.414-2.125-1.515-3.902-1.68-6.24 0.289-0.878 0.692 1.641 0.96 2.4 0.395 1.123 0.729 2.312 1.439 2.64-0.132-2.251-1.07-4.745-1.2-7.68 1.484 1.316 0.361 5.239 1.92 6.48 0.613-0.027 0.477-0.804 0.48-1.44 0.293 0.748 0.737 1.343 0.72 2.4 1.366-1.379-0.797-4.778-0.24-6.72 1.056 1.985 0.463 5.618 2.16 6.96 0.978-1.417-0.804-3.694-0.479-6 0.821 2.041 0.958 4.711 1.68 6.24 1.193-2.64-0.758-5.843-1.68-7.92 0.794 0.646 0.913 1.967 1.92 2.4-0.025 0.825-0.124 1.724 0.479 1.92-0.602 1.828 0.381 3.431 0.96 4.8 0.397-0.243 0.261-1.02 0.48-1.44 0.581 0.139 0.533 0.906 0.72 1.44 0.525-0.776-0.224-2.328-0.479-3.12-0.949-0.041 0.076 0.369-0.48 0.72-0.703-0.734-0.995-1.797-0.96-2.88 0.048-1.468 1.693-3.024 0.72-3.84-0.817-0.018-0.71 0.89-0.72 1.68-1.37-0.95-1.951-2.688-2.16-4.8 0.845 0.755 0.854 2.346 1.44 3.36 1.035-1.137-0.269-2.751 0-4.56 1.426 0.333 0.204 3.315 2.16 3.12 0.198 0.678-0.339 0.622-0.24 1.2 0.577 0.146 1.033 0.171 1.68 0.72-0.521 0.193-1.465-0.054-1.92 0.72-0.184 3.304 1.506 4.734 3.36 6 1.097-0.824-0.753-1.842 0-3.12 1.129 0.631 0.227 3.293 2.399 2.88 0.417-1.073-2.014-0.525-1.199-1.2 0.224-1.554 1.777 0.004 2.399 0.24 0.229 1.029-0.673 0.927-0.72 1.68 1.472 0.926 3.619-1.581 3.6-3.6-0.008-0.883-0.867-2.742-1.439-3.6-1.183-1.77-3.611-2.881-5.76-2.16 0.081-0.481-0.05-0.751-0.48-0.72-1.013-0.373 0.053 1.333-0.96 0.96-0.148-1.372-1.24-1.8-1.2-3.36 0.705-0.493 1.295 0.875 1.2-0.96 0.835 0.205 0.557 1.523 1.2 1.92 0.585-0.502-0.443-1.447 0-2.16 0.965 0.395 0.393 2.327 1.439 2.64 0.453-0.584-0.042-1.007 0-2.16 0.851 0.51 1.159 1.561 1.44 2.64 1.722 0.918 3.056 2.224 4.8 3.12 0.085 1.915 1.205 2.795 0.96 5.04-0.029 1.124-0.35-0.261-0.96 0-0.367 0.335-0.682 1.242-0.24 1.68 0.624 0.144 0.864-0.097 0.721-0.72 0.515 1.321-0.98 2.695-1.44 3.84-0.662-0.834 1.07-1.321 0.96-2.4-1.685 0.314-3.231 1.726-5.28 1.44-0.984-0.138-1.482-0.8-2.399-1.2-0.877 0.501-0.118 1.146 0 1.92-0.006 0.874-1.25 0.51-0.96 1.68 0.197 2.442 2.935 2.345 4.08 3.84 1.014 0.266 2.283 0.276 3.6 0.24-0.906 1.901-4.608-0.127-5.52 0.24 1.735 2.8 6.298 2.897 10.079 1.92-0.465-0.954-1.846-1.705-2.399-3.36-0.496-1.482-0.473-3.337-0.72-5.04 0.795 0.004 0.243 1.356 0.72 1.68 0.177-4.254 1.543-11.564-2.16-13.92-0.646-0.166-0.464 0.496-0.72 0.72-0.619-0.48 0.246-1.498 0.479-1.92 1.427 0.781 2.097 0.84 3.36 1.68 1.116 1.603 1.548 3.892 2.88 5.28-0.042 2.884 1.552 5.328 2.88 7.68 0.415 0.734 0.738 1.607 0.96 1.92 1.085 1.526 3.329 2.577 5.521 2.88-0.114-1.991-3.832-2.391-4.561-4.56 2.919 0.587 4.383 4.693 7.44 3.6-0.175-0.769-1.193-1.292-1.92-1.92-1.161-1.003-5.267-2.989-3.84-4.56 3.181 0.758 5.834 2.251 9.359 1.44 0.077-0.557-0.038-0.921-0.24-1.2-2.52-1.16-6.575-0.784-8.159-2.88 3.204-0.365 6.881 2.05 10.08 1.68-0.065-1.143-2.031-1.464-3.36-1.92-1.409-0.483-2.971-1.076-4.32-1.2-0.204-0.356-0.604-0.516-1.2-0.48 0.455-1.495-1.649-0.43-1.439-1.68 2.541-0.405 4.438 0.347 7.2 0.48 0.06-0.62-0.761-0.673-0.96-0.72-2.846-0.663-6.853-0.292-8.881-1.92 1.986-1.111 4.826 0.88 7.2 0.96-0.917-2.574-6.659-0.871-7.68-3.36 2.104-0.148 3.811 1.261 5.52 0.72-0.838-1.402-3.901-0.578-4.079-2.64 1.243-0.6 2.637 0.503 4.319 0.24 0.965-0.396 1.332-1.388 2.16-1.92 0.004-2.004-2.188-1.812-3.84-2.16 0.64-1.274 3.544-0.727 4.32 0 0.535 0.825 0.643 2.077 1.199 2.88-0.952 0.32-1.123 1.786-2.159 0.72-0.847 1.576 0.555 2.018 1.68 1.92 1.339 1.887 5.773 2.878 8.399 1.92-1.733-1.146-5.49-0.27-5.52-3.12 7.871 4.697 18.473-1.922 24-5.76 1.012-2.429 3.085-3.794 4.56-5.76-0.192-1.749 1.77-2.891 2.4-4.56-0.812-0.092-0.378 1.062-1.44 0.72 2.353-3.47 5.347-7.588 5.28-13.2-2.292 2.188-1.876 7.084-4.08 9.36 0.829-3.971 1.77-7.831 3.84-10.56 0.895-0.254 0.775 0.505 1.2 0.72 0.96-1.279 0.611-3.869 2.641-4.08 0.717 0.769 0.229 1.417 0.239 2.64 0.857 0.211 1.516-1.839 2.641-2.16 1.563 2.557-0.175 5.542-1.2 7.68-1.099 2.291-2.381 4.752-3.84 6.48-0.311 0.368-0.814 0.333-1.2 0.72-0.776 0.778-1.34 1.935-2.16 2.88-2.146 2.473-4.064 5.935-6.479 8.4-2.243 2.288-5.612 3.734-6 7.92-0.611 0.429-1.171-0.267-1.681 0.48 1.718 2.421 5.338-0.233 7.92 0 0.672 0.608 0.912 1.648 1.44 2.4-0.729 0.551-0.488 2.072-1.68 2.16 0.053 0.908 0.754 1.166 0.96 1.92-0.33 1.207-0.538 1.971-1.44 2.64-1.82 1.351-3.646 3.597-5.04 5.52-0.116 0.756 0.736 0.543 0.48 1.44-0.31 0.331-1.043 0.238-1.681 0.24-0.468 2.549-2.719 4.819-4.08 6.96-1.344 2.114-2.314 4.222-3.84 6 2.59-0.35 3.137 1.344 2.88 3.84 1.478 0.468 3.479 0.736 5.28 1.2 1.548 0.399 3.748 0.621 4.08 1.68 0.051 0.547-1.125-0.021-1.92-0.24-1.985-0.546-4.862-1.441-7.2-1.92-1.074-0.22-2.586 0.542-2.88-0.96 0.427-0.448 0.61 0.195 1.44 0 0.209-0.595 0.468-1.861 0-2.4-0.568-0.312-1.36-0.401-1.921-0.72 0.658 3.117-0.662 6.322-2.399 8.88-0.857-0.475-1.297-0.111-1.44 0.72-0.853-0.027-0.966-0.794-0.96-1.68-0.673 0.207-0.51 1.25-0.96 1.68-0.98-0.67-1.924-0.007-2.64-0.72-0.356 0.204-0.348 0.773-0.48 1.2-0.868-0.495-1.291-0.344-2.16-0.48-0.986-0.879-0.826-3.104-0.239-4.32-1.567 0.446-4.916-0.185-7.44-0.24-1.033 1.896-1.122 4.124-2.16 5.52 1.06 1.458 2.061-0.648 2.88-0.96 0.077 0.557-0.038 0.921-0.239 1.2 9.394 1.18 18.788 0.51 26.16-1.92-0.112-0.948-1.344-0.352-1.921-0.48-0.929-0.206-1.816-0.719-2.399-0.96-1.047 0.006-2.223 0.143-2.641-0.48 2.191-1.24 5.336 0.532 8.16 0.24-0.893-1.108-3.423-0.577-4.8-1.2 3.183-0.381 6.858 0.821 9.12 2.16-0.586 0.614-1.266 1.134-2.4 1.2-0.148 2.775-4.684 3.124-7.68 3.84 1.102 1.705 2.524-0.484 4.08-0.48 0.073 1.513-2.055 0.825-2.4 1.92 0.787 0.692 1.598-0.632 2.641-0.48-0.238 1.453-1.439 1.021-0.96 2.16-1.075 0.445-2.083 0.958-3.12 1.44-0.41-1.054 1.614-1.525 2.64-1.92-0.991-0.819-1.592 0.799-2.88 0.48-0.181-0.9 0.917-0.523 0.96-1.2-0.76-1.643-2.41-1.455-3.6-1.44-3.613 0.044-7.949 1.632-12.24 1.92-3.391 0.227-6.387 0.648-9.36 0.72-10.484 0.253-23.793 1.052-34.56 1.68 5.843 0.543 13.114 0.055 19.439-0.239 2.229-0.104 5.168-0.37 6.721 0.479-1.089-0.303-3.282-0.104-5.521 0-2.666 0.124-5.701 0.521-8.64 0.48-5.403-0.076-11.416-0.217-16.8 0.96-0.068-0.388 0.227-0.413 0.239-0.72-1.137 0.271-1.488 0.168-2.64 0-4.154-0.609-9.594 0.198-14.4 0-9.062-0.376-19.546-0.496-27.84-2.641-0.812-0.066 0.029 1.026-1.2 0.96-0.946-0.44 0.315-0.598-0.24-1.2-4.334-0.946-9.161-1.399-12-3.84 0.149-2.104 2.148-1.229 3.12-0.48 18.756-3 37.327-5.384 57.36-7.44zm-35.52 22.8c-0.437 1.221-3.028-0.658-3.6 0.721 1.79 0.403 5.897 1.837 6.96 0-0.954-0.4-2.579-0.14-3.36-0.72zm116.88-81.84c0.99-2.051 2.798-4.561 2.16-7.44-0.61 2.435-2.22 5.138-2.16 7.44zm0.96 0.24c-1.354 2.678-2.895 5.045-4.32 7.44 2.229-2.298 4.739-4.942 6.24-7.68 1.179-2.149 2.368-4.643 2.4-7.2-2.21 1.8-3.04 4.899-4.32 7.44zm-43.2 23.76c0.427 0.213 0.61 0.67 1.44 0.48v-0.96c-0.64 0.004-1.41-0.133-1.44 0.48zm3.12 1.68h-0.72c-0.027 0.454-0.794 0.167-0.721 0.72 2.217 0.172 3.448 2.378 5.761 1.68-0.78-1.456-3.68-0.795-4.32-2.4zm28.32 0.72c0.811 0.091 1.023-0.416 1.439-0.72-0.73-0.012-1.22 0.218-1.44 0.72zm-42.72 1.2c-0.494-0.065-0.057-1.062-0.72-0.96-0.13 0.557 0.39 1.654 0.72 0.96zm41.76-0.48c-0.072 0.632 0.332 0.788 0.96 0.72v-0.96c-0.42-0.018-0.75 0.053-0.96 0.24zm-44.4 2.16c0.211-0.494-0.622-1.078-0.72-0.48 0.38 0.021 0.19 0.612 0.72 0.48zm4.8 7.68c-0.087-3.273-0.959-5.761-1.68-8.4h-0.72c0.06 3.542 1.52 5.685 2.4 8.4zm38.88-7.68c0.035-0.284 0.428-0.544 0-0.72-0.04 0.283-0.43 0.544 0 0.72zm-21.6 2.64c-0.223-1.94-4.048-1.548-5.52-1.44 1.72 0.603 3.33 1.309 5.52 1.44zm6.96-0.72c1.647 0.464 2.851 0.956 3.84-0.48-1.36 0.083-3.16-0.277-3.84 0.48zm15.12 0.96c0.533 1.189-0.602 2.098-0.48 3.6 1.865-0.615 2.134-2.827 2.881-4.56-1.06-0.759-1.53 0.77-2.4 0.96zm-20.16 0c0.078 0.604 2.479 1.033 2.4 0.24-0.59-0.458-1.64-0.595-2.4-0.24zm15.12 0.96c0.447-0.033 0.802-0.158 0.96-0.48-0.36-0.378-1.07-0.267-0.96 0.48zm-13.2 0.72c-0.521-0.359-1.351-0.409-2.16-0.48-0.16 0.84 2.18 1.327 2.16 0.48zm15.36 0.24h0.72c0.044-0.523-0.196-0.763-0.72-0.72v0.72zm-11.52 0.24c-0.828-0.452-2.109-0.45-3.12-0.72-0.12 1.256 2.75 1.487 3.12 0.72zm-49.92 4.56c0.407-0.598-0.224-1.501 0.48-2.16-0.074 0.874 0.038 1.562 0.24 2.16 0.597 0.037 0.742-0.377 1.199-0.48-0.106-2.293-2.009-2.792-2.88-4.32-0.283-0.034-0.544-0.427-0.72 0 1.36 0.805 0.45 3.874 1.68 4.8zm51.36-2.64c-1.341 1.377-2.473 2.894-4.08 4.08-2.043 1.507-4.924 1.97-6.48 4.08 1.438 1.074 1.33-1.141 2.4-1.2-0.66 1.819-1.401 3.559-2.4 5.04-0.535 0.035 0.312 0.604 0 1.2-1.844 0.876-2.554 2.886-3.359 4.8 1.294 0.306 2.479 0.721 2.399 2.4 1.137-0.097 1.652 0.429 2.881 0.24 0.544-1.056 0.934-2.266 2.159-2.64 0.741 0.14 0.893 0.868 1.2 1.44 1.204-0.652 1.929-1.896 3.36-1.68 4.316-5.364 8.214-11.146 10.319-18.72-2.12-2.103-5.33 1.03-8.4 0.96zm2.16-1.68c-0.212-0.184-0.686 0.147-0.721 0.24-0.34 0.905 1.19 0.172 0.72-0.24zm6.72 2.4c1.168 0.208 2.608-1.603 1.44-2.16-0.47 0.732-1.26 1.138-1.44 2.16zm-36 3.36c-0.134-1.787 0.188-4.028-1.2-4.56-0.022-0.377 0.032-0.832-0.479-0.72 0.89 1.726 0.24 3.873 1.68 5.28zm4.32-0.24c0.658-0.5-0.372-1.062-0.721-1.68-0.76-1.347-1.173-2.983-2.159-2.88 0.46 1.237 0.71 4.281 2.88 4.56zm-26.16-3.36c-0.453 3.197 0.397 5.405 2.64 6.48 0.298-1.519 3.458-2.108 3.84-0.24 0.124 0.928-1.383 0.946-0.72 1.68 2.375-0.105 4.53-0.43 5.04-2.4-1.499-0.588-2.706-2.454-1.92-4.56-0.896-0.256-0.685 0.596-1.44 0.48-0.773-1.306-2.26-1.9-3.84-2.4-0.241 0.319-0.227 0.893-0.72 0.96-0.33-2.29-1.85-0.326-2.88 0zm60.48 0c-0.021-0.655 0.4-0.483 0-0.96-0.92-0.189-0.92 1.149 0 0.96zm-20.88-0.24c-0.033 1.081 1.158 1.081 1.92 0.72 0.035-0.595 0.045-1.165-0.479-1.2-0.24 0.398-1.02 0.26-1.44 0.48zm-4.32 2.88c-1.748-0.974-3.849-2.87-5.761-2.88 1.68 1.044 3.7 3.015 5.76 2.88zm11.04-2.64c0.782-0.043 1.154 0.564 1.199-0.48-0.6-0.035-1.16-0.045-1.2 0.48zm-3.84 0c-0.01 0.331 0.113 0.527 0.24 0.72 0.954-0.819 2.187 1.117 2.88-0.24-0.66-0.95-2.05-0.72-3.12-0.48zm-2.4 1.92c-0.832-1.25-4.323-1.113-6-0.72 1.65 0.859 4.8 0.665 6 0.72zm18.24 0.96c0.911-0.128 1.057-1.022 1.199-1.92-0.86 0.182-0.97 1.112-1.2 1.92zm-37.44 0c-0.482-0.397-0.182-1.578-0.96-1.68-0.06 0.793 0.32 2.377 0.96 1.68zm36.48 0c0.139-0.146 0.562-1.138 0-1.2-0.16 0.478-0.83 1.025 0 1.2zm-33.36 0c0.312-0.319 0.147-0.724-0.24-0.96-0.31 0.319-0.32 0.893 0.24 0.96zm13.44 1.2c0.907 0.027 1.291-0.47 1.44-1.2-0.831-0.29-1.801-0.439-2.88-0.48 0.3 0.744 0.53 1.552 1.44 1.68zm-13.44 0.48c0.145 1.055 0.519 1.881 1.439 2.16 0.943-1.521-0.727-2.022-1.439-2.88-0.195-0.234 0.162-0.94-0.48-0.72-0.82 0.655-0.08 0.957 0.48 1.44zm24.48 16.08c-0.82-0.101-1.367 0.072-1.199 0.96h2.159c0.011-0.79 0.405-1.195 0.24-2.16-0.69 0.106-1.09 0.506-1.2 1.2zm9.12-16.32c-1.914 1.86-2.982 4.324-4.56 6.48-1.58 2.161-3.326 4.257-4.8 6.48-0.557 0.324-1.078 0.682-1.44 1.2v1.44c1.011-0.109 0.626-1.614 1.68-1.68-0.158 0.721-0.922 0.837-0.72 1.92h0.72c2.69-5.633 6.48-10.159 9.12-15.84zm-28.56 1.44c-1.057 0.008-1.807-1.543-2.641-0.96 0.47 0.579 1.54 1.805 2.64 0.96zm-6 1.68c-0.062-0.737-0.521-1.079-0.72-1.68 0.24 0 0.285-0.195 0.479-0.24 0.343 0.058 0.405 0.395 0.72 0.48 0.054-0.454-0.271-0.529-0.239-0.96-1.123 0.377-0.798-0.199-1.921-0.24 0.15 1.292 0.65 2.228 1.68 2.64zm-17.52-0.72c0.241-0.801-0.333-0.787-0.96-0.72-0.07 0.632 0.33 0.788 0.96 0.72zm25.92 0.96c-0.566-0.474-1.606-0.474-2.399-0.72-0.08 1.03 1.94 1.74 2.4 0.72zm5.76 0.96v0.72c0.864 0.065 1.659 0.06 1.439-0.96-0.59-0.032-1.16-0.036-1.44 0.24zm-9.84 0.96c0.783 0.417 1.201 1.199 2.16 1.44 0.49-1.56-1.77-2.288-2.16-1.44zm-3.36 1.44c0.406-0.403 0.19-1.409-0.72-1.2-0.11 0.754 0.3 0.981 0.72 1.2zm7.44-1.2h-1.199c-0.23 0.967 1.43 0.967 1.2 0zm4.56 1.92c0.533-0.411 2.358-1.322 1.2-1.92-0.49 0.399-1.98 1.043-1.2 1.92zm-16.08-0.24c0.147 0.07 0.924 0.597 0.96 0-0.42-0.21-0.74-0.803-0.96 0zm13.44 3.36c0.863-0.542 3.059-1.887 1.921-2.88-0.64 0.963-1.28 1.917-1.92 2.88zm-2.16 3.6c0.163 0.877 0.334 1.745 0.239 2.88 2.412 0.469 5.977-0.216 7.681 0.96 0.331-0.388 0.849-0.591 0.72-1.44-2.062-0.687-4.747 0.735-5.76-0.96h2.16c-0.213-2.85-2.681-0.177-3.841-0.48 0.17-1.673 2.486-2.47 1.921-4.08-0.95 1.134-2.19 1.97-3.12 3.12zm-4.56 0.24c0.387 0.655 0.806-0.352 0.24-0.48 0 0.241-0.19 0.286-0.24 0.48zm-3.12 0.24c0.359-0.041 0.886 0.086 0.96-0.24-0.32-0.312-0.89-0.316-0.96 0.24zm-1.68 2.88c-0.33-0.01-0.527 0.113-0.72 0.24 0.984 1.039 0.143 1.506 0.239 2.4 1.453 0.282 1.962-1.379 1.2-1.92 1.25-0.431 1.261-2.1 1.92-3.12-1.98-0.371-3.59 1.341-2.64 2.4zm3.12-1.92c0.387 0.656 0.806-0.352 0.24-0.48 0 0.241-0.19 0.285-0.24 0.48zm4.32-0.48h-0.96c-0.38 1.116 1.24 0.833 0.96 0zm11.76 0.48c0.146 0.653 0.659 0.941 1.439 0.96-0.005-0.565 0.414-0.707 0.24-1.44-0.83 0.422-0.91 0.209-1.68 0.48zm3.36-0.24c-0.004 1.049 1.712 0.696 1.681-0.24-0.91 0.224-1.13 0.014-1.68 0.24zm-15.6 3.84c0.911 0.128 0.674 0.231 1.44 0.72 0.396-1.648 0.611-2.581 0.239-3.84 0.414 1.4-0.671-1.178-0.479-0.72-0.81 0.872-0.82 2.544-1.2 3.84zm-3.12-1.68c1.087 0.207 1.495-0.265 1.68-0.96-0.424-0.215-0.7-0.579-1.199-0.72 0.04 0.759-0.64 0.802-0.48 1.68zm2.88-0.48c0.03-0.601 0.458-0.751-0.239-0.96-0.31 0.319-0.32 0.893 0.24 0.96zm15.36 0.48c0.835 0.408 1.801 0.014 1.92-0.96-0.67-0.492-2.15-0.193-1.92 0.96zm-44.64-0.96c-0.651 0.149-1.905-0.305-2.16 0.24 0.54 0.159 2.01 0.62 2.16-0.24zm-8.64 0.72c0.596 0.035 1.165 0.044 1.2-0.48-0.6-0.036-1.16-0.045-1.2 0.48zm49.68 0.72c0.832-0.192 0.922 0.357 1.68 0.24 0.103-0.458 0.686-0.435 0.479-1.2-0.704-0.386-1.259 0.522-1.92-0.24 0.2 0.678-0.34 0.622-0.24 1.2zm-68.4-0.24c0.888 0.486 1.429-0.163 2.64 0 1.254-0.266-0.635-0.223-0.96-0.24-5.677-0.299-12.392 1.034-16.8 1.68 5.409-0.111 10.479-0.562 15.12-1.44zm21.12 0.24c0.75 0.323 2.253 0.467 2.399-0.48-0.83 0.128-2.28-0.357-2.4 0.48zm31.92 1.2c0.469 0.44 1.343-0.067 1.92-0.24v-1.2c-1.21-0.087-1.8 0.435-1.92 1.44zm21.6 0.24c1.196 0.253 0.64 1.485 0.96 2.16 0.651-1.109 1.482-2.038 1.44-3.84h-1.92c-0.17 0.546-0.21 1.226-0.48 1.68zm-2.88 0.72c1.605 0.325 1.681-0.879 1.68-2.16-1.72-0.438-1.86 0.702-1.68 2.16zm-51.12-0.24c0.147-0.224 0.559-0.886-0.239-0.72-6.033 0.447-13.866 1.579-18.48 2.16-1.465 0.184-0.843-0.273-1.92-0.24-6.082 0.189-12.099 1.641-18 2.4-5.308 0.683-10.553 1.373-16.08 2.16 1.194 1.249 3.457 1.089 5.52 1.44 3.319 0.565 7.065 0.916 10.56 1.2 2.939 0.239 5.47-0.788 7.68 0-0.458 0.742-2.82-0.42-2.88 0.72 8.944 0.476 21.931 2.445 30.24 0.96 1.949 1.008 7.391 0.028 8.88 0-0.495-0.145-1.667 0.388-1.44-0.48 13.496-0.514 26.711-1.527 38.641-3.36 0.876-0.135 2.051 0.095 2.64-0.72-3.159-0.151-4.997-0.239-8.399-0.24-0.479 0.242-0.549 0.892-0.96 1.2-0.6-0.227 0.645-1.237-0.48-1.2-0.68-0.04 0.199 1.479-0.48 1.44-0.728-0.622-0.245-0.892 0-1.68-2.413-0.028-3.729-0.4-5.039 0.72-4.684-1.365-11.711 1.046-16.08 0 0.729-0.15 2.066 0.307 2.399-0.24-1.01-0.443-2.522 0.46-2.64-1.2 3.975-0.092 8.276-0.666 12-0.96 0.839-0.066 2.093 0.466 2.64-0.48-0.111-0.929-1.982-0.097-2.16-0.96h1.92c0.141-0.94-0.987-0.613-1.199-1.2 0.687 0.047 1.31 0.03 1.199-0.72-0.791-1.208-3.671-0.33-5.04-0.96 1.573-0.347 4.612 0.772 5.04-0.72-9.87-0.035-19.15 0.526-27.84 1.68zm31.68-0.48c-0.069-0.418 0.766-1.289-0.24-1.2-0.07 0.56-0.51 1.034 0.24 1.2zm15.36 0v1.68c0.864 0.064 1.157-0.443 1.92-0.48-0.063-0.864 0.443-1.157 0.48-1.92-0.95 0.09-1.74 0.337-2.4 0.72zm-14.64 0.48c-0.202 0.598-0.314 1.286-0.24 2.16 1.546 0.415 2.429-1.81 1.44-2.4 0.04 0.52-0.85 0.109-1.2 0.24zm3.84 2.64c0.354-0.607 0.993-2.495-0.24-2.64-0.23 1.103-0.3 1.83 0.24 2.64zm-5.28-0.48c0.54-0.164 0.803-1.831 0-1.92-0.33 0.167-1.03 1.91 0 1.92zm-1.92-0.24c0.883 0.231 0.954-1.179 0.24-1.2-0.21 0.424-0.76 0.7-0.24 1.2zm22.8 0c0.271-0.753-0.068-0.634 0.24-1.2-0.282 0.038-0.681-0.041-0.72 0.24 0.46 0.023-0.42 0.94 0.48 0.96zm2.16-1.2c-0.73 0.81 0.89 0.73 0 0zm-3.36 1.68c0.01-0.73 0.14-1.58-0.721-1.44-0.57 0.65-0.53 1.51 0.72 1.44zm-3.6 0c0.737 0.831 2.397-0.829 1.2-1.2-0.32 0.48-1.57 0.031-1.2 1.2zm-109.2 0.24c0.447-0.033 0.802-0.158 0.96-0.48-0.547-0.07-0.902 0.06-0.96 0.48zm4.56 0c0.809 0.73 0.728-0.89 0 0zm90.48 1.92c1.096 0.104 2.643-0.243 3.36 0.24-0.297-1.062-0.805-1.916-1.68-2.4-0.11 1.17-1.05 1.51-1.68 2.16zm0-0.72c-0.054-0.454 0.271-0.53 0.24-0.96-0.324-0.076-0.458-0.342-0.96-0.24-0.05 0.69-0.03 1.31 0.72 1.2zm32.64-0.48c-2.531 1.064-6.161 1.825-9.36 2.16-0.575-0.095 0.133 1.093-0.72 0.72-6.748 0.067-11.864 1.422-17.76 1.68-6.409 0.28-11.553 0.804-17.28 1.92 12.608-0.351 25.456-0.463 36-2.88 0.762-0.493-0.678-0.479 0-0.72 2.734 0.45 5.081-0.17 7.439-0.72 1.46-0.341 3.498-0.591 3.841-1.92-0.8-0.48-1.53-0.5-2.16-0.24zm-47.52 1.44c1.838 0.175 3.824-0.13 5.761-0.24 1.522-0.086 3.443 0.448 4.319-0.72-3.57 0.11-7.61-0.25-10.08 0.96zm12.96-0.48h0.48v-0.48h-0.48v0.48zm-83.76 3.36c-0.284-0.035-0.544-0.427-0.72 0 0.283 0.03 0.544 0.43 0.72 0zm6.24 1.68c1.72 0.375 3.838 1.326 4.56-0.48-3.738 0.377-6.755-1.243-9.84-0.72 1.434 0.3 3.514 0.82 5.28 1.2zm25.92 2.16c0.598-0.202 1.286-0.314 2.16-0.24 0.408 0.054 0.594-0.271 0-0.24-4.316-0.026-9.352-0.701-14.16-1.2-3.477-0.36-7.321-0.842-9.6 0.24 6.193 1.49 14.542 0.82 21.6 1.44zm20.64 0.48c0.32 0.312 0.725 0.147 0.96-0.24-0.32-0.31-0.89-0.32-0.96 0.24zm-41.52 7.2c-0.307-0.013-0.333-0.308-0.72-0.24-0.373 0.59 0.815 0.71 0.72 0.24zm22.32 0.96c-1.284 0.156-3.195-0.315-4.08 0.24 1.284-0.16 3.195 0.32 4.08-0.24zm0.72 0.48c2.156-0.312 5.412 0.552 6.479-0.24-2.12 0.27-5.48-0.48-6.48 0.24zm8.16-0.24c-0.349 0.131-1.24-0.28-1.2 0.24 0.36 0.38 0.98 0.18 1.2-0.24zm-7.2 1.2c-0.349 0.131-1.241-0.28-1.2 0.239 0.35-0.13 1.24 0.28 1.2-0.24zm5.52 0c-0.497 0.143-1.576-0.297-1.68 0.239 0.44 0.44 1.34 0.13 1.68-0.24zm-19.92 6.48c-0.895-0.074-2.457-0.73-3.12-0.24 0.962 0.34 1.951 0.71 3.12 0.24zm48 2.4c0.704-0.017 0.892-0.549 1.2-0.96-0.92-0.2-0.93 0.51-1.2 0.96zm-49.92 1.68c-0.574 0.146-1.741-0.301-1.92 0.24 0.762-0.02 1.953 1.03 1.92-0.24zm6.48 0.24c-0.983 0.25-1.962-0.739-2.64 0 0.568 0.17 2.147 0.56 2.64 0zm25.2 1.68c0.241-0.001 0.286 0.194 0.48 0.24-0.022-0.377 0.032-0.832-0.48-0.72v0.48zm-4.32 2.64c0.748 0.169 1.032-1.343 1.68-0.48-0.611 1.628-3.292 1.188-3.36 3.36 1.517-0.167 2.374-2.261 3.6-1.92-0.75 1.572-3.739 2.178-3.12 4.319 0.927-1.076 2.435-2.842 3.84-2.64-0.472 1.371-2.665 2.29-2.4 3.6 0.711-0.729 1.386-1.493 2.4-1.92 0.315 1.063 1.059 0.206 1.44 0.48 0.274 1.009-1.411 1.291-0.48 2.16 0.457-0.504 0.654-1.267 1.68-1.2-0.078 1.201-1.049 1.511-1.199 2.64 1.064 0.025 0.833-1.246 1.68-1.439 1.27 0.503 1.877-0.808 2.64 0.479 0.748-1.252 2.92-1.08 3.841-2.16-0.417-0.384-0.521-1.08-0.48-1.92-0.563-0.236-1.179-0.421-1.92-0.479-0.185 0.855-1.229 0.851-1.44 1.68-0.887-0.952-2.657-1.022-3.359-2.16 1.941-0.521 2.652 1.265 3.6 0.96-0.103-1.417-1.715-1.325-1.68-2.88-1.016-0.216-0.244 1.355-1.2 1.2-0.027-0.612-0.045-1.235-0.72-1.2-0.68-0.039 0.199 1.479-0.48 1.44-0.508-0.933-1.298-1.583-1.439-2.881 0.861-0.198 1.161 0.542 1.68 0 0.229-1.669-1.635-1.244-2.64-1.68-0.77 0.831-2.469 0.731-2.88 1.92 0.763-0.036 1.056-0.544 1.92-0.479-0.04 0.76-1.29 0.31-1.2 1.2zm-15.36 1.44c-3.439-0.642-6.322-3.117-10.08-2.64 3.122 0.96 7.187 2.25 10.08 2.64zm27.12 0.96c1.275-0.084 2.163-0.557 2.88-1.2-0.98 0.38-2.68 0.04-2.88 1.2zm-16.08 0.72c-0.001-0.428 0.646-1.396 0-1.68 0 0.43-0.65 1.4 0 1.68zm5.04 5.04c1.24-0.439 1.319-2.041 2.16-2.88-1.17 0.4-2.27 1.98-2.16 2.88zm-9.6-0.48c1.13 0.359 2.976 0.978 3.84 0.24-0.382-1.248-1.891-0.737-2.88-0.96-1.658-0.374-3.288-1.03-4.8-1.2-0.187 0.054-0.474 0.007-0.48 0.24 1.52 0.35 2.76 1.18 4.32 1.68zm46.8-1.44c0.053-0.302 0.374-0.49-0.24-0.479-2.424 1.336-5.534 1.985-7.68 3.6 2.99-0.69 5.51-1.85 7.92-3.12zm-15.12 1.44c2.176-0.224 4.6-0.2 6.24-0.96-1.64-0.1-4.52 0.37-6.24 0.96zm-0.48 0c-1.54-0.28-0.53 0.73 0 0zm-10.32 4.32c-1.194 0.15-2.71 0.34-3.12 1.68 4.095-1.387 8.77-0.199 12.96-0.72 1.68-0.209 3.525-0.8 5.04-1.2 1.676-0.443 3.138-1.131 4.56-1.68 0.053-0.302 0.374-0.491-0.239-0.48-4.81 2.41-13.08 1.62-19.2 2.4zm0-0.48c2.234-0.325 5.221 0.101 6.479-1.2-2.4 0.16-5.71-0.59-6.48 1.2zm-6.24 2.4c1.08 1.166 3.721 0.849 5.76 0.72 2.042-0.129 4.535-0.341 5.521-1.2-3.86 0.22-7.99 0.36-11.28 0.48zm13.2 0.48c0.679-0.041 1.646 0.207 1.68-0.479-0.63 0.09-1.32 0.12-1.68 0.48zm-8.4 2.4c0.547 0.066 0.902-0.058 0.96-0.48-0.55-0.07-0.9 0.06-0.96 0.48zm-3.84 0c-0.047 1.286 1.549 0.394 1.92 0-0.53-0.53-0.98 0.24-1.92 0zm2.64 0.24h0.721c0.03-0.431-0.238-0.562-0.721-0.479v0.48z"/>
	<path d="m124.8 120.96c0.877 1.039 2.954 1.063 4.561 0.72-1.347 0.813-3.351 0.97-5.521 0.96-0.53 0.526 0.237 0.98 0 1.92-0.774 0.486-2.564 1.205-3.359 0.24-0.141-1.1 0.801-1.119 1.199-1.68-2.555-0.713-5.396 0.362-6.96 1.439-3.097-1.845-8.941-0.203-12.72 0.24 0.522-1.254 2.508-0.821 4.08-0.96 1.905-0.168 4.566-0.015 6.96-0.479 1.134-0.221 1.633-1.438 2.64-0.961-0.064 0.495-1.062 0.058-0.96 0.721 3.354-0.166 6.354-0.687 9.84-0.721 0.798-0.508-0.72-0.696-0.479-1.439 0.321-0.559 1.389-0.371 1.92-0.72 0.61 0.32-0.96 0.46-1.2 0.72zm-3.6 3.36c1.127 0.087 1.981-0.1 2.16-0.96-1.15-0.11-1.82 0.26-2.16 0.96z"/>
	<path d="m125.52 71.28c0.1-0.693 0.66 2.62 0 0z"/>
	<path d="m140.16 97.92c-0.296 0.344-0.825 0.455-1.44 0.48-0.53-0.237 1-0.421 1.44-0.48z"/>
	<path d="m135.36 98.4c-0.213 0.434-3.079 0.276-4.08 0.72 0.72-0.883 2.67-0.534 4.08-0.72z"/>
	<path d="m136.32 99.6c-6.985 1.454-13.918 1.561-20.88 3.12 0.327-1.074 1.695-0.596 2.399-0.72 5.41-0.96 12.18-2.033 18.48-2.4z"/>
	<path d="m138 106.08c-0.073 0.258-3.137 0.852-4.08 0.24 1.61 0.17 2.63-0.25 4.08-0.24z"/>
	<path d="m150.48 121.44c0.019-0.021-0.024-0.231 0-0.239 1.7-0.57-1.32 1.17 0 0.24z"/>
	<path d="m90.96 123.36c-0.78-0.421-2.1-0.3-2.88-0.721-0.428-0.18 2.746-0.11 2.88 0.72z"/>
	<path d="m93.6 128.64c-1.166-0.034-2.021-0.378-2.88-0.72-0.428-0.18 2.746-0.11 2.88 0.72z"/>
	<path d="m131.76 156c0.5 1.29-1.125 2.344-2.64 2.399-0.585 0.564 0.268 0.538 0.479 0.961-0.205 0.834-1.1 0.979-1.199 1.92 0.464 0.958 0.375 2.188 0.479 3.84 0.16 2.52 1.065 4.554 1.68 6.96 0.812 3.178 1.307 6.421 2.641 9.359 1.139 2.51 2.687 4.986 2.88 6.961 0.475 4.851-2.36 7.474-6.24 9.119 0.131-1.709 1.887-1.793 2.641-2.88-1.557 0.098-2.838 1.514-4.561 1.92-5.02 1.185-10.262-1.192-9.12-6.72 0.832 0.368 0.936 1.465 1.44 2.16 0.539-0.101 0.006-1.273 0.479-1.44-0.308-0.412-1.143-0.297-1.199-0.96 0.43-3.092 0.069-5.973 2.159-7.68-0.319-0.74-1.067 0.447-1.439-0.24 0.393-2.326 2.087-3.353 3.12-5.04-0.235-0.325-0.81-0.311-0.96-0.72 0.485-1.674 1.515-2.806 2.399-4.08-0.263-2.902 0.488-4.792 0.96-6.96 0.967-0.246 1.066 0.374 1.44 0.72 0.405-0.954 0.188-2.531 0.24-3.84-1.339-0.139-2.123 0.277-3.12 0.48-0.59 5.898-1.89 11.65-3.84 16.08-0.893 2.024-1.672 3.688-2.641 6.239-0.708 1.866-1.716 4.36-0.72 6.721 0.113 0.753-0.646 0.634-0.72 1.199 0.159 0.961 0.899 1.341 0.96 2.4-1.717 0.05-4.797 0.364-7.44 0.24 1.202 1.53 4.501 0.796 6.72 0.72-2.04 1.239-5.65 0.91-8.64 1.2 1.681 1.792 5.279 0.277 8.4 0.72 0.828-0.211 0.214-1.866 1.439-1.68 1.088 0.398 0.263 1.385 0.96 1.92 2.848 1.087 6.675 1.144 10.08 0.72 3.124-0.389 5.642-1.652 7.44-2.88 0.072 1.828-2.022 2.87-3.601 3.36-3.725 1.156-8.995 1.11-14.16 1.2 3.329 2.392 9.332 0.437 13.681 0.239 0.662-0.058 0.548-0.893 0.96-1.2 1.366 0.3 1.347 1.563 2.399 2.4 1.277 1.015 4.229 0.905 4.08 3.36-2.454-0.745-4.607-1.792-6-3.601-2.794 1.046-6.979 0.701-10.08 1.44 2.668 0.745 5.651-0.268 8.641 0-2.171 1.493-6.316 0.495-9.12 1.2-1.272 0.319-1.892 1.179-2.88 1.439 1.306 1.314 2.857-0.874 4.56-0.72 0.096 0.976-1.021 0.738-1.2 1.44 1.782 0.459 3.509-1.101 5.521-1.2-1.033 1.687-3.562 1.879-6 2.16-0.884-1.18-2.149-0.401-3.6-0.24-0.519-0.515-0.123-1.341 0.239-1.681-2.358 0.98-4.89 0.392-7.2 0.48-0.521-0.499 0.029-0.775 0.24-1.2-3.991 0.305-9.096 0.353-12.48 1.92 0.057 0.824 1.557 0.203 1.44 1.2-3.332 0.114-6.802-2.036-9.6-0.24 0.618 0.757 1.145-0.599 2.16-0.239-0.401 0.878-2.044 0.516-2.4 1.439 0.614-0.066 1.762 1.28 0.24 1.2 0.749 0.61 1.627 1.093 2.64 1.439 1.257 0.218 0.903-1.177 2.16-0.96-0.189 0.843-0.674 0.79 0 1.44 2.754 0.408 4.353-1.531 6.24-1.2 0.095 1.056-1.293 0.627-1.44 1.44 2.312 0.912 4.108-0.663 6.24-0.721 0.21 0.771-0.623 0.498-0.72 0.961 1.522 1.318 4.057-0.174 5.52-0.48 0.175 0.655-0.477 0.483-0.48 0.96 2.462 0.829 4.823-0.433 6.96-0.72 0.143 0.766-0.451 0.742 0 1.2 2.825-0.055 4.562-1.197 7.2-1.44 0.101 0.821-0.72 0.722-0.96 1.2 2.836 0.834 5.401-0.677 7.68-1.2 0.14 0.94-0.987 0.612-1.2 1.2 3.392 0.574 6.005-1.663 9.12-2.16-0.33 1.029-1.853 0.867-2.64 1.44 4.499 0.338 8.681-1.72 12.72-2.641 0.175 0.655-0.478 0.483-0.48 0.96 2.563-0.396 5.514-0.406 6.721-2.16-1.884-3.236-6.749-3.491-11.04-4.319 1.168 0.647 2.631 1.526 4.08 2.16 1.284 0.561 3.562 0.504 3.6 2.399-2.1 0.152-4.326-1.573-6-2.64-1.645-0.596-3.642-1.103-5.521-1.681-1.62-0.498-4.059-0.991-4.319-2.88 2.087 0.633 4.082 1.358 6 2.16 0.776 0.297 0.184-0.776 0.96-0.479 4.885 1.194 10.97 1.19 13.68 4.56-0.196 1.991-0.783 4.109-2.399 5.04-1.952 1.123-5.146 0.944-7.681 1.44-1.318 0.258-1.936 0.539-3.84 0.72-0.547 0.052-1.17 0.36-1.68 0.479-1.892 0.442-4.104 0.338-6.48 0.48-4.548 0.273-11.401 0.926-15.84 1.2-6.521 0.403-13.214-0.406-19.2-0.721-4.094-0.214-7.869-0.528-11.28-1.439-0.271-0.369-0.689-0.591-0.96-0.96-0.734-0.174-0.706 0.414-1.44 0.24-0.102-0.502 0.165-0.636 0.24-0.96-1.147-0.268-1.012 0.747-2.16 0.479-0.276-0.283-0.272-0.849-0.24-1.439-1.451 0.321-2.153-1.084-3.36-0.24-4.496-1.904-10.837-1.964-15.84-3.36 0.408-1.288 1.586-0.32 2.4-0.24 1.483 0.146 3.482 0.424 5.52 0.721 2.725 0.396 4.88 1.231 6.96 0.479 0.042-1.012-1.962-1.226-2.64-0.72-1.586-0.681-4.467-1.256-6.48-0.72-0.988 0.113 0.231-0.646-0.72-0.721-9.152-0.131-20.062-4.391-28.8-1.439 0.857-1.144 3.184-0.816 4.56-1.44-0.863-0.619-2.489-0.938-4.32-0.72 0.231 0.488 0.921 0.519 1.68 0.479-4.337 0.896-8.752 0.284-12.96 0.48-3.407 0.158-6.734-0.07-9.84 0-1.192 0.027-2.402 0.595-3.6 0.479-0.472-0.045-0.801-0.466-1.2-0.479-4.337-0.146-10.397-0.334-15.6-0.24 3.602-1.129 7.71-0.25 11.52-0.24 6.47 0.017 13.035-0.72 19.68-0.479 0.867-0.333 1.545-0.854 2.64-0.96 0.103 0.663-0.895 0.226-0.96 0.72 1.805 0.516 4.573 0.066 6.48 0.48 0.353-0.913-1.073-0.048-0.72-0.96 5.023-0.147 9.468 1.475 13.92 0.479-1.247-1.042-3.51-0.698-5.52-0.96-1.275-0.166-2.62-0.849-4.08-0.24-0.599-0.121-0.802-0.638-1.44-0.72-1.816-0.216-2.447 0.754-4.32 0.48 0.1-0.541 1.316 0.035 1.2-0.721-1.626 0.054-3.022 0.339-4.56 0.48 0.066-0.494 0.894-0.227 0.96-0.72-2.39-0.884-4.526 0.052-6.72 0 0.204-0.357 0.773-0.348 1.2-0.48-2.319-0.701-7.048-1.448-9.84-0.72-1.957-1.773-5.946-0.819-7.92-0.48 0.058-0.422 0.413-0.547 0.96-0.479 0.072-0.633-0.333-0.788-0.96-0.721 2.319-0.959 4.453 0.754 6.96-0.72-1.198-0.955-2.789-0.06-4.32 0 0.06-0.261 0.478-0.163 0.48-0.479-2.463-1.001-4.812-0.393-6.96-0.48-0.555-0.022-0.703-0.37-1.2-0.479-0.517-0.114-0.637 0.279-0.96 0.239-0.318-0.039-0.375-0.473-0.72-0.479-1.845-0.036-4.083 0.041-6.48 0v-1.44c1.455-0.385 2.938-0.742 4.56-0.96 0.247-0.807-0.747-0.373-1.2-0.479 2.606 0 5.812-0.283 8.4-0.96-0.217 0.423-0.883 0.396-0.96 0.96 3.473 0.687 7.129-0.127 9.84-0.96-2.434-1.333-6.613 0.185-8.64 0 0.363-0.357 1.053-0.387 1.68-0.48-1.623-1.616-4.28-0.556-6.48-0.72-0.538-0.04-0.917-0.471-1.44-0.48-1.7-0.032-3.713 0.676-5.52 0 2.514-1.19 5.6-0.19 8.64 0 3.854 0.242 7.931 0.58 11.04-0.239-1.091-1.148-4.073-0.407-5.76-0.96h-1.44c-0.438-0.187 0.144-0.259 0.48-0.24 8.492 1.163 17.093-0.773 24.72-0.24-2.02-0.994-4.613-0.769-6.96-0.96-2.668-0.217-6.545-0.907-9.36-0.96-1.028-0.02-1.95 0.333-2.88 0.24-0.695-0.07-1.211-0.446-1.92-0.48-2.979-0.143-6.093 0.799-9.12 0 0.975-1.4 2.765-0.534 4.08-0.479 5.768 0.237 11.719 0.418 17.76 0.72 6.066 0.303 11.286 1.566 16.08 0.72-3.056-1.116-7.16-0.817-10.32-1.439-4.518-0.891-9.652 0.148-13.92-0.96 1.214-0.653 2.72-0.338 4.08-0.24 2.849 0.204 5.586 0.464 8.88 0.72 6.378 0.496 12.421 1.906 18.72 0.96 0.489-0.311 1.446-0.154 1.44-0.96 2.227 0.798 6.118-0.973 9.12-0.24-0.449 1.333-2.305 0.619-3.36 0.721-1.635 0.156-3.42 0.541-5.04 0.72-0.901 0.1-2.14-0.415-2.64 0.479 1.036 0.474 2.697 0.759 4.08 0.721 2.268-0.062 4.944-0.413 6.24-1.44 3.249 0.537 7.059-0.032 10.32-0.24 0.77-0.21 0.498 0.623 0.96 0.721 3.205-0.26 6.132-0.709 9.12 0-0.336 1.286-2.234 0.643-3.36 0.72-1.389 0.095-2.841 0.424-4.08 0.24-0.344 1.144 1.784-0.185 1.44 0.96-3.32-0.773-5.976-0.541-9.36 0 0.758 0.939 2.115 0.603 3.84 0.72 4 0.272 7.81 1.541 12.24 0.48-1.922-0.559-4.395-0.565-6.24-1.2 6.057 0.619 12.099-1.434 18.96-1.44-2.296 1.032-5.273 0.571-7.92 1.2-0.881 0.209-1.654 1.104-2.64 0.72 0.998 1.079 2.697 0.305 4.08 0.24 2.507-0.116 4.919-0.047 7.44-0.24 1.481-0.113 3.655-1.125 4.08 0.24-3.223-0.414-6.708 0.748-10.32 0.72 3.53 1.567 8.532 1.915 13.44 1.44-0.222 0.898-1.927 0.312-2.88 0.479 0.495 1.074 2.302 0.575 3.36 0.48 3.229-0.289 7.383-0.868 9.84-1.68 0.148-3.612 0.932-6.588 2.88-8.4-0.187-0.214-0.258-0.542-0.24-0.96 3.636-5.744 5.243-14.906 5.04-23.04-0.521-0.759-2.071-0.488-1.92-1.92 0.944-0.44 1.938 0.737 3.36 0.96 2.646 0.414 5.653-0.273 6.72-1.92h0.72zm-85.92 33.84c-0.058-0.66-1.239-0.646-1.68-0.72-3.473-0.589-8.122 0.075-10.56 1.2 3.652 1.259 7.533-0.061 10.8 0-1.108 0.012-1.981 0.258-2.4 0.96 3.045 0.005 5.879-0.201 7.92-1.2-1.491-0.521-3.688-0.129-5.04 0.24 0.058-0.42 0.413-0.55 0.96-0.48zm78.48-28.56c0.796 0.433 2.674 0.202 2.88-0.721-1.28 0.31-2.09-0.22-2.88 0.72zm2.16 7.68c0.327-0.323 0.457-1.676-0.24-1.68 0.14 0.5-0.3 1.58 0.24 1.68zm-1.92 20.88c1.433-0.487 0.353-3.488 2.16-3.6 0.521 2.345-1.237 4.069 0.24 5.279 0.24-0.741 0.689-1.678 0.96-2.88 0.203-0.9-0.604-2.837 0.96-2.64 0.53 1.742-0.424 3.481 0.48 4.8 0.454-1.945-0.179-4.978 1.92-5.28 1.128 0.792 0.555 3.286 2.16 3.601 0.757-0.571-0.783-1.616 0-2.16 0.537 0.735 0.738 2.842 0.239 3.84-0.733 0.174-0.874-0.245-1.439-0.24-0.155 2.383-0.784 2.114-2.4 1.2-0.186 0.615-0.239 1.36-0.72 1.68-0.989 0.189-0.451-1.148-1.44-0.96-0.837 0.283-0.609 1.631-1.68 1.681-0.944-0.096-0.207-1.873-1.2-1.92-0.915 0.045-0.58 1.339-1.439 1.439-0.461-0.339-0.435-1.165-0.721-1.68-0.649 0.31-1.482 0.437-1.68 1.2 2.72 4.457 9.848 1.931 13.2-0.24 2.599-3.269 0.575-5.653-1.2-8.88-2.566-4.665-4.111-10.388-5.04-15.84-1.108 1.131-1.898 2.581-2.399 4.319-0.626 0.414-1.217 0.864-1.2 1.92 0.752 0.701 1.465-1.635 2.16-0.96-0.393 2.171-3.399 2.999-2.881 5.28 0.69-0.437 1.331-2.18 2.4-1.439-0.644 1.196-1.98 1.699-2.4 3.119 0.147 0.333 0.925 0.036 0.96 0.48-0.565 0.704-1.14 1.797-1.68 2.88-0.445 0.894-1.462 2.255-0.72 2.88 0.535-1.305 1.146-2.534 2.399-3.12 0.377 1.523-1.697 3.521-2.159 5.28-0.061 0.228-0.575 1.584 0.239 1.68 1.171-1.31 0.58-4.38 2.641-4.8 0.03 2.04-0.3 2.96-0.72 4.08zm-2.88-2.16c0.014-0.146 0.036-0.284 0.24-0.24-0.027-0.292-0.071-0.567-0.479-0.479 0.04 0.28-0.04 0.68 0.24 0.72zm-75.6 0.72c2.383 0.024 5.663 1.14 7.68 0-2.307-0.4-5.762-1.24-7.68 0zm13.92-0.24c0.792 1.081 2.828 0.176 4.32 0 0.99-0.117 2.19 0.419 2.64-0.48-2.578-0.1-4.416 0.54-6.96 0.48zm4.32 0.48c1.172 1.347 3.256-0.376 5.04 0-0.855-1.03-3.355 0.28-5.04 0zm-9.84 0.24c0.346 0.887 3.506 0.698 3.6-0.24-1.239 0.04-2.708-0.15-3.6 0.24zm-27.12 0.72c-0.019 0.854 1.178 0.454 1.68 0.48 2.312 0.122 4.629-0.364 5.76-0.96-2.711-0.07-4.729 0.55-7.44 0.48zm31.68-0.24c0.143 0.693 1.343 0.633 1.92 0.72 1.788 0.271 3.668 0.229 5.52 0.24 1.892 0.65 5.494 1.387 7.44 0.479-5.197-0.66-9.702-1.72-14.88-1.44zm-4.08 0.72c-0.252 0.013-0.189 0.308 0.24 0.24 1.632 0.206 4.438 1.257 5.76 0.239-1.885-0.15-4.468-0.77-6-0.48zm-35.04 1.2c2.807-0.082 5.43 0.668 7.2-0.721-2.164-0.24-6.012-0.75-7.2 0.72zm34.56-0.72c-2.567-0.324-6.194 0.257-7.92 0.96 3.343 1.012 6.763 0.389 10.32 0-0.337-0.68-1.556-0.85-2.4-0.96zm-27.84 1.2c3.208 0.18 6.756 0.918 9.12-0.479-2.787-0.35-7.119-1.09-9.12 0.48zm41.28-0.24c-0.878-0.566-3.416-0.737-4.56-0.239 1.002 0.6 3.563 1.09 4.56 0.24zm17.04-0.24c-0.29 0.051-0.147 0.266 0 0.479 3.829-0.097 7.945 1.903 11.52 0.48-3.352-0.66-7.498-1.77-11.52-0.96zm-50.16 1.2c2.377 0.12 4.373 0.331 6-0.72-1.803-0.48-4.989-0.38-6 0.72zm20.4 0c0.782 0.658 2.57 0.311 3.6 0.721 1.147-0.933 4.122-0.038 5.04-1.2-2.698-0.61-6.028-0.24-8.64 0.48zm22.8-0.48c3.581 0.309 8.155 2.018 11.76 0.72-3.878-0.24-7.968-1.88-11.76-0.72zm-38.16 0.72c2.179 0.584 6.343 0.893 8.16-0.24-2.401-0.41-6.211-0.95-8.16 0.24zm-6.72 0.48c-2.055-0.748-5.079 0.385-6.48 0.239 0.138-0.582 1.552 0.113 1.44-0.72-3.03-0.83-5.758-0.204-7.92 0.24-0.867 0.178-2.219-0.234-2.4 0.72 2.61 1.049 6.193-0.153 8.4 0-0.623 0.258-1.607 0.152-1.92 0.721 1.915 0.296 4.383 0.4 6-0.24-0.058 0.342-0.396 0.404-0.48 0.72 2.299 0.852 5.615-0.4 7.44 0-0.459 0.101-1.033 0.087-0.96 0.72 2.267 0.246 5.213 0.434 7.44 0v0.721c1.788 0.026 3.631 0.542 5.28 0 3.034 1.835 8.179 0.423 11.52-0.24-2.592-0.969-6.247-0.42-8.64-0.48 0.596 0.035 1.165 0.045 1.2-0.479-2.025-0.35-3.66-0.126-5.76 0 0.002-0.317 0.42-0.22 0.479-0.48-2.809-0.588-6.431-0.686-8.64 0.48 0.384-0.944-1.037-0.084-0.96-0.72 0.758 0.038 1.448 0.008 1.68-0.48-2.666-0.849-6.043-0.043-8.16 0 0.535-0.19 1.302-0.14 1.441-0.72zm42.72-0.96c-0.551-0.023-1.8-0.412-2.16 0.479 0.433 0.607 1.875 0.205 2.4 0.72-3.289-0.48-6.335-0.522-9.36-0.239-0.664 0.062-1.939-0.465-2.4 0.479 3.901 1.23 9.163 1.44 13.2 0.24-0.146-0.414-1.138 0.019-1.2-0.48 2.612-0.076 4.558 0.95 6.48-0.239-2.28 0.11-4.769-0.87-6.96-0.96zm38.88 0c-2.357 1.003-5.862 0.857-8.88 1.199-0.095 0.413 0.356 0.616 0 0.721-1.18-0.636-3.729-0.768-4.56 0.24-1.573-0.259-4.054-0.512-5.04 0.479 1.704 0.616 4.159 0.481 6.48 0.48 0.382-0.178-0.055-1.175 0.72-0.96 1.146 0.267 3.991 0.996 3.84-0.24 2.524 1.035 5.771 0.055 8.88 0.24-0.03-1.17-0.5-1.9-1.44-2.16zm-65.76 0.96c0.984 1.229 5.677 1.096 6.24 0-2.067-0.02-4.315-0.57-6.24 0zm13.68-0.24c-0.024 0.008 0.019 0.218 0 0.24-1.316 0.93 1.699-0.81 0-0.24zm36.72 0c-0.729 0.15-2.067-0.308-2.4 0.24 0.615 0.5 1.903 0.12 2.4-0.24zm-85.2 2.64c1.657-0.328 3.416-0.268 4.32-1.199-1.5-0.218-4.51-0.352-6.24 0 0.013-0.308 0.308-0.333 0.24-0.721-4.525-0.045-9.078-0.117-11.76 1.681 3.083 0.459 5.253 0.651 8.16-0.24-0.021 0.378-0.612 0.188-0.48 0.72 1.611 0.96 3.742 0.16 5.76-0.24zm0.48 0.96c2.679 0.629 5.268-0.003 7.2-0.479 1.122-0.277 2.506-0.379 2.88-1.2-4.509-0.198-7.028 0.28-10.8 0.96-0.122 0.63 0.349 0.63 0.72 0.72zm40.8-2.4c1.071 0.41 3.411 0.9 3.84-0.48-1.43 0.01-2.776 0.1-3.84 0.48zm4.08 0.48c2.172 0.548 4.912 0.528 7.2 0.96-0.077-0.636 1.344 0.225 0.96-0.72-2.58-0.05-5.879-1.44-8.16-0.24zm15.12 0.72c2.287 0.208 4.851-0.104 6.72-0.96-2.738 0.1-4.521 0.07-6.72 0.96zm18.24-0.48c-1.086-0.089-2.505 0.232-3.36 0.48 1.775 0.882 3.571 0.573 6 0.479-0.496-0.76-1.716-0.88-2.64-0.96zm-71.76 1.92c2.238 1 5.003-0.728 6.72-0.24-0.445 0.435-1.72 0.041-1.92 0.721 3.957 0.858 8.252 0.16 11.52-0.96-1.496-0.237-3.371-0.634-5.28-0.48-1.456 0.117-3.069 1.146-4.08 0.24 0.758 0.038 1.448 0.009 1.68-0.48-2.399-0.92-6.48 0.31-8.64 1.2zm49.92-1.2c-0.001 0-0.046-0.396-0.24-0.239 0.851 1.21 2.633 0.03 0.24 0.24zm9.84 0.72c2.165 0.948 5.285 0.233 7.92 0.239-0.076-0.636 1.345 0.225 0.96-0.72-2.783-0.65-6.255-0.32-8.88 0.48zm21.36-0.72c1.42 1.604 5.896 1.44 7.92 0.48-2.47-0.86-4.8-0.53-7.92-0.48zm-6.96 0.72c0.278 0.771 3.158 1.648 3.36 0.239-0.421-0.98-2.499-0.32-3.36-0.24zm-37.68 0.72c0.077 0.637-1.345-0.225-0.96 0.72 1.061 0.046 2.261 0.339 3.36 0.24 1.853-0.167 4.695-0.535 5.52-1.44-2.778-0.52-5.03 0.44-7.92 0.48zm18.96-0.24c1.956-0.223 3.444 1.43 4.56 0-1.547 0.21-3.554-1.22-4.56 0zm22.56-0.24v0.721c0.995-0.205 2.952 0.552 2.88-0.721-1.08 0.15-2.049-0.66-2.88 0zm-66 1.44c5.253 0.759 11.89 1.662 16.32-0.48-5.445-0.57-11.824-1.72-16.32 0.48zm59.04-1.44c-1.274 0.566-3.836-0.155-4.8 0.721 2.788 0.862 5.739 0.974 8.88 0.479-0.776-0.98-2.678-0.84-4.08-1.2zm-21.84 0.72c-2.524-0.116-5.339 0.715-6.96 1.199 3.086 1 6.455-0.155 9.84-0.239-0.522-0.76-1.867-0.91-2.88-0.96zm31.92 0.96c1.565-0.195 3.979 0.459 4.8-0.48-1.09-0.48-3.99-0.65-4.8 0.48zm-17.52-0.72c0.002 0.001-2.713-0.29-0.96 0.24 0.289 0.088 3.915 1.611 5.28 0.48-0.97-0.06-3.248-0.66-4.32-0.72zm-65.04 1.2c1.869 0.389 4.345 0.275 6.24 0 0.542 0.135-0.291 0.375 0.24 0.72 2.48-0.118 5.217 0.752 7.68 0.721 1.444-0.019 3.452-0.208 4.08-0.96-3.771-0.119-7.416-1.203-11.28-0.48 0.013-0.307 0.308-0.332 0.24-0.72-2.509 0.08-5.814-0.94-7.2 0.72zm25.44 0.24c0.625 0.823 2.514 0.809 3.6 0.72 2.484-0.203 5.602-0.68 7.2-1.439-3.891-0.62-7.096 0.47-10.8 0.72zm35.52-0.48c0.338-0.766-1.436-0.606-1.44-0.239 0.566-0.01 0.707 0.41 1.44 0.24zm-1.44 0.24c-2.387-0.512-4.288-0.331-6.48 0-1.114 0.169-2.433-0.073-3.12 0.72 3.866 0.967 7.901 1.047 12 0.24-0.434-0.65-1.525-0.77-2.4-0.96zm16.32 0c0.636-0.004 1.413 0.134 1.44-0.479-0.689-0.05-1.219 0.06-1.44 0.48zm-10.8 0.24c-0.311-0.189-2.312-0.637-1.68-0.24 0.048 0.46 1.399 0.81 1.68 0.24zm23.28 0c0.798-0.242 2.611 0.53 2.64-0.48-1.08 0.45-2.07-0.48-2.64 0.48zm7.2 0.72c-1.72-0.395-4.845-0.19-7.44 0-1.146 0.084-2.478-0.419-3.12 0.48 1.749 0.572 3.663 0.382 5.76 0.24 1.397-0.095 4.532-0.811 5.28 0.239-0.613 0.747-2.215 0.505-2.88 1.2 0.79 0.09 0.484 1.276 1.44 1.2 1.608-0.749 4.337-2.265 2.88-4.561-1.204 0.156-3.034-0.314-3.84 0.24 0.46 0.5 2-0.08 1.92 0.96zm-62.64 0.48c3.264 0.478 7.19-0.065 9.84-0.96-3.2-0.73-7.176-0.18-9.84 0.96zm38.4-0.96c0.431 0.311 2.319 0.541 2.4-0.24-0.431-0.31-2.318-0.54-2.4 0.24zm15.84-0.48h-2.16c-0.12 0.86 2.23 0.63 2.16 0zm-18 0.72c-2.755-0.27-1.718 0.72 0 0zm-51.6 1.2c2.319 0.393 5.621 0.355 7.2-0.72-1.949-0.31-6.481-0.46-7.2 0.72zm21.6 0c3.789 0.782 9.714 1.688 13.2 0-3.957-1.01-9.342-1.32-13.2 0zm19.68 0.24c2.178 0.341 5.314-0.012 6.96-0.96-2.246-0.41-5.05 0.28-6.96 0.96zm14.16-0.48c-0.25-0.254-1.714-0.496-1.92 0 0.449 0.05 1.591 0.62 1.92 0zm7.92 0.24c0.724 0.01 2.056 0.646 2.64 0-1.08 0.25-2.07-1.21-2.64 0zm-18 0.96c2.009 0.314 5.101 0.106 6.48-0.96-1.855-0.16-5.182-0.19-6.48 0.96zm-34.8-0.96c-0.752 0.1-2.062 0.457-2.4 0.96 2.1-0.141 4.627 0.147 5.76-0.96-1.145 0.1-2.287-0.14-3.36 0zm49.92 0.96c0.227-1.116-2.198-0.828-2.64-0.479 0.907 0.54 1.355 0.77 2.64 0.48zm14.64-0.72h-2.4c0.2 1.06 2.1 0.76 2.4 0zm-63.12 0.96c4.36 0.584 9.918 2.033 13.92 0.24-4.384-0.41-9.787-1.71-13.92-0.24zm21.36-0.24c0.09 1.239 1.931 0.593 2.88 0.48 1.096-0.131 2.596-0.336 2.88-0.96-2.225-0.14-3.774 0.39-5.76 0.48zm34.32 0.24c1.107 0.165 3.758 1.271 4.32-0.24-1.51 0.04-3.52-1.15-4.32 0.24zm-18.24 0.48c2.087-0.079 6.066 0.932 7.68-0.721-2.215-0.04-6.222-0.82-7.68 0.72zm-12.72 0.24c0.926 0.311 2.162 0.52 3.36 0.48 1.155-0.037 3.258-0.434 3.6-0.96-2.025-0.78-5.113-0.28-6.96 0.48zm26.16 0c1.095 0.08 2.683 0.623 3.12-0.479-1.08-0.35-2.81-0.37-3.12 0.48zm16.8 0.48c1.063-0.057 1.982-0.258 2.16-1.2-0.91 0.21-1.75 0.49-2.16 1.2zm-37.92 0.24c1.444 0.488 3.21 0.593 4.32-0.24 0.68 0.225 2.041 0.932 2.16-0.24-1.734-0.47-4.459-0.47-6.48 0.48zm14.4-0.24c0.287 1.351 3.821 0.727 3.6-0.72-1.424 0.02-2.255 0.62-3.6 0.72zm-32.4 0.48c1.944 0.318 4.752-0.075 6.24-0.96-2.388 0.01-4.805 0-6.24 0.96zm48.72-0.96c-0.948 1.135-4.475 0.962-4.32 2.4 2.683-0.597 6.371-0.189 7.68-2.16-0.72-0.48-2.26-0.14-3.36-0.24zm-35.28 2.64c0.31 1.167 1.634 0.209 2.16 0.239-0.07-0.004 0.23 0.425 0.48 0.48 1.507 0.338 1.736-0.884 2.88-0.72-0.013 0.307-0.308 0.332-0.24 0.72 1.539-0.141 3.204-0.155 4.08-0.96-2.551-0.586-4.798-0.023-7.44-0.24 0.229-0.65 1.986 0.227 1.92-0.72-1.558-0.202-3.207-0.313-5.04-0.24-0.949-1.13-3.494-0.953-5.04-0.72-1.234 0.187-2.938 0.485-3.36 1.2 1.937 0.175 3.385 0.295 5.28 0-0.003 0.317-0.421 0.219-0.48 0.479 1.789 1.097 4.8-0.179 6.48 0.24-0.832-0.19-0.923 0.36-1.68 0.24zm40.08-0.24c2.462-0.417 4.547-1.213 6.72-1.92-2.71-0.49-5.25 0.46-6.72 1.92zm-12-1.44c-0.558 0.184-1.829-0.018-1.92 0.721 1.332 1.027 3.654-0.507 4.8-1.2-1.53-0.25-2.23 0.27-2.88 0.48zm-18 0.72c1.755 0.682 3.711 0.396 5.28-0.24-0.778-1.3-4.114-0.31-5.28 0.24zm-30.48 0.48c1.899 0.362 2.732-0.067 4.56-0.24-0.698-1.5-4.234-0.32-4.56 0.24zm63.12 0.48c0.567 0.067 2.735-0.072 3.12-0.96-0.9-0.49-2.47 0.4-3.12 0.96zm-43.2 1.44c0.187-0.054 0.474-0.006 0.48-0.239-0.995 0.215-0.901 0.111-1.44-0.48-2.743-0.312-5.705-0.202-8.4-0.72-1.533-0.295-5.308-1.684-6.48 0 5.278 0.28 11.324 1.95 15.84 1.44zm15.84-1.44c1.825 0.405 4.056 0.777 5.04-0.721-1.845 0.08-4.093-0.25-5.04 0.72zm-6 1.92c2.071 0.281 5.615 0.037 6.96-1.2-2.629-0.69-5.461-0.43-6.96 1.2zm-3.12-0.96c0.521 1.584 3.521 0.427 3.84-0.48-1.593-0.15-2.535 0.34-3.84 0.48zm-5.04 1.2c1.467-0.05 4.376 1.557 5.04 0-1.95 0.04-3.83-1.33-5.04 0zm12.48 0.24c-0.074 0.979 1.994 0.979 1.92 0-0.33-0.62-1.471-0.05-1.92 0zm-4.32 0.96h0.48c0.373-0.59-0.815-0.705-0.72-0.239 0.147 0.01 0.284 0.04 0.24 0.24zm3.84 0.72c0.035-0.675-0.588-0.692-1.2-0.721-0.035 0.67 0.588 0.69 1.2 0.72zm-5.76 1.2c1.019 0.61 2.942 0.068 3.36-0.72-0.974-0.47-3.135-0.33-3.36 0.72zm4.56-0.24c-2.806 1.04 0.371 0.24 0 0zm64.56 2.88c2.402-0.158 4.614-0.506 5.521-2.16-1.46 0.14-4.2 1.08-5.52 2.16zm-5.28 0.24c-0.684 0.284-1.892 0.031-1.92 0.96 2.882-0.559 5.929-0.952 7.92-2.4-2.48-0.19-4.76 0.92-6 1.44zm-52.32-0.24c-0.515-0.525-1.322-0.759-2.4-0.72-0.009 0.96 2.291 2.11 2.4 0.72zm1.44 0.48c0.077 1.044 1.402 0.839 2.4 0.96 0.317-1.52-1.597-1.26-2.4-0.96zm47.76 0.24c-0.026-0.293-0.071-0.568-0.479-0.479-2.222 0.657-5.476 0.284-6.72 1.92 2.41-0.47 5.7-0.06 7.2-1.44zm-43.92 0.96c1.352-0.004 3.82 0.927 4.08-0.72-1.22-0.38-3.677-0.46-4.08 0.72zm4.8-0.24c0.313 0.317 1.271 0.053 1.44-0.479-0.69-0.05-1.22 0.06-1.44 0.48zm0.72 0.24c0.46 1.446 3.166 0.545 3.36-0.479-0.98-0.65-2.12 0.6-3.36 0.48zm4.08 0.48c0.295-0.505 1.445-0.155 1.68-0.721-0.56-0.69-2.5 0.08-1.68 0.72zm1.92 0.24c1.169 0.599 3.118 0.145 3.36-0.96-1.14-0.24-2.86-0.1-3.36 0.96zm18.96 0c0.705-0.234 4.719 0.923 4.32-1.199-1.43 0.41-3.86-0.18-4.32 1.2zm-13.92 0.24c1.59 0.574 4.273 0.314 4.56-1.2-2-0.08-3.54 0.3-4.56 1.2zm6.24-0.72c0.547 0.067 0.901-0.058 0.96-0.48-0.55-0.07-0.9 0.06-0.96 0.48zm0.48 0.72c2.087 0.088 4.113 0.113 4.8-1.2-2.07-0.07-3.79 0.21-4.8 1.2z"/>
	<path d="m35.28 201.84c-0.204 0.356-0.773 0.348-1.2 0.48-0.549-0.19 0.748-0.5 1.2-0.48z"/>
	<path d="m152.4 218.64c-0.042-0.758-0.949-0.65-1.681-0.72-0.493-0.378 2.337-0.378 2.641 0-0.623 0.258-0.717 1.044-1.44 1.2-0.09-0.41 0.19-0.45 0.48-0.48z"/>
	<path d="m204 0.24c-0.03 1.563-0.14 1.727-0.24 3.36 1.205-0.635-0.047-3.728 2.16-3.36-0.024 1.153-0.554 2.316-0.96 3.36-2.096 5.386-4.445 10.902-6.72 16.56-3.279 8.157-6.487 16.368-10.8 23.76 0.418 0.701 1.001 1.239 0.96 2.4 0.869-1.051 0.852-2.988 2.159-3.6-0.131-0.957-0.131-0.723 0-1.68 3.479-5.572 6.27-12.238 8.881-19.2 0.577-1.541 1.332-2.511 1.199-4.8 2.57-5.19 4.479-11.041 6.48-16.8 0.814 0.065 1.945-0.186 2.4 0.24-0.871 3.083-2.863 5.544-4.08 8.4-1.231 2.888-2.443 5.848-3.12 9.36 1.073-0.501 1.237-1.867 1.68-2.88 0.779-1.786 1.214-3.447 2.16-5.76 0.133-0.325 0.631-0.665 0.72-0.96 0.456-1.515 0.059-3.204 1.92-3.36 0.043 4.085-1.921 7.549-3.6 10.8-1.694 3.279-3.31 6.635-5.28 9.6 0.452 2.465-1.555 3.438-0.72 5.52-1.191 1.689-1.376 4.384-3.12 5.52 0.171 2.25-1.776 2.384-2.16 4.08 0.32 0.74 1.067-0.447 1.44 0.24 0.236 3.39-1.071 5.416-2.4 7.44-0.602 0.917-1.08 2.405-2.4 2.4 1.73-2.59 3.587-5.054 4.08-8.88-3.421 0.749-1.965 7.622-5.279 7.68-0.065-2.726 2.674-3.857 1.92-6.48-2.255 1.655-2.506 4.914-4.08 7.2-0.765 1.11-1.982 1.591-2.4 2.88 0.649 0.634 1.593-0.476 2.641-0.24-0.417 1.503-2.931 0.91-3.841 1.92 0.014 0.787 0.683 0.917 0.48 1.92-0.586 0.534-1.36 0.879-2.64 0.72-0.291 0.669-0.531 1.389-1.2 1.68-0.96 0-1.44-0.479-2.4-0.48-0.498 0.062-0.065 1.055-0.479 1.2-2.164 0.084-3.01-1.151-4.32-1.92-0.662 0.678 1.068 1 0.72 2.16-1.885 1.02-2.572-1.061-3.84-1.44-0.623 0.203 0.462 1.053-0.24 1.44-1.427-0.253-1.238-2.122-2.399-2.64-0.356 0.443-0.46 1.14-0.48 1.92-1.271-0.45-1.396-2.916-1.2-4.08 0.673 0.127 0.444 1.156 0.721 1.68 0.553 0.073 0.267-0.693 0.72-0.72 1.069 0.529 1.002 1.123 2.4 0.96 0.99 0.929 1.978 1.862 3.359 2.4-0.175-1.505-1.634-1.726-1.68-3.36 2.358 0.441 3.259 2.341 5.52 2.88 0.528-1.016-1.619-1.415-1.68-2.64 1.874 0.315 3.548 2.012 5.28 1.68-0.155-1.125-1.606-0.954-2.16-1.68 1.183-1.279 3.561 1.016 5.28 0-0.215-1.682-2.186-0.179-2.641-1.68-0.221-0.941 1.267-0.174 1.44-0.72 1.139-1.149 2.343-2.723 3.36-4.32 0.944-1.483 2.466-3.225 1.68-5.04-2.42 1.5-3.262 4.579-5.76 6 0.492-3.107 3.396-3.804 3.84-6.96-2.713 1.138-3.15 5.795-5.76 6.24 0.259-2.718 3.659-3.518 2.88-6.48-2.983 0.43-2.941 4.248-4.32 6.48-0.337 0.545-0.997 1.592-1.92 1.44 0.325-2.372 3.439-5.056 1.439-7.44-1.755 0.895-4.625 2.928-3.359 5.28-0.281 1.047-1.756-0.899-1.44 1.2-0.864-0.084-1.156-0.367-1.92 0-0.448 0.427 0.195 0.61 0 1.44h-1.2c-0.717 0.631 1.097 0.91 0.24 1.68-0.857-0.475-1.296-0.11-1.439 0.72-0.795-0.405-1.524-0.875-2.16-1.44-0.633 0.27 0.322 0.93 0.479 1.2-0.43 1.107-1.049-0.565-1.92-0.48-0.547 0.253 1.068 1.086 0.24 1.68-1.125-0.395-1.938-1.101-2.64-1.92-0.82 0.1-1.368-0.073-1.2-0.96 1.209-0.17 1.194 0.885 2.16 0.96 0.369-0.155-0.491-1.09-0.721-1.44 0.347-1.047 1.154 0.264 1.681 0.48 0.599-0.166-0.445-0.64-0.24-1.2 1.515-0.235 1.335 1.225 2.64 1.2 0.478-0.65-1.463-0.928-1.2-2.16-5.35-0.827-11.332 1.106-16.079 2.4 0.269-1.438 2.392-1.752 3.84-2.16 2.884-0.813 6.45-1.627 10.56-1.44 2.856 0.13 5.65 0.254 7.92 0 0.194-0.045 0.239-0.241 0.48-0.24 0.703-0.896 1.106-2.094 1.92-2.88 0.341-3.609 0.834-6.409 1.2-10.56 0.078-0.889 0.601-1.707 0.72-2.64 0.226-1.776 0.06-4.027 0.24-6.24 0.085-1.043 0.364-3.438 0.479-4.8 0.091-1.069-0.602-2.817 0.96-3.36 0.101 3.234-0.9 7.409-0.96 11.28 0.968-1.746 1.02-5.354 1.44-7.44 1.1 0.637 0.005 3.763-0.24 4.8-1.062 4.482-1.048 9.772-2.16 14.16-0.319 1.262-1.162 2.334-0.96 3.6 1.185-0.336 1.525-1.515 2.88-1.68 0.885-0.004 1.061 0.699 1.44 1.2 1.06-0.3 1.555-1.165 2.399-1.68-0.079-1.039 0.331-1.589 0.96-1.92-0.274-2.909 2.275-6.129 2.16-8.88 1.031-0.841 1.183-3.835 1.44-5.28 0.067-0.381 0.067-0.474 0.479-0.48-0.214-1.025-0.17-2.558 0.721-3.12 0.345-1.175-0.22-3.26 0.96-3.6-0.244 3.791-1.608 7.642-2.641 11.52-1.032 3.88-1.848 7.88-3.359 11.28 0.098 0.702 0.821 0.779 1.199 1.2 1.133-1.027 2.734-1.586 3.36-3.12-0.756-0.759-0.308 0.911-1.2 0.72 1.188-3.772 2.359-7.561 3.12-11.76-0.885 1.839-1.262 4.124-1.92 6.24-0.629 2.021-1.104 4.36-2.64 5.52-0.041-0.601 0.368-0.751 0.72-0.96 0.416-3.241 1.814-5.908 2.64-9.12 0.704-2.737 1.143-5.654 1.681-8.4 0.23-1.18 0.194-2.515 1.439-3.36-0.526 3.394-1.434 6.407-1.92 9.84 2.062-3.218 1.116-9.444 4.08-11.76 0.305 1.221-0.654 2.02-0.96 3.12-0.42 1.511-0.341 3.283-0.72 4.8-1.122 4.49-3.256 8.715-3.36 13.2 5.187-12.414 9.789-25.411 14.64-38.16h1.44zm-27.36 31.44c0.798 0.295 0.587-1.622 0.24-1.68 0.12 0.757-0.43 0.848-0.24 1.68zm10.08 12c0.327-1.388 2.335-4.032 1.92-4.56-0.64 1.34-2.32 2.536-1.92 4.56zm4.08-1.68c0.377-0.023 0.832 0.032 0.721-0.48h-0.48c0 0.241-0.19 0.286-0.24 0.48zm1.2 0.96h0.48c0.013-0.307 0.308-0.333 0.239-0.72h-0.479c-0.01 0.307-0.31 0.332-0.24 0.72zm-6.96 0.72h0.48v-0.48h-0.48v0.48zm-18.24 7.44c0.253-0.607-0.81-1.064-0.96-0.48 0.36 0.125 0.6 0.355 0.96 0.48z"/>
</g>
<metadata><rdf:RDF><cc:Work><dc:format>image/svg+xml</dc:format><dc:type rdf:resource="http://purl.org/dc/dcmitype/StillImage"/><cc:license rdf:resource="http://creativecommons.org/licenses/publicdomain/"/><dc:publisher><cc:Agent rdf:about="http://openclipart.org/"><dc:title>Openclipart</dc:title></cc:Agent></dc:publisher><dc:title>bird on a cocktail</dc:title><dc:date>2007-12-17T03:27:50</dc:date><dc:description>Caricature, the Wit &amp; Humor of a Nation in Picture, Song &amp; Story, 1911</dc:description><dc:source>http://openclipart.org/detail/10083/bird-on-a-cocktail-by-johnny_automatic-10083</dc:source><dc:creator><cc:Agent><dc:title>johnny_automatic</dc:title></cc:Agent></dc:creator><dc:subject><rdf:Bag><rdf:li>alcohol</rdf:li><rdf:li>animal</rdf:li><rdf:li>bird</rdf:li><rdf:li>clip art</rdf:li><rdf:li>clipart</rdf:li><rdf:li>drink</rdf:li><rdf:li>externalsource</rdf:li><rdf:li>image</rdf:li><rdf:li>media</rdf:li><rdf:li>png</rdf:li><rdf:li>public domain</rdf:li><rdf:li>svg</rdf:li></rdf:Bag></dc:subject></cc:Work><cc:License rdf:about="http://creativecommons.org/licenses/publicdomain/"><cc:permits rdf:resource="http://creativecommons.org/ns#Reproduction"/><cc:permits rdf:resource="http://creativecommons.org/ns#Distribution"/><cc:permits rdf:resource="http://creativecommons.org/ns#DerivativeWorks"/></cc:License></rdf:RDF></metadata></svg>
