<?xml version="1.0" encoding="UTF-8" standalone="no"?>
<!-- Created with Inkscape (http://www.inkscape.org/) -->

<svg
   xmlns:dc="http://purl.org/dc/elements/1.1/"
   xmlns:cc="http://creativecommons.org/ns#"
   xmlns:rdf="http://www.w3.org/1999/02/22-rdf-syntax-ns#"
   xmlns:svg="http://www.w3.org/2000/svg"
   xmlns="http://www.w3.org/2000/svg"
   xmlns:sodipodi="http://sodipodi.sourceforge.net/DTD/sodipodi-0.dtd"
   xmlns:inkscape="http://www.inkscape.org/namespaces/inkscape"
   width="48mm"
   height="52mm"
   viewBox="0 0 48 52"
   version="1.1"
   id="svg8"
   sodipodi:docname="052.svg"
   inkscape:version="0.92.4 (5da689c313, 2019-01-14)">
  <defs
     id="defs2" />
  <sodipodi:namedview
     id="base"
     pagecolor="#ffffff"
     bordercolor="#666666"
     borderopacity="1.0"
     inkscape:pageopacity="0.0"
     inkscape:pageshadow="2"
     inkscape:zoom="0.98994949"
     inkscape:cx="598.93051"
     inkscape:cy="393.87792"
     inkscape:document-units="mm"
     inkscape:current-layer="layer1"
     showgrid="false"
     width="50mm"
     inkscape:window-width="1920"
     inkscape:window-height="1133"
     inkscape:window-x="0"
     inkscape:window-y="0"
     inkscape:window-maximized="1" />
  <metadata
     id="metadata5">
    <rdf:RDF>
      <cc:Work
         rdf:about="">
        <dc:format>image/svg+xml</dc:format>
        <dc:type
           rdf:resource="http://purl.org/dc/dcmitype/StillImage" />
        <dc:title></dc:title>
      </cc:Work>
    </rdf:RDF>
  </metadata>
  <g
     inkscape:label="Layer 1"
     inkscape:groupmode="layer"
     id="layer1"
     transform="translate(0,-245)">
    <g
       id="g2752">
      <path
         sodipodi:nodetypes="cssscsssccsssccssscc"
         inkscape:connector-curvature="0"
         d="m 45.560508,294.72813 c 1.268596,-3.44861 0.08716,-16.25142 -2.964398,-16.25142 -3.051609,0 -6.342968,7.04374 -6.342968,-1.55332 0,-8.59709 3.291359,-4.98729 6.342968,-4.98729 3.051591,0 1.381938,-13.94093 2.964398,-16.28559 -7.411014,-2.44236 -18.544987,1.00135 -18.544987,-1.73407 0,-2.73543 7.894915,-6.76044 -1.695817,-6.76044 -9.590732,0 -7.947741,3.79685 -4.45533,6.76044 2.432689,2.06435 -11.591716,5.17289 -18.898122,1.73407 v 0 c -1.66093431,2.03203 -0.5056989,16.99388 2.5459096,16.99388 3.0515967,0 4.9392315,-5.71022 4.9392315,2.88684 0,8.59708 -1.8876348,2.85757 -4.9392315,2.85757 -3.0516085,0 -1.307826,14.09237 -2.5459096,16.33933 v 0 c 4.6689509,3.52675 21.167176,-0.55482 18.483966,-2.18347 -3.051591,-1.85225 -6.709142,-6.30615 2.881588,-6.30615 9.590729,0 3.587805,3.57073 3.587805,6.30615 0,2.73544 13.915283,-0.96229 18.640897,2.18347 z"
         style="fill:#ffffff;stroke:#000000;stroke-width:0.46145961"
         id="path2460" />
      <path
         id="path2457"
         d="m 12.337017,291.68987 c -1.840684,0.31139 -1.315176,2.98881 -2.6486337,3.80759 -0.153626,-1.63094 0.075536,-2.64394 -0.9932188,-3.64201 -0.2059353,0.90652 0.6200625,2.11072 0.3310223,3.64201 -0.3132107,0.18342 -0.7821944,0.211 -1.1588052,0.33102 -0.020714,0.097 -0.041557,0.19379 -0.062227,0.29079 0.8131944,0.0113 1.6544472,-0.0186 2.5005244,-0.0821 0.951745,-1.32426 2.135216,-2.59909 2.031338,-4.34729 z"
         style="fill:#000000;stroke:none;stroke-width:0.46145961"
         inkscape:connector-curvature="0" />
      <path
         id="path2454"
         d="m 3.549923,279.04591 c -0.056042,0.0931 -0.1090604,0.1945 -0.1589574,0.30496 1.3009353,1.76589 3.1934457,2.94011 5.6352212,3.56516 -0.1362426,0.34781 -0.6813119,0.64541 -0.3310223,0.99322 0.936649,-0.22216 2.0519705,-0.26549 2.4830475,-0.99322 -0.414854,-0.50656 -1.2084048,0.57001 -1.4898287,0.16559 0.1784577,-0.70439 1.2430677,-0.52287 1.1588057,-1.48998 -0.8598372,-0.16389 -1.0445998,0.7172 -1.8210022,0.82778 -1.9764152,0.28181 -3.8473186,-2.12641 -5.4762638,-3.37351 z"
         style="fill:#000000;stroke:none;stroke-width:0.46145961"
         inkscape:connector-curvature="0" />
      <path
         id="path914-3"
         d="m 5.2187474,271.49311 c -0.5354688,0.13111 -0.989428,0.48352 -1.3406641,0.92512 0.1675597,0.12242 0.342323,0.19724 0.5240307,0.21892 0.2741948,-0.37929 0.730864,-0.57617 0.8166334,-1.14389 z"
         style="fill:#000000;stroke:none;stroke-width:0.46145961"
         inkscape:connector-curvature="0" />
      <path
         id="path914"
         d="m 21.252934,257.10274 c -0.655499,0.002 -1.365186,0.104 -2.128521,0.31927 -0.336716,0.76697 -1.236054,0.97124 -2.152174,1.15881 -0.404427,-0.14734 -0.717688,-0.38582 -1.324242,-0.33103 -0.465509,0.0311 -0.453154,0.54019 -0.827783,0.6622 -0.514676,-0.39184 -0.771308,-0.18086 -1.324392,-0.33117 -0.256757,0.29516 -0.45495,0.64853 -0.662045,0.99336 -4.5921937,-3.43918 -11.8189542,0.30831 -10.92601,6.62166 -0.09096,0.0139 -0.1768655,0.0229 -0.2597558,0.0288 0.086137,0.5668 0.1843722,1.11988 0.2945605,1.64879 0.205032,-0.0752 0.4136265,-0.13959 0.6273911,-0.18759 1.6041221,0.58901 1.0520953,2.40105 0.8277829,3.47642 1.3985169,-0.14435 1.8710538,-1.53629 1.9864376,-2.4832 0.4597165,-0.29616 1.5653592,0.37902 1.6554154,-0.82763 -1.8694893,-0.72393 -3.4631932,-1.72401 -4.1386129,-3.642 0.7961018,-2.48101 2.2478961,-4.72669 4.6353728,-4.9664 2.3212592,-0.23308 4.1578094,1.89616 6.4562244,1.821 0.634197,-0.57973 1.514182,-0.91373 2.152024,-1.48983 0.766136,0.23425 1.020716,0.44496 1.655415,0.49661 0.466833,-0.0298 0.206495,-0.78685 0.827782,-0.66219 4.279648,1.13596 6.049348,4.07714 8.277075,7.44944 -0.955688,2.03818 2.110662,3.37394 3.476567,4.63522 -1.366567,0.67973 -2.666231,1.18857 -2.317761,2.81437 0.301454,1.40663 3.194868,2.27656 3.642003,3.47642 -1.113449,2.23302 -3.780806,2.38961 -5.628441,1.65542 -1.180331,-0.46899 -1.863255,-2.01833 -3.145394,-1.82101 -0.611851,1.41772 1.096335,1.85885 2.152175,2.15203 1.218901,0.82457 1.300377,2.57617 2.979657,2.81422 1.168079,0.16554 2.92895,-1.43986 3.476567,0.16559 -1.164437,0.16587 -2.580037,0.80969 -3.642003,0.66219 -1.10269,-0.15313 -1.814609,-1.21469 -2.648785,-1.48983 -4.764028,-1.57101 -5.262249,1.59828 -7.946051,3.31083 -1.238434,0.79031 -2.182447,0.92042 -2.648785,2.31761 v 1.48983 c -0.504084,-0.007 -0.643756,0.3496 -0.993219,0.49676 -0.224808,1.35068 -1.622079,2.87129 -0.827632,3.80744 0.894433,-0.65059 1.120762,-1.96928 1.820851,-2.81422 0.512524,0.3152 0.562559,1.09292 1.324392,1.15881 0.149485,-0.29186 0.370342,-0.51271 0.662196,-0.6622 -0.458888,-1.17735 -1.139957,-2.70537 -0.662196,-4.3042 2.875667,-0.37413 3.442329,-4.28636 6.456223,-3.80744 1.771654,0.28159 2.52044,2.48593 4.800809,2.15203 0.525768,-0.077 1.09538,-0.67716 1.655415,-0.82764 1.887533,-0.50689 3.134544,-0.0411 3.973026,-1.821 0.01738,-0.67955 -0.661655,-0.66275 -0.496609,-1.48998 0.623937,0.12731 0.791339,-0.20185 1.324392,-0.16543 1.413413,-1.92081 2.010053,-3.48825 1.821002,-6.1252 -0.696111,-3.21636 -4.865411,-3.3134 -6.125201,-5.95962 -0.133925,-0.28109 0.08708,-0.72338 0,-0.99322 -0.514842,-1.59452 -2.390096,-2.06275 -2.814221,-3.80759 0.163227,-0.38853 0.290297,-0.8132 0.331023,-1.32424 -0.592509,-3.14939 -2.49363,-5.46101 -5.651945,-5.45125 z m -0.0024,1.04279 c 2.417675,-0.0181 4.305541,2.29497 4.330114,5.23609 -1.155827,-0.27877 -1.206789,-1.66248 -1.655414,-2.64863 -1.536084,-0.49878 -2.678701,-1.68646 -4.80081,-1.98659 0.730774,-0.40801 1.449161,-0.5958 2.12611,-0.60087 z m 9.130923,14.83786 c 0.506565,0.20561 0.527977,0.48146 0.165436,0.82779 -0.518154,-0.11423 -0.215098,-0.44174 -0.165436,-0.82779 z m 3.476417,2.81422 c 1.03018,1.39421 -0.184022,4.89276 -2.152175,3.31098 0.367838,-1.14126 0.473604,-0.90281 0.496609,-2.15217 0.639,-0.29963 1.155623,-0.72012 1.655566,-1.15881 z m -4.769018,4.61473 c 0.651715,0.003 1.237558,0.25439 1.292601,0.84828 -0.900393,0.18989 -2.359886,0.37351 -3.145394,0.16558 0.06798,-0.61272 1.014876,-1.0181 1.852793,-1.01386 z"
         style="fill:#000000;stroke:none;stroke-width:0.46145961"
         inkscape:connector-curvature="0" />
      <path
         d="m 10.516086,262.38841 c -0.8792052,0.55556 -2.0555616,0.81381 -2.9797931,1.32435 0.3483034,1.12057 1.207478,2.48117 -0.1655441,3.14534 -0.5961242,0.29897 -0.9396282,-0.88119 -1.8209848,-0.82772 -0.1559423,-1.05816 -0.2863911,-2.14148 -0.331088,-3.31089 1.2895883,-1.13132 4.0078214,-2.09876 5.29741,-0.33108 z"
         id="path1604"
         inkscape:connector-curvature="0"
         style="clip-rule:evenodd;fill-rule:evenodd;stroke-width:0.16554406" />
      <path
         d="m 14.985776,284.07485 c 0.04669,0.26735 -0.15644,0.28506 -0.165545,0.49663 0.22812,0.32364 0.607714,-0.5953 1.324355,-0.33109 -0.338705,0.98565 -1.113781,1.53492 -1.986531,1.98653 -0.421308,-0.0202 -0.641979,-0.24103 -0.662176,-0.66218 -1.502311,-0.0488 -2.524547,-0.0454 -3.145338,-0.66217 1.15881,-1.26311 2.968207,-0.24335 4.635235,-0.82772 z"
         id="path1632"
         inkscape:connector-curvature="0"
         style="clip-rule:evenodd;fill-rule:evenodd;stroke-width:0.16554406" />
      <path
         d="m 3.8943233,287.05464 c 0.9200939,0.81233 1.2877675,2.39277 1.9865289,3.47643 0.3517812,0.54563 1.0099843,0.95071 0.6621762,1.65543 -1.2829665,-1.30945 -2.145451,-3.04104 -2.6487051,-5.13186 z"
         id="path1636"
         inkscape:connector-curvature="0"
         style="clip-rule:evenodd;fill-rule:evenodd;stroke-width:0.16554406" />
      <path
         d="m 21.276451,271.16224 c -1.946799,1.46755 -5.542415,0.29616 -4.635234,-1.98653 0.910493,-2.28864 4.588881,-0.33655 4.635234,1.98653 z"
         id="path1650"
         inkscape:connector-curvature="0"
         style="clip-rule:evenodd;fill-rule:evenodd;stroke-width:0.16554406" />
    </g>
  </g>
</svg>
