<?xml version="1.0" encoding="UTF-8" standalone="no"?>
<!-- Created with Inkscape (http://www.inkscape.org/) -->

<svg
   xmlns:dc="http://purl.org/dc/elements/1.1/"
   xmlns:cc="http://creativecommons.org/ns#"
   xmlns:rdf="http://www.w3.org/1999/02/22-rdf-syntax-ns#"
   xmlns:svg="http://www.w3.org/2000/svg"
   xmlns="http://www.w3.org/2000/svg"
   xmlns:sodipodi="http://sodipodi.sourceforge.net/DTD/sodipodi-0.dtd"
   xmlns:inkscape="http://www.inkscape.org/namespaces/inkscape"
   width="140mm"
   height="165mm"
   viewBox="0 0 140 165"
   version="1.1"
   id="svg8"
   inkscape:version="0.92.4 (5da689c313, 2019-01-14)"
   sodipodi:docname="054.svg">
  <defs
     id="defs2">
    <linearGradient
       id="linearGradient3478">
      <stop
         id="stop3480"
         style="stop-color:#000000;stop-opacity:0"
         offset="0" />
      <stop
         id="stop3486"
         style="stop-color:#000000;stop-opacity:0"
         offset=".66792" />
      <stop
         id="stop3482"
         style="stop-color:#000000;stop-opacity:.24561"
         offset="1" />
    </linearGradient>
    <clipPath
       id="clipPath5223"
       clipPathUnits="userSpaceOnUse">
      <path
         inkscape:connector-curvature="0"
         id="path5225"
         sodipodi:nodetypes="cccccccccc"
         style="fill:none;stroke:#000000;stroke-width:2"
         d="m 428.5,319.86 -4.78,-5.88 0.04,-6 1.51,-0.89 0.19,-60.29 c -13.25,1.75 -23.39,7.8 -30.04,19 l -32.05,53.82 -14.66,19.78 -3.61,8.22 35.27,0.11" />
    </clipPath>
    <clipPath
       id="clipPath5195"
       clipPathUnits="userSpaceOnUse">
      <path
         inkscape:connector-curvature="0"
         id="path5197"
         style="fill:none;stroke:#000000;stroke-width:2"
         d="m 508.97,308.78 c -1.13,10.2 -13.13,13.36 -21.88,13.25 -33.49,-0.12 -66.98,-0.24 -100.47,-0.34 6.31,36.53 13.16,75.73 -0.93,111.31 -10.14,25.47 -23.96,49.21 -35.29,74.16 -35.93,74.09 -72.71,147.71 -107.93,222.15 -6.55,18.9 9.12,41.07 28.94,41.53 13.69,1.08 27.79,-7.81 32.47,-20.53 -7.47,15.77 -28.78,23.16 -44.13,14.35 -16.33,-8.45 -22.34,-31.72 -11.28,-46.63 10,-15.17 33.62,-18.8 47.22,-6.15 9.43,7.97 13.84,21.59 10.06,33.59 43.16,-101.38 85.52,-203.16 129.2,-304.29 18.05,-35.52 54.23,-55.71 84.7,-79.24 9.57,-6.76 19.93,-14.87 21.17,-27.51 3.47,-22.42 -3.12,-45.6 -14.16,-65.15 -4.38,-7.23 -10.07,-13.9 -17.47,-18.12 -0.08,19.2 -0.15,38.41 -0.22,57.62 z m -77.53,30.84 c 7.19,0.88 16.19,-1.98 22.03,3.41 6.31,8.03 1.7,18.99 3.02,28.25 -0.2,10.47 1.11,21.31 -1.05,31.56 -4.36,8.78 -15.81,6.06 -23.69,6.04 -9.13,-0.41 -19.13,1.96 -27.75,-1.66 -8.16,-5.95 -4.03,-17.51 -4.81,-25.97 0.41,-11.79 -1.49,-24.05 1.15,-35.56 3.65,-7.69 13.1,-5.84 19.97,-5.89 3.71,-0.03 7.42,-0.14 11.13,-0.18 z" />
    </clipPath>
    <clipPath
       id="clipPath5106"
       clipPathUnits="userSpaceOnUse">
      <path
         inkscape:connector-curvature="0"
         id="path5108"
         sodipodi:nodetypes="csszz"
         style="fill:none;stroke:#000000;stroke-width:1px"
         d="M 87.043,306.39 C 73.125,334.73 -14.977,520.54 -18.017,526.6 -33.165,556.91 10.272,584.18 29.465,540.74 48.657,497.31 110.47,349.71 121.39,321.54 132.98,291.62 100.93,278.1 87.043,306.39 Z" />
    </clipPath>
    <clipPath
       id="clipPath5130"
       clipPathUnits="userSpaceOnUse">
      <path
         inkscape:connector-curvature="0"
         id="path5132"
         style="fill:none;stroke:#f21944"
         d="m 513.18,245.01 -0.2,63.78 c -0.67,6.56 -10.05,9.47 -19.68,9.22 l -103.38,-0.32 c 5.49,37.16 17.33,80.16 -4.89,125.7 L 250.29,719.53 c -2.98,6.12 -5.22,11.88 -5.24,18.74 -0.07,20.13 16.19,36.52 36.32,36.58 14.78,0.05 27.9,-8.58 33.32,-21.36 L 442.91,450.67 c 19.9,-46.99 66.27,-65.53 100.96,-96.94 22.96,-20.78 3.38,-98.39 -30.69,-108.72 z m -59.62,98.75 c 3.89,0.01 7.01,3.17 7.01,7.06 l -0.05,47.21 c -0.01,3.89 -3.14,7.02 -7.03,7.01 L 418.09,405 c -3.89,-0.01 -7.02,-3.17 -7.01,-7.06 l 0.05,-47.22 c 0.01,-3.89 3.14,-7.01 7.02,-7.01 z M 283.01,708.2 c 15.51,0.05 28.03,12.65 27.98,28.15 -0.05,15.5 -12.65,28.05 -28.15,28.01 -15.5,-0.05 -28.06,-12.68 -28.01,-28.19 0.05,-15.5 12.68,-28.02 28.18,-27.97 z" />
    </clipPath>
    <clipPath
       id="clipPath5259"
       clipPathUnits="userSpaceOnUse">
      <path
         inkscape:connector-curvature="0"
         id="path5261"
         style="fill:none;stroke:#ffffff;stroke-width:2"
         d="m 407.31,251.56 c -13.17,2.47 -22.13,13.46 -27.64,24.92 -13.58,22.73 -26.25,46.19 -42.79,66.86 6.32,1.35 13.85,-0.71 20.56,0.54 10.96,1.43 18.91,-7.68 28.21,-11.9 7.52,-4.36 15.05,-8.72 22.57,-13.07 -3.78,-4.42 -2.94,-10.42 -1.25,-15.35 0.85,-17.26 0.26,-34.98 0.34,-52 z" />
    </clipPath>
  </defs>
  <sodipodi:namedview
     id="base"
     pagecolor="#ffffff"
     bordercolor="#666666"
     borderopacity="1.0"
     inkscape:pageopacity="0.0"
     inkscape:pageshadow="2"
     inkscape:zoom="0.7"
     inkscape:cx="316.53227"
     inkscape:cy="629.78394"
     inkscape:document-units="mm"
     inkscape:current-layer="layer1"
     showgrid="false"
     inkscape:window-width="1920"
     inkscape:window-height="1133"
     inkscape:window-x="0"
     inkscape:window-y="0"
     inkscape:window-maximized="1"
     inkscape:snap-global="false" />
  <metadata
     id="metadata5">
    <rdf:RDF>
      <cc:Work
         rdf:about="">
        <dc:format>image/svg+xml</dc:format>
        <dc:type
           rdf:resource="http://purl.org/dc/dcmitype/StillImage" />
        <dc:title></dc:title>
      </cc:Work>
    </rdf:RDF>
  </metadata>
  <g
     inkscape:label="Layer 1"
     inkscape:groupmode="layer"
     id="layer1"
     transform="translate(0,-132)">
    <g
       id="g941"
       transform="translate(-21.922619,62.366071)">
      <path
         id="path815"
         transform="scale(0.26458333)"
         d="m 343.4707,335.10547 c -2.48155,0.0793 -4.87615,0.27644 -7.08984,0.7832 v 44.89453 c 0.24694,0.14356 0.49899,0.28239 0.74414,0.42774 -0.45252,14.39448 0.73487,30.40914 -4.95312,39.56054 -18.0222,-0.16441 -48.90421,2.80624 -59.33985,19.7793 -2.30554,8.35257 7.56255,4.52696 6.5918,11.53711 -10.76933,4.61363 -7.8415,22.92984 -14.83399,31.32031 7.85201,7.52841 13.03066,17.73449 23.08204,23.07618 14.47031,-2.01483 20.23274,-12.73248 36.25781,-13.1875 11.32802,9.39912 3.18185,30.56176 13.19531,42.85546 -7.12394,7.72056 -9.79014,19.88019 -21.43164,23.07813 -27.56797,-12.29118 -40.87704,-47.67089 -74.18359,-49.45313 -23.15154,-1.24123 -46.74801,18.44775 -74.17188,8.24219 -9.77835,-22.63582 -24.93549,-39.89528 -47.79883,-49.45117 -5.2709,5.00043 -17.243,10.79982 -13.18554,19.7793 3.31422,5.47819 14.49322,3.08994 19.77929,6.59375 17.08431,11.14095 5.89673,50.06134 26.3711,52.74609 7.34387,0.96317 13.11758,-7.45792 21.42968,-8.24414 17.23852,-1.63056 38.86623,14.34715 60.98633,6.59375 8.84046,5.99898 15.86261,13.80774 23.08008,21.42969 3.95128,8.94663 18.77165,14.93279 16.48633,24.71875 -30.93276,-2.68729 -70.68548,-28.9032 -95.60156,-11.53321 2.26509,30.66732 12.08655,62.19979 19.77929,90.66016 2.01988,7.48543 6.79404,10.33622 6.5918,16.48438 -0.13398,4.07259 -4.61995,10.70727 -6.5918,16.48632 -2.79093,8.15535 -2.50015,18.26479 -4.94726,23.07813 -4.22684,8.30706 -17.95177,9.51069 -16.48047,21.42773 1.33479,7.40708 14.27875,5.35818 18.1289,1.64453 1.19323,5.94845 6.91821,7.36905 14.83594,6.58789 10.58226,-15.8304 3.87212,-31.71814 16.48438,-47.79882 36.23146,-9.58878 -0.70975,-27.53838 -4.94922,-49.45118 -3.66815,-18.99042 2.76627,-28.86919 -1.64258,-41.21093 46.02751,10.5696 82.3717,30.81103 125.26953,44.50781 -7.76605,30.49289 -6.38328,59.36907 4.94727,85.71094 11.1637,25.95258 36.12806,43.49086 39.55859,64.28125 5.13691,31.11477 -22.19777,56.19095 -54.39453,42.86328 -14.70039,-6.08243 -27.81572,-46.31995 0,-51.10547 3.14232,3.73893 -3.70537,16.51921 6.59375,16.48633 22.44622,-15.8835 -1.83122,-31.82719 -19.78516,-24.72852 -11.34319,4.48468 -19.12362,22.97818 -16.48437,39.56445 7.10371,44.53599 77.67506,48.20944 97.25195,9.88477 15.70148,-66.44375 -50.86053,-92.31933 -39.55273,-161.53125 1.66343,-10.20809 8.53733,-14.64266 9.88476,-28.02344 13.11785,-15.50936 29.18215,-37.35705 36.26563,-59.3457 0.97837,-3.0412 -1.07188,-8.79753 0,-13.18359 1.36766,-5.61725 6.04066,-8.5801 6.59179,-13.1836 0.66486,-5.54899 -2.93087,-10.90215 -3.29492,-18.13476 -0.5966,-11.79319 4.6373,-25.89939 3.29492,-36.26172 -1.97692,-15.30206 -13.93093,-26.8034 -14.83593,-42.86133 -0.71037,-12.66282 5.09619,-26.25947 4.93945,-41.20508 -0.16441,-16.94275 -8.67097,-34.73323 -1.64063,-51.09961 1.61934,-0.16875 3.25894,-0.20308 4.91407,-0.1289 v -35.01758 l -54.47852,-10.94336 z m 20.10742,46.01367 c 4.96826,-0.021 9.63371,0.2612 13.09961,1.74024 -1.46624,24.14756 3.66623,44.92623 -1.64257,64.2832 h -0.008 c -18.6188,-6.77507 -8.93573,-49.96104 -16.48437,-65.93555 1.68997,-0.0411 3.3791,-0.0809 5.03515,-0.0879 z"
         style="stroke-width:2.52801204"
         inkscape:connector-curvature="0" />
      <g
         style="fill:#000000"
         transform="matrix(0.35562399,0.0658982,-0.0658982,0.35562399,35.880027,19.931577)"
         inkscape:label="04"
         id="layer3">
        <path
           sodipodi:nodetypes="cccccc"
           inkscape:connector-curvature="0"
           id="path5874"
           d="m 356.24998,202.77754 -35.9182,-15.85679 -13.96332,31.38894 32.37414,-3.86692 c 7.65873,-0.90217 13.37224,-4.91882 17.50732,-11.6651 z"
           style="fill:#000000;fill-opacity:1;fill-rule:evenodd;stroke:none;stroke-width:2.44354367" />
        <path
           sodipodi:nodetypes="cccccccccccccccccccccccccc"
           inkscape:connector-curvature="0"
           id="path5878"
           style="fill:#000000;fill-rule:evenodd;stroke:none;stroke-width:2.44354367"
           d="m 370.89702,169.8394 -34.54896,-15.23966 c -3.70966,-1.21642 -7.54103,3.1576 -9.72318,8.42694 l -24.70366,55.99897 C 283.14113,207.11396 262.73,190.36203 232.74888,191.42307 l -206.17201,6.43707 c -4.027588,0.13904 -7.682435,-0.0336 -11.397994,-1.67497 C 4.2734122,191.378 -0.68034282,178.63945 4.1311992,167.73599 c 3.53204,-8.00596 11.3549358,-13.0275 19.5722938,-12.88406 l 219.035247,3.51019 c 30.20718,0.54279 51.39438,-20.07906 76.73278,-31.28581 16.76557,-7.41952 54.03602,21.8476 51.4255,42.76309 z m -67.76401,8.48794 c 0.93065,-2.10663 -0.0268,-4.55473 -2.13217,-5.49082 l -25.54853,-11.3358 c -2.10663,-0.93065 -4.55298,0.007 -5.48363,2.11598 l -8.49393,19.16003 c -0.93065,2.10663 0.0268,4.56017 2.13217,5.49083 l 25.55391,11.33821 c 2.1067,0.93058 4.54761,-0.0134 5.48121,-2.11053 z m -262.553791,4.55997 c 3.707697,-8.40088 -0.09806,-18.20648 -8.49446,-21.90922 -8.395443,-3.70528 -18.217227,0.0926 -21.925474,8.4872 -3.7052168,8.39538 0.106749,18.22985 8.508905,21.93501 8.395368,3.70529 18.208228,-0.1162 21.911029,-8.51299 z" />
        <rect
           transform="rotate(113.98178)"
           rx="5.0974097"
           y="-344.05444"
           x="38.655899"
           height="25.387758"
           width="22.6325"
           id="rect1493"
           style="opacity:1;fill:#000000;fill-opacity:1;stroke:none;stroke-width:42.80103302;stroke-linecap:round;stroke-linejoin:round;stroke-miterlimit:4;stroke-dasharray:171.20412688, 85.6020633;stroke-dashoffset:0;stroke-opacity:1" />
      </g>
    </g>
  </g>
</svg>
