<?xml version="1.0" encoding="UTF-8" standalone="no"?>
<svg
   xmlns:dc="http://purl.org/dc/elements/1.1/"
   xmlns:cc="http://creativecommons.org/ns#"
   xmlns:rdf="http://www.w3.org/1999/02/22-rdf-syntax-ns#"
   xmlns:svg="http://www.w3.org/2000/svg"
   xmlns="http://www.w3.org/2000/svg"
   xmlns:sodipodi="http://sodipodi.sourceforge.net/DTD/sodipodi-0.dtd"
   xmlns:inkscape="http://www.inkscape.org/namespaces/inkscape"
   id="Layer_1"
   xml:space="preserve"
   overflow="visible"
   viewBox="0 0 408.417 448.633"
   version="1.1"
   enable-background="new 0 0 408.417 448.633"
   sodipodi:docname="058.svg"
   inkscape:version="0.92.4 (5da689c313, 2019-01-14)"><defs
   id="defs2256">
	
	
	
	
	
	
	
	
	
	
	
	
	
	
	
	
	
	
	
	
	
	
	
	
	
	
	
	
	
	
	
	
	
	
	
	
	
	
	
	
	
	
	
	
	
	
	
	
	
	
	
	
	
	
	
	
	
	
	
	
	
	
	
	
	
	
	
	
	
	
	
</defs><sodipodi:namedview
   pagecolor="#ffffff"
   bordercolor="#666666"
   borderopacity="1"
   objecttolerance="10"
   gridtolerance="10"
   guidetolerance="10"
   inkscape:pageopacity="0"
   inkscape:pageshadow="2"
   inkscape:window-width="1920"
   inkscape:window-height="1013"
   id="namedview2254"
   showgrid="false"
   inkscape:zoom="1.8567515"
   inkscape:cx="226.38985"
   inkscape:cy="172.38664"
   inkscape:window-x="0"
   inkscape:window-y="0"
   inkscape:window-maximized="1"
   inkscape:current-layer="Layer_1" />
<g
   id="g2402"><path
     d="m 275.5,18.317 c 7.684,0.424 19.018,-6.092 23.888,2.389 3.629,-1.244 8.848,1.403 11.943,-1.592 3.012,2.031 5.352,4.734 8.759,6.37 -1.338,5.343 -7.657,1.898 -12.74,2.389 -2.233,-2.328 3.139,-1.541 2.389,-4.777 -2.766,0.153 -3.023,2.816 -5.573,3.185 -2.276,-2.767 -7.574,-2.511 -10.352,-4.777 -2.508,-0.385 -1.803,2.444 -4.777,1.593 -10.509,-2.044 -18.966,1.15 -29.461,0 -4.4,4.889 -10.868,7.71 -13.536,14.332 3.549,0.362 6.334,-1.031 8.759,3.185 5.003,-0.444 7.401,-5.895 11.943,-2.389 -0.79,4.761 -5.884,5.922 -8.759,8.758 -1.173,1.158 -1.101,3.288 -2.389,4.778 -1.437,1.662 -4.363,2.525 -5.573,3.981 -1.348,1.622 -2.587,4.346 -3.981,6.37 -1.252,1.815 -4.085,3.567 -3.185,6.37 6.071,1.03 3.327,-6.759 10.351,-4.777 1.258,-3.116 -2.067,-1.648 -2.389,-3.185 7.137,-11.176 16.771,-19.856 28.665,-26.276 3.686,1.572 6.674,-0.843 9.555,0 5.543,1.623 7.531,8.729 10.352,13.536 -5.061,4.844 -11.656,8.728 -15.129,15.925 -0.748,1.55 -2.732,2.417 -0.796,3.981 2.718,0.341 5.398,-2.267 7.166,-3.981 0.945,-0.917 0.825,-2.163 1.592,-3.185 6.606,-8.808 16.866,-14.641 26.276,-20.702 1.963,-0.105 3.837,-0.121 4.777,0.796 3.615,-3.653 12.2,-4.042 15.925,0 v 5.574 c 6.546,8.583 5.939,24.316 18.313,27.072 0.386,3.04 -0.226,5.083 -1.593,6.37 -0.451,3.001 1.961,14.207 -1.592,16.721 -2.903,0.986 -0.82,-2.466 -1.593,-3.981 -0.56,-1.096 -2.099,-1.036 -2.389,-2.389 -0.635,-2.959 0.458,-6.411 0,-10.351 -1.081,-2.104 -4.672,-1.698 -6.37,-3.185 -0.559,-2.947 2.792,-1.986 3.981,-3.185 -0.393,-3.588 -3.466,-4.497 -3.981,-7.962 -6.347,-0.242 -10.646,1.563 -14.332,3.981 -0.59,2.712 2.935,1.312 3.185,3.185 4.481,11.91 11.791,17.966 11.147,32.646 0.698,2.556 -2.065,1.651 -2.389,3.185 0.173,7.259 2.519,12.344 5.573,16.721 0.059,9.559 1.595,27.707 0.797,38.219 0.01,1.583 2.172,1.012 1.592,3.185 4.329,-0.184 2.947,-6.077 3.186,-10.351 2.741,-4.956 4.175,-11.219 8.759,-14.333 3.919,0.858 5.111,4.443 5.573,8.759 -1.665,1.735 -2.272,-0.398 -4.777,0 -3.222,6.599 -6.577,13.063 -7.962,21.499 -2.705,-0.117 -4.375,-1.755 -5.574,0.796 -0.258,6.417 -3.188,13.692 -4.777,19.11 -1.228,4.187 -2.812,7.431 -3.981,11.147 -0.379,1.208 0.377,2.772 0,3.981 -0.539,1.727 -1.241,4.016 -1.592,7.167 -0.484,4.332 -4.848,13.047 -3.981,19.109 2.558,0.17 1.938,-2.84 3.185,-3.982 2.671,3.732 -0.224,9.598 -0.796,14.334 -0.947,7.842 -3.252,12.27 -6.37,19.109 -2.013,4.412 -3.696,9.938 -7.166,11.943 -2.152,-5.408 0.179,-10.215 -0.796,-14.332 -1.604,-6.77 -10.23,-11.631 -11.944,-19.109 -0.432,-3.086 4.62,-0.689 4.777,-3.186 -0.129,-0.926 0.176,-1.418 0.797,-1.594 -0.918,-2.297 -5.307,-5.268 -7.963,-3.184 -4.429,-3.533 -6.883,-9.043 -6.369,-17.518 5.494,1.938 6.897,7.965 11.943,10.352 1.993,0.135 2.493,-1.225 3.185,-2.389 -1.676,-7.35 -7.641,-10.408 -15.128,-11.943 4.771,-24.943 -20.516,-19.829 -31.85,-28.666 -1.499,-5.886 -1.049,-12.501 -1.593,-17.517 -6.325,-3.595 -15.096,-0.194 -21.498,-1.592 -1.061,-3.476 -0.625,-6.637 0.796,-9.555 2.622,-1.784 5.503,2.662 8.759,0 -0.971,-7.788 -8.861,-8.656 -14.332,-11.943 -7.721,1.891 -14.06,-1.48 -20.703,-0.796 -3.458,0.356 -6.154,3.802 -10.351,2.389 -3.179,2.13 -6.502,4.115 -7.962,7.962 1.836,2.928 6.161,-1.003 10.351,-1.592 6.335,-0.891 13.376,0.325 18.313,1.592 -0.922,3.06 -6.976,0.986 -10.351,1.593 -3.201,1.045 -2.267,6.226 -2.389,10.351 -12.892,1.158 -28.208,1.324 -42.201,0 0.309,-6.944 -3.364,-9.907 -4.777,-15.129 -0.334,-2.851 -4.628,-1.742 -4.777,-4.777 10.443,-5.46 10.199,10.852 15.925,15.128 1.98,0.123 2.465,-1.25 3.981,-1.592 -0.158,-9.551 1.552,-16.286 -1.592,-23.091 2.342,-4.293 8.271,-5 8.758,-11.147 -0.207,-3.509 -5.892,-1.539 -7.962,-3.185 1.183,-2.001 6.914,0.544 7.167,-2.389 -0.266,-3.45 -4.41,-3.022 -6.37,-4.777 3.875,-7.483 0.789,-19.99 6.37,-27.072 -2.041,-2.89 -0.398,-5.069 -2.389,-7.167 -3.814,0.167 -8.754,-0.792 -10.351,1.593 -0.236,2.094 3.089,0.626 2.389,3.185 -2.501,-0.377 -3.253,0.993 -3.981,2.389 -0.589,2.712 2.934,1.312 3.185,3.185 -2.879,3.575 -1.583,5.158 -0.796,10.351 -3.788,1.135 -3.075,-2.232 -4.777,-3.185 -1.798,-15.106 4.045,-21.664 3.981,-35.035 3.05,-1.993 3.768,-6.317 5.573,-9.555 5.804,-0.566 7.664,-5.077 13.536,-5.574 0.721,1.403 2.931,1.315 3.185,3.185 0.326,1.918 -1.454,1.73 -0.796,3.981 -5.987,0.476 -9.935,5.105 -7.962,11.147 -2.737,-0.349 -4.463,0.314 -6.37,0.796 -5.651,8.766 5.802,10.836 11.943,12.74 4.462,-1.555 1.71,-5.671 3.981,-8.759 5.202,-2.495 13.426,-1.968 19.905,-3.185 1.945,-3.742 -3.181,-5.743 -4.777,-7.962 -1.001,-1.394 -0.547,-3.279 -2.389,-3.981 -1.993,-0.76 -4.722,0.55 -7.166,0 -4.047,-3.119 -4.21,-10.123 -9.555,-11.944 -3.754,-0.039 -4.862,2.57 -8.758,2.389 1.628,-3.23 3.333,-6.847 5.573,-9.555 3.438,-4.153 8.535,-6.939 11.944,-11.147 10.09,0.472 15.464,-0.645 22.294,-5.574 4.027,-2.906 6.939,-8.662 11.944,-3.981 7.437,0.372 14.185,-5.157 19.906,-1.592 4.032,-2.671 8.208,-0.93 11.943,0.796 -0.11,1.963 -0.13,3.837 0.79,4.778 z m -10.35,-3.185 c -4.839,2.062 -8.478,5.324 -14.333,6.37 -4.596,5.547 -11.402,10.523 -15.924,15.128 -1.656,1.687 -5.308,2.962 -3.982,5.574 13.477,-4.572 17.302,-18.795 31.054,-23.091 2.816,-1.266 4.954,1.407 6.37,-1.592 -1.54,-0.324 -0.63,-3.087 -3.19,-2.389 z m -58.12,15.925 c -1.547,0.835 2.955,2.291 2.389,4.777 -0.339,1.519 -2.275,1.441 -1.593,3.981 1.499,1.952 3.005,3.896 3.185,7.166 10.71,4.684 13.917,16.871 25.479,20.703 4.545,-7.739 -5.031,-13.688 -8.758,-18.313 1.584,-1.866 1.834,-5.066 1.592,-8.759 -8.28,-2.98 -13.42,-21.27 -22.3,-9.555 z m 63.69,14.332 c -1.934,1.283 -4.184,5.325 -6.37,7.166 -4.589,3.864 -9.347,9.323 -10.351,15.925 2.707,-0.629 5.607,-0.143 9.555,1.593 2.808,-1.311 6.441,-2.219 8.759,0 5.623,-4.197 10.339,-9.301 13.536,-15.925 -4.026,-1.65 -6.483,4.479 -10.352,5.574 -0.207,-2.332 1.8,-2.446 1.593,-4.778 -3.56,-0.374 -3.06,3.311 -6.37,3.185 0.996,-4.469 8.003,-6.646 7.166,-10.351 -8.732,2.945 -10.994,12.362 -18.313,16.721 2.795,-9.945 11.454,-14.026 17.518,-20.702 -1.91,-1.274 -4.66,0.448 -6.39,1.592 z m 51.76,-1.592 c -12.009,7.367 -23.11,15.64 -30.258,27.868 5.243,1.819 7.271,-4.458 9.556,-7.166 6.712,-7.958 13.218,-14.641 22.294,-19.11 -0.09,-0.972 -0.23,-1.885 -1.59,-1.592 z m 7.96,1.592 c -6.927,1.951 -13.549,6.236 -17.518,10.351 -3.571,3.705 -9.46,7.626 -8.758,11.944 3.465,2.687 4.373,-2.688 7.962,-2.389 9.864,2.044 18.728,-1.328 26.276,-3.981 -0.068,-5.771 -4.279,-7.399 -7.167,-10.351 1.621,-0.768 1.721,-3.058 1.593,-5.574 h -2.38 z m -73.25,8.759 c 2.68,2.418 2.41,-2.944 0,0 z M 254,58.925 c 2.459,1.041 4.517,-2.259 2.389,-3.185 -0.32,1.534 -3.09,0.629 -2.39,3.185 z m 79.63,86.795 c -4.351,-0.958 -4.505,-6.112 -9.556,-6.37 -2.437,0.483 -4.148,1.69 -6.369,2.389 -13.334,-4.37 -28.21,2.768 -35.035,11.944 4.4,5.817 11.128,0.575 15.129,0 10.922,-1.57 19.245,-3.601 30.257,-3.981 3.774,0.738 4.315,4.708 9.555,3.981 -0.463,-6.408 0.863,-13.29 1.593,-22.295 -0.176,-0.621 -0.667,-0.926 -1.593,-0.796 -2.04,4.42 -3.72,11.32 -3.97,15.14 z m -74.85,-7.97 c -3.396,3.935 0.354,11.626 3.981,13.536 3.22,-4.39 2.94,-13.06 -3.98,-13.54 z m 62.9,20.71 c -8.182,-1.312 -19.062,-0.981 -27.868,3.981 -0.593,-2.451 2.186,-1.53 1.593,-3.981 -4.521,-0.008 -8.186,0.838 -9.555,3.981 4.277,0.652 3.771,1.696 3.185,6.37 4.132,2.238 10.983,3.097 17.518,3.185 5.74,0.077 13.208,0.008 15.128,-3.981 -1.061,-0.797 -2.403,-1.312 -3.185,-2.389 1.151,-1.502 1.778,-3.529 4.777,-3.185 2.955,1.026 2.566,5.397 6.37,5.574 2.513,-0.141 4.748,-0.56 4.777,-3.185 -0.796,-3.171 -3.268,-2.295 -1.593,-6.37 -2.425,-3.68 -9.591,-2.619 -14.332,-3.981 -0.6,3 4.24,0.55 3.19,3.99 z m -45.38,15.12 c 3.438,-0.951 4.464,2.608 6.37,0.796 1.654,-2.858 0.413,-8.61 0.797,-12.739 -1.682,-0.708 -2.354,-2.424 -4.778,-2.389 -2.44,3.72 -3.47,9.22 -2.39,14.33 z m 51.75,-3.98 h -2.389 c -3.343,3.293 -9.054,4.217 -13.536,6.37 -0.916,-2.201 -5.586,-1.483 -5.573,1.593 7.179,3.953 20.668,2.111 23.091,-5.574 -1.11,-0.21 -0.9,-1.75 -1.59,-2.39 z"
     id="path2107"
     inkscape:connector-curvature="0"
     style="clip-rule:evenodd;fill:none;fill-rule:evenodd" /><path
     d="m 268.34,17.521 c -1.416,2.999 -3.554,0.326 -6.37,1.592 -13.752,4.296 -17.577,18.519 -31.054,23.091 -1.325,-2.611 2.326,-3.887 3.982,-5.574 4.521,-4.605 11.328,-9.581 15.924,-15.128 5.855,-1.046 9.494,-4.308 14.333,-6.37 2.56,-0.698 1.65,2.065 3.19,2.389 z"
     id="path2109"
     inkscape:connector-curvature="0"
     style="clip-rule:evenodd;fill-rule:evenodd" /><path
     d="m 229.32,40.612 c 0.242,3.692 -0.008,6.893 -1.592,8.759 3.727,4.626 13.303,10.574 8.758,18.313 -11.562,-3.832 -14.77,-16.019 -25.479,-20.703 -0.18,-3.271 -1.687,-5.214 -3.185,-7.166 -0.683,-2.54 1.253,-2.462 1.593,-3.981 0.566,-2.487 -3.937,-3.942 -2.389,-4.777 8.89,-11.715 14.03,6.575 22.3,9.555 z"
     id="path2111"
     inkscape:connector-curvature="0"
     style="clip-rule:evenodd;fill-rule:evenodd" /><path
     d="m 277.1,43.797 c -6.063,6.676 -14.723,10.757 -17.518,20.702 7.319,-4.359 9.581,-13.776 18.313,-16.721 0.837,3.706 -6.17,5.882 -7.166,10.351 3.311,0.125 2.811,-3.559 6.37,-3.185 0.207,2.332 -1.8,2.446 -1.593,4.778 3.868,-1.094 6.325,-7.224 10.352,-5.574 -3.197,6.624 -7.913,11.728 -13.536,15.925 -2.317,-2.219 -5.951,-1.311 -8.759,0 -3.947,-1.735 -6.848,-2.222 -9.555,-1.593 1.004,-6.602 5.762,-12.061 10.351,-15.925 2.187,-1.841 4.437,-5.883 6.37,-7.166 1.73,-1.144 4.48,-2.866 6.38,-1.592 z"
     id="path2113"
     inkscape:connector-curvature="0"
     style="clip-rule:evenodd;fill-rule:evenodd" /><path
     d="m 324.07,45.389 c -9.076,4.469 -15.582,11.152 -22.294,19.11 -2.284,2.708 -4.312,8.985 -9.556,7.166 7.147,-12.229 18.249,-20.501 30.258,-27.868 1.36,-0.293 1.5,0.62 1.59,1.592 z"
     id="path2115"
     inkscape:connector-curvature="0"
     style="clip-rule:evenodd;fill-rule:evenodd" /><path
     d="m 332.83,45.389 c 0.128,2.516 0.028,4.806 -1.593,5.574 2.888,2.952 7.099,4.581 7.167,10.351 -7.549,2.653 -16.412,6.025 -26.276,3.981 -3.589,-0.299 -4.497,5.076 -7.962,2.389 -0.702,-4.317 5.187,-8.239 8.758,-11.944 3.969,-4.115 10.591,-8.4 17.518,-10.351 h 2.38 z"
     id="path2117"
     inkscape:connector-curvature="0"
     style="clip-rule:evenodd;fill-rule:evenodd" /><path
     d="m 257.19,54.148 c 2.41,-2.944 2.68,2.418 0,0 z"
     id="path2119"
     inkscape:connector-curvature="0"
     style="clip-rule:evenodd;fill-rule:evenodd" /><path
     d="m 256.39,55.74 c 2.128,0.926 0.07,4.226 -2.389,3.185 -0.7,-2.556 2.07,-1.651 2.39,-3.185 z"
     id="path2121"
     inkscape:connector-curvature="0"
     style="clip-rule:evenodd;fill-rule:evenodd" /><path
     d="m 179.16,102.72 c 2.23,-0.124 2.598,2.251 1.593,3.185 -1.4,-0.19 -1.81,-1.37 -1.59,-3.18 z"
     id="path2123"
     inkscape:connector-curvature="0"
     style="clip-rule:evenodd;fill:none;fill-rule:evenodd" /><path
     d="m 337.61,130.59 c 0.926,-0.129 1.417,0.176 1.593,0.796 -0.729,9.005 -2.056,15.887 -1.593,22.295 -5.239,0.727 -5.78,-3.244 -9.555,-3.981 -11.012,0.381 -19.335,2.412 -30.257,3.981 -4.001,0.575 -10.729,5.817 -15.129,0 6.825,-9.176 21.701,-16.314 35.035,-11.944 2.221,-0.698 3.933,-1.906 6.369,-2.389 5.051,0.258 5.205,5.412 9.556,6.37 0.25,-3.82 1.93,-10.72 3.98,-15.13 z"
     id="path2125"
     inkscape:connector-curvature="0"
     style="clip-rule:evenodd;fill-rule:evenodd" /><path
     d="m 262.76,151.29 c -3.627,-1.91 -7.378,-9.601 -3.981,-13.536 6.92,0.48 7.2,9.15 3.98,13.54 z"
     id="path2127"
     inkscape:connector-curvature="0"
     style="clip-rule:evenodd;fill-rule:evenodd" /><path
     d="m 117.05,152.88 c -2.824,-0.183 -7.657,1.575 -10.351,0.796 1.97,-0.98 9.07,-4.33 10.35,-0.8 z"
     id="path2129"
     inkscape:connector-curvature="0"
     style="clip-rule:evenodd;fill:none;fill-rule:evenodd" /><path
     d="m 318.5,154.47 c 4.741,1.363 11.907,0.302 14.332,3.981 -1.675,4.074 0.797,3.198 1.593,6.37 -0.029,2.625 -2.265,3.044 -4.777,3.185 -3.804,-0.177 -3.415,-4.547 -6.37,-5.574 -2.999,-0.344 -3.626,1.683 -4.777,3.185 0.781,1.076 2.124,1.591 3.185,2.389 -1.92,3.99 -9.388,4.058 -15.128,3.981 -6.534,-0.088 -13.386,-0.947 -17.518,-3.185 0.586,-4.674 1.093,-5.718 -3.185,-6.37 1.369,-3.143 5.034,-3.989 9.555,-3.981 0.593,2.451 -2.186,1.53 -1.593,3.981 8.806,-4.962 19.687,-5.293 27.868,-3.981 1.05,-3.43 -3.79,-0.98 -3.18,-3.98 z M 297,167.21 c 1.507,1.413 5.258,0.58 7.962,0.796 -0.14,-4.4 -7.34,-5.32 -7.96,-0.8 z"
     id="path2131"
     inkscape:connector-curvature="0"
     style="clip-rule:evenodd;fill-rule:evenodd" /><path
     d="m 242.86,156.07 c 2.46,2.317 0.754,8.8 2.389,11.943 4.562,1.609 14.434,-0.327 20.702,1.592 -4.062,4.612 -13.02,1.125 -19.906,1.593 0.129,0.926 -0.176,1.417 -0.796,1.592 -0.512,4.715 2.893,4.288 4.777,4.778 0.854,2.408 -1.854,1.17 -3.185,1.592 -4.615,1.464 -15.132,2.124 -23.888,1.593 -0.19,-3.79 1.011,-8.973 -2.389,-9.555 -4.789,0.076 0.478,3.218 -1.592,4.777 -2.486,-0.699 -2.614,-3.756 -4.777,-4.777 -26.135,0.987 -62.841,0.055 -88.382,0 -1.624,0.234 -1.562,2.154 -3.185,2.389 -1.173,4.244 2.158,6.815 0.796,8.759 -7.878,3.135 -23.143,1.251 -30.257,0.796 1.001,-2.061 6.2,-2.861 9.555,-3.185 4.876,-0.47 9.899,1.531 15.129,0 1.941,-2.04 1.661,-6.301 1.592,-10.352 31.596,-1.846 66.609,-0.274 99.53,-0.796 1.85,-0.539 2.131,-2.646 3.981,-3.185 -7.15,-11.28 10.2,-9.98 19.91,-9.53 z m -16.72,4.77 c -1.361,6.11 1.275,8.602 0,15.128 3.424,1.29 11.705,1.29 15.129,0 V 160.84 c -5.13,-2.51 -10.08,-1.52 -15.13,0 z"
     id="path2133"
     inkscape:connector-curvature="0"
     style="clip-rule:evenodd;fill:none;fill-rule:evenodd" /><path
     d="m 367.07,156.86 c 0.627,2.75 -0.744,3.503 -2.389,3.981 0.714,1.674 1.238,3.54 2.389,4.777 1.105,12.517 -1.982,20.843 -7.166,27.072 1.53,1.986 -1.216,3.272 0.796,4.777 -4.276,7.137 -3.847,18.98 -13.536,20.703 -1.927,-6.549 2.475,-12.649 1.593,-20.703 1.517,-1.492 2.001,-0.087 3.981,0 2.188,-0.997 2.062,-4.307 2.389,-7.166 -2.158,-2.171 -1.981,2.06 -4.777,1.593 -0.536,-3.986 0.737,-6.163 0.796,-9.555 2.924,-0.526 4.97,-1.932 5.574,-4.777 2.007,-0.369 5.453,0.103 6.369,-3.186 0.518,-3.967 -2.208,-4.691 -3.185,-7.166 0.33,-5.5 1.51,-10.16 7.17,-10.34 z"
     id="path2135"
     inkscape:connector-curvature="0"
     style="clip-rule:evenodd;fill:none;fill-rule:evenodd" /><path
     d="m 241.26,160.84 v 15.128 c -3.424,1.29 -11.705,1.29 -15.129,0 1.275,-6.526 -1.361,-9.019 0,-15.128 5.06,-1.52 10.01,-2.51 15.13,0 z m -11.14,11.95 c 2.622,1.344 5.09,0.472 7.962,0 -0.37,-4.331 -0.471,-4.196 -0.796,-7.962 -5.04,-4.9 -10.7,1.97 -7.16,7.96 z"
     id="path2137"
     inkscape:connector-curvature="0"
     style="clip-rule:evenodd;fill-rule:evenodd" /><path
     d="m 278.69,159.25 c 2.424,-0.035 3.097,1.681 4.778,2.389 -0.384,4.129 0.857,9.881 -0.797,12.739 -1.906,1.812 -2.932,-1.747 -6.37,-0.796 -1.08,-5.11 -0.05,-10.61 2.39,-14.33 z"
     id="path2139"
     inkscape:connector-curvature="0"
     style="clip-rule:evenodd;fill-rule:evenodd" /><path
     d="m 237.28,164.82 c 0.325,3.766 0.426,3.631 0.796,7.962 -2.872,0.472 -5.34,1.344 -7.962,0 -3.54,-5.98 2.12,-12.85 7.16,-7.96 z"
     id="path2141"
     inkscape:connector-curvature="0"
     style="clip-rule:evenodd;fill:none;fill-rule:evenodd" /><path
     d="m 304.96,168.01 c -2.704,-0.216 -6.455,0.617 -7.962,-0.796 0.62,-4.52 7.82,-3.6 7.96,0.8 z"
     id="path2143"
     inkscape:connector-curvature="0"
     style="clip-rule:evenodd;fill:none;fill-rule:evenodd" /><path
     d="m 329.65,171.99 c -2.423,7.685 -15.912,9.527 -23.091,5.574 -0.013,-3.076 4.657,-3.794 5.573,-1.593 4.482,-2.153 10.193,-3.077 13.536,-6.37 h 2.389 c 0.68,0.64 0.47,2.18 1.59,2.39 z"
     id="path2145"
     inkscape:connector-curvature="0"
     style="clip-rule:evenodd;fill-rule:evenodd" /><path
     d="m 113.07,172.79 c -2.244,0.827 -7.45,1.524 -9.555,0 0.67,-2.32 9.49,-4.4 9.55,0 z"
     id="path2147"
     inkscape:connector-curvature="0"
     style="clip-rule:evenodd;fill:none;fill-rule:evenodd" /><path
     d="m 99.534,171.99 c -0.177,2.476 -3.963,1.345 -6.37,1.592 -0.486,-3.14 4.372,-0.93 6.37,-1.59 z"
     id="path2149"
     inkscape:connector-curvature="0"
     style="clip-rule:evenodd;fill:none;fill-rule:evenodd" /><path
     d="m 117.05,174.38 c 0.82,3.25 -3.718,4.247 -3.185,0.797 0.72,-0.62 1.8,-0.86 3.19,-0.8 z"
     id="path2151"
     inkscape:connector-curvature="0"
     style="clip-rule:evenodd;fill:none;fill-rule:evenodd" /><path
     d="m 90.775,176.77 c -0.394,3.235 -3.018,5.12 -5.574,3.981 -0.139,-3.77 3.007,-5.13 5.574,-3.98 z"
     id="path2153"
     inkscape:connector-curvature="0"
     style="clip-rule:evenodd;fill:none;fill-rule:evenodd" /><path
     d="m 127.4,178.36 c 3.516,-0.115 -0.076,1.95 0.796,3.981 h -3.185 c -0.85,-2.97 2.98,-1.26 2.38,-3.98 z"
     id="path2155"
     inkscape:connector-curvature="0"
     style="clip-rule:evenodd;fill:none;fill-rule:evenodd" /><path
     d="m 189.51,179.95 c -9.689,2.098 -24.757,-1.173 -34.238,0.796 -0.411,-3.861 7.142,0.24 7.962,-2.389 7.2,2.09 19.14,-0.56 26.28,1.59 z"
     id="path2157"
     inkscape:connector-curvature="0"
     style="clip-rule:evenodd;fill:none;fill-rule:evenodd" /><path
     d="m 144.12,185.53 c 4.355,-2.735 6.807,3.137 6.37,5.574 2.644,-1.613 0.436,-3.271 0.796,-7.166 -5.994,-1.693 -6.814,1.545 -11.147,3.185 0.254,-1.869 1.258,-2.988 0.796,-5.574 -1.914,1.006 -4.815,1.024 -6.37,2.39 -0.18,4.16 0.013,7.948 0.796,11.146 -3.258,1.841 -7.881,1.406 -14.333,1.593 -5.98,4.61 1.364,17.735 -3.185,23.887 -2.701,-8.092 -1.263,-17.65 -0.796,-26.276 4.378,-1.991 13.355,0.615 15.128,-3.981 0.329,-3.778 -2.717,-4.183 -2.389,-7.962 4.931,-4.92 17.317,-3.079 23.887,-0.797 -0.085,2.896 1.602,4.633 1.592,7.167 -0.014,3.958 -3.541,7.479 -3.185,11.146 0.228,2.343 1.802,2.795 1.593,5.574 -2.341,-0.579 -3.357,-2.482 -3.185,-5.574 -1,-3.351 -8.726,-4.459 -11.147,-1.592 0.367,8.741 -3.704,16.453 0,23.886 1.075,2.111 4.197,2.174 3.981,5.574 -4.24,1.619 -6.799,-4.709 -8.759,-7.963 -0.743,0.584 -1.207,1.449 -1.592,2.389 -1.78,-0.342 -0.323,-3.924 -0.796,-5.572 h 3.185 c 0.664,-9.422 1.14,-19.033 3.185,-27.073 3.432,-0.778 2.317,2.991 4.777,3.185 1.34,-1.35 0.64,-4.7 0.8,-7.19 z m 0.8,8.76 c 3.082,0.747 7.766,-0.97 3.981,-2.389 0.14,2.26 -5.21,-0.97 -3.98,2.39 z"
     id="path2159"
     inkscape:connector-curvature="0"
     style="clip-rule:evenodd;fill:none;fill-rule:evenodd" /><path
     d="m 214.99,179.16 c 0.707,2.603 2.709,12.575 -1.592,12.74 v -9.555 c -5.851,0.48 -11.619,-1.592 -19.11,-1.593 3.83,-2.34 12.93,-1.18 20.7,-1.59 z"
     id="path2161"
     inkscape:connector-curvature="0"
     style="clip-rule:evenodd;fill:none;fill-rule:evenodd" /><path
     d="m 203.04,187.12 c -1.565,4.156 0.64,7.218 0,9.555 -10.747,3.849 -31.324,-3.555 -43.793,3.981 9.172,-0.607 22.256,-2.733 31.85,1.592 -0.072,2.173 1.326,1.604 0,3.186 5.991,7.544 12.994,14.078 16.721,23.886 -2.867,4.291 0.039,9.85 -1.592,15.129 -1.208,3.91 -5.397,6.094 -6.37,10.352 0.732,2.17 2.489,-1.111 4.777,0 -1.098,6.334 -4.867,9.994 -12.74,9.555 -3.499,0.668 -0.589,3.129 -2.389,4.777 -4.312,1.078 -16.628,-3.49 -21.499,0.797 -2.043,-4.594 -10.351,-2.92 -13.536,-6.371 -4.028,-0.045 -6.194,1.77 -8.759,3.186 0.099,3.467 -1.542,5.295 -5.574,6.369 0.011,-4.791 3.118,-9.568 4.777,-11.146 2.019,-1.918 5.409,-1.373 5.574,-3.186 0.179,-1.969 -4.258,-3.061 -5.574,-4.777 -0.132,-0.172 -0.029,-2.801 -0.796,-3.98 -0.378,-0.58 -2.129,-1.01 -2.389,-1.592 -1.851,-4.162 -3.558,-12.342 -2.389,-16.723 5.533,0.041 5.585,5.564 5.574,11.148 1.326,5.162 7.846,8.98 6.37,14.332 1.612,0.803 7.003,-0.992 6.37,3.98 9.659,0.17 18.332,3.062 26.276,0.797 6.169,-1.76 10.044,-7.102 15.129,-8.758 -0.391,-7.73 3.216,-13.938 3.185,-20.703 -0.077,-16.5 -13.292,-29.575 -29.46,-29.46 -4.663,0.033 -8.556,2.809 -14.333,1.593 -4.818,-3.486 -2.195,-13.076 -0.796,-19.11 14.672,-1.591 29.011,0.597 42.201,-0.796 0.79,1.07 2.13,1.58 3.19,2.38 z m -19.9,2.39 c -6.205,-0.004 -13.162,0.026 -15.925,0.796 -2.488,-0.364 -2.545,1.701 -2.389,3.981 5.254,-0.036 11.707,0.047 17.517,0 5.456,-0.044 12.502,1.375 14.332,-2.389 -1.53,-3.33 -7.9,-2.39 -13.54,-2.39 z"
     id="path2163"
     inkscape:connector-curvature="0"
     style="clip-rule:evenodd;fill:none;fill-rule:evenodd" /><path
     d="m 297,213.4 c -3.662,-0.32 -3.988,-3.975 -5.574,-6.37 -3.475,-1.568 -5.082,-5.004 -7.962,-7.167 -13.408,-1.455 -22.531,-7.194 -38.22,-6.369 1.081,-3.48 5.343,-2.826 7.962,-3.981 3.002,-1.323 4.75,-3.727 8.759,-3.981 10.854,-0.689 21.644,10.056 31.85,11.147 2.19,5.3 2.66,8.88 3.18,16.72 z"
     id="path2165"
     inkscape:connector-curvature="0"
     style="clip-rule:evenodd;fill:none;fill-rule:evenodd" /><path
     d="m 196.68,191.9 c -1.83,3.764 -8.876,2.345 -14.332,2.389 -5.811,0.047 -12.263,-0.036 -17.517,0 -0.157,-2.28 -0.099,-4.346 2.389,-3.981 2.763,-0.77 9.72,-0.8 15.925,-0.796 5.64,0 12.01,-0.94 13.54,2.39 z"
     id="path2167"
     inkscape:connector-curvature="0"
     style="clip-rule:evenodd;fill-rule:evenodd" /><path
     d="m 148.9,191.9 c 3.784,1.419 -0.899,3.136 -3.981,2.389 -1.23,-3.36 4.12,-0.13 3.98,-2.39 z"
     id="path2169"
     inkscape:connector-curvature="0"
     style="clip-rule:evenodd;fill-rule:evenodd" /><path
     d="m 129,201.45 c -0.984,14.096 -0.526,22.272 -2.389,32.645 1.156,2.031 2.125,4.246 3.981,5.574 -2.522,5.234 0.596,10.617 -2.389,17.518 -0.626,-8.93 -2.654,-16.455 -7.167,-21.498 1.317,-5.584 0.846,-12.955 3.981,-16.721 -2.448,-3.186 -2.421,-8.235 -0.796,-11.944 0.616,-3.104 -2.943,-4.129 -0.796,-6.37 1.79,-1.8 4,0.05 5.59,0.79 z"
     id="path2171"
     inkscape:connector-curvature="0"
     style="clip-rule:evenodd;fill:none;fill-rule:evenodd" /><path
     d="m 200.66,203.84 c 3.812,-0.361 6.036,0.864 7.166,3.186 2.345,-1.132 5.023,-2.405 7.962,-0.797 0.08,13.413 3.99,22.567 2.389,31.85 h -3.981 c -0.352,8.691 0.218,17.619 0.796,26.275 0.377,5.637 4.057,12.898 -1.592,12.74 0.586,-11.994 -2.459,-25.828 -3.185,-39.016 1.875,0.018 2.345,-1.371 4.777,-0.797 0.849,-2.992 -1.147,-5.633 -1.592,-8.758 -0.943,-6.631 0.173,-14.385 -3.185,-19.11 -0.691,3.276 -0.529,10.243 -4.777,8.758 -3.542,-0.705 -2.035,-6.457 -2.389,-10.351 -0.25,-1.88 -2.77,-1.48 -2.39,-3.98 z"
     id="path2173"
     inkscape:connector-curvature="0"
     style="clip-rule:evenodd;fill:none;fill-rule:evenodd" /><path
     d="m 146.51,209.42 h 2.389 c 0.337,1.664 -0.546,2.108 -0.796,3.184 -1.4,-0.19 -1.81,-1.37 -1.59,-3.18 z"
     id="path2175"
     inkscape:connector-curvature="0"
     style="clip-rule:evenodd;fill:none;fill-rule:evenodd" /><path
     d="m 170.4,211.01 c 18.544,-2.923 28.868,13.78 23.887,30.258 -2.967,9.814 -13.468,15.879 -25.479,13.535 -2.243,-0.438 -8.568,-2.74 -11.147,-4.777 -0.457,-0.361 -0.359,-1.951 -0.796,-2.389 -0.378,-0.379 -2.108,-0.414 -2.389,-0.797 -0.287,-0.391 -3.82,-8.699 -3.981,-9.555 -1.233,-6.539 1.78,-15.936 5.574,-19.906 3.06,-3.19 6.94,-5.2 14.34,-6.36 z m -14.33,18.31 c -3.341,23.592 29.379,26.438 33.442,8.76 2.172,-9.451 -2.911,-17.561 -11.147,-22.295 -3.467,0.514 -9,-1.039 -11.147,0.797 -5.72,2.86 -10.28,6.67 -11.14,12.74 z"
     id="path2177"
     inkscape:connector-curvature="0"
     style="clip-rule:evenodd;fill:none;fill-rule:evenodd" /><path
     d="m 222.95,214.19 c 1.286,-0.225 1.371,0.752 2.389,0.795 -0.505,16.293 2.601,41.807 0,62.904 -3.009,-2.393 -2.397,-7.299 -2.389,-11.148 0.03,-13.2 0.21,-31.67 0,-52.54 z"
     id="path2179"
     inkscape:connector-curvature="0"
     style="clip-rule:evenodd;fill:none;fill-rule:evenodd" /><path
     d="m 167.21,216.58 c 2.146,-1.836 7.68,-0.283 11.147,-0.797 8.237,4.734 13.32,12.844 11.147,22.295 -4.063,17.678 -36.783,14.832 -33.442,-8.76 0.86,-6.07 5.42,-9.88 11.14,-12.74 z m -3.18,5.57 c 0.086,-0.07 -4.678,6.77 -4.777,7.166 -3.969,15.83 16.802,21.35 25.479,11.945 -1.292,-3.662 0.652,-4.027 2.389,-6.371 -2.056,-2.986 -0.548,-9.537 -4.777,-10.352 1.597,6.26 -3.784,12.623 -7.166,8.76 3.019,-2.555 1.022,-10.125 4.777,-11.943 -5.43,-3.36 -12.07,-2.34 -15.92,0.79 z"
     id="path2181"
     inkscape:connector-curvature="0"
     style="clip-rule:evenodd;fill-rule:evenodd" /><path
     d="m 179.95,221.36 c -3.755,1.818 -1.759,9.389 -4.777,11.943 3.382,3.863 8.763,-2.5 7.166,-8.76 4.229,0.814 2.722,7.365 4.777,10.352 -1.737,2.344 -3.681,2.709 -2.389,6.371 -8.678,9.404 -29.448,3.885 -25.479,-11.945 0.1,-0.396 4.864,-7.236 4.777,-7.166 3.85,-3.13 10.49,-4.15 15.92,-0.79 z m -3.98,19.11 c 3.518,0.066 6.766,-0.135 6.37,-3.982 -2.75,0.69 -5.22,1.67 -6.37,3.98 z"
     id="path2183"
     inkscape:connector-curvature="0"
     style="clip-rule:evenodd;fill:none;fill-rule:evenodd" /><path
     d="m 117.05,222.95 c 1.354,-0.293 1.502,0.621 1.592,1.592 -0.677,-0.146 -0.751,0.311 -0.796,0.797 -0.92,-0.13 -0.66,-1.45 -0.79,-2.39 z"
     id="path2185"
     inkscape:connector-curvature="0"
     style="clip-rule:evenodd;fill:none;fill-rule:evenodd" /><path
     d="m 230.12,226.14 c 1.347,1.572 4.596,1.242 3.98,4.777 -2.42,-0.5 -4.07,-1.78 -3.98,-4.78 z"
     id="path2187"
     inkscape:connector-curvature="0"
     style="clip-rule:evenodd;fill:none;fill-rule:evenodd" /><path
     d="m 244.45,226.93 c -0.242,2.414 -3.072,2.236 -3.186,4.777 -1.639,-1.016 -4.039,-1.27 -3.98,-3.98 4.29,0.9 3.34,-0.27 7.17,-0.8 z"
     id="path2189"
     inkscape:connector-curvature="0"
     style="clip-rule:evenodd;fill:none;fill-rule:evenodd" /><path
     d="m 270.72,235.69 c 4.322,2.578 5.356,8.445 7.166,13.535 -1.978,1.883 -4.687,0.008 -7.166,0 0.01,-4.22 -2.07,-9.8 0,-13.53 z"
     id="path2191"
     inkscape:connector-curvature="0"
     style="clip-rule:evenodd;fill:none;fill-rule:evenodd" /><path
     d="m 182.34,236.48 c 0.396,3.848 -2.852,4.049 -6.37,3.982 1.15,-2.3 3.62,-3.28 6.37,-3.98 z"
     id="path2193"
     inkscape:connector-curvature="0"
     style="clip-rule:evenodd;fill-rule:evenodd" /><path
     d="m 253.21,237.28 c 3.559,0.74 2.188,5.756 -2.389,4.777 0.594,-2.451 -2.186,-1.529 -1.592,-3.98 2.03,0.42 2.78,1.05 3.98,-0.8 z"
     id="path2195"
     inkscape:connector-curvature="0"
     style="clip-rule:evenodd;fill:none;fill-rule:evenodd" /><path
     d="m 91.572,241.26 c 1.642,3.463 0.4,8.174 0,11.943 -6.327,1.131 -11.307,-0.16 -16.721,-0.797 2.145,-7.26 7.536,-15.7 16.721,-11.14 z"
     id="path2197"
     inkscape:connector-curvature="0"
     style="clip-rule:evenodd;fill:none;fill-rule:evenodd" /><path
     d="m 402.1,265.95 c -15.162,-3.855 -31.632,-8.309 -45.385,-13.535 -4.535,-1.725 -10.017,-1.92 -11.944,-6.369 -0.225,-1.287 0.753,-1.371 0.797,-2.389 0.645,-0.152 0.794,-0.799 1.592,-0.797 6.842,3.252 21.693,5.328 34.238,7.963 1.352,0.283 2.657,1.361 3.981,1.592 1.856,0.324 3.94,-0.373 5.573,0 1.918,0.438 3.841,2.082 5.574,2.389 1.983,0.352 6.065,-0.656 7.962,0 7.46,2.58 2.93,8.7 -2.39,11.15 z"
     id="path2199"
     inkscape:connector-curvature="0"
     style="clip-rule:evenodd;fill-rule:evenodd" /><path
     d="m 216.58,244.45 c 4.359,0.354 3.618,9.377 2.389,12.74 -1.29,-3.43 -4.54,-8.45 -2.39,-12.74 z"
     id="path2201"
     inkscape:connector-curvature="0"
     style="clip-rule:evenodd;fill:none;fill-rule:evenodd" /><path
     d="m 244.45,245.24 c 0.979,0.348 1.635,1.018 1.592,2.389 -0.98,-0.34 -1.63,-1.02 -1.59,-2.39 z"
     id="path2203"
     inkscape:connector-curvature="0"
     style="clip-rule:evenodd;fill:none;fill-rule:evenodd" /><path
     d="m 130.59,254.8 h 2.389 c 0.433,6.111 0.673,18.645 -7.166,19.109 -0.594,-5.105 0.929,-8.094 0.796,-12.74 3.134,-1.275 0.277,3.439 2.389,3.186 2.43,-3.04 1.78,-4.63 1.59,-9.56 z"
     id="path2205"
     inkscape:connector-curvature="0"
     style="clip-rule:evenodd;fill:none;fill-rule:evenodd" /><path
     d="m 43.797,260.37 c 1.046,0.281 1.252,1.4 2.389,1.592 -1,8.707 2.747,16.879 -0.796,21.498 -6.242,0.139 -0.805,-11.404 -4.777,-13.535 2.472,-3.49 0.043,-6.94 3.184,-9.55 z"
     id="path2207"
     inkscape:connector-curvature="0"
     style="clip-rule:evenodd;fill-rule:evenodd" /><path
     d="m 137.75,260.37 c 0.926,-0.129 1.417,0.176 1.592,0.795 0.631,2.754 -0.885,3.361 -1.592,4.777 -1.361,4.088 3.233,9.182 -1.592,9.555 -0.47,-5.67 -0.93,-10.83 1.59,-15.13 z"
     id="path2209"
     inkscape:connector-curvature="0"
     style="clip-rule:evenodd;fill:none;fill-rule:evenodd" /><path
     d="m 355.13,263.56 c 1.643,18 12.489,31.662 7.962,50.959 0.317,2.338 2.613,2.697 3.186,4.779 -0.968,2.482 -1.489,5.41 -5.574,4.777 -3.522,-4.588 -2.104,-10.037 -3.185,-17.518 -0.854,-5.9 -3.054,-14.244 -4.777,-23.092 -2.08,-10.68 -7.12,-17.41 2.39,-19.91 z"
     id="path2211"
     inkscape:connector-curvature="0"
     style="clip-rule:evenodd;fill-rule:evenodd" /><path
     d="m 113.87,265.95 c 2.162,2.617 2.2,7.355 3.981,10.352 -3.465,0.811 -3.662,-1.646 -5.574,-2.389 0.64,-2.53 0.5,-5.86 1.59,-7.96 z"
     id="path2213"
     inkscape:connector-curvature="0"
     style="clip-rule:evenodd;fill:none;fill-rule:evenodd" /><path
     d="m 206.23,267.54 h 3.185 c 0.802,2.395 -1.774,1.41 -3.185,1.592 -0.01,-0.53 -0.01,-1.06 -0.01,-1.59 z"
     id="path2215"
     inkscape:connector-curvature="0"
     style="clip-rule:evenodd;fill:none;fill-rule:evenodd" /><path
     d="m 312.92,273.91 c 2.235,5.463 1.391,14.004 3.186,19.906 -7.112,0.027 -7.09,-6.979 -6.37,-12.74 -0.165,-2.906 -3.517,-5.455 -1.593,-7.963 1.24,-1.32 3.1,0.27 4.77,0.79 z"
     id="path2217"
     inkscape:connector-curvature="0"
     style="clip-rule:evenodd;fill-rule:evenodd" /><path
     d="m 140.94,273.91 c 13.695,0.795 38.842,1.539 55.736,0.797 5.291,-0.232 11.983,-3.16 15.129,2.389 -20.033,0.578 -39.791,0.963 -68.477,-0.797 -1.74,0.14 -2.54,-0.65 -2.39,-2.39 z"
     id="path2219"
     inkscape:connector-curvature="0"
     style="clip-rule:evenodd;fill:none;fill-rule:evenodd" /><path
     d="m 121.03,279.48 c 2.704,0.217 6.456,-0.617 7.962,0.797 0.254,1.846 -0.128,3.057 -0.796,3.98 -4.1,0.13 -5.36,-2.59 -7.16,-4.78 z"
     id="path2221"
     inkscape:connector-curvature="0"
     style="clip-rule:evenodd;fill:none;fill-rule:evenodd" /><path
     d="m 211.8,280.28 c -4.488,8.164 -22.976,-0.125 -29.461,3.98 -15.382,-3.465 -27.261,1.818 -38.219,-1.592 -3.465,-0.016 -4.439,2.461 -8.759,1.592 0.472,-2.541 -1.495,-2.463 0,-3.98 28.16,-1.09 48.76,-0.66 76.44,0 z"
     id="path2223"
     inkscape:connector-curvature="0"
     style="clip-rule:evenodd;fill:none;fill-rule:evenodd" /><path
     d="m 228.52,279.48 c -0.814,4.227 -6.93,3.154 -10.351,4.777 0.593,-2.451 -2.186,-1.531 -1.592,-3.98 2.62,-1.63 8.06,-0.43 11.94,-0.8 z"
     id="path2225"
     inkscape:connector-curvature="0"
     style="clip-rule:evenodd;fill:none;fill-rule:evenodd" /><path
     d="m 88.387,283.46 c 1.283,3.086 4.744,10.176 -0.796,11.148 -0.658,-4.65 -5.704,-4.912 -5.574,-10.352 1.754,-0.72 3.42,0.11 6.37,-0.8 z"
     id="path2227"
     inkscape:connector-curvature="0"
     style="clip-rule:evenodd;fill:none;fill-rule:evenodd" /><path
     d="m 211.01,286.65 h 1.592 v 1.592 h -1.592 v -1.59 z"
     id="path2229"
     inkscape:connector-curvature="0"
     style="clip-rule:evenodd;fill:none;fill-rule:evenodd" /><path
     d="m 231.71,293.02 c 1.887,-2.678 5.69,2.094 3.186,3.982 -2.2,-0.19 -1.82,-2.96 -3.19,-3.98 z"
     id="path2231"
     inkscape:connector-curvature="0"
     style="clip-rule:evenodd;fill-rule:evenodd" /><path
     d="m 84.405,347.16 c -1.627,11.156 -23.725,8.861 -29.46,4.777 4.471,-6.46 22.104,-3.84 29.46,-4.78 z"
     id="path2233"
     inkscape:connector-curvature="0"
     style="clip-rule:evenodd;fill-rule:evenodd" /><path
     d="m 321.68,359.11 c 0.126,7.027 -5.772,8.029 -11.943,8.76 0.018,-1.877 -1.372,-2.346 -0.796,-4.777 5.24,-0.33 6.81,-4.35 12.74,-3.98 z"
     id="path2235"
     inkscape:connector-curvature="0"
     style="clip-rule:evenodd;fill-rule:evenodd" /><path
     d="m 25.484,368.66 h 2.389 c 2.747,3.398 4.29,7.672 7.962,10.352 2.354,1.717 7.765,4.549 11.147,5.574 2.4,0.727 5.423,0.066 7.962,0.795 1.01,0.291 1.942,1.961 3.185,2.389 3.412,1.18 7.887,0.467 11.147,1.594 2.287,0.789 7.258,4.609 12.74,3.186 8.842,4.162 19.67,6.34 23.887,15.127 -0.499,3.768 -5.177,7.537 -3.981,10.352 -2.795,2.742 -0.582,-6.279 -3.185,-6.369 -1.899,1.02 -4.315,1.523 -4.777,3.98 -21.164,-11.482 -49.912,-15.379 -71.662,-26.275 2.253,-5.71 3.819,-12.1 3.188,-20.7 z"
     id="path2237"
     inkscape:connector-curvature="0"
     style="clip-rule:evenodd;fill:none;fill-rule:evenodd" /><path
     d="m 85.998,388.57 c 4.787,0.236 9.912,3.389 14.332,5.574 3.863,1.91 11.409,3.521 8.759,9.555 -4.537,-2.629 -9.021,-5.311 -11.943,-9.555 -4.519,-1.06 -10.061,-1.09 -11.149,-5.57 z"
     id="path2239"
     inkscape:connector-curvature="0"
     style="clip-rule:evenodd;fill:none;fill-rule:evenodd" /><path
     d="m 301.78,429.97 c -0.483,2.438 -1.69,4.148 -2.389,6.371 -11.88,0.96 -3.06,-14.1 2.39,-6.37 z"
     id="path2241"
     inkscape:connector-curvature="0"
     style="clip-rule:evenodd;fill-rule:evenodd" /><path
     d="m 356.72,140.14 c 2.148,1.837 3.973,-3.424 7.962,-2.389 3.375,0.606 4.25,3.712 6.37,5.574 0.844,7.15 -0.789,14.14 -0.797,20.702 -0.015,13.535 1.481,25.61 -7.166,33.441 -1.368,9.514 -3.959,17.804 -7.962,24.683 -2.847,0.338 -4.249,2.121 -7.963,1.594 -3.2,5.748 -1.814,12.377 -3.185,18.312 -0.484,2.1 -2.296,3.312 -3.185,5.574 -1.268,3.225 -0.568,6.85 -1.593,9.555 -0.708,1.871 -2.972,3.547 -3.981,5.574 -2.485,4.992 -3.124,9.438 -7.166,12.738 -1.519,1.496 -1.44,-0.473 -3.981,0 1.476,12.857 4.131,24.535 6.37,36.627 3.941,-1.979 2.435,-7.025 3.186,-10.35 0.782,-3.471 2.495,-6.656 3.185,-10.352 0.699,-3.752 0.118,-7.984 0.796,-11.943 0.271,-1.574 1.448,-3.223 1.593,-4.777 0.544,-5.828 -2.563,-16.891 4.777,-19.109 0.04,24.129 -6.511,42.459 -7.962,62.902 -1.832,1.354 -2.63,3.74 -3.981,5.574 2.211,7.078 4.188,14.391 6.37,21.498 2.501,1.117 3.609,1.055 5.573,2.389 2.986,2.027 2.234,3.953 8.759,3.184 4.949,3.451 7.915,8.646 11.943,13.537 1.367,1.66 2.053,3.443 3.185,4.777 4.983,5.877 13.538,10.186 15.129,19.109 -4.581,3.871 -7.237,-0.73 -9.555,-3.186 -7.016,-7.424 -13.221,-19.396 -21.499,-25.479 -2.255,5.441 1.18,16.572 -3.185,19.906 -3.14,18.875 -15.68,32.738 -26.275,45.385 -5.013,5.982 -6.796,10.477 -13.536,13.537 -1.491,1.959 -2.49,4.41 -3.981,6.369 -3.972,0.4 -5.971,4.775 -9.555,3.186 -1.59,-3.629 2.989,-5.303 4.777,-7.166 11.033,-11.506 23.095,-24.084 33.442,-37.424 0.768,-6.207 7.818,-13.709 10.351,-19.906 0.608,-1.488 0.285,-3.914 0.796,-5.574 1.153,-3.748 8.029,-20.324 -1.592,-21.498 -1.019,6.68 -3.93,11.465 -4.777,18.314 -3.137,1.111 -3.651,4.842 -5.574,7.166 -4.796,7.943 -11.557,13.922 -15.925,22.295 -5.495,2.201 -6.67,8.723 -12.739,10.35 -2.33,4.674 -8.205,9.703 -12.74,9.555 -1.221,-9.775 13.257,-10.584 15.925,-19.109 0.062,-4.043 -3.518,-4.443 -4.777,-7.166 -0.566,-2.352 -0.22,-5.619 -2.389,-6.369 -2.882,1.961 -4.187,6.602 -5.574,10.352 -1.424,3.85 -1.724,8.646 -4.777,11.146 0.572,5.35 -1.122,8.434 -5.573,8.758 -1.889,-3.982 0.779,-11.58 3.185,-17.516 2.204,-5.438 6.095,-10.582 7.963,-15.129 -0.124,-2.248 2.251,-1.996 3.185,-3.186 -2.508,-5.453 -4.572,-11.352 -7.962,-15.924 -3.23,-3.389 -9.148,-5.422 -11.944,-9.555 -2.757,-4.078 -2.222,-9.865 -3.98,-14.334 -2.65,-6.73 -9.523,-10.777 -13.536,-16.721 -0.66,-0.977 -0.948,-2.855 -1.593,-3.98 -1.646,-2.873 -3.484,-6.373 -5.573,-10.352 -7.717,2.104 -11.852,7.789 -18.313,11.148 -15.792,4.24 -26.412,-11.662 -13.536,-17.518 -0.912,-4.072 -5.995,-5.107 -2.389,-9.555 2.823,0.627 2.736,4.164 5.573,4.777 5.372,-0.732 7.478,-4.732 12.74,-5.574 9.015,-9.299 19.969,-16.658 25.479,-29.461 2.416,-0.293 1.653,2.594 2.389,3.98 6.455,-0.465 10.061,2.199 15.129,1.594 8.885,-1.062 14.321,-12.326 23.091,-7.963 0.555,4.424 -4.675,4.23 -7.166,5.574 -7.532,4.061 -16.433,9.223 -25.48,12.74 -5.85,0.361 -13.679,2.473 -17.517,5.572 -7.842,6.336 -15.8,12.93 -24.684,18.314 -2.999,1.816 -7.229,2.639 -8.759,6.369 4.5,3.922 12.434,-0.24 12.739,-5.574 4.637,4.42 -2.594,7.777 -4.777,10.352 7.213,1.102 15.382,-3.723 19.11,-8.758 7.632,-0.422 13.523,-4.656 19.906,-7.963 3.53,-1.83 9.251,-0.906 14.332,-1.592 4.328,-0.586 7.676,-3.955 11.943,-1.594 -0.019,5.291 -5.075,5.541 -10.351,5.574 3.457,7.936 17.435,-0.605 19.905,5.574 -4.801,8.072 -17.982,1.793 -23.091,-1.594 -1.573,-1.85 -1.573,-2.131 0,-3.98 -9.466,-0.707 -13.177,4.34 -19.109,7.166 1.921,9.492 7.761,15.064 13.536,20.703 3.008,-5.666 1.651,-12.492 3.98,-17.518 5.164,2.123 3.503,11.32 3.186,18.312 -0.274,6.051 -1.913,13.135 0,18.314 2.763,7.48 10.362,7.668 13.536,14.332 8.111,0.912 15.824,2.225 18.313,8.758 -4.288,3.123 -8.383,-2.463 -14.332,-2.389 -1.868,3.072 2.64,5.559 3.98,7.963 1.132,8.158 6.82,11.758 8.759,19.109 5.704,-2.258 6.043,-9.881 11.943,-11.943 5.43,-10.566 21.576,-25.041 11.147,-39.016 -2.458,-0.129 -4.5,1.881 -6.37,0 0.394,-9.416 -1.718,-16.33 -3.185,-23.887 -0.12,-1.473 -2.696,-0.488 -3.185,-1.592 -0.361,-9.99 1.578,-22.281 -3.186,-27.869 1.307,-12.002 -3.816,-18.809 0,-25.48 -1.23,-8.27 -3.312,-17.043 -11.147,-22.293 -6.062,-15.438 -15.135,-27.863 -22.294,-42.202 -7.354,-3.808 -16.415,-3.137 -24.684,-5.573 -4.713,-1.389 -8.445,-4.426 -13.536,-4.777 -4.597,-0.318 -9.374,1.184 -14.333,1.592 -4.217,-1.985 -13.472,-5.285 -17.517,-2.389 0.908,6.158 11.122,8.221 15.925,5.574 -0.931,8.929 -9.441,0.897 -15.925,1.592 0.134,5.44 5.165,5.982 7.166,9.556 6.396,0.623 11.312,4.824 17.518,3.98 2.212,-0.301 2.655,-1.951 4.777,-1.592 2.733,0.461 3.445,2.365 6.37,3.98 6.38,3.521 13.527,5.553 22.294,7.166 0.238,10.113 4.751,15.951 8.759,22.295 2.532,-1.551 -0.207,-3.756 2.389,-5.574 3.06,0.658 0.393,7.039 3.186,7.963 5.354,1.553 12.633,-2.812 17.517,0.797 -4.08,5.242 -12.608,4.529 -19.109,3.98 -11.436,-0.967 -25.388,-3.986 -34.238,-3.186 -7.519,5.754 -11.554,14.988 -18.313,21.498 -1.164,2.834 2.559,4.771 0.797,5.574 -3.828,6.523 -8.498,12.205 -12.74,18.314 -20.476,-3.621 -42.062,1.449 -60.514,-2.389 -9.23,2.162 -24.047,0.855 -34.238,0.795 -1.115,-6.848 -7.384,-8.539 -11.147,-12.738 -4.782,3.738 -0.812,9.736 -2.389,14.332 -2.114,6.16 -10.568,7.969 -11.943,14.332 6.229,16.334 3.626,33.234 -9.555,42.201 -1.679,9.998 -4.334,19.021 -6.37,28.664 10.305,3.23 18.761,8.311 28.665,11.943 -0.01,12.465 -4.315,20.633 -4.777,32.645 -3.514,0.072 -3.729,3.145 -6.37,3.186 -4.276,0.066 -7.438,-6.314 -10.351,-8.758 -5.387,-0.018 -9.48,-4.486 -14.332,-6.371 -1.874,-0.727 -4.304,-0.104 -6.37,-0.795 -1.775,-0.596 -3.031,-2.605 -4.777,-3.186 -2.94,-0.979 -6.508,-1.449 -9.555,-2.389 -3.076,-0.947 -6.042,-2.508 -8.758,-3.186 -2.83,-0.705 -6.102,-0.086 -8.759,-0.795 -6.259,-1.674 -10.552,-6.289 -16.721,-7.166 -2.507,-3.6 -5.57,-6.641 -9.555,-8.76 -5.851,2.111 -3.375,12.549 -6.37,17.518 -3.095,1.678 -6.342,0.416 -7.962,-1.592 -0.166,-8.129 4.488,-11.438 5.574,-18.314 5.822,-1.609 5.72,-9.143 12.74,-9.555 1.363,-2.883 1.986,-6.506 1.592,-11.146 3.426,-2.68 6.821,-5.389 11.147,-7.166 3.653,-14.215 1.004,-29.834 -1.593,-44.59 -0.208,-1.182 -1.459,-2.719 -1.592,-3.982 -0.271,-2.574 1.15,-4.846 -1.592,-7.166 0.691,-11.406 -3.17,-15.492 -0.796,-23.887 -2.435,-4.73 -3.542,-10.791 -3.981,-17.518 -0.802,-1.586 -1.989,-2.787 -3.185,-3.98 3.377,-13.078 8.239,-24.672 12.74,-36.627 -1.268,-5.848 3.296,-10.648 4.777,-15.924 1.115,-3.973 0.518,-8.831 1.592,-12.74 0.846,-3.075 3.203,-5.467 3.185,-8.759 7.858,-6.739 16.745,-12.45 22.295,-21.498 4.317,-1.377 7.394,-4.114 11.147,-7.167 3.681,-2.994 7.367,-8.695 14.333,-8.758 6.515,-0.06 15.585,2.332 26.276,1.592 5.226,-0.362 10.104,-3.199 13.536,0.796 0.211,6.316 -2.197,10.012 -6.37,11.943 0.681,-2.538 -0.693,-3.022 -1.592,-3.981 -6.515,0.517 -7.849,1.933 -14.333,1.592 -3.443,-0.007 -3.145,-3.756 -5.574,-4.777 -18.911,-4.064 -24.618,8.707 -35.034,17.517 -3.316,2.805 -7.181,3.81 -9.555,7.167 2.587,3.062 6.135,1.319 9.555,1.592 4.334,0.347 9.364,1.905 13.536,0.797 4.145,-1.102 5.112,-5.768 9.555,-8.759 3.548,-2.39 9.183,-3.807 15.128,-4.777 5.27,-0.86 10.085,-1.385 15.925,-4.777 2.395,-0.803 1.411,1.774 1.592,3.185 21.377,-1.357 30.503,0.774 54.145,-0.796 -1.761,-5.14 -8.869,-4.933 -7.167,-13.536 -3.648,1.661 -1.157,9.459 -3.185,12.74 -5.065,-7.382 -3.278,-24.83 6.37,-25.479 2.032,-0.137 3.583,1.666 6.37,3.981 -1.194,-8.428 -4.386,-16.675 -5.574,-24.683 -0.311,-2.092 0.25,-4.368 0,-6.37 -0.593,-4.743 -1.268,-8.868 -2.389,-15.128 -0.287,-1.602 -1.604,-3.926 -1.593,-5.574 0.014,-1.834 0.53,-6.637 1.593,-9.555 0.943,-2.588 3.895,-4.562 4.777,-7.167 1.028,-3.035 -0.747,-7.766 0,-11.147 0.422,-1.911 2.039,-4.124 3.981,-7.167 1.456,-2.28 2.619,-4.781 3.981,-7.166 1.245,-2.179 3.27,-4.032 4.777,-6.37 3.126,-4.847 5.001,-9.749 8.759,-13.536 2.649,-2.671 6.549,-3.995 7.962,-7.167 3.323,-0.588 6.164,-0.736 9.555,-2.389 4.969,-2.421 6.927,-5.614 13.536,-8.758 3.957,-1.883 7.04,-1.968 11.943,-3.981 2.031,-0.833 3.009,-2.684 4.777,-3.185 5.115,-1.448 12.85,-2.299 18.313,-2.389 9.165,-0.15 21.557,4.414 33.442,5.574 6.897,0.673 15.324,-0.651 20.702,1.593 1.475,0.615 2.823,2.814 4.777,3.981 6.39,3.814 13.413,7.95 18.313,14.333 2.971,0.48 3.905,2.995 7.166,3.185 3.009,8.404 4.091,18.734 9.555,24.684 0.041,3.427 0.11,5.153 1.593,7.962 0.36,0.684 0.272,2.123 0.796,3.185 1.373,2.781 4.301,5.26 4.777,7.962 0.498,2.821 -1.046,6.305 -1.592,11.147 -1.081,9.574 1.619,22.055 0,35.831 -0.198,1.678 -2.163,3.506 -2.389,5.574 -0.2,1.824 1.153,3.168 0.796,4.777 -0.84,3.65 -3.33,6.97 -3.23,10.44 z m -213.39,52.55 c -2.46,-0.193 -1.345,-3.963 -4.777,-3.185 -2.045,8.04 -2.521,17.65 -3.185,27.073 h -3.185 c 0.474,1.648 -0.984,5.23 0.796,5.572 0.386,-0.939 0.849,-1.805 1.592,-2.389 1.96,3.254 4.519,9.582 8.759,7.963 0.216,-3.4 -2.907,-3.463 -3.981,-5.574 -3.704,-7.434 0.367,-15.145 0,-23.886 2.421,-2.867 10.148,-1.759 11.147,1.592 -0.172,3.092 0.844,4.995 3.185,5.574 0.209,-2.779 -1.365,-3.231 -1.593,-5.574 -0.356,-3.667 3.171,-7.188 3.185,-11.146 0.009,-2.534 -1.678,-4.271 -1.592,-7.167 -6.57,-2.282 -18.956,-4.123 -23.887,0.797 -0.329,3.779 2.717,4.184 2.389,7.962 -1.773,4.597 -10.75,1.99 -15.128,3.981 -0.466,8.626 -1.905,18.184 0.796,26.276 4.549,-6.152 -2.795,-19.277 3.185,-23.887 6.451,-0.187 11.074,0.248 14.333,-1.593 -0.783,-3.198 -0.976,-6.986 -0.796,-11.146 1.555,-1.365 4.456,-1.384 6.37,-2.39 0.461,2.586 -0.542,3.705 -0.796,5.574 4.333,-1.64 5.154,-4.878 11.147,-3.185 -0.36,3.896 1.848,5.553 -0.796,7.166 0.437,-2.438 -2.015,-8.31 -6.37,-5.574 -0.16,2.52 0.54,5.87 -0.79,7.19 z M 274.71,13.54 c -3.735,-1.726 -7.911,-3.467 -11.943,-0.796 -5.722,-3.565 -12.47,1.964 -19.906,1.592 -5.005,-4.681 -7.917,1.075 -11.944,3.981 -6.83,4.929 -12.204,6.045 -22.294,5.574 -3.409,4.208 -8.506,6.995 -11.944,11.147 -2.241,2.708 -3.945,6.325 -5.573,9.555 3.896,0.181 5.004,-2.427 8.758,-2.389 5.345,1.821 5.508,8.825 9.555,11.944 2.444,0.55 5.173,-0.76 7.166,0 1.842,0.702 1.387,2.587 2.389,3.981 1.596,2.22 6.722,4.22 4.777,7.962 -6.479,1.217 -14.704,0.69 -19.905,3.185 -2.271,3.088 0.481,7.204 -3.981,8.759 -6.141,-1.904 -17.594,-3.974 -11.943,-12.74 1.907,-0.481 3.633,-1.145 6.37,-0.796 -1.973,-6.042 1.976,-10.671 7.962,-11.147 -0.658,-2.25 1.122,-2.063 0.796,-3.981 -0.254,-1.87 -2.464,-1.782 -3.185,-3.185 -5.873,0.497 -7.732,5.007 -13.536,5.574 -1.805,3.237 -2.523,7.562 -5.573,9.555 0.063,13.371 -5.78,19.929 -3.981,35.035 1.702,0.952 0.989,4.319 4.777,3.185 -0.787,-5.193 -2.083,-6.776 0.796,-10.351 -0.251,-1.872 -3.774,-0.472 -3.185,-3.185 0.728,-1.396 1.48,-2.767 3.981,-2.389 0.7,-2.558 -2.625,-1.091 -2.389,-3.185 1.597,-2.385 6.537,-1.426 10.351,-1.593 1.991,2.097 0.348,4.277 2.389,7.167 -5.582,7.082 -2.495,19.589 -6.37,27.072 1.96,1.755 6.104,1.328 6.37,4.777 -0.252,2.933 -5.983,0.387 -7.167,2.389 2.07,1.646 7.755,-0.324 7.962,3.185 -0.487,6.148 -6.417,6.854 -8.758,11.147 3.145,6.805 1.434,13.54 1.592,23.091 -1.516,0.342 -2,1.715 -3.981,1.592 -5.726,-4.277 -5.481,-20.588 -15.925,-15.128 0.149,3.035 4.443,1.927 4.777,4.777 1.414,5.222 5.086,8.185 4.777,15.129 13.992,1.324 29.309,1.158 42.201,0 0.122,-4.125 -0.812,-9.306 2.389,-10.351 3.375,-0.606 9.429,1.467 10.351,-1.593 -4.938,-1.268 -11.979,-2.483 -18.313,-1.592 -4.19,0.589 -8.515,4.52 -10.351,1.592 1.46,-3.847 4.784,-5.833 7.962,-7.962 4.197,1.414 6.893,-2.032 10.351,-2.389 6.643,-0.684 12.982,2.687 20.703,0.796 5.471,3.288 13.361,4.156 14.332,11.943 -3.256,2.662 -6.137,-1.784 -8.759,0 -1.421,2.918 -1.856,6.08 -0.796,9.555 6.402,1.398 15.173,-2.003 21.498,1.592 0.544,5.016 0.094,11.631 1.593,17.517 11.334,8.837 36.62,3.723 31.85,28.666 7.487,1.535 13.452,4.594 15.128,11.943 -0.691,1.164 -1.191,2.523 -3.185,2.389 -5.046,-2.387 -6.449,-8.414 -11.943,-10.352 -0.514,8.475 1.94,13.984 6.369,17.518 2.656,-2.084 7.045,0.887 7.963,3.184 -0.621,0.176 -0.926,0.668 -0.797,1.594 -0.157,2.496 -5.209,0.1 -4.777,3.186 1.714,7.479 10.341,12.34 11.944,19.109 0.975,4.117 -1.356,8.924 0.796,14.332 3.47,-2.006 5.153,-7.531 7.166,-11.943 3.118,-6.84 5.423,-11.268 6.37,-19.109 0.572,-4.736 3.467,-10.602 0.796,-14.334 -1.247,1.143 -0.627,4.152 -3.185,3.982 -0.866,-6.062 3.497,-14.777 3.981,-19.109 0.351,-3.151 1.053,-5.44 1.592,-7.167 0.377,-1.209 -0.379,-2.773 0,-3.981 1.169,-3.717 2.754,-6.961 3.981,-11.147 1.59,-5.418 4.52,-12.692 4.777,-19.11 1.199,-2.551 2.869,-0.913 5.574,-0.796 1.385,-8.435 4.74,-14.9 7.962,-21.499 2.505,-0.398 3.112,1.735 4.777,0 -0.462,-4.316 -1.654,-7.901 -5.573,-8.759 -4.584,3.113 -6.018,9.376 -8.759,14.333 -0.238,4.274 1.144,10.167 -3.186,10.351 0.58,-2.173 -1.582,-1.603 -1.592,-3.185 0.798,-10.512 -0.738,-28.66 -0.797,-38.219 -3.055,-4.377 -5.4,-9.462 -5.573,-16.721 0.323,-1.534 3.087,-0.629 2.389,-3.185 0.644,-14.679 -6.666,-20.735 -11.147,-32.646 -0.25,-1.873 -3.774,-0.473 -3.185,-3.185 3.687,-2.418 7.985,-4.223 14.332,-3.981 0.516,3.466 3.589,4.374 3.981,7.962 -1.189,1.199 -4.54,0.238 -3.981,3.185 1.698,1.487 5.289,1.081 6.37,3.185 0.458,3.94 -0.635,7.392 0,10.351 0.29,1.353 1.829,1.292 2.389,2.389 0.772,1.516 -1.311,4.968 1.593,3.981 3.553,-2.515 1.141,-13.72 1.592,-16.721 1.367,-1.288 1.979,-3.331 1.593,-6.37 C 345.144,70.504 345.75,54.77 339.205,46.187 v -5.574 c -3.725,-4.042 -12.31,-3.653 -15.925,0 -0.94,-0.917 -2.814,-0.901 -4.777,-0.796 -9.41,6.062 -19.67,11.895 -26.276,20.702 -0.767,1.022 -0.646,2.268 -1.592,3.185 -1.768,1.715 -4.448,4.323 -7.166,3.981 -1.937,-1.565 0.048,-2.431 0.796,-3.981 3.473,-7.197 10.068,-11.081 15.129,-15.925 -2.82,-4.808 -4.809,-11.914 -10.352,-13.536 -2.881,-0.843 -5.869,1.572 -9.555,0 -11.894,6.42 -21.528,15.1 -28.665,26.276 0.321,1.537 3.646,0.069 2.389,3.185 -7.023,-1.981 -4.279,5.807 -10.351,4.777 -0.9,-2.802 1.933,-4.554 3.185,-6.37 1.395,-2.024 2.634,-4.749 3.981,-6.37 1.21,-1.456 4.137,-2.319 5.573,-3.981 1.288,-1.49 1.216,-3.62 2.389,-4.778 2.875,-2.836 7.969,-3.997 8.759,-8.758 -4.542,-3.506 -6.94,1.944 -11.943,2.389 -2.425,-4.216 -5.21,-2.823 -8.759,-3.185 2.668,-6.622 9.136,-9.443 13.536,-14.332 10.495,1.15 18.952,-2.044 29.461,0 2.975,0.851 2.27,-1.978 4.777,-1.593 2.777,2.266 8.075,2.01 10.352,4.777 2.55,-0.368 2.808,-3.032 5.573,-3.185 0.75,3.236 -4.622,2.45 -2.389,4.777 5.083,-0.49 11.402,2.954 12.74,-2.389 -3.407,-1.636 -5.747,-4.339 -8.759,-6.37 -3.096,2.995 -8.314,0.349 -11.943,1.592 -4.87,-8.481 -16.204,-1.965 -23.888,-2.389 -0.92,-0.951 -0.9,-2.825 -0.79,-4.787 z m -93.96,92.36 c 1.005,-0.934 0.638,-3.309 -1.593,-3.185 -0.22,1.81 0.19,2.99 1.59,3.18 z m -74.05,47.78 c 2.694,0.779 7.527,-0.979 10.351,-0.796 -1.28,-3.53 -8.38,-0.18 -10.35,0.8 z m 116.25,11.94 c -1.85,0.539 -2.131,2.646 -3.981,3.185 -32.92,0.521 -67.934,-1.05 -99.53,0.796 0.069,4.05 0.349,8.312 -1.592,10.352 -5.229,1.531 -10.253,-0.47 -15.129,0 -3.355,0.323 -8.554,1.124 -9.555,3.185 7.114,0.455 22.379,2.339 30.257,-0.796 1.362,-1.943 -1.97,-4.515 -0.796,-8.759 1.624,-0.234 1.561,-2.154 3.185,-2.389 25.541,0.055 62.247,0.987 88.382,0 2.163,1.021 2.292,4.078 4.777,4.777 2.07,-1.56 -3.197,-4.702 1.592,-4.777 3.399,0.582 2.198,5.765 2.389,9.555 8.756,0.531 19.272,-0.129 23.888,-1.593 1.331,-0.422 4.039,0.816 3.185,-1.592 -1.885,-0.49 -5.289,-0.062 -4.777,-4.778 0.62,-0.176 0.925,-0.667 0.796,-1.592 6.887,-0.468 15.844,3.02 19.906,-1.593 -6.269,-1.919 -16.14,0.017 -20.702,-1.592 -1.635,-3.143 0.071,-9.626 -2.389,-11.943 -9.71,-0.45 -27.06,-1.75 -19.91,9.55 z m 136.95,1.59 c 0.977,2.475 3.702,3.199 3.185,7.166 -0.916,3.288 -4.362,2.816 -6.369,3.186 -0.604,2.846 -2.65,4.251 -5.574,4.777 -0.059,3.392 -1.332,5.568 -0.796,9.555 2.796,0.467 2.619,-3.764 4.777,-1.593 -0.326,2.859 -0.201,6.169 -2.389,7.166 -1.98,-0.087 -2.465,-1.492 -3.981,0 0.882,8.054 -3.52,14.154 -1.593,20.703 9.689,-1.723 9.26,-13.566 13.536,-20.703 -2.012,-1.505 0.734,-2.791 -0.796,-4.777 5.184,-6.229 8.271,-14.555 7.166,-27.072 -1.15,-1.237 -1.675,-3.103 -2.389,-4.777 1.645,-0.479 3.016,-1.231 2.389,-3.981 -5.66,0.17 -6.84,4.83 -7.17,10.34 z m -256.38,5.58 c 2.105,1.524 7.311,0.827 9.555,0 -0.07,-4.4 -8.89,-2.32 -9.56,0 z m -10.356,0.79 c 2.407,-0.247 6.193,0.884 6.37,-1.592 -1.998,0.66 -6.856,-1.55 -6.37,1.59 z m 20.706,1.6 c -0.533,3.45 4.005,2.453 3.185,-0.797 -1.4,-0.06 -2.48,0.18 -3.19,0.8 z m -28.668,5.57 c 2.556,1.139 5.18,-0.746 5.574,-3.981 -2.568,-1.15 -5.714,0.21 -5.574,3.98 z m 39.808,1.59 h 3.185 c -0.872,-2.031 2.72,-4.097 -0.796,-3.981 0.6,2.72 -3.23,1.01 -2.39,3.98 z m 38.22,-3.98 c -0.821,2.629 -8.373,-1.473 -7.962,2.389 9.481,-1.969 24.549,1.302 34.238,-0.796 -7.14,-2.15 -19.08,0.5 -26.28,-1.59 z m 31.06,2.39 c 7.491,0.001 13.259,2.073 19.11,1.593 v 9.555 c 4.302,-0.165 2.299,-10.138 1.592,-12.74 -7.77,0.41 -16.87,-0.75 -20.7,1.59 z m -95.552,7.17 c -7.957,-2.276 -20.493,-1.192 -27.868,-2.389 -6.644,-1.077 -19.808,-3.215 -24.684,0 -1.287,12.308 -4.756,19.601 -6.37,32.646 -2.531,4.369 -4.665,9.137 -4.777,15.924 -6.146,7.77 -12.183,23.369 -4.777,33.443 1.222,-6.822 -1.361,-13.77 3.185,-15.129 2.366,-0.707 0.151,4.602 0,3.186 0.534,5.01 3.17,12.576 0,16.721 1.383,3.395 1.815,7.74 1.592,12.74 -1.387,-0.061 -2.476,0.176 -3.185,0.795 -0.136,6.086 2.175,11.018 3.185,14.332 3.159,10.371 2.281,21.639 4.777,31.055 3.507,13.225 -4.258,26.236 -4.777,40.607 5.28,2.586 10.567,7.576 17.518,9.555 2.705,0.77 5.831,0.047 8.758,0.797 6.419,1.646 13.139,7.443 19.906,4.777 1.898,-9.691 1.042,-16.07 3.185,-23.092 -4.923,-0.021 -7.78,8.584 -13.536,10.352 -1.504,-8.186 9.622,-11.584 14.332,-17.518 2.046,-2.578 2.633,-6.369 4.777,-8.758 0.479,-0.533 1.892,-0.229 2.389,-0.797 1.585,-1.812 2.202,-3.611 4.778,-3.98 2.113,-10.492 3.702,-24.916 -0.796,-33.443 -6.878,-3.736 -8.237,-12.996 -15.128,-16.721 -3.176,-0.787 -2.398,2.381 -5.574,1.594 -1.795,-1.723 0.659,-2.717 0,-5.574 -4.985,-0.389 -15.398,3.508 -15.925,-1.592 -0.055,-0.533 3.781,-2.92 4.777,-3.186 4.659,-1.244 14.114,2.328 14.333,-3.98 -2.278,-0.586 -4.504,-3.857 -2.389,-6.371 4.413,1.264 5.078,5.129 9.555,5.574 5.338,0.531 10.153,-6.15 14.332,-2.389 0.125,3.045 -3.251,2.588 -4.777,3.98 0.667,3.852 -0.739,5.631 -1.592,7.963 1.108,2.342 4.192,2.709 3.981,6.369 -1.584,1.07 -3.791,1.518 -5.574,2.389 1.419,2.828 2.292,6.201 5.574,7.166 5.019,-3.539 11.175,-6.051 12.74,-11.943 2.091,-7.871 -3.693,-17.453 -1.592,-27.867 -1.001,-0.326 -1.627,-1.027 -1.592,-2.389 -8.967,-5.127 -28.686,-4.035 -38.22,-6.371 -5.333,-1.307 -14.672,0.008 -15.128,-6.369 4.022,-0.371 9.533,0.551 11.147,-3.98 2.77,1.59 0.535,4.043 3.185,4.777 3.354,-2.486 4.509,-7.17 7.166,-10.352 -0.877,-3.021 0.901,-10.23 5.574,-10.352 2.254,4.738 -5.974,6.27 -1.593,7.963 2.833,-2.209 3.785,-6.301 7.167,-7.963 2.169,0.75 1.822,4.018 2.389,6.369 5.512,1.363 13.088,-2.586 15.128,3.186 -0.036,3.414 -4.956,1.945 -7.166,3.186 0.401,4.117 -2.255,5.178 -1.593,9.555 2.934,2.906 7.532,4.146 11.944,5.574 2.559,-2.219 3.546,-6.01 6.37,-7.963 0.52,4.523 -1.047,11.133 0.796,14.332 0.462,-5.773 4.361,-12.064 0,-15.924 -0.658,-5.811 5.772,-10.328 5.574,-14.334 -0.33,-6.629 -10.768,-10.504 -15.925,-13.535 -4.981,-2.928 -10.008,-5.334 -15.128,-7.963 -7.208,-3.701 -9.876,-6.823 -17.518,-5.573 -6.355,4.079 -9.021,10.618 -12.74,16.721 -4.083,6.701 -10.027,12.502 -12.74,19.906 -4.394,1.709 -4.794,7.414 -10.351,7.961 -0.19,-1.135 -1.312,-1.342 -1.592,-2.389 2.284,-7.27 9.502,-9.607 11.147,-17.518 6.45,-5.227 10.686,-12.67 14.333,-20.702 1.67,-1.515 4.2,-2.169 3.981,-5.573 -1.63,-0.83 -4.24,-5.25 -0.796,-6.37 3.613,-0.429 2.125,4.244 5.574,3.981 5.862,-2.951 12.898,-1.058 17.517,1.593 3.098,-0.659 4.915,-5.417 7.962,-1.593 -0.356,2.298 -3.426,1.883 -3.981,3.981 4.103,2.797 8.302,5.499 13.536,7.167 1.021,2.268 4.235,5.336 6.37,3.98 0.991,-6.152 -3.354,-13.547 -5.574,-19.11 -0.393,-2.517 3.951,-0.295 3.185,-3.185 -0.805,-2.242 -3.382,0.22 -4.778,0 -0.02,-3.98 -2.45,-5.53 -3.982,-7.98 z m 101.12,-3.19 c -13.19,1.393 -27.529,-0.795 -42.201,0.796 -1.398,6.034 -4.022,15.624 0.796,19.11 5.777,1.216 9.67,-1.56 14.333,-1.593 16.169,-0.114 29.384,12.96 29.46,29.46 0.032,6.766 -3.575,12.973 -3.185,20.703 -5.085,1.656 -8.959,6.998 -15.129,8.758 -7.944,2.266 -16.617,-0.627 -26.276,-0.797 0.634,-4.973 -4.757,-3.178 -6.37,-3.98 1.476,-5.352 -5.044,-9.17 -6.37,-14.332 0.011,-5.584 -0.041,-11.107 -5.574,-11.148 -1.168,4.381 0.538,12.561 2.389,16.723 0.259,0.582 2.011,1.012 2.389,1.592 0.767,1.18 0.664,3.809 0.796,3.98 1.316,1.717 5.752,2.809 5.574,4.777 -0.165,1.812 -3.555,1.268 -5.574,3.186 -1.659,1.578 -4.767,6.355 -4.777,11.146 4.031,-1.074 5.672,-2.902 5.574,-6.369 2.564,-1.416 4.731,-3.23 8.759,-3.186 3.185,3.451 11.493,1.777 13.536,6.371 4.871,-4.287 17.186,0.281 21.499,-0.797 1.799,-1.648 -1.11,-4.109 2.389,-4.777 7.873,0.439 11.642,-3.221 12.74,-9.555 -2.288,-1.111 -4.045,2.17 -4.777,0 0.973,-4.258 5.163,-6.441 6.37,-10.352 1.631,-5.279 -1.274,-10.838 1.592,-15.129 -3.727,-9.809 -10.729,-16.342 -16.721,-23.886 1.326,-1.582 -0.072,-1.013 0,-3.186 -9.594,-4.325 -22.677,-2.199 -31.85,-1.592 12.469,-7.536 33.046,-0.133 43.793,-3.981 0.64,-2.337 -1.565,-5.398 0,-9.555 -1.06,-0.8 -2.4,-1.31 -3.18,-2.39 z m 93.96,11.94 c -10.206,-1.092 -20.996,-11.837 -31.85,-11.147 -4.009,0.255 -5.757,2.658 -8.759,3.981 -2.619,1.155 -6.881,0.501 -7.962,3.981 15.688,-0.825 24.812,4.914 38.22,6.369 2.88,2.163 4.487,5.599 7.962,7.167 1.586,2.395 1.912,6.049 5.574,6.37 -0.52,-7.83 -0.99,-11.41 -3.18,-16.72 z m -170.4,3.99 c -2.147,2.241 1.412,3.267 0.796,6.37 -1.625,3.709 -1.651,8.758 0.796,11.944 -3.135,3.766 -2.665,11.137 -3.981,16.721 4.512,5.043 6.541,12.568 7.167,21.498 2.985,-6.9 -0.133,-12.283 2.389,-17.518 -1.856,-1.328 -2.826,-3.543 -3.981,-5.574 1.862,-10.373 1.404,-18.549 2.389,-32.645 -1.6,-0.75 -3.81,-2.6 -5.59,-0.8 z m 79.62,7.16 c 0.354,3.894 -1.153,9.646 2.389,10.351 4.248,1.484 4.086,-5.482 4.777,-8.758 3.358,4.725 2.242,12.479 3.185,19.11 0.445,3.125 2.441,5.766 1.592,8.758 -2.433,-0.574 -2.902,0.814 -4.777,0.797 0.726,13.188 3.771,27.021 3.185,39.016 5.649,0.158 1.97,-7.104 1.592,-12.74 -0.578,-8.656 -1.147,-17.584 -0.796,-26.275 h 3.981 c 1.601,-9.283 -2.309,-18.438 -2.389,-31.85 -2.939,-1.608 -5.617,-0.335 -7.962,0.797 -1.13,-2.321 -3.354,-3.547 -7.166,-3.186 -0.37,2.5 2.15,2.1 2.39,3.98 z m -54.94,4.78 c 0.25,-1.076 1.133,-1.52 0.796,-3.184 h -2.389 c -0.22,1.81 0.19,2.99 1.59,3.18 z m 7.97,4.78 c -3.793,3.971 -6.807,13.367 -5.574,19.906 0.162,0.855 3.694,9.164 3.981,9.555 0.28,0.383 2.01,0.418 2.389,0.797 0.437,0.438 0.339,2.027 0.796,2.389 2.58,2.037 8.904,4.34 11.147,4.777 12.011,2.344 22.512,-3.721 25.479,-13.535 4.981,-16.479 -5.343,-33.181 -23.887,-30.258 -7.41,1.15 -11.29,3.16 -14.34,6.36 z m 66.88,49.36 c -0.009,3.85 -0.62,8.756 2.389,11.148 2.601,-21.098 -0.505,-46.611 0,-62.904 -1.018,-0.043 -1.103,-1.02 -2.389,-0.795 0.21,20.86 0.03,39.33 0,52.54 z m -105.1,-41.4 c 0.045,-0.486 0.119,-0.943 0.796,-0.797 -0.09,-0.971 -0.238,-1.885 -1.592,-1.592 0.12,0.94 -0.14,2.26 0.79,2.39 z m 116.25,5.57 c 0.615,-3.535 -2.634,-3.205 -3.98,-4.777 -0.09,3.01 1.56,4.29 3.98,4.78 z m 3.18,-3.18 c -0.059,2.711 2.342,2.965 3.98,3.98 0.113,-2.541 2.943,-2.363 3.186,-4.777 -3.83,0.53 -2.88,1.7 -7.17,0.8 z m -0.79,14.33 c -2.557,-0.361 -2.74,-3.098 -3.98,-4.777 -2.895,0.025 -3.498,2.342 -3.186,5.574 3.836,-0.387 5.491,1.41 6.37,3.98 -2.436,0.578 -2.343,-1.373 -4.778,-0.795 2.747,3.396 -0.469,5.82 -0.795,10.35 2.531,-1.217 3.502,-0.279 6.369,0 0.598,-2.721 -3.234,-1.012 -2.389,-3.98 3.805,-2.215 1.871,-11.977 8.759,-8.758 -1.793,-4.312 -6.54,-5.672 -9.556,-8.76 -0.43,3.39 5.9,4.14 3.19,7.17 z m 34.23,7.17 c 2.479,0.008 5.188,1.883 7.166,0 -1.81,-5.09 -2.844,-10.957 -7.166,-13.535 -2.07,3.72 0.01,9.3 0,13.53 z m -21.49,-11.15 c -0.594,2.451 2.186,1.529 1.592,3.98 4.576,0.979 5.947,-4.037 2.389,-4.777 -1.2,1.85 -1.95,1.22 -3.98,0.8 z m -174.38,14.33 c 5.415,0.637 10.394,1.928 16.721,0.797 0.4,-3.77 1.642,-8.48 0,-11.943 -9.185,-4.57 -14.576,3.87 -16.721,11.14 z m 144.12,4.78 c 1.229,-3.363 1.97,-12.387 -2.389,-12.74 -2.15,4.29 1.1,9.31 2.39,12.74 z m 27.07,-9.56 c 0.043,-1.371 -0.612,-2.041 -1.592,-2.389 -0.04,1.37 0.61,2.05 1.59,2.39 z m -117.04,16.72 c -2.111,0.254 0.745,-4.461 -2.389,-3.186 0.133,4.646 -1.39,7.635 -0.796,12.74 7.839,-0.465 7.599,-12.998 7.166,-19.109 h -2.389 c 0.19,4.94 0.84,6.53 -1.59,9.56 z m 7.16,11.15 c 4.825,-0.373 0.231,-5.467 1.592,-9.555 0.707,-1.416 2.223,-2.023 1.592,-4.777 -0.175,-0.619 -0.667,-0.924 -1.592,-0.795 -2.52,4.31 -2.06,9.47 -1.59,15.14 z m -23.89,-1.59 c 1.912,0.742 2.108,3.199 5.574,2.389 -1.781,-2.996 -1.82,-7.734 -3.981,-10.352 -1.08,2.1 -0.94,5.43 -1.59,7.96 z m 93.96,-4.78 c 1.411,-0.182 3.987,0.803 3.185,-1.592 h -3.185 c -0.01,0.53 -0.01,1.06 -0.01,1.59 z m -62.9,7.17 c 28.686,1.76 48.444,1.375 68.477,0.797 -3.146,-5.549 -9.838,-2.621 -15.129,-2.389 -16.894,0.742 -42.042,-0.002 -55.736,-0.797 -0.15,1.74 0.65,2.53 2.39,2.39 z m -15.13,7.96 c 0.668,-0.924 1.05,-2.135 0.796,-3.98 -1.507,-1.414 -5.259,-0.58 -7.962,-0.797 1.79,2.19 3.05,4.91 7.16,4.78 z m 7.16,-3.98 c -1.495,1.518 0.472,1.439 0,3.98 4.32,0.869 5.294,-1.607 8.759,-1.592 10.958,3.41 22.837,-1.873 38.219,1.592 6.485,-4.105 24.973,4.184 29.461,-3.98 -27.68,-0.66 -48.28,-1.09 -76.44,0 z m 81.22,0 c -0.593,2.449 2.186,1.529 1.592,3.98 3.421,-1.623 9.536,-0.551 10.351,-4.777 -3.88,0.37 -9.32,-0.83 -11.94,0.8 z m -134.56,3.98 c -0.13,5.439 4.916,5.701 5.574,10.352 5.54,-0.973 2.08,-8.062 0.796,-11.148 -2.95,0.91 -4.616,0.08 -6.37,0.8 z m 128.99,3.98 h 1.592 v -1.592 h -1.592 v 1.59 z M 22.298,389.36 c 21.75,10.896 50.498,14.793 71.662,26.275 0.462,-2.457 2.878,-2.961 4.777,-3.98 2.604,0.09 0.39,9.111 3.185,6.369 -1.196,-2.814 3.482,-6.584 3.981,-10.352 -4.217,-8.787 -15.045,-10.965 -23.887,-15.127 -5.482,1.424 -10.453,-2.396 -12.74,-3.186 -3.26,-1.127 -7.735,-0.414 -11.147,-1.594 -1.242,-0.428 -2.174,-2.098 -3.185,-2.389 -2.539,-0.729 -5.562,-0.068 -7.962,-0.795 -3.382,-1.025 -8.794,-3.857 -11.147,-5.574 -3.673,-2.68 -5.215,-6.953 -7.962,-10.352 h -2.389 c 0.634,8.6 -0.932,14.99 -3.182,20.7 z m 74.847,4.78 c 2.922,4.244 7.406,6.926 11.943,9.555 2.65,-6.033 -4.896,-7.645 -8.759,-9.555 -4.42,-2.186 -9.545,-5.338 -14.332,-5.574 1.088,4.48 6.63,4.51 11.148,5.57 z"
     id="path2243"
     inkscape:connector-curvature="0"
     style="clip-rule:evenodd;fill-rule:evenodd" /><path
     d="m 233.3,234.89 c 3.016,3.088 7.763,4.447 9.556,8.76 -6.888,-3.219 -4.954,6.543 -8.759,8.758 -0.846,2.969 2.986,1.26 2.389,3.98 -2.867,-0.279 -3.838,-1.217 -6.369,0 0.326,-4.529 3.542,-6.953 0.795,-10.35 2.436,-0.578 2.343,1.373 4.778,0.795 -0.879,-2.57 -2.534,-4.367 -6.37,-3.98 -0.312,-3.232 0.291,-5.549 3.186,-5.574 1.24,1.68 1.424,4.416 3.98,4.777 2.7,-3.04 -3.63,-3.79 -3.2,-7.18 z"
     id="path2245"
     inkscape:connector-curvature="0"
     style="clip-rule:evenodd;fill:none;fill-rule:evenodd" /><path
     d="m 102.72,195.88 c 1.396,0.22 3.973,-2.242 4.778,0 0.766,2.89 -3.578,0.668 -3.185,3.185 2.22,5.562 6.565,12.958 5.574,19.11 -2.135,1.355 -5.349,-1.713 -6.37,-3.98 -5.234,-1.668 -9.433,-4.37 -13.536,-7.167 0.555,-2.099 3.625,-1.684 3.981,-3.981 -3.047,-3.824 -4.865,0.934 -7.962,1.593 -4.619,-2.65 -11.655,-4.544 -17.517,-1.593 -3.448,0.263 -1.96,-4.41 -5.574,-3.981 -3.444,1.12 -0.834,5.54 0.796,6.37 0.219,3.404 -2.311,4.059 -3.981,5.573 -3.646,8.032 -7.882,15.475 -14.333,20.702 -1.645,7.91 -8.863,10.248 -11.147,17.518 0.281,1.047 1.402,1.254 1.592,2.389 5.557,-0.547 5.957,-6.252 10.351,-7.961 2.713,-7.404 8.656,-13.205 12.74,-19.906 3.719,-6.104 6.385,-12.642 12.74,-16.721 7.642,-1.25 10.309,1.872 17.518,5.573 5.121,2.629 10.147,5.035 15.128,7.963 5.157,3.031 15.595,6.906 15.925,13.535 0.199,4.006 -6.232,8.523 -5.574,14.334 4.361,3.859 0.462,10.15 0,15.924 -1.843,-3.199 -0.276,-9.809 -0.796,-14.332 -2.824,1.953 -3.811,5.744 -6.37,7.963 -4.412,-1.428 -9.01,-2.668 -11.944,-5.574 -0.663,-4.377 1.994,-5.438 1.593,-9.555 2.21,-1.24 7.13,0.229 7.166,-3.186 -2.041,-5.771 -9.617,-1.822 -15.128,-3.186 -0.567,-2.352 -0.219,-5.619 -2.389,-6.369 -3.381,1.662 -4.333,5.754 -7.167,7.963 -4.381,-1.693 3.847,-3.225 1.593,-7.963 -4.673,0.121 -6.451,7.33 -5.574,10.352 -2.657,3.182 -3.812,7.865 -7.166,10.352 -2.65,-0.734 -0.415,-3.188 -3.185,-4.777 -1.615,4.531 -7.125,3.609 -11.147,3.98 0.456,6.377 9.795,5.062 15.128,6.369 9.534,2.336 29.253,1.244 38.22,6.371 -0.035,1.361 0.591,2.062 1.592,2.389 -2.101,10.414 3.684,19.996 1.592,27.867 -1.565,5.893 -7.721,8.404 -12.74,11.943 -3.282,-0.965 -4.154,-4.338 -5.574,-7.166 1.783,-0.871 3.99,-1.318 5.574,-2.389 0.211,-3.66 -2.873,-4.027 -3.981,-6.369 0.854,-2.332 2.26,-4.111 1.592,-7.963 1.526,-1.393 4.903,-0.936 4.777,-3.98 -4.179,-3.762 -8.994,2.92 -14.332,2.389 -4.478,-0.445 -5.142,-4.311 -9.555,-5.574 -2.115,2.514 0.111,5.785 2.389,6.371 -0.219,6.309 -9.674,2.736 -14.333,3.98 -0.996,0.266 -4.832,2.652 -4.777,3.186 0.527,5.1 10.939,1.203 15.925,1.592 0.659,2.857 -1.795,3.852 0,5.574 3.176,0.787 2.397,-2.381 5.574,-1.594 6.892,3.725 8.25,12.984 15.128,16.721 4.498,8.527 2.909,22.951 0.796,33.443 -2.576,0.369 -3.192,2.168 -4.778,3.98 -0.497,0.568 -1.91,0.264 -2.389,0.797 -2.145,2.389 -2.731,6.18 -4.777,8.758 -4.71,5.934 -15.836,9.332 -14.332,17.518 5.755,-1.768 8.612,-10.373 13.536,-10.352 -2.143,7.021 -1.286,13.4 -3.185,23.092 -6.767,2.666 -13.487,-3.131 -19.906,-4.777 -2.927,-0.75 -6.053,-0.027 -8.758,-0.797 -6.95,-1.979 -12.238,-6.969 -17.518,-9.555 0.519,-14.371 8.285,-27.383 4.777,-40.607 -2.497,-9.416 -1.619,-20.684 -4.777,-31.055 -1.01,-3.314 -3.321,-8.246 -3.185,-14.332 0.708,-0.619 1.798,-0.855 3.185,-0.795 0.223,-5 -0.209,-9.346 -1.592,-12.74 3.17,-4.145 0.534,-11.711 0,-16.721 0.151,1.416 2.366,-3.893 0,-3.186 -4.546,1.359 -1.963,8.307 -3.185,15.129 -7.405,-10.074 -1.369,-25.674 4.777,-33.443 0.112,-6.787 2.246,-11.555 4.777,-15.924 1.614,-13.045 5.083,-20.338 6.37,-32.646 4.876,-3.215 18.04,-1.077 24.684,0 7.375,1.196 19.911,0.112 27.868,2.389 1.533,2.47 3.963,4.02 3.983,7.98 z m -62.108,74.05 c 3.973,2.131 -1.464,13.674 4.777,13.535 3.543,-4.619 -0.204,-12.791 0.796,-21.498 -1.136,-0.191 -1.343,-1.311 -2.389,-1.592 -3.14,2.61 -0.711,6.06 -3.184,9.56 z m 14.333,82.01 c 5.736,4.084 27.833,6.379 29.46,-4.777 -7.356,0.94 -24.989,-1.68 -29.46,4.78 z"
     id="path2247"
     inkscape:connector-curvature="0"
     style="clip-rule:evenodd;fill:none;fill-rule:evenodd" /></g>
<metadata
   id="metadata2251"><rdf:RDF><cc:Work><dc:format>image/svg+xml</dc:format><dc:type
         rdf:resource="http://purl.org/dc/dcmitype/StillImage" /><cc:license
         rdf:resource="http://creativecommons.org/publicdomain/zero/1.0/" /><dc:publisher><cc:Agent
           rdf:about="http://openclipart.org/"><dc:title>Openclipart</dc:title></cc:Agent></dc:publisher><dc:title>man with a camera</dc:title><dc:date>2006-10-30T17:30:01</dc:date><dc:description>a drawing of a man taking a picture with a camera</dc:description><dc:source>http://openclipart.org/detail/1032/man-with-a-camera-by-johnny_automatic</dc:source><dc:creator><cc:Agent><dc:title>johnny_automatic</dc:title></cc:Agent></dc:creator><dc:subject><rdf:Bag><rdf:li>black and white</rdf:li><rdf:li>camera</rdf:li><rdf:li>clip art</rdf:li><rdf:li>clipart</rdf:li><rdf:li>image</rdf:li><rdf:li>line art</rdf:li><rdf:li>man</rdf:li><rdf:li>occupation</rdf:li><rdf:li>photography</rdf:li><rdf:li>public domain</rdf:li><rdf:li>vintage</rdf:li></rdf:Bag></dc:subject></cc:Work><cc:License
       rdf:about="http://creativecommons.org/publicdomain/zero/1.0/"><cc:permits
         rdf:resource="http://creativecommons.org/ns#Reproduction" /><cc:permits
         rdf:resource="http://creativecommons.org/ns#Distribution" /><cc:permits
         rdf:resource="http://creativecommons.org/ns#DerivativeWorks" /></cc:License></rdf:RDF></metadata></svg>