<?xml version="1.0"?>
<svg xmlns:rdf="http://www.w3.org/1999/02/22-rdf-syntax-ns#" xmlns="http://www.w3.org/2000/svg" xmlns:cc="http://creativecommons.org/ns#" xmlns:dc="http://purl.org/dc/elements/1.1/" xmlns:svg="http://www.w3.org/2000/svg" id="svg2" viewBox="0 0 576.2 492.81" version="1.0">
  <path id="path2311" d="m256.59 487.8c1.31-13.36 2.13-17.79 8.65-47.08 2.27-10.19 4.23-21.21 8.51-47.91 1.95-12.1 4.39-21.65 5.9-23.06 1.08-1.01 1.17-1.58-2.02 12.89-1.16 5.29-2.53 13.18-3.04 17.55-1.65 14.22-4.46 29-9.73 51.3-3.69 15.6-6.22 29.53-6.54 35.98-0.15 2.93-0.66 5.11-1.25 5.31-0.75 0.25-0.87-1.03-0.48-4.98zm121.1 1.15c0.96-1.71-5.59-9.04-18.81-21.04-22.49-20.42-30.03-29.39-40.06-47.67-2.9-5.28-7.18-12.6-9.52-16.25s-4.16-6.93-4.05-7.29c0.34-1.09-3.22-7.55-6.36-11.55-1.62-2.07-9.57-10.53-17.68-18.8-8.47-8.65-16.51-17.71-18.91-21.31l-4.17-6.27 2.15-5.43c6.31-15.93 20.21-31.51 38.08-42.68 3.89-2.43 18.25-9.13 19.57-9.13 1.35 0 1.1-1.55-0.65-4.04-2.86-4.08-3.73-8.19-2.66-12.46 2.38-9.44 2.53-11.93 1.28-21.36-0.68-5.14-1.76-11.79-2.4-14.78-0.66-3.04-1.02-8-0.82-11.28 0.55-9.25-0.43-10.1-12.44-10.76-3.45-0.19-3.97 0-3.97 1.41 0 0.9 0.8 2.92 1.77 4.48 1.1 1.79 1.6 3.67 1.34 5.03-0.3 1.6 0.15 2.7 1.68 4.12 1.31 1.21 1.9 2.45 1.58 3.29-0.71 1.85-1.3 1.51-7.4-4.23-16.47-15.46-17.76-16.37-27.29-19.23-5.27-1.58-23.96-1.76-37.9-0.36-10.57 1.06-11.02 1.19-12.14 3.65-1.07 2.35-2.98 1.87 20.52 5.2 1.57 0.22 2.52 0.75 2.22 1.23-0.49 0.8-10.17 0.47-14.15-0.48-0.92-0.22-3.36-0.82-5.43-1.33-8.06-1.99-11.78-1.11-14.66 3.45-2.16 3.42-3.71 4.05-5.29 2.15-1.45-1.75 4.13-7.03 8.73-8.26 3.77-1 4.31-1.75 2.87-3.98-0.72-1.11-0.82-1.11-0.84 0-0.02 1.03-0.15 1.05-0.75 0.11-1.1-1.74-22.43-1.01-25.22 0.87-2.81 1.88-5.78 4.79-5.78 5.66 0 0.4 1.6 1.66 3.55 2.8 1.95 1.15 4.27 2.87 5.14 3.84 1.04 1.15 1.91 1.49 2.53 0.98 1.47-1.23 10.04-2.18 9.34-1.04-0.32 0.52-2.07 1.38-3.89 1.93-1.82 0.54-3.3 1.23-3.3 1.53 0 0.89 5.15 5.45 9.3 8.24 3.28 2.2 4.9 4.07 4.9 5.65 0 1.02-2.46 0.11-3.84-1.43-0.87-0.98-4.28-3.59-7.56-5.81s-7.09-5.4-8.46-7.07c-1.37-1.66-5.26-4.85-8.65-7.09s-7.25-4.91-8.58-5.94c-2.38-1.85-2.4-1.85-1.46-0.1 0.8 1.49 0.63 2.17-1.07 4.13-2.39 2.78-3.72 2.15-1.76-0.84 0.96-1.48 1.09-2.26 0.43-2.67-0.52-0.32-0.75-1.07-0.52-1.66 0.65-1.7-2.57-2.08-4.02-0.47-3.13 3.46 0.28 10.12 8.83 17.27 2 1.67 7.78 7.19 12.84 12.26 5.06 5.06 11.45 10.88 14.21 12.92s6.12 5.09 7.48 6.77c1.35 1.68 3.79 4.58 5.43 6.45 4.98 5.7 7.93 9.28 9 10.92 0.56 0.86 3.6 5.51 6.75 10.33 3.16 4.83 6.71 10.48 7.89 12.56 1.19 2.09 4.97 7 8.41 10.93 5.27 6.04 7.33 7.71 13.23 10.77 7.03 3.63 8.21 4.56 8.23 6.48 0.02 1.56-2.28 1.26-4.08-0.54-1.09-1.09-1.86-1.32-2.45-0.73-1.32 1.32-5.14-0.02-5.98-2.1-0.72-1.79-0.74-1.78-0.79 0.36-0.06 2.32-1.37 3.22-4.72 3.22-1.24 0-2.02 0.48-2.02 1.25 0 0.69 0.42 1.16 0.94 1.05 0.51-0.12 1.11 0.27 1.33 0.86 0.3 0.82-0.88 0.97-5.17 0.64-6.59-0.5-7.77-1.04-5.72-2.6 1.41-1.06 1.35-1.15-0.72-1.17-3.43-0.05-4.63-1.86-4.75-7.16-0.06-2.6-0.3-5.02-0.53-5.39-0.22-0.37-5.02-0.73-10.65-0.8-15.79-0.2-26.53-1.46-29.46-3.43-0.73-0.5-5.1-1.74-6.27-1.79-0.23-0.01-1 1.06-1.72 2.37-5.02 9.21-19.72 5.48-28.2-7.16-3.45-5.15-4.37-9.14-2.25-9.81 1.23-0.4 4.55 6.11 3.61 7.05-0.98 0.98 6.41 7.75 10.63 9.75 4.88 2.32 14.93 1.37 13.3-1.26-0.28-0.45-0.82-0.61-1.21-0.37-0.38 0.24-0.84 0.02-1.01-0.49s-1.76-0.93-3.52-0.93c-2.58 0-3.92-0.64-6.73-3.24-4.38-4.03-7.21-9.71-5.41-10.85 0.83-0.52 0.11-0.76-2.35-0.77-3.98-0.01-4.27 0.52-1.91 3.53 1.51 1.91 1.5 3.14-0.01 3.14-0.67 0-2.96-5.12-2.68-6 0.25-0.79-6.63-1.44-19.84-1.88-7.59-0.25-12.3-0.8-14.39-1.68-1.71-0.71-4.93-1.3-7.17-1.3-3.53 0-4.45-0.38-6.97-2.9-1.79-1.79-3.68-5.07-4.94-8.56-3.66-10.15-2.289-27.06 2.8-34.58 2.1-3.09 3-3.56 4.74-2.45 1.07 0.67 0.98 1.31-0.62 4.59-1.03 2.13-2.09 6.34-2.38 9.52-0.45 4.82-0.32 5.79 0.83 6.23 0.89 0.34 1.36 0.09 1.36-0.74 0-4.46 7.15-12.47 12.56-14.07 3.81-1.13 7.49-3.79 7.49-5.41 0-1.67 7.56-2.35 11.13-0.99 1.61 0.62 1.95 1.22 1.63 2.92-0.51 2.63-0.23 2.72 9.6 3.33l7.73 0.48v-4.59c0-3.11-0.34-4.59-1.05-4.59-1.73-0.01-7.2-5.54-7.79-7.87-0.3-1.2-0.17-2.64 0.28-3.21 0.46-0.57 1.86-4.04 3.11-7.72 2.72-7.97 3.63-9.8 4.56-9.22 0.39 0.24-0.19 2.6-1.27 5.25-1.09 2.64-1.99 5.49-2 6.31-0.01 0.83-0.62 2.66-1.34 4.06-1.09 2.1-1.14 2.98-0.31 4.99 0.86 2.07 4.73 5.74 6.05 5.74 0.22 0 0.66-1.78 0.97-3.97 0.31-2.18 0.98-5.37 1.48-7.09 0.75-2.58 0.65-3.71-0.59-6.44-1.07-2.38-1.34-4.29-0.95-6.74l0.55-3.42-4.82 0.45c-10.45 0.96-15.74 1.49-16.94 1.71-0.69 0.13-4.07 0.67-7.52 1.2-11.51 1.78-12.22 2.12-13.88 6.56-2.46 6.58-6.93 14.43-12.48 21.92-15.053 20.33-34.294 27.82-54.691 21.29-0.23-0.07-1.816-0.76-3.524-1.52-1.709-0.76-3.521-1.39-4.028-1.39-1.123 0-7.681-4.44-11.661-7.9-10.222-8.89-15-15.89-21.625-31.7-4.4646-10.64-8.7364-37.39-8.0225-50.22 1.0521-18.91 2.3313-27.1 5.8824-37.69 8.6321-25.717 24.509-43.617 44.232-49.867 8.213-2.602 21.974-2.566 29.449 0.077 19.208 6.792 36.048 28.77 41.948 54.75l1.34 5.91 6.25 3.13c15.08 7.56 54.91 18.62 78.52 21.8 0.23 0.03 1.83-0.57 3.55-1.34 2.61-1.16 3.14-1.81 3.14-3.89 0-2.52-1.81-3.47-2.98-1.57-1.3 2.1-6.16 3.34-9.55 2.42-3.08-0.83-4.83-2.14-3.98-2.99 0.21-0.21 1.47 0.19 2.8 0.88 1.34 0.69 3.16 1.02 4.06 0.74 2.08-0.66 4.16-2.72 3.45-3.43-1.15-1.16-6.79-1.42-12.78-0.59-4.13 0.57-4.4 0.49-5.34-1.55-0.54-1.19-1.51-2.36-2.16-2.61-1.67-0.64-6.07 1.38-9 4.13-1.77 1.66-2.57 2-2.84 1.19-0.21-0.62 1.3-2.65 3.35-4.51 2.81-2.54 4.62-5.38 7.35-11.52 2-4.48 4.04-8.48 4.55-8.88 1.47-1.18 32.04-8.46 35.52-8.46 3.19 0 10.29 2.11 14.78 4.4 1.33 0.68 4.54 1.41 7.12 1.61 4.21 0.34 4.64 0.22 4.29-1.15-0.3-1.13 0.07-1.52 1.46-1.52 1.18 0 1.7 0.4 1.44 1.09-0.23 0.6 0.76 1.89 2.21 2.87 2.06 1.41 3.24 1.66 5.55 1.17l2.92-0.62-4.03-1.56c-2.22-0.85-5.41-2.81-7.1-4.34s-4.77-3.81-6.83-5.05c-3.73-2.25-3.91-2.27-19.81-2.35-9.85-0.05-16.69 0.26-17.7 0.81-0.91 0.48-2.81 2.48-4.22 4.43s-2.94 3.55-3.4 3.55c-1.28 0-1.04-0.65 1.71-4.65 4.07-5.91 4.75-6.07 24.21-5.88 19.5 0.19 20.74 0.53 28.03 7.61 2.12 2.07 4.3 3.76 4.83 3.76 0.53 0.01 2.1 0.6 3.48 1.32 1.37 0.72 5.45 2.01 9.06 2.87 8.26 1.98 10.57 3.43 10.57 6.64 0 1.34-0.38 2.68-0.85 2.96-0.49 0.31 0.39 1.98 2.09 3.96 2.87 3.36 3.78 6.7 2.1 7.73-0.46 0.29-0.83 1.66-0.83 3.05 0 2.04-0.48 2.71-2.51 3.48-2.47 0.93-2.51 1.03-2.51 7.03 0 4.72 0.27 6.08 1.2 6.08 0.66 0 1.44 0.75 1.73 1.67s1.07 1.67 1.73 1.67 1.93 0.74 2.84 1.64c1.19 1.2 4.42 2.11 11.9 3.35 5.65 0.94 17.98 3.02 27.4 4.63 9.42 1.6 17.22 2.91 17.34 2.91 0.11 0.01 0.21-1.68 0.21-3.73 0-4.24 2.46-11.31 7.13-20.5 3.05-6 3.2-6.64 3.32-15.04 0.08-5.48-0.22-9-0.78-9.38-0.6-0.41-0.53-0.62 0.19-0.63 0.67-0.01 0.84-0.42 0.44-1.06-0.87-1.39-1.11-2.53-2.04-9.4-1.59-11.73 1.08-27.868 7.55-45.726 2.29-6.307 4.58-12.251 5.09-13.21 0.51-0.958 1.79-5.01 2.84-9.004 3.55-13.569 10.71-24.021 20.43-29.823 2.3-1.379 4.58-3.338 5.04-4.353 0.94-2.03 5.67-4.725 9.9-5.639 4.28-0.922 3.18 0.72-1.88 2.816-4.02 1.668-4.59 2.195-4.59 4.249 0 1.799-0.69 2.75-2.96 4.091-6.09 3.59-14.48 11-16.84 14.879-4.15 6.784-3.81 7.266 1.62 2.297 5.57-5.098 21.05-13.343 23.81-12.682 1.32 0.314 1.3 0.416-0.2 0.987-7.67 2.919-19.02 10.144-23.97 15.253-7.59 7.831-19.6 36.226-21.75 51.435-0.97 6.83-0.67 8.21 1.4 6.49 0.7-0.57 1.83-0.83 2.53-0.56 0.77 0.3 1.26 0.01 1.26-0.74 0-0.86 0.93-1.23 3.03-1.23 2.26 0 4.39 0.97 8.36 3.8 5.04 3.6 6.5 5.39 4.38 5.39-0.52 0 0.61 1.68 2.51 3.74 4.81 5.22 4.32 5.83-0.71 0.88-2.28-2.25-4.63-4.19-5.22-4.3-11.04-2.05-13.67-2.18-16.86-0.84l-3.25 1.37 0.52 6.14c0.28 3.37 0.75 6.75 1.04 7.51 0.89 2.31 1.9 1.53 1.48-1.13-0.49-3.15-0.02-3.14 3.13 0.08 1.4 1.43 2.79 2.34 3.11 2.03 0.31-0.32-0.16-1.11-1.05-1.76s-1.71-1.75-1.81-2.44c-0.21-1.43 0.4-1.56 2.16-0.45 0.77 0.49 1.42 0.47 1.75-0.06 0.28-0.46 2.45-0.91 4.82-1 4.22-0.16 5.54-1 3.06-1.95-0.69-0.26-1.26-0.82-1.26-1.25 0-0.42 1.04-0.2 2.3 0.49 3.21 1.75 7.2 5.45 6.56 6.09-0.29 0.29-0.97 0.08-1.52-0.46-0.54-0.55-3.25-0.99-6.02-0.99-4.51 0-4.86 0.12-3.38 1.15 0.91 0.63 2.96 1.42 4.57 1.76 3.16 0.66 8.36 4.14 8.36 5.58 0 0.56-1.06 0.69-2.85 0.35-2.79-0.52-2.86-0.47-3.41 2.81-0.76 4.48-3.28 7.57-6.19 7.57-2.68 0-5.56-2.74-6.38-6.06-0.81-3.27-1.96-2.84-2.56 0.94-0.42 2.62-0.81 3.17-2.06 2.84-1.39-0.36-1.54 0.17-1.52 5.52 0.01 5.43-0.34 6.66-4.15 14.5-2.28 4.72-4.56 10.08-5.06 11.92-1.06 3.89-1.21 10.17-0.27 10.75 0.36 0.22 7.18 1.59 15.15 3.05 7.97 1.45 16 3.17 17.84 3.82 1.83 0.65 4.81 1.18 6.62 1.18 4.06 0 7.32 1.64 10.27 5.13 1.24 1.48 4.01 3.8 6.16 5.15 2.14 1.36 4.08 2.71 4.31 3.01 0.95 1.22 5.06 3.43 6.45 3.45 1.25 0.03 1.16 0.3-0.58 1.75-1.63 1.36-2.84 1.63-5.85 1.29-2.08-0.23-4.41-0.67-5.18-0.97-0.93-0.37-1.7 0.01-2.3 1.13-2.25 4.2 0.35 5.77 4.35 2.62 2.26-1.78 3.95-2.16 3.95-0.89 0 1.33-4.32 4.24-6.29 4.24h-1.88l0.39 13.99c0.39 13.67 0 17.46-3.21 31.13-0.43 1.83 3.13 1.12 6.75-1.34 1.62-1.1 3.43-2 4.01-2 3.91 0-3.87 5.67-8.85 6.46-4.88 0.77-4.64 2.01 0.98 5.02 6.23 3.33 9.69 4.33 15.68 4.53 4.67 0.15 7.8 1.14 7.11 2.25-0.21 0.35-3.51 0.58-7.33 0.52-5.9-0.1-7.58-0.46-11.12-2.42-2.3-1.27-4.75-2.78-5.44-3.36-2.37-1.99-4.34-2.24-5.51-0.69-1.49 1.97-1.44 2.52 0.29 3.1 3.2 1.06 7.82 6.11 9.25 10.11 1.32 3.67 1.74 4.1 4.12 4.22 2.04 0.11 3.49-0.63 6.24-3.18 3.94-3.64 6.82-5.06 14.11-6.95 2.66-0.69 7.41-2.56 10.56-4.16 5.42-2.76 13.02-4.89 13.98-3.92 0.88 0.88 0.4 3.41-2.06 10.89-1.8 5.45-2.75 10.51-3.37 17.86-0.47 5.65-1.44 13.28-2.14 16.95-0.71 3.68-1.36 7.19-1.44 7.81-0.09 0.62 0.68 1.7 1.71 2.4 1.81 1.22 1.93 1.14 3.63-2.8 1.08-2.5 2.2-8.08 2.93-14.51 0.65-5.74 1.78-12.7 2.52-15.46 1.68-6.29 6.97-18.8 7.95-18.8 1.11 0 0.89 2.3-0.47 4.92l-1.2 2.34 9.77-2.7c8.99-2.49 17.2-5.33 22.91-7.95 1.76-0.8 2.18-1.46 1.83-2.87-0.46-1.84 6.39-27.59 10.23-38.42 2-5.67 9.93-20.05 12.91-23.42 2.16-2.45 5.48-7.15 7.08-10.03l1.4-2.5-2.41 2.07c-1.32 1.14-4.28 4.01-6.58 6.38-3.69 3.82-4.7 4.39-8.65 4.92-3.84 0.51-4.83 0.34-6.9-1.19-2.72-2.02-3.1-1.07-1 2.49 0.78 1.32 1.16 2.66 0.84 2.98-1.04 1.04-3.91-2.39-4.82-5.75-0.75-2.78-0.66-3.55 0.57-4.9 1.43-1.58 1.51-1.56 4.28 1.12 2.35 2.28 3.46 2.74 6.62 2.74 3.46 0 4.12-0.35 7.27-3.82 1.9-2.11 6.09-5.93 9.31-8.51 10.12-8.09 10.75-9.02 14.69-21.51 4.49-14.25 4.64-18.2 0.9-23.63-3.1-4.5-4.79-5.62-8.54-5.62-3.1 0-12.05 3.72-14.77 6.14-2.07 1.84-3.06 1.56-2.22-0.63 0.6-1.57 10.21-6.67 14.12-7.5 1.38-0.29 4.19-0.23 6.25 0.13 3.3 0.57 4.13 1.19 6.97 5.22 3.22 4.58 3.22 4.58 2.8 11.26-0.23 3.68-0.68 7.63-0.99 8.78-0.72 2.59 2.93-3.62 6.17-10.52 6.27-13.35 9.25-26.59 9.9-44.03 0.72-19.269-1.77-33.335-7.35-41.51-1.46-2.151-3.46-4.261-4.43-4.689-2.21-0.97-7.36-8.544-7.02-10.322 0.5-2.56 2.66-1.266 4.78 2.861 1.47 2.86 2.62 4.138 3.67 4.051 2.02-0.168 8.29 8.387 10.53 14.372 2.82 7.535 3.6 15.381 3.18 31.657-0.36 13.39-0.7 16.28-3.04 25.54-3.12 12.37-8.69 26.25-14.24 35.51-2.2 3.68-5.13 8.76-6.51 11.28-2.96 5.44-7.2 12.02-15.63 24.24-4.12 5.96-15.2 23.89-16.27 26.32-1.87 4.22-4.08 11.39-5.56 17.96-0.77 3.45-1.68 6.83-2.02 7.52-1.46 2.95-1.73 5.85-0.55 5.85 1.63 0 5.65 2.17 6.49 3.5 0.39 0.6 0.71 4.42 0.71 8.48 0.01 6.58 2.26 17.71 6.31 31.21 0.16 0.54 2.1 1.21 4.31 1.49 18 2.28 25.87 4.22 38.41 9.46 5.44 2.27 10.55 4.35 11.36 4.63 0.8 0.28 1.46 0.89 1.46 1.37 0 0.47 0.94 0.86 2.09 0.86s2.09 0.38 2.09 0.84-1.98 0.86-4.39 0.88c-19.04 0.24-33.17 0.98-39.9 2.11-14.94 2.5-29.69 8.1-33.59 12.74-2.45 2.91-3.17 3.25-3.17 1.48 0-1.89 5.73-6.37 11.43-8.93 14.66-6.58 27.57-8.62 57.5-9.1l5.85-0.09-7.1-2.9c-3.91-1.6-8.24-3.44-9.63-4.09-3.24-1.53-18.09-5.04-26.72-6.32-10.04-1.49-12.03-2.25-12.61-4.86-0.27-1.23-0.98-3.92-1.57-5.99s-1.78-6.21-2.64-9.19c-1.13-3.92-1.53-7.83-1.44-14 0.06-4.71-0.13-8.56-0.43-8.56s-0.97 0.68-1.5 1.53c-1.97 3.14-17.08 9.53-30.99 13.09-13.38 3.43-13.08 3.24-15.11 9.54-0.98 3.05-2.36 10.48-3.07 16.53-0.7 6.04-1.8 12.42-2.44 14.18-1.48 4.08-3.81 8.63-4.41 8.63-0.26 0-1.73-0.78-3.28-1.74l-2.82-1.74v4.51l-2.71-2.02c-1.49-1.11-5.16-3.09-8.15-4.41-2.99-1.31-7.22-3.89-9.4-5.73-2.19-1.84-4.11-3.19-4.27-3-0.17 0.19-0.53 4.88-0.82 10.42l-0.52 10.07 8.13 7.33c4.48 4.03 9.14 7.92 10.36 8.66 2.13 1.29 2.4 1.23 6.75-1.41 2.5-1.51 7.89-5.59 11.99-9.07 10.04-8.52 25.96-18.84 42.25-27.37 7.42-3.88 13.88-7.06 14.37-7.06 1.93 0-1.93 2.52-10.32 6.75-15.57 7.84-35.06 20.24-43.87 27.89-5.29 4.6-14.72 11.72-16.5 12.44-0.71 0.29-0.37 0.99 1.04 2.19 1.57 1.32 2.88 1.67 5.25 1.39 3.74-0.44 7.24 2.02 9.78 6.89 0.86 1.67 2.93 4.53 4.58 6.37s3.65 4.41 4.44 5.71c1.58 2.6 1.18 2.59 11.83 0.23l5.39-1.2 3.62 2.49c1.99 1.37 5.68 3.4 8.2 4.52 2.51 1.11 4.57 2.25 4.57 2.54 0 1.31-6.58-0.92-11.45-3.88l-5.37-3.26-6.42 1.58c-3.53 0.87-7.27 1.85-8.3 2.17-1.22 0.37-1.88 0.23-1.88-0.41 0-1.15-3.99-7.01-6.84-10.07-1.08-1.15-2.66-3.22-3.52-4.6-3.19-5.12-5.58-7.05-8.11-6.54-3.82 0.77-8.94-2.83-26.81-18.79-4.28-3.83-8.72-7.45-9.87-8.04-1.15-0.6-5.66-1.75-10.03-2.56-16.41-3.06-25.9-6.16-25.9-8.45 0-1.3 0.94-1.5 2.13-0.46 1.47 1.3 8.38 3.49 11.62 3.7 3.16 0.2 3.31 0.07 6.39-5.21 1.73-2.98 3.02-5.55 2.86-5.71-0.17-0.16-1.18 0.18-2.25 0.76-1.08 0.58-4.32 1.27-7.2 1.53l-5.25 0.47 2.57 2.82c1.42 1.54 2.35 3.04 2.07 3.32s-1.71-0.86-3.18-2.53c-3.89-4.44-5.51-5.04-10.71-3.92-5.73 1.23-11.54 6.97-16.14 15.95-3.46 6.74-11.44 16.53-13.48 16.53-1.73 0-1.45-1.47 0.48-2.5 2.43-1.3 7.71-8.7 11.32-15.88 5.58-11.11 14.91-18.07 21.88-16.33 3.96 0.99 11.35 0.41 14.93-1.17 5.06-2.23 7.23-5.79 7.37-12.04 0.09-3.85 0.67-6.13 2.31-9.07 2.01-3.6 2.1-4.16 1.12-7.02-1.32-3.84-4.49-7.89-7.39-9.44-2.07-1.11-2.31-1.03-4.06 1.25-5.24 6.84-11.44 10.77-18.55 11.74-3.64 0.5-3.71 0.56-4.27 4.28-0.31 2.08-0.3 7.25 0.02 11.49 0.41 5.56 0.3 7.89-0.41 8.32-0.54 0.34-1.12 0.47-1.3 0.29-0.17-0.17-0.57-4.65-0.89-9.95-0.41-6.77-0.29-10.18 0.4-11.46l0.98-1.83-12.35-0.09c-6.8-0.04-13.39-0.17-14.66-0.28-1.26-0.12-2.29 0.01-2.29 0.29 0 0.56 7.52 7.35 16.29 14.71 3.22 2.7 6.04 5.13 6.27 5.41s1.67 1.38 3.19 2.45c1.99 1.39 2.53 2.2 1.89 2.84s-1.48 0.43-2.93-0.73c-9.63-7.73-17.14-14.13-23.77-20.27-14.36-13.3-14.59-13.48-17.24-13.5-7.21-0.05-22 6.93-32.59 15.37-14.41 11.49-24.93 24.57-29.33 36.45l-1.4 3.81 5.5 7.12c3.02 3.92 12.01 13.68 19.96 21.68 7.96 8.01 15.41 15.97 16.55 17.69 1.15 1.72 2.33 3.13 2.63 3.13 0.47 0.01 13.61-15.94 22.75-27.61 1.78-2.27 3.76-4.13 4.39-4.13 1.46 0 1.49 1.38 0.05 2.25-0.9 0.55-23.31 27.74-25.97 31.52-0.49 0.7-0.06 2.23 1.25 4.42 1.87 3.12 10.61 13.32 16.1 18.77 2.14 2.13 7.37 8.65 20.13 25.12 6.61 8.52 17.14 16.7 36.59 28.42 3.01 1.82 4 3.14 2.34 3.14-1.41 0-17.8-10.19-24.27-15.08-9.65-7.3-16.66-14.93-27.33-29.76-3.54-4.91-18.6-21.24-18.62-20.19 0 0.31 0.47 1.07 1.06 1.67 0.91 0.94 5.03 7.74 12.57 20.74 3.89 6.72 15.37 20.22 24.14 28.41 5.17 4.83 14.28 13.57 20.25 19.43l10.86 10.66-1.97 1.88c-1.09 1.03-1.71 1.4-1.38 0.81zm39.02-164.8c0.16-5.38-0.08-10.2-0.54-10.95-0.58-0.94-2.65-1.48-7.09-1.85-6.54-0.53-9.56 0.24-7.8 1.99 1.13 1.13 0.05 4.11-3.94 10.88-1.64 2.79-2.25 4.56-1.68 4.91 0.49 0.3 4.2 1.22 8.24 2.04s8.27 2.19 9.4 3.04c2.8 2.11 3.07 1.3 3.41-10.06zm28.39-1.68c0.77-2.52 1.65-7.97 1.96-12.11 0.92-12.52 2.1-20.08 4.25-27.28 1.13-3.77 2.06-7.35 2.06-7.96 0-1.8-2.27-1.29-9.49 2.11-7.87 3.72-10.41 4.7-15.55 6.02-6.84 1.75-15.07 9.28-15.07 13.8 0 0.73-0.47 1.17-1.05 0.97-0.6-0.22-0.95-1.48-0.83-3 0.22-2.71-0.31-3.02-3.62-2.13-1.99 0.53-4.54 6.7-4.53 10.98 0 2.29 0.49 2.95 3.22 4.34 3.66 1.87 6.96 1.52 6.22-0.65-0.27-0.75 2.24 1.39 5.56 4.77 4.08 4.15 7.72 6.95 11.19 8.61 2.83 1.35 6.65 3.38 8.49 4.5 1.84 1.13 3.89 1.95 4.57 1.84 0.68-0.12 1.84-2.25 2.62-4.81zm-32.49-22.76c0.49-1.57 11.59-7.26 14.23-7.29 1.26-0.01 2.29 0.35 2.29 0.81s-0.75 0.84-1.66 0.84c-0.92 0-4.5 1.5-7.95 3.34-6.87 3.66-7.39 3.84-6.91 2.3zm-164.23 18.15c0.08-1.37-0.04-1.83-0.27-1.02-0.48 1.65-0.42 1.64-7.81 1.46-2.99-0.07-5.93-0.55-6.55-1.06-0.89-0.74-1.07-0.59-0.85 0.69 0.44 2.5 1.38 2.79 8.61 2.59l6.72-0.18 0.15-2.48zm-15.04-6.88c-0.21-0.8-0.37 0.05-0.36 1.89s0.18 2.49 0.38 1.45 0.19-2.54-0.02-3.34zm10.29 3.14c0-0.92-0.16-1.67-0.35-1.67s-0.94-0.23-1.67-0.51c-0.92-0.35-1.32-0.02-1.32 1.12 0 1.9 0.68 2.73 2.23 2.73 0.61 0 1.11-0.75 1.11-1.67zm-6.61-9.88c-1.64-3.07-2.96-3.31-20.54-3.8-19.49-0.54-25.4-1.59-30.68-5.47-3-2.2-6.51-2.67-6.51-0.87 0 1.69 4.65 5.92 8.6 7.84 5.23 2.53 14.96 3.54 35.93 3.71 13.35 0.11 13.98 0.04 13.2-1.41zm-60.24-4.74c-0.57-0.69-1.46-1.24-1.98-1.23-0.52 0.02-0.21 0.58 0.68 1.26 2.09 1.57 2.63 1.56 1.3-0.03zm54.47-1.82c-0.6-0.25-1.32-0.22-1.6 0.06-0.27 0.28 0.22 0.48 1.1 0.44 0.97-0.04 1.17-0.24 0.5-0.5zm-21.95-0.57c-0.19-0.17-3.54-0.51-7.45-0.75-4.02-0.24-6.38-0.14-5.43 0.25 1.61 0.66 13.59 1.12 12.88 0.5zm-39.66-3.93c-1.52-1.68-2.88-2.12-2.88-0.94 0 1.36 3.66 4.64 4.01 3.59 0.18-0.56-0.32-1.75-1.13-2.65zm24.69 3.07c0-0.17-0.94-0.93-2.09-1.69s-2.09-0.97-2.09-0.48c0 0.48 0.85 1.22 1.88 1.63 2.34 0.94 2.3 0.93 2.3 0.54zm33.28-5.13c-0.23-1.09-2.77-1.32-16.81-1.54-11.56-0.18-16.27 0.01-15.66 0.62 0.85 0.85 12.71 1.78 26.2 2.06 5.48 0.12 6.49-0.07 6.27-1.14zm-61.69-2.06c0-0.46-0.4-0.84-0.88-0.84-0.49 0-0.66 0.38-0.37 0.84 0.28 0.45 0.68 0.83 0.88 0.83 0.21 0 0.37-0.38 0.37-0.83zm213.15-2.31c7.54-3.75 10.84-7.27 15.19-16.24 4.38-9 6.17-17.14 6.96-31.59 0.59-10.66-1.05-23.15-3.89-29.79-3.73-8.7-13.87-15.87-25.02-17.7-2.99-0.49-8.44-1.44-12.11-2.11-3.68-0.67-8.76-1.46-11.28-1.77-2.53-0.31-7.23-1.07-10.45-1.69s-7.35-1.35-9.19-1.61-18.38-2.93-36.77-5.94c-18.38-3-42.44-6.94-53.47-8.73-11.03-1.8-21.19-3.46-22.56-3.68-3.49-0.57-21.6-3.75-27.16-4.77-2.53-0.46-7.61-1.36-11.28-1.99-8.77-1.51-13.42-2.58-17.79-4.13-1.97-0.7-3.36-0.91-3.09-0.46 0.28 0.45 1 0.81 1.6 0.81s1.98 0.69 3.08 1.52c1.1 0.84 4.25 1.99 7.01 2.56 2.75 0.57 8.02 1.76 11.69 2.64 6.1 1.46 10.29 2.28 25.07 4.91 9.71 1.73 36.18 5.91 58.49 9.25 29.91 4.48 41.63 6.36 57.66 9.24 7.35 1.33 20.14 3.57 28.41 4.99 18.12 3.11 28.45 5.36 32.99 7.18 6.26 2.5 12.95 12.21 15.13 21.97 1.46 6.52 1.03 24.7-0.82 34.1-0.92 4.7-2.05 9.25-2.52 10.13-0.47 0.87-0.7 1.74-0.52 1.92s-0.36 1.25-1.21 2.37c-1.21 1.61-1.77 1.83-2.7 1.06-0.95-0.79-1.95-0.1-5.15 3.49-4.02 4.51-7.19 6.37-13.68 8.01-4 1.01-4.58 2.22-1.46 3 3.38 0.85 7.88-0.41 12.44-3.49 4.55-3.06 6.18-2.47 2.89 1.05-1.98 2.13-6.92 4.99-10.21 5.93s-34.99 1.19-34.42 0.28c1.18-1.92-1.54-4.15-5.76-4.73-2.32-0.31-4.46-0.95-4.75-1.41s-2.36-0.94-4.6-1.05c-2.23-0.12-3.21-0.04-2.18 0.16 1.03 0.21 1.88 0.79 1.88 1.29 0 0.51 0.24 0.68 0.53 0.39 0.73-0.73 3.25 0.73 6.88 4.01 3.84 3.47 4.97 3.62 24.83 3.44l15.95-0.15 5.36-2.67zm-153.82-0.08c0-0.39-2.32-0.67-5.15-0.62-3.24 0.05-5.27-0.28-5.48-0.89-0.18-0.54 0.35-1.15 1.18-1.37 1.19-0.31 1.12-0.41-0.37-0.49-2.02-0.1-2.55-1.35-0.83-1.96 0.57-0.21 2.45-0.33 4.17-0.28 1.73 0.06 3.14-0.28 3.14-0.75 0-0.55-4.74-0.88-13.16-0.92-14.73-0.06-48.69-0.95-66.92-1.75-11.23-0.5-12.02-0.64-12.65-2.32-0.38-0.99-1.3-2.3-2.04-2.92-0.75-0.62-1.17-1.75-0.92-2.51 0.31-1-0.34-1.67-2.3-2.38-3.27-1.18-5.88-5.15-5.19-7.88 0.55-2.22 5.72-6.09 7.04-5.28 0.48 0.3 0.88 0.17 0.88-0.29 0-2.62-4.58-0.97-7.71 2.77-1.41 1.69-1.45 1.65-1.46-1.78-0.01-1.92 0.35-3.73 0.81-4.01 0.46-0.29 0.84-1.36 0.84-2.39s0.45-2.33 1-2.88c1.81-1.81-0.37-1.05-3.22 1.13-3.91 2.98-5.6 6.56-4.96 10.53 0.5 3.14 0.46 3.22-2.05 3.22-1.65 0-2.37 0.32-2 0.91 0.31 0.5 1.49 0.74 2.62 0.52 1.29-0.25 2.22 0.05 2.51 0.78 0.33 0.86 0.73 0.93 1.53 0.27 0.82-0.68 1.22-0.49 1.62 0.78 0.78 2.44 6.85 9.55 8.77 10.26 1.52 0.56 1.56 0.82 0.49 3.36-0.68 1.62-1.76 2.75-2.62 2.76-2.04 0-2.44 1.8-0.61 2.75 2.82 1.46 7.33 1.78 32.43 2.33 13.79 0.3 31.27 0.82 38.86 1.15 20.46 0.9 31.75 0.95 31.75 0.15zm-112.81-29.37c0-0.46 0.57-0.83 1.26-0.83s1.25 0.37 1.25 0.83-0.56 0.84-1.25 0.84-1.26-0.38-1.26-0.84zm246.7 28.66c-1.04-0.2-2.54-0.19-3.34 0.01-0.8 0.21 0.05 0.38 1.89 0.37s2.49-0.18 1.45-0.38zm-247.59-11.97c-2.09-1.08-3.11-2.34-3.76-4.65-0.5-1.74-1.12-2.81-1.38-2.38-0.49 0.81 2.36 7.54 3.92 9.26 0.6 0.68 1.34 0.71 2.47 0.1 1.49-0.79 1.39-0.97-1.25-2.33zm262.05-1.06c2.31-1.28 4.69-3.11 5.29-4.07 1-1.59 0.72-2.06-3.18-5.48-5.33-4.66-6.64-7.16-7.23-13.79-0.53-5.95-2.32-11.64-4.78-15.16-2.62-3.76-9.04-19.11-8.53-20.42 0.34-0.9-0.05-1.05-1.7-0.64-1.18 0.3-4.29-0.01-6.9-0.68-2.62-0.67-9.08-1.65-14.37-2.17-5.28-0.51-11.37-1.15-13.52-1.41l-3.92-0.47 0.39 9.25c0.22 5.36 1.25 13.2 2.45 18.61 1.14 5.15 2.07 11.37 2.07 13.83v4.47h2.86c1.57 0 3.45 0.22 4.18 0.5 0.86 0.34 1.32 0.05 1.32-0.83 0-0.74 0.56-1.35 1.25-1.35s1.25-0.56 1.25-1.25c0-1.93 2.84-1.48 4.96 0.78 1.76 1.87 1.82 2.21 0.72 4.41-1.08 2.17-1.02 2.71 0.75 6.04 1.23 2.34 1.93 5.09 1.93 7.63 0 2.4 0.41 4.15 1.04 4.4 0.58 0.23 7.44 0.36 15.25 0.28 13.87-0.14 14.31-0.2 18.42-2.48zm-48.92 0.18c0-1.15-4.01-3.47-4.97-2.88-0.48 0.3-0.87 1.38-0.87 2.41 0 1.65 0.35 1.83 2.92 1.53 1.61-0.18 2.92-0.66 2.92-1.06zm10.96-0.14c0.31-6.61-1.89-11.89-5.94-14.28-2.99-1.77-4.32-1.81-1.82-0.06 1.42 0.99 1.67 1.6 1 2.41-0.66 0.79-0.57 1.21 0.34 1.56 1.76 0.67 4.66 6.71 4.66 9.71 0 2.91 1.62 3.52 1.76 0.66zm46.18-1.09c0.29-0.74 0.15-1.08-0.32-0.78-0.46 0.28-0.83 0.86-0.83 1.29 0 1.2 0.6 0.94 1.15-0.51zm-268.38-1.78c-0.61-0.24-1.33-0.21-1.61 0.07-0.27 0.27 0.22 0.47 1.1 0.44 0.97-0.04 1.17-0.24 0.51-0.51zm390.48-1.94c0.28-0.45-0.06-1.64-0.76-2.64l-1.26-1.81-0.87 2.28c-1.4 3.67-1.16 4.89 0.75 3.87 0.9-0.48 1.86-1.24 2.14-1.7zm-291.38-2.67l-3.74-4.35-8.28-0.26c-4.55-0.13-8.87-0.38-9.61-0.55-1.11-0.25-1.26 0.37-0.93 3.77 0.29 3.04 0.1 4.1-0.76 4.21-2.24 0.29 10.65 1.23 18.8 1.38l8.25 0.15-3.73-4.35zm171.31 2.24c-0.26-0.26-0.72 0.2-1.04 1.03-0.45 1.19-0.36 1.28 0.47 0.46 0.57-0.56 0.83-1.24 0.57-1.49zm-204.28 0.61c-0.53-0.33-1.22-1.97-1.53-3.64-0.46-2.46-0.28-3.22 0.97-3.94 1.32-0.77 1.15-0.9-1.19-0.93-2.87-0.02-2.9 0.07-1.64 6.01 0.1 0.47-0.26 1.03-0.81 1.23-0.61 0.23-1.2-0.86-1.53-2.82-0.75-4.53-1.06-5.28-2.16-5.28-0.67 0-0.81 1.17-0.45 3.83 0.68 4.93 1.15 5.6 3.56 5.14 1.1-0.21 1.99-0.13 1.99 0.16 0 0.3 0.85 0.61 1.87 0.69 1.04 0.07 1.44-0.13 0.92-0.45zm-21.5-4.26c-0.28-2.02-0.5-4.18-0.5-4.8 0-0.63-0.77-1.14-1.72-1.14-1.51 0-1.65 0.37-1.22 3.28 0.38 2.55 0.18 3.46-0.91 4.07-2.03 1.13-0.87 2.34 2.2 2.29 2.65-0.03 2.65-0.04 2.15-3.7zm170.15 0.67c-1.5-1.34-3.18-2.43-3.74-2.43s0.38 0.95 2.1 2.12c1.71 1.16 3.12 2.54 3.12 3.06s0.28 0.66 0.62 0.32c0.35-0.35-0.6-1.73-2.1-3.07zm-179.01-2.31v-5.05l-4.39-0.25c-3.16-0.18-4.41-0.6-4.5-1.51-0.06-0.69-0.2-1.63-0.32-2.09-0.11-0.46-0.25-1.96-0.3-3.34-0.09-2.15-0.39-2.47-2.15-2.28-1.13 0.13-3.05-0.11-4.26-0.54-2.19-0.76-2.21-0.74-2.13 3.32 0.08 3.9 0.19 4.09 2.44 4.09 2.63 0.01 5.58 1.33 5.58 2.51 0 0.42-3.1 0.88-6.89 1.01l-6.89 0.25-0.26 2.62c-0.45 4.6 2.05 5.68 13.9 6.02l10.17 0.28v-5.04zm233.24-0.75c1.33-3.37 3.22-16.55 3.23-22.47 0-4.79-0.14-5.17-2.1-5.66-1.16-0.29-2.85-0.13-3.76 0.36-1.32 0.7-1.66 0.62-1.66-0.42 0-1.64 3.4-2.98 5.89-2.33 1.78 0.46 1.86 0.31 1.37-2.72-0.28-1.77-1-3.5-1.59-3.84-0.59-0.33-3.11-2.14-5.61-4.01s-5.23-3.41-6.09-3.41c-0.85 0-2.38-0.52-3.4-1.16-2.62-1.65-11.46-2.62-11.46-1.26 0 0.57 2.82 6.71 6.27 13.64 5.09 10.22 6.41 13.7 7.02 18.45 0.78 6.05 1.76 9.12 3.6 11.28 1.3 1.52 6.49 5.85 7.01 5.85 0.21 0 0.78-1.04 1.28-2.3zm-197.73-1.04c0.29-0.46-0.28-0.84-1.25-0.84s-1.54 0.38-1.25 0.84c0.28 0.45 0.84 0.83 1.25 0.83 0.4 0 0.97-0.38 1.25-0.83zm202.61-2.51c0-1.12-0.09-1.12-0.81 0-0.45 0.69-0.81 1.82-0.81 2.51 0 1.11 0.09 1.11 0.81 0 0.44-0.69 0.81-1.82 0.81-2.51zm-193.01-1.69c-0.49-0.93-0.67-2.06-0.39-2.51 0.57-0.93 0.04-1.04-6.28-1.26-14.64-0.5-35.78-1.83-41.57-2.61-3.48-0.47-3.55-0.43-3.55 1.98v2.46l18.17 1.42c21.38 1.67 24.26 1.87 30.11 2.06 4.19 0.14 4.37 0.06 3.51-1.54zm-114.22-5.66c11.191-5.57 22.281-16.98 28.581-29.41 2.92-5.76 5.45-12.68 4.93-13.51-0.24-0.4 0.12-1.27 0.8-1.95 1.13-1.13 3.06-8.1 4.28-15.46 0.27-1.61 0.84-5 1.27-7.53 4.71-27.72-1.39-61.89-14.47-81.05-7.193-10.535-20.184-20.682-30.446-23.777-3.736-1.128-14.356-1.152-19.645-0.045-12.338 2.581-27.992 13.966-35.497 25.812-3.01 4.76-7.694 14.08-7.713 15.36-0.009 0.58-0.372 1.71-0.807 2.51-2.8262 5.18-5.9266 18.38-7.0604 30.07-0.2987 3.08-0.1258 4.41 0.5794 4.45 0.7413 0.05 0.7309 0.18-0.0394 0.49-2.0504 0.83-0.9335 24.58 1.8624 39.6 1.6443 8.84 4.951 18.31 9.468 27.11 5.493 10.71 16.028 21.31 26.097 26.26 13.551 6.66 25.872 7.01 37.81 1.07zm-29.332-4.4c0.201-0.61 0.859-1.26 1.462-1.46 0.627-0.21 0.94 0.1 0.731 0.73-0.201 0.6-0.859 1.26-1.462 1.46-0.627 0.21-0.94-0.11-0.731-0.73zm-4.335-1.45c0-0.88 1.815-2.68 2.704-2.68 0.383 0 0.295 0.75-0.197 1.67-0.883 1.65-2.507 2.3-2.507 1.01zm-4.178-1.75c0-1.25 3.161-4.73 3.755-4.13 0.661 0.65-1.948 4.87-3.015 4.87-0.407 0-0.74-0.33-0.74-0.74zm-3.342-3.72c0-0.62 0.752-1.81 1.671-2.64 1.976-1.79 2.344-0.12 0.508 2.3-1.326 1.75-2.179 1.88-2.179 0.34zm20.054 0.69c0-2.36 12.812-16.28 14.979-16.28 1.683 0 0.898 1.06-4.381 5.89-2.903 2.66-6.193 6.18-7.311 7.82-1.805 2.65-3.287 3.81-3.287 2.57zm-6.046-2.49c1.432-2.61 14.125-14.86 15.041-14.52 0.45 0.17-2.956 3.88-7.569 8.25s-7.976 7.19-7.472 6.27zm14.43 0.74c-0.053-1.77 7.413-10.6 10.271-12.16 1.321-0.71 1.407-0.62 0.643 0.7-1.502 2.59-10.885 12.44-10.914 11.46zm-32.084-0.98c-0.609-0.98 1.644-4.13 2.41-3.37 0.314 0.32 0.008 1.38-0.68 2.36-0.689 0.98-1.467 1.44-1.73 1.01zm-3.727-3.15c0.149-0.71 1.583-2.12 3.188-3.13l2.917-1.84-2.39 3.13c-2.474 3.25-4.185 4.1-3.715 1.84zm44.139-0.18c0-1.1 5.045-6.84 6.859-7.81 1.579-0.84 1.624-0.79 0.561 0.67-4.498 6.2-7.42 9.01-7.42 7.14zm-25.903-0.73c0-0.95 11.672-12.7 13.802-13.89 2.758-1.55 2.307 0.34-0.669 2.8-1.687 1.39-4.129 3.54-5.427 4.78-5.832 5.57-7.706 7.1-7.706 6.31zm31.752-1.4c0-1.29 5.639-8.09 6.711-8.09 0.402 0-0.474 2.06-1.946 4.58-2.522 4.31-4.765 5.97-4.765 3.51zm-53.438-1.2c0.066-1.05 9.165-7.99 9.734-7.42 0.292 0.29 0.375 0.63 0.184 0.75-0.192 0.12-2.296 1.81-4.676 3.76-4.328 3.54-5.316 4.09-5.242 2.91zm17.508 0.1c0-1.74 12.516-13.68 14.334-13.68 1.601 0 1.54 0.17-0.643 1.81-1.326 0.99-4.949 4.27-8.051 7.29-3.102 3.01-5.64 5.08-5.64 4.58zm41.779-1.03c0-1.09 6.611-8.2 6.651-7.16 0.019 0.49-1.174 2.47-2.651 4.39-2.57 3.34-4 4.33-4 2.77zm-63.505-2.49c0-1.14 11.788-9.51 12.454-8.84 0.266 0.26-0.155 0.84-0.935 1.28-1.208 0.67-6.934 4.85-10.474 7.65-0.702 0.55-1.045 0.52-1.045-0.09zm71.861-3.47c0.982-1.38 2.164-2.51 2.628-2.51 0.974 0-2.702 4.9-3.729 4.97-0.376 0.02 0.12-1.08 1.101-2.46zm-50.971 0.19c0-1.8 11.182-11.08 13.273-11.01 0.977 0.03 0.773 0.44-0.734 1.46-1.146 0.78-4.436 3.4-7.311 5.83-2.875 2.42-5.228 4.1-5.228 3.72zm34.259-1.62c0-0.38 1.222-2.18 2.714-3.99 2.878-3.49 2.165-3.34-2.922 0.62-4.49 3.49-3.884 1.06 0.835-3.36 3.504-3.27 3.658-3.55 1.318-2.38-1.458 0.73-3.892 2.46-5.408 3.84-2.554 2.33-4.057 3.11-4.057 2.11 0-0.23 1.332-1.89 2.961-3.7 2.705-2.99 2.821-3.32 1.343-3.79-0.889-0.28-1.81-1.25-2.046-2.15-0.26-1-1.143-1.65-2.229-1.65-0.989 0-1.572-0.36-1.295-0.81 0.691-1.12 10.961-6.81 11.839-6.56 1.012 0.29 11.887-3.49 12.388-4.3 0.231-0.37-2.491 0.22-6.048 1.32-7.464 2.3-6.886 2.2-6.886 1.29 0-1.08 17.525-6.7 22.853-7.32 2.59-0.31 4.72-0.83 4.72-1.16 0-0.34-1.03-0.44-2.3-0.22-3.48 0.58-17.73 3.47-21.489 4.35-3.766 0.89-5.027 0.47-2.02-0.67 2.66-1 19.559-5.03 23.509-5.6 1.73-0.24 3.14-0.84 3.14-1.31 0-1.05-8.88-0.28-16.526 1.42-2.884 0.65-6.832 1.37-8.774 1.61-5.067 0.64-6.338 1.06-16.329 5.48-3.784 1.67-4.555 1.78-5.209 0.74-0.421-0.66-0.658-1.58-0.525-2.04 0.394-1.37 5.735-3.64 9.637-4.1 2.002-0.24 4.897-0.84 6.435-1.35 1.846-0.61 3.31-0.65 4.309-0.11 1.07 0.57 3.641 0.24 8.784-1.14 4-1.06 9.738-2.2 12.748-2.52 3.01-0.33 5.68-0.92 5.93-1.33 0.65-1.05-2.32-0.92-12.141 0.55-4.735 0.71-9.032 1.15-9.547 0.97-1.043-0.35 17.388-3.93 20.238-3.93 2.05 0 2.45-2.07 0.55-2.81-1.9-0.73-1.5-2.19 0.63-2.25 1.83-0.05 1.82-0.08-0.21-0.95-1.15-0.49-3.13-0.83-4.39-0.77-1.59 0.09-2.3-0.28-2.3-1.19 0-1.1 0.67-1.22 3.97-0.75 3.27 0.46 3.79 0.37 2.93-0.54-1.55-1.63-1.28-2.43 0.83-2.45l1.88-0.02-2.09-1.64c-2.09-1.63-2.09-1.63-0.21-1.65 1.04-0.01 1.88-0.54 1.88-1.17 0-1.21-2.44-2.16-5.59-2.18-1 0-2.07-0.41-2.38-0.9-0.36-0.58 0.78-0.79 3.42-0.62 6.65 0.43 5.01-1.36-2.75-3.02-4.03-0.86-7.67-1.87-8.099-2.26-1.418-1.28 0.094-1.64 3.389-0.81 1.78 0.45 4.89 1.23 6.9 1.73 2.02 0.5 3.86 0.72 4.09 0.49 0.24-0.24-0.1-0.57-0.74-0.75s-3.04-0.93-5.34-1.67-5.21-1.52-6.481-1.73c-3.636-0.61-5.633-1.38-5.633-2.17 0-1.54 1.717-1.67 4.767-0.36 3.777 1.62 7.317 2.74 10.547 3.32 3.29 0.6 2.05-1.02-1.33-1.72-2.28-0.48-12.12-3.51-16.491-5.09-1.013-0.36-0.893-0.74 0.626-1.98 2.387-1.95 2.371-2.52-0.069-2.52-2.583 0-3.282-0.82-2.012-2.36 0.826-1 0.825-1.33-0.008-1.61-0.574-0.19-1.044-0.92-1.044-1.62s0.47-1.08 1.044-0.85c0.575 0.23 1.797 0.68 2.716 0.99 1.499 0.5 1.521 0.46 0.209-0.38-1.957-1.26-1.852-2.53 0.209-2.53 0.919 0 1.671-0.4 1.671-0.89s0.658-0.8 1.462-0.7c0.805 0.09 2.091-0.1 2.86-0.43 0.768-0.34 2.157-0.21 3.087 0.29 1.03 0.55 1.87 0.59 2.17 0.11 0.29-0.46 1.71-0.27 3.5 0.48 2.77 1.15 2.98 1.14 2.49-0.12-0.29-0.76-0.53-1.71-0.53-2.11s-1.31-1.35-2.92-2.12c-1.61-0.76-2.93-1.73-2.93-2.15 0-0.43 0.85-0.36 1.88 0.15 1.7 0.83 1.68 0.75-0.21-0.79-2.15-1.77-3.79-2.31-2.97-1 0.6 0.98-1.62 1.82-2.565 0.97-1.291-1.16-6.159-2.5-6.159-1.69 0 0.42-1.128 0.54-2.505 0.27-1.461-0.3-3.013-0.08-3.724 0.51-0.67 0.55-1.577 0.79-2.015 0.52-1.187-0.74-3.529 0.38-2.908 1.39 0.351 0.57-0.234 0.68-1.681 0.31-1.556-0.39-2.156-0.24-2.005 0.49 0.118 0.57-0.631 1.17-1.665 1.33-1.034 0.15-1.881 0.68-1.881 1.16 0 0.5-0.971 0.69-2.282 0.44-2.003-0.39-2.105-0.31-0.835 0.62 0.795 0.58 1.446 1.3 1.446 1.59 0 0.98-2.899 0.5-4.546-0.74-1.985-1.51-3.884-1.6-3.601-0.19 0.115 0.58-0.244 0.96-0.798 0.85-0.555-0.11-2.231 1.26-3.725 3.04-2.62 3.12-2.792 3.19-4.841 1.98l-2.125-1.26 2.089 1.72c1.672 1.39 1.88 1.94 1.044 2.78-0.574 0.57-1.044 1.35-1.044 1.71 0 1.25 1.812 0.68 3.208-0.99 0.939-1.13 1.76-1.43 2.539-0.93 1.532 0.98 0.423 2.66-1.315 2-0.912-0.35-1.164-0.2-0.76 0.45 1.141 1.85-0.352 2.67-2.402 1.33-1.851-1.21-2.049-1.18-2.911 0.43-0.949 1.77-3.729 2.34-4.594 0.94-0.267-0.43 0.181-1.17 0.995-1.65 1.302-0.75 1.314-0.86 0.107-0.88-0.755-0.02-1.59 0.54-1.854 1.23-0.265 0.68-1.339 1.27-2.387 1.3-1.882 0.05-1.88 0.07 0.182 0.96 1.149 0.5 2.978 0.82 4.063 0.71 1.338-0.13 1.847 0.17 1.581 0.92-0.262 0.75-1.559 1.04-3.906 0.89-2.918-0.19-3.335-0.04-2.461 0.9 0.579 0.62 1.919 0.96 2.977 0.76 1.371-0.27 1.924 0.02 1.924 0.99 0 1.09-0.621 1.27-3.133 0.93-9.52-1.29-22.373-2.93-22.945-2.93-0.364 0-0.661 0.33-0.661 0.74 0 0.4 2.35 0.94 5.223 1.19 11.666 1.03 16.503 2.1 16.503 3.66 0 1.03-1.198 1.15-7.239 0.73-13.204-0.92-17.405-1.49-18.025-2.45-1.009-1.56-0.738-2.22 1.211-2.94 1.718-0.64 1.635-0.76-1.156-1.68-1.653-0.54-3.332-0.93-3.73-0.86-2.652 0.48-2.966-0.12-2.509-4.87 0.254-2.64 0.477-4.9 0.496-5.01 0.019-0.12 0.526-0.21 1.127-0.21s1.447 1.01 1.88 2.24c0.725 2.06 0.896 2.13 2.135 0.89 0.741-0.74 1.595-3.21 1.897-5.49 0.718-5.41 2.047-6.54 5.547-4.73 1.455 0.75 2.85 1.16 3.101 0.91s-0.538-0.84-1.752-1.3c-5.302-2.01-9.736-4.34-12.143-6.36-2.58-2.18-3.54-4.3-1.548-3.43 0.574 0.25 4.528 1.98 8.787 3.85 10.035 4.4 11.628 4.3 3.111-0.18-6.625-3.49-11.04-6.97-10.078-7.93 0.274-0.27 3.783 1.15 7.799 3.17s7.579 3.8 7.919 3.95c0.339 0.16 0.427-0.2 0.194-0.8-0.232-0.6-2.014-1.99-3.959-3.1-4.92-2.81-8.969-6.14-8.969-7.39 0-1.52 0.67-1.32 5.132 1.54 5.627 3.61 7.08 2.56 1.753-1.26-4.649-3.34-4.788-3.56-3.573-5.48 0.665-1.05 1.058-0.98 2.702 0.48 2.099 1.85 6.181 4.52 6.933 4.52 0.259 0-1.41-1.94-3.709-4.3-3.843-3.94-4.607-5.73-2.447-5.73 0.463 0 2.935 1.7 5.493 3.79 2.558 2.08 4.81 3.63 5.004 3.43 0.195-0.19-1.746-2.34-4.312-4.77-3.326-3.14-4.409-4.67-3.769-5.308 0.639-0.639 1.907-0.345 4.41 1.028 1.932 1.06 2.921 1.43 2.197 0.83s-1.968-2.093-2.765-3.317c-1.406-2.16-1.395-2.243 0.352-2.797 1.394-0.443 2.339 0.058 4.193 2.226 1.316 1.538 2.408 2.328 2.427 1.753 0.018-0.575-0.365-1.045-0.851-1.045-0.487 0-0.679-0.333-0.427-0.741 0.252-0.407-0.102-1.205-0.787-1.773-1.489-1.237-1.658-4.171-0.239-4.171 0.553 0 2.335 1.222 3.961 2.716 1.684 1.547 2.16 1.804 1.106 0.596-1.018-1.166-1.954-3.001-2.081-4.078-0.33-2.804 2.264-2.939 4.052-0.211 2.042 3.118 7.196 8.578 7.659 8.115 0.213-0.213-1.305-2.271-3.375-4.573-3.756-4.178-5.256-7.201-3.968-7.998 1.351-0.835 3.165 0.584 5.672 4.436 1.405 2.157 3.939 5.238 5.633 6.847 2.759 2.625 2.636 2.335-1.183-2.751-4.289-5.712-5.731-8.94-4.723-10.571 0.925-1.496 1.615-1.016 4.024 2.797 3.456 5.47 5.089 6.339 2.256 1.201-2.913-5.286-2.981-5.717-0.899-5.717 1.003 0 2.407 1.391 3.796 3.76 1.212 2.068 2.391 3.76 2.621 3.76s-0.584-1.709-1.808-3.798-1.985-4.038-1.691-4.332c0.772-0.772 12.465-0.995 13.456-0.256 0.459 0.343 2.658 1.146 4.886 1.786 2.227 0.64 4.421 1.858 4.876 2.707 0.514 0.96 1.42 1.389 2.396 1.133 1.04-0.272 1.741 0.125 2.074 1.173 0.276 0.871 1.417 1.813 2.535 2.094 1.119 0.28 2.034 0.952 2.034 1.493 0 0.54 1.128 1.649 2.507 2.463 1.378 0.815 2.506 1.768 2.506 2.119s1.251 2.115 2.779 3.924c1.529 1.8 3.689 4.97 4.809 7.04 1.11 2.07 2.22 3.95 2.46 4.18 2.25 2.13 7.41 22.05 8.25 31.85 1.74 20.24-1.13 47.45-6.33 60.06-0.29 0.69-0.66 1.99-0.83 2.89-0.49 2.53-4.36 10.07-6.17 12.02-0.908 0.97-2.194 1.54-2.885 1.27-0.686-0.26-1.247-0.06-1.247 0.45s-0.586 0.92-1.303 0.92c-0.716 0-1.07-0.37-0.786-0.83 0.817-1.33-0.936-0.97-2.089 0.41-1.188 1.44-3.342 1.69-3.342 0.39 0-0.59-0.503-0.59-1.617 0-0.889 0.48-2.218 0.87-2.954 0.87-1.12 0-1.178-0.31-0.359-1.88l0.978-1.88-1.993 1.75c-2.605 2.3-4.083 3.11-4.083 2.25zm-1.103-15.75c3.1-2.1 4.827-3.56 3.192-2.7-0.459 0.24-2.245 1.1-3.969 1.9-1.723 0.8-3.133 1.79-3.133 2.2 0 1.1 0.467 0.94 3.91-1.4zm6.953-3.38c0-0.18-0.564-0.33-1.254-0.33-0.689 0-1.253 0.36-1.253 0.81 0 0.44 0.564 0.59 1.253 0.33 0.69-0.27 1.254-0.63 1.254-0.81zm18.54-9.26c-0.6-0.24-1.32-0.21-1.6 0.07s0.21 0.47 1.09 0.44c0.98-0.04 1.18-0.24 0.51-0.51zm5.01-0.83c-0.6-0.24-1.32-0.21-1.6 0.06-0.28 0.28 0.22 0.48 1.1 0.44 0.97-0.04 1.17-0.24 0.5-0.5zm-65.33-44.04c0-0.18-0.929-0.5-2.064-0.71-1.135-0.22-1.865-0.08-1.622 0.32 0.428 0.69 3.686 1.04 3.686 0.39zm-5.213-0.99c-0.263-0.27-1.736-0.63-3.273-0.82-2.182-0.27-2.428-0.18-1.123 0.42 1.862 0.85 5.142 1.14 4.396 0.4zm-17.348-3.19c0-0.17-0.753-0.51-1.672-0.75-0.92-0.25-1.462-0.1-1.204 0.32 0.449 0.72 2.876 1.09 2.876 0.43zm15.458-1.35c-0.919-0.39-2.235-0.72-2.924-0.72-0.79 0-0.636 0.27 0.418 0.72 0.919 0.4 2.235 0.72 2.924 0.72 0.79 0 0.636-0.27-0.418-0.72zm17.13-3.02c0-0.94-1.569-0.12-2.019 1.05-0.44 1.15-0.317 1.2 0.747 0.32 0.699-0.58 1.272-1.2 1.272-1.37zm-10.445-17.03c-0.284-0.46-0.964-0.83-1.511-0.82-0.598 0-0.495 0.33 0.258 0.82 1.605 1.04 1.894 1.04 1.253 0zm31.727-23.15c-4.806-6.844-6.372-8.567-3.644-4.009 2.771 4.629 6.949 10.319 7.322 9.969 0.17-0.15-1.485-2.84-3.678-5.96zm-18.775 1.94c0-0.17-0.658-0.83-1.462-1.46-1.326-1.039-1.355-1.009-0.316 0.32 1.092 1.39 1.778 1.83 1.778 1.14zm22.066-3.442c-0.753-1.149-1.505-2.089-1.672-2.089s0.124 0.94 0.648 2.089c0.523 1.152 1.276 2.092 1.672 2.092 0.397 0 0.105-0.94-0.648-2.092zm-17.405-4.407c-1.438-1.378-1.456-1.36-0.399 0.4 0.608 1.013 1.286 1.662 1.506 1.442 0.219-0.22-0.278-1.048-1.107-1.842zm5.366-8.545c0-0.459-0.398-0.835-0.885-0.835s-0.652 0.376-0.368 0.835c0.284 0.46 0.682 0.836 0.884 0.836 0.203 0 0.369-0.376 0.369-0.836zm-43.863 135.35c0.759-1.23 8.97-6.36 11.341-7.09 2.852-0.88 1.819-0.02-5.07 4.23-6.285 3.87-7.135 4.26-6.271 2.86zm-2.775-5.05c0.442-1.33 12.231-7.9 12.925-7.2 0.25 0.25-1.556 1.47-4.015 2.7-2.458 1.24-5.556 3.02-6.883 3.96-1.609 1.14-2.285 1.32-2.027 0.54zm26.166-1.24c4.02-3.39 8.631-6.23 10.106-6.23 0.751 0-0.929 1.53-3.733 3.4-2.803 1.87-5.312 3.75-5.576 4.18-0.263 0.43-1.114 0.77-1.891 0.77-1.04 0-0.752-0.56 1.094-2.12zm22.143 1.67c0-0.89 4.127-4.89 4.578-4.44 0.583 0.59-2.766 4.89-3.803 4.89-0.426 0-0.775-0.2-0.775-0.45zm-3.342-3.66c0-1.01 4.301-4.4 4.866-3.83 0.518 0.52-3.188 4.6-4.176 4.6-0.38 0-0.69-0.35-0.69-0.77zm-47.629-2.14c0-0.64 11.524-6.28 12.722-6.24 0.586 0.02-1.755 1.51-5.202 3.3-6.177 3.22-7.52 3.74-7.52 2.94zm28.755-1.98c0.942-1.53 7.902-5.31 9.045-4.92 0.58 0.2-1.013 1.45-3.541 2.78-5.987 3.16-6.184 3.24-5.504 2.14zm16.367-0.09c0-1.05 2.964-2.64 3.643-1.96 0.73 0.73-1.103 2.76-2.492 2.76-0.633 0-1.151-0.36-1.151-0.8zm-45.958-4.1c0-0.77 7.938-4.31 9.512-4.25 0.948 0.04-7.735 4.86-8.885 4.94-0.345 0.02-0.627-0.29-0.627-0.69zm43.608-0.16c0.201-0.61 0.859-1.26 1.462-1.46 0.627-0.21 0.94 0.1 0.731 0.73-0.201 0.6-0.859 1.26-1.462 1.46-0.627 0.21-0.94-0.11-0.731-0.73zm9.716-0.09c-0.844-0.56-0.563-1.2 1.212-2.77 2.722-2.41 8.789-4.29 9.984-3.09 1.137 1.13-9.731 6.83-11.196 5.86zm-25.749-0.26c0-0.22 1.504-1.17 3.342-2.11 1.839-0.93 3.343-1.35 3.343-0.91s-1.186 1.38-2.635 2.11c-2.67 1.33-4.05 1.64-4.05 0.91zm22.186-2.87c-0.841-1.36 2.442-4.17 6.882-5.89 5.387-2.08 6.031-2.1 6.013-0.24-0.01 0.99-1.562 2.09-4.805 3.41-2.635 1.08-5.431 2.29-6.214 2.7-0.811 0.43-1.618 0.43-1.876 0.02zm-23.022-2.2c0-0.72 5.972-3.04 6.486-2.53 0.251 0.25-0.906 1.03-2.57 1.72-3.294 1.38-3.916 1.51-3.916 0.81zm-2.506-4.54c0-1.24 4.893-3.49 6.95-3.2 1.483 0.22 1.111 0.62-1.992 2.14-4.254 2.09-4.958 2.25-4.958 1.06zm-5.65-3.54c0.3-0.9 9.127-4.83 10.842-4.83 2.145 0-0.078 1.67-4.791 3.61-6.212 2.55-6.515 2.61-6.051 1.22zm26.615-1.28c0.1-0.81-0.105-2.12-0.454-2.93-0.35-0.8-0.431-1.99-0.182-2.64 0.25-0.65-0.154-1.42-0.899-1.71-1.207-0.46-1.178-0.69 0.262-2.09 2.27-2.21 12.896-3.36 12.896-1.4 0 0.74-0.846 1.52-1.88 1.74s-2.632 0.55-3.552 0.74c-0.919 0.19 2.277 0.2 7.103 0.02 5.919-0.22 8.23-0.07 7.102 0.47-0.919 0.43-3.059 0.81-4.755 0.85-1.696 0.03-3.288 0.38-3.537 0.79-0.249 0.4-2.197 1.17-4.329 1.71-6.078 1.53-3.832 1.84 3.353 0.47 3.57-0.68 8.056-1.2 9.969-1.15l3.477 0.09-4.178 1.05c-2.297 0.58-7.175 2.04-10.839 3.25-7.902 2.61-9.807 2.76-9.557 0.74zm-31.828-3.39c0-0.37 1.974-1.36 4.387-2.2s5.644-2.1 7.18-2.8c2.389-1.09 2.902-1.11 3.539-0.1 1.137 1.8 0.936 2.16-1.101 2.01-1.029-0.07-4.108 0.74-6.843 1.81-5.223 2.05-7.162 2.4-7.162 1.28zm-4.864-4.59c1.594-1.58 18.593-6.63 19.44-5.79 1.351 1.36 0.233 2.7-2.251 2.71-1.494 0-6.097 0.94-10.23 2.09-8.8 2.43-8.361 2.37-6.959 0.99zm35.464-5.22c-0.307-0.8-0.426-1.59-0.264-1.75 0.727-0.73 8.206-1.29 10.261-0.78 1.944 0.49 2.106 0.74 1.104 1.71-0.646 0.63-3.283 1.4-5.859 1.71-4.001 0.48-4.765 0.35-5.242-0.89zm30.897 0.59c-0.29-0.47-0.119-1.11 0.379-1.41 1.284-0.8 2.113 0.29 1.041 1.36-0.6 0.6-1.068 0.62-1.42 0.05zm3.923-0.34c0.21-0.58 0.9-0.91 1.532-0.74 2.032 0.54 7.793 0.37 9.293-0.28 1.05-0.45 1.46-0.24 1.46 0.72 0 1.11-1.07 1.34-6.33 1.34-4.718 0-6.24-0.27-5.955-1.04zm-71.3-0.65c-1.467-0.91-0.216-1.38 7.453-2.84 8.962-1.7 12.632-1.72 12.632-0.06 0 0.96-1.097 1.25-4.805 1.26-2.642 0.01-6.94 0.52-9.55 1.13-2.611 0.62-5.189 0.85-5.73 0.51zm63.762 0.35c0.278-0.28 0.998-0.31 1.602-0.06 0.666 0.26 0.468 0.46-0.505 0.5-0.881 0.04-1.375-0.16-1.097-0.44zm12.308-3.25c0-0.69 0.564-1.26 1.255-1.26 0.69 0 1.25 0.57 1.25 1.26s-0.56 1.25-1.25 1.25c-0.691 0-1.255-0.56-1.255-1.25zm-9.192-0.84c0-0.69 0.564-1.25 1.254-1.25 0.689 0 1.253 0.56 1.253 1.25s-0.564 1.25-1.253 1.25c-0.69 0-1.254-0.56-1.254-1.25zm4.178 0.08c0-0.76 0.585-1.02 1.662-0.74 0.914 0.24 1.456 0.77 1.204 1.17-0.73 1.18-2.866 0.86-2.866-0.43zm-33.892-0.58c-1.106-1.79 1.062-2.16 9.66-1.65l4.596 0.27-3.76 0.73c-6.819 1.33-9.954 1.53-10.496 0.65zm25.536 0.08c0-0.46 0.564-0.83 1.254-0.83 0.689 0 1.253 0.37 1.253 0.83s-0.564 0.84-1.253 0.84c-0.69 0-1.254-0.38-1.254-0.84zm-64.967-0.52c-2.223-0.96-0.836-1.85 4.246-2.73 7.487-1.31 18.347-1.23 17.9 0.12-0.224 0.68-2.966 1.22-7.799 1.56-4.099 0.28-8.77 0.73-10.378 1-1.609 0.27-3.395 0.29-3.969 0.05zm79.382-0.93c-0.575-0.2-1.045-0.89-1.045-1.54 0-1.31 0.74-1.49 2.255-0.52 1.25 0.79 0.21 2.56-1.21 2.06zm3.55-0.22c-0.29-0.47 0.08-1.08 0.82-1.36 1.6-0.62 2.49 0.06 1.72 1.31-0.69 1.12-1.87 1.14-2.54 0.05zm-9.225-0.89c-0.769-1.24 0.122-1.92 1.722-1.31 0.738 0.29 1.108 0.9 0.822 1.36-0.677 1.1-1.851 1.07-2.544-0.05zm-48.657-0.94c0.517-1.55 2.316-1.8 2.316-0.33 0 0.73-0.596 1.33-1.323 1.33-0.728 0-1.175-0.45-0.993-1zm44.487 0.12c-0.794-1.29 0.294-2.12 1.366-1.04 0.6 0.6 0.615 1.06 0.044 1.42-0.468 0.29-1.102 0.12-1.41-0.38zm9.635-2.47c-1.013-0.65-0.893-0.81 0.63-0.82 1.03-0.01 1.88 0.36 1.88 0.82 0 1.05-0.89 1.05-2.51 0zm4.4 0.33c0.28-0.27 1-0.3 1.61-0.06 0.66 0.26 0.46 0.46-0.51 0.5-0.88 0.04-1.37-0.16-1.1-0.44zm-44.797-1.36c-1.337-0.85 11.92-0.64 14.494 0.24 1.378 0.46-0.57 0.65-5.72 0.54-4.295-0.09-8.243-0.44-8.774-0.78zm35.384 0.2c0-0.46 0.564-0.84 1.253-0.84s1.253 0.38 1.253 0.84-0.564 0.83-1.253 0.83-1.253-0.37-1.253-0.83zm-87.311-0.82c-0.2886-0.47 0.0614-0.85 0.7779-0.85 1.4677 0 1.6834 0.5 0.5248 1.21-0.4278 0.27-1.014 0.1-1.3027-0.36zm11.883-0.92c0.477-1.83 0.609-1.84 11.803-1.28 6.226 0.31 11.495 0.74 11.708 0.96 1.176 1.17-2.043 1.67-12.428 1.9l-11.565 0.26 0.482-1.84zm26.247 0.99c-0.827-0.52-0.872-0.88-0.168-1.31 1.293-0.8 3.632 0.16 2.977 1.22-0.631 1.02-1.315 1.04-2.809 0.09zm36.038-1.43c0.277-0.28 0.998-0.31 1.601-0.06 0.667 0.26 0.469 0.46-0.505 0.5-0.881 0.04-1.374-0.16-1.096-0.44zm-14.582-2.72c-6.843-1.46-9.213-2.64-5.212-2.59 2.786 0.03 15.211 2.85 15.988 3.63 0.874 0.87-4.048 0.4-10.776-1.04zm29.814 0.69c-2.152-0.56-1.938-0.65 1.511-0.57 2.213 0.04 4.203 0.39 4.433 0.76 0.51 0.82-2.51 0.72-5.944-0.19zm-66.43-0.81l-11.28-0.41-0.039-2.3c-0.038-2.25 0.753-3.01 1.638-1.58 0.245 0.4 4.121 0.98 8.614 1.3 10.237 0.72 14.437 1.36 14.437 2.18 0 1.13-1.871 1.24-13.37 0.81zm60.581 0c-1.47-0.63-1.389-0.72 0.676-0.77 1.363-0.04 2.13 0.29 1.83 0.77-0.284 0.46-0.588 0.81-0.676 0.78-0.087-0.03-0.911-0.38-1.83-0.78zm-45.958-0.83c0.284-0.46 1.224-0.84 2.089-0.84s1.805 0.38 2.089 0.84c0.302 0.49-0.565 0.83-2.089 0.83s-2.391-0.34-2.089-0.83zm35.247-1.46c-0.2-0.35 0.155-2.38 0.789-4.52 0.955-3.22 1.435-3.82 2.801-3.46 1.414 0.37 1.509 0.69 0.663 2.22-0.542 0.98-1.024 2.16-1.072 2.62-0.28 2.71-2.282 4.68-3.181 3.14zm10.74-0.26c0.266-0.43 0.638-1.59 0.827-2.57 0.44-2.28 0.634-2.45 1.932-1.64 1.605 0.99 0.38 4.72-1.6 4.87-0.903 0.07-1.425-0.23-1.159-0.66zm4.566 0.05c0-0.46 0.166-0.84 0.369-0.84 0.202 0 0.601 0.38 0.885 0.84s0.118 0.83-0.369 0.83c-0.486 0-0.885-0.37-0.885-0.83zm-9.437-0.63c-0.484-0.88 1-6.06 1.732-6.04 2.057 0.04 2.68 1.44 1.784 4.01-0.855 2.45-2.699 3.52-3.516 2.03zm-39.863-0.9c0-1.18 0.942-1.72 2.171-1.25 1.744 0.67 1.416 1.94-0.499 1.94-0.92 0-1.672-0.31-1.672-0.69zm20.89-1.08c-6.177-1.66-9.319-3.24-6.412-3.24 1.923 0 14.851 3.34 16.439 4.25 2.319 1.32-3.481 0.73-10.027-1.01zm-14.205-1.57c0-0.46 0.376-0.84 0.836-0.84 0.459 0 0.835 0.38 0.835 0.84s-0.376 0.83-0.835 0.83c-0.46 0-0.836-0.37-0.836-0.83zm21.725-2.17c-2.068-0.64-5.264-1.54-7.102-2-3.795-0.96-6.036-2.19-5.305-2.92 0.433-0.43 5.746 0.88 14.642 3.61 1.459 0.45 2.951 0.57 3.315 0.27s0.159 0.11-0.457 0.91c-0.616 0.81-1.167 1.43-1.226 1.38-0.058-0.04-1.798-0.6-3.867-1.25zm-67.682 0.13c0-0.88 1.6036-1.25 2.0806-0.48 0.2886 0.47-0.0614 0.85-0.7779 0.85s-1.3027-0.17-1.3027-0.37zm47.21-1.3c0.285-0.46 1.037-0.84 1.672-0.84s1.387 0.38 1.671 0.84c0.294 0.47-0.426 0.83-1.671 0.83-1.246 0-1.966-0.36-1.672-0.83zm34.779 0.08c-1.722-1.09-0.263-2.75 1.849-2.1 2.526 0.77 2.781 1.16 1.368 2.05-1.515 0.96-1.774 0.96-3.217 0.05zm-5.549-1.78c-0.325-0.53-0.197-1.35 0.284-1.83 1.122-1.12 3.741-0.14 3.284 1.23-0.465 1.4-2.83 1.79-3.568 0.6zm-26.927-0.68c-0.537-0.33-0.671-1.06-0.305-1.65 0.52-0.84 0.868-0.81 1.668 0.15 1.122 1.35 0.142 2.43-1.363 1.5zm19.254-1.29c-1.471-0.54-2.944-1.26-3.272-1.58-0.329-0.33-1.246-0.6-2.037-0.6-0.792 0-2.327-0.74-3.412-1.65-1.085-0.9-1.597-1.64-1.137-1.65 1.221-0.01 10.523 3.17 11.608 3.97 1.128 0.83 2.235 0.79 3.722-0.16 0.819-0.52 1.044-0.29 0.827 0.85-0.357 1.87-2.653 2.17-6.299 0.82zm-68.768-1.35c0-0.46 0.752-0.83 1.6712-0.83 0.9191 0 1.6713 0.37 1.6713 0.83s-0.7522 0.84-1.6713 0.84c-0.9192 0-1.6712-0.38-1.6712-0.84zm78.918-0.07c-0.865-1.4 0.925-2.66 2.888-2.04 1.525 0.48 1.6 0.71 0.562 1.75-1.427 1.43-2.681 1.53-3.45 0.29zm-3.715-2.76c0-1.48 2.102-1.84 2.924-0.51 0.284 0.46 0.337 0.84 0.118 0.84s-0.994 0.22-1.72 0.5c-0.868 0.34-1.322 0.05-1.322-0.83zm-7.862-2.23c-4.376-1.66-6.089-2.86-4.954-3.49 0.981-0.54 11.145 3.52 11.145 4.45 0 1.07-1.456 0.84-6.191-0.96zm-65.67-0.37c0-0.69 0.564-1.25 1.2533-1.25 0.689 0 1.253 0.56 1.253 1.25s-0.564 1.26-1.253 1.26c-0.6893 0-1.2533-0.57-1.2533-1.26zm76.889 0.59c-0.681-0.24-1.741-0.94-2.356-1.56-0.615-0.61-2.126-1.36-3.357-1.67-3.175-0.78-6.218-2.91-5.371-3.75 0.723-0.73 11.235 4.19 13.229 6.18 0.723 0.73-0.778 1.29-2.145 0.8zm-24.552-1.24c-1.33-0.97-1.271-1.08 0.676-1.24 1.413-0.12 2.136 0.24 2.136 1.07 0 1.52-0.891 1.58-2.812 0.17zm-46.906-2.57c-0.919-0.53-1.859-1.2-2.089-1.5s-0.762-0.49-1.184-0.42c-0.421 0.07-0.922-0.34-1.1138-0.92-0.2326-0.69 0.5768-1.04 2.4368-1.03 4.681 0.02 6.372 0.78 6.244 2.83-0.129 2.07-1.787 2.47-4.294 1.04zm49.3 0.36c-0.919-0.36-1.577-0.89-1.462-1.19s0.357-0.45 0.539-0.33c0.181 0.11 1.107-0.5 2.058-1.36 0.986-0.89 2.308-1.34 3.081-1.04 1.816 0.69 1.033 2.68-0.915 2.32-1.319-0.24-1.382-0.09-0.438 1.05 0.916 1.1 0.908 1.31-0.045 1.26-0.631-0.03-1.899-0.35-2.818-0.71zm19.845-3.4c-2.569-1.56-3.905-4.03-1.671-3.08 3.607 1.52 5.662 2.79 6.017 3.7 0.596 1.53-1.25 1.27-4.346-0.62zm-68.518-2.5c-3.099-1.89-3.261-2.35-1.326-3.77 1.1-0.8 1.841-0.78 3.551 0.11 1.189 0.62 2.817 1.13 3.618 1.14 1.29 0 1.249 0.24-0.359 2.09-2.181 2.51-2.083 2.5-5.484 0.43zm72.371 0.06c-1.085-0.88-1.726-1.85-1.424-2.15 0.809-0.81 5.859 2.01 5.279 2.95-0.729 1.18-1.651 0.99-3.855-0.8zm4.888-1.74c-0.511-1.96-0.48-1.97 2.265-0.72 2.294 1.05 2.123 2.39-0.304 2.39-0.838 0-1.721-0.75-1.961-1.67zm5.255-0.79c0-0.49 0.376-0.88 0.836-0.88s0.836 0.16 0.836 0.36c0 0.21-0.376 0.61-0.836 0.89s-0.836 0.12-0.836-0.37zm290.51 123.41c-0.23-0.57-0.42-0.1-0.42 1.04 0 1.15 0.19 1.62 0.42 1.05 0.23-0.58 0.23-1.52 0-2.09zm-263.08-1.48c1.8-0.54 1.9-0.69 0.52-0.75-0.95-0.04-2.45 0.52-3.35 1.25-0.89 0.72-1.12 1.06-0.51 0.74 0.61-0.31 2.12-0.87 3.34-1.24zm264.92-14.19c0-4.36-0.28-8.64-0.62-9.5s-0.63 4.22-0.66 11.28c-0.02 8.51 0.19 11.72 0.63 9.5 0.37-1.83 0.66-6.91 0.65-11.28zm-264.35 7.52c0.61-0.99-0.21-0.99-2.51 0-1.61 0.7-1.61 0.72 0.16 0.78 1.01 0.03 2.06-0.32 2.35-0.78zm62.54-1.04c-2.23-3.63-13.81-15.67-14.6-15.19-0.4 0.25-0.73 3.8-0.73 7.88v7.43l4.8 0.31c10.79 0.67 11.2 0.66 10.53-0.43zm-17.46-12.66c0.45-2.87 0.36-3.13-0.77-2.2-0.98 0.81-1.26 2.68-1.18 7.86l0.11 6.79 0.66-4.6c0.36-2.52 0.89-6.06 1.18-7.85zm-8.24 5.97c0.04-2.87 0.5-7.65 1.03-10.62 0.54-3.12 0.64-5.72 0.21-6.15-0.93-0.93-1.48 0.84-2.54 8.21-1.18 8.24-1.11 13.79 0.18 13.79 0.71 0 1.07-1.65 1.12-5.23zm-31.41 3.56c0-0.46-0.54-0.84-1.21-0.84-0.66 0-1.43 0.38-1.72 0.84-0.28 0.45 0.26 0.83 1.21 0.83 0.94 0 1.72-0.38 1.72-0.83zm265.21-1.33c0.86-2.23 0.41-13.06-0.73-17.48-0.59-2.29-1.12-3.53-1.17-2.75-0.06 0.78-0.74 1.78-1.52 2.21-1.09 0.61-1.21 1.07-0.49 1.93 0.52 0.63 1.21 4.8 1.54 9.28 0.57 7.76 1.25 9.72 2.37 6.81zm-99.81-24.04c-0.8-0.74-0.92-0.61-0.5 0.57 0.3 0.85 0.59 1.97 0.64 2.51s0.28 0.28 0.5-0.57c0.22-0.86-0.07-1.98-0.64-2.51zm83.6 1.16c0-1.57-3.35-2.73-4.69-1.62-0.99 0.83-1.02 1.16-0.15 1.72 1.5 0.95 4.84 0.88 4.84-0.1zm9.2-1.7c-0.5-0.92-1.09-1.67-1.32-1.67s-0.01 0.75 0.48 1.67 1.08 1.67 1.31 1.67 0.02-0.75-0.47-1.67zm-96.24-3.3c0.07-1.81-0.25-3.52-0.7-3.81-0.5-0.3-0.83 1-0.83 3.3 0 4.66 1.35 5.11 1.53 0.51zm80.99 1.84c0.51-1.54-2.03-1.28-2.63 0.27-0.35 0.92-0.08 1.23 0.89 1.04 0.76-0.14 1.54-0.74 1.74-1.31zm-6.06-1.04c0.65-1.06-0.3-1.4-5.64-2.05-3.99-0.48-4.81-0.37-4.81 0.68 0 1.21 1.43 1.57 7.72 1.95 1.25 0.08 2.48-0.19 2.73-0.58zm-13.56-1.19c1.2-0.91 1.26-1.21 0.31-1.58-1.17-0.45-3.05 0.84-3.05 2.1 0 0.97 1.04 0.77 2.74-0.52zm56.17-1.69c-3.23-2.63-6.14-4.21-6.7-3.65-0.25 0.25-0.08 1.4 0.37 2.58 0.84 2.23 2.16 2.85 6.33 3.01l2.51 0.09-2.51-2.03zm-60.23 0.48c0.47-0.76-22.7-3.1-23.44-2.36-0.24 0.23 2.13 0.68 5.27 0.98s7.21 0.86 9.05 1.24c4.59 0.94 8.59 1.01 9.12 0.14zm35.58 0.14c0.01-0.5-7.35-5.07-8.77-5.45-15.21-4.13-16.36-4.36-25.49-5.25-2.52-0.25-5.91-0.61-7.52-0.8s-5.18-0.56-7.93-0.82c-2.76-0.25-10.28-1.04-16.72-1.75-6.43-0.71-13.39-1.46-15.46-1.67-2.06-0.2-5.64-0.57-7.93-0.8-2.3-0.24-5.87-0.6-7.94-0.81-5.17-0.53-18.19-1.95-26.74-2.92-3.91-0.44-9.36-1.02-12.12-1.27-2.75-0.26-8.21-0.83-12.11-1.28-12.76-1.46-49.14-4.22-53.24-4.04-2.2 0.09-7.95-0.06-12.77-0.33-8.29-0.48-8.5-0.4-1.86 0.68 1.67 0.27 2.52 0.79 2.18 1.34-0.37 0.6-3.31 0.74-8.8 0.42-4.96-0.29-8.24-0.16-8.24 0.31 0 0.44 0.76 0.79 1.67 0.79 0.92 0 1.68 0.38 1.68 0.84 0 0.5-3.87 0.85-9.82 0.88-11.87 0.07-24.62 0.69-25.16 1.23-0.22 0.22 6.62 0.39 15.2 0.39s15.6 0.33 15.6 0.72-6.49 0.97-14.42 1.3c-17.67 0.72-17.33 0.69-17.33 1.58 0 0.4 1.59 0.46 3.55 0.12 6.25-1.06 35.69-1.65 49.92-0.99 19.88 0.91 68.74 3.84 87.74 5.24 8.96 0.67 19.11 1.41 22.56 1.65 71.9 4.99 75.21 5.29 85.1 7.56 2.91 0.67 5.99 1.7 6.84 2.3 1.21 0.85 8.32 1.56 8.33 0.83zm-205.55-4.01l2.09-2.51-2.3 2.03c-1.27 1.11-2.3 2.4-2.3 2.85 0 0.46 0.09 0.67 0.21 0.48 0.11-0.19 1.15-1.47 2.3-2.85zm219.72-3.03c-1.1-2.63-4.13-5.14-7.48-6.17-1.78-0.55-1.5 0 1.88 3.62 2.19 2.34 4.44 5.3 5.01 6.56 1.02 2.26 1.05 2.27 1.32 0.37 0.16-1.06-0.18-3.03-0.73-4.38zm-251.18-1.03c12.35-1.21 22.72-2.03 23.05-1.82 0.34 0.21 1.71 0.05 3.05-0.35 1.98-0.59 1.37-0.74-3.21-0.8-3.46-0.05-5.64-0.43-5.64-0.98 0-0.62-1.95-0.75-6.06-0.42-3.33 0.26-9.61 0.7-13.96 0.96-4.35 0.27-8.27 0.71-8.71 0.99-0.45 0.27-2.34 0.56-4.21 0.65-6.3 0.3-12.59 1.43-13.21 2.38-1.24 1.9-0.56 2.35 2.91 1.97 1.95-0.22 13.65-1.38 25.99-2.58zm34.17-2.8c-1.03-0.2-2.72-0.2-3.76 0-1.03 0.2-0.19 0.36 1.88 0.36s2.92-0.16 1.88-0.36zm3.35-4.14c-0.58-0.23-1.52-0.23-2.09 0-0.58 0.23-0.11 0.42 1.04 0.42s1.62-0.19 1.05-0.42zm5.79-0.02c-0.6-0.24-1.32-0.21-1.6 0.07s0.22 0.47 1.1 0.44c0.97-0.04 1.17-0.24 0.5-0.51zm102.83-4.99c-0.57-0.24-1.51-0.24-2.09 0-0.57 0.23-0.1 0.42 1.05 0.42s1.62-0.19 1.04-0.42zm-7.57-0.86c-0.6-0.24-1.32-0.21-1.6 0.07s0.21 0.47 1.09 0.44c0.98-0.04 1.18-0.24 0.51-0.51zm-9.69-0.97c-0.41-0.66-2.75-1-15.53-2.23-5.04-0.49-8.5-0.95-11.7-1.57-1.15-0.23-7.17-1.01-13.37-1.73-6.21-0.73-13.63-1.63-16.51-1.99-2.87-0.36-5.22-0.4-5.22-0.09 0 0.61 27.23 4.4 42.2 5.88 9.26 0.91 19.83 2.13 20.31 2.33 0.14 0.06 0.06-0.21-0.18-0.6zm5.15 0.13c-0.81-0.21-2.12-0.21-2.93 0-0.8 0.21-0.14 0.38 1.46 0.38 1.61 0 2.27-0.17 1.47-0.38zm-129.73-2.76c-0.25-0.4-1.17-0.68-2.05-0.61-2.07 0.15-1.52 1.04 0.75 1.21 0.97 0.07 1.55-0.2 1.3-0.6zm-11.06-0.59c-1.03-0.2-2.91-0.21-4.18-0.01-1.27 0.19-0.43 0.35 1.87 0.36 2.3 0 3.34-0.15 2.31-0.35zm15.04-3.34c-1.03-0.2-2.91-0.21-4.18-0.02-1.27 0.2-0.43 0.36 1.87 0.36 2.3 0.01 3.34-0.15 2.31-0.34zm55.96-1.68c-1.04-0.2-2.54-0.19-3.34 0.02s0.05 0.37 1.89 0.36 2.49-0.18 1.45-0.38zm-13.98-1.96c-4.23-0.88-7.65-0.84-4.18 0.05 1.38 0.35 3.63 0.63 5.01 0.64 2.11 0 1.98-0.11-0.83-0.69zm-8.62-0.52c-0.6-0.25-1.32-0.22-1.6 0.06s0.22 0.48 1.1 0.44c0.97-0.04 1.17-0.24 0.5-0.5zm-5.8-0.82c-0.57-0.23-1.51-0.23-2.09 0-0.57 0.23-0.1 0.42 1.05 0.42s1.62-0.19 1.04-0.42zm-21.72-2.51c-0.58-0.23-1.52-0.23-2.09 0s-0.1 0.42 1.04 0.42c1.15 0 1.62-0.19 1.05-0.42zm25.9-0.84c-0.57-0.23-1.51-0.23-2.09 0-0.57 0.24-0.1 0.43 1.05 0.43s1.62-0.19 1.04-0.43zm92.13-0.22c1.46-0.57 1.33-0.73-1.03-1.25-2.86-0.64-4.75-0.04-3.95 1.25 0.57 0.92 2.65 0.92 4.98 0zm-134.12-0.41c0-0.56-5.23-3.09-7.1-3.44-3.9-0.73-14.68-0.97-15.08-0.33-0.76 1.24 2.74 2.45 7.3 2.52 2.44 0.04 6.32 0.37 8.62 0.73 5.65 0.88 6.26 0.93 6.26 0.52zm125.86-0.87c0.26-0.67 1.22-1.46 2.14-1.75 1.41-0.45 1.59-1.05 1.21-4-0.24-1.91-0.46-4.9-0.48-6.66-0.03-2.02-0.37-2.98-0.93-2.63-1.28 0.79-4.01-1.96-3.61-3.63 0.4-1.68-1-4.14-1.87-3.27-0.33 0.33-0.69 1.45-0.81 2.48-0.11 1.04-0.24 2.14-0.28 2.45-0.03 0.31-0.91 0.69-1.95 0.84-1.76 0.25-1.86 0.61-1.63 5.69 0.2 4.26 0.61 5.68 1.88 6.58 0.9 0.63 1.63 1.82 1.63 2.65 0 2.37 3.88 3.4 4.7 1.25zm-7.66-1.34c-0.26-0.43-2.02-0.78-3.91-0.78-3.89 0-3.73 0.74 0.36 1.63 3.01 0.67 4.3 0.36 3.55-0.85zm-10.68-1.33c-0.3-0.31 0.23-1.1 1.19-1.77 1.51-1.06 1.69-1.87 1.38-6.01-0.2-2.63-0.64-5.22-0.96-5.75-1.08-1.74-4.21-0.97-7.39 1.81-2.4 2.09-3.14 3.36-3.14 5.4 0 2.11 0.42 2.76 2.01 3.16 1.11 0.28 2.2 1.23 2.43 2.11 0.29 1.09 1.16 1.6 2.73 1.6 1.27 0 2.06-0.25 1.75-0.55zm25.34-0.29c0-0.46-0.4-0.83-0.88-0.83-0.49 0-0.65 0.37-0.37 0.83s0.68 0.84 0.88 0.84c0.21 0 0.37-0.38 0.37-0.84zm-136.71-2.03c-0.49-1.27-1.21-1.46-11.08-3.03-5.08-0.8-6.29-0.77-6.88 0.17-1.27 2-0.85 2.24 4.89 2.8 3.1 0.3 6.02 0.68 6.48 0.84s2.23 0.32 3.94 0.35c2.38 0.05 3-0.21 2.65-1.13zm92.67-0.82c1.22-0.93 1.46-2.24 1.34-7.09-0.14-5.46-0.32-6.04-2.25-6.99-1.21-0.59-2.24-1.91-2.42-3.1-0.17-1.14-0.67-2.44-1.12-2.88-0.44-0.45-0.81-2.11-0.81-3.69v-2.87l-3.73 0.51c-4.67 0.64-13.92 3.6-15.99 5.11-1.49 1.09-1.49 1.22-0.11 2.75 0.8 0.88 1.45 1.99 1.45 2.47s1.08 1.09 2.39 1.36c1.87 0.37 2.51 1.06 2.92 3.11 0.53 2.63-1.35 7.45-3.22 8.26-0.62 0.27 11.77 2.87 19.64 4.11 0.22 0.04 1.09-0.44 1.91-1.06zm43.63-2.66c-0.44-5.37-1.26-5.68-1.26-0.47 0 2.37 0.35 4.31 0.79 4.31 0.43 0 0.64-1.73 0.47-3.84zm-38.1-4.51c-0.08-3.68-0.47-6.69-0.87-6.69s-0.75 0.66-0.77 1.46c-0.03 0.81-0.12 3.82-0.21 6.69-0.12 3.79 0.13 5.22 0.91 5.22 0.8 0 1.04-1.71 0.94-6.68zm-103.12 3.63c-11.17-2.67-11.28-2.72-11.28-4.92 0-1.27-0.48-2.06-1.25-2.06-0.87 0-1.26 0.88-1.26 2.84v2.84l7.73 1.25c9.77 1.58 12.56 1.6 6.06 0.05zm121.29-2.19c-0.23-0.56-0.4 0.1-0.38 1.48 0.01 1.38 0.2 1.84 0.41 1.03s0.2-1.94-0.03-2.51zm-7.25-9.49c0.01-0.52-0.5-1.37-1.14-1.9-0.92-0.76-1.26-0.55-1.66 1.05-0.28 1.11-1.26 2.21-2.19 2.45-1.15 0.3-1.68 1.14-1.68 2.66v2.21l3.33-2.76c1.83-1.52 3.33-3.19 3.34-3.71zm-96.91 3.87c-0.69-0.45-1.82-0.79-2.51-0.76-0.82 0.03-0.68 0.29 0.42 0.76 2.3 0.99 3.62 0.99 2.09 0zm126.17-2.51c0-0.46-1.12-0.83-2.5-0.83s-2.51 0.37-2.51 0.83 1.13 0.84 2.51 0.84 2.5-0.38 2.5-0.84zm-20.47-1.67c-0.28-0.46-1.06-0.83-1.72-0.83s-1.2 0.37-1.2 0.83 0.77 0.84 1.72 0.84c0.94 0 1.49-0.38 1.2-0.84zm-63.98-2.02c0.81-0.98 0.68-1.11-0.73-0.74-0.94 0.25-1.72 0.78-1.72 1.19 0 1.12 1.35 0.88 2.45-0.45zm-64.28-1.86c-6.14-2.82-8.87-3.88-8.12-3.13 0.86 0.87 10.86 5.3 11.88 5.27 0.46-0.02-1.23-0.98-3.76-2.14zm109.46 0.54c0-0.46-0.94-0.84-2.09-0.84s-2.09 0.38-2.09 0.84 0.94 0.83 2.09 0.83 2.09-0.37 2.09-0.83zm40.42 0.17c0.63-1.02-0.53-2.39-2.56-3.02-1.34-0.42-2.06-0.13-2.71 1.08-0.49 0.91-0.89 1.87-0.89 2.13 0 0.74 5.7 0.56 6.16-0.19zm-88.05-1.84c3.54-1.81 7.84-2.15 11.16-0.88 1.57 0.59 2.34 0.48 3.12-0.47 1.37-1.65 4.99-3.12 11.96-4.87 6.64-1.66 8.27-1.73 15.61-0.62 10.08 1.51 17.36-1.48 17.45-7.16 0.03-2.23-0.52-2.31-4.07-0.54-3.22 1.61-4.56 0.78-2.05-1.27 1.77-1.43 1.73-1.46-2.92-2.32-2.59-0.48-6.78-1.68-9.3-2.66-5.37-2.08-12.97-2.33-18.46-0.62-3.22 1.01-17.12 4.25-22.16 5.18-2.5 0.46-9.58 15.99-7.8 17.12 1.85 1.17 3.9 0.93 7.46-0.89zm44.68-14.17c-2.52-1.02-4.17-3.27-3.15-4.29 0.56-0.57 1.3-0.15 2.24 1.29 0.76 1.17 2.11 2.13 3 2.13 0.88 0 1.83 0.37 2.11 0.83 0.62 0.99-1.8 1.02-4.2 0.04zm23.28 15.29c0.94-0.94-1.22-2.79-3.25-2.79-2.11 0-3.27 1.18-2.46 2.5 0.58 0.93 4.85 1.15 5.71 0.29zm-17.82-1.95c0.69-0.01 0.12-0.63-1.26-1.38-2.74-1.5-6.12-1.62-7.47-0.26-1.39 1.38 1.24 2.59 4.55 2.09 1.61-0.24 3.49-0.45 4.18-0.45zm27.15-2.82c1.5-1.11 1.49-1.18-0.32-2.15-2.41-1.29-4.88 0.29-3.34 2.15 1.18 1.43 1.7 1.43 3.66 0zm-17.75-1.88c1.68-0.59 1.98-2.01 0.42-1.97-1.25 0.04-3.97 1.99-3.97 2.85 0 0.34 0.47 0.39 1.04 0.12 0.58-0.27 1.7-0.72 2.51-1zm13.1-1.96c0.82-0.44 1.99-1.98 2.58-3.42 1.32-3.18 0.44-4-3.91-3.66-1.62 0.13-4.41-0.28-6.21-0.92-2.7-0.95-3.26-0.96-3.26-0.04 0 0.61-0.23 2.24-0.51 3.63-0.47 2.36-0.28 2.59 3.14 3.8 4.36 1.54 6.18 1.68 8.17 0.61zm15.46-0.51c2.33-2.33 1.53-3.46-2.87-4.04-2.86-0.38-4.18-0.94-4.18-1.78 0-0.67-0.72-1.22-1.61-1.22-1.03 0-1.59 0.54-1.52 1.46 0.05 0.8-0.16 2.47-0.47 3.7-0.65 2.54 0.09 2.94 5.84 3.1 2.17 0.06 3.99-0.4 4.81-1.22zm77.06-3.93c-0.23-0.56-0.4 0.1-0.38 1.48 0.01 1.38 0.2 1.84 0.41 1.03s0.2-1.94-0.03-2.51zm10.73-5.62c-0.28-0.46-0.89-0.84-1.35-0.84s-0.6 0.38-0.32 0.84c0.29 0.46 0.9 0.84 1.36 0.84 0.45 0 0.6-0.38 0.31-0.84zm-5.57-16.74c1.21-0.02 1.19-0.14-0.15-0.92-1.21-0.71-1.86-0.58-2.93 0.56-1.28 1.36-1.27 1.42 0.16 0.92 0.84-0.29 2.16-0.54 2.92-0.56zm-53.7 360.8c-1.74-5.63-3.86-12.5-4.72-15.25-2.02-6.49-4.11-16.54-4.11-19.81 0-1.44 0.62-3.02 1.4-3.59 1.27-0.93 1.32-2.33 0.54-15.55-0.47-7.99-0.68-15-0.47-15.58 1.09-2.95 1.68 0.12 2.21 11.39 0.32 6.84 0.77 13.52 1.01 14.83 0.69 3.83-0.38 8.06-1.89 7.48-1.07-0.41-1.18 0.08-0.69 3.07 0.89 5.5 6.78 27.9 9.14 34.82 2.24 6.56 2.56 8.42 1.43 8.42-0.37 0-2.11-4.6-3.85-10.23zm-138.34 1.67c0-0.58 2.19-6.31 4.88-12.75 5.66-13.59 7.06-18.57 6.38-22.82-0.77-4.87-2.93-15.02-4.75-22.3-2.5-10.01-4.82-24.96-4-25.8 0.4-0.41 0.92 0.5 1.18 2.09 1.8 10.9 3.15 17.46 5.4 26.22 1.42 5.51 3.04 13.11 3.59 16.89 1.19 8.07 0.55 10.78-6.03 25.52-2.21 4.95-4.26 10.12-4.57 11.49-0.53 2.45-2.08 3.53-2.08 1.46zm-117.36-20.89c-1.026-3.33-1.203-15.18-0.429-28.81l0.885-15.59 6.676-20.43c7.264-22.23 7.473-22.74 10.769-26.54 1.807-2.08 2.598-4.51 4.08-12.53 1.012-5.47 2.017-10.7 2.235-11.62s3.379-4.81 7.024-8.64c6.577-6.91 9.242-11.72 9.242-16.65 0-2.49 4.858-22.66 5.888-24.41 0.62-1.05 0.75-0.98 0.77 0.4 0.02 0.92-0.36 2.99-0.83 4.6-1.585 5.43-3.434 14.59-4.175 20.69-0.66 5.42-1.145 6.58-4.527 10.86-2.084 2.63-5.45 6.45-7.48 8.49-3.395 3.4-3.802 4.27-5.052 10.86-0.748 3.94-1.59 8.29-1.872 9.67-0.488 2.39-0.438 2.45 1.072 1.17 5.122-4.31 4.661-2.92-1.453 4.4-6.154 7.36-6.857 8.84-12.839 27.02-8.656 26.3-8.134 23.33-8.252 47-0.092 18.48-0.558 23.87-1.732 20.06zm34.374-7.61c-2.14-3.26-1.955-4.31 1.304-7.39 1.826-1.72 3.133-3.75 3.133-4.85 0-2.68-2.965-7.35-7.23-11.41-4.423-4.2-4.44-4.12 3.541-15.83 9.13-13.4 12.058-17.11 18.698-23.76 7.1-7.09 9.54-8.27 32.05-15.5 13.06-4.2 20.44-7.92 25.93-13.09 3.7-3.49 3.89-3.59 3.89-2.05 0 1.93-6.13 7.08-11.98 10.05-3.14 1.6-11.22 4.68-17.97 6.84-22.79 7.3-23.18 7.49-30.66 14.99-5.82 5.83-22.763 28.57-24.328 32.65-0.346 0.9 0.598 2.54 2.795 4.85 5.436 5.72 6.935 8.13 6.935 11.16 0 3.61-1.983 7.51-4.169 8.2-1.761 0.56-2.192 1.68-0.945 2.45 1.047 0.65 1.742 3.74 0.949 4.23-0.366 0.23-1.241-0.47-1.943-1.54zm26.996-2.11c0-0.83 14.46-8.12 27.58-13.9 4.82-2.12 9.73-4.78 10.91-5.89 2.64-2.52 3.3-2.56 3.25-0.16-0.03 1.56-1.44 2.53-8.14 5.59-4.46 2.04-13.46 6.27-20.01 9.4-11.93 5.72-13.59 6.32-13.59 4.96zm371.95-9.5c-0.5-2.87-1.3-8.79-1.79-13.16-1.96-17.51-3.92-26.86-6.39-30.48-1.47-2.16-1.42-3.78 0.11-3.78 2.47 0 4.78 6.72 6.31 18.38 1.24 9.51 4.12 32.85 4.14 33.63 0.01 0.35-0.32 0.63-0.73 0.63s-1.16-2.35-1.65-5.22zm-362.76-1.32c0-1.07 19.2-17.13 24.4-20.42 3.32-2.1 4.98-4.26 10.69-13.87 8.09-13.64 8-13.49 11.79-19.31 1.65-2.54 2.85-5.05 2.67-5.58-0.18-0.54 0.39-1.48 1.27-2.09 1.68-1.18 7.68-12.38 7.68-14.35 0-0.63-0.55-2.23-1.21-3.57-0.66-1.33-1.62-5.62-2.12-9.53l-0.91-7.1 4.83-12.32c4.46-11.36 6.09-14.32 6.09-11.06 0 0.7-0.97 3.61-2.16 6.48-5.61 13.48-6.09 15.67-5.21 23.64 0.54 4.98 1.34 8.13 2.45 9.69 1.65 2.31 1.65 2.32-0.21 6.73-1.02 2.43-2.35 5.16-2.96 6.06-1.6 2.4-1.36 3.22 0.78 2.61 4.11-1.17 23.57-4.67 26.01-4.69 1.44-0.01 5.23-0.57 8.44-1.25 4.95-1.05 6.33-1.75 9.17-4.68 1.84-1.89 5.5-5.1 8.12-7.12 4.46-3.43 4.99-3.62 7.99-2.95 1.8 0.4 5.88 0.4 9.34-0.02 5.62-0.67 7.69-0.49 6.64 0.56-0.96 0.96-12.32 1.94-15.53 1.34-3.41-0.65-3.7-0.53-8.77 3.72-2.89 2.42-7.24 6.5-9.68 9.07-5.08 5.36-11.53 10.07-12.23 8.94-0.26-0.42 0.8-1.55 2.36-2.52 1.56-0.96 3.29-2.29 3.84-2.96 1.09-1.32 1.68-1.34-13.76 0.45-11.73 1.35-25.01 4.65-26.63 6.62-0.58 0.69-3.03 4.34-5.46 8.11l-4.42 6.85 1.84 1.92c1.81 1.9 1.83 2.18 1.18 16.97-0.36 8.27-0.62 17.02-0.58 19.43s-0.26 4.38-0.67 4.38c-1.59 0-1.87-5.06-0.92-16.71 1.21-14.83 1.23-19.68 0.11-21.78-1.61-3.01-1.91-2.67-10.85 12.48-2.54 4.3-4.69 6.81-7.15 8.35-1.93 1.21-8.29 6.15-14.14 10.98-11.06 9.14-12.12 9.88-12.12 8.5zm-52.17-5.37c0.32-1.03 1.294-3.29 2.164-5.01 0.871-1.73 4.224-9.44 7.452-17.13 11.218-26.75 14.117-31.44 23.534-38.06 11.76-8.28 25.78-21.84 28.51-27.6 1.19-2.52 1.29-3.41 0.48-4.39-1.58-1.91-0.14-2.5 2.42-0.99 5.14 3.04 22.67 3.94 35.45 1.81 1.89-0.31 3.13-0.18 3.13 0.33 0 2.47-24.41 3.57-33.92 1.53l-5.11-1.1-1 2.78c-1.99 5.51-18.19 21.66-29.18 29.1-2 1.35-5.14 4.16-6.99 6.26-3.453 3.91-10.232 17.06-14.878 28.87-1.447 3.67-3.953 9.5-5.569 12.95s-3.508 7.68-4.205 9.4c-1.357 3.36-3.261 4.4-2.288 1.25zm340.45 1.02c0-0.47 2.03-3.76 4.5-7.31s5.33-8.11 6.35-10.13c2.25-4.47 12.4-20.98 15.64-25.45 2.44-3.36 7.68-7.4 10.91-8.41 3.23-1.02 2.05 0.69-1.97 2.82-4.74 2.51-7.44 6-16.72 21.62-4 6.75-9.55 15.74-12.33 19.99-4.68 7.18-6.38 9.01-6.38 6.87zm-164.61-17.67c-2.99-2.25-6.18-4.72-7.1-5.49-8.33-6.95-36.36-22.97-40.32-23.03-1.26-0.02-1.37-1.11-0.2-1.84 2.61-1.6 36.23 17.18 42.8 23.91 0.79 0.81 3.89 3.22 6.89 5.36s5.45 4.01 5.45 4.15-0.47 0.43-1.04 0.65c-0.58 0.21-3.49-1.45-6.48-3.71zm-64.78-2.4c-0.31-0.5-1.1-5.3-1.76-10.67-0.67-5.5-1.87-11.13-2.74-12.9-1.66-3.39-1.1-4.83 0.97-2.48 1.74 1.99 2.11 3.46 3.5 14.02 0.67 5.06 1.45 9.81 1.74 10.55 0.6 1.56-0.88 2.84-1.71 1.48zm346.94-13.81c-1.31-0.72-3.37-2.39-4.6-3.71-4.04-4.34-13.01-7.16-30.48-9.57-2.54-0.35-3.9-0.92-3.68-1.54 1.09-3.19 31.88 4.25 35.06 8.47 1.62 2.14 4.18 4.07 6.27 4.7 3.28 1 2.18-1.69-2.09-5.12-2.18-1.76-4.16-3.42-4.39-3.7-1.79-2.2-14.31-9.39-20.26-11.64-7.13-2.69-9.08-4.14-5.57-4.14 2.41 0 11.88 3.88 17.44 7.15 8.97 5.29 21.61 17.51 19.88 19.24-1.08 1.08-5.54 1-7.58-0.14zm-284.59-8.08c-1.93-2.87-4.97-7.23-6.76-9.69-4.4-6.04-5.8-12.41-3.57-16.23 0.86-1.48 2.3-2.83 3.2-3 1.51-0.28 1.49-0.15-0.26 1.73-3.75 4.04-2.15 10.69 4.67 19.33 5.64 7.14 9.01 13.08 7.44 13.08-0.67 0-2.8-2.35-4.72-5.22zm70.11-3.91c0-0.43 2.17-1.19 4.81-1.7s7.25-1.5 10.23-2.22c8.14-1.93 24.17-4.49 28.21-4.49 2.51 0 3.55 0.34 3.55 1.18 0 0.85-0.88 1.12-3.15 0.95-3.66-0.27-21.67 2.72-31.85 5.29-7.49 1.89-11.8 2.25-11.8 0.99zm157.1-5.35c0-0.61 2.16-2.68 4.8-4.59s5.26-3.86 5.81-4.32c0.56-0.46 1.24-0.84 1.51-0.84 1.59 0 11.89-8.01 18.2-14.16 4.04-3.93 9.12-8.18 11.28-9.44 3.96-2.31 7.7-3.02 7.7-1.47 0 0.46-0.58 0.84-1.29 0.84-2.88 0-8.55 3.89-15.75 10.81-7.42 7.13-16.76 14.41-21.82 16.99-1.38 0.7-3.9 2.63-5.6 4.28-3.23 3.15-4.84 3.78-4.84 1.9zm-187.73-10.22c-5.13-2.6-5.65-8.5-1.14-13.01 1.82-1.81 3.19-2.4 5.64-2.4 1.78 0 3.67 0.44 4.21 0.97 0.73 0.73 1.28 0.7 2.27-0.12 1.66-1.38 2.68-0.46 1.32 1.18-0.56 0.68-0.78 1.99-0.49 2.91 0.72 2.27-0.88 7.86-2.74 9.54-2.28 2.07-6.06 2.45-9.07 0.93zm7.61-3.06c2.72-3.88 0.54-10.68-3.42-10.68-3.86 0-7.46 4.49-6.21 7.76 1.85 4.89 7.13 6.49 9.63 2.92zm-7.61-2.79c-0.71-1.84 1.08-5.38 2.71-5.38 0.98 0 1.19 0.42 0.75 1.46-0.34 0.81-0.8 2.31-1.02 3.35-0.47 2.17-1.71 2.46-2.44 0.57zm-128.8-67.38c-0.55-0.55-1-1.55-1-2.22 0-0.96 0.35-0.9 1.67 0.3 1.72 1.55 2.19 2.92 1 2.92-0.36 0-1.12-0.45-1.67-1zm267.23-18.23c0-0.34 3.14-1.41 6.99-2.37s11.37-3.81 16.71-6.32c5.35-2.51 9.72-4.2 9.72-3.75s-4.61 3.07-10.24 5.82c-7.44 3.63-12 5.3-16.71 6.11-3.56 0.62-6.47 0.84-6.47 0.51zm-335.5-6.46c-3.488-0.73-4.726-4.7-2.79-8.94 1.234-2.71 5.628-3.06 6.296-0.51 0.234 0.89 1.233 1.74 2.22 1.88 1.962 0.28 2.54 3.21 0.75 3.81-0.574 0.19-1.044-0.27-1.044-1.03 0-0.75-0.376-1.14-0.836-0.85-0.459 0.28-0.835 1.17-0.835 1.98 0 2.21-1.886 4.05-3.761 3.66zm1.759-5.83c-0.278-0.28-0.476 0.21-0.439 1.09 0.04 0.98 0.238 1.18 0.505 0.51 0.241-0.6 0.211-1.33-0.066-1.6zm-0.217-2.35c-0.272-0.71-0.674-1.11-0.893-0.9-0.219 0.22-0.15 0.8 0.153 1.29 0.824 1.34 1.305 1.08 0.74-0.39zm128.02-23.99c0.77-2.53 2.01-3.97 3.4-3.97 1.45 0 1.44 0.36-0.13 3.38-1.54 3-4.15 3.46-3.27 0.59zm-76.73-9.81c1.73-3.2 3.64-5.84 4.24-5.84 0.7-0.01-0.05 2.1-2.09 5.82-1.75 3.22-3.65 5.85-4.24 5.85-0.65 0.01 0.14-2.22 2.09-5.83zm76.26-2.73c-10.63-3.36-11.94-4.25-7.7-5.18 3.51-0.77 15.59 3.87 14.97 5.74-0.44 1.33-1.59 1.24-7.27-0.56zm17.55-0.99c0-0.66 0.39-1.45 0.87-1.74 0.48-0.3 0.66-1.21 0.4-2.03-0.4-1.25 0.17-1.56 3.52-1.94 4.46-0.51 7.98 0.6 4.39 1.38-1.14 0.25-2.82 0.57-3.74 0.71-0.92 0.13-2.16 1.28-2.76 2.54-1.18 2.45-2.68 3.05-2.68 1.08zm-65.17-4.5c0-2.01 3.65-5.39 5.44-5.03 1.13 0.23 0.8 0.91-1.64 3.42-3.48 3.58-3.8 3.71-3.8 1.61zm83.75-8.66c0.51-1.55 2.31-1.8 2.31-0.33 0 0.73-0.59 1.32-1.32 1.32s-1.18-0.44-0.99-0.99zm256.02-22.84c-0.27-0.72 0.31-2.07 1.35-3.1 1-1.01 1.84-2.6 1.86-3.54 0.04-2.56 2.49-2.09 2.79 0.55 0.18 1.57-0.25 2.51-1.46 3.16-2.19 1.17-2.22 2.53-0.05 2.53 0.92 0 1.67 0.38 1.67 0.84 0 1.38-5.61 0.98-6.16-0.44zm14.52-0.92c6.31-7.27 6.35-13.63 0.1-15.74-3.03-1.02-3.12-2.62-0.13-2.36 7.04 0.63 9.11 9.63 3.7 16.07-1.2 1.42-2.99 3.01-3.97 3.51-1.64 0.85-1.62 0.73 0.3-1.48zm-123.67-1.8c0-0.37 1.1-1.31 2.44-2.1 4.6-2.72 5.42-10.46 1.54-14.59-1.53-1.63-1.64-2.09-0.66-2.7 1.61-1 2.48-0.32 3.87 2.99 2.39 5.73 0.95 12.84-3.19 15.75-2 1.39-4 1.72-4 0.65zm-24.72-3.45c-1.93-2.05-2.47-2.26-3.43-1.3-0.95 0.96-1.59 0.72-4.04-1.53-1.67-1.53-2.91-3.47-2.91-4.55 0-2.4 1.44-2.4 3.97-0.02l1.99 1.87-0.89-2.34c-1.15-3.03-1.1-4.81 0.07-2.65 2.13 3.9 5.44 8.46 7.19 9.88 1.93 1.56 2.48 3.07 1.11 3.07-0.42 0-1.79-1.09-3.06-2.43zm18.78-1.44c-0.86-1.04-2.09-1.24-5.46-0.89-3.59 0.37-4.59 0.17-5.8-1.17-1.4-1.54-1.39-1.67 0.14-2.83 1.86-1.41 6.45-1.64 8.7-0.43 2.12 1.13 5.23 5.62 4.29 6.2-0.41 0.25-1.26-0.14-1.87-0.88zm122.24-9.24l-0.92-5.59 3.51-3.82c4.12-4.47 13.44-11.75 14.99-11.71 1.86 0.04 3.93 2.13 5.25 5.28 1.07 2.57 1.09 3.05 0.1 3.05-0.65 0-1.39-0.85-1.65-1.88-0.27-1.04-1.28-2.38-2.26-2.99-1.5-0.92-2.01-0.9-3.17 0.11-0.76 0.67-2.59 1.83-4.07 2.57-1.48 0.75-3.07 2.07-3.53 2.94-0.79 1.47-0.63 1.51 2.51 0.71 1.84-0.46 3.73-1.56 4.2-2.43 1.04-1.94 2.43-1.3 1.87 0.86-0.51 1.93-3.01 3.13-8.12 3.9-3.93 0.59-7.45 3.51-6.8 5.66 0.17 0.54 0.51 2.78 0.77 4.96 0.36 2.99 0.2 3.97-0.64 3.97-0.72 0-1.43-1.95-2.04-5.59zm-150.84-0.82c-0.31-0.3-0.56-2.15-0.56-4.11 0-3.38 0.32-3.84 6.78-9.67 7.64-6.89 12.17-14.44 13.03-21.7 0.61-5.12 2.36-4.97 2.27 0.19-0.13 7.39-5.98 16.53-16.02 25.08-3.23 2.74-3.55 3.36-3.55 6.89 0 3.62-0.61 4.66-1.95 3.32zm27.82-3.27c-1.11-1.8-2.33-3.74-2.71-4.32-0.39-0.6-0.31-1.04 0.18-1.04 1.21 0 5.31 6.38 4.9 7.61-0.19 0.56-1.25-0.45-2.37-2.25zm49.76 1.31c0.91-1.47 6.7-4.05 13.05-5.81 9.61-2.66 9.57-1.88-0.06 1.31-4.8 1.58-9.34 3.43-10.09 4.11-1.55 1.4-3.7 1.69-2.9 0.39zm-45.55-0.71c0-0.39-0.95-2.13-2.13-3.85-1.17-1.72-1.97-3.56-1.79-4.09 0.18-0.52 1.51 0.91 2.96 3.19 2.79 4.37 3.15 5.47 1.8 5.47-0.46 0-0.84-0.32-0.84-0.72zm0.84-4.51c-2.68-4.54-2.79-4.8-1.95-4.78 1.09 0.01 4.58 5.83 4.29 7.14-0.14 0.66-1.18-0.38-2.34-2.36zm45.31 0.85c0.4-1.23 8.67-4.17 10.6-3.77 0.73 0.16-0.55 0.96-2.85 1.79-2.3 0.82-4.83 1.84-5.63 2.26-1.97 1.03-2.51 0.96-2.12-0.28zm-46.95-8.35c-4.86-6.01-5.64-8.57-1.04-3.45 3.07 3.42 6.51 8.66 5.69 8.66-0.24 0-2.33-2.34-4.65-5.21zm101.07-1.25c-2.52-2.07-4.72-4.09-4.87-4.5-0.55-1.46 1.36-0.69 4.55 1.85 1.79 1.42 3.76 2.86 4.38 3.21s1 1.21 0.83 1.92c-0.22 0.95-1.46 0.32-4.89-2.48zm-98.07-1.64c-3.76-4.73-4.52-6.15-3.24-6.05 0.9 0.06 8 9.98 7.51 10.48-0.23 0.22-2.15-1.77-4.27-4.43zm12.22 0.08c-1.96-1.64-3.55-3.36-3.55-3.83 0-0.93 5.85 3.89 6.93 5.71 0.98 1.66 0.54 1.41-3.38-1.88zm86.26-4.06c-2.97-2.71-4.46-4.58-3.68-4.6 0.73-0.01 3.55 2.02 6.27 4.53 2.78 2.56 4.39 4.57 3.67 4.59-0.7 0.03-3.52-2.01-6.26-4.52zm-96.14 0.65c-1.3-1.7-2-3.2-1.56-3.35 0.44-0.14 0.66-1.99 0.49-4.1s0.11-4.25 0.62-4.76c0.9-0.89 1.27 1.8 1.21 8.78-0.01 1.25 0.35 2.04 0.8 1.76 0.44-0.27 0.62 0.02 0.39 0.66s-0.07 1.82 0.34 2.62c1.23 2.39 0.22 1.68-2.29-1.61zm37.78 1.81c0.41-1.06 0.12-1.13-1.75-0.42-2.93 1.12-10.76 1.13-10.07 0.02 0.29-0.46 2.3-0.84 4.47-0.84s5.9-0.69 8.29-1.53l4.34-1.53-2.44-2.34c-2.51-2.4-5.05-2.44-5.05-0.09 0 1.71-2.63 2.98-6.16 2.98-3.4 0-5.54-2.33-5.54-6.03 0-2.32-1.84-3.24-2.93-1.47-0.29 0.46-0.87 0.63-1.29 0.37-0.43-0.26-0.57 0.06-0.31 0.72 0.32 0.84-0.31 1.31-2.11 1.57-3.63 0.53-3.79-0.12-0.67-2.75 2.15-1.82 2.51-2.51 1.69-3.35-0.81-0.84-1.48-0.81-3.34 0.12-1.27 0.64-2.6 1.3-2.94 1.47-0.35 0.16-0.63-0.17-0.63-0.75 0-1.15 5.61-6.61 6.79-6.61 0.4 0 0.73-0.55 0.73-1.23 0-0.75 0.49-1.04 1.26-0.74 0.7 0.27 1.73 0.12 2.3-0.33 1.46-1.16 10.8 0.92 14.65 3.25 7.03 4.27 17.72 13.26 17.72 14.91 0 0.57-0.56 0.82-1.25 0.55-0.69-0.26-1.26-0.07-1.26 0.43 0 0.51-0.89 0.73-2.04 0.51-1.28-0.24-2.22 0.05-2.5 0.78-0.56 1.45-5.55 3.6-8.36 3.6-1.52 0-1.95-0.35-1.6-1.27zm7.42-2.11c0.35-0.57-0.28-0.67-1.83-0.3-3.2 0.77-3.5 1.17-0.89 1.17 1.2 0 2.43-0.39 2.72-0.87zm-85.11 1.02c-3.68-0.72 0.35-3.66 4.13-3.02 3.44 0.59 4.5 1.04 4.5 1.92 0 0.8-6.14 1.58-8.63 1.1zm139.4-4.6c-2.29-1.92-5.3-4.3-6.68-5.3s-2.25-2.07-1.93-2.39c0.65-0.65 14.04 9.44 14.04 10.57 0 1.3-1.17 0.68-5.43-2.88zm-97.18-3.63c0.14-2.61 0.63-4.86 1.1-5.02 0.5-0.16 0.77 1.33 0.67 3.7l-0.17 3.97 1-3.91c1.51-5.89 2.25-5.75 2.25 0.43 0 5.08-0.89 7.15-1.95 4.52-0.34-0.83-0.44-0.83-0.49 0-0.04 0.58-0.65 1.05-1.36 1.05-1.05 0-1.25-0.91-1.05-4.74zm97.86-2.06c-4.05-3.75-7.91-7.34-8.58-7.95-1.07-0.99-1.06-1.13 0.13-1.13 1.7 0 17.57 14.83 16.55 15.46-0.41 0.25-4.06-2.62-8.1-6.38zm-85.49 5.13c0-0.46 0.94-0.84 2.09-0.84s2.09 0.38 2.09 0.84-0.94 0.83-2.09 0.83-2.09-0.37-2.09-0.83zm87.01-10.65c-4.3-4.3-7.64-8-7.42-8.23 1.07-1.06 16.5 13.43 16.5 15.5 0 1.58-1.17 0.64-9.08-7.27zm7.91-0.96c-3.51-4.13-7.37-8.29-8.58-9.25-1.21-0.95-1.97-1.96-1.69-2.24 0.71-0.7 10.97 9.28 14.55 14.15 5.03 6.86 2.41 5.23-4.28-2.66zm8.29 0.22c-1.34-1.78-4.87-5.77-7.84-8.88-2.97-3.1-5.22-5.82-5.01-6.03 1.27-1.27 16.25 15.23 15.6 17.18-0.18 0.53-1.42-0.49-2.75-2.27zm3.3-4.7c-1.82-2.41-5.15-6.36-7.41-8.78-4.22-4.53-5.04-6.49-1.33-3.23 5.64 4.97 14.24 16.4 12.34 16.4-0.17 0-1.79-1.98-3.6-4.39zm-145.72-6.5c-2.5-2.27-4.27-4.4-3.94-4.73s2.74 1.55 5.36 4.17c5.84 5.84 4.82 6.24-1.42 0.56zm77.98-0.65c-1.79-1.28-5.61-3.78-8.48-5.55-5.15-3.16-5.33-3.2-11.37-2.69-5.61 0.47-14.07 3-22.47 6.72-2.46 1.09-3.13 1.14-3.13 0.28 0-4.22 18.11-13.23 26.24-13.05l3.42 0.08-2.92 0.95-2.93 0.95 4.03 0.28c3.4 0.23 3.88 0.46 3.03 1.47-0.79 0.96-0.74 1.21 0.23 1.21 1.47 0 6.04 2.16 9.21 4.37 3.69 2.56 2.65 0.9-1.17-1.86-3.57-2.59-2.7-3.59 0.99-1.13 4.84 3.23 11.24 10.32 9.32 10.32-0.41 0-2.21-1.06-4-2.35zm38.86-0.83c-11.93-9.58-15.75-12.78-16.29-13.66-0.89-1.45 0.93-0.2 7.6 5.21 6.66 5.41 13.57 11.56 12.95 11.55-0.23-0.01-2.15-1.4-4.26-3.1zm-0.34-7.38c-2.75-2.07-7.22-5.13-9.91-6.81-2.69-1.67-4.52-3.17-4.06-3.32 0.81-0.27 12.05 7.09 17.85 11.7 4.74 3.76 1.46 2.43-3.88-1.57zm9.61-3.41c-2.53-1.66-8.53-5.21-13.35-7.89-4.81-2.687-8.25-4.882-7.63-4.882 1.91 0 25.42 13.442 26.47 15.132 0.87 1.41-0.91 0.65-5.49-2.36zm-2.47-9.94c-6.65-3.417-13.52-6.441-15.27-6.721-3.03-0.484-5.3-1.97-2.99-1.951 3.93 0.032 24.87 9.378 29.92 13.352 3.65 2.86 0.76 1.71-11.66-4.68zm8.32-2.119c-5.13-4.273-21.6-10.74-27.35-10.74-1.04 0-1.89-0.376-1.89-0.836 0-1.101 0.16-1.083 7.93 0.865 7.81 1.955 17.02 6.168 21.64 9.886 1.78 1.44 2.91 2.606 2.5 2.591-0.41-0.016-1.68-0.81-2.83-1.766zm-11.37-17.787c-1.43-0.623-5.72-1.921-9.54-2.885-7.85-1.986-9.77-3.08-4.11-2.341 4.78 0.625 17.27 4.533 17.94 5.614 0.69 1.127-1.21 0.955-4.29-0.388zm4.67-4.609c-1.93-1.136-14.04-4.061-19.18-4.634-6.15-0.687-6.38-1.258-0.51-1.258 6.93 0 23.05 4.398 23.05 6.289 0 0.641-1.99 0.406-3.36-0.397zm28.01-4.222c-13.28-7.187-36.69-12.751-47.08-11.192-2.9 0.435-3.61 0.312-3.31-0.581 1.09-3.281 13.96-2.631 29.08 1.468 10.87 2.947 25.94 9.615 28.75 12.726 2.33 2.569 0.95 2.122-7.44-2.421zm9.52 1.382c-5.22-3.978-14.84-9.289-21.64-11.943-6.56-2.564-7.07-3.518-1.07-2.026 5.96 1.483 21.01 10.135 26.46 15.209 2.8 2.61 0.16 1.736-3.75-1.24zm-0.37-11.915c-0.84-2.673-7.38-12.541-14.1-21.259-6.59-8.557-20.71-20.013-24.68-20.013-0.75 0-1.73-0.338-2.16-0.751-1.24-1.17-9.57-2.072-9.57-1.036 0 0.557-1.26 0.434-3.45-0.339-4.87-1.72-5.45-1.528-2.93 0.986 2.06 2.068 2.81 3.646 1.72 3.646-0.26 0-2.97-2.114-6.02-4.699-3.04-2.584-6.77-5.4983-8.28-6.4755-2.65-1.7167-3.7-3.8657-1.88-3.8657 0.48 0 4.1 1.5556 8.02 3.4569 4.19 2.0263 7.37 3.1193 7.68 2.6403 0.35-0.528 3.45-0.443 8.75 0.238 6.4 0.824 9.53 1.72 14.27 4.094 7.34 3.679 16.05 11.352 20.76 18.289 1.91 2.818 4.74 6.782 6.29 8.81 3.94 5.177 7.13 11.761 7.05 14.573-0.09 2.962-0.81 3.803-1.47 1.705zm-84.76-7.062c-4.63-2.553-16.3-11.129-17.27-12.687-0.28-0.465 2.82 1.6 6.91 4.587 4.08 2.988 9.4 6.426 11.81 7.64 4.06 2.043 5.31 3.038 3.76 3.001-0.34-0.009-2.69-1.152-5.21-2.541zm-0.52-7.165c-6.39-5.347-13.03-10.666-14.76-11.821-3.3-2.199-3.74-3.528-0.61-1.855 1.46 0.781 25.79 19.941 28.79 22.674 0.48 0.437 0.28 0.723-0.51 0.723-0.72 0-6.53-4.375-12.91-9.721zm16.17 7.595c-1.26-1.085-2.29-2.336-2.29-2.78s-2.7-3.275-6.01-6.29c-3.3-3.014-5.81-5.672-5.58-5.906 0.88-0.879 14.57 11.432 16.86 15.164 1.16 1.889-0.7 1.771-2.98-0.188zm-60.45-4.195c-1.32-2.098-3.63-4.749-5.13-5.892-2.82-2.147-3.51-3.664-1.67-3.664 2.25 0 10.64 9.862 10.64 12.505 0 1.871-1.54 0.688-3.84-2.949zm4.66-2.084c-1.87-3.032-2.94-4.099-7.69-7.645-1.03-0.768-1.22-1.442-0.65-2.333 0.68-1.085 1.3-0.985 4.56 0.736 5.41 2.854 13.52 11.798 10.69 11.798-0.34 0-1.69-1.342-3-2.983-2.69-3.365-3.95-3.344-1.74 0.028 0.88 1.353 1.14 2.504 0.67 2.979-0.48 0.475-1.58-0.522-2.84-2.58zm9.98-2.952c-1.11-1.19-3.87-3.521-6.12-5.179-4.2-3.093-4.14-4.818 0.08-2.123 2.15 1.376 2.25 1.381 1.2 0.052-0.98-1.242-0.97-1.447 0.13-1.447 1.84 0 10.76 7.469 10.13 8.481-0.31 0.502-1.42 0.044-2.73-1.126-4.83-4.321-6.2-5.019-2.83-1.451 1.95 2.073 3.55 4.036 3.55 4.363 0 1.2-1.43 0.541-3.41-1.57zm-42.13-4.141c6.93-5.717 25.49-12.685 25.49-9.57 0 0.46-1.04 0.844-2.3 0.855-2.94 0.026-9.83 2.895-17.63 7.344-6.82 3.895-9.39 4.527-5.56 1.371zm93.59-15.196c-0.92-0.23-2.62-1.079-3.76-1.886-3.72-2.614-12.31-6.628-18.94-8.853-5.06-1.701-8.56-2.243-16.12-2.498-6.21-0.21-8.9-0.064-7.56 0.411 1.15 0.406 3.22 0.785 4.6 0.843 5.17 0.217 20.01 6.019 20.82 8.141 0.31 0.795-0.47 0.661-2.67-0.461-1.71-0.87-5.93-2.47-9.38-3.556-5.42-1.707-7.88-1.965-18.19-1.913-6.56 0.033-11.45-0.243-10.86-0.614 0.58-0.371 1.86-0.68 2.84-0.687 0.99-0.007 1.95-0.665 2.17-1.475 0.43-1.6614 5.76-3.3281 13.07-4.0858 5.01-0.5205 17.81 1.4647 22.25 3.4538 1.38 0.617 4.39 1.924 6.69 2.906 4.83 2.063 16.9 9.015 17.59 10.13 0.5 0.799 0.14 0.819-2.55 0.144zm-9.61-11.097c-4.83-2.7238-11.22-5.585-14.21-6.3582-9.42-2.4392-24.72-1.8904-33 1.1838-4.75 1.7617-11.82 5.5454-14.02 7.5054-0.96 0.854-1.77 1.031-2.3 0.504-0.83-0.838 4.23-5.141 10.13-8.5949 9.17-5.3787 25.26-8.0772 35.79-6.0049 6.96 1.3689 27.63 13.066 27.63 15.634 0 1.707-0.46 1.527-10.02-3.869z"/>
  <metadata>
    <rdf:RDF>
      <cc:Work>
        <dc:format>image/svg+xml</dc:format>
        <dc:type rdf:resource="http://purl.org/dc/dcmitype/StillImage"/>
        <cc:license rdf:resource="http://creativecommons.org/licenses/publicdomain/"/>
        <dc:publisher>
          <cc:Agent rdf:about="http://openclipart.org/">
            <dc:title>Openclipart</dc:title>
          </cc:Agent>
        </dc:publisher>
        <dc:title>Boy playing cornet</dc:title>
        <dc:date>2009-03-22T17:03:22</dc:date>
        <dc:description>Cornet is a brass instrument similar to trumpet. Source: http://commons.wikimedia.org/wiki/File:Cornet_(PSF).png</dc:description>
        <dc:source>http://openclipart.org/detail/22801/boy-playing-cornet-by-papapishu</dc:source>
        <dc:creator>
          <cc:Agent>
            <dc:title>papapishu</dc:title>
          </cc:Agent>
        </dc:creator>
        <dc:subject>
          <rdf:Bag>
            <rdf:li>black and white</rdf:li>
            <rdf:li>boy</rdf:li>
            <rdf:li>brass instrument</rdf:li>
            <rdf:li>clip art</rdf:li>
            <rdf:li>clipart</rdf:li>
            <rdf:li>contour</rdf:li>
            <rdf:li>cornet</rdf:li>
            <rdf:li>externalsource</rdf:li>
            <rdf:li>image</rdf:li>
            <rdf:li>line art</rdf:li>
            <rdf:li>media</rdf:li>
            <rdf:li>music</rdf:li>
            <rdf:li>musical instrument</rdf:li>
            <rdf:li>outline</rdf:li>
            <rdf:li>people</rdf:li>
            <rdf:li>png</rdf:li>
            <rdf:li>psf</rdf:li>
            <rdf:li>public domain</rdf:li>
            <rdf:li>svg</rdf:li>
            <rdf:li>wikimedia commons</rdf:li>
          </rdf:Bag>
        </dc:subject>
      </cc:Work>
      <cc:License rdf:about="http://creativecommons.org/licenses/publicdomain/">
        <cc:permits rdf:resource="http://creativecommons.org/ns#Reproduction"/>
        <cc:permits rdf:resource="http://creativecommons.org/ns#Distribution"/>
        <cc:permits rdf:resource="http://creativecommons.org/ns#DerivativeWorks"/>
      </cc:License>
    </rdf:RDF>
  </metadata>
</svg>
