<?xml version="1.0" encoding="UTF-8" standalone="no"?>
<svg
   xmlns:dc="http://purl.org/dc/elements/1.1/"
   xmlns:cc="http://creativecommons.org/ns#"
   xmlns:rdf="http://www.w3.org/1999/02/22-rdf-syntax-ns#"
   xmlns:svg="http://www.w3.org/2000/svg"
   xmlns="http://www.w3.org/2000/svg"
   xmlns:sodipodi="http://sodipodi.sourceforge.net/DTD/sodipodi-0.dtd"
   xmlns:inkscape="http://www.inkscape.org/namespaces/inkscape"
   id="svg2"
   viewBox="0 0 79.999998 140"
   version="1.1"
   sodipodi:docname="060.svg"
   width="80"
   height="140"
   inkscape:version="0.92.4 (5da689c313, 2019-01-14)">
  <defs
     id="defs5726" />
  <sodipodi:namedview
     pagecolor="#ffffff"
     bordercolor="#666666"
     borderopacity="1"
     objecttolerance="10"
     gridtolerance="10"
     guidetolerance="10"
     inkscape:pageopacity="0"
     inkscape:pageshadow="2"
     inkscape:window-width="1920"
     inkscape:window-height="1133"
     id="namedview5724"
     showgrid="false"
     inkscape:snap-global="false"
     inkscape:zoom="3.2423802"
     inkscape:cx="128.06997"
     inkscape:cy="99.404452"
     inkscape:window-x="0"
     inkscape:window-y="0"
     inkscape:window-maximized="1"
     inkscape:current-layer="svg2" />
  <path
     style="fill:#ffffff;stroke-width:0.26262572"
     inkscape:connector-curvature="0"
     d="m 34.331098,137.03206 c 2.027812,-6.71718 4.055729,-13.43436 6.083463,-20.15127 1.837697,6.78047 3.675447,13.56094 5.513039,20.34141 4.114295,0.40379 8.242771,0.13474 12.353389,-0.2504 4.082517,-0.38252 7.907398,-1.8019 11.453896,-3.72272 2.958742,-1.63309 1.203456,-5.15009 1.033905,-7.72094 -1.217559,-7.4562 -2.11503,-14.98988 -3.821992,-22.34734 -0.945085,-4.07359 -2.670904,-7.92841 -4.40686,-11.7055 -1.018305,-2.21561 -0.664706,-5.8899 -0.894319,-7.48325 H 18.93217 c 0.02069,3.15886 0.11877,6.35029 -1.470205,9.27515 -2.361531,4.34724 -4.079103,9.09762 -4.70494,14.08987 -0.819524,6.53807 -2.053996,13.04278 -3.6720331,19.43772 -0.6396775,3.15335 1.4216721,6.0874 4.5555061,7.39055 5.98918,2.49051 12.613914,3.76579 19.050082,3.10607 0,0 1.096148,-0.15767 1.640308,-0.25967 z"
     id="path2830-1" />
  <path
     style="fill:#ffffff;stroke:#000000;stroke-width:0.70580667"
     inkscape:connector-curvature="0"
     d="m 44.24522,130.96803 c 1.346403,0.33511 2.660136,0.89508 3.725608,1.79865 1.101768,0.74286 2.120283,1.65139 3.179873,2.40381 0.371851,0.26407 0.767444,0.70392 0.48633,1.11338 -0.157636,0.52241 -0.72138,0.71255 -1.084145,1.06082 -0.304778,0.14926 -0.649684,0.0228 -0.97379,0.0386 L 46.04179,137.2225 c -0.598839,-2.08482 -1.197679,-4.16971 -1.796518,-6.25443 z"
     id="path3788" />
  <path
     style="fill:#ffffff;stroke:#000000;stroke-width:0.70580667"
     inkscape:connector-curvature="0"
     d="m 37.524627,126.44299 c 0.06406,-0.12586 -0.07411,-0.23316 -0.181508,-0.2588 -0.921055,-0.15337 -1.718597,0.48415 -2.447593,0.9537 -0.909368,0.4592 -1.574126,1.26736 -2.458597,1.76298 -1.736981,0.5996 -3.391286,1.49287 -5.168737,1.92912 -2.023821,0.49673 -2.624524,1.52336 -2.984479,3.33141 -0.149689,0.75211 0,1.59689 0,2.39535 l 0.06654,0.53229 3.726134,0.49905 6.254431,-0.53229 3.29359,-10.77921 -0.06654,-0.0416"
     id="path3774" />
  <path
     style="fill:#ffffff;stroke:#000000;stroke-width:0.70580667"
     inkscape:connector-curvature="0"
     d="m 21.42567,105.54061 c 2.487381,-2.98973 5.462615,0.39874 5.390393,3.61898 -0.06027,2.68824 1.769467,6.66544 -1.776768,7.70465 -3.340074,1.90632 1.611393,6.7655 -2.051107,7.58726 -2.858944,0.18132 -2.180634,-3.56226 -3.557266,-4.62169 -2.305354,-1.77411 0.170592,-4.21724 1.220554,-5.74231 1.094125,-1.58925 -6.746068,-1.2792 -4.914778,-5.45946 1.124038,-2.12916 4.515586,-1.15277 5.688998,-3.08743 z"
     id="path3635" />
  <path
     style="fill:#ffffff;stroke:#000000;stroke-width:0.70580667"
     inkscape:connector-curvature="0"
     d="m 57.641758,119.41775 c -2.473146,1.14636 -7.631641,2.41566 -7.205137,5.09547 0.419912,2.63833 3.905507,4.36878 6.099483,6.20873 1.753841,1.47065 4.851748,3.75109 6.73635,2.03294 3.139428,-2.86236 5.176878,-7.91765 3.943588,-12.14723 -1.104788,-3.78943 -6.663603,-0.92111 -5.423222,2.60364 0.881504,2.50472 -1.828479,5.29139 -3.747406,2.46829 -1.081388,-1.59078 4.798435,-8.67321 -0.403682,-6.26178 z"
     id="path3650" />
  <path
     style="fill:#ffffff;stroke:#000000;stroke-width:0.70580667"
     inkscape:connector-curvature="0"
     d="m 45.629257,117.22745 c 2.595977,2.91909 6.337684,-1.83157 7.49849,-4.69653 1.548074,-2.34929 1.137169,-5.59025 3.571447,-7.36376 2.395987,-2.49196 -3.298054,-4.39531 -4.750636,-2.71897 -1.789506,2.06529 0.676996,8.97812 -2.861045,6.16173 -3.538041,-2.8164 -7.451743,4.12716 -3.458256,8.6178 z"
     id="path3674" />
  <path
     style="fill:#ffffff;stroke:#000000;stroke-width:0.70580667"
     inkscape:connector-curvature="0"
     d="m 64.509421,96.08608 c -2.933529,0.50698 -2.524254,3.39286 -1.894818,5.49072 0.670746,2.23571 -4.373769,6.65362 -0.900124,7.65764 2.235943,0.64635 4.355385,1.30383 6.644694,1.08572 l -0.581716,-3.21979 -0.682223,-3.59929 -1.082123,-3.74031 -1.503638,-3.67466 z"
     id="path3692" />
  <path
     style="fill:#ffffff;stroke:#000000;stroke-width:0.70580667"
     inkscape:connector-curvature="0"
     d="m 41.322195,99.298 c -0.57389,3.95934 4.617223,3.96932 5.466555,0.6662 1.169236,-2.61977 2.414528,-6.00021 5.534574,-6.43223 3.304095,-0.45773 4.120861,-4.90086 0.39625,-5.143 -3.410458,-0.67587 -7.375318,-2.01405 -10.552564,0.0581 -2.669066,2.07782 -0.804633,5.58132 -0.768575,8.30212 0.01163,0.87728 0.06076,1.60281 -0.07635,2.54879 z"
     id="path3696" />
  <path
     style="fill:#ffffff;stroke:#000000;stroke-width:0.70580667"
     inkscape:connector-curvature="0"
     d="m 15.794974,96.63497 c 3.248681,1.29359 6.937522,0.61909 10.138404,-0.7629 2.885731,-1.24587 4.62694,-3.15151 6.376815,-5.53458 1.653755,-2.25227 1.587153,-4.41526 -1.492896,-3.83775 -2.813772,0.52762 -4.016335,2.8944 -6.356855,4.32991 -2.321927,1.42401 -1.949865,-1.58426 -2.613783,-2.54697 -0.539748,-0.78267 -1.882396,-0.52527 -2.820075,-0.77264 l 0.03173,-0.0501 -0.211721,0.30583 -0.282296,2.77596 -0.588124,1.69377 -0.541062,1.24679 -0.75279,1.45852 -0.88757,1.69431 h 3e-6 z"
     id="path3704" />
  <path
     style="fill:#ffffff;stroke:#000000;stroke-width:0.70580667"
     inkscape:connector-curvature="0"
     d="m 10.300844,121.85755 c 2.796439,0.1154 8.24566,2.6512 5.386191,5.85366 -1.475851,1.65291 -1.65814,4.07805 -2.553037,6.08766 l -0.791265,-0.26819 -1.59968,-1.21152 -1.1291854,-1.58791 -0.6233947,-1.75258 0.047049,-2.36421 1.2632561,-4.75694 z"
     id="path3715" />
  <path
     style="fill:none;stroke:#000000;stroke-width:1.60599995;stroke-miterlimit:4;stroke-dasharray:none"
     inkscape:connector-curvature="0"
     d="m 34.331098,137.03206 c 2.027812,-6.71718 4.055729,-13.43436 6.083463,-20.15127 1.837697,6.78047 3.675447,13.56094 5.513039,20.34141 4.114295,0.40379 8.242771,0.13474 12.353389,-0.2504 4.082517,-0.38252 7.907398,-1.8019 11.453896,-3.72272 2.958742,-1.63309 1.203456,-5.15009 1.033905,-7.72094 -1.217559,-7.4562 -2.11503,-14.98988 -3.821992,-22.34734 -0.945085,-4.07359 -2.670904,-7.92841 -4.40686,-11.7055 -1.018305,-2.21561 -0.664706,-5.8899 -0.894319,-7.48325 H 18.93217 c 0.02069,3.15886 0.11877,6.35029 -1.470205,9.27515 -2.361531,4.34724 -4.079103,9.09762 -4.70494,14.08987 -0.819524,6.53807 -2.053996,13.04278 -3.6720331,19.43772 -0.6396775,3.15335 1.4216721,6.0874 4.5555061,7.39055 5.98918,2.49051 12.613914,3.76579 19.050082,3.10607 0,0 1.096148,-0.15767 1.640308,-0.25967 z"
     id="path2830" />
  <path
     style="fill:#ffffff;stroke:#000000;stroke-width:0.70580667"
     inkscape:connector-curvature="0"
     d="m 36.915335,101.7588 c 0.56391,1.06547 -0.162092,2.40828 -0.03232,3.62213 0.128369,1.2006 0.686819,2.31681 0.810253,3.50343 0.164609,1.58266 -0.473593,2.80642 -1.736718,3.68333 -0.807994,0.6038 -1.672374,1.76245 -2.625942,1.51338 -1.430864,-0.37372 -0.159681,-3.30095 -0.172429,-4.50587 -0.132773,-1.06907 -0.05317,-2.1632 -0.184631,-3.23214 -0.110188,-0.89597 -0.367256,-1.77537 -0.458913,-2.6709 -0.08646,-0.84487 0.03426,-1.8741 0.803399,-2.40106 1.143735,-0.68164 2.965307,-0.7062 3.597447,0.48775 z"
     id="path3806" />
  <metadata
     id="metadata5721">
    <rdf:RDF>
      <cc:Work>
        <dc:format>image/svg+xml</dc:format>
        <dc:type
           rdf:resource="http://purl.org/dc/dcmitype/StillImage" />
        <cc:license
           rdf:resource="http://creativecommons.org/publicdomain/zero/1.0/" />
        <dc:publisher>
          <cc:Agent
             rdf:about="http://openclipart.org/">
            <dc:title>Openclipart</dc:title>
          </cc:Agent>
        </dc:publisher>
        <dc:title></dc:title>
        <dc:date>2010-06-08T06:53:50</dc:date>
        <dc:description>Black and white beach shorts.</dc:description>
        <dc:source>http://openclipart.org/detail/64969/beach-shorts-by-laobc</dc:source>
        <dc:creator>
          <cc:Agent>
            <dc:title>laobc</dc:title>
          </cc:Agent>
        </dc:creator>
        <dc:subject>
          <rdf:Bag>
            <rdf:li>beach</rdf:li>
            <rdf:li>black and white</rdf:li>
            <rdf:li>clip art</rdf:li>
            <rdf:li>clipart</rdf:li>
            <rdf:li>clothing</rdf:li>
            <rdf:li>coloring book</rdf:li>
            <rdf:li>line art</rdf:li>
            <rdf:li>summer</rdf:li>
            <rdf:li>summer2010</rdf:li>
          </rdf:Bag>
        </dc:subject>
      </cc:Work>
      <cc:License
         rdf:about="http://creativecommons.org/publicdomain/zero/1.0/">
        <cc:permits
           rdf:resource="http://creativecommons.org/ns#Reproduction" />
        <cc:permits
           rdf:resource="http://creativecommons.org/ns#Distribution" />
        <cc:permits
           rdf:resource="http://creativecommons.org/ns#DerivativeWorks" />
      </cc:License>
    </rdf:RDF>
  </metadata>
  <g
     id="g6327"
     transform="matrix(0.81429844,0,0,0.81429844,-4.388391,-33.645749)">
    <path
       d="m 44.331811,52.079295 c -0.412071,-0.0018 -2.128642,0.902617 -2.93792,1.548426 -0.458315,0.3657 -5.25281,2.19407 -8.547726,3.259471 -3.726617,1.205024 -4.795194,1.499261 -6.792979,1.877855 -3.127725,0.592818 -4.909915,1.965262 -6.352259,4.887301 -0.408488,0.827547 -0.893509,2.152781 -1.07592,2.945924 -0.182424,0.793092 -0.418652,1.532038 -0.524062,1.639645 -0.105422,0.107634 -0.190567,0.5777 -0.190567,1.048123 0,0.821207 -0.08738,0.99672 -1.337913,2.691833 -0.176174,0.238769 -0.393827,1.046496 -0.48436,1.798452 -0.119486,0.992502 -0.292572,1.508915 -0.639202,1.877854 -0.400968,0.426821 -0.508867,0.848624 -0.666987,2.628311 -0.204035,2.296469 -0.3005,2.692087 -1.707234,7.16611 -1.082768,3.443941 -1.969581,6.839732 -2.560722,9.782479 -0.451646,2.247938 -0.8259337,5.566101 -0.6868446,6.110111 0.048175,0.18833 0.4739926,0.48365 0.9448986,0.65507 0.470906,0.17142 1.375518,0.50019 2.008838,0.73051 3.547737,1.29002 4.683775,1.50866 8.277756,1.592 l 3.458043,0.0794 0.722569,0.72257 c 0.630195,0.63019 0.848332,0.72257 1.742933,0.72257 0.562709,0 1.024429,0.0659 1.024302,0.15086 -6.35e-4,0.41634 -1.101799,4.53424 -1.333975,4.99046 -0.419185,0.82365 -0.569937,3.4367 -0.293792,5.05399 0.370172,2.16815 0.322708,2.90793 -0.321589,5.04217 -0.682881,2.26191 -0.616385,3.00843 0.4923,5.53434 0.738615,1.68284 0.783259,2.51321 0.218365,3.94628 -0.470448,1.19354 -0.527999,2.2957 -0.154842,2.94986 0.175043,0.30681 0.295824,2.0533 0.381135,5.4947 0.126436,5.10036 0.496201,7.99407 1.095765,8.61125 0.199359,0.20521 0.542025,0.22434 1.4769,0.0754 1.374883,-0.219 5.979381,0.0181 7.602892,0.39306 0.566914,0.13092 2.146047,0.54835 3.505685,0.92504 2.476872,0.68625 6.073903,1.44577 7.618772,1.60788 0.453196,0.0476 2.82053,0.0619 5.256494,0.0318 3.58801,-0.0444 4.838135,-0.14193 6.590469,-0.50421 3.662713,-0.75728 5.497245,-1.33982 9.48875,-3.02126 4.391317,-1.85004 7.607466,-2.83019 10.13973,-3.08873 1.035469,-0.10572 1.44984,-0.23891 1.595942,-0.51214 0.262462,-0.49041 0.252312,-4.89861 -0.01588,-6.92396 -0.11739,-0.88627 -0.408526,-2.1801 -0.647143,-2.8744 l -0.432741,-1.25854 0.758295,-1.77075 c 1.464704,-3.41028 1.679029,-6.10325 0.607441,-7.6823 -0.399227,-0.58828 -0.489569,-0.91115 -0.385112,-1.39749 1.214412,-5.65415 1.406644,-10.39967 0.595524,-14.722 l -0.131009,-0.69478 1.417316,0.1588 c 2.560342,0.28935 3.651787,-10e-4 4.89124,-1.30615 0.445026,-0.46853 0.848674,-0.65817 1.647648,-0.76623 2.51829,-0.34061 5.829342,-1.2005 8.476328,-2.20348 2.459597,-0.93195 2.415127,-0.85443 1.754748,-3.033199 C 99.677951,98.309937 99.207452,96.682983 98.857964,95.43667 98.015082,92.430908 96.799069,88.51004 95.538908,84.740991 94.61637,81.98195 94.52411,81.543772 94.645616,80.496919 94.818067,79.011126 94.502791,77.83456 93.752335,77.165922 93.210577,76.683226 93.152606,76.495174 93.02579,74.712425 c -0.129866,-1.825639 -0.92818,-5.547046 -1.369675,-6.372078 -0.111228,-0.20782 -0.202484,-0.609067 -0.202484,-0.89328 0,-0.284213 -0.249403,-1.185014 -0.551846,-2.000962 -0.833684,-2.24908 -2.406236,-3.83092 -5.101627,-5.133387 -1.140865,-0.551313 -3.326042,-1.428877 -4.855539,-1.95332 -8.307993,-2.848607 -9.96949,-3.52779 -12.053412,-4.911058 -0.97403,-0.646546 -1.270579,-0.753124 -1.623764,-0.58362 -1.85702,0.891336 -7.1872,1.683348 -11.334844,1.683348 -4.154123,-4.7e-5 -7.066888,-0.573761 -10.107969,-1.989019 -0.566507,-0.263632 -1.239554,-0.479278 -1.492781,-0.480383 z"
       id="path3072"
       inkscape:connector-curvature="0"
       style="fill:#ffffff;stroke-width:0.12704518" />
    <path
       d="m 44.331811,52.079295 c -0.412071,-0.0018 -2.128642,0.902617 -2.93792,1.548426 -0.458315,0.3657 -5.25281,2.19407 -8.547726,3.259471 -3.726617,1.205024 -4.795194,1.499261 -6.792979,1.877855 -3.127725,0.592818 -4.909915,1.965262 -6.352259,4.887301 -0.408488,0.827547 -0.893509,2.152781 -1.07592,2.945924 -0.182424,0.793092 -0.418652,1.532038 -0.524062,1.639645 -0.105422,0.107634 -0.190567,0.5777 -0.190567,1.048123 0,0.821207 -0.08738,0.99672 -1.337913,2.691833 -0.176174,0.238769 -0.393827,1.046496 -0.48436,1.798452 -0.119486,0.992502 -0.292572,1.508915 -0.639202,1.877854 -0.400968,0.426821 -0.508867,0.848624 -0.666987,2.628311 -0.204035,2.296469 -0.3005,2.692087 -1.707234,7.16611 -1.082768,3.443941 -1.969581,6.839732 -2.560722,9.782479 -0.451646,2.247938 -0.8259337,5.566101 -0.6868446,6.110111 0.048175,0.18833 0.4739926,0.48365 0.9448986,0.65507 0.470906,0.17142 1.375518,0.50019 2.008838,0.73051 3.547737,1.29002 4.683775,1.50866 8.277756,1.592 l 3.458043,0.0794 0.722569,0.72257 c 0.630195,0.63019 0.848332,0.72257 1.742933,0.72257 0.562709,0 1.024429,0.0659 1.024302,0.15086 -6.35e-4,0.41634 -1.101799,4.53424 -1.333975,4.99046 -0.419185,0.82365 -0.569937,3.4367 -0.293792,5.05399 0.370172,2.16815 0.322708,2.90793 -0.321589,5.04217 -0.682881,2.26191 -0.616385,3.00843 0.4923,5.53434 0.738615,1.68284 0.783259,2.51321 0.218365,3.94628 -0.470448,1.19354 -0.527999,2.2957 -0.154842,2.94986 0.175043,0.30681 0.295824,2.0533 0.381135,5.4947 0.126436,5.10036 0.496201,7.99407 1.095765,8.61125 0.199359,0.20521 0.542025,0.22434 1.4769,0.0754 1.374883,-0.219 5.979381,0.0181 7.602892,0.39306 0.566914,0.13092 2.146047,0.54835 3.505685,0.92504 2.476872,0.68625 6.073903,1.44577 7.618772,1.60788 0.453196,0.0476 2.82053,0.0619 5.256494,0.0318 3.58801,-0.0444 4.838135,-0.14193 6.590469,-0.50421 3.662713,-0.75728 5.497245,-1.33982 9.48875,-3.02126 4.391317,-1.85004 7.607466,-2.83019 10.13973,-3.08873 1.035469,-0.10572 1.44984,-0.23891 1.595942,-0.51214 0.262462,-0.49041 0.252312,-4.89861 -0.01588,-6.92396 -0.11739,-0.88627 -0.408526,-2.1801 -0.647143,-2.8744 l -0.432741,-1.25854 0.758295,-1.77075 c 1.464704,-3.41028 1.679029,-6.10325 0.607441,-7.6823 -0.399227,-0.58828 -0.489569,-0.91115 -0.385112,-1.39749 1.214412,-5.65415 1.406644,-10.39967 0.595524,-14.722 l -0.131009,-0.69478 1.417316,0.1588 c 2.560342,0.28935 3.651787,-10e-4 4.89124,-1.30615 0.445026,-0.46853 0.848674,-0.65817 1.647648,-0.76623 2.51829,-0.34061 5.829342,-1.2005 8.476328,-2.20348 2.459597,-0.93195 2.415127,-0.85443 1.754748,-3.033199 C 99.677951,98.309937 99.207452,96.682983 98.857964,95.43667 98.015082,92.430908 96.799069,88.51004 95.538908,84.740991 94.61637,81.98195 94.52411,81.543772 94.645616,80.496919 94.818067,79.011126 94.502791,77.83456 93.752335,77.165922 93.210577,76.683226 93.152606,76.495174 93.02579,74.712425 c -0.129866,-1.825639 -0.92818,-5.547046 -1.369675,-6.372078 -0.111228,-0.20782 -0.202484,-0.609067 -0.202484,-0.89328 0,-0.284213 -0.249403,-1.185014 -0.551846,-2.000962 -0.833684,-2.24908 -2.406236,-3.83092 -5.101627,-5.133387 -1.140865,-0.551313 -3.326042,-1.428877 -4.855539,-1.95332 -8.307993,-2.848607 -9.96949,-3.52779 -12.053412,-4.911058 -0.97403,-0.646546 -1.270579,-0.753124 -1.623764,-0.58362 -1.85702,0.891336 -7.1872,1.683348 -11.334844,1.683348 -4.154123,-4.7e-5 -7.066888,-0.573761 -10.107969,-1.989019 -0.566507,-0.263632 -1.239554,-0.479278 -1.492781,-0.480383 z M 44.0539,52.901124 c 0.11913,0 0.402263,0.36091 0.627286,0.801973 0.742528,1.45543 2.935378,4.165049 4.244071,5.244552 2.563009,2.114032 5.556067,3.116418 7.856982,2.628311 2.48602,-0.527479 4.647059,-1.629863 6.82474,-3.477862 1.076835,-0.913798 3.111336,-3.169142 3.763713,-4.168606 l 0.333494,-0.504217 0.853591,0.563763 c 0.469394,0.310625 0.853579,0.659263 0.853579,0.774188 0,0.489949 -1.292685,2.704156 -2.358213,4.041561 -2.183144,2.74011 -5.032641,4.406054 -8.766117,5.125511 -4.527764,0.872444 -8.733467,-0.460006 -12.33126,-3.910578 -1.928673,-1.849778 -3.942339,-4.788206 -3.942339,-5.752733 0,-0.289841 1.607884,-1.365736 2.0406,-1.365736 z m 26.683299,2.469505 c 0.03115,0 0.696538,0.266058 1.4769,0.587584 0.78035,0.321526 1.976188,0.775725 2.656007,1.012397 0.679781,0.23666 2.986197,1.036359 5.125511,1.778633 4.578835,1.5887 6.885721,2.661469 8.178533,3.799413 0.999363,0.879673 2.059402,2.659564 2.441681,4.097207 0.261243,0.98244 0.18217,1.197464 -1.298274,3.545323 l -0.833734,1.322032 -0.285852,-0.706689 c -0.445331,-1.101723 -0.840201,-1.42532 -1.722987,-1.42532 -0.632151,0 -0.954719,0.155186 -1.611949,0.774188 -0.947452,0.892442 -1.141094,1.498371 -1.854097,5.816256 -0.252566,1.529496 -0.49568,2.819259 -0.539942,2.866393 -0.04429,0.04721 -0.0794,-1.184493 -0.0794,-2.739348 0,-4.867228 -0.841572,-9.397405 -1.742932,-9.397405 -0.515435,0 -0.762729,4.162254 -0.472443,7.932447 0.121379,1.57663 0.253747,3.205096 0.460538,5.665452 0.492135,5.855513 0.303626,11.79894 -0.528037,16.682303 -0.642226,3.771205 -0.805276,4.344185 -4.315598,14.916375 -1.583872,4.76991 -2.972095,8.95808 -3.084784,9.30606 -0.247497,0.76416 -0.270721,1.73493 -0.0397,1.73493 0.424191,0 1.562402,-1.56876 4.335417,-5.97506 l 0.452598,-0.7186 -0.138949,0.61538 c -0.226839,0.99196 -1.181241,3.66107 -2.612303,7.31298 -1.535341,3.91769 -2.413604,5.83785 -3.374574,7.36862 -0.75212,1.19786 -0.842043,1.64727 -0.365255,1.83021 0.559609,0.21475 1.142937,-0.58609 2.576604,-3.53338 1.624907,-3.3404 2.70657,-6.06945 5.026161,-12.66882 0.37834,-1.07634 0.753581,-2.11695 0.833734,-2.31463 0.175437,-0.43259 0.516134,-0.27868 0.516121,0.23424 0,0.20181 0.293754,0.95235 0.651107,1.66747 0.705939,1.41274 0.705926,1.45149 -0.02382,5.05005 -0.362956,1.78981 -4.601577,9.70714 -7.976024,14.90367 -1.146672,1.76593 -1.299291,2.39798 -0.579644,2.39798 0.285077,0 0.763224,-0.53091 1.572185,-1.75081 1.670008,-2.51829 4.524841,-7.4634 6.205394,-10.74726 0.79726,-1.55796 1.521747,-2.78877 1.607884,-2.73541 0.321081,0.19844 0.422832,1.76326 0.190568,2.9181 -0.485834,2.41551 -1.750302,5.43982 -2.862455,6.8565 -1.517682,1.93299 -3.20103,3.72547 -4.279898,4.55774 -0.813813,0.62786 -1.100834,0.98241 -1.056063,1.29434 0.03384,0.23573 0.203043,0.45595 0.373195,0.48834 0.470817,0.0896 2.789658,-1.95231 4.629272,-4.07333 l 1.643711,-1.8978 0.23821,0.58759 c 0.379788,0.95055 0.737573,4.55203 0.663023,6.66593 l -0.0675,1.95726 -0.619345,0.0556 c -2.714702,0.24195 -6.654627,1.42583 -11.12433,3.34281 -2.980861,1.27846 -6.234743,2.28872 -9.278237,2.87834 -2.537854,0.49163 -8.741979,0.72097 -11.426189,0.42481 -2.162309,-0.23859 -5.515794,-0.94524 -7.825221,-1.65158 -2.580161,-0.78917 -5.06148,-1.2392 -6.872382,-1.24266 -0.80891,-0.002 -1.65921,-0.0539 -1.885859,-0.11513 -0.522028,-0.14105 -3.342813,-5.65237 -3.096726,-6.05053 0.241881,-0.39136 1.566467,-0.17517 5.466881,0.89726 2.78699,0.76627 7.270923,1.89183 8.960624,2.24717 1.391398,0.29256 2.436853,0.49789 4.843597,0.94888 2.765266,0.51816 10.781689,1.25495 13.593834,1.2506 2.009982,-0.003 6.45542,-0.528 7.019247,-0.82975 0.33301,-0.17824 0.382939,-0.29596 0.202484,-0.47642 -0.277505,-0.2775 -2.677223,-0.22935 -3.739956,0.0754 -0.944898,0.27099 -3.052895,0.25363 -4.252075,-0.0357 -3.235714,-0.78081 -9.420908,-3.09101 -13.926693,-5.20098 -1.115139,-0.52209 -2.064992,-0.94887 -2.112126,-0.94887 -0.189145,0 -4.131001,-2.34221 -5.510584,-3.27535 -2.261023,-1.52925 -4.738786,-4.2597 -6.288737,-6.92397 -0.724056,-1.24462 -1.809123,-3.1013 -2.40992,-4.12503 -2.616241,-4.45776 -3.372033,-7.71405 -1.790575,-7.71405 0.44659,0 0.950209,0.39045 2.322513,1.80645 1.453016,1.49926 2.045174,2.33357 3.477862,4.89124 2.196611,3.92125 4.026443,6.67686 5.772679,8.69866 1.465593,1.69694 2.286813,2.13919 2.286813,1.23075 0,-0.27357 -0.200286,-0.67348 -0.440694,-0.88932 -0.533043,-0.47856 -2.239171,-2.67214 -2.239171,-2.87833 0,-0.0817 0.485058,0.31164 1.079884,0.87343 4.913853,4.64109 13.052622,8.51 20.652464,9.81818 5.071771,0.87307 5.459005,0.90235 5.459005,0.44466 0,-0.16995 -0.04847,-0.30967 -0.107201,-0.30967 -0.380589,0 -3.419675,-0.91583 -4.200368,-1.26649 -2.393785,-1.0752 -4.276214,-2.10654 -4.65303,-2.54878 -0.226597,-0.26596 -1.060967,-0.91756 -1.854097,-1.44908 -7.517644,-5.03848 -16.430753,-15.28735 -21.125073,-24.29358 -0.708734,-1.35964 -1.491637,-2.67239 -1.742932,-2.9181 -0.938585,-0.91744 -2.844796,-7.90361 -3.783533,-13.872062 -1.307803,-8.314345 -1.54525,-18.656585 -0.678891,-29.450343 0.127731,-1.591368 0.185206,-1.766945 0.65507,-1.993085 0.283247,-0.136307 2.875541,-1.013935 5.764675,-1.949381 2.889135,-0.935409 5.639282,-1.869216 6.110111,-2.076427 0.470791,-0.207198 0.983101,-0.325998 1.135466,-0.26203 0.15234,0.06397 0.674953,0.617706 1.163251,1.226773 1.080304,1.347568 3.222883,3.11032 4.847536,3.989981 2.670617,1.446028 6.024229,2.077443 8.932801,1.67941 5.354319,-0.732822 9.325879,-3.448895 12.144757,-8.297574 0.510468,-0.878073 0.953461,-1.596069 0.9846,-1.595942 z m -45.966216,9.818178 c 0.288545,-0.05082 0.301897,0.311693 0.0079,1.06004 -0.363362,0.925041 -0.841535,1.115787 -1.326098,0.532001 -0.238298,-0.287122 -0.167496,-0.425271 0.512157,-1.048122 0.361762,-0.331537 0.632813,-0.513428 0.805937,-0.543906 z m -2.104123,2.540904 c 0.09054,0 0.409022,0.212445 0.706689,0.468479 l 0.539942,0.464502 -0.313636,1.337913 c -0.172261,0.735325 -0.365179,1.683349 -0.432754,2.108188 -0.06759,0.424877 -0.195929,0.774188 -0.281875,0.774188 -0.194126,0 -1.472962,-1.306533 -1.472962,-1.504723 0,-0.07958 0.128023,-0.142926 0.285851,-0.142926 0.39149,0 0.548149,-0.477372 0.686845,-2.112126 0.06489,-0.764761 0.19133,-1.393559 0.281875,-1.393559 z m 68.576448,1.854097 c 0.270288,0 0.830621,2.633774 1.107668,5.200976 0.238134,2.20652 0.305061,2.440665 0.80595,2.834632 0.709331,0.557957 0.964959,1.522128 0.75433,2.854578 -0.148147,0.93725 -0.08072,1.316823 0.559787,3.172191 1.871883,5.422161 4.430192,14.006731 4.232129,14.193488 -0.210908,0.198762 -1.967295,0.711186 -5.58605,1.631768 -1.746617,0.44429 -3.298855,0.809909 -3.450039,0.809909 -0.336352,0 -0.352156,-1.033483 -0.0794,-5.288252 0.107696,-1.680172 0.243571,-7.670098 0.301732,-13.307982 l 0.107201,-10.251022 0.539942,-0.925041 c 0.298086,-0.508651 0.616347,-0.925042 0.706689,-0.925042 z m -4.795956,1.071944 c 0.528228,0.0038 0.676325,0.328297 0.651107,1.195012 -0.01776,0.610249 -0.225112,0.91033 -1.345917,1.949381 l -1.322032,1.226774 0.131009,-0.917114 c 0.07193,-0.505207 0.204771,-1.196549 0.297768,-1.536484 0.09297,-0.339897 0.226064,-0.868557 0.293792,-1.175168 0.09758,-0.441711 0.277657,-0.588473 0.865495,-0.698748 0.164702,-0.0309 0.306865,-0.04454 0.428778,-0.04367 z m -65.702685,2.247175 c 0.143942,-0.0011 0.44321,0.22595 1.032242,0.754331 l 1.087824,0.97666 -0.23821,0.821829 c -0.244917,0.853846 -0.174204,5.168198 0.214389,13.184749 0.104342,2.152654 0.28791,6.2585 0.404957,9.123369 0.117046,2.864865 0.265524,5.291935 0.329529,5.395485 0.06399,0.10354 -0.06751,0.28598 -0.289828,0.40495 -0.986798,0.52812 -6.900078,-0.0662 -7.467842,-0.75035 -0.133436,-0.16076 -0.238083,-0.72641 -0.234246,-1.25854 0.0042,-0.58067 -0.121176,-1.11331 -0.309673,-1.33003 -0.267303,-0.307299 -0.27518,-0.490066 -0.05558,-1.234729 0.538481,-1.825893 2.06423,-3.638193 4.196429,-4.986523 0.657954,-0.416061 1.247762,-0.88952 1.31009,-1.052087 0.272448,-0.709992 -0.239595,-1.509424 -2.195468,-3.414339 l -2.040599,-1.985081 0.214388,-0.794032 c 0.118343,-0.437404 0.484703,-1.760974 0.81389,-2.941859 0.329174,-1.180961 0.599488,-2.38883 0.599488,-2.683829 0,-0.784606 0.543918,-1.434848 1.568246,-1.873916 1.006782,-0.43156 1.124807,-0.815681 0.579643,-1.869978 -0.291162,-0.563052 -0.289218,-0.784936 -0.004,-2.306633 0.17362,-0.926261 0.341281,-1.844442 0.373195,-2.040599 0.01431,-0.0879 0.04574,-0.138416 0.111165,-0.138962 z m 67.901837,0.627286 c 0.01384,-3.82e-4 0.02859,0.0048 0.0397,0.01588 0.175347,0.175348 -0.350785,26.862437 -0.543919,27.592947 -0.220106,0.83222 -1.079592,1.66797 -2.199406,2.13588 -0.396699,0.16576 -0.89948,0.30173 -1.119586,0.30173 -0.390803,0 -0.398032,-0.15615 -0.26203,-6.542825 0.118533,-5.566739 0.199905,-6.768205 0.547882,-8.08325 0.626739,-2.368376 0.902999,-3.495013 1.187085,-4.843597 0.143192,-0.679793 0.330927,-1.514125 0.420837,-1.854097 0.0899,-0.339897 0.317105,-1.496339 0.504204,-2.572665 0.1871,-1.07634 0.429451,-2.347795 0.535978,-2.822817 0.106528,-0.475048 0.194532,-1.148717 0.194532,-1.500658 0,-0.576683 0.487155,-1.819922 0.694785,-1.826274 z m -1.67941,0.690808 -0.115129,0.619345 c -0.0638,0.339897 -0.174598,1.034542 -0.24615,1.544361 -0.234474,1.670517 -1.678648,8.650252 -1.81827,8.790002 -0.04419,0.04419 -0.13618,-0.204479 -0.206449,-0.555823 -0.07028,-0.351343 -0.220652,-0.581892 -0.333493,-0.512144 -0.112842,0.06973 -0.292141,0.423454 -0.397016,0.786092 -0.252249,0.872267 -0.279652,-3.458424 -0.03574,-5.562165 0.150066,-1.294336 0.288951,-1.651841 1.099741,-2.783052 0.511268,-0.713371 1.184036,-1.527083 1.492781,-1.810394 l 0.559786,-0.516121 z m 12.009708,24.893232 c 0.182221,-0.01404 0.306623,0.123975 0.381135,0.420837 0.06933,0.276184 0.179833,0.64107 0.24615,0.81388 0.07977,0.20787 -0.08215,0.41941 -0.476419,0.62331 -0.986633,0.5102 -4.344818,1.57066 -6.645988,2.10018 -2.481192,0.57097 -3.295297,0.62676 -3.295297,0.22233 0,-0.15413 0.05747,-0.69548 0.127045,-1.20297 0.113985,-0.8316 0.171689,-0.91304 0.607428,-0.82975 0.45049,0.0861 2.902601,-0.36352 4.311659,-0.79007 0.339897,-0.1029 1.453778,-0.42282 2.473443,-0.714631 1.01969,-0.29181 2.006425,-0.57798 2.191529,-0.631262 0.02842,-0.0082 0.05336,-0.0099 0.0794,-0.0119 z m -73.574405,0.162771 c 0.0043,-0.0019 0.0069,-6.36e-4 0.0119,0.004 0.07949,0.07321 0.469991,1.276176 0.869472,2.675826 0.399481,1.39966 0.77791,2.70784 0.837698,2.90616 0.07727,0.25616 -0.008,0.36129 -0.289816,0.36129 -0.732491,0 -1.129749,-0.48756 -1.183108,-1.45314 -0.02783,-0.50352 -0.123945,-1.75145 -0.214389,-2.77111 -0.0848,-0.95596 -0.09596,-1.694531 -0.03176,-1.722989 z m 62.45414,4.466396 c 0.06144,-0.009 0.09528,-0.002 0.09528,0.0238 0,0.33018 -1.061335,1.46331 -1.66353,1.7747 -0.697071,0.36046 -1.75678,0.39441 -1.961323,0.0635 -0.162326,-0.26266 0.445751,-0.79403 0.909161,-0.79403 0.162605,0 0.839197,-0.2772 1.504723,-0.61538 0.499109,-0.25364 0.931279,-0.42601 1.115609,-0.4526 z m -59.659146,4.89518 c 0.04994,0.004 0.100035,0.11341 0.174687,0.29379 0.331436,0.80097 1.033945,2.72982 1.179132,3.24359 0.07202,0.25493 0.09949,0.46106 0.06352,0.45658 -0.03595,-0.004 -0.512398,-0.42105 -1.060026,-0.92504 l -0.996517,-0.91712 0.301732,-1.18708 c 0.175716,-0.69294 0.25423,-0.97177 0.33747,-0.96476 z m 3.422343,5.16922 c 0.07808,0.0264 0.443985,0.57693 0.925041,1.40537 2.821928,4.86011 5.580968,8.10688 9.468805,11.14034 2.22202,1.73366 3.914516,3.38702 3.914516,3.82723 0,0.80041 -1.864388,0.16557 -4.474404,-1.52454 -2.077443,-1.34528 -3.084784,-2.47941 -4.926939,-5.53434 -0.914611,-1.51679 -2.054067,-3.38906 -2.528962,-4.16073 -0.835131,-1.35697 -2.085573,-4.02924 -2.382097,-5.08575 -0.0149,-0.0531 -0.01405,-0.0736 0.004,-0.0675 z m -5.280252,9.02808 0.389076,0.92902 c 2.282748,5.45227 5.12729,10.03555 7.309036,11.77556 0.897689,0.71594 6.612067,3.67008 7.102588,3.67237 0.204861,8.9e-4 2.921404,1.11609 3.688249,1.5126 0.336784,0.17415 0.73413,0.46177 0.881376,0.63919 0.386725,0.46596 0.08832,0.3993 -3.076907,-0.65507 -2.440538,-0.81299 -8.120728,-3.20865 -11.898544,-5.02222 -1.387333,-0.666 -2.646859,-1.21091 -2.798932,-1.2109 -0.152162,0 -0.449346,-0.51475 -0.663024,-1.1434 -0.387754,-1.14079 -0.389711,-1.14681 0.0675,-2.42174 0.635314,-1.77164 0.593529,-2.89739 -0.166747,-4.52204 -0.343429,-0.73389 -0.668626,-1.83149 -0.726546,-2.44169 l -0.107188,-1.11164 z m 1.326098,12.66882 c 0.05034,0 1.28341,0.58289 2.739348,1.29434 1.456065,0.71137 3.342813,1.63367 4.192491,2.0486 1.78562,0.87181 1.756146,0.88296 -0.722569,0.26997 -2.791183,-0.69025 -4.499941,-0.9781 -5.38354,-0.90123 l -0.794032,0.0715 -0.06352,-1.39356 c -0.0335,-0.76473 -0.0186,-1.38962 0.03176,-1.38962 z"
       id="path1951"
       inkscape:connector-curvature="0"
       style="fill-opacity:0.07106598;stroke-width:0.12704518" />
    <path
       style="stroke-width:0.12704518"
       d="m 44.577008,50.881259 c -0.04322,-0.002 -0.08787,10e-4 -0.134985,0.004 -0.0028,-5.8e-5 -0.0051,1.3e-5 -0.0079,0 -0.03623,-1.27e-4 -0.07875,0.0076 -0.123075,0.01588 -0.005,8.89e-4 -0.0108,-10e-4 -0.01588,0 -0.566075,0.0896 -1.409058,0.49601 -2.834632,1.333974 -2.679764,1.575107 -11.084184,4.547837 -15.174276,5.367659 -2.363295,0.473777 -3.877419,1.093249 -5.125511,2.096246 -0.952178,0.765193 -2.390355,2.855975 -3.0252,4.398939 -0.651475,1.58311 -1.496719,4.521157 -1.496719,5.19691 0,0.373958 -0.269654,0.951416 -0.702713,1.5126 -0.732809,0.949701 -1.14939,2.110221 -1.151346,3.203952 -6.36e-4,0.354342 -0.130298,0.752959 -0.289816,0.885353 -0.629102,0.522118 -0.970612,1.691734 -1.056063,3.616849 -0.06869,1.54741 -0.25653,2.459341 -0.909161,4.474404 -1.834151,5.663166 -3.1057462,10.567618 -3.4104005,13.141554 -0.043353,0.366271 -0.1115101,1.325589 -0.1707233,2.389974 -0.0026,0.04682 -0.00537,0.08778 -0.00794,0.134985 -0.030844,0.466091 -0.060114,0.929132 -0.075433,1.353802 -0.017689,0.49038 -0.026288,0.87344 -0.031761,1.19898 -0.012458,0.74092 0.010931,1.11955 0.095284,1.33792 0.00138,0.005 0.00255,0.0111 0.00397,0.0159 0.135354,0.45867 0.4260079,0.56906 0.9726961,0.68287 0.3603897,0.075 1.1634287,0.35083 1.7865097,0.6114 1.157293,0.48392 3.287294,1.14674 4.946885,1.54436 0.509845,0.12217 2.360881,0.27627 4.117026,0.34144 2.985308,0.11078 3.229108,0.1495 3.716072,0.60346 0.286461,0.26704 0.829884,0.59511 1.206929,0.72655 0.202523,0.0706 0.344394,0.12028 0.440694,0.18262 0.0014,8.9e-4 0.0025,0.003 0.004,0.004 0.0583,0.0451 0.102527,0.10036 0.138962,0.16277 0.05419,0.13746 0.02651,0.34226 -0.03176,0.70669 -0.07197,0.45009 -0.323953,1.34185 -0.559787,1.98114 -0.235834,0.63929 -0.514393,1.71816 -0.623309,2.39798 -0.217272,1.35595 -0.07575,4.10381 0.273935,5.27631 0.183644,0.61572 0.150803,0.9397 -0.186604,1.8541 -1.080062,2.92699 -1.031937,4.91728 0.174687,7.46784 0.707718,1.49596 0.737891,2.03692 0.186604,3.32299 -0.464642,1.08397 -0.540094,2.78852 -0.154842,3.46592 0.17456,0.30693 0.295468,2.08507 0.381135,5.59787 0.105994,4.34672 0.195154,5.45151 0.587584,7.07883 0.371556,1.54068 0.509654,2.20144 1.202965,2.4615 0.0041,0.002 0.0078,0.002 0.0119,0.004 0.196094,0.0974 0.431801,0.13628 0.722569,0.13101 0.542864,0.037 1.279218,0.004 2.330517,-0.0357 3.735128,-0.14167 5.714746,0.10285 9.48875,1.16723 2.852164,0.80441 4.178262,1.085 6.645988,1.41731 0.233039,0.0314 0.66174,0.0632 1.195012,0.0913 0.12998,0.0282 0.221948,0.0552 0.23821,0.0715 0.06677,0.0668 1.448061,0.0698 3.231775,0.0397 0.01598,2.6e-4 0.03163,-2.5e-4 0.04764,0 0.317333,0.005 0.636839,0.006 0.952839,0.008 7.358838,0.0511 10.533062,-0.5671 17.508096,-3.41434 5.429784,-2.2163 7.303827,-2.77784 10.437524,-3.12848 0.909847,-0.1018 1.747252,-0.27436 1.858036,-0.3851 0.909707,-0.90972 0.675041,-9.06557 -0.32953,-11.46977 -0.287351,-0.68772 -0.270962,-0.80722 0.281888,-2.14782 1.033411,-2.5061 1.32381,-3.73361 1.322032,-5.58605 -0.0014,-1.42012 -0.08977,-1.92448 -0.472443,-2.66401 -0.520288,-1.00535 -0.515219,-1.23958 0.111164,-4.44265 0.274456,-1.40347 0.367352,-2.94262 0.377159,-6.32443 l 0.01192,-4.45446 0.198508,-0.0119 h 1.064004 c 1.503452,1e-5 2.59566,-0.4124 3.577084,-1.35379 0.639965,-0.61383 0.978845,-0.74189 3.021261,-1.12753 4.069766,-0.7684 8.978408,-2.4338 9.814238,-3.33099 0.10186,-0.10934 0.17604,-0.19945 0.22629,-0.3057 10e-4,-0.003 0.003,-0.005 0.004,-0.008 0.0807,-0.12184 0.1191,-0.24324 0.1191,-0.36525 0,-0.0981 -0.0443,-0.33671 -0.11514,-0.65507 -0.0552,-0.346 -0.14342,-0.795439 -0.26997,-1.429267 C 100.74713,97.436172 97.921234,88.112454 96.442682,83.8741 95.814723,82.073869 95.740884,81.654874 95.855098,80.566986 96.013053,79.06239 95.736806,77.933213 94.949901,76.846977 94.495829,76.220161 94.336489,75.718078 94.231296,74.599801 93.981233,71.941762 92.398034,65.729253 91.539462,64.039171 89.970708,60.950702 87.626344,59.528559 79.50587,56.746015 73.685168,54.751406 71.341184,53.785354 69.739272,52.712331 68.914825,52.160103 68.073836,51.64416 67.869294,51.568924 c -0.212712,-0.07826 -0.873169,0.07357 -1.544362,0.353338 -2.313873,0.964464 -6.204378,1.551222 -10.342239,1.560242 -4.421935,0.0096 -6.837445,-0.540526 -11.060935,-2.517019 -0.102866,-0.04814 -0.215748,-0.07726 -0.34541,-0.08337 z m -0.397016,1.786509 c 0.0015,6.35e-4 0.0024,-7.62e-4 0.004,0 0.0013,6.35e-4 0.0026,0.0033 0.004,0.004 l 0.9846,1.691225 c 1.244052,2.141093 4.186266,5.126019 5.975062,6.066407 0.68194,0.358497 1.932357,0.81187 2.779113,1.004445 1.33245,0.303066 1.718032,0.313446 2.878336,0.08734 1.633547,-0.318325 3.466809,-1.118138 5.077869,-2.219353 1.193157,-0.815515 4.219297,-3.80856 5.244552,-5.184968 l 0.532001,-0.710665 0.956816,0.607429 c 0.593885,0.375215 0.96055,0.757951 0.960779,1.00048 5.08e-4,0.560486 -1.242565,2.692469 -2.40992,4.132907 -2.191275,2.70403 -5.038358,4.418631 -8.559669,5.153207 C 52.303223,65.615361 45.610737,62.196449 42.448582,56.046191 41.540781,54.28039 41.568401,54.16732 43.13145,53.267078 l 1.048123,-0.599501 z m 1.635707,0.865495 c 0.177342,0.01062 0.802837,0.196564 1.5126,0.452599 2.561612,0.924037 3.727378,1.177022 6.777098,1.23075 1.18401,0.123432 1.941886,0.123436 3.39452,0 3.346243,-0.0598 5.525449,-0.326494 7.543308,-0.905197 0.383473,-0.109979 0.733622,-0.163622 0.778151,-0.119105 0.04452,0.04451 -0.506008,0.699435 -1.222809,1.453143 -1.320762,1.388731 -1.403977,1.429512 -3.775656,1.9692 -1.25325,0.285216 -6.397106,0.407053 -8.118949,0.190568 -0.839845,-0.105592 -2.280207,-0.424941 -3.203953,-0.706689 -1.674836,-0.510874 -1.684746,-0.513199 -2.75129,-1.989019 -0.588207,-0.813928 -1.028075,-1.520731 -0.980637,-1.568246 0.0059,-0.0059 0.02231,-0.0095 0.04764,-0.0079 z m -5.093749,1.202966 c 0.0015,1.27e-4 0.0024,0.0037 0.004,0.004 l 0.8774,1.683349 c 0.70134,1.348076 1.336388,2.151383 3.148306,3.9741 1.849651,1.860704 2.575841,2.43876 3.918582,3.120484 4.08031,2.071726 7.895477,2.382478 12.089111,0.9846 3.810085,-1.270058 7.11326,-4.196048 9.135311,-8.095192 0.408056,-0.786803 0.660381,-1.070889 0.897256,-0.996517 0.181751,0.05708 1.214438,0.448597 2.290752,0.865496 1.076339,0.416898 3.937511,1.439421 6.360263,2.274871 8.062795,2.780383 9.966821,4.108514 11.152153,7.777578 l 0.400992,1.234727 c 0.0026,0.04316 0.0042,0.08768 0.004,0.127045 -1.27e-4,0.02962 -0.0071,0.0649 -0.01588,0.107195 l -0.909161,1.627703 c -0.531138,0.946257 -1.185154,1.986986 -1.453143,2.314636 -0.474145,0.579834 -0.489073,0.584153 -0.496276,0.123075 -0.0083,-0.53171 -0.559596,-1.714094 -0.909161,-1.945316 -0.361418,-0.239112 -1.463179,-0.180531 -1.734929,0.09131 -0.517785,0.517772 -0.281913,0.793638 0.559799,0.659047 0.675512,-0.108018 0.838752,-0.06031 1.028266,0.293791 0.338689,0.632838 0.29139,2.096246 -0.06749,2.096246 -0.160928,0 -0.845549,0.609868 -1.520604,1.357859 -0.675029,0.747928 -1.277185,1.281378 -1.337912,1.183108 -0.108395,-0.175399 0.05075,-1.110883 0.571703,-3.366697 0.143904,-0.623144 0.216447,-1.205888 0.16277,-1.298275 -0.232734,-0.400497 -0.812339,0.56262 -1.056063,1.754748 -0.622165,3.043494 -0.716662,3.638066 -0.97666,6.106046 -0.114975,1.091508 -0.459509,9.426498 -0.698748,16.921147 -0.113922,3.568953 -0.277213,7.092677 -0.365255,7.829157 -0.0916,0.76625 -0.920303,3.58445 -1.937439,6.59047 -0.977587,2.88913 -2.076808,6.17998 -2.441681,7.31297 -1.601786,4.97408 -4.399702,11.83274 -5.772679,14.15029 -0.448139,0.75625 -0.813877,1.43168 -0.813877,1.50473 0,0.073 0.197276,0.10369 0.440682,0.0675 0.978489,-0.14554 3.813261,-6.49773 6.967665,-15.61893 0.254688,-0.73645 0.772969,-2.12572 1.151347,-3.08873 0.378379,-0.96304 0.98225,-2.6062 1.341852,-3.65255 0.359677,-1.04629 0.734029,-1.85219 0.833734,-1.79057 0.254179,0.1571 0.225746,5.7817 -0.0397,7.90462 -0.591484,4.73053 -0.981729,6.09957 -2.691833,9.44099 -1.661497,3.24664 -3.582801,6.60787 -5.895659,10.31047 -0.908576,1.45454 -1.26382,2.19814 -1.119586,2.34246 0.116158,0.11615 0.307361,0.152 0.424814,0.0794 0.537808,-0.33238 5.476537,-8.76472 7.602892,-12.97894 1.215898,-2.40954 1.371198,-2.62437 1.623764,-2.27894 0.464541,0.63531 0.436375,2.62666 -0.05955,4.4227 -0.522346,1.89183 -1.735818,4.57071 -2.612303,5.76861 -0.456016,0.62315 -1.838344,2.12966 -3.072969,3.34688 -2.149604,2.11937 -2.720037,3.07043 -1.365735,2.27094 0.663163,-0.39151 3.724075,-3.48295 4.950823,-4.99847 l 0.750367,-0.92902 0.23027,0.58759 c 0.412947,1.06617 0.733279,3.89952 0.813877,6.14187 -1.28e-4,0.0186 1.27e-4,0.037 0,0.0556 -0.0016,0.17132 -0.0074,0.3415 -0.0119,0.51215 l -0.05162,1.97313 v 0.004 c -0.0386,0.23969 -0.09118,0.40483 -0.158807,0.47245 -0.135951,0.13597 -0.5583,0.24615 -0.936958,0.24615 -1.930324,0 -5.755909,1.15526 -10.76314,3.24753 -4.59713,1.92093 -8.245995,2.90184 -12.394782,3.33888 -1.797054,0.18928 -5.953337,0.23071 -7.587011,0.0754 -2.628819,-0.24987 -6.037823,-0.95579 -9.302121,-1.9255 -2.630471,-0.78144 -6.216448,-1.26154 -9.099611,-1.21884 -1.226787,0.0182 -2.307903,-0.0481 -2.401917,-0.14689 -0.397003,-0.41738 -0.820711,-4.33059 -0.901233,-8.3254 -0.06881,-3.41383 -0.157688,-4.43553 -0.460538,-5.28826 -0.17733,-0.49927 -0.271102,-0.76915 -0.269971,-1.05208 0.0016,-0.04 0.005,-0.0824 0.0079,-0.12308 6.35e-4,-0.009 0.0032,-0.0185 0.004,-0.0278 0.03169,-0.27149 0.143662,-0.59618 0.341434,-1.15929 0.639329,-1.8203 0.59034,-2.90133 -0.206449,-4.61733 -0.898349,-1.93464 -0.920302,-3.58788 -0.0794,-6.1021 l 0.599501,-1.79845 -0.341434,-1.42532 c -0.505322,-2.09358 -0.447339,-4.17458 0.170723,-6.12206 0.283057,-0.89184 0.569747,-1.92461 0.63919,-2.29469 0.146445,-0.7806 0.398007,-0.87597 0.555823,-0.21041 0.30628,1.2918 2.679509,7.75331 3.581149,9.75072 1.787653,3.96 5.025145,9.54134 7.221756,12.44649 0.915856,1.21122 2.712415,3.08872 2.953801,3.08872 0.444099,0 0.120752,-0.6734 -0.861519,-1.79058 -0.578615,-0.65805 -1.448061,-1.74992 -1.929562,-2.42973 -2.147064,-3.03206 -6.405872,-11.16969 -8.087188,-15.45124 -0.689805,-1.75678 -2.012142,-5.7944 -3.239652,-9.88564 -0.305951,-1.01969 -0.637183,-2.08697 -0.734474,-2.37015 -0.717526,-2.089005 -1.77571,-8.475185 -1.568246,-9.464867 0.06094,-0.290641 -0.0183,-1.315807 -0.174687,-2.278936 -0.753517,-4.640452 -0.891946,-9.648446 -0.393052,-14.006731 0.553256,-4.832926 0.570547,-5.750827 0.142926,-6.89614 -0.293182,-0.785228 -0.599831,-1.167913 -1.306152,-1.635706 -0.507266,-0.335933 -0.993239,-0.733191 -1.083848,-0.881376 -0.242199,-0.396127 -1.13027,-0.325363 -1.361797,0.107194 -0.110097,0.205712 -0.231375,0.970231 -0.269971,1.699229 -0.0386,0.728998 -0.159759,1.318602 -0.269971,1.314156 -0.311057,-0.01275 -1.798451,-2.589562 -1.798451,-3.116546 0,-0.721553 0.86331,-2.716353 1.738994,-4.021742 1.249388,-1.862609 2.402297,-2.587656 5.010408,-3.152245 3.75266,-0.812403 10.518324,-2.963202 13.534123,-4.303655 L 40.721772,54.7368 Z m 9.218779,3.541384 c 0.08353,-0.004 0.2454,0.02267 0.50024,0.06749 0.386535,0.06798 1.024772,0.228186 1.421382,0.353338 1.050498,0.331562 7.52641,0.304324 8.512027,-0.03573 0.432462,-0.149214 0.835335,-0.224692 0.89328,-0.166747 0.151069,0.151057 -1.596323,1.140549 -2.866393,1.623765 -1.247737,0.474742 -3.60351,0.652783 -4.764195,0.361291 -0.994446,-0.249733 -3.071952,-1.342868 -3.545322,-1.86604 -0.213817,-0.236253 -0.290095,-0.330825 -0.150867,-0.337457 z m -27.30328,9.468804 c 0.514089,0.0195 1.577139,1.218338 1.826275,2.108188 0.239442,0.855205 0.155236,3.181211 -0.142926,3.95822 -0.05764,0.150205 -0.165362,0.27213 -0.23821,0.269971 -0.376498,-0.01113 -2.11022,-1.294972 -2.675952,-1.981143 -0.798352,-0.968529 -0.843542,-1.368912 -0.134986,-1.191049 0.615407,0.154462 0.68654,0.01302 0.885353,-1.76669 0.0802,-0.718034 0.254128,-1.342105 0.385099,-1.385555 0.02898,-0.0096 0.06101,-0.01321 0.09528,-0.0119 z m 68.636159,1.524542 c 0.07407,0.0043 0.121684,0.11561 0.190568,0.297769 0.384794,1.017594 0.960817,4.052487 1.099728,5.796436 0.129243,1.622748 0.196298,1.842155 0.726546,2.314636 0.729354,0.649849 0.887182,1.253924 0.742414,2.85064 -0.102932,1.135238 -0.0056,1.565705 1.012398,4.561684 0.975923,2.872111 3.940814,12.498324 3.986042,12.93447 -0.0016,0.01201 -5.08e-4,0.02378 -0.004,0.03573 -0.168729,0.185727 -2.892057,1.066747 -4.522047,1.457081 -0.736455,0.176351 -1.66391,0.407014 -2.060545,0.512145 -0.396546,0.10513 -1.161054,0.30154 -1.69923,0.43672 -1.005346,0.25253 -1.366498,0.80991 -0.524061,0.80991 0.594826,0 4.258046,-0.90268 6.832617,-1.683349 1.118264,-0.33907 2.099294,-0.538697 2.183652,-0.444658 0.08423,0.09404 0.263733,0.496734 0.397017,0.893287 0.216358,0.64376 0.195255,0.75642 -0.182628,1.064 -0.575133,0.4681 -4.345072,1.70367 -7.110592,2.33052 -1.246287,0.28249 -2.52515,0.51509 -2.842635,0.51612 l -0.579644,0.004 0.111164,-1.69923 c 0.260278,-4.030636 0.390144,-8.986542 0.508181,-19.521763 L 89.665622,71.56497 c 0.02109,-0.04984 0.04501,-0.101628 0.07146,-0.158807 l 0.73051,-1.119585 c 0.484893,-0.738107 0.682499,-1.023603 0.805949,-1.016362 z m -72.832461,0.285852 c 0.08517,0 0.383931,0.439195 0.666987,0.97666 0.514648,0.977219 2.728041,3.248545 4.259952,4.375182 l 0.809913,0.599501 -0.178651,1.711171 c -0.200045,1.889035 -0.03245,8.658891 0.273935,11.080754 0.107506,0.849741 0.277111,2.751417 0.381136,4.224252 0.104024,1.472835 0.286143,3.234824 0.40098,3.914516 0.244257,1.445901 1.293192,5.544763 1.901739,7.428203 0.233229,0.72191 0.365865,1.40792 0.293792,1.52454 -0.276717,0.44772 -1.022409,0.18357 -1.774694,-0.63126 -0.835551,-0.90507 -0.945102,-0.93199 -2.969681,-0.69478 -0.106543,0.0125 -0.21862,0.0229 -0.32953,0.0318 l -0.917114,-0.008 c -0.469279,-0.005 -0.86425,-0.0128 -1.226774,-0.0199 -2.436345,-0.21205 -5.423431,-0.99165 -8.444566,-2.23917 -1.015129,-0.41918 -1.24461,-0.60747 -1.298274,-1.04813 -0.03839,-0.31549 0.05183,-0.57926 0.218365,-0.64316 0.155757,-0.0598 1.239529,0.22388 2.40992,0.63126 1.515776,0.52759 2.1928,0.67761 2.350336,0.5201 0.401056,-0.40106 -0.52518,-1.01593 -2.624245,-1.746875 -1.034796,-0.360338 -1.910252,-0.681406 -2.056608,-0.75433 -0.01536,-0.02424 -0.02872,-0.04972 -0.0397,-0.07543 -0.0055,-0.521101 0.708975,-4.408594 1.163251,-6.284798 0.567218,-2.342713 2.201184,-7.909324 2.671887,-9.103549 0.454834,-1.153926 1.015434,-4.225904 1.016361,-5.566103 4.96e-4,-0.722773 0.12984,-1.113869 0.512145,-1.568246 0.67912,-0.807093 0.932981,-1.528608 0.932994,-2.652068 0,-0.767747 0.124888,-1.08104 0.718593,-1.774694 0.510087,-0.595906 0.72257,-1.040704 0.72257,-1.524542 0,-0.376156 0.06966,-0.682868 0.154842,-0.682868 z m 70.349998,3.713531 c 0.01425,0.0016 0.02566,0.0058 0.03574,0.01588 0.151857,0.15187 -0.249911,26.382202 -0.420837,27.477328 -0.189984,1.21755 -0.630272,1.82857 -1.858036,2.57267 -0.849793,0.51501 -1.417316,0.69306 -2.477381,0.77815 l -1.373613,0.11116 0.13895,-0.80197 c 0.282904,-1.62681 0.536423,-9.227797 0.524061,-15.738355 -0.0121,-6.371569 0.172553,-9.213062 0.659047,-10.131853 0.375584,-0.709306 2.671506,-3.465919 2.886339,-3.465919 0.148542,0 0.176758,0.362993 0.08734,1.083848 -0.393751,3.173715 -1.914317,10.443749 -2.465439,11.791317 -0.139013,0.339896 -0.423746,1.290017 -0.635226,2.112126 -0.309304,1.20233 -0.336085,1.544615 -0.127045,1.75081 0.207579,0.204733 0.312595,0.186934 0.524061,-0.09925 0.217743,-0.294707 1.061704,-3.489169 2.187591,-8.293637 0.32253,-1.376407 0.761192,-3.817072 1.020326,-5.665453 0.135011,-0.96304 0.283399,-1.937185 0.329529,-2.163706 0.09738,-0.47844 0.751003,-1.358367 0.964743,-1.333974 z m -0.869459,30.276138 c 0.752311,0 -0.705495,1.9396 -1.802517,2.39798 -0.649938,0.27156 -1.391018,0.32289 -2.223291,0.14689 -0.226598,-0.0479 -0.622483,-0.13221 -0.877412,-0.18661 -0.800512,-0.17081 -0.561997,-0.71066 0.313649,-0.71066 0.859283,0 2.567075,-0.56834 3.676434,-1.22281 0.396686,-0.23405 0.806305,-0.4248 0.913137,-0.42482 z m -54.74885,4.97064 c -0.443007,-0.0236 -0.289384,0.5483 0.58362,2.29469 4.761526,9.52547 13.643382,19.82921 22.122377,25.65932 1.434595,0.98654 2.608492,1.18326 2.0049,0.33745 -0.08324,-0.11663 -1.103616,-0.88648 -2.266994,-1.71117 -2.789912,-1.97771 -4.223236,-3.1774 -6.920024,-5.7925 -5.215077,-5.05703 -10.473858,-12.02381 -13.760263,-18.23479 -0.797831,-1.50777 -1.443488,-2.49847 -1.66353,-2.5409 -0.0348,-0.007 -0.06972,-0.0103 -0.09925,-0.0119 z m -5.204914,26.50925 c -0.154538,0.0126 -0.206448,0.10147 -0.206448,0.25409 0,0.233 3.245242,1.87798 6.657929,3.37457 1.378822,0.60469 3.1572,1.40855 3.950343,1.78257 0.793092,0.37405 2.415256,1.02418 3.604907,1.44908 2.199406,0.78565 3.398459,0.93208 3.398459,0.4129 0,-0.0548 -0.100244,-0.13339 -0.269971,-0.23027 -0.0027,-0.002 -0.0051,-0.006 -0.0079,-0.008 -0.07427,-0.0611 -0.174661,-0.11338 -0.277911,-0.14293 -0.0041,-0.001 -0.0078,-0.003 -0.0119,-0.004 -0.439424,-0.20504 -1.118112,-0.46331 -2.008838,-0.76227 -2.936269,-0.98548 -7.775674,-3.00437 -11.870848,-4.95476 -1.792608,-0.8538 -2.617766,-1.19887 -2.957739,-1.17121 z"
       id="path1949"
       inkscape:connector-curvature="0" />
  </g>
</svg>
