<?xml version="1.0" encoding="UTF-8" standalone="no"?>
<!-- Created with Inkscape (http://www.inkscape.org/) -->

<svg
   xmlns:dc="http://purl.org/dc/elements/1.1/"
   xmlns:cc="http://creativecommons.org/ns#"
   xmlns:rdf="http://www.w3.org/1999/02/22-rdf-syntax-ns#"
   xmlns:svg="http://www.w3.org/2000/svg"
   xmlns="http://www.w3.org/2000/svg"
   xmlns:sodipodi="http://sodipodi.sourceforge.net/DTD/sodipodi-0.dtd"
   xmlns:inkscape="http://www.inkscape.org/namespaces/inkscape"
   width="97mm"
   height="55mm"
   viewBox="0 0 97 55"
   version="1.1"
   id="svg2064"
   inkscape:version="0.92.4 (5da689c313, 2019-01-14)"
   sodipodi:docname="062.svg">
  <defs
     id="defs2058">
    <clipPath
       clipPathUnits="userSpaceOnUse"
       id="clipPath18570">
      <rect
         style="fill:#cccccc;stroke:#000000;stroke-width:0.70866144;stroke-miterlimit:4;stroke-dasharray:none;stroke-opacity:1"
         id="rect18572"
         width="336.30368"
         height="173.28981"
         x="118.17339"
         y="746.88635" />
    </clipPath>
  </defs>
  <sodipodi:namedview
     id="base"
     pagecolor="#ffffff"
     bordercolor="#666666"
     borderopacity="1.0"
     inkscape:pageopacity="0.0"
     inkscape:pageshadow="2"
     inkscape:zoom="1.979899"
     inkscape:cx="299.37"
     inkscape:cy="139.31501"
     inkscape:document-units="mm"
     inkscape:current-layer="layer1"
     showgrid="false"
     inkscape:window-width="1920"
     inkscape:window-height="1133"
     inkscape:window-x="0"
     inkscape:window-y="0"
     inkscape:window-maximized="1" />
  <metadata
     id="metadata2061">
    <rdf:RDF>
      <cc:Work
         rdf:about="">
        <dc:format>image/svg+xml</dc:format>
        <dc:type
           rdf:resource="http://purl.org/dc/dcmitype/StillImage" />
        <dc:title></dc:title>
      </cc:Work>
    </rdf:RDF>
  </metadata>
  <g
     inkscape:label="Layer 1"
     inkscape:groupmode="layer"
     id="layer1"
     transform="translate(0,-242)">
    <g
       id="g18726"
       transform="matrix(0.28222223,0,0,0.28222223,-16.037642,34.910767)">
      <path
         inkscape:connector-curvature="0"
         id="path3872"
         d="m 89.469596,919.7103 c -14.60174,-0.48504 -19.87992,-0.906 -24.64506,-1.96571 -1.91812,-0.42656 -3.86332,-0.83976 -4.32262,-0.91824 l -0.83513,-0.14272 -0.1566,-5.03583 -0.1566,-5.03583 1.30115,-1.18235 1.30114,-1.18237 -0.82167,-1.62506 c -0.95697,-1.8927 -1.29501,-3.20108 -1.30291,-5.04302 -0.0135,-3.25148 1.0049,-5.63484 3.46902,-8.11515 1.6334,-1.6441 2.04238,-1.90851 5.83274,-3.77061 2.2419,-1.10141 4.36359,-2.30255 4.71487,-2.66921 0.8099,-0.84533 1.18936,-2.94186 0.98064,-5.41811 l -0.14898,-1.76846 2.74495,-1.12821 c 1.50972,-0.62047 2.82406,-1.23711 2.92073,-1.37026 0.2464,-0.33935 2.30545,-6.70114 3.40755,-10.52825 2.72778,-9.47231 4.30363,-17.34635 5.29333,-26.44895 0.5115,-4.70455 0.53873,-18.01827 0.0457,-22.31997 l -0.3198,-2.79001 -2.44126,-0.11628 c -1.34267,-0.064 -2.63073,-0.22857 -2.86232,-0.36595 -0.82531,-0.48938 -2.53271,-2.30326 -2.9642,-3.14904 -0.63767,-1.24996 -0.79059,-2.59232 -0.44067,-3.86807 0.23479,-0.85599 0.65236,-1.44946 1.8634,-2.6481 1.50909,-1.49363 1.56031,-1.58222 1.54604,-2.67374 -0.0251,-1.90319 0.76166,-3.0576 3.00646,-4.4125 0.40166,-0.24236 0.4055,-0.29221 0.0538,-0.6975 -0.81278,-0.93631 -1.18255,-2.03872 -1.23091,-3.66972 -0.052,-1.75218 0.14266,-2.46295 0.6742,-2.46295 0.17978,0 0.38113,-0.0877 0.44749,-0.19508 0.0664,-0.10737 -0.13366,-1.44892 -0.44466,-2.98124 -0.98485,-4.85399 -2.51453,-8.85473 -4.05748,-10.61207 -0.8424,-0.95942 -1.53815,-2.52868 -1.82785,-4.12267 -0.65228,-3.58871 1.72359,-5.50268 5.61824,-4.52593 1.62315,0.40708 2.24607,0.35627 2.24607,-0.18314 0,-0.56452 2.10632,-4.65886 3.14704,-6.1173 0.55861,-0.78281 1.73353,-2.09164 2.61098,-2.90851 1.39069,-1.29473 1.57403,-1.55979 1.42932,-2.06649 -0.0913,-0.3197 -0.1764,-1.16614 -0.18923,-1.88099 -0.0454,-2.54363 1.98043,-5.35374 4.81863,-6.68424 1.178094,-0.55225 1.593484,-0.61855 3.876964,-0.61855 2.23527,0 2.68934,0.0691 3.60376,0.54778 1.4255,0.74634 2.70724,2.01146 3.44948,3.40474 0.55375,1.03953 0.61952,1.41369 0.62151,3.53685 l 0.002,2.37435 1.56892,1.29409 c 0.86286,0.71174 2.04255,1.89272 2.62148,2.6244 1.03923,1.31356 2.89629,4.70468 2.89629,5.28902 0,0.1656 0.46236,0.5249 1.02744,0.79845 0.56507,0.27355 1.14632,0.64065 1.29164,0.81573 0.22127,0.26667 0.43745,0.24172 1.33167,-0.1539 0.77495,-0.34279 1.39707,-0.44486 2.27023,-0.37245 2.02869,0.16832 3.14658,1.37838 3.14658,3.40649 0,1.37967 -0.14866,1.74838 -1.90979,4.73349 -2.98652,5.06242 -3.83945,7.1832 -4.85168,12.06322 l -0.51123,2.46474 0.5408,0.73151 c 0.78877,1.06679 0.90417,3.15963 0.24876,4.51325 -0.27057,0.55902 -0.49198,1.08144 -0.49198,1.16101 0,0.0795 0.47004,0.48216 1.04448,0.89471 1.22822,0.88204 2.21054,2.65495 2.21054,3.98957 0,0.77451 0.16304,1.05826 1.17374,2.04274 2.14355,2.08787 2.74966,4.80466 1.63444,7.32584 -1.06066,2.39788 -2.27704,3.09811 -5.52856,3.1827 l -2.27839,0.0594 -0.18359,4.30126 c -0.29576,6.92579 -0.053,22.68652 0.39226,25.45873 1.57388,9.80004 5.75442,26.2157 7.92788,31.13032 0.52411,1.18507 0.66987,1.31847 2.37226,2.17031 0.99762,0.4992 2.1372,1.02022 2.53241,1.15792 l 0.71852,0.25029 0.15277,2.84516 c 0.21785,4.05191 0.7882,4.84495 4.72413,6.56881 6.20695,2.71853 9.65017,6.42584 10.33251,11.12506 0.22675,1.56189 0.20094,1.99626 -0.21808,3.65235 -0.26144,1.03378 -0.73928,2.43111 -1.06187,3.10517 -0.52998,1.10739 -0.54973,1.24622 -0.20506,1.43918 0.21008,0.1176 0.74287,0.54464 1.18445,0.94932 0.98609,0.90365 1.174,1.84171 1.19347,5.95754 l 0.0137,2.92622 -0.82781,1.06251 c -1.01511,1.30301 -2.34006,2.24758 -3.51678,2.50729 -1.19603,0.26395 -10.42076,1.04532 -19.37042,1.64076 -8.33236,0.55437 -25.601114,0.76993 -35.456344,0.44259 z m 33.480024,-2.65503 c 7.36785,-0.47889 17.20904,-1.25184 19.5209,-1.53326 1.73519,-0.21122 1.91307,-0.28644 2.84812,-1.20406 l 0.99732,-0.9788 v -2.76649 c 0,-2.54229 -0.0329,-2.75317 -0.4069,-2.60221 -1.20701,0.48728 -5.9474,1.52465 -8.89312,1.94623 -8.25846,1.18183 -17.56515,1.64965 -32.89881,1.65369 -19.268264,0.005 -32.966604,-0.98702 -40.082334,-2.90293 -1.20161,-0.32357 -2.2099,-0.56002 -2.24068,-0.5255 -0.0308,0.0345 -0.002,1.52753 0.0648,3.31775 l 0.12062,3.25504 3.51507,0.76314 c 1.93329,0.41976 4.56131,0.85856 5.84006,0.97515 11.93051,1.08772 39.242094,1.40641 51.615134,0.60225 z m -3.13872,-6.64688 c 6.52198,-0.30837 12.52382,-0.81311 16.85628,-1.41758 3.54516,-0.49461 8.62201,-1.64259 9.01874,-2.0393 0.1361,-0.1361 -0.25182,-0.48778 -1.02899,-0.9335 -1.35218,-0.77538 -1.71021,-0.84142 -2.64165,-0.4873 -2.65254,1.00851 -14.37297,2.22564 -27.08686,2.81293 -7.77927,0.35934 -20.678974,0.0562 -36.037594,-0.84759 -6.73189,-0.39596 -9.12618,-0.73869 -11.81921,-1.69168 l -1.88766,-0.668 -1.12114,0.64032 c -1.08249,0.61821 -1.84336,1.2992 -1.65455,1.48076 0.18992,0.18291 5.5394,1.28598 7.88002,1.62517 4.5939,0.66575 13.21976,1.37549 19.53006,1.60697 4.92517,0.18085 25.639424,0.12468 29.992554,-0.0813 z m -1.48736,-6.048 c 12.93755,-0.47971 21.57813,-1.62083 25.35034,-3.34782 1.44201,-0.66016 1.80554,-1.47687 1.76225,-3.95913 -0.0717,-4.12003 -3.6085,-7.87979 -9.74971,-10.36482 -2.01816,-0.81662 -3.08802,-1.67188 -4.30616,-3.44235 -0.60787,-0.88353 -0.74209,-1.35535 -0.9292,-3.26593 -0.12057,-1.22828 -0.2434,-2.25837 -0.27345,-2.28912 -0.0304,-0.0311 -1.87802,0.20072 -4.1064,0.51449 -8.12666,1.14433 -11.48176,1.34578 -23.81409,1.43004 -13.447114,0.0918 -21.388154,0.40453 -23.086884,0.90898 -1.48,0.43952 -1.97686,0.89084 -2.46706,2.24093 -0.61965,1.70665 -1.98068,2.76101 -6.26733,4.85512 -5.40602,2.64098 -7.26052,4.45113 -8.05408,7.8615 -0.30038,1.29084 -0.20474,4.10288 0.15164,4.45924 0.30324,0.30325 6.40747,1.75405 9.65191,2.29399 12.13878,2.02014 28.408454,2.76237 46.138274,2.10488 z m -4.09265,-25.58876 c 3.72558,-0.23906 10.26324,-0.93094 13.71752,-1.45192 l 1.97628,-0.29804 -1.74078,-0.8886 -1.74074,-0.88856 -2.56054,0.37769 c -10.72924,1.58272 -23.996104,1.58427 -38.497954,0.005 l -3.38741,-0.36904 -1.71269,0.86255 c -1.21031,0.60947 -1.61478,0.91582 -1.37885,1.04429 0.44461,0.24212 4.80942,0.84387 9.40137,1.29609 7.64928,0.75324 17.234824,0.86821 25.923794,0.31097 z m 3.25504,-2.99796 c 2.78398,-0.27019 7.70997,-0.93957 7.94791,-1.08003 0.0875,-0.0518 -0.18428,-0.85051 -0.6038,-1.77522 -1.94838,-4.29351 -4.85909,-15.02055 -7.11183,-26.2101 -1.44689,-7.18673 -1.64314,-9.79453 -1.61685,-21.48561 l 0.0206,-9.08817 -1.23607,-0.76787 c -1.12204,-0.69704 -1.37549,-0.76098 -2.7473,-0.69298 -1.83562,0.0911 -4.24435,1.16322 -6.47318,2.88161 -2.78434,2.14673 -2.84909,2.183 -3.8937,2.183 -0.83251,0 -1.3185,-0.21936 -2.930004,-1.32311 -2.35718,-1.61441 -3.82212,-2.19602 -5.65193,-2.24407 l -1.39501,-0.0365 0.0801,6.39373 c 0.15932,12.73194 -1.24837,23.66564 -4.75794,36.95556 -0.97664,3.69829 -3.56504,12.16508 -4.25125,13.90597 l -0.47776,1.21204 0.51846,0.11372 c 1.33797,0.29402 9.91259,1.00419 16.67724,1.3812 2.689914,0.1498 15.389784,-0.0795 17.902554,-0.32332 z M 92.491516,806.46312 c 11.479034,-0.66877 25.596044,-0.4933 31.083694,0.38629 0.84654,0.13583 0.86158,0.12448 1.12268,-0.84532 0.44604,-1.65644 -0.48093,-3.40264 -2.5203,-4.74771 -0.84286,-0.55592 -0.9767,-0.56814 -9.10917,-0.83214 -6.34904,-0.20606 -10.37318,-0.20273 -17.437574,0.0146 l -9.18376,0.28285 -1.31695,0.7941 c -2.39295,1.44286 -3.29878,2.96352 -2.75208,4.62007 0.326,0.98779 -0.67509,0.95544 10.11346,0.32689 z m 4.4181,-6.70503 c 4.426454,-0.13372 10.056974,-0.12424 15.409874,0.0258 4.6392,0.13012 8.60192,0.17207 8.80607,0.0938 0.58037,-0.22268 0.30336,-2.30534 -0.40941,-3.07841 -1.1777,-1.27738 -1.36579,-1.29929 -12.18151,-1.41845 -9.701614,-0.10687 -18.445144,0.16131 -20.427874,0.62676 -1.29389,0.30367 -2.24094,1.28932 -2.24094,2.33226 0,1.48677 0.39869,1.77333 2.35961,1.69599 0.94003,-0.0371 4.8479,-0.16233 8.68418,-0.27792 z m 8.253754,-5.01362 c 4.28382,0 8.93964,0.0396 10.34631,0.088 l 2.55747,0.0882 v -1.36688 -1.36685 l -1.62749,-0.14546 c -3.72204,-0.33276 -17.284094,-0.11989 -25.031804,0.39281 l -2.24671,0.14877 -0.0783,1.2578 -0.0783,1.25782 4.18501,-0.17718 c 2.30175,-0.0974 7.689944,-0.17718 11.973774,-0.17718 z m -8.973984,-4.05773 c 8.096894,-0.39987 16.428404,-0.26189 21.587164,0.35748 l 1.33685,0.16056 v -0.86363 c 0,-0.63694 -0.17194,-1.03543 -0.65433,-1.51797 -0.6089,-0.60892 -0.83061,-0.6664 -3.19684,-0.82866 -3.10059,-0.21271 -18.997014,0.023 -23.419434,0.34776 -1.76375,0.12937 -3.41158,0.34483 -3.66187,0.4788 -0.34342,0.18382 -0.45509,0.48873 -0.45509,1.24286 0,0.54964 0.0499,1.04932 0.11116,1.11044 0.0612,0.0611 0.86174,0.0309 1.77916,-0.067 0.91743,-0.0982 3.8754,-0.28723 6.57328,-0.42047 z m 1.76648,-3.26885 c 5.841514,-0.24952 14.332614,-0.26568 17.622094,-0.0335 2.03555,0.14368 2.16676,0.12552 2.26374,-0.31249 0.36764,-1.66127 1.15584,-5.60782 1.95011,-9.76502 l 0.44425,-2.325 -0.66523,-0.62502 c -0.87163,-0.81906 -2.01964,-1.11676 -4.29365,-1.1134 -5.08826,0.007 -8.59873,1.82322 -10.84938,5.61164 -0.51136,0.86077 -1.08197,1.69131 -1.26801,1.84573 -0.47118,0.39105 -3.610134,0.56507 -4.227984,0.23443 -0.27159,-0.1452 -1.22217,-1.13631 -2.1124,-2.20213 -2.03205,-2.43289 -2.75829,-2.81473 -5.00785,-2.63296 -1.48384,0.11988 -4.39407,0.90739 -4.84547,1.31112 -0.0981,0.0877 0.18408,1.57468 0.62741,3.30411 0.44326,1.72946 0.93841,4.0608 1.10033,5.18074 l 0.29442,2.03624 1.86817,-0.14546 c 1.02751,-0.08 4.22224,-0.24619 7.09945,-0.36899 z m -10.26183,-17.85956 c 0.43008,-0.46965 1.13757,-1.24625 1.57221,-1.72578 1.12596,-1.24229 1.747,-1.17582 3.54254,0.37911 0.89772,0.77742 1.83582,1.36053 2.47813,1.54036 2.2241,0.62271 4.736044,-0.12399 7.414834,-2.20412 0.7453,-0.57872 1.55621,-1.05224 1.80208,-1.05224 0.24582,0 0.93946,0.45793 1.54139,1.01763 1.48781,1.3834 3.69969,2.46989 5.0283,2.46989 1.30459,0 4.39999,-0.96712 5.49924,-1.71817 1.48142,-1.01222 1.89656,-0.9171 2.77267,0.63528 0.81188,1.43862 1.45612,1.82261 2.61817,1.56053 0.94667,-0.21355 1.14975,-0.32139 2.32292,-1.23369 0.62707,-0.48766 0.87188,-0.85536 0.87188,-1.3095 0,-1.26002 -0.99412,-1.5194 -2.75723,-0.71936 -1.54034,0.69892 -2.39483,0.60887 -3.35753,-0.35386 -0.9922,-0.99221 -1.39946,-1.01241 -4.34776,-0.21579 -3.15979,0.85389 -6.07402,0.79507 -8.33116,-0.16811 -1.32807,-0.56673 -1.94931,-0.54319 -3.99135,0.15142 -2.394004,0.81424 -5.330574,0.80859 -8.339034,-0.016 -2.28884,-0.62739 -3.66722,-0.6158 -4.31934,0.0362 -0.85844,0.85844 -2.41393,1.00051 -4.52577,0.41336 -1.57885,-0.43896 -2.51671,-0.29219 -2.7861,0.43603 -0.15729,0.4252 0.0178,0.69616 1.08939,1.67867 1.91392,1.75607 2.87463,1.84709 4.20152,0.39805 z m 26.458014,-3.43615 c 1.25818,-0.33332 2.32453,-0.64049 2.36963,-0.68266 0.045,-0.0421 -0.14911,-0.77135 -0.43169,-1.6204 -0.97066,-2.9168 -3.52712,-6.04159 -6.42703,-7.85585 -2.30257,-1.44056 -10.584164,-1.39386 -12.869614,0.0725 -1.17476,0.75376 -2.55024,2.12924 -3.77935,3.77933 -0.79624,1.06898 -2.53732,4.4079 -2.83529,5.43733 -0.13611,0.47033 -0.0929,0.48887 0.7142,0.30681 0.64542,-0.1456 1.39999,-0.0533 3.03392,0.37132 3.08276,0.80097 6.386094,0.79471 8.540414,-0.016 1.88144,-0.70819 2.3144,-0.71755 4.00061,-0.0866 2.69834,1.00958 4.69564,1.08611 7.6842,0.29443 z m -5.18147,-13.1406 c 0.42888,-2.14447 -0.11692,-3.98647 -1.55561,-5.24965 -1.40915,-1.23724 -3.77857,-1.58132 -6.11394,-0.88779 -2.251204,0.66854 -4.157104,3.01964 -3.999324,4.93354 0.0693,0.84009 0.11678,0.88784 0.95206,0.95681 0.58421,0.0482 1.1394,-0.0882 1.65493,-0.40687 0.991714,-0.6129 1.305604,-0.60302 3.053144,0.0961 1.14881,0.4596 3.85613,1.06662 5.60185,1.25604 0.1438,0.016 0.32698,-0.29857 0.40689,-0.69818 z"
         style="fill:#1a1a1a;stroke-width:0.23250049" />
      <g
         clip-path="url(#clipPath18570)"
         id="g18566">
        <polygon
           id="polygon11754"
           points="474.38,323.82 451.02,265.3 437.78,263.85 428.98,244.57 351.55,260.96 343.9,265.3 343.69,283.5 352.38,374.27 353,404.05 350.11,425.56 346.18,434.66 339.14,442.1 324.67,448.72 329.84,468.16 340.59,511.79 359.3,539.38 447.91,538.21 434,516.96 434,507.62 436.9,504.14 456.06,505.58 453.12,473.53 447.41,401.04 446.56,377.63 455.16,371.4 458.19,361.7 466.6,354.75 476.04,350.5 473.34,336.09 "
           style="fill:#b3b3b3"
           transform="matrix(0.58435051,0,0,0.58435051,44.321186,708.8462)" />
        <rect
           style="fill:#808080;stroke-width:0.58435053"
           y="798.25183"
           x="382.07578"
           height="83.562126"
           width="8.7652578"
           id="rect11764" />
        <path
           id="path11766"
           d="m 391.42539,882.3983 h -10.51831 v -84.73083 h 10.51831 z m -8.76526,-1.75305 h 7.59656 v -81.80907 h -7.59656 z"
           inkscape:connector-curvature="0"
           style="stroke-width:0.58435053" />
        <rect
           style="fill:#ffffff;stroke-width:0.58435053"
           y="794.16138"
           x="382.07578"
           height="4.0904536"
           width="8.7652578"
           id="rect11772" />
        <path
           inkscape:connector-curvature="0"
           d="m 391.42539,798.83618 h -10.51831 v -6.42786 h 10.51831 z m -8.76526,-1.16871 h 7.59656 v -2.92175 h -7.59656 z"
           id="path11774"
           style="stroke-width:0.58435053" />
        <rect
           style="fill:#ffffff;stroke-width:0.58435053"
           y="788.90222"
           x="382.07578"
           height="5.2591548"
           width="8.7652578"
           id="rect11778" />
        <path
           inkscape:connector-curvature="0"
           d="m 391.42539,794.74572 h -10.51831 v -6.42785 h 10.51831 z m -8.76526,-2.3374 h 7.59656 v -2.3374 h -7.59656 z"
           id="path11780"
           style="stroke-width:0.58435053" />
        <rect
           style="fill:#ffffff;stroke-width:0.58435053"
           y="784.81177"
           x="382.07578"
           height="4.0904536"
           width="8.7652578"
           id="rect11784" />
        <path
           inkscape:connector-curvature="0"
           d="m 391.42539,790.07092 h -10.51831 v -5.84351 h 10.51831 z m -8.76526,-1.75305 h 7.59656 v -2.92176 h -7.59656 z"
           id="path11786"
           style="stroke-width:0.58435053" />
        <rect
           style="fill:#ffffff;stroke-width:0.58435053"
           y="780.72131"
           x="379.15402"
           height="4.0904536"
           width="15.193113"
           id="rect11790" />
        <path
           inkscape:connector-curvature="0"
           d="m 394.93149,785.39611 h -16.94616 v -5.25915 h 16.94616 z m -15.19311,-1.1687 h 14.02441 v -2.92175 h -14.02441 z"
           id="path11792"
           style="stroke-width:0.58435053" />
        <circle
           style="fill:#cccccc;stroke-width:0.58435053"
           cy="774.7843"
           cx="386.20129"
           r="5.4052424"
           id="circle11796" />
        <path
           id="path11798"
           d="m 386.20129,780.89661 c -3.37228,0 -6.11464,-2.74293 -6.11464,-6.11405 0,-3.37112 2.74236,-6.11465 6.11464,-6.11465 3.37112,0 6.11406,2.74294 6.11406,6.11465 0,3.3717 -2.7406,6.1123 -6.1123,6.1123 z m 0,-10.81048 c -2.59042,0 -4.69642,2.10659 -4.69642,4.69643 0,2.58984 2.106,4.69642 4.69642,4.69642 2.59043,0 4.69585,-2.10658 4.69585,-4.69642 0,-2.59452 -2.10367,-4.69818 -4.69818,-4.69818 z"
           inkscape:connector-curvature="0"
           style="stroke-width:0.58435053" />
        <path
           id="path11806"
           d="m 382.07578,814.34484 -17.1688,-3.54701 c 0.70005,-9.03289 2.83936,-16.08776 9.63477,-18.93705 -2.12762,-0.89113 -4.42003,-1.37322 -6.76035,-1.37322 -12.62548,0 -28.99723,13.96714 -28.99723,31.19906 0,17.22957 16.34429,31.1973 28.97035,31.1973 2.34091,0 4.59358,-0.48209 6.72003,-1.3738 -6.48922,-2.72133 -8.65657,-9.27949 -9.4618,-17.73387 l 17.06303,-3.52598 v -15.90602 z"
           inkscape:connector-curvature="0"
           style="fill:#e6e6e6;stroke-width:0.58435053" />
        <path
           id="path11808"
           d="m 367.74167,853.59566 c -13.36703,0 -29.69436,-14.72329 -29.69436,-31.90612 0,-17.184 16.3174,-31.90787 29.67566,-31.90787 2.36661,0 4.71278,0.48033 6.97305,1.42873 l 1.55963,0.65389 -1.55963,0.6533 c -5.5338,2.32163 -8.22474,7.79699 -9.09191,17.7181 l 17.06303,3.52947 v 17.05719 l -16.94499,3.51254 c 0.97528,9.1556 3.73692,14.26165 9.11587,16.51724 l 1.51346,0.65389 -1.58067,0.65331 c -2.25559,0.94665 -4.63389,1.42581 -7.01804,1.42581 z m -0.0175,-62.39694 c -12.72073,0 -28.25802,14.0694 -28.25802,30.49024 0,16.41966 15.54781,30.48848 28.27731,30.48848 1.66189,0 3.31034,-0.25419 4.91789,-0.75732 -5.04295,-2.82182 -7.71752,-8.334 -8.59697,-17.57375 l -0.0473,-0.6311 16.89357,-3.53824 v -14.75485 l -16.98473,-3.55694 0.0415,-0.62117 c 0.53059,-6.84917 2.01893,-15.01372 8.65949,-18.78745 -1.60696,-0.50839 -3.25483,-0.75966 -4.9027,-0.75966 z"
           inkscape:connector-curvature="0"
           style="stroke-width:0.58435053" />
        <path
           id="path11812"
           d="m 386.53438,808.74676 c -1.21195,0 -2.19716,-0.9858 -2.19716,-2.19774 0,-1.21136 0.98521,-2.19658 2.19716,-2.19658 1.21135,0 2.19657,0.98522 2.19657,2.19658 -0.006,1.2096 -0.98756,2.19715 -2.19716,2.19715 z"
           inkscape:connector-curvature="0"
           style="fill:#ffffff;stroke-width:0.58435053" />
        <path
           id="path11814"
           d="m 386.53438,805.05951 c 0.81984,0 1.48775,0.66733 1.48775,1.48775 0,0.82102 -0.66791,1.48834 -1.48775,1.48834 -0.82043,0 -1.48776,-0.66732 -1.48776,-1.48834 0,-0.82393 0.66616,-1.49009 1.49009,-1.49009 m 0,-1.41997 c -1.60462,0 -2.90597,1.30076 -2.90597,2.90539 0,1.60463 1.30135,2.90598 2.90597,2.90598 1.60463,0 2.90539,-1.30135 2.90539,-2.90598 0,-1.60463 -1.3031,-2.90422 -2.90422,-2.90422 z"
           inkscape:connector-curvature="0"
           style="stroke-width:0.58435053" />
        <path
           id="path11818"
           d="m 386.53438,820.97722 c -1.21195,0 -2.19716,-0.98522 -2.19716,-2.19658 0,-1.21136 0.98521,-2.19657 2.19716,-2.19657 1.21135,0 2.19657,0.98522 2.19657,2.19657 0,1.21136 -0.98756,2.19716 -2.19716,2.19716 z"
           inkscape:connector-curvature="0"
           style="fill:#ffffff;stroke-width:0.58435053" />
        <path
           id="path11820"
           d="m 386.53438,817.29581 c 0.81984,0 1.48775,0.66733 1.48775,1.48775 0,0.82043 -0.66791,1.48776 -1.48775,1.48776 -0.82043,0 -1.48776,-0.66733 -1.48776,-1.48776 0,-0.82042 0.66616,-1.49009 1.49009,-1.49009 m 0,-1.41997 c -1.60462,0 -2.90597,1.30018 -2.90597,2.90539 0,1.60521 1.30135,2.90598 2.90597,2.90598 1.60463,0 2.90539,-1.30077 2.90539,-2.90598 0,-1.60112 -1.3031,-2.90423 -2.90422,-2.90423 z"
           inkscape:connector-curvature="0"
           style="stroke-width:0.58435053" />
        <path
           id="path11824"
           d="m 386.53438,833.21352 c -1.21195,0 -2.19716,-0.98522 -2.19716,-2.19658 0,-1.21135 0.98521,-2.19774 2.19716,-2.19774 1.21135,0 2.19657,0.98639 2.19657,2.19774 -0.006,1.21545 -0.98756,2.19716 -2.19716,2.19716 z"
           inkscape:connector-curvature="0"
           style="fill:#ffffff;stroke-width:0.58435053" />
        <path
           id="path11826"
           d="m 386.53438,829.52626 c 0.81984,0 1.48775,0.66792 1.48775,1.48893 0,0.82043 -0.66791,1.48776 -1.48775,1.48776 -0.82043,0 -1.48776,-0.66733 -1.48776,-1.48776 0,-0.81809 0.66616,-1.49009 1.49009,-1.49009 m 0,-1.41413 c -1.60462,0 -2.90597,1.30135 -2.90597,2.90656 0,1.60463 1.30135,2.90539 2.90597,2.90539 1.60463,0 2.90539,-1.30076 2.90539,-2.90539 0,-1.60112 -1.3031,-2.90422 -2.90422,-2.90422 z"
           inkscape:connector-curvature="0"
           style="stroke-width:0.58435053" />
        <path
           id="path11830"
           d="m 386.53438,845.44982 c -1.21195,0 -2.19716,-0.98581 -2.19716,-2.19717 0,-1.21135 0.98521,-2.19657 2.19716,-2.19657 1.21135,0 2.19657,0.98522 2.19657,2.19657 0,1.21136 -0.98756,2.19717 -2.19716,2.19717 z"
           inkscape:connector-curvature="0"
           style="fill:#ffffff;stroke-width:0.58435053" />
        <path
           id="path11832"
           d="m 386.53438,841.76256 c 0.81984,0 1.48775,0.66734 1.48775,1.48776 0,0.82101 -0.66791,1.48834 -1.48775,1.48834 -0.82043,0 -1.48776,-0.66733 -1.48776,-1.48834 0,-0.82393 0.66616,-1.49009 1.49009,-1.49009 m 0,-1.41413 c -1.60462,0 -2.90597,1.30077 -2.90597,2.90597 0,1.60521 1.30135,2.90598 2.90597,2.90598 1.60463,0 2.90539,-1.30135 2.90539,-2.90598 0,-1.60462 -1.3031,-2.90422 -2.90422,-2.90422 z"
           inkscape:connector-curvature="0"
           style="stroke-width:0.58435053" />
        <path
           id="path11836"
           d="m 386.53438,857.68611 c -1.21195,0 -2.19716,-0.98521 -2.19716,-2.19657 0,-1.21135 0.98521,-2.19657 2.19716,-2.19657 1.21135,0 2.19657,0.98522 2.19657,2.19657 0,1.21136 -0.98756,2.19716 -2.19716,2.19716 z"
           inkscape:connector-curvature="0"
           style="fill:#ffffff;stroke-width:0.58435053" />
        <path
           id="path11838"
           d="m 386.53438,853.99886 c 0.81984,0 1.48775,0.66733 1.48775,1.48776 0,0.82043 -0.66791,1.48776 -1.48775,1.48776 -0.82043,0 -1.48776,-0.66733 -1.48776,-1.48776 0,-0.82043 0.66616,-1.49009 1.49009,-1.49009 m 0,-1.41998 c -1.60462,0 -2.90597,1.30077 -2.90597,2.90539 0,1.6058 1.30135,2.90539 2.90597,2.90539 1.60463,0 2.90539,-1.30017 2.90539,-2.90539 0,-1.60112 -1.3031,-2.90422 -2.90422,-2.90422 z"
           inkscape:connector-curvature="0"
           style="stroke-width:0.58435053" />
        <path
           id="path11842"
           d="m 386.53438,869.91657 c -1.21195,0 -2.19716,-0.98521 -2.19716,-2.19657 0,-1.21136 0.98521,-2.19716 2.19716,-2.19716 1.21135,0 2.19657,0.9858 2.19657,2.19716 -0.006,1.21545 -0.98756,2.19716 -2.19716,2.19716 z"
           inkscape:connector-curvature="0"
           style="fill:#ffffff;stroke-width:0.58435053" />
        <path
           id="path11844"
           d="m 386.53438,866.23516 c 0.81984,0 1.48775,0.66733 1.48775,1.48834 0,0.82043 -0.66791,1.48776 -1.48775,1.48776 -0.82043,0 -1.48776,-0.66733 -1.48776,-1.48776 0,-0.82393 0.66616,-1.49009 1.49009,-1.49009 m 0,-1.41997 c -1.60462,0 -2.90597,1.30193 -2.90597,2.90656 0,1.60462 1.30135,2.90539 2.90597,2.90539 1.60463,0 2.90539,-1.30077 2.90539,-2.90539 0,-1.60463 -1.3031,-2.90423 -2.90422,-2.90423 z"
           inkscape:connector-curvature="0"
           style="stroke-width:0.58435053" />
        <path
           id="path11848"
           d="m 367.63648,849.67467 c -4.24297,0 -9.4472,-2.02887 -13.9765,-5.56594 -4.17518,-3.26126 -11.1979,-10.5335 -11.31828,-22.60092 -0.0871,-8.7115 4.10214,-16.87955 11.493,-22.40809 5.59048,-4.18278 12.38122,-6.22217 16.51667,-4.96055 l -0.4143,1.35569 c -3.72991,-1.1354 -10.00175,0.81107 -15.2533,4.73908 -4.12786,3.08888 -11.03722,9.95792 -10.92385,21.25926 0.11395,11.47197 6.79892,18.39302 10.77425,21.49709 5.09495,3.97942 11.26511,5.99601 15.36082,5.01781 l 0.32958,1.37907 c -0.81225,0.19283 -1.68293,0.28633 -2.59452,0.28633 z"
           inkscape:connector-curvature="0"
           style="stroke-width:0.58435053" />
        <rect
           id="rect11852"
           width="37.982784"
           height="1.1687011"
           x="342.92429"
           y="821.62585"
           style="stroke-width:0.58435053" />
        <line
           id="line11858"
           y2="863.84515"
           x1="242.59131"
           x2="313.47885"
           y1="912.05408"
           style="fill:#fdcb45;stroke-width:0.58435053" />
        <rect
           id="rect11860"
           width="21.266851"
           transform="rotate(55.783919)"
           height="85.727699"
           x="879.9762"
           y="226.52216"
           style="stroke-width:0.58433443" />
        <line
           id="line11864"
           y2="863.84515"
           x1="242.59131"
           x2="313.47885"
           y1="912.05408"
           style="fill:#fdcb45;stroke-width:0.58435053" />
        <rect
           id="rect11866"
           x="882.4472"
           y="226.53181"
           width="16.304684"
           height="85.727699"
           transform="rotate(55.783919)"
           style="fill:#ffffff;stroke-width:0.58433443" />
        <rect
           id="rect11870"
           width="12.051897"
           transform="rotate(55.783919)"
           height="85.721848"
           x="884.57751"
           y="226.52698"
           style="stroke-width:0.58433443" />
        <rect
           id="rect11874"
           x="887.06421"
           y="226.52216"
           width="7.0891452"
           height="85.727699"
           transform="rotate(55.783919)"
           style="fill:#cccccc;stroke-width:0.58433443" />
        <path
           id="path11880"
           d="m 231.73408,907.64224 c -1.22714,0.57091 -2.52848,-0.0596 -3.73283,0.14141 1.28791,2.49226 2.42389,4.95529 1.38199,7.73213 -1.13831,3.03394 -3.83509,4.11032 -5.55484,6.44188 -1.45269,1.96809 -0.0163,5.76871 0.5265,8.06053 1.001,4.21609 2.23106,8.34277 2.91591,12.6284 0.52183,3.26944 0.52007,8.45029 2.7558,11.10909 1.28674,-1.52399 2.33623,-3.95723 3.15257,-5.79676 1.1202,-2.52732 0.97061,-5.60509 0.9186,-8.27499 -0.1531,-7.8975 -1.44218,-28.72725 -2.73359,-31.1751"
           inkscape:connector-curvature="0"
           style="fill:#b3b3b3;stroke-width:0.58435053" />
        <path
           inkscape:connector-curvature="0"
           d="m 237.27372,972.84992 -10.28048,-20.22204 c 2.49869,-1.27038 3.34074,-1.69754 3.93093,-7.42709 0.88705,-8.60865 -0.23432,-23.98175 -3.87132,-53.06254 -0.0409,-0.32431 -0.78303,-6.04277 -1.51931,-11.71447 -0.73803,-5.68807 -1.47023,-11.32997 -1.49536,-11.52807 l 22.50918,-2.8189 c 0.0549,0.42715 0.76551,5.90486 1.48192,11.42697 0.75147,5.78682 1.50879,11.62156 1.53392,11.82083 3.9654,31.71562 5.0295,47.48957 3.92683,58.20072 -1.30894,12.63366 -6.15905,20.21268 -16.22157,25.32575 z m -1.98094,-105.36425 11.25283,-1.42114 c 0,0.004 10e-4,0.008 10e-4,0.0117 l -11.25459,1.40829 z"
           id="path11882"
           style="stroke-width:0.58435053" />
        <path
           style="fill:#ffffff;stroke-width:0.58435053"
           inkscape:connector-curvature="0"
           d="m 236.15177,970.64107 -8.0319,-15.79792 c 2.75054,-1.39893 4.26459,-2.16794 5.0932,-7.90509 1.0828,-7.49955 0.35646,-20.8543 -2.42797,-44.65315 -0.13324,-1.14006 -0.46456,-4.03961 -0.87478,-7.6211 -0.8736,-7.63337 -2.19248,-19.16961 -2.54543,-21.98093 l 17.58428,-2.21001 c 0.3658,2.90948 1.63969,14.04545 2.5688,22.17727 0.40729,3.55987 0.73745,6.44188 0.86951,7.57552 3.05207,26.08833 3.71589,39.89478 2.36604,49.24322 -1.50178,10.3956 -5.87272,16.72996 -14.60292,21.17102 z"
           id="path11886" />
        <path
           inkscape:connector-curvature="0"
           d="m 234.8662,968.11083 -5.46134,-10.74328 c 7.27925,-3.70011 10.19108,-7.78531 2.92643,-65.89137 -0.0391,-0.29159 -0.39152,-2.74294 -0.74329,-5.18728 -0.56799,-3.95546 -0.73746,-5.13819 -0.76492,-5.35674 l 11.95756,-1.49944 -5.97849,0.74972 5.97616,-0.77309 c 0.0415,0.31262 0.39034,2.73592 0.73978,5.16566 0.57325,3.99286 0.74447,5.18728 0.77193,5.40582 3.86081,30.8765 4.95705,46.85731 3.9134,56.99696 -1.29726,12.57523 -6.27593,17.54221 -13.34072,21.13596 z"
           id="path11890"
           style="stroke-width:0.58435053" />
        <path
           style="fill:#cccccc;stroke-width:0.58435053"
           inkscape:connector-curvature="0"
           d="m 233.73841,965.90199 -3.21218,-6.31859 c 9.13866,-4.64617 11.47489,-11.06818 4.11499,-69.5903 l 7.03383,-0.88471 c 7.31607,58.15457 6.12984,69.63706 -7.93548,76.78951 z"
           id="path11894" />
        <path
           style="fill:#ffffff;stroke-width:0.58435053"
           inkscape:connector-curvature="0"
           d="m 280.69681,912.05409 c -1.46555,0 -2.65821,-1.19325 -2.65821,-2.65821 0,-1.46555 1.19324,-2.6588 2.65821,-2.6588 1.46497,0 2.65879,1.19325 2.65879,2.6588 0,1.46671 -1.19791,2.65879 -2.65879,2.65879 z"
           id="path11934" />
        <path
           inkscape:connector-curvature="0"
           d="m 280.69681,907.44356 c 1.0752,0 1.9494,0.87419 1.9494,1.94939 0,1.07462 -0.87419,1.94881 -1.9494,1.94881 -1.0752,0 -1.94939,-0.87419 -1.94939,-1.94881 0,-1.0752 0.87653,-1.95173 1.95172,-1.95173 m 0,-1.41412 c -1.85998,0 -3.36761,1.50821 -3.36761,3.36761 0,1.8594 1.50763,3.36703 3.36761,3.36703 1.85941,0 3.36762,-1.50821 3.36762,-3.36703 0,-1.85824 -1.50762,-3.36586 -3.36586,-3.36586 z"
           id="path11936"
           style="stroke-width:0.58435053" />
        <path
           style="fill:#ffffff;stroke-width:0.58435053"
           inkscape:connector-curvature="0"
           d="m 294.87316,912.05409 c -1.46555,0 -2.65822,-1.19325 -2.65822,-2.65821 0,-1.46555 1.19267,-2.6588 2.65822,-2.6588 1.46554,0 2.6582,1.19325 2.6582,2.6588 0,1.46671 -1.19207,2.65879 -2.65879,2.65879 z"
           id="path11940" />
        <path
           inkscape:connector-curvature="0"
           d="m 294.87316,907.44356 c 1.07578,0 1.94939,0.87419 1.94939,1.94939 0,1.07462 -0.87361,1.94881 -1.94939,1.94881 -1.07463,0 -1.9494,-0.87419 -1.9494,-1.94881 0,-1.0752 0.87653,-1.95173 1.95173,-1.95173 m 0,-1.41412 c -1.8594,0 -3.36703,1.50821 -3.36703,3.36761 0,1.8594 1.50763,3.36703 3.36703,3.36703 1.8594,0 3.36761,-1.50821 3.36761,-3.36703 0,-1.85824 -1.50762,-3.36586 -3.36585,-3.36586 z"
           id="path11942"
           style="stroke-width:0.58435053" />
        <path
           style="fill:#ffffff;stroke-width:0.58435053"
           inkscape:connector-curvature="0"
           d="m 294.87316,899.99894 c -1.46555,0 -2.65822,-1.19325 -2.65822,-2.65822 0,-1.46496 1.19267,-2.6582 2.65822,-2.6582 1.46554,0 2.6582,1.19324 2.6582,2.6582 0,1.46497 -1.19207,2.6588 -2.65879,2.6588 z"
           id="path11946" />
        <path
           inkscape:connector-curvature="0"
           d="m 294.87316,895.39425 c 1.07578,0 1.94939,0.87419 1.94939,1.9494 0,1.0752 -0.87361,1.94939 -1.94939,1.94939 -1.07463,0 -1.9494,-0.87419 -1.9494,-1.94939 0,-1.07521 0.87653,-1.95173 1.95173,-1.95173 m 0,-1.41997 c -1.8594,0 -3.36703,1.5082 -3.36703,3.36761 0,1.8594 1.50763,3.36761 3.36703,3.36761 1.8594,0 3.36761,-1.50821 3.36761,-3.36761 0,-1.85941 -1.50762,-3.36586 -3.36585,-3.36586 z"
           id="path11948"
           style="stroke-width:0.58435053" />
        <path
           inkscape:connector-curvature="0"
           d="m 305.26875,1016.349 c 0,0 -0.001,-0.01 -0.001,-0.011 l 11.25401,-1.4095 -11.25459,1.42 z m 0,-0.012 c -0.0555,-0.4266 -0.76608,-5.9049 -1.48191,-11.4276 -0.75148,-5.78624 -1.50938,-11.62156 -1.53393,-11.82083 -3.96539,-31.71562 -5.0295,-47.49017 -3.92683,-58.20131 1.30193,-12.63424 6.15146,-20.20801 16.21631,-25.32459 l 10.28048,20.22145 c -2.49868,1.27038 -3.34073,1.69813 -3.93093,7.42768 -0.88704,8.60865 0.23433,23.98175 3.87133,53.06195 0.0409,0.3249 0.78303,6.04336 1.51931,11.71565 0.73745,5.6869 1.47023,11.33 1.49535,11.5281 l -22.50918,2.8224 z"
           id="path11976"
           style="stroke-width:0.58435053" />
        <rect
           style="fill:#cccccc;stroke-width:0.58438265"
           transform="rotate(73.955445)"
           height="11.342869"
           width="71.183655"
           y="-66.985641"
           x="946.02032"
           id="rect12098" />
        <rect
           y="-58.70219"
           x="944.45178"
           height="5.6720185"
           transform="rotate(73.955445)"
           width="71.183655"
           id="rect12102"
           style="stroke-width:0.58438265" />
        <path
           id="path12144"
           d="m 178.07902,868.25702 c 0.95424,1.68468 0.36405,3.8234 -1.32239,4.77765 -1.68351,0.95366 -3.82282,0.36112 -4.77648,-1.32415 L 160.1751,850.87083 c -0.95249,-1.68468 -0.35996,-3.8234 1.32414,-4.77765 1.6841,-0.95424 3.82282,-0.36171 4.77648,1.32239 l 11.79804,20.84378 z"
           inkscape:connector-curvature="0"
           style="fill:#ffffff;stroke-width:0.58435053" />
        <path
           id="path12146"
           d="m 175.03455,874.19986 c -1.51756,0 -2.92351,-0.81984 -3.6703,-2.13931 l -11.80506,-20.83969 c -1.14356,-2.02185 -0.42949,-4.59884 1.5912,-5.74416 0.63285,-0.3588 1.34984,-0.54812 2.07327,-0.54812 1.51639,0 2.92233,0.81867 3.66972,2.13755 l 11.80388,20.84144 c 0.55455,0.97996 0.69479,2.11652 0.39502,3.20166 -0.29977,1.08514 -1.00508,1.98796 -1.98504,2.54251 -0.63109,0.35061 -1.34985,0.54345 -2.07444,0.54345 z m -11.80972,-27.85599 c -0.47917,0 -0.95425,0.12506 -1.37498,0.36346 -1.3405,0.76025 -1.8144,2.47006 -1.05592,3.81173 l 11.80447,20.8391 c 0.49552,0.87595 1.4299,1.41998 2.43673,1.41998 0.47917,0 0.95425,-0.12564 1.37382,-0.36347 0.65096,-0.36814 1.11844,-0.9671 1.31712,-1.68761 0.19868,-0.71874 0.10577,-1.47314 -0.26238,-2.12352 l -11.80388,-20.84145 c -0.49085,-0.87068 -1.42581,-1.41413 -2.43089,-1.41413 z"
           inkscape:connector-curvature="0"
           style="stroke-width:0.58435053" />
        <path
           id="path12150"
           d="m 179.86129,857.17773 c 0.95424,1.68468 0.36288,3.8234 -1.32122,4.77765 -1.68527,0.95307 -3.8234,0.36171 -4.77823,-1.32297 l -11.80388,-20.84145 c -0.95366,-1.68351 -0.36055,-3.82282 1.32355,-4.77764 1.68468,-0.95308 3.82282,-0.36055 4.7759,1.32355 l 11.80388,20.83794 z"
           inkscape:connector-curvature="0"
           style="fill:#ffffff;stroke-width:0.58435053" />
        <path
           id="path12152"
           d="m 176.81682,863.12057 c -1.51697,0 -2.9235,-0.81925 -3.67089,-2.13814 l -11.8033,-20.84144 c -1.14474,-2.02068 -0.43124,-4.59767 1.59061,-5.74417 0.63285,-0.3582 1.34984,-0.54811 2.07269,-0.54811 1.51756,0 2.9235,0.81984 3.66913,2.13872 l 11.80447,20.84086 c 0.55513,0.97937 0.69479,2.11652 0.39502,3.20107 -0.29977,1.08456 -1.0045,1.98796 -1.98445,2.54309 -0.63694,0.35645 -1.34985,0.54929 -2.07445,0.54929 z m -11.80973,-27.85598 c -0.47858,0 -0.95365,0.12622 -1.3738,0.36347 -1.34225,0.76082 -1.81616,2.47004 -1.05592,3.81113 l 11.80329,20.84144 c 0.49612,0.87536 1.42991,1.41939 2.43733,1.41939 0.47917,0 0.95424,-0.12564 1.37497,-0.36347 0.64922,-0.36814 1.1167,-0.9671 1.31596,-1.68702 0.19868,-0.71992 0.10636,-1.47373 -0.26237,-2.12411 l -11.80446,-20.84144 c -0.49086,-0.87653 -1.42582,-1.41998 -2.4309,-1.41998 z"
           inkscape:connector-curvature="0"
           style="stroke-width:0.58435053" />
        <path
           id="path12156"
           d="m 192.57091,849.97853 c 0.95307,1.68527 0.36171,3.82399 -1.32238,4.77648 -1.68527,0.95483 -3.82341,0.36288 -4.77824,-1.32238 l -11.80388,-20.84087 c -0.95249,-1.68468 -0.36055,-3.82281 1.32414,-4.77706 1.68293,-0.95366 3.82282,-0.36171 4.77648,1.32239 l 11.80388,20.84963 z"
           inkscape:connector-curvature="0"
           style="fill:#ffffff;stroke-width:0.58435053" />
        <path
           id="path12158"
           d="m 189.5206,855.92138 c -1.51639,0 -2.92234,-0.81868 -3.66972,-2.13756 l -11.8033,-20.84086 c -1.14357,-2.02243 -0.42949,-4.59884 1.59119,-5.74358 0.63227,-0.3582 1.34868,-0.54753 2.07211,-0.54753 1.51697,0 2.9235,0.81867 3.6703,2.13697 l 11.80388,20.84085 c 0.55455,0.97996 0.69421,2.11711 0.39386,3.20166 -0.29978,1.08456 -1.0045,1.98738 -1.98446,2.54134 -0.62526,0.3623 -1.344,0.54929 -2.0686,0.54929 z m -11.80972,-27.85015 c -0.47917,0 -0.95366,0.12505 -1.37381,0.36347 -1.34109,0.75907 -1.81499,2.46947 -1.05592,3.81113 l 11.80329,20.84027 c 0.49612,0.87595 1.42991,1.41881 2.43616,1.41881 0.47975,0 0.95541,-0.12564 1.37556,-0.36405 0.6498,-0.36755 1.11728,-0.96651 1.31654,-1.68585 0.19927,-0.71934 0.10636,-1.47432 -0.26237,-2.12528 l -11.8033,-20.83969 c -0.48501,-0.87653 -1.41997,-1.41998 -2.4309,-1.41998 z"
           inkscape:connector-curvature="0"
           style="stroke-width:0.58435053" />
        <path
           id="path12162"
           d="m 184.9802,851.17061 c 0.95249,1.68351 -0.0982,3.83509 -1.78227,4.78875 -1.68468,0.95424 -3.82224,0.3623 -4.77649,-1.32239 l -11.80329,-20.84202 c -0.95541,-1.68352 -0.36288,-3.82283 1.32063,-4.77649 1.68585,-0.95424 3.82341,-0.36112 4.77824,1.32297 l 12.25967,20.82625 z"
           inkscape:connector-curvature="0"
           style="fill:#ffffff;stroke-width:0.58435053" />
        <path
           id="path12164"
           d="m 181.4741,857.12514 c -1.5164,0 -2.92234,-0.81867 -3.66856,-2.13697 l -11.80388,-20.84203 c -0.55513,-0.97879 -0.69596,-2.11593 -0.39561,-3.20049 0.29978,-1.08514 1.00451,-1.98854 1.98388,-2.54309 0.63343,-0.35879 1.35102,-0.54812 2.07385,-0.54812 1.5164,0 2.92293,0.81926 3.67031,2.13813 l 12.25792,20.81808 c 1.18331,2.09256 -0.10343,4.66662 -2.04464,5.76637 -0.62526,0.35645 -1.344,0.54929 -2.0686,0.54929 z m -11.80973,-27.85599 c -0.47975,0 -0.95483,0.12563 -1.37498,0.36347 -0.64921,0.36814 -1.11728,0.9671 -1.31654,1.68702 -0.19926,0.71992 -0.10576,1.47373 0.26296,2.12294 l 11.80388,20.84203 c 0.49611,0.87478 1.42874,1.41822 2.43499,1.41822 0.47916,0 0.95424,-0.12505 1.37497,-0.36347 1.34518,-0.76257 2.27488,-2.47998 1.51523,-3.8234 l -12.25734,-20.81749 c -0.50254,-0.89406 -1.4375,-1.4375 -2.44258,-1.4375 z"
           inkscape:connector-curvature="0"
           style="stroke-width:0.58435053" />
        <path
           id="path12168"
           d="m 204.9533,868.28624 c 1.15877,2.04756 0.43885,4.64733 -1.60872,5.8061 l -19.01827,10.77133 c -2.04698,1.15877 -4.64734,0.44002 -5.80728,-1.60755 0,0 -2.21644,-0.7205 -4.87933,-5.43153 -2.66288,-4.71045 -5.02775,-12.06275 -5.02775,-12.06275 -2.87091,-7.03091 22.09956,-17.41715 22.09956,-17.41715 2.04873,-1.15935 3.17361,0.40028 4.33237,2.44726 l 9.91059,17.48961 z"
           inkscape:connector-curvature="0"
           style="fill:#ffffff;stroke-width:0.58435053" />
        <path
           id="path12170"
           d="m 182.22791,886.12645 c -1.70514,0 -3.29223,-0.87769 -4.20032,-2.30643 -0.72634,-0.34535 -2.72015,-1.5982 -5.00788,-5.64658 -2.66697,-4.71921 -4.98743,-11.89153 -5.08502,-12.19423 -3.01641,-7.38151 19.66457,-17.10627 22.46419,-18.27322 0.55806,-0.30912 1.10325,-0.46631 1.61924,-0.46631 1.68584,0 2.72307,1.58242 3.63991,3.20282 l 9.90942,17.49371 c 1.34985,2.3859 0.5078,5.42335 -1.87635,6.77262 l -19.01769,10.77133 c -0.74212,0.42073 -1.58943,0.64863 -2.44258,0.64863 z m 9.79371,-37.46855 c -0.28049,0 -0.60364,0.10226 -0.9595,0.30445 l -0.0765,0.0368 c -6.76445,2.81481 -23.85202,11.26452 -21.71564,16.49563 0.0421,0.12329 2.39292,7.38969 4.98802,11.98093 2.44901,4.33355 4.47203,5.10255 4.49249,5.10957 l 0.24659,0.0894 0.14024,0.23198 c 0.62994,1.11203 1.81559,1.80214 3.09472,1.80214 0.6089,0 1.21312,-0.15952 1.74663,-0.46222 l 19.01769,-10.77133 c 1.70455,-0.96418 2.30584,-3.13621 1.34167,-4.84076 l -9.90942,-17.4937 c -0.88237,-1.531 -1.58943,-2.47764 -2.41921,-2.47764 z"
           inkscape:connector-curvature="0"
           style="stroke-width:0.58435053" />
        <path
           id="path12174"
           d="m 210.83187,865.62744 c -3.66856,-11.49885 -12.49809,-22.06858 -12.49809,-22.06858 -1.15994,-2.04756 -3.75913,-2.7669 -5.80728,-1.60755 l -0.21095,0.11863 c -2.0464,1.15993 -2.76632,3.76087 -1.60755,5.80727 l 5.67405,10.0181 c 0,0 -13.02634,9.26313 -7.64974,17.46332 l 4.81681,0.0578 c 1.15935,2.04698 3.76088,2.7669 5.80727,1.60697 l 9.86792,-5.58932 c 2.04523,-1.15117 1.41998,-2.75813 1.60697,-5.79675 z"
           inkscape:connector-curvature="0"
           style="fill:#ffffff;stroke-width:0.58435053" />
        <path
           id="path12176"
           d="m 197.2574,878.28447 c -1.64903,0 -3.18704,-0.82043 -4.1074,-2.16677 l -4.80745,-0.0573 -0.20686,-0.31613 c -5.1119,-7.797 4.85303,-16.15496 7.31724,-18.04708 l -5.36551,-9.47291 c -1.35044,-2.38415 -0.50897,-5.42278 1.8746,-6.77321 l 0.21212,-0.11979 c 0.74563,-0.42249 1.59118,-0.64513 2.44433,-0.64513 1.76708,0 3.40735,0.94315 4.29556,2.46538 0.6609,0.80465 9.04809,11.1611 12.58867,22.2585 l 0.0409,0.12622 -0.008,0.13323 c -0.0426,0.6872 -0.0415,1.31245 -0.0409,1.86291 0.002,1.91316 0.004,3.42429 -1.92485,4.51645 l -9.86793,5.5893 c -0.74213,0.42074 -1.58944,0.64279 -2.44259,0.64279 z m -8.12831,-3.63466 4.83666,0.0573 0.20102,0.35412 c 0.62935,1.11202 1.81558,1.80214 3.09472,1.80214 0.6089,0 1.21253,-0.15894 1.74546,-0.46164 l 9.86851,-5.5899 c 1.15409,-0.6533 1.20844,-1.30777 1.2061,-3.27996 -5.9e-4,-0.53701 -0.001,-1.14123 0.035,-1.81849 -3.60661,-11.18096 -12.23922,-21.60052 -12.32629,-21.70571 l -0.073,-0.10459 c -0.62992,-1.11202 -1.81557,-1.80214 -3.09413,-1.80214 -0.60889,0 -1.21311,0.15894 -1.74663,0.46222 l -0.21212,0.11979 c -1.70279,0.96418 -2.3035,3.13621 -1.33874,4.8396 l 5.98901,10.5744 -0.52124,0.37048 c -0.13441,0.0877 -12.07853,8.71851 -7.67253,16.18067 z"
           inkscape:connector-curvature="0"
           style="stroke-width:0.58435053" />
        <rect
           style="fill:#ffffff;stroke-width:0.58435607"
           transform="rotate(74.555936)"
           height="5.671175"
           width="81.640388"
           y="-67.464798"
           x="936.13422"
           id="rect12182" />
        <rect
           y="-81.449623"
           x="937.61346"
           height="2.8363574"
           transform="rotate(75.587154)"
           width="78.803284"
           id="rect12186"
           style="stroke-width:0.58433396" />
        <rect
           y="-69.933846"
           x="944.60846"
           height="2.8365586"
           transform="rotate(74.592122)"
           width="70.715271"
           id="rect12190"
           style="stroke-width:0.58437544" />
        <path
           style="fill:#808080;stroke-width:0.58435053"
           inkscape:connector-curvature="0"
           d="m 197.10547,938.86993 c 0,0 26.5114,-36.62943 47.70229,-86.98642 -2.36137,-1.00742 -65.30702,6.81353 -89.86727,34.79749 -0.18056,9.63419 -0.01,20.7497 -0.0263,22.11007 -0.17063,14.00805 -1.10325,93.65973 -0.44878,106.19983 46.00709,26.1187 93.163,15.0266 95.52962,14.0174 -25.57702,-60.76073 -52.88956,-90.14187 -52.88956,-90.14187 z"
           id="path12232" />
        <path
           id="path12234"
           d="m 221.57223,1032.5764 h -0.003 c -16.87078,0 -42.26841,-2.8341 -67.45742,-17.1355 l -0.33776,-0.1081 -0.0199,-0.346 c -0.65155,-12.4788 0.25828,-90.67362 0.44761,-106.22903 0.004,-0.33367 -0.003,-1.24467 -0.0135,-2.58809 -0.0333,-4.27979 -0.0958,-12.24039 0.0403,-19.51146 l 0.005,-0.25712 0.17121,-0.19284 c 12.39992,-14.12842 34.25813,-22.78967 50.41251,-27.56907 17.82269,-5.27318 34.49304,-7.55332 39.06382,-7.55332 0.76726,0 1.03138,0.0678 1.20377,0.14083 l 0.64863,0.27757 -0.27348,0.6498 c -19.70371,46.82108 -44.30721,82.22396 -47.44867,86.65918 3.43481,3.8684 28.95047,33.64515 52.63127,89.91985 l 0.27348,0.6498 -0.64863,0.1093 c -0.95249,0.4032 -11.80388,3.0795 -28.69745,3.0795 z m -66.42313,-18.0506 c 24.81153,13.9835 49.79835,16.8819 66.42313,16.8819 h 0.004 c 14.5363,0 24.72504,-2.13 27.45863,-2.8826 -25.14285,-59.46937 -52.17841,-88.90311 -52.44955,-89.19529 l -0.39677,-0.41547 0.34126,-0.46514 c 0.26354,-0.36347 26.39102,-36.7013 47.24298,-85.94627 -6.46759,0.0871 -64.37205,7.65908 -88.13174,34.44746 -0.12914,7.18167 -0.0684,14.99794 -0.0351,19.21987 0.0105,1.35745 0.0175,2.26787 0.0135,2.60503 -0.18699,15.3918 -1.0752,92.15791 -0.46748,105.74991 z"
           inkscape:connector-curvature="0"
           style="stroke-width:0.58435053" />
        <path
           style="fill:#808080;stroke-width:0.58435053"
           inkscape:connector-curvature="0"
           d="m 355.98453,947.69947 c 0,0 -26.51081,37.63626 -47.70228,89.37643 2.36136,1.0349 65.30701,-7.0005 89.86726,-35.7541 0.17998,-9.89889 0.01,-21.32002 0.0263,-22.71837 0.17005,-14.39372 1.10384,-96.23668 0.44878,-109.12162 -46.0065,-26.83805 -93.163,-15.43912 -95.52962,-14.40307 25.56534,62.43786 52.88372,92.62541 52.88372,92.62541 z"
           id="path12240" />
        <path
           id="path12242"
           d="m 309.21312,1037.8355 h -10e-4 c -0.77134,0 -1.03722,-0.05 -1.21019,-0.1256 l -0.6346,-0.2676 0.26354,-0.6358 c 19.73235,-48.18204 44.38025,-84.59059 47.45978,-89.05503 -3.37112,-3.89645 -28.9271,-34.49538 -52.64238,-92.40334 l -0.26238,-0.6387 0.63344,-0.27815 c 0.94898,-0.41605 11.80505,-3.3419 28.70096,-3.3419 16.87195,0 42.27308,3.08537 67.46911,17.78237 l 0.33132,0.19342 0.0193,0.38392 c 0.65155,12.82065 -0.25886,93.18637 -0.44819,109.16836 -0.004,0.34244 0.004,1.28966 0.0135,2.6699 0.0333,4.39724 0.0958,12.58224 -0.0397,20.05315 l -0.005,0.2536 -0.1642,0.1934 c -12.39992,14.5159 -34.25931,23.3963 -50.41426,28.3071 -17.82269,5.4228 -34.49421,7.7485 -39.06383,7.7485 z m -5.16566,-182.31733 c 25.13759,61.09969 52.19419,91.40995 52.46533,91.70797 l 0.37982,0.42074 -0.32665,0.46397 c -0.26296,0.37282 -26.40329,37.7321 -47.25935,88.34795 6.40799,-0.08 64.37206,-7.8496 88.14343,-35.3988 0.12973,-7.38267 0.0678,-15.42041 0.0357,-19.76096 -0.0105,-1.39484 -0.0175,-2.35084 -0.014,-2.69736 0.18817,-15.82129 1.08222,-94.77582 0.46748,-108.69504 -24.81152,-14.37093 -49.79717,-17.39612 -66.41727,-17.39612 -14.56202,0.006 -24.76478,2.24391 -27.47032,3.01525 z"
           inkscape:connector-curvature="0"
           style="stroke-width:0.58435053" />
        <polygon
           id="polygon12248"
           points="332.78,273 310.18,273 239.3,297.24 189.52,329 188.72,368.6 241.6,366.95 302.12,334.26 "
           style="fill:#b3b3b3"
           transform="matrix(0.58435051,0,0,0.58435051,44.321186,708.8462)" />
        <path
           style="fill:#b3b3b3;stroke-width:0.58435053"
           inkscape:connector-curvature="0"
           d="m 314.8112,870.35483 c 79.95667,-1.07345 84.91781,62.2567 84.91781,62.2567 l -22.68448,13.70653 c 0,0 -12.34733,-22.39055 -25.81661,-31.25165 -13.46928,-8.86167 -31.84126,-24.517 -31.84126,-24.517 0,0 -11.04423,-18.64663 -4.57546,-20.19516 z"
           id="path12250" />
        <path
           id="path12252"
           d="m 397.73053,926.78556 c -11.48482,-30.56679 -33.28402,-44.11203 -49.54825,-50.09286 -17.64446,-6.48863 -32.72187,-5.73891 -32.87089,-5.72664 l -0.11803,-2.12411 c 0.63168,-0.0351 15.66819,-0.78479 33.72228,5.85402 16.68262,6.13452 39.03753,20.02102 50.80577,51.34162 l -1.99263,0.74797 z"
           inkscape:connector-curvature="0"
           style="fill:#cccccc;stroke-width:0.58435053" />
        <path
           id="path12256"
           d="m 398.66549,924.02743 c -8.75708,-23.05847 -24.79224,-39.28472 -47.65962,-48.22587 -17.5948,-6.87838 -33.55224,-7.08759 -38.01785,-6.98999 l -0.0789,-3.54292 c 4.63449,-0.10811 21.18096,0.11336 39.3864,7.2325 23.83975,9.32098 40.55451,26.23384 49.68206,50.26758 l -3.31327,1.25636 z"
           inkscape:connector-curvature="0"
           style="stroke-width:0.58435053" />
        <path
           id="path12260"
           d="m 378.69823,947.27289 c -17.08874,-33.33427 -48.98142,-49.30223 -61.90024,-54.62041 l 0.8099,-1.96634 c 13.13679,5.40758 45.57233,21.65253 62.9813,55.61556 l -1.89329,0.97003 z"
           inkscape:connector-curvature="0"
           style="fill:#cccccc;stroke-width:0.58435053" />
        <path
           id="path12264"
           d="m 376.46602,948.86817 c -22.96206,-38.95806 -62.18074,-54.16462 -62.57226,-54.31421 l 1.25402,-3.31502 c 0.40379,0.1531 40.75786,15.76227 64.37205,55.83001 l -3.05615,1.7998 z"
           inkscape:connector-curvature="0"
           style="stroke-width:0.58435053" />
        <path
           id="path12268"
           d="m 380.41038,946.3613 c -15.07215,-34.89916 -64.2318,-56.13095 -64.7285,-56.34132 l 0.55455,-1.30427 c 0.5002,0.2127 50.17876,21.67005 65.47063,57.08403 l -1.29726,0.56098 z"
           inkscape:connector-curvature="0"
           style="stroke-width:0.58435053" />
        <path
           id="path12272"
           d="m 398.06361,929.48526 c -11.25459,-30.76488 -33.09294,-44.8974 -49.43313,-51.33694 -17.74205,-6.99175 -33.031,-6.69199 -33.17942,-6.6838 l -0.0368,-1.41764 c 0.15543,0 15.68046,-0.32022 33.68547,6.76269 16.62886,6.54239 38.85229,20.90631 50.29446,52.18893 l -1.33232,0.49085 z"
           inkscape:connector-curvature="0"
           style="stroke-width:0.58435053" />
        <path
           id="path12282"
           d="m 346.65245,892.81142 c -0.10693,0 -0.21445,-0.005 -0.32372,-0.014 -2.04465,-0.17589 -3.56571,-1.98153 -3.38982,-4.02617 0.16361,-1.90908 1.79045,-3.40443 3.70303,-3.40443 0.10752,0 0.21504,0.004 0.32314,0.014 2.04522,0.17589 3.56629,1.98212 3.3904,4.02676 -0.16946,1.91083 -1.79396,3.40677 -3.70478,3.40677 z"
           inkscape:connector-curvature="0"
           style="fill:#ffffff;stroke-width:0.58435053" />
        <path
           id="path12284"
           d="m 346.64077,886.07971 c 0.0871,0 0.17471,0.004 0.26178,0.0111 1.65606,0.14258 2.8867,1.60522 2.7447,3.2601 -0.13265,1.54502 -1.4486,2.75521 -2.99655,2.75521 -0.0865,0 -0.17472,-0.004 -0.26296,-0.0123 -1.65429,-0.14142 -2.88552,-1.60287 -2.74411,-3.25834 0.1344,-1.54853 1.44919,-2.75813 2.99772,-2.75813 m 0,-1.41998 c -2.27546,0 -4.212,1.74312 -4.40951,4.05306 -0.2092,2.43791 1.59762,4.58364 4.03494,4.79284 0.12914,0.0111 0.25711,0.0164 0.3845,0.0164 2.27546,0 4.21083,-1.74195 4.40893,-4.05189 0.2092,-2.43791 -1.59761,-4.58365 -4.03495,-4.79343 -0.12855,-0.0175 -0.25711,-0.0234 -0.38567,-0.0234 z"
           inkscape:connector-curvature="0"
           style="stroke-width:0.58435053" />
        <path
           id="path12288"
           d="m 330.83409,886.47706 c -0.10752,0 -0.21563,-0.004 -0.32432,-0.0135 -2.04523,-0.17589 -3.56571,-1.98212 -3.3904,-4.02734 0.1642,-1.90791 1.79045,-3.40267 3.70303,-3.40267 0.10693,0 0.21503,0.004 0.32373,0.014 2.04522,0.17589 3.56512,1.98211 3.38982,4.02734 -0.16947,1.90499 -1.79396,3.40092 -3.70479,3.40092 z"
           inkscape:connector-curvature="0"
           style="fill:#ffffff;stroke-width:0.58435053" />
        <path
           id="path12290"
           d="m 330.8224,879.73951 c 0.0865,0 0.17472,0.004 0.26295,0.0117 1.65547,0.14259 2.88611,1.60463 2.74353,3.2601 -0.13265,1.54444 -1.4486,2.75462 -2.99538,2.75462 -0.0871,0 -0.1753,-0.004 -0.26354,-0.0111 -1.65488,-0.14258 -2.88553,-1.60521 -2.7447,-3.26009 0.12856,-1.54269 1.44919,-2.7523 2.99772,-2.7523 m 0,-1.41996 c -2.27546,0 -4.21083,1.74194 -4.40892,4.05129 -0.2092,2.43791 1.59702,4.58423 4.03494,4.79344 0.12972,0.0111 0.2577,0.0164 0.38509,0.0164 2.27545,0 4.21024,-1.74254 4.40892,-4.05131 0.20861,-2.43849 -1.5982,-4.58423 -4.03552,-4.79342 -0.12272,-0.0117 -0.25128,-0.0175 -0.37399,-0.0175 z"
           inkscape:connector-curvature="0"
           style="stroke-width:0.58435053" />
        <path
           id="path12306"
           d="m 363.51097,911.65088 c -0.25244,0 -0.50605,-0.0111 -0.76142,-0.0327 -2.3333,-0.20102 -4.44866,-1.29726 -5.95628,-3.08829 -1.50762,-1.79104 -2.22754,-4.06241 -2.0277,-6.39572 0.38568,-4.4954 4.21785,-8.0167 8.72377,-8.0167 0.25186,0 0.5043,0.0111 0.76025,0.0333 4.81562,0.41372 8.3977,4.66838 7.98339,9.48401 -0.38567,4.49365 -4.21901,8.01144 -8.72435,8.01144 z"
           inkscape:connector-curvature="0"
           style="fill:#cccccc;stroke-width:0.58435053" />
        <path
           inkscape:connector-curvature="0"
           d="m 363.48759,895.5345 c 0.21095,0 0.42658,0.01 0.63869,0.0281 4.03728,0.3471 7.03909,3.91339 6.69199,7.95067 -0.32315,3.76731 -3.53416,6.71945 -7.30906,6.71945 -0.21153,0 -0.42657,-0.01 -0.64103,-0.0275 -1.95582,-0.16829 -3.72815,-1.08689 -4.99269,-2.58867 -1.26337,-1.5012 -1.867,-3.40559 -1.69871,-5.362 0.33308,-3.76906 3.54116,-6.72003 7.31607,-6.72003 m 0,-2.8341 c -5.23111,0 -9.68094,4.00572 -10.13614,9.31338 -0.48151,5.60509 3.67088,10.53701 9.27481,11.01792 0.29685,0.0257 0.59019,0.038 0.88295,0.038 5.22993,0 9.6786,-4.00513 10.13439,-9.31279 0.4815,-5.60451 -3.67089,-10.53642 -9.27481,-11.01851 -0.28633,-0.0175 -0.58435,-0.0292 -0.87653,-0.0292 z"
           id="path12308"
           style="stroke-width:0.58435053" />
        <path
           style="fill:#ffffff;stroke-width:0.58435053"
           inkscape:connector-curvature="0"
           d="m 289.15236,1055.7167 3.19348,-0.8409 11.70454,-29.7692 c 0,0 42.41274,-65.28361 54.99264,-81.45843 -19.49627,-19.71657 -50.70526,-89.1193 -50.70526,-89.1193 l -1.76474,4.89394 -2.76222,0.93028 c -1.12021,2.99071 -0.27348,4.16934 2.87441,5.37603 -3.77139,4.21491 -2.12586,11.6239 4.52229,13.83332 -4.40191,3.11518 -1.38432,12.08788 4.73792,12.57231 -3.52305,5.15865 -3.6481,14.82205 8.86752,16.1941 -5.48063,5.62964 2.13346,15.4327 8.6852,15.65826 -6.61076,5.91071 -5.99602,16.43369 7.48261,15.11831 0,0 -16.53303,4.12084 -0.98756,13.67673 -1.61806,-1.053 -14.43228,2.80138 -8.43568,10.82276 -12.22169,0.23198 -12.96206,12.30875 -10.36346,15.25447 -6.53537,-0.47976 -8.65423,3.8906 -5.33395,9.72125 -9.20293,-1.52457 -13.37169,6.34429 -8.30362,13.15837 -7.05837,-2.59799 -13.72814,5.6548 -8.12422,11.8536 -6.51668,0.6562 1.86641,6.1485 6.40974,10.7959 -6.46175,0.6977 -17.8262,9.8515 -12.69385,13.1099 -4.69233,0.4809 -7.71693,6.2513 -3.3606,9.5751 -4.406,0.3974 -3.36586,6.685 -0.6311,8.6426 z"
           id="path12458" />
        <path
           inkscape:connector-curvature="0"
           d="m 289.01212,1056.488 -0.27114,-0.1946 c -1.99848,-1.4346 -3.13095,-4.6812 -2.47356,-7.0905 0.32607,-1.195 1.04892,-2.0511 2.08438,-2.4981 -1.26161,-1.4352 -1.68819,-3.2274 -1.16636,-5.0757 0.5972,-2.1206 2.35785,-3.8473 4.50184,-4.5409 -0.46223,-0.665 -0.6311,-1.4603 -0.49378,-2.3544 0.61181,-3.9613 7.52293,-9.1825 12.68917,-10.6662 l 0.239,-0.3675 c -0.74622,-0.7001 -1.54736,-1.4136 -2.32689,-2.1072 -3.69777,-3.2934 -5.937,-5.3994 -5.37719,-7.1255 0.25244,-0.7784 1.00918,-1.1652 1.71741,-1.3651 -1.65839,-2.3608 -1.97218,-5.0885 -0.83913,-7.6386 1.46146,-3.2928 5.11833,-5.3474 8.70098,-4.8437 -1.57132,-2.87442 -1.77467,-5.95044 -0.49904,-8.4871 1.54561,-3.07486 4.91322,-4.72974 9.1223,-4.41244 -1.23473,-2.67866 -1.35569,-5.08268 -0.32023,-6.86319 0.98756,-1.70046 2.97961,-2.6664 5.6273,-2.73652 -0.88237,-2.05107 -0.99398,-5.38479 0.36698,-8.47951 1.01793,-2.3111 3.64167,-6.11405 9.98947,-6.67678 -1.47315,-2.54368 -1.08631,-4.55326 -0.43827,-5.8476 1.43225,-2.85865 5.17326,-4.54391 7.78297,-5.04937 -3.65395,-2.61906 -5.31759,-5.123 -4.95413,-7.46391 0.34126,-2.19832 2.40402,-3.75153 4.36919,-4.75135 -5.33687,-0.49612 -7.21907,-3.27295 -7.87529,-4.99211 -1.21545,-3.18296 -0.0876,-7.20329 2.8078,-10.36112 -3.67323,-0.82803 -7.43819,-4.10039 -9.02003,-8.03716 -1.13598,-2.8265 -0.94899,-5.47829 0.5078,-7.60006 -5.87272,-0.96885 -8.36206,-3.80471 -9.41564,-6.09361 -1.64086,-3.56746 -0.71992,-7.46508 0.74096,-10.09933 -3.18062,-0.76082 -5.30591,-3.59843 -6.05036,-6.30631 -0.70473,-2.56296 -0.26238,-4.96523 1.14532,-6.55525 -2.81248,-1.2657 -4.81855,-3.55285 -5.57996,-6.41499 -0.69012,-2.59393 -0.22264,-5.27961 1.24525,-7.36574 -2.51621,-1.13539 -3.63992,-2.61088 -2.39993,-5.92064 l 0.11804,-0.31555 2.75755,-0.92911 2.24332,-6.22042 0.71816,1.5982 c 0.31146,0.69362 31.37963,69.5085 50.56268,88.90893 l 0.43768,0.44235 -0.38158,0.49144 c -11.20492,14.40541 -45.9428,67.56845 -53.65448,79.40735 0.13616,0.1344 0.26939,0.2694 0.40087,0.4021 l 1.02027,1.0442 -1.45035,0.1566 c -0.35879,0.039 -0.74271,0.1075 -1.14708,0.2045 l -0.0876,0.1344 -11.81031,30.0362 -3.88593,0.9993 z m 13.97766,-30.6258 c -4.75076,1.8302 -9.96259,6.2642 -10.39969,9.0896 -0.1303,0.8426 0.16713,1.4626 0.93614,1.9511 l 1.72441,1.0945 -2.03236,0.2086 c -2.18197,0.2232 -4.1039,1.7899 -4.67247,3.8094 -0.27991,0.9893 -0.43359,2.8914 1.6689,4.496 l 1.44977,1.1056 -1.81616,0.1642 c -1.17629,0.1063 -1.92192,0.7105 -2.21877,1.7957 -0.47099,1.7244 0.32314,4.1822 1.68117,5.3661 l 2.50278,-0.6598 11.18447,-28.4111 z m 1.86408,-23.8999 c -2.66406,0 -5.1826,1.6402 -6.26599,4.0799 -1.05358,2.3725 -0.55455,4.9535 1.36855,7.0806 l 0.9408,1.0401 -1.39543,0.1408 c -1.17863,0.1181 -1.67358,0.3997 -1.74019,0.6043 -0.30211,0.9337 2.87092,3.7597 4.97165,5.6302 0.72285,0.6433 1.46497,1.3037 2.1697,1.9599 l 0.004,-0.01 c 7.91912,-12.1534 41.65133,-63.75852 53.19576,-78.78801 -17.72861,-18.43334 -44.92486,-76.88884 -49.69083,-87.29612 l -1.29082,3.57797 -2.76223,0.93087 c -0.77952,2.26085 -0.23666,3.07134 2.57815,4.15123 l 0.96126,0.36814 -0.68661,0.76667 c -1.61982,1.8109 -2.19657,4.36217 -1.54152,6.82462 0.73161,2.7523 2.83118,4.88927 5.75878,5.86279 l 1.3294,0.44236 -1.14358,0.80874 c -1.92661,1.36329 -2.04464,3.91223 -1.51405,5.84351 0.69654,2.53199 2.79027,5.19721 5.89843,5.44263 l 1.21954,0.097 -0.69012,1.01034 c -1.67533,2.45194 -2.69385,6.38286 -1.19675,9.63886 1.39602,3.03336 4.69993,4.91848 9.5553,5.45024 l 1.44452,0.15835 -1.01327,1.04073 c -2.40635,2.47356 -1.69169,5.51452 -1.05124,7.10804 1.57949,3.92976 5.73189,7.22609 9.25377,7.34763 l 1.76415,0.0602 -1.31537,1.1763 c -3.17711,2.83994 -4.60818,6.88482 -3.48039,9.83695 1.18448,3.10291 4.9588,4.58306 10.42131,4.0478 l 0.24017,1.39309 c -1.82318,0.45638 -6.65108,2.25034 -7.07999,5.02775 -0.32081,2.08088 1.84596,4.61929 6.26832,7.34178 l -0.71874,1.22305 c -0.008,-0.004 -0.1309,-0.0649 -0.50839,-0.0649 -1.96283,0 -6.56635,1.56313 -8.0021,4.42996 -0.81107,1.61806 -0.46923,3.44533 1.01444,5.42979 l 0.82744,1.10675 -1.38258,0.0269 c -6.15496,0.11628 -8.82544,3.27119 -9.98071,5.89726 -1.38841,3.15491 -1.04248,6.84274 0.13557,8.17974 l 1.15001,1.30252 -1.73377,-0.1274 c -2.79671,-0.20744 -4.74726,0.50255 -5.61795,2.00082 -0.91275,1.56898 -0.56507,3.99696 0.95308,6.66218 l 0.73628,1.29434 -1.46789,-0.24426 c -4.14655,-0.68603 -7.56091,0.65856 -8.98322,3.48741 -1.26044,2.51037 -0.75089,5.70618 1.36387,8.54968 l 1.42173,1.9114 -2.23572,-0.8234 c -0.78888,-0.2571 -1.61866,-0.4032 -2.44259,-0.4032 z"
           id="path12460"
           style="stroke-width:0.58435053" />
        <path
           inkscape:connector-curvature="0"
           d="m 161.86913,923.98068 c -4.22543,0 -6.89475,-0.38684 -7.25471,-0.58318 l 0.67902,-1.24467 -0.33951,0.62234 0.27172,-0.65389 c 0.74038,0.24192 11.09974,1.48191 24.91262,-1.69404 12.36486,-2.84111 30.22962,-9.95733 45.11653,-27.72626 l 1.08689,0.91101 c -15.28894,18.2481 -33.66793,25.46774 -46.39392,28.31178 -7.1992,1.6128 -13.53355,2.05691 -18.07396,2.05691 z"
           id="path12464"
           style="stroke-width:0.58435053" />
        <path
           style="fill:#cccccc;stroke-width:0.58435053"
           inkscape:connector-curvature="0"
           d="m 161.87498,926.12524 c -4.212,0 -6.77671,-0.34476 -6.98241,-0.37397 l 0.29335,-2.10601 c 0.39093,0.0532 39.4793,5.05756 67.80803,-26.72877 l 1.58709,1.41529 c -15.21005,17.06537 -33.33485,23.61361 -45.86157,26.10119 -6.78432,1.34401 -12.63366,1.68877 -16.84683,1.68877 z"
           id="path12468" />
        <path
           inkscape:connector-curvature="0"
           d="m 162.43595,929.719 c -4.61286,0 -7.43994,-0.40495 -7.6544,-0.43709 l 0.51773,-3.5061 c 0.37399,0.0566 37.74028,5.14053 65.73944,-24.57019 l 2.57932,2.4309 c -15.31291,16.24903 -33.18936,22.359 -45.48935,24.62394 -6.22918,1.15118 -11.64611,1.46088 -15.68982,1.46088 z"
           id="path12472"
           style="stroke-width:0.58435053" />
        <path
           style="fill:#b3b3b3;stroke-width:0.58435053"
           inkscape:connector-curvature="0"
           d="m 162.72229,935.06581 c -4.69701,0 -7.67311,-0.41255 -8.10027,-0.47566 l 0.83153,-5.61035 -0.41547,2.80488 0.41196,-2.80605 c 0.36931,0.0532 37.21729,5.03359 64.81032,-24.24704 l 4.12727,3.88944 c -21.8664,23.19871 -48.50694,26.43601 -61.66651,26.43601 z"
           id="path12476" />
        <path
           inkscape:connector-curvature="0"
           d="m 162.43595,936.45656 c -4.64208,0 -7.4902,-0.40787 -7.70641,-0.43942 l 0.62292,-4.20791 -0.31146,2.10424 0.30971,-2.10424 c 0.37281,0.0543 37.56555,5.10371 65.42972,-24.46267 l 3.09531,2.91707 c -15.37836,16.31916 -33.33136,22.45485 -45.68394,24.72914 -6.25255,1.14532 -11.69286,1.46087 -15.75994,1.46087 z"
           id="path12480"
           style="stroke-width:0.58435053" />
        <path
           style="fill:#808080;stroke-width:0.58435053"
           inkscape:connector-curvature="0"
           d="m 162.72229,941.44692 c -4.69701,0 -7.67311,-0.41255 -8.10027,-0.47566 l 0.83153,-5.61035 -0.41547,2.80546 0.41196,-2.80604 c 0.36931,0.0537 37.21729,5.03359 64.81032,-24.24705 l 4.12727,3.88944 c -21.8664,23.19871 -48.50694,26.43602 -61.66651,26.43602 z"
           id="path12484" />
        <path
           style="fill:#cccccc;stroke-width:0.58435053"
           inkscape:connector-curvature="0"
           d="m 155.85032,905.83075 -1.56781,-1.43691 c 7.48962,-8.17039 48.2171,-37.86124 86.71762,-35.70032 l -0.11979,2.12412 c -37.7432,-2.13873 -77.6894,27.00284 -85.03469,35.01429 z"
           id="path12492" />
        <path
           inkscape:connector-curvature="0"
           d="m 155.49971,903.00834 -2.39057,-2.61731 c 0.41079,-0.37515 10.23957,-9.29117 26.28291,-18.19141 14.83199,-8.22766 37.91266,-17.92612 63.71174,-17.28684 l -0.0859,3.5435 c -47.81156,-1.13949 -87.12666,34.19619 -87.51818,34.55264 z"
           id="path12496"
           style="stroke-width:0.58435053" />
        <path
           style="fill:#ffffff;stroke-width:0.58435053"
           inkscape:connector-curvature="0"
           d="m 263.13124,1047.0741 c 4.35516,-3.3238 1.33173,-9.0942 -3.36002,-9.5752 -1.37381,-1.8675 2.40226,-10.5282 -4.05948,-11.2259 4.54332,-4.6462 4.29205,-12.023 -2.22521,-12.6792 5.60334,-6.1988 -1.06644,-14.45162 -8.12481,-11.8536 5.06924,-6.81353 0.8999,-14.68297 -8.3042,-13.1584 3.32086,-5.83065 1.20259,-10.20101 -5.33279,-9.72126 2.59744,-2.94571 1.85707,-15.02248 -10.36345,-15.25447 5.99602,-8.02138 -6.81821,-11.87517 -8.43627,-10.82276 15.54606,-9.55646 -0.98814,-13.67672 -0.98814,-13.67672 13.47805,1.31538 14.09454,-9.20761 7.48319,-15.11831 6.55174,-0.22615 14.16583,-10.02921 8.68579,-15.65826 12.51445,-1.37205 12.38998,-11.03546 8.86693,-16.1941 6.12224,-0.48443 9.141,-9.45713 4.73792,-12.5723 6.64874,-2.21002 8.29368,-9.61841 4.52229,-13.83334 3.14848,-1.20668 3.99579,-2.3859 2.87559,-5.37602 0,0 -2.76457,-1.77117 -2.90248,-3.73458 -0.076,-0.9636 -0.17121,-0.22089 -0.17121,-0.22089 l -1.45328,-1.86875 c 0,0 -31.20841,69.40331 -50.70468,89.11929 12.5799,16.17482 54.99265,81.45847 54.99265,81.45847 l 11.70512,29.7691 3.1923,0.8409 c 2.74645,-1.9517 3.78075,-8.2393 -0.62525,-8.6367 z"
           id="path12500" />
        <path
           inkscape:connector-curvature="0"
           d="m 263.90842,1056.488 -3.86314,-1.0179 -11.80973,-30.0356 c -1.50119,-2.3082 -42.66693,-65.5934 -54.91901,-81.34749 l -0.38216,-0.49144 0.43767,-0.44235 c 19.18482,-19.40102 50.25064,-88.2194 50.5621,-88.90893 l 0.48326,-1.07404 1.75247,2.25326 c 0.65505,0.0386 0.71115,0.75556 0.7427,1.14591 0.0929,1.32589 1.89272,2.75346 2.57874,3.19348 l 0.1981,0.12739 0.083,0.22088 c 1.24057,3.30976 0.1157,4.78525 -2.40051,5.92064 1.46788,2.08671 1.93595,4.7718 1.24525,7.36632 -0.76083,2.86098 -2.7669,5.14872 -5.57997,6.41442 1.4077,1.59001 1.85006,3.9917 1.14475,6.55466 -0.74388,2.70729 -2.86975,5.54607 -6.05037,6.30631 1.46029,2.63425 2.38123,6.53186 0.74037,10.09933 -1.053,2.2889 -3.54233,5.12475 -9.41505,6.0936 1.45737,2.12178 1.64495,4.77298 0.50838,7.60007 -1.58242,3.93676 -5.34681,7.20971 -9.02003,8.03715 2.89545,3.15842 4.02325,7.17816 2.8078,10.36112 -0.65681,1.71916 -2.53841,4.496 -7.87587,4.99211 1.96459,0.99982 4.02793,2.55302 4.3686,4.75135 0.36288,2.34267 -1.30193,4.84719 -4.95354,7.46391 2.60971,0.50488 6.35014,2.19073 7.7818,5.05054 0.64804,1.29376 1.03488,3.30275 -0.43826,5.84643 6.34779,0.56273 8.97211,4.36451 9.98888,6.67621 1.36212,3.0953 1.25051,6.42902 0.36815,8.48009 2.64769,0.0701 4.63857,1.03547 5.62729,2.73651 1.03547,1.78052 0.91509,4.18512 -0.32139,6.8632 4.20907,-0.31438 7.57727,1.33816 9.12288,4.41243 1.27505,2.53842 1.07228,5.61327 -0.49963,8.48713 3.58324,-0.502 7.24011,1.5508 8.70215,4.8437 1.13248,2.5501 0.81868,5.2772 -0.83795,7.6374 2.10191,0.5271 3.61128,1.8325 4.31017,3.7591 0.98696,2.719 0.16303,6.1936 -2.04465,8.9646 3.71296,1.1628 3.4015,5.3789 3.18939,8.2592 -0.0771,1.0407 -0.16187,2.2006 -0.004,2.7634 2.58108,0.4225 4.80862,2.3409 5.49699,4.7817 0.52182,1.8483 0.0964,3.6405 -1.16637,5.0763 1.03606,0.4476 1.75948,1.3031 2.08614,2.4981 0.65622,2.4098 -0.47625,5.6565 -2.47531,7.0905 l -0.27465,0.2045 z m -2.80488,-2.203 2.50219,0.6597 c 1.3592,-1.1833 2.15216,-3.6405 1.68176,-5.3661 -0.29627,-1.0851 -1.04248,-1.6899 -2.21878,-1.7957 l -1.81558,-0.1642 1.44919,-1.1056 c 2.10308,-1.6052 1.94822,-3.5066 1.67007,-4.4971 -0.56974,-2.0184 -2.49108,-3.585 -4.67305,-3.8082 l -0.31204,-0.033 -0.18582,-0.253 c -0.60189,-0.8181 -0.49963,-2.196 -0.37107,-3.9403 0.28458,-3.8666 0.22264,-6.6329 -3.19347,-7.0011 l -1.45153,-0.1566 1.02145,-1.0436 c 2.41395,-2.4689 3.46637,-5.9364 2.56004,-8.4345 -0.64337,-1.7694 -2.14632,-2.823 -4.34933,-3.0439 l -1.39484,-0.1408 0.94081,-1.0402 c 1.92251,-2.1276 2.42155,-4.7087 1.36796,-7.0806 -1.08397,-2.4402 -3.60252,-4.0799 -6.26541,-4.0799 -0.82335,0 -1.6502,0.1513 -2.45778,0.4482 l -2.23513,0.8233 1.4223,-1.9114 c 2.11419,-2.84341 2.62374,-6.03922 1.36212,-8.54901 -1.42114,-2.83001 -4.83783,-4.17284 -8.98205,-3.48799 l -1.46905,0.24426 0.73686,-1.29433 c 1.51815,-2.66582 1.86583,-5.0932 0.95366,-6.66219 -0.87068,-1.49769 -2.82416,-2.20592 -5.61794,-2.00081 l -1.7326,0.12739 1.14883,-1.30252 c 1.17863,-1.33699 1.5234,-5.02541 0.13499,-8.18091 -1.15585,-2.62549 -3.82458,-5.77981 -9.98071,-5.89609 l -1.38141,-0.0269 0.82745,-1.10675 c 1.48366,-1.98446 1.82492,-3.81114 1.01384,-5.42979 -1.43633,-2.86624 -6.03926,-4.42996 -8.00268,-4.42996 -0.37749,0 -0.5002,0.0596 -0.50079,0.0608 l -0.76549,-1.19266 c 0.005,-0.004 0.0105,-0.006 0.0152,-0.01 0.003,-0.002 0.005,-0.004 0.008,-0.005 4.44632,-2.74177 6.6055,-5.27668 6.28352,-7.35405 -0.43125,-2.78326 -5.25682,-4.57254 -7.07999,-5.02658 l 0.24017,-1.39368 c 5.46075,0.53527 9.23799,-0.94548 10.42305,-4.0478 1.12722,-2.95155 -0.30444,-6.99642 -3.48155,-9.83695 l -1.31537,-1.1763 1.76356,-0.0602 c 3.52305,-0.12155 7.67428,-3.41787 9.25436,-7.34763 0.64045,-1.59352 1.35511,-4.63448 -1.05241,-7.10804 l -1.01326,-1.04072 1.44451,-0.15836 c 4.85595,-0.53235 8.15987,-2.41688 9.5553,-5.45024 1.49769,-3.25483 0.478,-7.18634 -1.19675,-9.63886 l -0.68953,-1.01034 1.21895,-0.097 c 3.10816,-0.24601 5.2013,-2.91124 5.89844,-5.44323 0.53175,-1.93128 0.41254,-4.48022 -1.51406,-5.84351 l -1.14416,-0.80874 1.3294,-0.44235 c 2.92876,-0.97294 5.02775,-3.10991 5.75994,-5.86279 0.65506,-2.46245 0.0783,-5.01372 -1.54268,-6.82462 l -0.68603,-0.76667 0.96009,-0.36815 c 2.85806,-1.09565 3.37462,-1.91491 2.54367,-4.25407 -0.69478,-0.48092 -2.72073,-2.0312 -2.99888,-3.91748 l -0.78245,-1.00625 c -4.01507,8.79564 -31.8769,69.04685 -49.9269,87.81035 12.90538,16.79949 54.23006,80.37152 54.65021,81.02022 l 0.0649,0.1268 11.57014,29.4162 z"
           id="path12502"
           style="stroke-width:0.58435053" />
        <path
           inkscape:connector-curvature="0"
           d="m 155.68671,907.35591 -0.93497,-1.06586 c 0.39678,-0.34885 40.19456,-34.8267 81.39419,-35.42508 l 0.021,1.41764 c -40.67665,0.58435 -80.09109,34.72211 -80.4826,35.06687 z"
           id="path12506"
           style="stroke-width:0.58435053" />
        <path
           style="fill:#ffffff;stroke-width:0.58435053"
           inkscape:connector-curvature="0"
           d="m 211.93045,899.29187 c -1.46498,0 -2.65822,-1.19266 -2.65822,-2.65821 0,-1.46555 1.19324,-2.6588 2.65822,-2.6588 1.46555,0 2.65879,1.19325 2.65879,2.6588 0,1.46672 -1.19208,2.65879 -2.65879,2.65879 z"
           id="path12510" />
        <path
           inkscape:connector-curvature="0"
           d="m 211.93045,894.68719 c 1.0752,0 1.94939,0.87477 1.94939,1.94939 0,1.07462 -0.87419,1.9494 -1.94939,1.9494 -1.07521,0 -1.9494,-0.87419 -1.9494,-1.9494 0,-1.0752 0.87653,-1.95172 1.95173,-1.95172 m 0,-1.41998 c -1.8594,0 -3.36703,1.50762 -3.36703,3.36761 0,1.85941 1.50821,3.36703 3.36703,3.36703 1.8594,0 3.36761,-1.50762 3.36761,-3.36703 0,-1.85823 -1.50762,-3.36586 -3.36586,-3.36586 z"
           id="path12512"
           style="stroke-width:0.58435053" />
        <path
           style="fill:#ffffff;stroke-width:0.58435053"
           inkscape:connector-curvature="0"
           d="m 172.22967,905.67298 c -1.46555,0 -2.6588,-1.19266 -2.6588,-2.65821 0,-1.46555 1.19325,-2.6588 2.6588,-2.6588 1.46555,0 2.65821,1.19325 2.65821,2.6588 0,1.46672 -1.19208,2.65879 -2.65879,2.65879 z"
           id="path12516" />
        <path
           inkscape:connector-curvature="0"
           d="m 172.22967,901.06245 c 1.0752,0 1.94881,0.87478 1.94881,1.9494 0,1.07462 -0.87419,1.94939 -1.94881,1.94939 -1.07462,0 -1.94939,-0.87419 -1.94939,-1.94939 0,-1.07521 0.88236,-1.95173 1.95757,-1.95173 m 0,-1.41413 c -1.85999,0 -3.36761,1.50762 -3.36761,3.36761 0,1.8594 1.50762,3.36703 3.36761,3.36703 1.8594,0 3.36703,-1.50821 3.36703,-3.36703 0.006,-1.85824 -1.50178,-3.36586 -3.36586,-3.36586 z"
           id="path12518"
           style="stroke-width:0.58435053" />
        <path
           style="fill:#ffffff;stroke-width:0.58435053"
           inkscape:connector-curvature="0"
           d="m 206.96931,887.94963 c -1.46555,0 -2.6588,-1.19324 -2.6588,-2.65821 0,-1.46556 1.19325,-2.65821 2.6588,-2.65821 1.46555,0 2.65821,1.19265 2.65821,2.65821 0,1.46672 -1.19208,2.65879 -2.6588,2.65879 z"
           id="path12522" />
        <path
           inkscape:connector-curvature="0"
           d="m 206.96931,883.34495 c 1.0752,0 1.94939,0.87418 1.94939,1.94939 0,1.07462 -0.87477,1.94939 -1.94939,1.94939 -1.07462,0 -1.9494,-0.87477 -1.9494,-1.94939 0,-1.08105 0.87653,-1.95173 1.95173,-1.95173 m 0,-1.41997 c -1.8594,0 -3.36761,1.5082 -3.36761,3.36761 0,1.8594 1.50821,3.36702 3.36761,3.36702 1.85941,0 3.36703,-1.50762 3.36703,-3.36702 0,-1.85941 -1.50762,-3.36586 -3.36585,-3.36586 z"
           id="path12524"
           style="stroke-width:0.58435053" />
        <path
           inkscape:connector-curvature="0"
           d="m 176.48374,912.41054 c 1.07521,0 1.9494,0.87477 1.9494,1.94939 0,1.07462 -0.87419,1.9494 -1.9494,1.9494 -1.07521,0 -1.94939,-0.87419 -1.94939,-1.9494 0,-1.0752 0.87653,-1.95173 1.95172,-1.95173 m 0,-1.41997 c -1.8594,0 -3.36702,1.50763 -3.36702,3.36761 0,1.8594 1.50762,3.36703 3.36702,3.36703 1.85941,0 3.36704,-1.50763 3.36704,-3.36703 0.006,-1.85823 -1.50763,-3.36585 -3.36586,-3.36585 z"
           id="path12530"
           style="stroke-width:0.58435053" />
        <path
           style="fill:#cccccc;stroke-width:0.58435053"
           inkscape:connector-curvature="0"
           d="m 192.68778,907.63055 c -4.83375,0 -8.76584,-3.93209 -8.76584,-8.76584 0,-4.83375 3.93209,-8.76584 8.76584,-8.76584 4.83316,0 8.76584,3.93209 8.76584,8.76584 0,4.83258 -3.93268,8.76526 -8.76525,8.76526 z"
           id="path12534" />
        <path
           id="path12536"
           d="m 192.68778,891.52001 c 4.05247,0 7.34821,3.29632 7.34821,7.34821 0,4.05188 -3.29574,7.3482 -7.34821,7.3482 -4.05188,0 -7.34762,-3.29632 -7.34762,-7.3482 0,-4.05189 3.28989,-7.34529 7.34528,-7.34529 m 0,-2.8341 c -5.62437,0 -10.18347,4.55852 -10.18347,10.18348 0,5.62437 4.55968,10.18347 10.18347,10.18347 5.62379,0 10.18348,-4.5591 10.18348,-10.18347 -0.006,-5.62729 -4.56378,-10.18523 -10.18523,-10.18523 z"
           inkscape:connector-curvature="0"
           style="stroke-width:0.58435053" />
        <path
           style="fill:#ffffff;stroke-width:0.58435053"
           inkscape:connector-curvature="0"
           d="m 284.06267,832.93303 c 0.28224,0.004 -12.65879,-34.87171 -12.38239,-34.87871 l -22.02183,0.0292 -0.4295,-0.72284 c -0.21562,4.32069 -0.47683,10.46163 -1.82434,14.70226 -2.45077,7.71284 -9.21989,11.62682 -9.75515,13.23262 -0.53527,1.6052 3.99579,2.98719 5.84059,3.16951 0.15543,0.0164 0.30911,-0.0438 0.46397,-0.0649 l -0.1122,0.46105 c 2.84287,3.43949 -1.45211,4.27219 -1.25167,7.3371 0.0678,1.04483 1.77233,2.30352 1.77233,2.30352 -2.65821,3.89937 -0.0987,2.04464 1.55847,5.26266 1.48425,2.88143 -2.44435,8.10669 -2.00141,11.21952 0.76024,5.32929 8.19551,5.54608 12.51971,5.47829 7.44755,-0.11453 14.55208,-1.10208 21.39425,-4.17577 4.81913,-2.16385 9.7154,-4.83257 13.62822,-8.42633 l -7.39788,-14.92431 z"
           id="path12542" />
        <path
           inkscape:connector-curvature="0"
           d="m 255.44702,861.18053 c -2.80955,0 -11.35918,0 -12.2287,-6.09594 -0.22088,-1.55028 0.45171,-3.38047 1.16286,-5.31701 0.78478,-2.1358 1.59644,-4.34523 0.91042,-5.67755 -0.54813,-1.0641 -1.19325,-1.47315 -1.71039,-1.80214 -0.45346,-0.28691 -0.92153,-0.58493 -1.04775,-1.19675 -0.12095,-0.5861 0.10519,-1.23765 0.88354,-2.44608 -0.60422,-0.53586 -1.47198,-1.46088 -1.53333,-2.4011 -0.0976,-1.49944 0.6942,-2.56004 1.33114,-3.41202 0.88588,-1.18448 1.41998,-1.89915 0.0818,-3.51897 l -0.14492,-0.17413 c -1.5719,-0.22147 -5.00086,-1.17104 -5.96505,-2.65705 -0.37106,-0.57265 -0.31847,-1.08279 -0.20919,-1.41003 0.22322,-0.66967 1.00099,-1.4001 2.17846,-2.50569 2.36603,-2.22112 5.94109,-5.5788 7.57318,-10.71699 1.27213,-4.00163 1.55846,-9.81066 1.76883,-14.05305 l 0.13966,-2.8154 1.42406,2.39408 21.61863,-0.0286 0.009,0.70882 0.68837,-0.0853 c 0.14608,0.71116 3.33196,9.48635 6.14269,17.22899 4.55618,12.55185 5.88441,16.20872 6.16197,17.42767 l 0.0152,-0.008 7.63629,15.40465 -0.39209,0.35996 c -3.40911,3.13095 -7.79934,5.84818 -13.81815,8.5508 -6.13918,2.75814 -13.02634,4.10447 -21.67355,4.23829 -0.32724,0.0234 -0.66032,0.0234 -1.01093,0.0234 z m -10.83385,-32.48404 c 1.73552,2.31402 0.63168,3.79068 -0.26238,4.98743 -0.57383,0.76784 -1.11669,1.4936 -1.05241,2.47122 0.0298,0.46806 0.88295,1.33407 1.48659,1.77992 l 0.54812,0.40555 -0.38392,0.5639 c -0.96359,1.41354 -1.03898,1.80271 -1.0267,1.90439 0.0327,0.0397 0.25535,0.18174 0.41781,0.28458 0.59252,0.37574 1.48658,0.94315 2.21118,2.34968 0.97236,1.88687 0.0514,4.39256 -0.83913,6.81586 -0.62058,1.68702 -1.26103,3.43189 -1.0904,4.62864 0.46748,3.28229 4.00923,4.87816 10.82451,4.87816 0.34126,0 0.66967,-0.004 0.98171,-0.008 8.44795,-0.1303 15.15747,-1.4375 21.11551,-4.11382 5.64365,-2.53433 9.80598,-5.06924 13.04445,-7.946 l -7.67544,-15.48471 0.20452,0.002 c -0.82627,-2.46947 -3.51545,-9.87844 -5.93115,-16.5301 -4.115,-11.33524 -5.57822,-15.36784 -6.02115,-16.91812 l -21.29783,0.0281 c -0.21328,4.20966 -0.55221,9.60029 -1.78694,13.48564 -1.7437,5.48997 -5.63197,9.14041 -7.95477,11.32179 -0.8327,0.78245 -1.69403,1.59119 -1.8033,1.92018 -0.008,0.0245 -0.0239,0.0707 0.0538,0.19049 0.58786,0.90633 3.55753,1.88862 5.18436,2.0499 0.0123,-0.004 0.0473,-0.0128 0.0818,-0.0216 0.073,-0.0163 0.14492,-0.0315 0.21796,-0.0409 l 1.02845,-0.1379 -0.24542,1.12195 z"
           id="path12544"
           style="stroke-width:0.58435053" />
        <polygon
           style="fill:#e6e6e6"
           points="319.29,100 350.04,130 469.37,130 496.44,100 "
           id="polygon12548"
           transform="matrix(0.58435051,0,0,0.58435051,44.321186,708.8462)" />
        <path
           inkscape:connector-curvature="0"
           d="M 318.91918,785.39611 H 248.58091 L 229.17112,766.6969 h 106.82512 l -17.07473,18.69921 z m -69.75977,-1.1687 h 69.12283 L 332.83139,767.8656 H 232.62697 l 16.53128,16.36181 z"
           id="path12550"
           style="stroke-width:0.58435053" />
        <path
           style="fill:#808080;stroke-width:0.58435053"
           inkscape:connector-curvature="0"
           d="m 248.86724,784.81176 h 69.73055 l 13.68782,-15.35789 c 0,0 -11.36094,11.35392 -26.13157,11.61162 -14.76946,0.25887 -24.57486,-11.58007 -24.57486,-11.58007 0,0 -13.10114,11.59117 -24.33937,11.59585 -11.23823,0.004 -24.92605,-11.62974 -24.92605,-11.62974 l 16.55465,15.36257 z"
           id="path12554" />
        <path
           id="path12556"
           d="m 318.59779,785.39611 h -69.73055 c -0.17998,0 -0.35354,0.16712 -0.48501,0.0444 l -16.55407,-15.40523 c -0.2799,-0.26237 -0.29977,-0.64103 -0.045,-0.92795 0.25536,-0.28691 0.69187,-0.28983 0.9858,-0.0438 0.13499,0.11277 13.61712,11.31711 24.46383,11.31594 10.8514,-0.004 23.74801,-11.27504 23.87657,-11.38958 0.14433,-0.12563 0.33483,-0.18465 0.52475,-0.1718 0.19049,0.0152 0.3693,0.10928 0.49143,0.25712 0.0941,0.11336 9.56348,11.37204 23.55225,11.37088 0.15368,0 0.30912,-5.9e-4 0.46398,-0.004 14.31892,-0.2501 25.5326,-11.20785 25.6448,-11.31829 0.27172,-0.26938 0.70707,-0.27523 0.98522,-0.0123 0.27815,0.26237 0.2986,0.69771 0.0456,0.98463 l -13.68841,15.29538 c -0.1344,0.14608 -0.32724,0 -0.53176,0 z m -69.45006,-1.1687 h 69.12866 l 8.35212,-9.36597 c -4.80394,3.16718 -12.05631,6.79717 -20.46336,6.94384 -13.30158,0.2542 -22.49516,-8.9242 -24.65902,-11.30952 -2.6284,2.20709 -14.0583,11.29842 -24.26748,11.30251 -5.87332,0 -12.29941,-3.08011 -17.21789,-6.02407 l 9.12755,8.45555 z"
           inkscape:connector-curvature="0"
           style="stroke-width:0.58435053" />
        <path
           inkscape:connector-curvature="0"
           d="m 250.43914,829.61391 c -0.6942,0 -1.4153,-0.30561 -2.08262,-0.5896 -1.33057,-0.56565 -2.58751,-1.10033 -3.97709,-0.0543 -0.31263,0.23549 -0.75791,0.1718 -0.99281,-0.13966 -0.2355,-0.31321 -0.17297,-0.75732 0.13965,-0.99282 2.04231,-1.53801 3.97476,-0.71758 5.38538,-0.11803 1.07871,0.45988 1.58651,0.62817 1.92368,0.32431 0.83504,-0.75381 0.82043,-1.68994 0.55338,-2.26261 -0.16479,-0.35528 -0.0111,-0.77718 0.34418,-0.94138 0.35529,-0.16596 0.77602,-0.0117 0.94256,0.34301 0.61883,1.33057 0.2688,2.86683 -0.89055,3.91281 -0.42073,0.37398 -0.88237,0.51423 -1.34985,0.51423 z"
           id="path12562"
           style="stroke-width:0.58435053" />
        <path
           inkscape:connector-curvature="0"
           d="m 244.16322,839.13299 c -0.0859,0 -0.17355,-0.0164 -0.25887,-0.0491 -1.20026,-0.47274 -1.97569,-1.28616 -2.18314,-2.29124 -0.22439,-1.08631 0.24602,-2.27487 1.32473,-3.34716 1.00157,-0.99573 0.93613,-2.56121 -0.19225,-4.65668 -0.18524,-0.34477 -0.0567,-0.77427 0.2875,-0.9601 0.34476,-0.18699 0.77426,-0.0573 0.96009,0.28692 1.822,3.37989 0.97528,5.31 -0.0549,6.33436 -0.72869,0.72401 -1.0606,1.45387 -0.93613,2.05575 0.10752,0.52007 0.57383,0.96709 1.3142,1.25869 0.36464,0.14316 0.54345,0.55513 0.40029,0.91918 -0.11103,0.28049 -0.37399,0.44995 -0.66032,0.44995 z"
           id="path12566"
           style="stroke-width:0.58435053" />
        <path
           inkscape:connector-curvature="0"
           d="m 254.82177,861.19222 c -4.54449,0 -11.5532,-0.50488 -12.31343,-5.83708 -0.22732,-1.59469 0.61532,-3.51662 1.50762,-5.55133 0.95249,-2.1732 1.93829,-4.41944 1.27389,-5.70968 -0.58026,-1.12722 -1.15644,-1.40478 -1.66307,-1.64904 -1.33465,-0.64396 -1.46613,-1.42465 -0.63927,-3.79945 l 1.33874,0.46631 c -0.5113,1.47081 -0.45696,1.80214 -0.42833,1.86875 0.0333,0.0362 0.21388,0.1233 0.34535,0.18699 0.60071,0.29043 1.50938,0.72811 2.30644,2.27663 0.97411,1.89155 -0.1496,4.45217 -1.23474,6.92923 -0.77368,1.76299 -1.57365,3.58675 -1.40302,4.78116 0.68193,4.787 8.67585,4.66428 12.51503,4.6041 8.44796,-0.13032 15.15747,-1.4375 21.11551,-4.11383 5.87447,-2.63835 10.14491,-5.27669 13.43831,-8.30187 l 0.96008,1.04424 c -3.4091,3.13094 -7.79932,5.84818 -13.81813,8.55079 -6.13919,2.75814 -13.02634,4.10448 -21.67357,4.2383 -0.49085,0 -1.04014,0.0117 -1.63033,0.0117 z"
           id="path12570"
           style="stroke-width:0.58435053" />
        <path
           id="path12574"
           d="m 253.33752,813.45078 c 0,-1.58885 0.99398,-2.65821 1.89096,-2.65821 0.89756,0 1.6245,1.28674 1.6245,2.87676 0,1.58768 -0.72694,2.87383 -1.6245,2.87383 -0.89991,0 -1.8933,-1.50762 -1.8933,-3.09121 z"
           inkscape:connector-curvature="0"
           style="stroke-width:0.58435053" />
        <path
           id="path12576"
           d="m 242.98867,838.01688 c 0.86075,0.52124 -0.0111,0.14726 1.20201,0.194 0.0462,-0.0152 0.16011,0.4558 0.20394,0.45346 1.76123,-0.0765 7.19686,1.0156 7.70933,0.98521 -0.78303,-1.01677 -7.953,-2.48933 -9.11586,-1.63618 z"
           inkscape:connector-curvature="0"
           style="stroke-width:0.58435053" />
        <path
           id="path12578"
           d="m 264.75573,833.56997 c 1.05183,0.6907 1.77934,2.12937 1.82259,3.27178 5.8e-4,0.0116 -0.004,0.0245 -0.004,0.0368 0.3208,1.65839 -1.17864,3.58383 -2.87151,3.89879 -2.68567,0.49904 -4.98159,-9.89188 -18.98262,-10.51246 0.49611,1.81265 -1.49535,4.25115 -2.56881,5.50984 l 0.0485,1.15701 c 6.50733,-4.09688 17.10102,5.38947 18.26329,6.0714 3.1964,1.87401 6.11523,-0.0695 7.14369,-3.81464 0.64863,-2.35493 -1.06352,-5.18903 -2.84579,-5.6156 z"
           inkscape:connector-curvature="0"
           style="stroke-width:0.58435053" />
        <path
           inkscape:connector-curvature="0"
           d="m 252.2331,810.34788 c -0.0409,0.006 0.0409,0 0,0 z"
           id="path12580"
           style="stroke-width:0.58435053" />
        <path
           style="fill:#ffffff;stroke-width:0.58435053"
           inkscape:connector-curvature="0"
           d="m 245.33776,850.46939 -15.77279,17.27982 c 0,0 31.97508,19.09892 65.40636,-15.47243 -1.38083,-1.8407 -2.01718,-3.21685 -3.94612,-6.43486 -0.19284,-0.3214 -0.2764,-1.17279 -0.57208,-0.95542 -37.90682,27.94949 -45.11771,5.5864 -45.11771,5.5864 z"
           id="path12584" />
        <path
           inkscape:connector-curvature="0"
           d="m 251.58447,873.7207 c -13.24957,0 -22.01482,-5.14463 -22.38121,-5.36318 l -0.74563,-0.44527 17.18224,-18.82252 0.37515,1.16228 c 0.10577,0.32373 2.73184,7.98105 12.99479,7.98105 8.06462,0 18.50288,-4.68298 31.02668,-13.9163 0.15543,-0.11336 0.33074,-0.17356 0.51247,-0.17356 0.66032,0 0.86484,0.65565 0.98814,1.04716 0.0333,0.10694 0.0608,0.21621 0.10051,0.28984 0.63285,1.05534 1.12721,1.91433 1.55553,2.65646 0.8701,1.51171 1.44569,2.51037 2.34909,3.71472 l 0.3623,0.48384 -0.42015,0.43476 c -13.44006,13.89 -28.21244,20.94312 -43.89641,20.94312 z m -20.88469,-6.1649 c 2.40402,1.22772 10.22847,4.74726 20.88177,4.74726 15.12591,0 29.41036,-6.75977 42.46417,-20.09114 -0.75732,-1.06118 -1.30545,-2.01542 -2.08439,-3.36819 -0.42423,-0.73687 -0.91392,-1.58886 -1.54326,-2.63776 -0.0578,-0.0964 -0.10402,-0.20044 -0.14317,-0.30913 -12.50802,9.12639 -23.02633,13.75328 -31.26801,13.75328 -8.93472,0 -12.68216,-5.52445 -13.8795,-7.89984 l -14.42761,15.80084 z"
           id="path12586"
           style="stroke-width:0.58435053" />
        <path
           inkscape:connector-curvature="0"
           d="m 233.37611,870.22628 c -0.17531,0 -0.3512,-0.0643 -0.48794,-0.19459 -0.2834,-0.26997 -0.29568,-0.71875 -0.0263,-1.00217 L 243.85,857.45062 c 0.26996,-0.28341 0.71874,-0.29509 1.00215,-0.0263 0.284,0.26996 0.29568,0.71874 0.0263,1.00216 l -10.98812,11.5789 c -0.14609,0.14024 -0.33309,0.21621 -0.52008,0.21621 z"
           id="path12590"
           style="stroke-width:0.58435053" />
        <path
           inkscape:connector-curvature="0"
           d="m 237.39059,871.87999 c -0.17238,0 -0.34535,-0.0631 -0.48267,-0.18992 -0.28633,-0.26587 -0.30328,-0.71407 -0.0368,-1.00157 l 9.21579,-9.92461 c 0.26647,-0.2875 0.71466,-0.3027 1.00158,-0.0368 0.28633,0.26647 0.30327,0.71466 0.0368,1.00216 l -9.2152,9.92461 c -0.1344,0.14609 -0.3214,0.22206 -0.51423,0.22206 z"
           id="path12594"
           style="stroke-width:0.58435053" />
        <path
           inkscape:connector-curvature="0"
           d="m 242.70818,872.94351 c -0.14258,0 -0.28691,-0.0433 -0.41197,-0.13265 -0.31846,-0.22848 -0.39151,-0.67083 -0.16303,-0.98931 l 6.85268,-9.57049 c 0.22731,-0.31788 0.66967,-0.39151 0.98814,-0.1642 0.31847,0.22848 0.3921,0.67083 0.16361,0.98931 l -6.85267,9.57049 c -0.14025,0.19868 -0.35645,0.29801 -0.57851,0.29801 z"
           id="path12598"
           style="stroke-width:0.58435053" />
        <path
           inkscape:connector-curvature="0"
           d="m 247.43558,873.18309 c -0.13148,0 -0.2653,-0.0368 -0.3845,-0.11336 -0.32841,-0.21212 -0.42307,-0.65097 -0.21037,-0.97996 l 6.02582,-9.33441 c 0.21212,-0.32958 0.65097,-0.42424 0.98055,-0.21095 0.3284,0.21153 0.42306,0.65038 0.21036,0.97937 l -6.02582,9.33441 c -0.1344,0.20452 -0.36814,0.32139 -0.59604,0.32139 z"
           id="path12602"
           style="stroke-width:0.58435053" />
        <path
           inkscape:connector-curvature="0"
           d="m 252.16297,873.5337 c -0.11394,0 -0.22847,-0.0269 -0.33483,-0.0847 -0.34476,-0.18641 -0.47391,-0.61649 -0.28808,-0.96067 l 4.9623,-9.2158 c 0.18524,-0.34535 0.61474,-0.4739 0.95951,-0.28866 0.34477,0.18582 0.4739,0.6159 0.28808,0.96008 l -4.9623,9.21579 c -0.12856,0.23959 -0.37399,0.37399 -0.62526,0.37399 z"
           id="path12606"
           style="stroke-width:0.58435053" />
        <path
           inkscape:connector-curvature="0"
           d="m 257.7143,872.82664 c -0.0812,0 -0.16303,-0.014 -0.24367,-0.0426 -0.36755,-0.13498 -0.5563,-0.54227 -0.42249,-0.90983 l 3.07252,-8.38777 c 0.13381,-0.36813 0.54169,-0.5563 0.90925,-0.42248 0.36755,0.13498 0.55688,0.54228 0.4219,0.90983 l -3.07076,8.38777 c -0.10518,0.28633 -0.37983,0.46164 -0.66616,0.46164 z"
           id="path12610"
           style="stroke-width:0.58435053" />
        <path
           inkscape:connector-curvature="0"
           d="m 262.91502,872.11958 c -0.0415,0 -0.0847,-0.004 -0.1268,-0.0111 -0.38567,-0.0701 -0.64103,-0.43826 -0.57149,-0.82393 l 1.53567,-8.50698 c 0.0689,-0.3845 0.43476,-0.63986 0.82393,-0.57208 0.38509,0.0701 0.64104,0.43826 0.57208,0.82394 l -1.53684,8.50697 c -0.0643,0.34477 -0.3623,0.58435 -0.69537,0.58435 z"
           id="path12614"
           style="stroke-width:0.58435053" />
        <path
           inkscape:connector-curvature="0"
           d="m 267.1691,871.2898 c -0.0345,0 -0.069,-0.003 -0.1046,-0.008 -0.38684,-0.0573 -0.65506,-0.41781 -0.59721,-0.80523 l 1.41764,-9.56991 c 0.0578,-0.38801 0.42014,-0.6498 0.80523,-0.59779 0.38684,0.0578 0.65506,0.41839 0.59721,0.80523 l -1.41822,9.57049 c -0.0584,0.35061 -0.35646,0.60189 -0.70122,0.60189 z"
           id="path12618"
           style="stroke-width:0.58435053" />
        <path
           inkscape:connector-curvature="0"
           d="m 271.89065,869.27963 c -0.0286,0 -0.0567,-10e-4 -0.0847,-0.004 -0.38918,-0.0467 -0.66733,-0.39853 -0.62117,-0.78713 l 1.06293,-8.97912 c 0.0467,-0.38918 0.40204,-0.66733 0.78771,-0.62117 0.38859,0.0462 0.66733,0.39911 0.62058,0.78712 l -1.06352,8.97913 c -0.0467,0.3623 -0.35061,0.62526 -0.70706,0.62526 z"
           id="path12622"
           style="stroke-width:0.58435053" />
        <path
           inkscape:connector-curvature="0"
           d="m 276.61805,867.03572 c -0.0193,0 -0.0386,-5.8e-4 -0.0578,-0.002 -0.39034,-0.0315 -0.68193,-0.3734 -0.64921,-0.76433 l 0.70882,-8.74364 c 0.0322,-0.38976 0.37398,-0.672 0.76433,-0.64921 0.38976,0.0322 0.68135,0.37398 0.64921,0.76433 l -0.70882,8.74305 c -0.0292,0.36814 -0.33892,0.64863 -0.70706,0.64863 z"
           id="path12626"
           style="stroke-width:0.58435053" />
        <path
           inkscape:connector-curvature="0"
           d="m 281.34544,864.31849 c -0.0193,0 -0.0386,-5.8e-4 -0.0584,-0.002 -0.39035,-0.0315 -0.68135,-0.37398 -0.64922,-0.76433 l 0.7094,-8.74247 c 0.0315,-0.38976 0.36113,-0.68252 0.76433,-0.64921 0.39035,0.0322 0.68077,0.37399 0.64922,0.76433 l -0.70882,8.74247 c -0.035,0.36814 -0.34477,0.64863 -0.70707,0.64863 z"
           id="path12630"
           style="stroke-width:0.58435053" />
        <path
           inkscape:connector-curvature="0"
           d="m 286.30658,860.19298 c -0.38685,0 -0.70181,-0.19634 -0.70823,-0.58435 l -0.11805,-7.68947 c -0.006,-0.39034 0.30679,-0.49144 0.6983,-0.49144 h 0.0117 c 0.38567,0 0.70122,0.14025 0.70765,0.52825 l 0.11804,7.71693 c 0.006,0.39094 -0.30679,0.52008 -0.6983,0.52008 h -0.0175 z"
           id="path12634"
           style="stroke-width:0.58435053" />
        <path
           inkscape:connector-curvature="0"
           d="m 290.04057,857.46991 c -0.39151,0 -0.87652,-0.31672 -0.87652,-0.70882 v -8.50697 c 0,-0.3921 0.48501,-0.70882 0.87652,-0.70882 0.39152,0 0.87653,0.31672 0.87653,0.70882 v 8.50697 c 0,0.38567 -0.48501,0.70706 -0.87653,0.70706 z"
           id="path12638"
           style="stroke-width:0.58435053" />
        <path
           style="fill:#ffffff;stroke-width:0.58435053"
           inkscape:connector-curvature="0"
           d="m 270.52327,797.56229 8.90725,53.02981 c 0,0 0.0433,0.27815 0.0958,0.57208 -13.62646,3.64109 -10.27813,18.46781 5.02016,16.19761 9.77619,-1.1611 34.94767,-3.60369 38.85989,-4.22076 9.09776,-1.77234 3.78075,-19.25844 1.89038,-33.08184 -2.19307,-16.03165 -5.30532,-32.1381 -5.30532,-32.1381"
           id="path12642" />
        <path
           inkscape:connector-curvature="0"
           d="m 281.47984,868.30376 c -6.57687,0 -10.32372,-3.43247 -11.07578,-7.06129 -0.79472,-3.83801 1.48893,-8.53385 8.31648,-10.59077 l -8.89849,-52.97546 c -0.0637,-0.38626 0.19634,-0.75206 0.5826,-0.81692 0.38683,-0.0613 0.75147,0.19576 0.81634,0.58201 l 8.90725,53.02923 c 10e-4,0.0105 0.0433,0.28048 0.0947,0.56448 0.0649,0.36288 -0.15894,0.71524 -0.51481,0.80991 -6.41617,1.71507 -8.59872,5.81078 -7.9162,9.11061 0.73395,3.54116 5.00555,6.83806 12.64827,5.70092 4.45567,-0.52942 12.04756,-1.31888 19.38875,-2.08204 8.91953,-0.92737 17.34527,-1.80331 19.46647,-2.13756 6.63588,-1.29316 4.60936,-12.83408 2.65003,-23.99635 -0.48501,-2.75871 -0.98639,-5.61152 -1.35161,-8.28959 -2.16618,-15.82889 -5.26908,-31.93827 -5.29889,-32.09955 -0.0748,-0.3845 0.17707,-0.75556 0.56098,-0.82977 0.38333,-0.076 0.75615,0.17647 0.83095,0.56156 0.0315,0.16128 3.14147,16.30863 5.31116,32.17609 0.3623,2.6512 0.86133,5.49114 1.34342,8.23642 2.07795,11.83544 4.22661,24.0729 -3.80003,25.63721 -2.18313,0.34594 -10.627,1.22363 -19.56464,2.15275 -7.33769,0.76316 -14.92314,1.55145 -19.34668,2.07678 -1.11026,0.15777 -2.16209,0.23374 -3.14965,0.23374 z"
           id="path12644"
           style="stroke-width:0.58435053" />
        <path
           inkscape:connector-curvature="0"
           d="m 280.66759,863.7692 c -2.07736,0 -3.61888,-0.96768 -4.59767,-2.89311 -0.82919,-1.63151 0.23783,-3.6259 1.75539,-4.46444 1.21896,-0.67551 3.09356,-0.71174 4.36159,1.40185 0.20161,0.336 0.0923,0.77076 -0.24309,0.97295 -0.33541,0.2016 -0.77192,0.0929 -0.97294,-0.24309 -0.88237,-1.4714 -1.91959,-1.19032 -2.45836,-0.89055 -0.89932,0.49728 -1.60989,1.73318 -1.17864,2.58107 0.96769,1.90323 2.49635,2.49226 4.96055,1.90908 3.85088,-0.91276 3.78426,-3.37171 3.29691,-6.49273 -0.24484,-1.30952 -8.98322,-54.95115 -9.35545,-57.23362 -0.0625,-0.38684 0.19926,-0.75089 0.58552,-0.814 0.38509,-0.062 0.75206,0.19926 0.81458,0.58552 0.0906,0.55922 9.10652,55.90832 9.35253,57.22252 0.40086,2.56589 1.06644,6.82463 -4.36685,8.11079 -0.672,0.15193 -1.32647,0.23374 -1.9342,0.23374 z"
           id="path12648"
           style="stroke-width:0.58435053" />
        <path
           inkscape:connector-curvature="0"
           d="m 290.56065,863.02124 c -0.31438,0 -0.6013,-0.20862 -0.68544,-0.52592 -0.10051,-0.37866 0.12388,-0.76725 0.50254,-0.86776 3.32671,-0.88763 1.86875,-7.8338 1.85356,-7.90392 l -8.90375,-55.31053 c -0.0625,-0.38685 0.20043,-0.75031 0.58668,-0.81283 0.38451,-0.0654 0.75031,0.20101 0.81283,0.58726 l 8.89674,55.26846 c 0.0672,0.29685 1.81149,8.29018 -2.88026,9.54128 -0.0526,0.0117 -0.11687,0.0175 -0.17531,0.0175 z"
           id="path12652"
           style="stroke-width:0.58435053" />
        <path
           inkscape:connector-curvature="0"
           d="m 297.64882,862.31417 c -0.3138,0 -0.60071,-0.2092 -0.68545,-0.52591 -0.1005,-0.37867 0.12506,-0.76725 0.50255,-0.86718 3.3267,-0.88763 1.86875,-7.8338 1.85355,-7.90393 l -8.80791,-54.70864 c -0.0619,-0.38742 0.2016,-0.75031 0.58844,-0.81283 0.38392,-0.0637 0.74972,0.20043 0.81225,0.58727 l 8.79974,54.66599 c 0.0678,0.29685 1.81148,8.29018 -2.88027,9.54127 -0.0643,0.006 -0.12856,0.0175 -0.18699,0.0175 z"
           id="path12656"
           style="stroke-width:0.58435053" />
        <path
           inkscape:connector-curvature="0"
           d="m 304.73699,861.60127 c -0.31379,0 -0.60013,-0.2092 -0.68486,-0.52592 -0.1005,-0.37866 0.12447,-0.76725 0.50196,-0.86776 3.32729,-0.88763 1.86934,-7.83381 1.85473,-7.90334 l -8.74364,-54.30603 c -0.062,-0.38684 0.20102,-0.75031 0.58844,-0.81284 0.38158,-0.0637 0.74972,0.19985 0.81225,0.58728 l 8.73429,54.26279 c 0.0672,0.29685 1.8109,8.29017 -2.88027,9.54127 -0.0643,0.0175 -0.12856,0.0234 -0.18699,0.0234 z"
           id="path12660"
           style="stroke-width:0.58435053" />
        <path
           inkscape:connector-curvature="0"
           d="m 311.82516,860.8942 c -0.3138,0 -0.60071,-0.2092 -0.68602,-0.52592 -0.0999,-0.37866 0.12505,-0.76725 0.50312,-0.86776 3.32671,-0.88704 1.86875,-7.8338 1.85356,-7.90333 l -8.6291,-53.59956 c -0.062,-0.38684 0.20101,-0.7503 0.58727,-0.81283 0.38509,-0.0608 0.75031,0.20102 0.81342,0.58727 l 8.61975,53.55689 c 0.0684,0.29685 1.81148,8.29019 -2.87968,9.54128 -0.0584,0.006 -0.11687,0.0117 -0.18115,0.0117 z"
           id="path12664"
           style="stroke-width:0.58435053" />
        <path
           inkscape:connector-curvature="0"
           d="m 318.91918,860.18714 c -0.31321,0 -0.60072,-0.2092 -0.68545,-0.5265 -0.10051,-0.37808 0.12447,-0.76726 0.50254,-0.86718 3.32613,-0.88763 1.86876,-7.83438 1.85415,-7.90393 L 312.0665,797.9427 c -0.0613,-0.38684 0.20102,-0.7503 0.58785,-0.81283 0.38451,-0.0637 0.74973,0.19985 0.81284,0.58669 l 8.51516,52.90476 c 0.0672,0.29743 1.8109,8.29018 -2.88086,9.54127 -0.0643,0.0117 -0.12271,0.0234 -0.18114,0.0234 z"
           id="path12668"
           style="stroke-width:0.58435053" />
        <path
           id="path12672"
           d="m 260.02833,815.96349 c 0.61708,-0.0812 4.49249,-0.5826 5.12417,-0.77134 -1.86115,-0.2951 -3.85321,-1.50471 -4.30783,-1.79455 -1.56022,-1.4597 -4.16466,-3.53473 -9.38058,-2.53666 0,0 0.55923,1.48483 1.27739,1.47548 0.031,-5.8e-4 0.0625,-0.0128 0.0935,-0.0193 2.49868,-0.50721 4.81154,0.0923 7.30438,1.64144 0.62525,0.70707 0.75966,1.54268 -0.11687,2.00432 z"
           inkscape:connector-curvature="0"
           style="stroke-width:0.58435053" />
        <rect
           style="fill:#808080;stroke-width:0.58435053"
           y="788.90222"
           x="248.25952"
           height="8.7652578"
           width="73.628166"
           id="rect12674" />
        <path
           id="path12676"
           d="m 322.47203,796.96041 c 0,0.39152 -0.3173,0.70882 -0.7094,0.70882 h -73.38274 c -0.39152,0 -0.7094,-0.3173 -0.7094,-0.70882 v -7.93139 c 0,-0.39152 0.3173,-0.70882 0.7094,-0.70882 h 73.37689 c 0.3921,0 0.70941,0.3173 0.70941,0.70882 v 7.92964 z m -73.62817,-0.46164 h 72.45947 v -6.42785 h -72.45947 z"
           inkscape:connector-curvature="0"
           style="stroke-width:0.58435053" />
        <path
           style="fill:#cccccc;stroke-width:0.58435053"
           inkscape:connector-curvature="0"
           d="m 325.58662,799.12835 c 0,1.37089 -1.11085,2.62958 -2.48057,2.62958 h -75.8487 c -1.3703,0 -2.48115,-1.25869 -2.48115,-2.62958 0,-1.37089 1.11085,-2.62958 2.48115,-2.62958 h 75.85454 c 1.36738,0 2.47765,1.25636 2.47765,2.62958 z"
           id="path12682" />
        <path
           inkscape:connector-curvature="0"
           d="m 323.10897,802.34228 h -75.85454 c -1.75948,0 -3.18997,-1.45445 -3.18997,-3.21393 0,-1.75948 1.43049,-3.21393 3.18997,-3.21393 h 75.85454 c 1.7589,0 3.18939,1.45445 3.18939,3.21393 0,1.75948 -1.43166,3.21393 -3.19056,3.21393 z m -75.85454,-4.67481 c -0.97762,0 -1.77234,0.77544 -1.77234,1.75306 0,0.97762 0.79472,1.75305 1.77234,1.75305 h 75.85454 c 0.97704,0 1.77175,-0.77543 1.77175,-1.75305 0,-0.97762 -0.79471,-1.75306 -1.77175,-1.75306 z"
           id="path12684"
           style="stroke-width:0.58435053" />
        <path
           style="fill:#cccccc;stroke-width:0.58435053"
           inkscape:connector-curvature="0"
           d="m 325.58662,787.44134 c 0,1.3703 -1.11085,2.62958 -2.48057,2.62958 h -75.8487 c -1.3703,0 -2.48115,-1.25928 -2.48115,-2.62958 0,-1.37089 1.11085,-2.62958 2.48115,-2.62958 h 75.85454 c 1.36738,0 2.47765,1.25636 2.47765,2.62958 z"
           id="path12688" />
        <path
           inkscape:connector-curvature="0"
           d="m 323.10897,790.65527 h -75.85454 c -1.75948,0 -3.18997,-1.45445 -3.18997,-3.21393 0,-1.75948 1.43049,-3.21393 3.18997,-3.21393 h 75.85454 c 1.7589,0 3.18939,1.45445 3.18939,3.21393 0,1.75948 -1.43166,3.21393 -3.19056,3.21393 z m -75.85454,-5.25916 c -0.97762,0 -1.77234,0.77544 -1.77234,1.75306 0,0.97762 0.79472,1.75305 1.77234,1.75305 h 75.85454 c 0.97704,0 1.77175,-0.77543 1.77175,-1.75305 0,-0.97762 -0.79471,-1.75306 -1.77175,-1.75306 z"
           id="path12690"
           style="stroke-width:0.58435053" />
        <path
           inkscape:connector-curvature="0"
           d="m 252.87004,817.47696 c 1.07111,1.94939 2.66873,2.03646 4.3277,1.29609 -1.78811,-0.16947 -4.33004,-1.29727 -4.33004,-1.29727 z"
           id="path12696"
           style="stroke-width:0.58435053" />
        <path
           id="path12858"
           d="m 265.89521,812.18859 c -1.85998,-6.70484 -15.32927,-2.74704 -15.32927,-2.74704 l 0.47216,-3.01291 c 0,0 14.59123,-3.43014 14.85419,5.7617 z"
           inkscape:connector-curvature="0"
           style="stroke-width:0.58435053" />
      </g>
      <path
         sodipodi:nodetypes="sscsscs"
         inkscape:connector-curvature="0"
         id="path9008-8"
         d="m 146.37296,772.95113 c -3.56661,-13.18191 3.63866,-25.90484 15.20303,-25.64012 11.56445,0.26472 15.47124,6.2864 19.60491,12.2622 4.13366,-5.9758 8.04045,-11.99748 19.60482,-12.2622 11.56436,-0.26472 18.76972,12.45821 15.20312,25.64012 -3.68281,13.61145 -24.57295,32.91497 -34.80794,43.24766 -10.23508,-10.33269 -31.12515,-29.63621 -34.80794,-43.24766 z"
         style="fill:#000000;fill-opacity:1;stroke:none;stroke-width:0.71891993" />
    </g>
  </g>
</svg>
