<?xml version="1.0" encoding="UTF-8" standalone="no"?>
<svg
   xmlns:dc="http://purl.org/dc/elements/1.1/"
   xmlns:cc="http://creativecommons.org/ns#"
   xmlns:rdf="http://www.w3.org/1999/02/22-rdf-syntax-ns#"
   xmlns:svg="http://www.w3.org/2000/svg"
   xmlns="http://www.w3.org/2000/svg"
   xmlns:sodipodi="http://sodipodi.sourceforge.net/DTD/sodipodi-0.dtd"
   xmlns:inkscape="http://www.inkscape.org/namespaces/inkscape"
   id="svg557"
   viewBox="0 0 379.99999 550"
   version="1.0"
   y="0"
   x="0"
   sodipodi:docname="063.svg"
   width="380"
   height="550"
   inkscape:version="0.92.4 (5da689c313, 2019-01-14)">
  <defs
     id="defs270">
    <clipPath
       id="clipPath2608"
       clipPathUnits="userSpaceOnUse">
      <path
         inkscape:connector-curvature="0"
         id="path2606"
         d="M 0,800 H 800 V 0 H 0 Z" />
    </clipPath>
  </defs>
  <sodipodi:namedview
     pagecolor="#ffffff"
     bordercolor="#666666"
     borderopacity="1"
     objecttolerance="10"
     gridtolerance="10"
     guidetolerance="10"
     inkscape:pageopacity="0"
     inkscape:pageshadow="2"
     inkscape:window-width="1920"
     inkscape:window-height="1133"
     id="namedview268"
     showgrid="false"
     inkscape:snap-global="false"
     inkscape:zoom="0.70710678"
     inkscape:cx="363.43151"
     inkscape:cy="456.48804"
     inkscape:window-x="0"
     inkscape:window-y="0"
     inkscape:window-maximized="1"
     inkscape:current-layer="svg557" />
  <metadata
     id="metadata265">
    <rdf:RDF>
      <cc:Work>
        <dc:format>image/svg+xml</dc:format>
        <dc:type
           rdf:resource="http://purl.org/dc/dcmitype/StillImage" />
        <cc:license
           rdf:resource="http://creativecommons.org/publicdomain/zero/1.0/" />
        <dc:publisher>
          <cc:Agent
             rdf:about="http://openclipart.org/">
            <dc:title>Openclipart</dc:title>
          </cc:Agent>
        </dc:publisher>
        <dc:title></dc:title>
        <dc:date>2007-12-09T17:54:55</dc:date>
        <dc:description>clip art, clipart, externalsource, flag, flag, historical, historical, image, media, pirate, pirate, png, public domain, sign, sign, svg, </dc:description>
        <dc:source>http://openclipart.org/detail/9660/pirate-flag---jack-rackham-by-anonymous</dc:source>
        <dc:creator>
          <cc:Agent>
            <dc:title>Anonymous</dc:title>
          </cc:Agent>
        </dc:creator>
        <dc:subject>
          <rdf:Bag>
            <rdf:li>clip art</rdf:li>
            <rdf:li>clipart</rdf:li>
            <rdf:li>externalsource</rdf:li>
            <rdf:li>flag</rdf:li>
            <rdf:li>historical</rdf:li>
            <rdf:li>image</rdf:li>
            <rdf:li>media</rdf:li>
            <rdf:li>pirate</rdf:li>
            <rdf:li>png</rdf:li>
            <rdf:li>public domain</rdf:li>
            <rdf:li>sign</rdf:li>
            <rdf:li>svg</rdf:li>
          </rdf:Bag>
        </dc:subject>
      </cc:Work>
      <cc:License
         rdf:about="http://creativecommons.org/publicdomain/zero/1.0/">
        <cc:permits
           rdf:resource="http://creativecommons.org/ns#Reproduction" />
        <cc:permits
           rdf:resource="http://creativecommons.org/ns#Distribution" />
        <cc:permits
           rdf:resource="http://creativecommons.org/ns#DerivativeWorks" />
      </cc:License>
    </rdf:RDF>
  </metadata>
  <g
     id="g495"
     transform="translate(-182.43355,83.638493)">
    <path
       id="selection_to_path"
       d="m 308.735,182.521 c 3,-9 0,-25 1,-35 1,-6 5,-12 8,-18 2,-6 5,-14 12,-16 -2,6 -3,6 -5,11 l -3,11 c -2,5 -5,7 -6,12 -2,7 -1,24 -1,32 0,2 0,5 -2,7 -3,4 -12,1 -11,11 0,1 0,3 1,4 4,9 20,12 28,16 8,5 6,10 14,15 8,6 29,6 39,5 3,-1 8,-1 11,-3 8,-3 9,-11 17,-16 6,-3 19,-5 25,-14 1,-1 2,-3 2,-4 3,-11 -10,-7 -13,-14 -2,-5 1,-21 2,-26 l 3,3 v 9 l 1,10 c 11,-2 10,-15 11,-24 2,-24 2,-39 -15,-58 -10,-10 -23,-18 -37,-20 h -9 l -7,-1 -8,1 c -13,1 -22,1 -33,7 -8,4 -13,9 -19,16 -15,16 -18,36 -15,57 1,8 3,17 9,22 z m 33,-30 c 14,-1 24,9 19,23 -4,9 -13,16 -23,18 -9,1 -13,-5 -13,-13 0,-13 2,-24 17,-28 z m 56,0 c 12,0 18,10 19,21 0,3 1,6 1,8 -1,7 -8,12 -15,13 -11,0 -24,-17 -23,-27 2,-9 10,-13 18,-15 z m -18,61 -11,-2 -9,3 c -1,-7 2,-17 5,-24 1,-2 3,-6 5,-7 4,-1 5,4 5,6 2,8 5,16 5,24 z"
       style="fill:#000000;stroke:none"
       inkscape:connector-curvature="0" />
    <path
       id="selection_to_path#1"
       d="m 418.735,229.521 c -3,1 -7,1 -10,3 -10,7 -5,24 -14,35 -4,5 -13,7 -20,7 -13,0 -29,-1 -35,-14 -5,-9 2,-18 -9,-29 -2,-1 -5,-4 -7,-4 -3,0 -2,4 -2,6 l 1,20 c 0,15 4,15 11,24 4,6 7,12 14,15 9,3 19,3 28,2 7,0 11,1 18,-3 7,-4 19,-20 21,-28 l 1,-14 c 2,-10 3,-8 3,-20 z"
       style="fill:#000000;stroke:none"
       inkscape:connector-curvature="0" />
    <path
       id="selection_to_path#8"
       d="m 347.735,260.521 c 0,2.5 0.25,5.54 1.25,7.04 1,1.5 4.75,1.63 5.75,0.96 0.81,-0.82 -0.75,-4.75 -1.62,-5.88 -0.88,-1.12 -2.38,-1.62 -5.38,-2.12 z"
       style="fill:#000000;stroke:none"
       inkscape:connector-curvature="0" />
    <path
       id="selection_to_path#7"
       d="m 355.735,261.521 1,5 c 0,1 1,3 2,4 4,2 6,-8 3,-9 -2,-1 -4,0 -6,0 z"
       style="fill:#000000;stroke:none"
       inkscape:connector-curvature="0" />
    <path
       id="selection_to_path#6"
       d="m 367.735,262.521 c -3,2 -3.09,5.72 -1.96,7.6 1.12,1.87 3.46,1.9 4.96,1.4 1,-0.5 2.5,-3 2.62,-5.25 0.13,-2.25 -1.12,-4.25 -5.62,-3.75 z"
       style="fill:#000000;stroke:none"
       inkscape:connector-curvature="0" />
    <path
       id="path784"
       d="m 356.735,249.521 c 2.7,1.4 7.17,-0.09 7.17,-0.09 l -0.17,-5.91 c -1,-4 -4,-5 -6,-3 -1,2 -1,7 -1,9 z"
       style="fill:#000000;stroke:none"
       inkscape:connector-curvature="0" />
    <path
       id="path785"
       d="m 371.735,239.521 c -1,0 -4.13,-0.52 -5.13,0.48 -1.96,1.96 -2.87,8.52 0.13,10.52 1.87,0.48 5,0.91 6,-3.09 v -2.91 c 0,0 -0.04,-3.26 -1,-5 z"
       style="fill:#000000;stroke:none"
       inkscape:connector-curvature="0" />
    <path
       id="path786"
       d="m 381.735,271.521 c 0.91,0.4 2,-1 3,-2 7,-7 -7.56,-12.61 -5,-2 0,0 0.95,3.83 2,4 z"
       style="fill:#000000;stroke:none"
       inkscape:connector-curvature="0" />
    <path
       id="path787"
       d="m 353.475,238.521 c -1,-0.35 -2.74,0 -3.74,0 -7.78,3.52 2,17 5,8 v -3 c 0,0 -0.56,-4.65 -1.26,-5 z"
       style="fill:#000000;stroke:none"
       inkscape:connector-curvature="0" />
    <path
       id="path788"
       d="m 375.735,239.521 c 0,0 -1.7,10.13 -1,11 1.31,0.7 5.34,0.52 6.83,-0.52 0,-3 0.18,-6.51 -0.42,-8.34 -0.61,-1.83 -1.91,-1.64 -5.41,-2.14 z"
       style="fill:#000000;stroke:none"
       inkscape:connector-curvature="0" />
    <path
       id="path789"
       d="m 385.295,238.351 -0.56,5.17 c 0,3 0.65,8.83 4.65,5.83 0.5,-0.5 1.85,-6.45 1.3,-9.17 -1.03,-1.45 -2.91,-1.6 -5.39,-1.83 z"
       style="fill:#000000;stroke:none"
       inkscape:connector-curvature="0" />
    <path
       inkscape:connector-curvature="0"
       d="m 426.2698,81.06916 c -1.14933,-0.549262 -2.3138,-1.068884 -3.471,-1.604235 -1.16326,-0.524464 -2.34526,-1.004161 -3.51698,-1.508656 -2.3622,-0.967866 -4.74798,-1.881896 -7.16099,-2.723937 -2.41543,-0.839017 -4.85384,-1.615726 -7.31464,-2.319247 -4.9228,-1.408845 -9.93512,-2.53883 -15.0019,-3.375425 -5.06738,-0.837206 -10.1898,-1.382229 -15.3346,-1.624801 -2.5715,-0.120384 -5.14904,-0.163937 -7.7284,-0.139132 -2.57815,0.03202 -5.1569,0.140943 -7.73384,0.31637 -1.28726,0.08045 -2.5715,0.218981 -3.85936,0.327861 -1.28545,0.122195 -2.56666,0.295201 -3.85089,0.442194 -1.28364,0.163326 -2.5588,0.370817 -3.84001,0.554106 -1.27697,0.203854 -2.5473,0.445823 -3.82306,0.668432 -1.27093,0.244987 -2.53641,0.520829 -3.80493,0.780941 l -3.78253,0.892249 -3.75592,1.002955 -3.72809,1.113651 -3.69604,1.222532 -3.65974,1.330814 -0.0417,0.01693 c -0.0127,-0.08227 -0.023,-0.163327 -0.0345,-0.246201 l -0.36476,-2.628359 c -0.13248,-0.878337 -0.21172,-1.751831 -0.31637,-2.628358 l -0.27947,-2.465636 c 0.64423,-0.280074 1.36045,-0.561356 2.14019,-0.872287 0.88922,-0.365974 1.86434,-0.727105 2.91388,-1.102154 1.04226,-0.392591 2.16861,-0.769451 3.35849,-1.160834 1.1826,-0.410735 2.45051,-0.774898 3.76801,-1.180796 1.31569,-0.403477 2.707,-0.760979 4.13883,-1.164463 1.44454,-0.352666 2.929,-0.760978 4.47517,-1.100336 3.08083,-0.725294 6.36371,-1.357431 9.77362,-1.947222 3.41535,-0.543823 6.95894,-1.070702 10.58178,-1.413085 1.80688,-0.209301 3.63857,-0.317577 5.47388,-0.471232 1.83834,-0.09557 3.68454,-0.230471 5.53316,-0.265552 3.69846,-0.139132 7.40114,-0.09437 11.04273,0.05145 3.6422,0.145182 7.21543,0.4803 10.66405,0.897092 3.43834,0.473646 6.76054,1.003551 9.86315,1.730052 3.11774,0.667829 6.01165,1.522575 8.66421,2.365824 1.32234,0.439169 2.56786,0.917055 3.76499,1.341098 1.17354,0.487565 2.28718,0.948507 3.33247,1.381632 1.03018,0.470621 1.97989,0.941853 2.86791,1.36106 0.89407,0.408313 1.65989,0.886802 2.38216,1.263059 0.9479,0.493609 1.71433,0.963634 2.35069,1.364085 l 0.19358,8.489382 c 0.0381,1.217695 0.075,2.441441 0.1349,3.682124 z M 310.00688,28.25642 c -5.64568,-0.598867 -12.60099,-1.99199 -19.85332,-5.077058 -3.60711,-1.543141 -7.28561,-3.524236 -10.58663,-6.092708 -1.64355,-1.283022 -3.1873,-2.711233 -4.52779,-4.278569 -1.30783,-1.579429 -2.45172,-3.281665 -3.20061,-5.101855 -0.40953,-0.902533 -0.66359,-1.843782 -0.89467,-2.795315 -0.20506,-0.9557643 -0.30064,-1.9381454 -0.3327,-2.9392815 0.009,-2.00710817 0.34057,-4.1170528 1.15297,-6.2675254 1.56734,-4.3106318 4.67237,-8.6714631 8.57709,-12.6741901 0.9842,-0.999318 1.99199,-1.998032 3.06813,-2.963484 0.52205,-0.493005 1.0701,-0.97028 1.62783,-1.444537 l 0.83236,-0.716218 0.20749,-0.180264 c 0.10525,-0.08711 -0.0291,0.01995 0.0284,-0.02539 l 0.11433,-0.09134 0.45731,-0.366578 c 0.93399,-0.737998 2.05309,-1.494744 3.23691,-2.180725 1.18623,-0.690809 2.45293,-1.33565 3.77587,-1.942378 5.31237,-2.424504 11.42928,-4.236223 17.75004,-5.992898 6.34193,-1.752442 12.95486,-3.425029 19.65975,-5.460572 5.71585,-1.735505 11.51578,-3.73172 17.22073,-6.311689 -0.0278,0.03143 -0.0562,0.06109 -0.0847,0.09316 -0.30791,0.340572 -0.62005,0.683559 -0.93581,1.031381 -0.33149,0.333307 -0.6642,0.668433 -1.00053,1.008997 -0.67388,0.679327 -1.35925,1.370136 -2.05308,2.070632 -0.72711,0.666614 -1.4639,1.3417 -2.20673,2.021019 -1.46027,1.397959 -3.08024,2.653157 -4.66511,3.967035 -0.78155,0.672665 -1.61573,1.272746 -2.44689,1.873423 -0.82994,0.605521 -1.65625,1.209223 -2.47652,1.808701 l -0.61459,0.44884 -0.63698,0.408924 c -0.42344,0.27161 -0.84507,0.54322 -1.26306,0.813011 -0.84144,0.540791 -1.67139,1.07372 -2.48742,1.598789 -0.80514,0.55108 -1.66291,0.968469 -2.4741,1.438486 -0.81724,0.455503 -1.61815,0.90254 -2.39788,1.337469 -1.53952,0.918262 -3.10141,1.564921 -4.50481,2.256938 -0.70533,0.335729 -1.38405,0.658149 -2.02768,0.96484 -0.32302,0.153044 -0.63758,0.303062 -0.94367,0.447641 -0.31274,0.124609 -0.61821,0.245597 -0.91402,0.363552 -1.18442,0.467604 -2.21701,0.877131 -3.06813,1.213463 -1.70586,0.675087 -2.68159,1.059809 -2.68159,1.059809 0,0 1.01202,-0.270396 2.78382,-0.743438 0.88983,-0.23834 1.96839,-0.526879 3.20726,-0.858376 0.31033,-0.08287 0.62972,-0.169377 0.95879,-0.257691 0.32303,-0.110101 0.65392,-0.22322 0.99327,-0.339357 0.68235,-0.231686 1.39978,-0.476679 2.14685,-0.730741 1.48809,-0.531722 3.14858,-1.006583 4.80605,-1.750021 0.83901,-0.349037 1.70223,-0.708357 2.5848,-1.073727 0.87652,-0.38049 1.80386,-0.70835 2.68341,-1.171721 0.89527,-0.437351 1.80325,-0.883777 2.72273,-1.335047 0.46154,-0.226238 0.92491,-0.453684 1.38948,-0.68174 l 0.70231,-0.344798 0.68174,-0.385936 c 0.91343,-0.516603 1.8335,-1.037432 2.75599,-1.561896 0.92794,-0.520225 1.86194,-1.041664 2.74753,-1.638109 1.78995,-1.163256 3.62647,-2.278115 5.31055,-3.551457 0.85596,-0.620647 1.70768,-1.235847 2.54549,-1.843781 0.81058,-0.647264 1.6121,-1.286658 2.3997,-1.916373 0.395,-0.315163 0.78578,-0.629716 1.17414,-0.940043 0.37383,-0.325438 0.74464,-0.648463 1.11123,-0.968469 0.73194,-0.64423 1.44937,-1.274557 2.14623,-1.887335 0.67388,-0.641816 1.3284,-1.266688 1.96356,-1.871605 0.63698,-0.601892 1.2431,-1.194708 1.80084,-1.791764 0.5662,-0.58979 1.10881,-1.153568 1.6254,-1.690738 0.49663,-0.558942 0.96968,-1.088846 1.41248,-1.586083 0.89406,-0.992671 1.62238,-1.918795 2.24061,-2.668887 0.59886,-0.771269 1.0707,-1.375582 1.40824,-1.862537 0.3079,-0.43554 0.47183,-0.666615 0.47183,-0.666615 l -0.30366,-0.183288 c 0.20143,-0.165749 0.40891,-0.321818 0.60854,-0.491195 0.73316,-0.621854 1.45966,-1.257619 2.16136,-1.924234 l 0.9594,-0.8983 c 0.31758,-0.293382 0.66783,-0.630929 0.9231,-0.841438 0.52991,-0.471836 1.14026,-0.97452 1.74941,-1.44877 0.61218,-0.470628 1.23706,-0.917055 1.87282,-1.338683 1.27396,-0.840827 2.59872,-1.572172 3.96523,-2.176485 2.73482,-1.208016 5.63962,-1.921813 8.6279,-2.058523 5.98866,-0.311534 12.20659,1.642945 17.88916,4.777617 5.70557,3.144955 10.94776,7.387831 15.67578,12.097708 2.36704,2.360378 4.61611,4.840529 6.73997,7.415655 1.06284,1.286657 2.09724,2.595088 3.102,3.921059 0.49966,0.6642 0.99509,1.331426 1.48205,2.005298 l 0.72468,1.010815 0.42708,0.59947 0.38291,0.516596 c 0.98359,1.342916 2.07305,2.584202 3.22661,3.739589 0.62307,1.180796 1.47177,2.759018 2.51887,4.628813 2.25513,4.040229 5.38315,9.356229 8.82996,14.470782 0.85595,1.2806072 1.74094,2.5454846 2.62593,3.7770916 0.88742,1.2322179 1.78873,2.4239004 2.67494,3.5653757 0.8977,1.133003 1.7839,2.2133844 2.65376,3.21391703 0.8735,0.9981109 1.72643,1.91697647 2.53823,2.73965977 0.41436,0.4028732 0.80151,0.7984887 1.18805,1.157205 0.38896,0.3514509 0.75917,0.6865769 1.10881,1.0017399 0.72529,0.597652 1.35078,1.119695 1.90669,1.49958 0.53233,0.407113 0.99086,0.672062 1.29332,0.862616 0.30366,0.189331 0.46578,0.289143 0.46578,0.289143 0,0 -0.1476,-0.120981 -0.42405,-0.348427 -0.27523,-0.22866 -0.68839,-0.547452 -1.15962,-1.016865 -0.493,-0.442798 -1.03924,-1.037432 -1.66654,-1.710097 -0.29762,-0.3508478 -0.6146,-0.725294 -0.94851,-1.1184879 -0.32847,-0.3986407 -0.65573,-0.8341733 -1.00416,-1.2775819 -0.68295,-0.9031357 -1.39131,-1.90547897 -2.10934,-2.9852569 -0.71501,-1.080985 -1.43667,-2.2448367 -2.16076,-3.4589032 -0.71319,-1.2231421 -1.43425,-2.4946736 -2.13474,-3.8049223 -0.70231,-1.3108523 -1.39675,-2.6501318 -2.06337,-4.0057438 -1.773,-3.570212 -3.39479,-7.200914 -4.77702,-10.473511 1.63691,0.944275 3.2859,1.804469 4.9222,2.611422 6.2149,3.016106 12.28583,5.34866 17.75185,8.159704 2.72696,1.390097 5.3299,2.9072258 7.64734,4.5677187 2.13474,1.5516061 4.04628,3.5454061 5.60817,5.7279419 3.13407,4.3856374 4.98995,9.6006124 5.39161,14.6359274 0.41739,5.041968 -0.71864,9.900649 -3.25142,13.537401 -1.25217,1.829266 -2.83524,3.359703 -4.62397,4.576787 -0.89346,0.609761 -1.83652,1.143294 -2.81104,1.606053 l -0.70594,0.322421 -0.85294,0.355088 c -0.5674,0.236521 -1.13118,0.472439 -1.69073,0.705331 -4.31305,1.76514 -8.60976,3.191534 -12.64757,4.312443 -8.10587,2.249069 -15.39631,3.289526 -21.39949,3.656707 -4.52961,0.284315 -8.32666,0.204466 -11.27683,0.0059 -0.15002,-0.133685 -0.29339,-0.274628 -0.44461,-0.404684 -2.03373,-1.756072 -4.24228,-3.262314 -6.53853,-4.551989 -1.01082,-0.568018 -2.03978,-1.086432 -3.07902,-1.574594 0.0218,-0.0074 0.0417,-0.0145 0.0629,-0.02238 2.26117,-0.851722 4.56046,-1.783895 6.83494,-2.816491 2.28718,-1.013833 4.54835,-2.120831 6.79985,-3.230243 4.48726,-2.234561 8.87048,-4.565901 13.0323,-6.556072 2.08152,-0.999929 4.10859,-1.910323 6.06549,-2.666473 1.94964,-0.786991 3.83818,-1.366499 5.60635,-1.803253 0.44461,-0.09557 0.88015,-0.188125 1.30601,-0.27886 0.42647,-0.09618 0.84689,-0.124617 1.25762,-0.188736 0.82148,-0.142761 1.60242,-0.138528 2.34405,-0.177238 0.738,-0.01089 1.42518,0.06772 2.06881,0.10525 0.62609,0.121592 1.21346,0.211723 1.73551,0.333918 0.50994,0.165138 0.96665,0.314553 1.36347,0.443402 0.39804,0.133685 0.70231,0.324842 0.96787,0.440376 0.52386,0.255276 0.80393,0.391383 0.80393,0.391383 0,0 -0.26133,-0.169981 -0.7507,-0.485748 -0.25164,-0.148207 -0.53898,-0.379282 -0.92189,-0.563174 -0.38775,-0.180875 -0.83418,-0.388962 -1.33384,-0.620647 -0.5166,-0.190546 -1.10639,-0.356898 -1.747,-0.562571 -0.65391,-0.12098 -1.36711,-0.290961 -2.13777,-0.373231 -0.77187,-0.05506 -1.60302,-0.156673 -2.47108,-0.113723 -0.43432,0.01332 -0.88802,-0.0079 -1.3411,0.03688 -0.4561,0.0399 -0.92128,0.08166 -1.39856,0.124609 -1.89278,0.226842 -3.93739,0.594634 -6.03585,1.155998 -2.11115,0.535351 -4.29792,1.212248 -6.52824,1.967184 -4.4679,1.50382 -9.12273,3.295576 -13.77513,4.942761 -2.3259,0.813615 -4.64696,1.618147 -6.93959,2.315617 -2.2884,0.719847 -4.54836,1.32779 -6.7309,1.859512 -2.18737,0.497237 -4.29731,0.93762 -6.29414,1.200758 -0.49785,0.07074 -0.98904,0.139125 -1.47297,0.206276 -0.48272,0.04534 -0.95939,0.09013 -1.42639,0.134289 -0.93399,0.108276 -1.83229,0.139735 -2.69066,0.173006 -0.21475,0.01273 -0.41981,0.01207 -0.62851,0.01811 -3.98397,-0.825105 -7.99456,-1.368317 -12.00031,-1.697392 -4.2701,-0.359923 -8.53536,-0.467596 -12.78791,-0.432515 1.44333,-0.851721 2.91145,-1.738523 4.39894,-2.668886 4.90103,-3.062081 9.97747,-6.538532 14.88455,-10.229724 9.80567,-7.372705 18.94353,-15.67577307 24.59041,-22.9807375 2.82254,-3.6367455 4.73347,-7.0527055 5.43456,-9.6683605 0.36235,-1.299354 0.42828,-2.368246 0.38171,-3.081439 -0.0151,-0.358105 -0.0617,-0.628508 -0.0998,-0.809375 -0.0327,-0.180867 -0.0508,-0.272817 -0.0508,-0.272817 0,0 0.008,0.09376 0.0248,0.27705 0.0212,0.182685 0.0436,0.45308 0.0242,0.80696 -0.0188,0.704118 -0.18147,1.735499 -0.64908,2.960452 -0.91221,2.46261 -3.06691,5.594868 -6.13928,8.8747144 -6.15078,6.5929713 -15.84273,13.8797846 -26.06157,20.1684866 -5.11214,3.150401 -10.35857,6.066696 -15.36787,8.581332 -5.00689,2.520679 -9.77242,4.643931 -13.89975,6.282651 -3.54239,1.406424 -6.60205,2.463818 -8.94186,3.196369 -3.46738,0.414371 -6.92144,0.903136 -10.36099,1.466922 -0.93339,0.151836 -1.86556,0.315766 -2.79653,0.479696 -0.38048,-0.09316 -0.77792,-0.193571 -1.20318,-0.304269 -1.16567,-0.312741 -2.49285,-0.70715 -3.93739,-1.184425 -1.44272,-0.482722 -3.01066,-1.024727 -4.64333,-1.673197 -1.64235,-0.631533 -3.3476,-1.365292 -5.10367,-2.153498 -1.73913,-0.814822 -3.53694,-1.676223 -5.30511,-2.650139 -1.78752,-0.947292 -3.53512,-2.014366 -5.2676,-3.114709 -1.70042,-1.137236 -3.38753,-2.311981 -4.93732,-3.593803 -0.38835,-0.319999 -0.78276,-0.631526 -1.16144,-0.955161 -0.37081,-0.333911 -0.73739,-0.666615 -1.10215,-0.996293 -0.75494,-0.644842 -1.39433,-1.368317 -2.08273,-2.042197 -0.64665,-0.701092 -1.26427,-1.413078 -1.85225,-2.122649 -0.27766,-0.366578 -0.55168,-0.73013 -0.82329,-1.088243 -0.13489,-0.180867 -0.27039,-0.359923 -0.4065,-0.538369 -0.12521,-0.182081 -0.23833,-0.370213 -0.35811,-0.553502 -0.46941,-0.739206 -0.95516,-1.449977 -1.31025,-2.195844 -0.19296,-0.367181 -0.38291,-0.728923 -0.56862,-1.084003 -0.1718,-0.360534 -0.30427,-0.728923 -0.4549,-1.08401 -0.14699,-0.357502 -0.29035,-0.707754 -0.42948,-1.0501365 -0.10587,-0.3544765 -0.20809,-0.7004883 -0.30912,-1.0380353 -0.0992,-0.3387467 -0.1978,-0.6702432 -0.29096,-0.9920604 -0.0919,-0.3236278 -0.12582,-0.6472557 -0.18873,-0.95697187 -0.0944,-0.6236721 -0.25286,-1.2080159 -0.27645,-1.75788233 -0.0351,-0.5510809 -0.0677,-1.0579975 -0.0968,-1.5153178 -0.0496,-0.4609417 -0.008,-0.8692618 0.008,-1.2273746 0.0169,-0.358709 0.0333,-0.6647963 0.0448,-0.910997 0.0266,-0.4978482 0.0406,-0.7634076 0.0406,-0.7634076 0,0 -0.052,0.2595089 -0.1476,0.7470742 -0.0484,0.2455898 -0.10646,0.5474447 -0.17724,0.9031358 -0.0665,0.3568982 -0.16696,0.7664255 -0.18329,1.2346322 -0.0375,0.4694139 -0.0774,0.987828 -0.12219,1.5540278 -0.0551,0.56801783 0.0182,1.18019253 0.0248,1.84197093 0.0182,0.32846387 0.007,0.67569007 0.0538,1.02230547 0.0502,0.349037 0.10103,0.7071424 0.15305,1.0743309 0.0556,0.3702064 0.11251,0.7494885 0.17119,1.1378461 0.0944,0.38049 0.19115,0.768847 0.29096,1.166877 0.10344,0.396823 0.19176,0.81059 0.31759,1.21891 0.14397,0.404684 0.28733,0.815426 0.43432,1.233418 0.26979,0.854143 0.67267,1.676223 1.06405,2.541856 0.0992,0.214748 0.19357,0.435539 0.30064,0.650281 0.11494,0.209905 0.23108,0.420421 0.34783,0.632747 0.23532,0.425861 0.47425,0.857161 0.7138,1.292701 0.51841,0.846275 1.06889,1.702839 1.65565,2.554561 0.62246,0.816632 1.21225,1.702228 1.90972,2.499509 0.33996,0.407709 0.68174,0.819658 1.02654,1.233418 0.35267,0.403484 0.72227,0.793653 1.08885,1.194104 1.46026,1.606053 3.0645,3.106245 4.7014,4.574373 1.50019,1.287865 3.03184,2.539434 4.59554,3.708129 -2.52189,0.106465 -5.60333,0.07199 -9.18624,-0.297615 m 9.69921,34.797759 -0.15365,-2.623522 c -0.0592,-0.877123 -0.0568,-1.740946 -0.0901,-2.615051 l -0.0369,-1.30843 0.003,-1.298148 c 0.007,-0.864426 -0.005,-1.73792 0.0423,-2.590245 0.0321,-0.857772 0.0532,-1.723405 0.13006,-2.56424 l 0.0956,-1.271531 0.14035,-1.247337 c 0.0405,-0.421621 0.10888,-0.820865 0.16998,-1.226764 0.0587,-0.410138 0.12581,-0.809986 0.20748,-1.192293 0.066,-0.360527 0.14518,-0.690206 0.22564,-1.016859 0.0587,-0.02179 0.12037,-0.04357 0.17603,-0.0647 0.53172,-0.187521 1.07977,-0.368389 1.6369,-0.54442 1.11364,-0.351458 2.25572,-0.68174 3.40446,-0.998714 2.29807,-0.634559 4.63184,-1.213463 6.9777,-1.751236 4.69172,-1.075538 9.43305,-1.997429 14.19252,-2.777766 9.52198,-1.559474 19.1359,-2.568472 28.72864,-2.797132 4.79154,-0.09618 9.58005,-0.0103 14.31775,0.389565 4.7383,0.38654 9.43003,1.073727 13.96871,2.192215 4.53263,1.116066 8.92552,2.671308 12.86049,4.8859 3.69362,2.066995 6.94928,4.73951 9.41128,7.996981 0.69202,5.858609 0.95818,11.844241 1.12091,17.872228 l 0.0205,0.920072 c -0.60793,-0.418595 -1.33807,-0.908582 -2.23637,-1.425782 -0.70714,-0.410131 -1.45724,-0.923709 -2.33497,-1.372557 -0.8729,-0.459131 -1.80809,-0.972702 -2.82314,-1.492323 -1.03441,-0.481515 -2.13414,-0.994482 -3.29437,-1.534669 -1.18624,-0.479093 -2.42269,-1.015651 -3.73535,-1.515318 -2.63925,-0.966651 -5.52651,-1.956901 -8.64727,-2.768698 -3.10805,-0.870469 -6.44416,-1.551002 -9.90851,-2.183139 -3.47282,-0.571036 -7.08174,-1.067669 -10.76992,-1.374971 -3.68635,-0.306691 -7.44409,-0.515993 -11.20484,-0.536558 -1.88129,-0.04475 -3.76076,0.0103 -5.63539,0.02723 -1.87162,0.07501 -3.7402,0.105862 -5.58942,0.23834 -3.70148,0.189942 -7.33218,0.569225 -10.84432,0.973909 -3.50306,0.450666 -6.88817,0.95335 -10.07668,1.561292 -1.59879,0.277653 -3.14012,0.630319 -4.64031,0.927934 -1.48748,0.352062 -2.93384,0.65815 -4.30941,1.014444 -1.37619,0.359924 -2.69914,0.680534 -3.94284,1.051344 -1.24915,0.352062 -2.43297,0.692627 -3.53695,1.054369 -1.10638,0.341175 -2.14019,0.675086 -3.08687,1.017469 -0.31577,0.110094 -0.60915,0.212327 -0.90798,0.315767 -0.006,-0.116145 -0.0199,-0.231686 -0.0248,-0.346616 m 116.7952,29.611713 0.035,-0.906581 -1.25703,-5.286859 v -0.0015 c 0,-0.414966 -0.55591,-1.099129 -0.63757,-1.79297 -0.0829,-0.703514 -0.3194,-1.440298 -0.369,-2.197051 -0.10526,-1.508053 -0.23229,-3.07176 -0.28068,-4.636674 l -0.26738,-9.513506 c -0.17361,-6.38972 -0.46699,-12.837517 -1.2806,-19.331884 L 432.3413,48.26315 c 1.87645,0.02665 3.91078,0.0029 6.11993,-0.102836 6.39577,-0.295201 14.14292,-1.28484 22.75631,-3.538149 4.31728,-1.131192 8.7991,-2.540648 13.49808,-4.382612 0.56378,-0.225635 1.13119,-0.451873 1.70103,-0.67993 l 0.85837,-0.342986 0.99569,-0.433722 c 1.28121,-0.583137 2.54972,-1.272746 3.77346,-2.080907 2.44809,-1.610896 4.71653,-3.725677 6.51252,-6.26874 1.81233,-2.531572 3.12862,-5.465415 3.9132,-8.541407 0.78155,-3.080232 1.03743,-6.299589 0.83236,-9.506248 -0.42828,-6.413311 -2.60295,-12.81815057 -6.47138,-18.4335842 -1.95025,-2.8025717 -4.31607,-5.3843518 -7.21665,-7.5638628 -2.74268,-2.028888 -5.61482,-3.743217 -8.56923,-5.309339 -5.8955,-3.131042 -12.03479,-5.596074 -17.75184,-8.488174 -5.69347,-2.88605 -10.9762,-6.287495 -14.34678,-11.077817 l -0.37625,-0.521439 -0.31154,-0.453684 -0.75796,-1.092475 c -0.50934,-0.727112 -1.02896,-1.448777 -1.55342,-2.167417 -1.05558,-1.43728 -2.14382,-2.855201 -3.26594,-4.256788 -2.24121,-2.803176 -4.63304,-5.52227 -7.17672,-8.136717 -5.09217,-5.214975 -10.81588,-10.044617 -17.45483,-13.841671 -3.31978,-1.886731 -6.87849,-3.498835 -10.68099,-4.627605 -3.79282,-1.133614 -7.85603,-1.737921 -11.96825,-1.603028 -4.1098,0.120987 -8.23411,1.06223 -12.00818,2.668283 -1.88915,0.802117 -3.6918,1.765147 -5.39101,2.850364 -0.84869,0.543816 -1.6738,1.114859 -2.47349,1.712511 -0.79728,0.598867 -1.56492,1.20862 -2.36401,1.901254 -0.42526,0.354477 -0.7138,0.629112 -1.04892,0.930356 l -0.98904,0.898903 c -0.58737,0.541402 -1.19894,1.059816 -1.81777,1.569154 -1.23947,1.01747 -2.53158,1.981096 -3.87448,2.883024 -2.68644,1.805676 -5.54345,3.399628 -8.51237,4.815127 -5.94693,2.824957 -12.29068,4.96031 -18.72213,6.805903 -6.43691,1.850435 -12.97302,3.40386 -19.49098,5.098837 -6.51555,1.719165 -13.0438,3.495199 -19.45227,6.28991 -1.59819,0.704117 -3.18851,1.480222 -4.75403,2.359774 -1.56794,0.881966 -3.09111,1.855271 -4.63123,3.036671 l -0.46216,0.361138 -0.31334,0.24983 -0.23834,0.199018 -0.95214,0.793646 c -0.63576,0.525671 -1.26427,1.057393 -1.87645,1.615128 -1.24007,1.084003 -2.43599,2.226693 -3.60892,3.383891 -2.33316,2.333768 -4.52053,4.832064 -6.45687,7.561448 -1.93452,2.72817 -3.61981,5.6983 -4.85989,8.9231037 -1.25822,3.2072629 -1.95629,6.7399645 -1.99864,10.2678374 0.0109,1.7675617 0.16635,3.5278659 0.5033,5.2367479 0.36173,1.696185 0.82146,3.362728 1.47356,4.905869 1.24613,3.125596 3.01732,5.823514 4.92341,8.18632 1.93452,2.340416 4.04386,4.331794 6.19736,6.065482 4.32212,3.460721 8.80334,5.923332 13.11094,7.851202 4.31727,1.918787 8.48515,3.293155 12.39955,4.298523 3.9132,1.013237 7.57475,1.646581 10.91449,2.051876 2.11115,0.251037 4.07773,0.393194 5.92031,0.471836 -0.005,0.0103 -0.0127,0.02598 -0.0169,0.03688 -0.1113,0.25588 -0.23895,0.532326 -0.32545,0.771261 -0.19417,0.497849 -0.37686,0.992068 -0.52567,1.469343 -0.16938,0.486351 -0.31214,0.966048 -0.44098,1.439702 -0.1355,0.477878 -0.27645,0.958186 -0.38231,1.428204 l -0.33996,1.422153 -0.28612,1.413689 c -0.20205,0.946085 -0.34178,1.883102 -0.49422,2.823748 -0.16696,0.943664 -0.27161,1.877052 -0.3938,2.815276 l -0.17543,1.408242 -0.13308,1.402795 c -0.0804,0.933992 -0.19599,1.875241 -0.24741,2.805597 l -0.17966,2.801364 c -0.072,0.937621 -0.078,1.861933 -0.12037,2.794711 -0.0303,0.93157 -0.075,1.866165 -0.0919,2.795917 l -0.0272,2.786239 c -10e-4,0.928552 -0.0321,1.864354 -0.006,2.786849 l 0.0423,2.779584 c 0.0212,0.92552 0.0145,1.858908 0.0592,2.780195 l 0.21656,5.547075 0.30246,7.733232 8.05868,-3.066916 3.20363,-1.552821 3.2496,-1.460871 3.29256,-1.36711 3.33308,-1.268506 3.36999,-1.173531 3.40628,-1.074331 3.43713,-0.975123 3.46737,-0.873502 c 1.16446,-0.254665 2.3259,-0.532326 3.4946,-0.771269 1.1705,-0.220791 2.34041,-0.466992 3.51637,-0.670243 1.17777,-0.18571 2.35493,-0.400452 3.53694,-0.5662 1.18564,-0.151233 2.36764,-0.335729 3.55509,-0.46276 2.3755,-0.269188 4.75947,-0.476671 7.1507,-0.612174 2.39003,-0.130056 4.7861,-0.197201 7.18398,-0.190547 4.79576,0.01207 9.59698,0.305477 14.37339,0.877123 4.7746,0.572251 9.52561,1.42155 14.21854,2.540649 2.34586,0.559546 4.67841,1.189261 6.99403,1.880077 2.31502,0.693231 4.61066,1.456631 6.88817,2.273875 1.1324,0.430093 2.27448,0.834784 3.40023,1.282418 1.1203,0.459734 2.25029,0.903143 3.36515,1.376186 l 3.33247,1.469946 3.29679,1.560071 5.51797,2.610847 c 0.29644,0.147583 0.50626,0.180279 0.80804,0.309989"
       style="fill:#000000;fill-opacity:1;fill-rule:nonzero;stroke:none;stroke-width:0.60491544"
       id="path402" />
    <g
       transform="matrix(0.62851728,0,0,0.62851728,591.93678,80.466342)"
       id="g467">
      <path
         inkscape:connector-curvature="0"
         style="fill:#000000;fill-opacity:1;fill-rule:nonzero;stroke:none;stroke-width:0.82181782"
         d="m -64.799481,206.73513 c -9.895508,-29.55996 -39.858989,-22.14881 -53.136269,-9.45583 -7.63387,7.29856 -100.54365,91.02618 -124.54156,113.23334 -2.46956,2.19672 -6.23184,5.54974 -11.0781,9.88647 l -0.35831,0.31311 0.003,0.006 c -3.78651,3.6763 -8.86503,7.95513 -11.70661,10.29436 -29.40828,27.88752 -60.85159,56.24863 -86.257,80.18965 -40.92899,-38.71995 -78.06694,-72.67006 -97.96397,-90.48379 l 0.004,-0.006 -0.35996,-0.31311 c -4.84708,-4.33673 -8.60854,-7.68975 -11.0781,-9.88647 -23.9979,-22.20716 -116.90687,-105.93478 -124.54238,-113.23334 -13.27647,-12.69298 -43.23912,-20.10413 -53.13463,9.45583 -3.6349,10.8595 -2.41943,19.97757 0.11341,26.82003 1.98305,13.72189 10.81759,21.78063 10.81759,21.78063 5.54316,3.79352 28.72828,-5.52179 38.22521,6.71015 7.98314,10.28833 18.7358,29.73829 30.63737,37.78882 13.11374,8.8707 48.00895,23.13335 63.26024,44.51212 0.49803,8.02423 -2.35039,19.64555 -6.00009,29.08906 -1.65021,2.90348 -3.38753,5.75437 -5.03527,8.45486 l -2.12112,3.4878 1.6009,1.45708 c 3.4237,3.11469 7.2698,6.64111 11.50052,10.52009 20.40985,18.71443 49.32633,45.2271 82.559,73.06207 -48.87104,47.98923 -93.81872,94.83941 -112.73039,121.8567 l -0.14711,0.2038 c -2.19014,2.8237 -4.18963,5.507 -5.93763,8.0045 l -3.10401,4.4337 5.40345,-0.3065 c 52.13366,-2.9537 117.62103,-40.99313 178.03286,-85.57839 60.411,44.58526 125.90002,82.62469 178.03203,85.57839 l 5.40509,0.3065 -3.10565,-4.4337 c -1.748,-2.4992 -3.74913,-5.1824 -5.93763,-8.0062 l -0.1471,-0.2021 c -18.91332,-27.01729 -63.85936,-73.86747 -112.72957,-121.8567 33.23267,-27.83497 62.14832,-54.34764 82.55817,-73.06207 4.23072,-3.87898 8.076,-7.4054 11.50052,-10.52009 l 1.6009,-1.45708 -2.12111,-3.4878 c -1.64775,-2.70049 -3.38507,-5.55138 -5.03528,-8.45486 -3.65052,-9.44351 -6.49811,-21.06483 -5.99763,-29.08906 15.24883,-21.37877 50.14322,-35.64142 63.25778,-44.51212 11.90239,-8.05053 22.65423,-27.50049 30.63819,-37.78882 9.49528,-12.23194 32.681228,-2.91663 38.224389,-6.71015 0,0 8.835363,-8.05874 10.817587,-21.78145 2.532842,-6.84328 3.74831,-15.96053 0.114233,-26.81921"
         id="path428" />
      <path
         inkscape:connector-curvature="0"
         style="fill:#ffffff;fill-opacity:1;fill-rule:nonzero;stroke:none;stroke-width:0.82181782"
         d="m -94.770274,231.4811 c -4.351525,0 -7.877946,-3.5256 -7.877946,-7.87712 0,-4.35235 3.526421,-7.87877 7.877946,-7.87877 4.351525,0 7.877945,3.52642 7.877945,7.87877 0,4.35152 -3.52642,7.87712 -7.877945,7.87712"
         id="path424" />
      <path
         d="m -583.99402,543.77756 c -3.70311,0 -6.71425,3.01196 -6.71425,6.71507 0,3.70394 3.01114,6.71426 6.71425,6.71426 3.70311,0 6.7159,-3.01032 6.7159,-6.71426 0,-3.70311 -3.01279,-6.71507 -6.7159,-6.71507 m 0,15.75589 c -4.98514,0 -9.04081,-4.05567 -9.04081,-9.04082 0,-4.98596 4.05567,-9.04164 9.04081,-9.04164 4.98597,0 9.04164,4.05568 9.04164,9.04164 0,4.98515 -4.05567,9.04082 -9.04164,9.04082"
         style="fill:#ffffff;fill-opacity:1;fill-rule:nonzero;stroke:none;stroke-width:0.82181782"
         id="path2610"
         inkscape:connector-curvature="0" />
      <path
         inkscape:connector-curvature="0"
         style="fill:#ffffff;fill-opacity:1;fill-rule:nonzero;stroke:none;stroke-width:0.82181782"
         d="m -146.41741,273.49982 c -4.3507,0 -7.87877,-3.52642 -7.87877,-7.87794 0,-4.35153 3.52807,-7.87877 7.87877,-7.87877 4.3507,0 7.87712,3.52724 7.87712,7.87877 0,4.35152 -3.52642,7.87794 -7.87712,7.87794"
         id="path422" />
      <path
         inkscape:connector-curvature="0"
         style="fill:#ffffff;fill-opacity:1;fill-rule:nonzero;stroke:none;stroke-width:0.82181782"
         d="m -198.06537,313.76807 c -4.35153,0 -7.87877,-3.52806 -7.87877,-7.87794 0,-4.35235 3.52724,-7.87795 7.87877,-7.87795 4.35152,0 7.87794,3.5256 7.87794,7.87795 0,4.34988 -3.52642,7.87794 -7.87794,7.87794"
         id="path420" />
      <path
         inkscape:connector-curvature="0"
         style="fill:#ffffff;fill-opacity:1;fill-rule:nonzero;stroke:none;stroke-width:0.82181782"
         d="m -201.43647,384.40988 c -0.22189,0.20299 -0.45775,0.41995 -0.68457,0.62705 l -47.73447,-54.82839 c 2.96101,-2.64544 5.85956,-5.22759 8.6858,-7.74153 l 26.18065,28.60255 c -0.2597,10.59898 7.2246,22.96159 13.55259,33.34032"
         id="path418" />
      <path
         inkscape:connector-curvature="0"
         style="fill:#ffffff;fill-opacity:1;fill-rule:nonzero;stroke:none;stroke-width:0.82181782"
         d="m -211.34841,393.48357 c -20.43779,18.74074 -49.46357,45.35038 -82.77102,73.24205 -17.0067,-16.65085 -34.41362,-33.37977 -51.30609,-49.41344 33.1094,-30.78776 65.63284,-60.3354 92.95746,-84.76968 l 47.76076,54.85798 c -2.09646,1.9173 -4.30386,3.94062 -6.64111,6.08309"
         id="path416" />
      <path
         inkscape:connector-curvature="0"
         style="fill:#ffffff;fill-opacity:1;fill-rule:nonzero;stroke:none;stroke-width:0.82181782"
         d="m -492.40188,393.48357 c -2.33643,-2.14247 -4.54465,-4.16579 -6.64029,-6.08309 l 47.76159,-54.85798 c 88.22789,78.89862 230.63987,211.0765 272.10962,266.37248 -100.53543,-10.4091 -249.10941,-146.63692 -313.23092,-205.43141"
         id="path414" />
      <path
         inkscape:connector-curvature="0"
         style="fill:#ffffff;fill-opacity:1;fill-rule:nonzero;stroke:none;stroke-width:0.82181782"
         d="m -524.57851,598.91498 c 19.4401,-25.92257 61.06517,-68.74174 108.89086,-115.04624 l 50.00432,38.76514 c -54.44132,39.07497 -111.9135,71.4176 -158.89518,76.2811"
         id="path412" />
      <path
         inkscape:connector-curvature="0"
         style="fill:#ffffff;fill-opacity:1;fill-rule:nonzero;stroke:none;stroke-width:0.82181782"
         d="m -502.31464,384.40988 c 6.32881,-10.37873 13.81475,-22.74134 13.55424,-33.34032 l 26.18229,-28.60255 c 2.82541,2.51394 5.7215,5.09609 8.68415,7.74153 l -47.73364,54.82839 c -0.22683,-0.2071 -0.46351,-0.42406 -0.68704,-0.62705"
         id="path410" />
      <path
         inkscape:connector-curvature="0"
         style="fill:#ffffff;fill-opacity:1;fill-rule:nonzero;stroke:none;stroke-width:0.82181782"
         d="m -505.6841,313.76807 c -4.35152,0 -7.87794,-3.52806 -7.87794,-7.87794 0,-4.35235 3.52642,-7.87795 7.87794,-7.87795 4.35153,0 7.87877,3.5256 7.87877,7.87795 0,4.34988 -3.52724,7.87794 -7.87877,7.87794"
         id="path408" />
      <path
         inkscape:connector-curvature="0"
         style="fill:#ffffff;fill-opacity:1;fill-rule:nonzero;stroke:none;stroke-width:0.82181782"
         d="m -557.33041,273.49982 c -4.35153,0 -7.87877,-3.52642 -7.87877,-7.87794 0,-4.35153 3.52724,-7.87877 7.87877,-7.87877 4.3507,0 7.87876,3.52724 7.87876,7.87877 0,4.35152 -3.52806,7.87794 -7.87876,7.87794"
         id="path406" />
      <path
         inkscape:connector-curvature="0"
         style="fill:#ffffff;fill-opacity:1;fill-rule:nonzero;stroke:none;stroke-width:0.82181782"
         d="m -608.98002,231.4811 c -4.3507,0 -7.87712,-3.5256 -7.87712,-7.87712 0,-4.35235 3.52642,-7.87877 7.87712,-7.87877 4.35235,0 7.87877,3.52642 7.87877,7.87877 0,4.35152 -3.52642,7.87712 -7.87877,7.87712"
         id="path404" />
    </g>
  </g>
</svg>
