<?xml version="1.0" encoding="UTF-8" standalone="no"?>
<svg
   xmlns:dc="http://purl.org/dc/elements/1.1/"
   xmlns:cc="http://creativecommons.org/ns#"
   xmlns:rdf="http://www.w3.org/1999/02/22-rdf-syntax-ns#"
   xmlns:svg="http://www.w3.org/2000/svg"
   xmlns="http://www.w3.org/2000/svg"
   xmlns:sodipodi="http://sodipodi.sourceforge.net/DTD/sodipodi-0.dtd"
   xmlns:inkscape="http://www.inkscape.org/namespaces/inkscape"
   version="1.1"
   x="0"
   y="0"
   width="1150"
   height="880"
   viewBox="0 0 1150 880"
   id="svg628"
   sodipodi:docname="064.svg"
   inkscape:version="0.92.4 (5da689c313, 2019-01-14)">
  <metadata
     id="metadata634">
    <rdf:RDF>
      <cc:Work
         rdf:about="">
        <dc:format>image/svg+xml</dc:format>
        <dc:type
           rdf:resource="http://purl.org/dc/dcmitype/StillImage" />
        <dc:title></dc:title>
      </cc:Work>
    </rdf:RDF>
  </metadata>
  <defs
     id="defs632" />
  <sodipodi:namedview
     pagecolor="#ffffff"
     bordercolor="#666666"
     borderopacity="1"
     objecttolerance="10"
     gridtolerance="10"
     guidetolerance="10"
     inkscape:pageopacity="0"
     inkscape:pageshadow="2"
     inkscape:window-width="1920"
     inkscape:window-height="1133"
     id="namedview630"
     showgrid="false"
     inkscape:snap-global="false"
     inkscape:zoom="0.71256515"
     inkscape:cx="909.27795"
     inkscape:cy="326.49409"
     inkscape:window-x="0"
     inkscape:window-y="0"
     inkscape:window-maximized="1"
     inkscape:current-layer="svg628" />
  <g
     id="g750"
     transform="translate(-300.32342,13.62588)">
    <g
       transform="translate(305.93694,318.56736)"
       id="g683">
      <path
         style="fill:#adada9"
         inkscape:connector-curvature="0"
         id="path619"
         d="m 375.072,384.253 c 4.993,8.142 8.215,18.465 11.515,29.095 6.435,20.71 14.215,45.672 36.878,65.952 l 40.492,-32.072 c -26.225,-13.003 -44.115,-29.158 -60.332,-42.408 -10.848,-8.862 -19.96,-16.29 -28.553,-20.567" />
      <path
         style="fill:#adada9"
         inkscape:connector-curvature="0"
         id="path621"
         d="m 580.812,317.022 -29.52,0.445 c -11.125,8.661 -106.092,25.301 -166.807,52.141 9.723,5.215 19.335,13.06 30.072,21.832 16.863,13.775 37.016,30.223 65.558,42.987 l 101.163,-80.127 -0.228,-0.15 -0.238,-37.128" />
      <path
         style="fill:#adada9"
         inkscape:connector-curvature="0"
         id="path623"
         d="m 370.088,418.47 c -2.871,-9.24 -5.235,-16.532 -7.898,-21.927 -0.957,1.165 -1.957,2.292 -3.005,3.367 L 348.87,389.865 c 0.815,-0.835 1.585,-1.717 2.328,-2.625 -93.231,53.5 -198.733,109.87 -198.733,109.87 0.08,-0.16 0.178,-0.34 0.263,-0.502 -9.268,5.717 -19.768,9.74 -31.278,11.85 l -15.565,3.302 235.183,32.805 66.774,-52.89 c -25.404,-22.037 -30.565,-50.05 -37.754,-73.205" />
      <path
         inkscape:connector-curvature="0"
         id="path672"
         style="fill:#0a0b09"
         d="m 324.992,244.622 c 0.94,0.58 1.888,1.185 2.845,1.833 0.823,0.535 1.638,1.11 2.46,1.697 0.885,0.648 1.773,1.313 2.678,1.965 1.672,1.35 3.425,2.673 5.04,4.148 1.642,1.45 3.262,2.928 4.74,4.49 1.555,1.5 2.9,3.14 4.245,4.695 1.287,1.595 2.46,3.2 3.51,4.762 0.962,1.613 1.982,3.093 2.62,4.608 0.137,0.287 0.247,0.55 0.38,0.827 -8.098,-11.725 -17.783,-21.652 -28.518,-29.025 m 89.565,146.818 c -10.737,-8.773 -20.35,-16.618 -30.072,-21.833 60.715,-26.84 155.682,-43.479 166.807,-52.14 26.475,-37.587 1.015,-143.735 -65.742,-140.79 0.697,0.483 1.387,0.965 2.127,1.448 1.895,1.467 3.98,2.895 5.95,4.607 0.995,0.84 2.008,1.693 3.033,2.555 0.977,0.915 1.967,1.84 2.965,2.775 2.04,1.815 3.852,3.938 5.775,5.923 1.76,2.147 3.627,4.195 5.185,6.44 1.592,2.217 3.147,4.397 4.385,6.687 1.392,2.19 2.417,4.488 3.39,6.653 1.102,2.105 1.572,4.342 2.282,6.27 0.365,0.97 0.58,1.935 0.728,2.87 0.177,0.922 0.342,1.795 0.5,2.62 0.397,1.63 0.422,3.095 0.462,4.292 0.103,2.388 0.163,3.755 0.163,3.755 0,0 -0.15,-1.357 -0.41,-3.73 -0.118,-1.187 -0.235,-2.625 -0.738,-4.217 -0.207,-0.798 -0.427,-1.65 -0.659,-2.545 -0.206,-0.903 -0.476,-1.835 -0.901,-2.768 -0.827,-1.855 -1.415,-3.982 -2.635,-5.977 -1.09,-2.05 -2.225,-4.21 -3.727,-6.253 -1.343,-2.142 -2.998,-4.165 -4.683,-6.21 -1.645,-2.07 -3.6,-3.945 -5.43,-5.902 -2.002,-1.808 -3.87,-3.735 -5.965,-5.36 -1.02,-0.838 -2.037,-1.668 -3.037,-2.49 -1.043,-0.768 -2.075,-1.523 -3.088,-2.27 -2,-1.523 -4.1,-2.758 -6,-4.043 -1.997,-1.125 -3.812,-2.33 -5.605,-3.185 -0.007,-0.002 -0.012,-0.007 -0.02,-0.01 l -20.915,8.455 c 0.63,0.43 1.253,0.865 1.918,1.303 1.847,1.412 3.865,2.802 5.782,4.45 0.968,0.81 1.948,1.635 2.94,2.47 0.953,0.882 1.918,1.777 2.893,2.677 1.967,1.768 3.757,3.788 5.62,5.718 1.725,2.057 3.537,4.04 5.07,6.2 1.57,2.125 3.072,4.242 4.312,6.435 1.36,2.115 2.39,4.317 3.358,6.405 1.062,2.045 1.602,4.17 2.285,6.047 0.357,0.943 0.587,1.88 0.75,2.785 0.177,0.85 0.342,1.663 0.487,2.433 0.005,0.035 0.01,0.067 0.02,0.1 0.378,1.575 0.455,2.982 0.483,4.142 0.105,2.313 0.165,3.638 0.165,3.638 0,0 -0.153,-1.315 -0.41,-3.613 -0.105,-1.15 -0.28,-2.532 -0.76,-4.072 -0.2,-0.77 -0.425,-1.588 -0.665,-2.45 -0.22,-0.87 -0.503,-1.765 -0.92,-2.67 -0.795,-1.798 -1.453,-3.82 -2.63,-5.75 -1.085,-1.968 -2.225,-4.038 -3.693,-6.005 -1.342,-2.043 -2.945,-4.003 -4.607,-5.958 -1.62,-1.982 -3.52,-3.795 -5.318,-5.665 -1.935,-1.75 -3.785,-3.58 -5.812,-5.162 -1,-0.805 -1.995,-1.608 -2.975,-2.4 -1.005,-0.735 -2.003,-1.463 -2.983,-2.173 -1.962,-1.47 -4.002,-2.677 -5.865,-3.912 -1.727,-0.973 -3.317,-1.98 -4.87,-2.78 l -21.005,8.492 c 0.425,0.288 0.835,0.57 1.275,0.863 1.798,1.355 3.743,2.712 5.61,4.297 0.943,0.775 1.89,1.57 2.848,2.38 0.93,0.85 1.867,1.713 2.817,2.578 1.9,1.722 3.668,3.637 5.463,5.512 1.695,1.97 3.452,3.89 4.957,5.963 1.548,2.032 3.003,4.087 4.243,6.18 1.325,2.042 2.365,4.155 3.327,6.16 1.02,1.982 1.635,4 2.288,5.822 0.347,0.925 0.592,1.828 0.77,2.7 0.187,0.82 0.357,1.603 0.492,2.348 0.008,0.035 0.015,0.065 0.02,0.1 0.36,1.52 0.488,2.865 0.505,3.992 0.105,2.24 0.165,3.52 0.165,3.52 0,0 -0.15,-1.27 -0.412,-3.495 -0.093,-1.112 -0.32,-2.44 -0.78,-3.93 -0.193,-0.742 -0.42,-1.525 -0.67,-2.347 -0.235,-0.838 -0.53,-1.703 -0.935,-2.578 -0.763,-1.742 -1.495,-3.655 -2.628,-5.522 -1.08,-1.888 -2.225,-3.863 -3.655,-5.755 -1.347,-1.948 -2.897,-3.843 -4.537,-5.705 -1.59,-1.903 -3.433,-3.648 -5.2,-5.433 -1.873,-1.697 -3.703,-3.425 -5.66,-4.957 -0.983,-0.775 -1.953,-1.55 -2.918,-2.315 -0.967,-0.708 -1.927,-1.4 -2.877,-2.078 -1.92,-1.412 -3.905,-2.595 -5.73,-3.777 -1.458,-0.825 -2.82,-1.643 -4.148,-2.353 l -21.057,8.513 c 0.21,0.142 0.41,0.28 0.622,0.422 1.755,1.303 3.63,2.62 5.443,4.145 0.917,0.743 1.832,1.51 2.757,2.293 0.905,0.817 1.82,1.65 2.745,2.48 1.828,1.677 3.575,3.487 5.305,5.305 1.665,1.887 3.368,3.737 4.843,5.725 1.527,1.94 2.932,3.93 4.17,5.927 1.292,1.968 2.34,3.988 3.297,5.913 0.98,1.925 1.668,3.83 2.29,5.6 0.34,0.897 0.6,1.772 0.793,2.617 0.197,0.785 0.37,1.54 0.5,2.26 0.007,0.03 0.012,0.063 0.02,0.098 0.34,1.467 0.517,2.752 0.527,3.84 0.103,2.165 0.163,3.405 0.163,3.405 0,0 -0.148,-1.228 -0.41,-3.375 -0.083,-1.078 -0.365,-2.35 -0.805,-3.788 -0.185,-0.715 -0.418,-1.465 -0.673,-2.25 -0.247,-0.807 -0.56,-1.637 -0.952,-2.485 -0.735,-1.682 -1.535,-3.49 -2.628,-5.292 -1.072,-1.808 -2.225,-3.69 -3.62,-5.51 -1.342,-1.845 -2.842,-3.68 -4.462,-5.45 -1.563,-1.818 -3.35,-3.495 -5.085,-5.198 -1.808,-1.642 -3.62,-3.262 -5.503,-4.752 -0.965,-0.748 -1.915,-1.498 -2.857,-2.228 -0.935,-0.677 -1.855,-1.345 -2.775,-1.982 -1.883,-1.363 -3.81,-2.513 -5.593,-3.648 -1.192,-0.675 -2.317,-1.322 -3.417,-1.927 l -21.123,8.537 c 1.695,1.24 3.493,2.523 5.25,3.978 0.888,0.707 1.77,1.447 2.663,2.2 0.882,0.787 1.767,1.585 2.67,2.385 1.757,1.627 3.485,3.335 5.152,5.1 1.63,1.8 3.278,3.58 4.725,5.485 1.508,1.847 2.86,3.777 4.1,5.675 1.258,1.89 2.313,3.82 3.265,5.665 0.94,1.86 1.703,3.66 2.295,5.38 0.333,0.87 0.603,1.715 0.813,2.527 0.205,0.755 0.382,1.478 0.507,2.173 0.005,0.035 0.013,0.065 0.02,0.098 0.32,1.412 0.55,2.642 0.548,3.692 0.105,2.093 0.165,3.287 0.165,3.287 0,0 -0.15,-1.182 -0.41,-3.255 -0.073,-1.045 -0.41,-2.26 -0.828,-3.645 -0.177,-0.692 -0.412,-1.407 -0.677,-2.155 -0.265,-0.769 -0.588,-1.567 -0.973,-2.39 -0.702,-1.63 -1.577,-3.325 -2.625,-5.062 -1.065,-1.728 -2.222,-3.515 -3.582,-5.26 -1.343,-1.75 -2.793,-3.518 -4.39,-5.2 -1.535,-1.733 -3.265,-3.343 -4.97,-4.96 -1.745,-1.588 -3.535,-3.11 -5.35,-4.553 -0.943,-0.715 -1.873,-1.435 -2.795,-2.14 -0.898,-0.647 -1.785,-1.282 -2.67,-1.89 -1.843,-1.302 -3.713,-2.427 -5.458,-3.51 -0.925,-0.525 -1.81,-1.027 -2.677,-1.507 l -21.223,8.577 c 1.46,1.053 2.965,2.153 4.46,3.373 0.863,0.672 1.713,1.387 2.57,2.115 0.858,0.752 1.72,1.52 2.598,2.285 1.685,1.58 3.39,3.182 4.997,4.895 1.595,1.707 3.188,3.427 4.608,5.242 1.485,1.758 2.787,3.628 4.027,5.423 1.228,1.82 2.288,3.652 3.238,5.42 0.897,1.802 1.73,3.49 2.295,5.158 0.322,0.847 0.607,1.662 0.835,2.442 0.215,0.722 0.397,1.417 0.515,2.088 0.005,0.032 0.01,0.062 0.017,0.092 0.303,1.362 0.583,2.533 0.573,3.542 0.105,2.023 0.165,3.175 0.165,3.175 0,0 -0.15,-1.142 -0.413,-3.14 -0.062,-1.005 -0.452,-2.167 -0.847,-3.502 -0.173,-0.663 -0.408,-1.34 -0.683,-2.053 -0.28,-0.742 -0.615,-1.505 -0.99,-2.297 -0.672,-1.575 -1.62,-3.16 -2.62,-4.835 -1.06,-1.645 -2.225,-3.343 -3.552,-5.013 -1.343,-1.65 -2.735,-3.355 -4.315,-4.947 -1.508,-1.648 -3.183,-3.195 -4.855,-4.725 -1.68,-1.533 -3.45,-2.953 -5.195,-4.348 -0.925,-0.685 -1.835,-1.38 -2.735,-2.055 -0.86,-0.617 -1.71,-1.22 -2.568,-1.792 -1.8,-1.253 -3.615,-2.348 -5.32,-3.38 -0.662,-0.375 -1.302,-0.735 -1.937,-1.088 l -21.318,8.62 c 1.208,0.87 2.435,1.778 3.665,2.768 0.833,0.642 1.653,1.325 2.478,2.027 0.832,0.72 1.67,1.458 2.52,2.188 1.617,1.535 3.302,3.03 4.842,4.687 1.565,1.623 3.103,3.275 4.495,5.005 1.465,1.666 2.715,3.468 3.958,5.17 1.192,1.743 2.262,3.488 3.205,5.17 0.857,1.745 1.762,3.32 2.297,4.935 0.315,0.826 0.615,1.608 0.858,2.363 0.132,0.407 0.21,0.795 0.31,1.187 8.042,12.218 14.372,26.276 18.327,41.473 4.498,17.285 5.228,33.835 2.48,48.315 -4.555,-1.633 -9.207,-2.628 -14.08,-2.765 2.315,-12.325 1.625,-26.708 -2.335,-41.925 -9.532,-36.628 -33.967,-65.733 -62.255,-74.153 l 0.023,-0.08 -3.205,0.32 c 2.752,1.67 5.772,3.748 8.837,6.173 1.63,1.235 3.195,2.657 4.835,4.027 1.543,1.49 3.205,2.885 4.685,4.48 1.533,1.543 3.013,3.125 4.378,4.773 1.442,1.57 2.645,3.312 3.887,4.912 1.158,1.67 2.233,3.323 3.173,4.925 0.817,1.683 1.795,3.15 2.302,4.713 0.58,1.517 1.185,2.875 1.408,4.19 0.26,1.29 0.662,2.372 0.63,3.332 0.107,1.873 0.167,2.941 0.167,2.941 0,0 -0.152,-1.056 -0.412,-2.905 -0.043,-0.935 -0.538,-1.986 -0.895,-3.218 -0.318,-1.252 -1.03,-2.538 -1.715,-3.965 -0.608,-1.458 -1.7,-2.83 -2.615,-4.38 -1.045,-1.478 -2.225,-2.99 -3.48,-4.51 -1.343,-1.457 -2.635,-3.033 -4.168,-4.445 -1.452,-1.478 -3.017,-2.893 -4.625,-4.255 -1.552,-1.42 -3.287,-2.638 -4.887,-3.943 -1.693,-1.189 -3.31,-2.43 -4.973,-3.48 -3.275,-2.172 -6.462,-3.977 -9.24,-5.335 -1.372,-0.73 -2.687,-1.192 -3.815,-1.712 -1.112,-0.43 -2.017,-0.69 -2.78,-0.975 -0.427,-0.12 -0.835,-0.215 -1.195,-0.295 l -10.247,1.025 c 0.01,0.005 0.02,0.007 0.03,0.015 0.095,0.06 0.187,0.12 0.285,0.18 0.717,0.432 1.455,0.887 2.21,1.367 0.817,0.535 1.65,1.1 2.5,1.688 1.812,1.235 3.642,2.65 5.512,4.137 0.898,0.698 1.768,1.458 2.648,2.226 0.895,0.774 1.79,1.569 2.685,2.375 0.85,0.839 1.73,1.662 2.6,2.5 0.685,0.632 1.902,1.937 2.537,2.625 0.848,0.877 1.658,1.784 2.458,2.699 0.787,0.91 1.575,1.818 2.305,2.758 0.775,0.918 1.5,1.867 2.197,2.823 0.683,0.937 1.33,1.884 1.99,2.792 1.268,1.887 2.398,3.777 3.425,5.583 0.888,1.892 1.928,3.565 2.503,5.304 0.64,1.703 1.3,3.228 1.577,4.688 0.318,1.44 0.76,2.65 0.778,3.717 0.2,2.088 0.312,3.28 0.312,3.28 0,0 -0.202,-1.18 -0.555,-3.239 -0.09,-1.043 -0.63,-2.221 -1.045,-3.603 -0.37,-1.403 -1.14,-2.86 -1.887,-4.47 -0.678,-1.642 -1.833,-3.223 -2.825,-4.985 -1.138,-1.688 -2.37,-3.442 -3.738,-5.185 -0.74,-0.863 -1.46,-1.77 -2.22,-2.66 -0.722,-0.84 -1.467,-1.68 -2.26,-2.485 -0.807,-0.9 -1.677,-1.755 -2.545,-2.61 -0.807,-0.795 -1.622,-1.583 -2.47,-2.34 -0.707,-0.645 -2.022,-1.87 -2.777,-2.455 -0.84,-0.688 -1.678,-1.365 -2.49,-2.055 -0.118,-0.09 -0.238,-0.182 -0.355,-0.273 -0.968,-0.747 -1.933,-1.482 -2.895,-2.195 -0.715,-0.524 -1.42,-1.04 -2.135,-1.524 -0.26,-0.181 -0.52,-0.361 -0.78,-0.535 -1.928,-1.288 -3.798,-2.496 -5.618,-3.526 -0.93,-0.535 -1.832,-1.035 -2.705,-1.507 -0.337,-0.173 -0.667,-0.34 -0.995,-0.505 -0.55,-0.295 -1.092,-0.558 -1.615,-0.8 -0.907,-0.428 -1.772,-0.783 -2.565,-1.15 -0.757,-0.305 -1.435,-0.545 -2.047,-0.763 -0.355,-0.125 -0.69,-0.247 -1,-0.372 -0.34,-0.103 -0.67,-0.198 -0.975,-0.28 -0.278,-0.073 -0.475,-0.12 -0.713,-0.18 l -10.145,1.015 c 0.258,0.147 0.505,0.272 0.76,0.432 0.103,0.065 0.208,0.13 0.31,0.195 0.79,0.475 1.605,0.978 2.443,1.5 0.902,0.605 1.827,1.238 2.77,1.9 1.987,1.348 3.967,2.938 6.012,4.571 0.988,0.787 1.935,1.647 2.905,2.505 0.98,0.867 1.963,1.752 2.928,2.669 0.932,0.94 1.89,1.868 2.84,2.81 0.57,0.528 2.22,2.385 2.747,2.958 0.925,0.985 1.793,2.015 2.653,3.042 0.85,1.028 1.712,2.038 2.49,3.103 0.825,1.037 1.605,2.107 2.36,3.17 0.74,1.047 1.427,2.12 2.132,3.142 1.378,2.108 2.558,4.235 3.68,6.243 0.958,2.102 2.058,3.982 2.698,5.902 0.702,1.888 1.42,3.573 1.75,5.185 0.375,1.588 0.86,2.928 0.927,4.1 0.29,2.305 0.458,3.618 0.458,3.618 0,0 -0.258,-1.3 -0.703,-3.573 -0.14,-1.15 -0.72,-2.455 -1.187,-3.99 -0.43,-1.55 -1.258,-3.177 -2.065,-4.974 -0.748,-1.828 -1.965,-3.613 -3.03,-5.591 -1.23,-1.895 -2.52,-3.89 -4,-5.855 -0.783,-0.977 -1.543,-2.002 -2.355,-3.002 -0.788,-0.957 -1.593,-1.915 -2.44,-2.853 -0.853,-1.012 -1.795,-1.97 -2.718,-2.937 -0.875,-0.915 -1.752,-1.827 -2.682,-2.698 -0.59,-0.537 -2.338,-2.284 -2.97,-2.772 -0.903,-0.773 -1.803,-1.535 -2.68,-2.31 -0.13,-0.103 -0.253,-0.205 -0.38,-0.305 -1.03,-0.858 -2.073,-1.677 -3.115,-2.47 -0.773,-0.59 -1.533,-1.175 -2.305,-1.725 -0.275,-0.202 -0.55,-0.398 -0.83,-0.593 -2.095,-1.432 -4.105,-2.815 -6.1,-3.96 -1.005,-0.595 -1.985,-1.16 -2.928,-1.695 -0.372,-0.192 -0.735,-0.382 -1.095,-0.565 -0.595,-0.32 -1.177,-0.61 -1.745,-0.885 -0.982,-0.487 -1.93,-0.897 -2.802,-1.3 -0.808,-0.337 -1.543,-0.607 -2.213,-0.865 -0.387,-0.145 -0.752,-0.285 -1.102,-0.427 -0.36,-0.123 -0.708,-0.233 -1.035,-0.335 -0.415,-0.113 -0.753,-0.205 -1.088,-0.298 l -10.085,1.005 c 0.49,0.28 0.98,0.538 1.478,0.853 0.112,0.067 0.225,0.137 0.337,0.21 0.865,0.52 1.758,1.065 2.673,1.635 0.985,0.673 2,1.377 3.035,2.107 2.17,1.465 4.295,3.226 6.515,5.008 1.077,0.87 2.105,1.832 3.165,2.782 1.067,0.958 2.135,1.936 3.17,2.966 1.012,1.042 2.047,2.074 3.08,3.117 0.455,0.422 2.537,2.832 2.96,3.292 1,1.088 1.922,2.24 2.845,3.383 0.907,1.147 1.85,2.265 2.677,3.452 0.87,1.161 1.708,2.34 2.518,3.513 0.797,1.165 1.525,2.357 2.277,3.5 1.49,2.32 2.72,4.687 3.93,6.902 1.03,2.308 2.193,4.393 2.9,6.493 0.758,2.07 1.535,3.927 1.925,5.685 0.425,1.732 0.955,3.205 1.07,4.485 0.383,2.515 0.603,3.952 0.603,3.952 0,0 -0.308,-1.42 -0.843,-3.907 -0.192,-1.255 -0.815,-2.69 -1.34,-4.375 -0.482,-1.698 -1.37,-3.495 -2.24,-5.48 -0.817,-2.01 -2.092,-4.005 -3.235,-6.195 -1.322,-2.105 -2.667,-4.34 -4.262,-6.523 -0.825,-1.095 -1.623,-2.234 -2.49,-3.347 -0.848,-1.075 -1.715,-2.15 -2.618,-3.213 -0.895,-1.132 -1.91,-2.187 -2.887,-3.275 -0.945,-1.032 -1.885,-2.075 -2.898,-3.052 -0.472,-0.433 -2.657,-2.698 -3.162,-3.09 -0.965,-0.858 -1.93,-1.705 -2.873,-2.563 -0.132,-0.117 -0.267,-0.23 -0.402,-0.345 -1.09,-0.96 -2.213,-1.865 -3.333,-2.742 -0.832,-0.653 -1.645,-1.31 -2.475,-1.925 -0.292,-0.22 -0.585,-0.438 -0.877,-0.647 -2.265,-1.581 -4.418,-3.136 -6.585,-4.396 -1.083,-0.655 -2.138,-1.282 -3.158,-1.882 -0.402,-0.21 -0.797,-0.42 -1.192,-0.625 -0.635,-0.345 -1.26,-0.662 -1.87,-0.965 -1.063,-0.555 -2.088,-1.018 -3.043,-1.458 -0.857,-0.37 -1.647,-0.672 -2.375,-0.96 -0.422,-0.167 -0.822,-0.327 -1.202,-0.487 -0.38,-0.138 -0.748,-0.268 -1.095,-0.388 -0.538,-0.157 -1.013,-0.295 -1.435,-0.425 l -10.055,1.005 c 0.725,0.398 1.455,0.798 2.19,1.27 0.122,0.073 0.242,0.148 0.365,0.223 0.94,0.567 1.907,1.16 2.902,1.773 1.075,0.742 2.178,1.517 3.308,2.312 2.35,1.58 4.622,3.515 7.015,5.445 1.167,0.957 2.272,2.023 3.422,3.062 1.153,1.048 2.308,2.118 3.41,3.258 1.098,1.145 2.21,2.285 3.323,3.432 0.342,0.315 2.855,3.28 3.172,3.623 1.075,1.195 2.053,2.47 3.04,3.727 0.968,1.266 1.985,2.486 2.86,3.796 0.92,1.282 1.81,2.577 2.683,3.857 0.85,1.282 1.617,2.595 2.417,3.852 1.6,2.541 2.885,5.148 4.183,7.565 1.102,2.52 2.322,4.81 3.1,7.085 0.817,2.253 1.652,4.283 2.095,6.18 0.482,1.885 1.052,3.485 1.217,4.873 0.475,2.73 0.748,4.29 0.748,4.29 0,0 -0.36,-1.54 -0.988,-4.24 -0.24,-1.36 -0.902,-2.927 -1.485,-4.76 -0.542,-1.85 -1.485,-3.818 -2.415,-5.99 -0.885,-2.193 -2.227,-4.395 -3.442,-6.8 -1.418,-2.305 -2.815,-4.787 -4.525,-7.19 -0.868,-1.208 -1.703,-2.465 -2.623,-3.687 -0.91,-1.193 -1.837,-2.388 -2.795,-3.581 -0.942,-1.25 -2.03,-2.407 -3.06,-3.602 -1.015,-1.158 -2.017,-2.328 -3.112,-3.415 -0.358,-0.325 -2.973,-3.108 -3.353,-3.405 -1.03,-0.948 -2.057,-1.88 -3.067,-2.818 -0.14,-0.125 -0.283,-0.25 -0.425,-0.377 -1.15,-1.065 -2.353,-2.055 -3.55,-3.02 -0.895,-0.715 -1.76,-1.44 -2.645,-2.125 -0.308,-0.238 -0.618,-0.475 -0.928,-0.703 -2.432,-1.725 -4.725,-3.454 -7.067,-4.827 -1.16,-0.72 -2.293,-1.41 -3.385,-2.073 -0.433,-0.23 -0.865,-0.46 -1.29,-0.685 -0.68,-0.367 -1.348,-0.717 -1.998,-1.05 -1.142,-0.615 -2.245,-1.13 -3.28,-1.61 -0.907,-0.399 -1.755,-0.735 -2.54,-1.057 -0.455,-0.187 -0.892,-0.37 -1.305,-0.545 -0.4,-0.158 -0.79,-0.305 -1.155,-0.443 -0.627,-0.195 -1.2,-0.367 -1.7,-0.53 -0.02,-0.007 -0.037,-0.012 -0.06,-0.02 l -10.037,1.003 c 0.952,0.512 1.925,1.062 2.897,1.69 0.13,0.077 0.26,0.158 0.393,0.235 1.01,0.615 2.057,1.252 3.132,1.912 1.158,0.81 2.353,1.65 3.578,2.52 2.525,1.695 4.945,3.8 7.515,5.875 1.257,1.048 2.437,2.213 3.677,3.345 1.243,1.138 2.485,2.301 3.658,3.556 1.175,1.239 2.367,2.484 3.56,3.739 0.227,0.21 3.172,3.726 3.382,3.955 1.153,1.301 2.185,2.695 3.233,4.068 1.027,1.385 2.127,2.712 3.05,4.145 0.967,1.403 1.912,2.808 2.84,4.202 0.907,1.398 1.717,2.833 2.562,4.21 1.71,2.753 3.048,5.598 4.435,8.218 1.175,2.73 2.455,5.227 3.3,7.68 0.878,2.44 1.768,4.632 2.265,6.682 0.54,2.03 1.153,3.758 1.368,5.253 0.567,2.947 0.89,4.63 0.89,4.63 0,0 -0.413,-1.665 -1.133,-4.573 -0.287,-1.47 -0.992,-3.167 -1.63,-5.149 -0.597,-1.996 -1.6,-4.133 -2.59,-6.493 -0.957,-2.375 -2.36,-4.785 -3.647,-7.408 -1.51,-2.515 -2.965,-5.237 -4.788,-7.86 -0.915,-1.32 -1.785,-2.697 -2.757,-4.03 -0.973,-1.307 -1.963,-2.625 -2.975,-3.942 -0.985,-1.368 -2.145,-2.625 -3.23,-3.935 -1.085,-1.278 -2.148,-2.578 -3.33,-3.775 -0.235,-0.215 -3.29,-3.52 -3.543,-3.718 -1.092,-1.03 -2.18,-2.052 -3.257,-3.072 -0.15,-0.14 -0.298,-0.278 -0.448,-0.415 -1.215,-1.17 -2.497,-2.245 -3.77,-3.295 -0.955,-0.78 -1.875,-1.575 -2.815,-2.323 -0.325,-0.262 -0.65,-0.512 -0.98,-0.76 -2.597,-1.872 -5.032,-3.772 -7.545,-5.262 -1.24,-0.783 -2.447,-1.533 -3.615,-2.26 -0.467,-0.25 -0.93,-0.5 -1.385,-0.743 -0.725,-0.394 -1.437,-0.769 -2.13,-1.132 -1.217,-0.683 -2.4,-1.248 -3.52,-1.768 -0.955,-0.427 -1.857,-0.802 -2.7,-1.154 -0.487,-0.208 -0.957,-0.411 -1.407,-0.608 -0.42,-0.17 -0.828,-0.335 -1.215,-0.49 -0.668,-0.218 -1.285,-0.418 -1.833,-0.598 -0.085,-0.027 -0.16,-0.054 -0.24,-0.08 l -10.075,1.005 c 1.195,0.63 2.413,1.308 3.648,2.103 0.14,0.085 0.277,0.168 0.417,0.252 1.088,0.66 2.208,1.343 3.365,2.048 1.243,0.877 2.525,1.79 3.843,2.727 2.707,1.808 5.272,4.088 8.017,6.313 1.348,1.132 2.608,2.4 3.938,3.622 1.325,1.23 2.657,2.483 3.897,3.848 1.26,1.345 2.528,2.695 3.803,4.05 0.115,0.105 3.487,4.175 3.592,4.29 1.23,1.405 2.315,2.925 3.43,4.412 1.085,1.5 2.26,2.933 3.233,4.49 1.017,1.523 2.017,3.043 3.002,4.548 0.963,1.51 1.815,3.065 2.705,4.56 1.823,2.972 3.208,6.057 4.688,8.877 1.247,2.94 2.59,5.645 3.497,8.275 0.935,2.623 1.888,4.985 2.44,7.183 0.593,2.177 1.248,4.035 1.513,5.632 0.66,3.166 1.037,4.973 1.037,4.973 0,0 -0.465,-1.788 -1.277,-4.908 -0.34,-1.577 -1.085,-3.402 -1.78,-5.535 -0.653,-2.144 -1.713,-4.454 -2.765,-7 -1.025,-2.56 -2.488,-5.177 -3.855,-8.015 -1.603,-2.72 -3.108,-5.682 -5.048,-8.53 -0.952,-1.432 -1.867,-2.925 -2.89,-4.37 -1.037,-1.422 -2.087,-2.865 -3.155,-4.307 -1.03,-1.485 -2.262,-2.84 -3.402,-4.265 -1.153,-1.395 -2.28,-2.825 -3.545,-4.135 -0.118,-0.108 -3.605,-3.933 -3.733,-4.03 -1.155,-1.117 -2.307,-2.225 -3.447,-3.328 l -0.473,-0.455 c -1.275,-1.274 -2.635,-2.435 -3.987,-3.567 -1.015,-0.843 -1.99,-1.707 -2.985,-2.528 -0.343,-0.275 -0.683,-0.547 -1.033,-0.81 -2.765,-2.017 -5.337,-4.095 -8.025,-5.697 -1.32,-0.843 -2.602,-1.66 -3.842,-2.448 -0.5,-0.272 -0.998,-0.54 -1.485,-0.805 -0.768,-0.417 -1.52,-0.822 -2.255,-1.212 -1.298,-0.745 -2.56,-1.365 -3.758,-1.922 -1.007,-0.461 -1.965,-0.866 -2.865,-1.253 -0.522,-0.228 -1.027,-0.45 -1.51,-0.663 -0.44,-0.19 -0.867,-0.372 -1.275,-0.545 -0.707,-0.24 -1.365,-0.462 -1.965,-0.67 -0.14,-0.045 -0.275,-0.092 -0.407,-0.137 l -10.135,1.01 c 1.437,0.745 2.912,1.55 4.407,2.517 1.295,0.785 2.645,1.605 4.043,2.45 1.325,0.948 2.697,1.928 4.11,2.935 2.885,1.925 5.597,4.378 8.517,6.748 1.435,1.22 2.775,2.59 4.195,3.905 1.413,1.317 2.833,2.665 4.143,4.14 1.337,1.445 2.685,2.9 4.04,4.36 l 3.805,4.625 c 1.307,1.507 2.447,3.15 3.622,4.75 1.148,1.625 2.4,3.157 3.42,4.837 1.065,1.646 2.12,3.278 3.163,4.893 1.02,1.625 1.91,3.305 2.85,4.917 1.93,3.188 3.367,6.508 4.937,9.535 1.318,3.15 2.72,6.058 3.698,8.87 0.995,2.803 2.002,5.336 2.612,7.678 0.648,2.325 1.345,4.315 1.66,6.02 0.75,3.377 1.18,5.31 1.18,5.31 0,0 -0.517,-1.908 -1.42,-5.245 -0.39,-1.685 -1.177,-3.638 -1.927,-5.918 -0.708,-2.295 -1.825,-4.775 -2.938,-7.507 -1.097,-2.743 -2.625,-5.57 -4.062,-8.62 -1.695,-2.928 -3.258,-6.135 -5.31,-9.198 -1,-1.547 -1.95,-3.16 -3.028,-4.714 -1.097,-1.541 -2.21,-3.098 -3.33,-4.671 -1.075,-1.605 -2.38,-3.057 -3.575,-4.595 -1.222,-1.52 -2.41,-3.075 -3.76,-4.497 l -3.922,-4.345 c -1.385,-1.365 -2.768,-2.723 -4.138,-4.07 -1.335,-1.38 -2.775,-2.628 -4.207,-3.843 -1.438,-1.212 -2.79,-2.482 -4.235,-3.597 -2.933,-2.162 -5.648,-4.41 -8.508,-6.13 -1.395,-0.905 -2.755,-1.785 -4.067,-2.635 -1.373,-0.745 -2.695,-1.468 -3.968,-2.163 -2.515,-1.475 -4.912,-2.5 -7.025,-3.424 -1.052,-0.471 -2.037,-0.911 -2.945,-1.318 -0.972,-0.343 -1.862,-0.655 -2.67,-0.938 l -31.997,3.193 c 0,0 48.71,8.117 68.155,44.637 10.435,19.595 15.74,38.331 17.592,55.978 C 176.597,309.47 130.64,270.36 82.265,276.745 32.08,283.365 13.13,333.642 25.617,398.527 26.42,402.69 0.692,407.03 1.26,411.335 c 8.875,67.257 78.105,103.375 116.625,97.737 1.202,-0.177 2.38,-0.397 3.562,-0.615 11.513,-2.107 22.01,-6.132 31.278,-11.85 -0.083,0.163 -0.18,0.343 -0.26,0.503 0,0 105.5,-56.37 198.732,-109.87 0.343,-0.413 0.655,-0.855 0.98,-1.283 4.23,1.558 7.288,5.068 10.013,10.588 2.665,5.393 5.025,12.685 7.897,21.925 7.19,23.155 12.35,51.167 37.755,73.205 17.843,15.483 45.663,28.018 91.255,33.835 l 14.413,-11.09 c -44.228,-5.643 -71.903,-18.885 -90.045,-35.12 -22.665,-20.28 -30.443,-45.24 -36.878,-65.952 -3.3,-10.631 -6.525,-20.953 -11.515,-29.095 8.593,4.277 17.705,11.704 28.553,20.567 16.217,13.25 34.107,29.405 60.33,42.407 25.712,12.746 59.432,22.453 107.495,23.385 l 10.247,-15.294 C 538.472,454.475 505.877,445.95 480.115,434.427 451.572,421.662 431.42,405.215 414.557,391.44 m -267.382,89.337 c -7.445,5.411 -16.51,8.108 -25.468,8.713 -9.002,0.665 -17.985,-0.62 -26.562,-2.973 C 77.967,481.737 62.197,472.818 48.692,461.443 35.222,450.05 23.965,435.732 17.57,419.295 c 6.897,16.23 18.48,30.065 32.01,41.075 13.6,10.96 29.367,19.387 46.217,23.672 8.408,2.1 17.118,3.143 25.67,2.418 8.528,-0.69 16.935,-3.358 23.705,-8.423 3.405,-2.485 6.325,-5.585 8.77,-9.015 2.473,-3.467 4.218,-7.237 5.883,-11.334 3.11,-7.935 5.157,-16.461 6.36,-25.021 2.402,-17.157 1.887,-34.767 -1.418,-51.747 -3.257,-16.96 -9.492,-33.447 -19.02,-47.773 -4.77,-7.135 -10.392,-13.707 -16.89,-19.19 -6.485,-5.43 -13.915,-9.872 -21.962,-11.835 -1.998,-0.524 -4.038,-0.83 -6.07,-1.015 -0.893,-0.1 -2.14,-0.112 -3.19,-0.177 -1.028,0.022 -2.028,-0.022 -3.075,0.04 -4.168,0.16 -8.285,0.832 -12.18,2.147 -7.825,2.573 -14.56,7.813 -19.428,14.55 -4.915,6.73 -8.127,14.718 -10.152,22.968 -2.01,8.275 -2.895,16.865 -2.89,25.447 0.04,8.585 0.947,17.193 2.837,25.558 1.908,8.352 4.713,16.488 9.06,23.757 4.368,7.468 9.298,14.595 14.97,21.046 5.665,6.414 12.078,12.245 19.393,16.357 7.195,4.095 15.757,6.375 23.197,3.8 3.665,-1.282 6.888,-3.692 9.343,-6.855 2.467,-3.158 4.257,-6.935 5.487,-10.918 2.495,-8.005 2.943,-16.682 2.673,-25.275 -0.315,-8.597 -1.62,-17.185 -3.853,-25.519 -2.235,-8.331 -5.395,-16.435 -9.54,-23.983 -4.162,-7.5 -9.305,-14.62 -15.92,-19.873 -3.292,-2.577 -7.027,-4.657 -10.967,-5.29 -3.923,-0.65 -7.918,0.485 -10.915,3.198 -3.083,2.665 -5.155,6.342 -6.915,10.34 -1.753,3.91 -3.2,7.987 -4.265,12.167 -4.238,16.53 -2.09,34.705 5.482,50.078 l 54.465,-19.785 -54.587,21.29 -0.558,0.217 -0.277,-0.514 c -8.385,-15.703 -11.133,-34.398 -7.143,-51.913 0.988,-4.367 2.388,-8.647 4.188,-12.78 1.707,-4.03 3.937,-8.3 7.517,-11.478 3.473,-3.302 8.718,-4.924 13.498,-4.152 4.807,0.707 9.015,3.045 12.655,5.795 7.287,5.617 12.735,13.002 17.205,20.755 4.442,7.8 7.842,16.15 10.295,24.762 2.447,8.62 3.942,17.505 4.41,26.481 0.425,8.932 -0.038,18.092 -2.718,26.949 -1.342,4.405 -3.33,8.738 -6.27,12.533 -2.907,3.802 -6.967,6.927 -11.617,8.56 -4.658,1.627 -9.685,1.742 -14.333,0.857 -4.677,-0.88 -9.037,-2.682 -13.062,-4.91 C 85.58,452.84 78.782,446.662 72.8,439.96 66.817,433.22 61.672,425.835 57.127,418.152 c -4.725,-7.83 -7.757,-16.527 -9.792,-25.277 -2.028,-8.788 -3.018,-17.768 -3.1,-26.763 -0.038,-8.995 0.795,-18.042 3.012,-26.847 2.203,-8.778 5.683,-17.423 11.195,-24.913 5.443,-7.487 13.255,-13.547 22.21,-16.43 4.45,-1.475 9.098,-2.205 13.715,-2.36 1.148,-0.062 2.348,-0.012 3.52,-0.02 1.143,0.07 2.098,0.07 3.393,0.203 2.337,0.22 4.662,0.587 6.915,1.185 9.087,2.277 17.117,7.195 24.04,13.035 6.922,5.9 12.805,12.857 17.765,20.357 9.902,15.043 16.255,32.145 19.547,49.698 3.175,17.58 3.433,35.63 0.718,53.26 -1.38,8.83 -3.56,17.49 -6.998,25.892 -1.69,4.018 -3.712,8.26 -6.417,11.928 -2.705,3.687 -5.938,7.022 -9.675,9.677" />
    </g>
    <g
       id="g730">
      <path
         style="fill:#adada9"
         inkscape:connector-curvature="0"
         id="path599"
         d="m 1143.8,421.895 c 0.977,-5.765 1.877,-11.542 3.143,-17.16 1.082,-5.647 2.527,-11.127 3.839,-16.445 1.458,-5.28 2.863,-10.387 4.441,-15.165 0.797,-2.385 1.572,-4.702 2.319,-6.95 0.768,-2.235 1.646,-4.36 2.416,-6.415 1.49,-4.138 3.232,-7.805 4.665,-11.09 1.457,-3.275 3.09,-6.112 4.255,-8.45 0.542,-0.97 1.044,-1.8 1.507,-2.545 l -42.052,-20.792 c 0,0 1.515,17.679 3.597,27.177 -3.84,13.44 -90.95,74.123 -271.78,75.235 -14.16,0.088 -27.742,-0.277 -40.872,-0.947 l 321.717,28.065 c 0.195,-2.378 0.407,-4.77 0.61,-7.185 0.567,-5.738 1.345,-11.545 2.195,-17.333" />
      <path
         style="fill:#adada9"
         inkscape:connector-curvature="0"
         id="path601"
         d="m 1173.255,345.492 c -0.83,1.71 -1.772,3.605 -2.687,5.84 -1.283,3.205 -2.85,6.753 -4.176,10.815 -0.684,2.018 -1.475,4.09 -2.152,6.288 -0.662,2.2 -1.348,4.477 -2.052,6.822 -1.396,4.685 -2.615,9.715 -3.886,14.9 -1.12,5.225 -2.37,10.603 -3.262,16.145 -1.072,5.51 -1.78,11.165 -2.562,16.808 -0.658,5.65 -1.245,11.315 -1.628,16.895 -0.298,5.587 -0.698,11.08 -0.642,16.395 -0.01,2.657 -0.088,5.272 -0.041,7.825 0.103,2.55 0.206,5.042 0.303,7.472 0.075,4.863 0.685,9.408 1.052,13.613 0.283,4.225 1.113,7.997 1.593,11.377 0.277,1.688 0.495,3.273 0.772,4.718 0.336,1.43 0.645,2.75 0.923,3.935 1.105,4.752 1.735,7.46 1.735,7.46 l -5.577,1.442 h 10.462 c -11.29,-56.357 1.347,-130.445 11.825,-168.75" />
      <path
         style="fill:#adada9"
         inkscape:connector-curvature="0"
         id="path603"
         d="m 1228.758,371.26 c 6.317,29.642 7.372,65.017 8.31,97.54 0.465,16.188 0.937,31.485 1.962,45.442 h 5.185 c -0.285,-7.159 -0.49,-14.669 -0.702,-22.449 -1.045,-38.633 -2.295,-84.32 -14.755,-120.533" />
      <path
         style="fill:#adada9"
         inkscape:connector-curvature="0"
         id="path605"
         d="m 1180.507,368.44 c 0.26,-2.57 0.508,-5.047 0.75,-7.475 -9.277,39.65 -18.465,104.763 -8.062,153.277 h 4.34 c -7.11,-46.097 -1.095,-105.674 2.972,-145.802" />
      <path
         style="fill:#adada9"
         inkscape:connector-curvature="0"
         id="path607"
         d="m 1216.293,368.31 c 2.62,22.2 2.902,48.655 3.187,76.062 0.248,24.033 0.52,48.763 2.563,69.87 h 5.44 c -1,-13.977 -1.468,-29.109 -1.931,-45.109 -0.982,-34.08 -2.094,-71.38 -9.259,-100.823" />
      <path
         style="fill:#adada9"
         inkscape:connector-curvature="0"
         id="path609"
         d="m 1260.927,484.87 c 0.011,-4.403 -0.165,-9.137 -0.252,-14.167 -0.22,-5.01 -0.337,-10.313 -0.732,-15.758 -0.185,-2.73 -0.373,-5.497 -0.565,-8.305 -0.273,-2.795 -0.553,-5.62 -0.833,-8.472 -0.24,-2.858 -0.628,-5.71 -1.03,-8.576 -0.42,-2.857 -0.703,-5.759 -1.24,-8.607 -0.508,-2.855 -1.017,-5.708 -1.527,-8.553 -0.5,-2.847 -1.248,-5.612 -1.851,-8.394 -1.13,-5.603 -2.944,-10.893 -4.372,-16.12 -0.915,-2.54 -1.81,-5.04 -2.687,-7.49 -0.441,-1.223 -0.875,-2.431 -1.308,-3.628 -0.47,-1.07 -0.94,-2.127 -1.4,-3.17 l -1.78,-0.88 c 11.445,36.9 12.655,81.065 13.675,118.73 0.22,7.898 0.425,15.515 0.718,22.762 h 5.044 c 0,0 0.036,-2.944 0.093,-8.099 0.042,-5.146 0.125,-12.488 0.047,-21.273" />
      <path
         style="fill:#adada9"
         inkscape:connector-curvature="0"
         id="path611"
         d="m 1204.228,365.068 c 0.22,14.174 -0.245,30.557 -0.755,48.262 -0.955,33.285 -2.015,70.65 1.692,100.912 h 5.298 c -1.993,-21.337 -2.255,-45.894 -2.5,-69.752 -0.291,-28 -0.595,-56.625 -3.735,-79.422" />
      <path
         style="fill:#adada9"
         inkscape:connector-curvature="0"
         id="path613"
         d="m 769.5,414.005 0.415,0.038 c -0.125,-0.018 -0.258,-0.033 -0.383,-0.046 l -0.032,0.008" />
      <path
         style="fill:#adada9"
         inkscape:connector-curvature="0"
         id="path615"
         d="m 1191.96,413.003 c 0.517,-18.036 1.012,-35.47 0.69,-50.188 -0.225,2.21 -0.447,4.462 -0.683,6.788 -4.062,40.072 -10.082,99.824 -2.755,144.639 h 4.358 c -3.615,-30.87 -2.563,-68.052 -1.61,-101.239" />
      <path
         style="fill:#adada9"
         inkscape:connector-curvature="0"
         id="path617"
         d="m 1261.405,401.92 c 0.695,2.87 1.543,5.745 2.135,8.672 0.595,2.925 1.195,5.86 1.795,8.8 0.625,2.938 0.995,5.905 1.5,8.845 0.483,2.943 0.957,5.875 1.277,8.798 0.36,2.92 0.716,5.815 1.068,8.68 0.265,2.865 0.525,5.697 0.783,8.48 0.547,5.572 0.794,10.957 1.147,16.067 0.21,5.103 0.507,9.935 0.608,14.383 0.297,8.902 0.394,16.302 0.482,21.475 0.037,2.74 0.065,4.837 0.082,6.222 l 150.63,-49.852 -168.89,-83.478 c 0.796,2.058 1.595,4.128 2.413,6.248 1.627,5.395 3.65,10.898 4.97,16.66" />
      <path
         inkscape:connector-curvature="0"
         style="fill:#0a0b09"
         d="m 1208.102,331.325 c 1.415,-0.05 2.745,-0.35 4.035,-0.477 1.288,-0.181 2.51,-0.315 3.645,-0.436 2.238,-0.442 4.105,-0.814 5.411,-1.077 1.319,-0.25 2.099,-0.36 2.099,-0.36 0,0 -0.685,0.347 -1.92,0.892 -0.62,0.268 -1.375,0.593 -2.242,0.965 -0.875,0.365 -1.848,0.84 -2.96,1.188 -0.423,0.117 -0.92,0.237 -1.37,0.358 -0.065,-0.118 -0.125,-0.243 -0.193,-0.361 l -1.2,0.718 c -0.3,0.075 -0.562,0.155 -0.877,0.227 -1.26,0.265 -2.57,0.71 -3.973,0.85 -0.132,-0.335 -0.245,-0.7 -0.382,-1.027 l -3.623,1.487 c -0.212,0.023 -0.407,0.055 -0.62,0.073 -0.702,0.095 -1.415,0.13 -2.13,0.15 -0.04,-0.21 -0.072,-0.435 -0.114,-0.645 l -3.281,0.655 c -1.267,-0.02 -2.532,-0.013 -3.775,-0.14 -1.53,-0.155 -3.03,-0.388 -4.477,-0.57 -1.457,-0.115 -2.82,-0.61 -4.123,-0.9 -1.305,-0.35 -2.527,-0.59 -3.637,-1.108 -1.115,-0.437 -2.105,-0.879 -2.973,-1.27 -0.887,-0.337 -1.497,-0.907 -2.082,-1.24 -1.122,-0.74 -1.745,-1.202 -1.745,-1.202 0,0 0.74,0.237 2.007,0.712 0.635,0.2 1.366,0.638 2.293,0.778 0.91,0.185 1.923,0.385 2.99,0.65 1.045,0.312 2.313,0.367 3.573,0.58 1.289,0.145 2.607,0.447 4.027,0.492 1.405,0.1 2.858,0.168 4.325,0.305 1.472,0.12 2.98,0.028 4.477,0.05 1.5,0.025 3.005,0.098 4.475,-0.074 1.473,-0.123 2.931,-0.163 4.34,-0.243"
         id="path666" />
      <path
         id="path625"
         style="fill:#0a0b09"
         d="m 1204.17,172.157 144.822,-33.64 v -21.6 L 846.47,3.165 362.665,92.44 v 24.477 l 255.06,74.523 c -1.535,3.04 -3.24,6.655 -5.005,10.815 0.687,0.32 1.362,0.637 2.067,0.955 4.74,2.19 9.888,4.32 15.09,6.34 2.623,0.932 5.23,1.957 7.84,2.805 2.618,0.812 5.173,1.76 7.703,2.415 2.527,0.67 4.952,1.472 7.305,1.95 2.345,0.512 4.557,1.102 6.63,1.46 2.075,0.357 3.975,0.68 5.665,0.972 1.69,0.283 3.18,0.36 4.405,0.513 2.457,0.257 3.862,0.405 3.862,0.405 0,0 -1.412,0.03 -3.882,0.09 -1.235,0.005 -2.748,0.117 -4.473,0.05 -1.727,-0.073 -3.68,-0.155 -5.807,-0.243 -2.133,-0.092 -4.418,-0.4 -6.86,-0.615 -2.45,-0.182 -4.98,-0.672 -7.635,-1.022 -2.663,-0.34 -5.348,-0.96 -8.12,-1.45 -2.768,-0.523 -5.533,-1.215 -8.33,-1.825 -5.545,-1.373 -11.075,-2.873 -16.195,-4.488 -0.78,-0.237 -1.533,-0.48 -2.297,-0.722 -1.131,3.007 -2.25,6.225 -3.338,9.627 1.287,0.64 2.597,1.285 3.94,1.938 2.825,1.262 5.71,2.69 8.722,3.93 3.005,1.267 6.053,2.587 9.168,3.727 l 4.647,1.775 c 1.568,0.535 3.125,1.065 4.673,1.593 3.087,1.102 6.175,2.015 9.175,2.88 2.982,0.937 5.912,1.662 8.7,2.33 2.78,0.712 5.42,1.342 7.887,1.77 2.465,0.475 4.723,0.907 6.728,1.292 2.02,0.278 3.782,0.523 5.232,0.723 2.913,0.4 4.575,0.63 4.575,0.63 0,0 -1.677,-0.05 -4.612,-0.138 -1.473,-0.045 -3.263,-0.097 -5.313,-0.157 -2.045,-0.17 -4.355,-0.36 -6.87,-0.57 -2.532,-0.163 -5.25,-0.51 -8.122,-0.925 -2.883,-0.373 -5.925,-0.788 -9.035,-1.405 -3.125,-0.55 -6.36,-1.138 -9.603,-1.918 -1.627,-0.367 -3.272,-0.735 -4.922,-1.107 l -4.915,-1.293 c -3.3,-0.822 -6.543,-1.827 -9.75,-2.792 -3.22,-0.938 -6.313,-2.073 -9.355,-3.06 -1.13,-0.405 -2.228,-0.81 -3.323,-1.21 -0.887,3.225 -1.72,6.585 -2.487,10.08 1.372,0.715 2.765,1.432 4.217,2.102 3.231,1.58 6.593,3.175 10.078,4.653 3.447,1.577 7.037,2.957 10.622,4.377 3.56,1.493 7.248,2.613 10.82,3.92 3.585,1.275 7.198,2.248 10.66,3.343 3.463,1.095 6.89,1.83 10.108,2.7 3.215,0.895 6.307,1.477 9.157,2.072 2.855,0.563 5.46,1.206 7.8,1.548 2.34,0.365 4.383,0.682 6.063,0.945 3.367,0.525 5.292,0.825 5.292,0.825 0,0 -1.942,-0.12 -5.345,-0.33 -1.705,-0.108 -3.772,-0.238 -6.145,-0.388 -2.379,-0.125 -5.035,-0.525 -7.952,-0.822 -2.91,-0.333 -6.083,-0.632 -9.39,-1.23 -3.313,-0.573 -6.853,-1 -10.443,-1.777 -3.587,-0.778 -7.347,-1.428 -11.094,-2.381 -3.736,-0.985 -7.601,-1.787 -11.356,-2.962 -3.777,-1.103 -7.575,-2.178 -11.24,-3.458 -3.7,-1.182 -7.295,-2.49 -10.76,-3.807 -0.937,-0.333 -1.822,-0.703 -2.732,-1.06 -0.61,3.477 -1.138,7.067 -1.58,10.752 0.922,0.473 1.82,0.95 2.77,1.41 3.64,1.89 7.517,3.595 11.447,5.375 3.92,1.81 8.038,3.323 12.09,5.02 4.108,1.553 8.263,2.99 12.335,4.473 4.14,1.293 8.213,2.562 12.155,3.793 3.998,1.065 7.863,2.092 11.528,3.067 3.66,1.02 7.202,1.617 10.435,2.367 3.245,0.673 6.207,1.415 8.877,1.795 2.663,0.445 4.983,0.83 6.895,1.15 3.828,0.638 6.015,1.003 6.015,1.003 0,0 -2.207,-0.185 -6.075,-0.513 -1.937,-0.162 -4.287,-0.36 -6.985,-0.589 -2.71,-0.161 -5.72,-0.661 -9.032,-1.073 -3.295,-0.485 -6.915,-0.797 -10.67,-1.523 -3.77,-0.68 -7.748,-1.402 -11.86,-2.145 -4.085,-0.92 -8.305,-1.867 -12.593,-2.832 -4.24,-1.163 -8.577,-2.278 -12.88,-3.517 -4.255,-1.388 -8.582,-2.598 -12.735,-4.116 -4.157,-1.49 -8.275,-2.917 -12.165,-4.547 -0.13,-0.05 -0.25,-0.108 -0.38,-0.158 -0.285,3.793 -0.477,7.668 -0.537,11.635 3.897,2.045 8.07,3.813 12.232,5.811 4.453,1.892 9,3.797 13.585,5.617 4.643,1.655 9.245,3.465 13.868,4.98 4.642,1.445 9.19,2.97 13.65,4.267 4.487,1.205 8.822,2.373 12.935,3.481 4.132,1.042 8.087,1.824 11.717,2.657 3.638,0.808 6.97,1.577 9.963,2.035 2.985,0.52 5.587,0.972 7.73,1.347 4.29,0.745 6.742,1.173 6.742,1.173 0,0 -2.475,-0.247 -6.807,-0.682 -2.17,-0.218 -4.803,-0.483 -7.823,-0.788 -3.035,-0.24 -6.42,-0.768 -10.12,-1.315 -3.697,-0.57 -7.73,-1.068 -11.955,-1.815 -4.217,-0.815 -8.667,-1.67 -13.27,-2.558 -4.585,-0.98 -9.282,-2.187 -14.09,-3.31 -4.787,-1.192 -9.577,-2.682 -14.417,-4.029 -4.79,-1.506 -9.558,-3.108 -14.245,-4.715 -3.243,-1.273 -6.463,-2.458 -9.618,-3.696 0.12,4.153 0.375,8.39 0.788,12.705 2.627,1.245 5.29,2.485 7.992,3.738 4.973,2.03 9.945,4.337 15.088,6.21 5.157,1.825 10.222,3.972 15.395,5.517 5.157,1.593 10.175,3.405 15.152,4.725 4.978,1.35 9.785,2.665 14.345,3.908 4.615,1.042 8.98,2.032 13.005,2.945 4.028,0.942 7.733,1.742 11.05,2.275 3.308,0.592 6.193,1.11 8.568,1.537 4.755,0.853 7.475,1.338 7.475,1.338 0,0 -2.745,-0.308 -7.543,-0.848 -2.402,-0.27 -5.32,-0.6 -8.667,-0.975 -3.358,-0.317 -7.115,-0.879 -11.208,-1.555 -4.1,-0.652 -8.542,-1.359 -13.242,-2.105 -4.668,-0.95 -9.588,-1.952 -14.678,-2.987 -5.105,-1.005 -10.275,-2.498 -15.595,-3.767 -5.337,-1.228 -10.595,-3.053 -15.952,-4.566 -5.348,-1.565 -10.55,-3.575 -15.76,-5.317 -1.49,-0.575 -2.955,-1.145 -4.43,-1.72 0.175,1.228 0.325,2.445 0.522,3.685 -3.84,3.84 -18.477,6.4 -18.477,6.4 l 0.002,0.757 0.238,37.128 0.227,0.15 c 3.848,2.55 68.908,44.64 188.255,59.697 0.128,0.013 0.258,0.028 0.383,0.045 15.532,1.948 32.007,3.42 49.362,4.306 13.13,0.669 26.713,1.034 40.87,0.947 180.833,-1.113 267.943,-61.795 271.783,-75.235 -2.083,-9.498 -3.6,-27.178 -3.6,-27.178 l -19.318,-4.14 c -2.66,-24.83 -2.487,-76.075 -38.78,-109.472 l 110.238,-25.608 c 6.135,50.398 8.642,78.538 9.452,94.168 -11.952,6.467 -20.724,17.76 -21.76,43.825 4.913,1.59 6.533,9.72 0.075,10.81 0.07,2.052 -0.2,5.125 0,7.31 0.988,0.862 2.04,1.63 3.11,2.36 -0.285,0.45 -0.615,0.972 -0.962,1.537 -0.463,0.748 -0.965,1.578 -1.508,2.548 -1.164,2.337 -2.797,5.175 -4.255,8.45 -1.432,3.285 -3.174,6.952 -4.664,11.087 -0.77,2.058 -1.648,4.183 -2.416,6.418 -0.747,2.247 -1.522,4.565 -2.32,6.95 -1.577,4.777 -2.982,9.885 -4.44,15.165 -1.312,5.317 -2.757,10.797 -3.839,16.445 -1.266,5.617 -2.166,11.395 -3.143,17.16 -0.85,5.787 -1.625,11.595 -2.195,17.332 -0.203,2.415 -0.415,4.808 -0.61,7.185 -0.265,3.281 -0.49,6.528 -0.557,9.728 -0.093,2.75 -0.25,5.455 -0.283,8.107 0.03,2.658 0.053,5.256 0.08,7.788 -0.063,5.06 0.42,9.85 0.677,14.275 0.173,4.43 0.916,8.465 1.318,12.057 0.245,1.793 0.427,3.478 0.68,5.028 0.31,1.54 0.595,2.957 0.85,4.237 1.037,5.121 1.632,8.05 1.632,8.05 l 5.576,-1.44 5.577,-1.442 c 0,0 -0.633,-2.708 -1.735,-7.46 -0.278,-1.185 -0.588,-2.503 -0.923,-3.935 -0.277,-1.445 -0.495,-3.03 -0.772,-4.715 -0.48,-3.383 -1.31,-7.155 -1.593,-11.38 -0.367,-4.205 -0.977,-8.75 -1.052,-13.613 -0.098,-2.43 -0.2,-4.922 -0.303,-7.472 -0.047,-2.553 0.031,-5.17 0.041,-7.825 -0.056,-5.315 0.344,-10.808 0.642,-16.395 0.382,-5.58 0.97,-11.245 1.627,-16.895 0.783,-5.643 1.491,-11.298 2.563,-16.808 0.892,-5.542 2.142,-10.92 3.262,-16.144 1.271,-5.185 2.49,-10.215 3.886,-14.901 0.704,-2.345 1.39,-4.622 2.052,-6.822 0.677,-2.198 1.468,-4.27 2.152,-6.288 1.326,-4.062 2.893,-7.61 4.176,-10.815 0.914,-2.234 1.857,-4.13 2.687,-5.84 -10.478,38.305 -23.115,112.393 -11.825,168.75 0.285,1.415 0.562,2.838 0.877,4.235 l 11.238,-2.537 c -0.125,-0.56 -0.23,-1.138 -0.35,-1.698 -10.403,-48.515 -1.215,-113.627 8.062,-153.277 -0.242,2.427 -0.49,4.905 -0.747,7.475 -4.07,40.128 -10.085,99.705 -2.975,145.802 0.382,2.461 0.77,4.913 1.225,7.293 l 11.315,-2.173 c -0.323,-1.667 -0.583,-3.407 -0.862,-5.12 -7.328,-44.815 -1.306,-104.567 2.757,-144.64 0.233,-2.325 0.457,-4.577 0.68,-6.787 0.322,14.72 -0.173,32.152 -0.69,50.188 -0.953,33.187 -2.005,70.369 1.61,101.239 0.373,3.148 0.77,6.25 1.24,9.258 l 11.38,-1.783 c -0.383,-2.435 -0.713,-4.937 -1.025,-7.475 -3.707,-30.262 -2.648,-67.627 -1.693,-100.912 0.51,-17.705 0.976,-34.088 0.755,-48.262 3.14,22.797 3.445,51.422 3.736,79.422 0.245,23.858 0.507,48.415 2.5,69.752 0.257,2.708 0.522,5.378 0.834,7.975 l 11.435,-1.375 c -0.257,-2.139 -0.475,-4.372 -0.69,-6.6 -2.042,-21.107 -2.315,-45.837 -2.562,-69.87 -0.285,-27.407 -0.568,-53.862 -3.188,-76.062 7.166,29.443 8.281,66.742 9.26,100.822 0.463,16 0.93,31.133 1.93,45.11 0.108,1.456 0.185,2.966 0.305,4.398 l 11.48,-0.937 c -0.095,-1.125 -0.155,-2.32 -0.237,-3.461 -1.025,-13.957 -1.498,-29.255 -1.962,-45.442 -0.938,-32.523 -1.993,-67.898 -8.311,-97.54 12.461,36.213 13.711,81.9 14.755,120.532 0.213,7.78 0.418,15.29 0.703,22.45 0.022,0.586 0.045,1.188 0.067,1.771 l 11.51,-0.486 c -0.017,-0.425 -0.032,-0.86 -0.05,-1.285 -0.292,-7.247 -0.5,-14.864 -0.717,-22.762 -1.02,-37.665 -2.23,-81.83 -13.675,-118.73 -1.103,-3.557 -2.295,-7.043 -3.598,-10.45 0.785,1.442 1.595,2.915 2.36,4.475 0.935,2.13 1.908,4.33 2.903,6.592 0.035,0.083 0.075,0.173 0.115,0.263 0.46,1.042 0.93,2.1 1.4,3.17 0.433,1.197 0.867,2.405 1.308,3.627 0.877,2.451 1.772,4.951 2.689,7.49 1.426,5.228 3.24,10.518 4.37,16.12 0.603,2.783 1.35,5.548 1.85,8.395 0.51,2.845 1.018,5.698 1.528,8.553 0.537,2.847 0.82,5.75 1.24,8.607 0.402,2.865 0.79,5.718 1.03,8.575 0.28,2.853 0.557,5.678 0.832,8.473 0.196,2.807 0.38,5.575 0.566,8.305 0.395,5.445 0.51,10.748 0.732,15.757 0.085,5.03 0.263,9.765 0.25,14.168 0.08,8.785 0,16.127 -0.045,21.272 -0.057,5.155 -0.093,8.1 -0.093,8.1 h 11.52 c 0,0 -0.01,-0.674 -0.025,-1.9 -0.017,-1.385 -0.045,-3.482 -0.082,-6.222 -0.088,-5.173 -0.185,-12.573 -0.482,-21.475 -0.101,-4.448 -0.398,-9.28 -0.608,-14.383 -0.353,-5.11 -0.6,-10.495 -1.147,-16.067 -0.258,-2.783 -0.518,-5.615 -0.783,-8.48 -0.352,-2.865 -0.708,-5.76 -1.068,-8.68 -0.317,-2.923 -0.794,-5.855 -1.277,-8.798 -0.505,-2.94 -0.875,-5.907 -1.5,-8.845 -0.6,-2.937 -1.2,-5.875 -1.798,-8.8 -0.589,-2.927 -1.437,-5.802 -2.132,-8.672 -1.32,-5.762 -3.343,-11.265 -4.97,-16.66 -0.818,-2.12 -1.617,-4.19 -2.413,-6.248 -0.192,-0.5 -0.392,-1.027 -0.587,-1.525 -0.497,-1.264 -0.982,-2.52 -1.465,-3.76 -0.568,-1.207 -1.127,-2.397 -1.68,-3.575 -1.105,-2.35 -2.178,-4.635 -3.217,-6.842 -1.13,-2.17 -2.365,-4.195 -3.471,-6.178 -1.154,-1.96 -2.144,-3.882 -3.295,-5.627 -1.2,-1.728 -2.332,-3.37 -3.402,-4.913 -1.067,-1.535 -2.067,-2.972 -2.993,-4.305 -0.967,-1.257 -1.915,-2.3 -2.737,-3.3 -1.22,-1.447 -2.243,-2.662 -3.055,-3.625 0.525,-1.517 0.325,-4.54 0.382,-7.997 -8.99,-3.79 -5.21,-9.908 -0.314,-10.49 -0.918,-12.99 -8.061,-29.145 -16.638,-39.497 -1.405,-1.698 -2.85,-3.213 -4.31,-4.558 -0.948,-21.608 -4.748,-58.598 -11.57,-113.045 l -1.073,-8.573 -5.797,-1.405 C 1170.425,145.352 886.637,96.202 859.065,91.432 l 2.517,-12.747 c 3.068,0.605 307.095,60.597 332.728,63.287 l 7.305,0.763 0.4,6.927 c 32.183,-6.635 64.355,-13.332 96.582,-19.785 -32.112,7.553 -64.274,14.858 -96.422,22.228 0.36,5.015 1.087,12.022 1.995,20.052 M 1080.715,323.48 c 3.115,-1.368 4.777,-2.098 4.777,-2.098 0,0 -1.615,0.825 -4.64,2.378 -3.05,1.5 -7.417,3.957 -13.197,6.607 -5.827,2.533 -12.77,5.955 -21.072,9.09 -8.188,3.41 -17.635,6.728 -28.031,10.093 -5.23,1.55 -10.662,3.255 -16.332,4.855 -5.703,1.462 -11.573,3.095 -17.663,4.55 -12.195,2.835 -25.125,5.602 -38.645,7.59 -3.377,0.51 -6.785,1.023 -10.217,1.535 -3.433,0.488 -6.91,0.852 -10.393,1.287 -6.977,0.925 -14.062,1.535 -21.212,2.185 -7.14,0.69 -14.365,1.003 -21.6,1.513 -7.258,0.225 -14.535,0.697 -21.825,0.718 -14.573,0.222 -29.143,-0.243 -43.465,-0.901 -14.315,-0.86 -28.395,-1.882 -41.953,-3.522 -6.792,-0.698 -13.44,-1.68 -19.942,-2.6 -6.48,-1.123 -12.845,-2.033 -18.983,-3.275 -12.32,-2.213 -23.845,-4.94 -34.442,-7.565 -10.568,-2.77 -20.175,-5.623 -28.525,-8.65 -4.208,-1.398 -8.04,-3.038 -11.635,-4.373 -3.52,-1.54 -6.79,-2.864 -9.658,-4.255 -5.765,-2.712 -10.095,-5.285 -12.96,-7.105 -2.802,-1.927 -4.297,-2.955 -4.297,-2.955 0,0 1.552,0.935 4.467,2.695 2.968,1.675 7.416,3.875 13.245,6.348 2.903,1.253 6.213,2.425 9.768,3.792 3.635,1.17 7.492,2.628 11.74,3.828 4.215,1.282 8.72,2.582 13.515,3.788 4.762,1.317 9.84,2.459 15.102,3.75 10.595,2.319 22.103,4.714 34.395,6.582 12.27,1.977 25.278,3.6 38.753,5.037 13.475,1.508 27.46,2.395 41.667,3.12 14.22,0.528 28.68,0.86 43.125,0.508 7.228,0.02 14.445,-0.365 21.64,-0.53 7.183,-0.44 14.353,-0.685 21.438,-1.307 7.09,-0.581 14.127,-1.121 21.045,-1.973 3.462,-0.4 6.912,-0.733 10.32,-1.183 3.407,-0.48 6.79,-0.957 10.142,-1.43 13.405,-1.952 26.293,-4.27 38.47,-6.75 6.075,-1.277 11.938,-2.74 17.64,-4.035 5.668,-1.43 11.103,-2.98 16.343,-4.375 10.382,-3.125 19.917,-5.99 28.213,-8.997 8.392,-2.75 15.442,-5.843 21.37,-8.108 5.862,-2.417 10.382,-4.524 13.512,-5.862 m 78.865,-161.72 -88.737,19.952 c -37.963,8.618 -76.016,16.828 -114.026,25.238 l -114.055,25.095 -0.707,0.152 -0.698,-0.2 -112.96,-32.647 c -37.642,-10.928 -75.34,-21.655 -112.92,-32.793 L 502.667,133.39 C 465.12,122.132 427.52,111.062 390.022,99.64 c 37.858,10.172 75.613,20.702 113.42,31.045 l 113.253,31.625 c 37.772,10.465 75.43,21.332 113.145,32.005 l 112.407,31.947 113.458,-24.427 c 38.062,-8.153 76.085,-16.503 114.197,-24.443 l 81.433,-17.137 c 2.905,0.527 5.65,1.027 8.245,1.505"
         inkscape:connector-curvature="0" />
    </g>
  </g>
</svg>
